<svg id="Logo." xmlns="http://www.w3.org/2000/svg" xmlns:xlink="http://www.w3.org/1999/xlink" width="169.888" height="40" viewBox="0 0 169.888 40">
  <defs>
    <linearGradient id="linear-gradient" y1="-280.315" x2="1" y2="-280.315" gradientUnits="objectBoundingBox">
      <stop offset="0" stop-color="#2da7df"/>
      <stop offset="0.25" stop-color="#30a9df"/>
      <stop offset="0.47" stop-color="#3baee0"/>
      <stop offset="0.66" stop-color="#4cb7e0"/>
      <stop offset="0.85" stop-color="#64c4e1"/>
      <stop offset="1" stop-color="#7ed1e2"/>
    </linearGradient>
  </defs>
  <path id="Path_25" data-name="Path 25" d="M79,4.632,80.846,0l1.846,4.632Z" transform="translate(-58.078)" fill="#f8d608"/>
  <path id="Path_26" data-name="Path 26" d="M100.25,6.693l3.178-3.843.339,4.974Z" transform="translate(-73.701 -2.095)" fill="#f8d608"/>
  <path id="Path_27" data-name="Path 27" d="M120.14,17.5l4.2-2.688-1.2,4.838Z" transform="translate(-88.323 -10.888)" fill="#f8d608"/>
  <path id="Path_28" data-name="Path 28" d="M136.75,34.749l4.82-1.279-2.619,4.24Z" transform="translate(-100.534 -24.606)" fill="#f8d608"/>
  <path id="Path_29" data-name="Path 29" d="M148.48,56.04l4.981.262-3.79,3.239Z" transform="translate(-109.158 -41.199)" fill="#f8d608"/>
  <path id="Path_30" data-name="Path 30" d="M154.23,76.55l4.664,1.764-4.6,1.928Z" transform="translate(-113.385 -56.277)" fill="#f8d608"/>
  <path id="Path_31" data-name="Path 31" d="M4.635,81.462,0,79.626,4.624,77.77Z" transform="translate(0 -57.174)" fill="#f8d608"/>
  <path id="Path_32" data-name="Path 32" d="M8.144,60.059,4.32,56.86,9.3,56.55Z" transform="translate(-3.176 -41.574)" fill="#f8d608"/>
  <path id="Path_33" data-name="Path 33" d="M19.338,37.969,16.7,33.74l4.825,1.253Z" transform="translate(-12.277 -24.805)" fill="#f8d608"/>
  <path id="Path_34" data-name="Path 34" d="M36.846,19.806,35.63,14.97l4.213,2.675Z" transform="translate(-26.194 -11.005)" fill="#f8d608"/>
  <path id="Path_35" data-name="Path 35" d="M58.16,7.886l.326-4.976,3.186,3.835Z" transform="translate(-42.757 -2.139)" fill="#f8d608"/>
  <path id="Path_36" data-name="Path 36" d="M129.626,193.147a11.589,11.589,0,0,1,5.315,1.263l.124.061.117.079c1.488,1.028,5.953,3.689,8.684,3.689a1.519,1.519,0,0,0,1.059-.286l.058-.053a1.412,1.412,0,0,0,.445-.76c0-.085-.265-.5-1.3-.99l-2.789-1.343,2.307-2.058a9.841,9.841,0,0,1,6.051-2.415,7.113,7.113,0,0,1,4.727,1.8l.069.066a10.474,10.474,0,0,1,2.487,3.829,16.351,16.351,0,0,0,.09-1.74,16.758,16.758,0,1,0-33.516,0c0,.1,0,.188,0,.283A14.433,14.433,0,0,1,129.626,193.147Z" transform="translate(-117.37 -171.963)" fill="#f8d608"/>
  <path id="Path_37" data-name="Path 37" d="M147.886,268.972a8.44,8.44,0,0,1-1.028-.042c-5.207-.426-8.324-3.5-11.075-6.2-2.648-2.611-4.95-4.868-8.859-4.868-.312,0-.644.024-.975.048a16.756,16.756,0,0,0,22.2,11.054C148.061,268.962,147.979,268.972,147.886,268.972Z" transform="translate(-119.131 -231.019)" fill="#2e7dbf"/>
  <path id="Path_38" data-name="Path 38" d="M124.28,238.279s5.093-3.178,10.26-.561c0,0,9.118,6.3,12.349,3.2,0,0,3.3-2.929-1.324-5.159a6.292,6.292,0,0,1,8.056-.585s4.807,3.2,1.66,9.118c0,0-3.032,5.519-9.47,4.995C136.205,248.494,134.831,237.164,124.28,238.279Z" transform="translate(-117.903 -213.43)" fill="url(#linear-gradient)"/>
  <path id="Path_39" data-name="Path 39" d="M288.411,197.62c.236-1.324.641-1.735,1.989-2l1.419-.3.866-2.648c.408-1.367.866-1.7,2.3-1.7h.2c1.435,0,1.682.3,1.43,1.735l-.461,2.6h3.8c1.5,0,1.8.365,1.539,1.867l-.064.368c-.265,1.5-.7,1.87-2.2,1.87h-3.8l-1.165,6.6c-.265,1.5.307,2.235,1.708,2.235a12.581,12.581,0,0,0,2.37-.2c1.549-.265,1.854-.1,1.589,1.364l-.066.368a2.4,2.4,0,0,1-2.251,2.37,11.388,11.388,0,0,1-2.37.2c-4.3,0-6.062-2.137-5.315-6.374l1.16-6.57h-1.324c-1.324,0-1.61-.336-1.374-1.671Z" transform="translate(-238.498 -181.844)" fill="#e15068"/>
  <path id="Path_40" data-name="Path 40" d="M348.751,217.981c-.636,3.6-3.149,5.373-8.186,5.373s-6.925-1.769-6.308-5.273,3.178-5.2,7.68-5.2h3.369l.222-1.269c.283-1.589-.794-2.037-3.106-2.037a22.983,22.983,0,0,0-2.94.2c-1.51.233-1.854-.1-1.589-1.568l.021-.132c.265-1.435.686-1.8,2.161-2.037a23.777,23.777,0,0,1,2.73-.167c5.238,0,7.791,1.589,7.06,5.739Zm-4.012-1.833H341.3c-1.57,0-2.476.6-2.693,1.833-.148,1.6.89,1.769,2.529,1.737,1.695.032,2.831-.167,3.316-1.97Z" transform="translate(-272.189 -192.798)" fill="#e15068"/>
  <path id="Path_41" data-name="Path 41" d="M395.668,197.62c.236-1.324.641-1.735,1.986-2l1.419-.3.866-2.648c.408-1.367.869-1.7,2.3-1.7h.2c1.435,0,1.682.3,1.427,1.735l-.458,2.6h3.8c1.5,0,1.8.365,1.539,1.867l-.064.368c-.265,1.5-.7,1.87-2.2,1.87h-3.816l-1.165,6.6c-.265,1.5.307,2.235,1.708,2.235a12.6,12.6,0,0,0,2.37-.2c1.547-.265,1.854-.1,1.589,1.364l-.066.368a2.4,2.4,0,0,1-2.251,2.37,11.425,11.425,0,0,1-2.383.2c-4.3,0-6.059-2.137-5.312-6.374l1.157-6.57H397c-1.324,0-1.61-.336-1.374-1.671Z" transform="translate(-317.331 -181.844)" fill="#e15068"/>
  <path id="Path_42" data-name="Path 42" d="M443.954,188.117c.265-1.5.694-1.867,2.2-1.867h.6c1.5,0,1.8.365,1.539,1.867l-2.283,12.945c-.265,1.5-.7,1.867-2.2,1.867h-.6c-1.5,0-1.8-.363-1.539-1.867Zm1.867-8.708a2.553,2.553,0,0,1,3.671,0,2.643,2.643,0,0,1-.646,3.668,2.547,2.547,0,0,1-3.668,0A2.65,2.65,0,0,1,445.821,179.41Z" transform="translate(-351.176 -172.776)" fill="#e15068"/>
  <path id="Path_43" data-name="Path 43" d="M467.868,184.057c.265-1.5.7-1.867,2.2-1.867h.6c1.5,0,1.8.368,1.541,1.867l-2.733,15.482c-.3,1.7.04,2.235,1.075,2.235h.167c.9,0,1.094.233.863,1.536l-.111.633c-.236,1.324-.53,1.7-1.464,1.867a7.056,7.056,0,0,1-1.012.069c-3.038,0-4.664-1.735-4.025-5.371Z" transform="translate(-368.266 -175.389)" fill="#e15068"/>
  <path id="Path_44" data-name="Path 44" d="M593.33,184.084c.265-1.5.7-1.854,2.2-1.854h.6c1.5,0,1.8.368,1.536,1.854l-2.728,15.458c-.3,1.7.04,2.233,1.073,2.233h.167c.9,0,1.091.233.863,1.531l-.111.633c-.236,1.324-.53,1.7-1.462,1.867a7.579,7.579,0,0,1-1.012.066c-3.032,0-4.658-1.735-4.017-5.365Z" transform="translate(-460.505 -175.419)" fill="#e15068"/>
  <path id="Path_45" data-name="Path 45" d="M633.607,214.3c-.434,1.5-.924,1.833-2.489,1.833h-8.461l-.09.5c-.3,1.732.853,2.532,3.919,2.532a21.73,21.73,0,0,0,4.113-.466c1.486-.3,1.759.032,1.486,1.589l-.066.368c-.265,1.465-.617,1.8-2.148,2.164a16.467,16.467,0,0,1-4.142.434c-5.961,0-8.305-2.2-7.415-7.3l.471-2.664c.879-5,3.919-7.5,9.084-7.5q7.293,0,6.025,7.2A10.711,10.711,0,0,1,633.607,214.3Zm-10.328-1.7h6.565l.085-.5c.3-1.7-.651-2.532-2.85-2.532s-3.414.832-3.708,2.532Z" transform="translate(-480.966 -192.747)" fill="#e15068"/>
  <path id="Path_46" data-name="Path 46" d="M702.586,186.615c1.727-.691,2.41-3.008,1.531-5.156s-2.982-3.329-4.7-2.624-2.407,3.014-1.528,5.169S700.87,187.322,702.586,186.615Zm0,0" transform="translate(-539.321 -172.772)" fill="#e15068"/>
  <path id="Path_47" data-name="Path 47" d="M671.443,157.3c1.144,11.353-7.346,19.333-7.346,19.333s-5.953-11.547-16.856-15.559c20.678,17.029,7.256,36.017,7.256,36.017h0s22.222-23.874,16.949-39.772Zm0,0" transform="translate(-502.367 -157.091)" fill="#e15068"/>
  <path id="Path_48" data-name="Path 48" d="M532.551,206a9.227,9.227,0,0,0-9.129,8.7,8.231,8.231,0,0,0,8.305,8.7,9.221,9.221,0,0,0,9.126-8.7,8.228,8.228,0,0,0-8.3-8.7Zm-.606,12.842a3.92,3.92,0,0,1-3.954-4.142,4.391,4.391,0,0,1,4.343-4.139,3.92,3.92,0,0,1,3.943,4.15,4.391,4.391,0,0,1-4.333,4.142Z" transform="translate(-411.33 -192.892)" fill="#e15068"/>
</svg>
