<svg xmlns="http://www.w3.org/2000/svg" id="Logo-white." width="169.876" height="40" viewBox="0 0 169.876 40">
    <defs>
        <style>
            .cls-1{fill:#fff}
        </style>
    </defs>
    <path id="Path_1" d="M79 4.632L80.846 0l1.846 4.632z" class="cls-1" transform="translate(-58.08)"/>
    <path id="Path_2" d="M100.25 6.692l3.178-3.842.339 4.973z" class="cls-1" transform="translate(-73.702 -2.095)"/>
    <path id="Path_3" d="M120.14 17.5l4.2-2.688-1.2 4.838z" class="cls-1" transform="translate(-88.325 -10.888)"/>
    <path id="Path_4" d="M136.75 34.749l4.82-1.279-2.619 4.24z" class="cls-1" transform="translate(-100.537 -24.607)"/>
    <path id="Path_5" d="M148.48 56.04l4.981.262-3.789 3.239z" class="cls-1" transform="translate(-109.161 -41.2)"/>
    <path id="Path_6" d="M154.23 76.55l4.663 1.764-4.6 1.928z" class="cls-1" transform="translate(-113.388 -56.279)"/>
    <path id="Path_7" d="M4.634 81.461L0 79.626l4.624-1.856z" class="cls-1" transform="translate(0 -57.175)"/>
    <path id="Path_8" d="M8.144 60.059L4.32 56.86l4.98-.31z" class="cls-1" transform="translate(-3.176 -41.575)"/>
    <path id="Path_9" d="M19.338 37.969L16.7 33.74l4.825 1.253z" class="cls-1" transform="translate(-12.278 -24.805)"/>
    <path id="Path_10" d="M36.845 19.805L35.63 14.97l4.213 2.675z" class="cls-1" transform="translate(-26.195 -11.006)"/>
    <path id="Path_11" d="M58.16 7.886l.326-4.976 3.186 3.834z" class="cls-1" transform="translate(-42.758 -2.139)"/>
    <path id="Path_12" d="M129.63-212.791a11.62 11.62 0 0 1 5.315 1.26l.124.061.117.079c1.488 1.027 5.953 3.689 8.683 3.689a1.534 1.534 0 0 0 1.059-.283l.058-.053a1.417 1.417 0 0 0 .445-.763c0-.082-.265-.5-1.3-.988l-2.788-1.343 2.307-2.06a9.856 9.856 0 0 1 6.051-2.415 7.115 7.115 0 0 1 4.727 1.8l.069.064a10.51 10.51 0 0 1 2.487 3.832 16.443 16.443 0 0 0 .09-1.742 16.757 16.757 0 0 0-16.755-16.757 16.757 16.757 0 0 0-16.757 16.757v.283a14.48 14.48 0 0 1 6.068-1.421z" class="cls-1" transform="translate(-117.374 233.976)"/>
    <path id="Path_13" d="M147.884-136.968a8.445 8.445 0 0 1-1.027-.042c-5.206-.426-8.323-3.5-11.074-6.2-2.648-2.608-4.949-4.867-8.858-4.867-.312 0-.643.024-.975.048a16.757 16.757 0 0 0 16.122 12.195 16.828 16.828 0 0 0 6.077-1.139c-.09-.003-.172.005-.265.005z" class="cls-1" transform="translate(-119.131 174.919)"/>
    <path id="Path_14" d="M124.28-167.661s5.092-3.178 10.259-.559c0 0 9.118 6.3 12.348 3.194 0 0 3.3-2.913-1.324-5.159a6.291 6.291 0 0 1 8.056-.585s4.806 3.2 1.66 9.118c0 0-3.032 5.521-9.47 5-9.609-.787-10.979-12.124-21.529-11.009z" class="cls-1" transform="translate(-117.903 192.508)"/>
    <path id="Path_15" d="M288.426-208.291c.236-1.324.641-1.735 1.989-2l1.419-.3.866-2.635c.408-1.369.866-1.7 2.3-1.7h.2c1.435 0 1.682.3 1.43 1.735l-.461 2.6h3.8c1.5 0 1.8.365 1.539 1.87l-.064.365c-.265 1.5-.7 1.87-2.2 1.87h-3.8l-1.165 6.6c-.265 1.5.307 2.235 1.708 2.235a12.578 12.578 0 0 0 2.37-.2c1.549-.265 1.854-.1 1.589 1.366l-.066.365a2.4 2.4 0 0 1-2.251 2.37 11.387 11.387 0 0 1-2.37.2c-4.3 0-6.062-2.137-5.315-6.371l1.165-6.559h-1.324c-1.324 0-1.61-.334-1.374-1.668z" class="cls-1" transform="translate(-238.516 224.066)"/>
    <path id="Path_16" d="M348.75-187.95c-.636 3.6-3.149 5.37-8.185 5.37s-6.925-1.769-6.308-5.27 3.178-5.206 7.68-5.206h3.363l.222-1.268c.283-1.589-.794-2.034-3.106-2.034a22.507 22.507 0 0 0-2.939.2c-1.509.233-1.854-.1-1.589-1.568l.021-.135c.265-1.435.686-1.8 2.161-2.034a23.185 23.185 0 0 1 2.73-.167c5.238 0 7.791 1.6 7.06 5.736zm-4.012-1.835H341.3c-1.57 0-2.476.6-2.693 1.835-.148 1.6.89 1.766 2.529 1.735 1.695.032 2.831-.167 3.315-1.968z" class="cls-1" transform="translate(-272.193 213.134)"/>
    <path id="Path_17" d="M395.712-208.291c.236-1.324.641-1.735 1.986-2l1.419-.3.866-2.635c.408-1.369.869-1.7 2.3-1.7h.2c1.435 0 1.682.3 1.427 1.735l-.458 2.6h3.8c1.5 0 1.8.365 1.539 1.87l-.064.365c-.265 1.5-.7 1.87-2.2 1.87h-3.816l-1.165 6.6c-.265 1.5.307 2.235 1.708 2.235a12.6 12.6 0 0 0 2.37-.2c1.547-.265 1.854-.1 1.589 1.366l-.066.365a2.4 2.4 0 0 1-2.251 2.37 11.423 11.423 0 0 1-2.383.2c-4.3 0-6.059-2.137-5.312-6.371l1.173-6.559h-1.324c-1.324 0-1.61-.334-1.374-1.668z" class="cls-1" transform="translate(-317.38 224.066)"/>
    <path id="Path_18" d="M443.954-217.821c.265-1.5.694-1.87 2.2-1.87h.6c1.5 0 1.8.365 1.539 1.87l-2.283 12.941c-.265 1.5-.7 1.87-2.2 1.87h-.6c-1.5 0-1.8-.365-1.539-1.87zm1.867-8.71a2.553 2.553 0 0 1 3.67 0 2.645 2.645 0 0 1-.646 3.67 2.556 2.556 0 0 1-3.668 0 2.653 2.653 0 0 1 .644-3.669z" class="cls-1" transform="translate(-351.182 233.164)"/>
    <path id="Path_19" d="M467.868-221.88c.265-1.5.7-1.87 2.2-1.87h.6c1.5 0 1.8.368 1.541 1.87l-2.733 15.48c-.3 1.7.04 2.232 1.075 2.232h.167c.9 0 1.094.236.863 1.536l-.111.633c-.236 1.324-.53 1.7-1.464 1.87a7.545 7.545 0 0 1-1.012.066c-3.037 0-4.663-1.735-4.025-5.37z" class="cls-1" transform="translate(-368.272 230.55)"/>
    <path id="Path_20" d="M593.33-221.856c.265-1.5.7-1.854 2.2-1.854h.6c1.5 0 1.8.365 1.536 1.854l-2.731 15.456c-.3 1.7.04 2.232 1.072 2.232h.167c.9 0 1.091.233.863 1.531l-.111.633c-.236 1.324-.53 1.7-1.462 1.867a7.576 7.576 0 0 1-1.012.066c-3.032 0-4.658-1.732-4.017-5.362z" class="cls-1" transform="translate(-460.513 230.521)"/>
    <path id="Path_21" d="M633.606-191.607c-.434 1.5-.924 1.83-2.489 1.83h-8.461l-.09.5c-.3 1.734.853 2.532 3.919 2.532a21.514 21.514 0 0 0 4.112-.466c1.486-.3 1.758.032 1.486 1.589l-.066.368c-.265 1.464-.617 1.8-2.148 2.166a16.6 16.6 0 0 1-4.142.432c-5.961 0-8.3-2.2-7.415-7.3l.471-2.664c.879-5 3.919-7.494 9.083-7.494q7.293 0 6.025 7.195a11.4 11.4 0 0 1-.285 1.312zm-10.328-1.7h6.565l.085-.5c.3-1.7-.651-2.532-2.849-2.532s-3.413.832-3.707 2.532z" class="cls-1" transform="translate(-480.975 213.171)"/>
    <path id="Path_22" d="M702.6-219.319c1.727-.694 2.41-3.011 1.531-5.159s-2.982-3.329-4.7-2.622-2.407 3.011-1.515 5.172 2.982 3.318 4.7 2.614zm0 0" class="cls-1" transform="translate(-539.344 233.164)"/>
    <path id="Path_23" d="M671.441-248.63c1.144 11.35-7.346 19.331-7.346 19.331s-5.953-11.543-16.855-15.558c20.677 17.027 7.256 36.015 7.256 36.015s22.22-23.87 16.948-39.767zm0 0" class="cls-1" transform="translate(-502.377 248.842)"/>
    <path id="Path_24" d="M532.551-199.9a9.226 9.226 0 0 0-9.128 8.712 8.231 8.231 0 0 0 2.263 6.154 8.231 8.231 0 0 0 6.042 2.548 9.221 9.221 0 0 0 9.125-8.7 8.228 8.228 0 0 0-2.257-6.161 8.228 8.228 0 0 0-6.045-2.553zm-.606 12.841a3.919 3.919 0 0 1-2.871-1.208 3.919 3.919 0 0 1-1.083-2.92 4.391 4.391 0 0 1 4.343-4.139 3.919 3.919 0 0 1 2.868 1.216 3.919 3.919 0 0 1 1.075 2.923 4.391 4.391 0 0 1-4.333 4.126z" class="cls-1" transform="translate(-411.338 213.017)"/>
</svg>
