<svg xmlns="http://www.w3.org/2000/svg" width="20.317" height="23.858" viewBox="0 0 20.317 23.858">
  <g id="surface" transform="translate(0 0.001)">
    <path id="Path_2151" data-name="Path 2151" d="M20.293,6.472V6.454c-.01-.229-.017-.472-.021-.741A2.529,2.529,0,0,0,17.89,3.235,9.812,9.812,0,0,1,11.212.42L11.2.406a1.527,1.527,0,0,0-2.075,0L9.106.42A9.813,9.813,0,0,1,2.427,3.235,2.528,2.528,0,0,0,.047,5.713c0,.268-.011.51-.021.741V6.5c-.053,2.8-.12,6.278,1.045,9.438a12.014,12.014,0,0,0,2.882,4.49,15.078,15.078,0,0,0,5.641,3.336,1.744,1.744,0,0,0,.231.063,1.708,1.708,0,0,0,.671,0,1.746,1.746,0,0,0,.232-.063,15.088,15.088,0,0,0,5.635-3.338,12.032,12.032,0,0,0,2.882-4.491C20.412,12.763,20.346,9.275,20.293,6.472ZM17.93,15.448c-1.228,3.33-3.736,5.617-7.665,6.992a.36.36,0,0,1-.044.012.315.315,0,0,1-.123,0,.354.354,0,0,1-.044-.012c-3.934-1.372-6.443-3.658-7.67-6.988C1.309,12.539,1.37,9.343,1.424,6.524V6.508c.011-.242.018-.5.022-.775a1.124,1.124,0,0,1,1.059-1.1,12.283,12.283,0,0,0,4.169-.917,10.907,10.907,0,0,0,3.4-2.283.129.129,0,0,1,.173,0,10.911,10.911,0,0,0,3.4,2.283,12.283,12.283,0,0,0,4.169.917,1.124,1.124,0,0,1,1.059,1.1c0,.28.011.534.022.775C18.947,9.331,19.006,12.529,17.93,15.448Zm0,0" transform="translate(0 0)" fill="#fff"/>
    <path id="Path_2152" data-name="Path 2152" d="M96.344,128.41a5.946,5.946,0,1,0,5.946,5.946A5.953,5.953,0,0,0,96.344,128.41Zm0,10.492a4.546,4.546,0,1,1,4.546-4.546A4.551,4.551,0,0,1,96.344,138.9Zm0,0" transform="translate(-86.186 -122.427)" fill="#fff"/>
    <path id="Path_2153" data-name="Path 2153" d="M158.379,212.2l-2.762,2.762-.75-.75a.7.7,0,0,0-.99.99l1.245,1.245a.7.7,0,0,0,.99,0l3.257-3.257a.7.7,0,0,0-.99-.99Zm0,0" transform="translate(-146.512 -202.114)" fill="#fff"/>
  </g>
</svg>
