<svg xmlns="http://www.w3.org/2000/svg" width="80" height="80" viewBox="0 0 80 80">
    <defs>
        <clipPath id="segmxpwrra">
            <path fill="#222" d="M0 0H80V80H0z" transform="translate(456 271)"/>
        </clipPath>
    </defs>
    <g clip-path="url(#segmxpwrra)" transform="translate(-456 -271)">
        <g>
            <g>
                <g>
                    <path d="M27.312 49.405h-2.424a2.344 2.344 0 1 0 0 4.687h2.424a2.344 2.344 0 0 0 0-4.687z" transform="translate(456 271)"/>
                </g>
            </g>
            <g>
                <g>
                    <path d="M39.9 49.405h-2.42a2.344 2.344 0 0 0 0 4.687h2.42a2.344 2.344 0 1 0 0-4.687z" transform="translate(456 271)"/>
                </g>
            </g>
            <g>
                <g>
                    <path d="M52.5 49.405h-2.428a2.344 2.344 0 0 0 0 4.687H52.5a2.344 2.344 0 0 0 0-4.687z" transform="translate(456 271)"/>
                </g>
            </g>
            <g>
                <g>
                    <path d="M77.656 62.3a10.046 10.046 0 0 1-6.838-2.936l8.934-17.822a2.344 2.344 0 0 0-2.1-3.394H59.287L48.969 23.276c-.037-.054-.08-.1-.121-.153v-.38a9.745 9.745 0 0 0-9.734-9.734H17.4a2.344 2.344 0 1 0 0 4.687h2.286v4.572h-2.144a2.344 2.344 0 0 0-2.332 2.113l-1.365 13.771h-4.28a4.638 4.638 0 0 0-4.637 4.212l-.919 8.954H2.344a2.344 2.344 0 1 0 0 4.687h1.184L3.1 60.189v.021a4.659 4.659 0 0 0 .265 2.032 8.627 8.627 0 0 1-1.018.062 2.344 2.344 0 1 0 0 4.687 14.429 14.429 0 0 0 9.414-3.64 14.435 14.435 0 0 0 9.415 3.64 14.429 14.429 0 0 0 9.413-3.64 14 14 0 0 0 18.828 0 13.993 13.993 0 0 0 18.827 0 14.436 14.436 0 0 0 9.415 3.64 2.344 2.344 0 0 0 0-4.688zM24.37 17.7h14.744a5.053 5.053 0 0 1 5.023 4.572H24.37zm-4.705 9.26h26.152l1.509 2.176H19.449zm-.68 6.863h31.23a2.351 2.351 0 0 0 .344-.028l3.025 4.361H18.555zM65.5 59.52a9.966 9.966 0 0 1-6.673 2.78 10.1 10.1 0 0 1-6.957-3.044 3.559 3.559 0 0 0-4.912 0A10.1 10.1 0 0 1 40 62.3a10.1 10.1 0 0 1-6.959-3.046 3.559 3.559 0 0 0-4.914 0 10.094 10.094 0 0 1-6.954 3.046 10.1 10.1 0 0 1-6.959-3.046 3.559 3.559 0 0 0-4.914 0A12.755 12.755 0 0 1 7.78 60.5l1.812-17.661H73.86z" transform="translate(456 271)"/>
                </g>
            </g>
        </g>
    </g>
</svg>
