<svg xmlns="http://www.w3.org/2000/svg" width="80" height="80" viewBox="0 0 80 80">
    <defs>
        <clipPath id="lpz3x239ra">
            <path fill="#222" d="M0 0H80V80H0z" transform="translate(456 271)"/>
        </clipPath>
    </defs>
    <g clip-path="url(#lpz3x239ra)" transform="translate(-456 -271)">
        <g>
            <path d="M1.3 79.752A2.344 2.344 0 0 0 4.441 78.7l5.091-10.179v9.134A2.344 2.344 0 0 0 11.875 80h56.25a2.344 2.344 0 0 0 2.344-2.344v-9.135l5.09 10.179a2.344 2.344 0 1 0 4.193-2.1L42.1 1.3a2.344 2.344 0 0 0-4.193 0L.248 76.607A2.344 2.344 0 0 0 1.3 79.752zm12.923-18.5h4.687v4.687h-4.691zm32.812 0v14.06h-4.691V61.25zm-13.663-4.69a7.03 7.03 0 0 1 13.256 0zm-.4 4.687h4.687v14.063h-4.69zm32.812 4.687h-4.691V61.25h4.687zM40 7.585l24.489 48.977H58.75a2.344 2.344 0 0 0-2.344 2.344v9.375a2.344 2.344 0 0 0 2.344 2.344h7.031v4.687H51.719V58.906a11.719 11.719 0 1 0-23.437 0v16.406H14.219v-4.688h7.031a2.344 2.344 0 0 0 2.344-2.344v-9.374a2.344 2.344 0 0 0-2.344-2.344h-5.739z" transform="translate(456 271)"/>
            <path d="M40 42.5a7.031 7.031 0 1 0-7.031-7.031A7.039 7.039 0 0 0 40 42.5zm0-9.375a2.344 2.344 0 1 1-2.344 2.344A2.346 2.346 0 0 1 40 33.125z" transform="translate(456 271)"/>
        </g>
    </g>
</svg>
