<svg xmlns="http://www.w3.org/2000/svg" width="45" height="45" viewBox="0 0 45 45">
    <defs>
        <clipPath id="u8j68mg5la">
            <path fill="#e15068" stroke="#707070" d="M0 0H45V45H0z" transform="translate(770.497 697.497)"/>
        </clipPath>
    </defs>
    <g clip-path="url(#u8j68mg5la)" transform="translate(-770.497 -697.497)">
        <path fill="#e15068" d="M22.017 0a22.017 22.017 0 1 0 22.016 22.017A22.017 22.017 0 0 0 22.017 0zm0 40.364a18.347 18.347 0 1 1 18.347-18.347 18.347 18.347 0 0 1-18.347 18.347zm9.173-18.347a1.835 1.835 0 0 1-1.835 1.835h-5.5v5.5a1.835 1.835 0 0 1-3.669 0v-5.5h-5.5a1.835 1.835 0 1 1 0-3.669h5.5v-5.5a1.835 1.835 0 1 1 3.669 0v5.5h5.5a1.835 1.835 0 0 1 1.835 1.834z" transform="translate(770.98 697.98)"/>
    </g>
</svg>
