<svg xmlns="http://www.w3.org/2000/svg" width="40" height="40" viewBox="0 0 40 40">
    <defs>
        <clipPath id="clip-path">
            <path id="Rectangle_2418" d="M0 0H40V40H0z" class="cls-1" transform="translate(2.777)"/>
        </clipPath>
        <style>
            .cls-1{fill:#000}
        </style>
    </defs>
    <g id="baby-icon-white" clip-path="url(#clip-path)" transform="translate(-2.777)">
        <g id="baby-boy" transform="translate(10.242)">
            <g id="Group_4160" transform="translate(8.755 37.387)">
                <g id="Group_4159">
                    <path id="Path_13503" d="M27.344 46.79a.781.781 0 0 0-1.016.435.913.913 0 0 1-.846.559h-2.854a.913.913 0 0 1-.846-.559.781.781 0 1 0-1.45.581 2.456 2.456 0 0 0 2.3 1.541h2.854a2.456 2.456 0 0 0 2.3-1.541.781.781 0 0 0-.442-1.016z" class="cls-1" transform="translate(-20.275 -46.734)"/>
                </g>
            </g>
            <g id="Group_4162">
                <g id="Group_4161">
                    <path id="Path_13504" d="M34.33 33.419a3.854 3.854 0 0 0-1.85-2.6 3.882 3.882 0 0 0 1.388-3.593 9.849 9.849 0 0 0-5.463-7.408 8.961 8.961 0 0 0-4.093-14.755 3.38 3.38 0 0 0 .788-2.182A2.884 2.884 0 0 0 22.223 0a2.617 2.617 0 0 0-1.691.587 2.132 2.132 0 0 0-.77 1.655.781.781 0 0 0 1.563 0 .578.578 0 0 1 .214-.461 1.059 1.059 0 0 1 .684-.219 1.32 1.32 0 0 1 1.318 1.318A1.843 1.843 0 0 1 21.7 4.724h-.057a8.961 8.961 0 0 0-6.315 15.09 9.85 9.85 0 0 0-5.463 7.408 3.882 3.882 0 0 0 1.388 3.593 3.856 3.856 0 0 0-1.1 5.711l1.673 2.138A3.483 3.483 0 0 0 14.568 40a3.446 3.446 0 0 0 1.727-.461 3.488 3.488 0 0 0 1.484-4.305l-1.015-2.518a3.848 3.848 0 0 0-.237-.485h5.73a.781.781 0 0 0 0-1.563h-7.215v-1.651a.385.385 0 0 1 .385-.385h12.88a.385.385 0 0 1 .385.385v1.755a3.854 3.854 0 0 0-1.723 1.939l-1.015 2.518a3.488 3.488 0 0 0 1.484 4.305 3.446 3.446 0 0 0 1.726.466 3.483 3.483 0 0 0 2.744-1.328l1.673-2.138a3.854 3.854 0 0 0 .749-3.115zM14.462 13.69a7.4 7.4 0 1 1 7.4 7.4 7.412 7.412 0 0 1-7.4-7.4zm.853 19.61l1.015 2.518a1.91 1.91 0 0 1-3.275 1.882l-1.673-2.138a2.294 2.294 0 1 1 3.933-2.262zm13-7.788a.781.781 0 0 0-.781.781v.781H16.207v-.781a.781.781 0 0 0-1.562 0v.945a1.95 1.95 0 0 0-1.166 1.783v1.1a2.328 2.328 0 0 1-2.07-2.663 8.248 8.248 0 0 1 5.212-6.5 8.946 8.946 0 0 0 10.491 0 8.248 8.248 0 0 1 5.212 6.5 2.328 2.328 0 0 1-2.07 2.663v-1.1a1.95 1.95 0 0 0-1.161-1.781v-.948a.781.781 0 0 0-.781-.784zm4.04 10.059L30.678 37.7a1.91 1.91 0 0 1-3.278-1.887l1.018-2.513a2.294 2.294 0 1 1 3.934 2.271z" class="cls-1" transform="translate(-9.332)"/>
                </g>
            </g>
            <g id="Group_4164" transform="translate(15.247 30.664)">
                <g id="Group_4163">
                    <path id="Path_13505" d="M29.724 38.559a.781.781 0 1 0 .229.552.787.787 0 0 0-.229-.552z" class="cls-1" transform="translate(-28.391 -38.33)"/>
                </g>
            </g>
            <g id="Group_4166" transform="translate(10.091 16.184)">
                <g id="Group_4165">
                    <path id="Path_13506" d="M26.543 20.4a.781.781 0 0 0-1.1.115 1.356 1.356 0 0 1-2.11 0 .781.781 0 0 0-1.214.984 2.919 2.919 0 0 0 4.538 0 .781.781 0 0 0-.114-1.099z" class="cls-1" transform="translate(-21.946 -20.23)"/>
                </g>
            </g>
            <g id="Group_4168" transform="translate(7.761 12.606)">
                <g id="Group_4167">
                    <path id="Path_13507" d="M21.832 16.289a1.82 1.82 0 0 0-2.571 0 .781.781 0 0 0 1.1 1.1.256.256 0 0 1 .361 0 .781.781 0 0 0 1.1-1.1z" class="cls-1" transform="translate(-19.033 -15.757)"/>
                </g>
            </g>
            <g id="Group_4170" transform="translate(14.28 12.606)">
                <g id="Group_4169">
                    <path id="Path_13508" d="M29.981 16.289a1.82 1.82 0 0 0-2.571 0 .781.781 0 1 0 1.1 1.1.256.256 0 0 1 .361 0 .781.781 0 0 0 1.1-1.1z" class="cls-1" transform="translate(-27.182 -15.757)"/>
                </g>
            </g>
        </g>
    </g>
</svg>
