<svg xmlns="http://www.w3.org/2000/svg" xmlns:xlink="http://www.w3.org/1999/xlink" width="24" height="24" viewBox="0 0 24 24">
  <defs>
    <clipPath id="clip-path">
      <rect id="Rectangle_2317" data-name="Rectangle 2317" width="24" height="24" transform="translate(313 834)" fill="#222"/>
    </clipPath>
  </defs>
  <g id="bathroom" transform="translate(-313 -834)" clip-path="url(#clip-path)">
    <g id="bath" transform="translate(313 834)">
      <path id="Path_12488" data-name="Path 12488" d="M24,11.976a2.064,2.064,0,0,0-2.061-2.062h-.064V2.346a2.346,2.346,0,1,0-4.691,0V4.02h1.406V2.346a.939.939,0,1,1,1.879,0V7.3H19.21V8.71h1.258V9.915H2.061A2.064,2.064,0,0,0,0,11.976v2.149H1.434v1.708a6.465,6.465,0,0,0,3.444,5.711l-.453,1.05h-1.6V24H5.35l.836-1.938a6.444,6.444,0,0,0,1.707.229h8.214a6.443,6.443,0,0,0,1.707-.229L18.65,24h2.521V22.594h-1.6l-.453-1.05a6.465,6.465,0,0,0,3.444-5.711V14.125H24Zm-12.242-.655v6.147H7.1V11.321Zm-10.352,1.4v-.743a.656.656,0,0,1,.655-.655H5.7v1.4H1.406Zm19.753,3.114a5.058,5.058,0,0,1-5.053,5.053H7.893a5.058,5.058,0,0,1-5.053-5.053V14.125H5.7v4.75h7.468v-4.75h7.995Zm1.434-3.114H13.165v-1.4h8.774a.656.656,0,0,1,.655.655Z"/>
    </g>
  </g>
</svg>
