<svg xmlns="http://www.w3.org/2000/svg" xmlns:xlink="http://www.w3.org/1999/xlink" width="24" height="24" viewBox="0 0 24 24">
  <defs>
    <clipPath id="clip-path">
      <rect id="Rectangle_2317" data-name="Rectangle 2317" width="24" height="24" transform="translate(313 834)" fill="#222"/>
    </clipPath>
  </defs>
  <g id="bed" transform="translate(-313 -834)" clip-path="url(#clip-path)">
    <g id="bed-2" data-name="bed" transform="translate(313 834)">
      <g id="Group_3653" data-name="Group 3653">
        <path id="Path_12487" data-name="Path 12487" d="M21.188,7.781H9.844a2.806,2.806,0,0,0-2.109.955A2.805,2.805,0,0,0,4.219,8.16v-4.6H0V20.438H4.219V17.625H19.781v2.813H24V10.594A2.816,2.816,0,0,0,21.188,7.781ZM2.813,19.031H1.406V4.969H2.813Zm1.406-8.437a1.406,1.406,0,0,1,2.813,0V12H4.219Zm18.375,8.438H21.188V17.625h1.406Zm0-2.812H4.219V13.406H22.594Zm0-4.219H8.438V10.594A1.408,1.408,0,0,1,9.844,9.188H21.188a1.408,1.408,0,0,1,1.406,1.406Z"/>
      </g>
    </g>
  </g>
</svg>
