<svg xmlns="http://www.w3.org/2000/svg" width="30" height="30" viewBox="0 0 30 30">
    <defs>
        <clipPath id="clip-path">
            <path id="Rectangle_1345" d="M0 0H30V30H0z" class="cls-1"/>
        </clipPath>
        <style>
            .cls-1{fill:#e15068}
        </style>
    </defs>
    <g id="call-center" clip-path="url(#clip-path)">
        <g id="live-chat" transform="translate(0 1.817)">
            <path id="Path_10478" d="M27.363 8.847h-1.812a11.433 11.433 0 0 0-21.1 0H2.637A2.64 2.64 0 0 0 0 11.484V15a2.64 2.64 0 0 0 2.637 2.637h3.6l-.377-1.152a9.69 9.69 0 1 1 9.153 6.425 2.637 2.637 0 1 0 2.623 2.637v-1.188a11.47 11.47 0 0 0 7.91-6.723h1.816A2.64 2.64 0 0 0 30 15v-3.516a2.64 2.64 0 0 0-2.637-2.637zM3.871 15.878H2.637A.88.88 0 0 1 1.758 15v-3.516a.88.88 0 0 1 .879-.879h1.244q-.047.2-.087.4a11.6 11.6 0 0 0 .077 4.873zm12.008 9.668a.879.879 0 0 1-1.758 0 .889.889 0 0 1 .895-.879q.434 0 .863-.034zM28.242 15a.88.88 0 0 1-.879.879h-1.245a11.51 11.51 0 0 0 .157-4.512q-.061-.383-.151-.761h1.239a.88.88 0 0 1 .879.879z" class="cls-1" transform="translate(0 -1.817)"/>
            <path id="Path_10479" d="M10.605 12.363h1.758v1.758h-1.758z" class="cls-1" transform="translate(0 -1.817)"/>
            <path id="Path_10480" d="M14.121 12.363h1.758v1.758h-1.758z" class="cls-1" transform="translate(0 -1.817)"/>
            <path id="Path_10481" d="M17.637 12.363h1.758v1.758h-1.758z" class="cls-1" transform="translate(0 -1.817)"/>
            <path id="Path_10482" d="M7.09 19.394v1.758H15a7.91 7.91 0 1 0-6.221-3.024 1.748 1.748 0 0 1-1.689 1.266zM15 7.089a6.152 6.152 0 1 1 0 12.3h-4.865a3.5 3.5 0 0 0 .455-1.434l.035-.376-.249-.284A6.152 6.152 0 0 1 15 7.089z" class="cls-1" transform="translate(0 -1.817)"/>
        </g>
    </g>
</svg>
