<svg xmlns="http://www.w3.org/2000/svg" xmlns:xlink="http://www.w3.org/1999/xlink" width="22" height="22" viewBox="0 0 22 22">
  <defs>
    <clipPath id="clip-path">
      <rect id="Rectangle_2292" data-name="Rectangle 2292" width="22" height="22" transform="translate(0 0)" fill="#fff"/>
    </clipPath>
  </defs>
  <g id="change-date-white" transform="translate(0 0)" clip-path="url(#clip-path)">
    <g id="fi-rr-time-check" transform="translate(0 0)">
      <path id="Path_12403" data-name="Path 12403" d="M18.55,10.953a.907.907,0,0,0-1.282,0l-5.1,5.1-2.437-2.4a.909.909,0,0,0-1.3,1.269l2.487,2.448a1.7,1.7,0,0,0,1.219.544h.03a1.7,1.7,0,0,0,1.21-.5l5.173-5.174A.907.907,0,0,0,18.55,10.953Z" transform="translate(2.94 3.845)" fill="#fff"/>
      <path id="Path_12404" data-name="Path 12404" d="M10.053,19.906a9.065,9.065,0,1,1,9.89-9.028c0,.278-.014.554-.037.826a.907.907,0,0,0,.822.987.9.9,0,0,0,.984-.822c.029-.329.044-.658.044-.991A10.878,10.878,0,1,0,9.89,21.712h.082a.907.907,0,0,0,.081-1.813Z" transform="translate(0 0)" fill="#fff"/>
      <path id="Path_12405" data-name="Path 12405" d="M8.053,4.906V9.064L5.6,11.518A.906.906,0,1,0,6.881,12.8L9.6,10.08a.907.907,0,0,0,.266-.641V4.906a.907.907,0,0,0-1.813,0Z" transform="translate(1.919 1.439)" fill="#fff"/>
    </g>
  </g>
</svg>
