<svg xmlns="http://www.w3.org/2000/svg" xmlns:xlink="http://www.w3.org/1999/xlink" width="19" height="19" viewBox="0 0 19 19">
  <defs>
    <clipPath id="clip-path">
      <rect id="Rectangle_2320" data-name="Rectangle 2320" width="19" height="19" transform="translate(128 1571.818)" fill="#2ebf8e"/>
    </clipPath>
  </defs>
  <g id="check-green" transform="translate(-128 -1571.818)" clip-path="url(#clip-path)">
    <path id="fi-rr-check" d="M17.5,4.367,6.67,15.2a.784.784,0,0,1-1.111,0l-4.19-4.194a.784.784,0,0,0-1.111,0h0a.784.784,0,0,0,0,1.111L4.45,16.309a2.358,2.358,0,0,0,3.332,0L18.616,5.477a.784.784,0,0,0,0-1.11h0a.784.784,0,0,0-1.111,0Z" transform="translate(127.973 1570.842)" fill="#2ebf8e"/>
  </g>
</svg>
