<svg xmlns="http://www.w3.org/2000/svg" width="40" height="40" viewBox="0 0 40 40">
    <defs>
        <clipPath id="clip-path">
            <path id="Rectangle_2418" d="M0 0H40V40H0z" class="cls-1" transform="translate(2.777)"/>
        </clipPath>
        <style>
            .cls-1{fill:#000}
        </style>
    </defs>
    <g id="child-icon-white" clip-path="url(#clip-path)" transform="translate(-2.777)">
        <g id="boy" transform="translate(9.236)">
            <g id="Group_4171">
                <path id="Path_13509" d="M21.975 21.192a1.172 1.172 0 1 0-1.175 1.172 1.172 1.172 0 0 0 1.175-1.173z" class="cls-1" transform="translate(-10.386 -4.004)"/>
                <path id="Path_13510" d="M28.616 20.02a1.172 1.172 0 1 0 1.172 1.172 1.172 1.172 0 0 0-1.172-1.172z" class="cls-1" transform="translate(-11.948 -4.004)"/>
                <path id="Path_13511" d="M25.73 25.886a2.721 2.721 0 0 1-2.721 0 .781.781 0 1 0-.781 1.353 4.284 4.284 0 0 0 4.284 0 .781.781 0 0 0-.781-1.353z" class="cls-1" transform="translate(-10.827 -5.156)"/>
                <path id="Path_13512" d="M33.325 4.858A8.429 8.429 0 0 0 34.693.824.781.781 0 0 0 33.7.03a27.426 27.426 0 0 1-8.536.52.781.781 0 0 0-.064 1.561 32.963 32.963 0 0 0 7.866-.3 5.182 5.182 0 0 1-1.286 2.567.778.778 0 0 0-.246.673.758.758 0 0 0 .4.575 3.709 3.709 0 0 1 1.312 1.905c.467 1.284.788 3.58-.2 7.345a2.35 2.35 0 0 0-.391-.033h-.026c-.339-4.991-3.884-6.379-4.042-6.438a.781.781 0 0 0-1.047.845 2.837 2.837 0 0 1-.034.794 9.278 9.278 0 0 0-6.142-2.308c-1.954-.077-4.364.323-5.575 1.638a4.71 4.71 0 0 0-3.124 1.345 6.708 6.708 0 0 0-1.845 4.123h-.039a2.343 2.343 0 0 0-.431.04c-.807-2.6-.932-6.132.409-8.179A3.514 3.514 0 0 1 13.6 5.074a.781.781 0 0 0 .577-.294 6.807 6.807 0 0 1 4.112-2.433.781.781 0 1 0-.339-1.526 8.451 8.451 0 0 0-4.778 2.718 5.027 5.027 0 0 0-3.822 2.31 9.216 9.216 0 0 0-1.276 5.031 15.084 15.084 0 0 0 .8 4.819 2.343 2.343 0 0 0 1.809 3.832h.726a11.111 11.111 0 0 0 3.727 4.888 10.891 10.891 0 0 0 3.34 1.68c-.123 1.857-.845 2.026-1.583 2.026h-1.526A5.475 5.475 0 0 0 9.9 33.594v5.625a.781.781 0 0 0 .781.781h21.873a.781.781 0 0 0 .781-.781v-5.625a5.475 5.475 0 0 0-5.469-5.469h-1.523c-.738 0-1.46-.168-1.583-2.025a10.891 10.891 0 0 0 3.341-1.68 11.111 11.111 0 0 0 3.727-4.888h.726a2.342 2.342 0 0 0 1.793-3.851c1.857-6.655.085-9.671-1.022-10.822zM11.46 36.875h3.125v1.563H11.46zm17.187 1.563v-1.563h3.125v1.563zm-.781-8.75a3.911 3.911 0 0 1 3.906 3.906v1.719h-3.125a.781.781 0 1 0-1.562 0v3.125H16.148v-3.126a.781.781 0 1 0-1.562 0H11.46v-1.718a3.911 3.911 0 0 1 3.906-3.906h1.524a3.4 3.4 0 0 0 1.219-.208 5.1 5.1 0 0 0 7.015 0 3.4 3.4 0 0 0 1.219.208h1.524zm-4.078-1.32c.026.044.056.088.086.132a3.532 3.532 0 0 1-4.516 0c.029-.043.057-.085.083-.127a4.449 4.449 0 0 0 .571-1.929 10.871 10.871 0 0 0 3.209 0 4.456 4.456 0 0 0 .568 1.924zm8.766-10.4h-1.277a.781.781 0 0 0-.743.539 9.371 9.371 0 0 1-17.835 0 .781.781 0 0 0-.743-.539h-1.277a.781.781 0 1 1 0-1.562h.781a.781.781 0 0 0 .781-.781 5.335 5.335 0 0 1 1.411-3.784 3.157 3.157 0 0 1 2.278-.909h.111a.783.783 0 0 0 .665-.338c.582-.846 2.431-1.379 4.494-1.3 2.088.083 4.71.849 5.807 2.749a.781.781 0 0 0 .675.391.781.781 0 0 0 .675-.388 5.175 5.175 0 0 0 .555-1.563 6.341 6.341 0 0 1 2.077 5.138.781.781 0 0 0 .781.781h.781a.781.781 0 1 1 0 1.563z" class="cls-1" transform="translate(-8.074)"/>
                <path id="Path_13513" d="M24.807 2.139a.781.781 0 0 0 0-1.562.781.781 0 0 0 0 1.562z" class="cls-1" transform="translate(-11.265 -.115)"/>
            </g>
        </g>
    </g>
</svg>
