<svg xmlns="http://www.w3.org/2000/svg" width="42" height="42" viewBox="0 0 42 42">
    <defs>
        <clipPath id="clip-path">
            <path id="Rectangle_2374" fill="#e15068" stroke="#707070" d="M0 0H42V42H0z"/>
        </clipPath>
        <style>
            .cls-3{fill:#e15068}
        </style>
    </defs>
    <g id="credit-card-red-icon" clip-path="url(#clip-path)">
        <g id="credit-card_1_" transform="translate(0 .021)">
            <g id="Group_3886">
                <g id="Group_3885">
                    <path id="Path_12512" d="M41.707 15.088l-4.692-12.2A4.476 4.476 0 0 0 31.229.322l-.1.04-23.449 9.72a4.455 4.455 0 0 0-2.475 5.7L5.85 17.5H4.371A4.376 4.376 0 0 0 0 21.874v15.734a4.376 4.376 0 0 0 4.371 4.371h29.72a4.376 4.376 0 0 0 4.371-4.371V21.874a4.3 4.3 0 0 0-.063-.708l.812-.329a4.492 4.492 0 0 0 2.496-5.749zM4.371 18.9h29.72a2.968 2.968 0 0 1 2.955 2.8H1.416a2.968 2.968 0 0 1 2.955-2.8zm7.029-4.211l4.674-2.338.961 2.4-4.675 2.341zm25.663 22.919a2.975 2.975 0 0 1-2.972 2.972H4.371A2.975 2.975 0 0 1 1.4 37.608v-8.916h35.663zm0-10.315H1.4V23.1h35.663zm1.623-7.748l-.731.3a4.373 4.373 0 0 0-3.864-2.345H14.666l3.57-1.785a.7.7 0 0 0 .337-.885l-1.483-3.706a.7.7 0 0 0-.909-.39l-.053.024-5.928 2.969a.7.7 0 0 0-.336.885l1.154 2.888H7.343l-.828-2.208a3.061 3.061 0 0 1 1.7-3.916l23.448-9.72a3.073 3.073 0 0 1 4.016 1.664l.029.074 4.692 12.2a3.087 3.087 0 0 1-1.714 3.951z" class="cls-3" transform="translate(0 -.021)"/>
                    <path id="Path_12513" d="M25.155 38.614a4.2 4.2 0 0 0 4.215 0 4.2 4.2 0 1 0 0-7.256 4.2 4.2 0 1 0-4.215 7.256zm5.385-6.255a2.8 2.8 0 1 1 0 5.253 4.179 4.179 0 0 0 0-5.253zm-1.169.8a2.746 2.746 0 0 1 0 3.662 2.746 2.746 0 0 1 0-3.666zm-2.1-.966a2.768 2.768 0 0 1 .929.171 4.179 4.179 0 0 0 0 5.253 2.792 2.792 0 1 1-.929-5.424z" class="cls-3" transform="translate(0 -.021)"/>
                    <path id="Rectangle_2377" d="M0 0H1.399V7.301H0z" class="cls-3" transform="rotate(-113.95 20.138 -1.917)"/>
                    <path id="Rectangle_2378" d="M0 0H10.613V1.398H0z" class="cls-3" transform="rotate(-24.776 42.008 -50.534)"/>
                </g>
            </g>
        </g>
    </g>
</svg>
