<svg xmlns="http://www.w3.org/2000/svg" xmlns:xlink="http://www.w3.org/1999/xlink" width="24" height="24" viewBox="0 0 24 24">
  <defs>
    <clipPath id="clip-path">
      <rect id="Rectangle_2399" data-name="Rectangle 2399" width="24" height="24" transform="translate(128 1466)" fill="#222"/>
    </clipPath>
  </defs>
  <g id="distance-6" transform="translate(-128 -1466)" clip-path="url(#clip-path)">
    <g id="cityscape" transform="translate(128 1466)">
      <g id="Group_3980" data-name="Group 3980">
        <g id="Group_3979" data-name="Group 3979">
          <path id="Path_13435" data-name="Path 13435" d="M23.644,18.1H21.3V15.183a.356.356,0,0,0-.713,0V23.25H14.465V12.661h6.117v.859a.356.356,0,1,0,.713,0V12.3a.356.356,0,0,0-.356-.356h-4.87V.394a.356.356,0,0,0-.356-.356H8.3a.356.356,0,0,0-.356.356V5.726H3.332a.356.356,0,0,0-.356.356v8.763H.356A.356.356,0,0,0,0,15.2v8.4a.356.356,0,0,0,.356.356H23.644A.356.356,0,0,0,24,23.606V18.452A.356.356,0,0,0,23.644,18.1ZM2.975,23.25H.713V15.559H2.975Zm7.413,0h-6.7V21.279h6.7Zm0-5.084H7.176a.356.356,0,0,0,0,.713h3.212v1.687h-6.7V18.879H5.513a.356.356,0,1,0,0-.713H3.688V16.479h6.7Zm0-2.4h-6.7V14.079h6.7Zm0-2.4h-6.7V11.679h6.7Zm0-2.4h-6.7V9.279h6.7Zm0-2.4h-6.7V6.439h6.7ZM13.752,12.3V23.25H11.1V6.082a.356.356,0,0,0-.356-.356h-.486V5.013a.356.356,0,1,0-.713,0v.713H8.655V.75h6.7v11.2H14.108A.356.356,0,0,0,13.752,12.3ZM23.287,23.25H21.3V18.809h1.992Z" fill="#222"/>
        </g>
      </g>
      <g id="Group_3982" data-name="Group 3982">
        <g id="Group_3981" data-name="Group 3981">
          <path id="Path_13436" data-name="Path 13436" d="M14.108,7.76a.356.356,0,0,0-.356.356V9.186a.356.356,0,1,0,.713,0V8.116A.356.356,0,0,0,14.108,7.76Z" fill="#222"/>
        </g>
      </g>
      <g id="Group_3984" data-name="Group 3984">
        <g id="Group_3983" data-name="Group 3983">
          <path id="Path_13437" data-name="Path 13437" d="M12.006,7.76a.356.356,0,0,0-.356.356V9.186a.356.356,0,1,0,.713,0V8.116A.356.356,0,0,0,12.006,7.76Z" fill="#222"/>
        </g>
      </g>
      <g id="Group_3986" data-name="Group 3986">
        <g id="Group_3985" data-name="Group 3985">
          <path id="Path_13438" data-name="Path 13438" d="M14.108,4.657a.356.356,0,0,0-.356.356V6.082a.356.356,0,1,0,.713,0V5.013A.356.356,0,0,0,14.108,4.657Z" fill="#222"/>
        </g>
      </g>
      <g id="Group_3988" data-name="Group 3988">
        <g id="Group_3987" data-name="Group 3987">
          <path id="Path_13439" data-name="Path 13439" d="M12.006,4.657a.356.356,0,0,0-.356.356V6.082a.356.356,0,1,0,.713,0V5.013A.356.356,0,0,0,12.006,4.657Z" fill="#222"/>
        </g>
      </g>
      <g id="Group_3990" data-name="Group 3990">
        <g id="Group_3989" data-name="Group 3989">
          <path id="Path_13440" data-name="Path 13440" d="M9.9,1.553a.356.356,0,0,0-.356.356V2.979a.356.356,0,0,0,.713,0V1.91A.356.356,0,0,0,9.9,1.553Z" fill="#222"/>
        </g>
      </g>
      <g id="Group_3992" data-name="Group 3992">
        <g id="Group_3991" data-name="Group 3991">
          <path id="Path_13441" data-name="Path 13441" d="M14.108,1.553a.356.356,0,0,0-.356.356V2.979a.356.356,0,0,0,.713,0V1.91A.356.356,0,0,0,14.108,1.553Z" fill="#222"/>
        </g>
      </g>
      <g id="Group_3994" data-name="Group 3994">
        <g id="Group_3993" data-name="Group 3993">
          <path id="Path_13442" data-name="Path 13442" d="M12.006,1.553a.356.356,0,0,0-.356.356V2.979a.356.356,0,0,0,.713,0V1.91A.356.356,0,0,0,12.006,1.553Z" fill="#222"/>
        </g>
      </g>
      <g id="Group_3996" data-name="Group 3996">
        <g id="Group_3995" data-name="Group 3995">
          <path id="Path_13443" data-name="Path 13443" d="M13.918,10.934a.356.356,0,1,0,.529.413A.359.359,0,0,0,13.918,10.934Z" fill="#222"/>
        </g>
      </g>
      <g id="Group_3998" data-name="Group 3998">
        <g id="Group_3997" data-name="Group 3997">
          <path id="Path_13444" data-name="Path 13444" d="M12.006,10.879a.356.356,0,0,0-.356.356V12.3a.356.356,0,0,0,.713,0V11.235A.356.356,0,0,0,12.006,10.879Z" fill="#222"/>
        </g>
      </g>
      <g id="Group_4000" data-name="Group 4000">
        <g id="Group_3999" data-name="Group 3999">
          <path id="Path_13445" data-name="Path 13445" d="M12.006,20.235a.356.356,0,0,0-.356.356V21.66a.356.356,0,1,0,.713,0V20.591A.356.356,0,0,0,12.006,20.235Z" fill="#222"/>
        </g>
      </g>
      <g id="Group_4002" data-name="Group 4002">
        <g id="Group_4001" data-name="Group 4001">
          <path id="Path_13446" data-name="Path 13446" d="M12.006,17.116a.356.356,0,0,0-.356.356v1.069a.356.356,0,0,0,.713,0V17.472A.356.356,0,0,0,12.006,17.116Z" fill="#222"/>
        </g>
      </g>
      <g id="Group_4004" data-name="Group 4004">
        <g id="Group_4003" data-name="Group 4003">
          <path id="Path_13447" data-name="Path 13447" d="M12.006,14a.356.356,0,0,0-.356.356v1.069a.356.356,0,0,0,.713,0V14.354A.356.356,0,0,0,12.006,14Z" fill="#222"/>
        </g>
      </g>
      <g id="Group_4006" data-name="Group 4006">
        <g id="Group_4005" data-name="Group 4005">
          <path id="Path_13448" data-name="Path 13448" d="M19.5,20.126H15.552a.356.356,0,0,0,0,.713H19.5a.356.356,0,0,0,0-.713Z" fill="#222"/>
        </g>
      </g>
      <g id="Group_4008" data-name="Group 4008">
        <g id="Group_4007" data-name="Group 4007">
          <path id="Path_13449" data-name="Path 13449" d="M19.5,21.811H15.552a.356.356,0,1,0,0,.713H19.5a.356.356,0,0,0,0-.713Z" fill="#222"/>
        </g>
      </g>
      <g id="Group_4010" data-name="Group 4010">
        <g id="Group_4009" data-name="Group 4009">
          <path id="Path_13450" data-name="Path 13450" d="M19.5,18.441H15.552a.356.356,0,1,0,0,.713H19.5a.356.356,0,0,0,0-.713Z" fill="#222"/>
        </g>
      </g>
      <g id="Group_4012" data-name="Group 4012">
        <g id="Group_4011" data-name="Group 4011">
          <path id="Path_13451" data-name="Path 13451" d="M19.5,13.387H15.552a.356.356,0,1,0,0,.713H19.5a.356.356,0,0,0,0-.713Z" fill="#222"/>
        </g>
      </g>
      <g id="Group_4014" data-name="Group 4014">
        <g id="Group_4013" data-name="Group 4013">
          <path id="Path_13452" data-name="Path 13452" d="M19.5,16.756H15.552a.356.356,0,1,0,0,.713H19.5a.356.356,0,0,0,0-.713Z" fill="#222"/>
        </g>
      </g>
      <g id="Group_4016" data-name="Group 4016">
        <g id="Group_4015" data-name="Group 4015">
          <path id="Path_13453" data-name="Path 13453" d="M19.5,15.072H15.552a.356.356,0,1,0,0,.713H19.5a.356.356,0,0,0,0-.713Z" fill="#222"/>
        </g>
      </g>
      <g id="Group_4018" data-name="Group 4018">
        <g id="Group_4017" data-name="Group 4017">
          <path id="Path_13454" data-name="Path 13454" d="M1.844,16.125a.356.356,0,0,0-.356.356v.927a.356.356,0,1,0,.713,0v-.927A.356.356,0,0,0,1.844,16.125Z" fill="#222"/>
        </g>
      </g>
      <g id="Group_4020" data-name="Group 4020">
        <g id="Group_4019" data-name="Group 4019">
          <path id="Path_13455" data-name="Path 13455" d="M1.844,18.584a.356.356,0,0,0-.356.356v.927a.356.356,0,1,0,.713,0v-.927A.356.356,0,0,0,1.844,18.584Z" fill="#222"/>
        </g>
      </g>
      <g id="Group_4022" data-name="Group 4022">
        <g id="Group_4021" data-name="Group 4021">
          <path id="Path_13456" data-name="Path 13456" d="M1.844,21.044a.356.356,0,0,0-.356.356v.927a.356.356,0,1,0,.713,0V21.4A.356.356,0,0,0,1.844,21.044Z" fill="#222"/>
        </g>
      </g>
      <g id="Group_4024" data-name="Group 4024">
        <g id="Group_4023" data-name="Group 4023">
          <path id="Path_13457" data-name="Path 13457" d="M22.291,19.664a.356.356,0,0,0-.356.356v1.009a.356.356,0,0,0,.713,0V20.021A.356.356,0,0,0,22.291,19.664Z" fill="#222"/>
        </g>
      </g>
      <g id="Group_4026" data-name="Group 4026">
        <g id="Group_4025" data-name="Group 4025">
          <path id="Path_13458" data-name="Path 13458" d="M21.246,6.9H16.9a.356.356,0,0,0,0,.713h4.348a.356.356,0,0,0,0-.713Z" fill="#222"/>
        </g>
      </g>
      <g id="Group_4028" data-name="Group 4028">
        <g id="Group_4027" data-name="Group 4027">
          <path id="Path_13459" data-name="Path 13459" d="M22.6,8.4H19.464a.356.356,0,0,0,0,.713H22.6a.356.356,0,0,0,0-.713Z" fill="#222"/>
        </g>
      </g>
      <g id="Group_4030" data-name="Group 4030">
        <g id="Group_4029" data-name="Group 4029">
          <path id="Path_13460" data-name="Path 13460" d="M6.419,2.7H3.283a.356.356,0,0,0,0,.713H6.419a.356.356,0,1,0,0-.713Z" fill="#222"/>
        </g>
      </g>
      <g id="Group_4032" data-name="Group 4032">
        <g id="Group_4031" data-name="Group 4031">
          <path id="Path_13461" data-name="Path 13461" d="M4.637,3.887H1.5a.356.356,0,1,0,0,.713H4.637a.356.356,0,1,0,0-.713Z" fill="#222"/>
        </g>
      </g>
    </g>
  </g>
</svg>
