<svg xmlns="http://www.w3.org/2000/svg" xmlns:xlink="http://www.w3.org/1999/xlink" width="24" height="24" viewBox="0 0 24 24">
  <defs>
    <clipPath id="clip-path">
      <rect id="Rectangle_2399" data-name="Rectangle 2399" width="24" height="24" transform="translate(128 1466)" fill="#222"/>
    </clipPath>
  </defs>
  <g id="distance-4" transform="translate(-128 -1466)" clip-path="url(#clip-path)">
    <g id="hospital_3_" data-name="hospital (3)" transform="translate(128 1466)">
      <path id="Path_13434" data-name="Path 13434" d="M22.242,7.436H20.65a.352.352,0,0,0,0,.7h1.593A1.056,1.056,0,0,1,23.3,9.194V23.273a.023.023,0,0,1-.023.023H19.36V21.891h1.8a.728.728,0,0,0,.727-.723l.008-1.731a.732.732,0,0,0-.727-.73h-1.8V17.32h1.8a.728.728,0,0,0,.727-.723l.008-1.731a.732.732,0,0,0-.727-.73h-1.8V12.73h1.8a.728.728,0,0,0,.727-.723l.008-1.731a.732.732,0,0,0-.727-.73h-1.8V5.906A1.76,1.76,0,0,0,17.6,4.148H16.486a4.5,4.5,0,0,0-8.973,0H6.375A1.76,1.76,0,0,0,4.617,5.906v1.53H1.758A1.76,1.76,0,0,0,0,9.194V23.273A.727.727,0,0,0,.727,24H23.273A.727.727,0,0,0,24,23.273V9.194a1.76,1.76,0,0,0-1.758-1.758ZM19.36,10.249h1.8a.023.023,0,0,1,.023.023L21.18,12a.023.023,0,0,1-.023.023h-1.8Zm0,4.59h1.8a.022.022,0,0,1,.017.007.023.023,0,0,1,.007.017l-.008,1.731a.024.024,0,0,1-.023.023h-1.8Zm0,4.57h1.8a.022.022,0,0,1,.017.007.023.023,0,0,1,.007.017l-.008,1.731a.024.024,0,0,1-.023.023h-1.8ZM4.617,21.188H2.844a.023.023,0,0,1-.023-.023l-.008-1.731a.023.023,0,0,1,.007-.017.022.022,0,0,1,.017-.007H4.617Zm0-4.57H2.844a.023.023,0,0,1-.023-.023l-.008-1.731a.023.023,0,0,1,.007-.017.022.022,0,0,1,.016-.007H4.617Zm0-4.59H2.844A.023.023,0,0,1,2.82,12l-.008-1.731a.023.023,0,0,1,.007-.017.022.022,0,0,1,.016-.007H4.617Zm0-2.481H2.836a.731.731,0,0,0-.727.73l.008,1.731a.728.728,0,0,0,.727.723H4.617v1.406H2.836a.731.731,0,0,0-.727.73L2.117,16.6a.728.728,0,0,0,.727.723H4.617v1.386H2.836a.731.731,0,0,0-.727.73l.008,1.731a.728.728,0,0,0,.727.723H4.617V23.3H.727A.023.023,0,0,1,.7,23.273V9.194A1.056,1.056,0,0,1,1.758,8.14H4.617ZM12,.7A3.8,3.8,0,1,1,8.2,4.5,3.8,3.8,0,0,1,12,.7ZM15.142,23.3h-2.79V17.106h2.79ZM8.155,16.4v-.7h7.69v.7Zm10.5,6.894H15.845V17.106a.646.646,0,0,0,.7-.633v-.844A.634.634,0,0,0,15.915,15H8.085a.634.634,0,0,0-.633.633v.844a.642.642,0,0,0,.7.633V19.6a.352.352,0,0,0,.7,0V17.106h2.79V23.3H8.858V21.236a.352.352,0,0,0-.7,0V23.3H5.32V5.906A1.056,1.056,0,0,1,6.375,4.852H7.514a4.5,4.5,0,0,0,8.973,0H17.6a1.056,1.056,0,0,1,1.055,1.055ZM10.945,5.555V6.961a.634.634,0,0,0,.633.633h.844a.634.634,0,0,0,.633-.633V5.555h1.406a.634.634,0,0,0,.633-.633V4.078a.634.634,0,0,0-.633-.633H13.055V2.039a.634.634,0,0,0-.633-.633h-.844a.634.634,0,0,0-.633.633V3.445H9.539a.634.634,0,0,0-.633.633v.844a.634.634,0,0,0,.633.633ZM9.609,4.148h1.547a.493.493,0,0,0,.492-.492V2.109h.7V3.656a.493.493,0,0,0,.492.492h1.547v.7H12.844a.493.493,0,0,0-.492.492V6.891h-.7V5.344a.493.493,0,0,0-.492-.492H9.609Zm.984,16.764a.352.352,0,0,0,.352-.352v-.72a.352.352,0,0,0-.7,0v.72A.352.352,0,0,0,10.594,20.913ZM10.57,10.406H7.463a.728.728,0,0,0-.727.723l-.008,1.731a.732.732,0,0,0,.727.73H10.57a.727.727,0,0,0,.727-.727V11.133a.727.727,0,0,0-.727-.727Zm.023,2.458a.023.023,0,0,1-.023.023H7.455a.027.027,0,0,1-.023-.024l.008-1.731a.023.023,0,0,1,.023-.023H10.57a.023.023,0,0,1,.023.023Zm2.813,8.049a.352.352,0,0,0,.352-.352v-.72a.352.352,0,0,0-.7,0v.72A.352.352,0,0,0,13.406,20.913Zm3.128-10.507h-3.1a.727.727,0,0,0-.727.727v1.731a.727.727,0,0,0,.727.727h3.1a.728.728,0,0,0,.727-.723l.008-1.731A.732.732,0,0,0,16.534,10.406Zm.016,2.458a.024.024,0,0,1-.023.023h-3.1a.023.023,0,0,1-.023-.023V11.133a.023.023,0,0,1,.023-.023h3.1a.023.023,0,0,1,.023.023Z" fill="#222"/>
    </g>
  </g>
</svg>
