<svg xmlns="http://www.w3.org/2000/svg" xmlns:xlink="http://www.w3.org/1999/xlink" width="24" height="24" viewBox="0 0 24 24">
  <defs>
    <clipPath id="clip-path">
      <rect id="Rectangle_2399" data-name="Rectangle 2399" width="24" height="24" transform="translate(128 1466)" fill="#222"/>
    </clipPath>
  </defs>
  <g id="distance-5" transform="translate(-128 -1466)" clip-path="url(#clip-path)">
    <path id="serving-dish" d="M22.976,11.264h-.833a10.062,10.062,0,0,0-.92-3.639.351.351,0,1,0-.637.3,9.366,9.366,0,0,1,.854,3.343H5.358a.351.351,0,0,0,0,.7H22.976a.322.322,0,0,1,.322.322v.428a.322.322,0,0,1-.322.322H1.024A.322.322,0,0,1,.7,12.717v-.428a.322.322,0,0,1,.322-.322h2.7a.351.351,0,1,0,0-.7H2.561a9.46,9.46,0,0,1,8.808-8.8h0q.143-.009.283-.014l.056,0,.1,0,.189,0c.084,0,.168,0,.251,0l.074,0,.193.009.1.006a9.468,9.468,0,0,1,7.184,4.092.351.351,0,0,0,.579-.4,10.171,10.171,0,0,0-6.945-4.314,1.709,1.709,0,0,0,.273-.927c0-.191-.085-.543-.655-.752a3.519,3.519,0,0,0-2.115,0c-.57.21-.655.562-.655.752a1.711,1.711,0,0,0,.272.925,10.165,10.165,0,0,0-8.7,9.424H1.024A1.026,1.026,0,0,0,0,12.288v.428a1.025,1.025,0,0,0,1.024,1.024H4.806a4.35,4.35,0,0,0-.539.435l-.007.007a.318.318,0,0,0-.03.032L2.563,16.239a.968.968,0,0,0-1.321.274l-.656.967a.971.971,0,0,0,.258,1.346l4.486,3.047a.963.963,0,0,0,.543.168.985.985,0,0,0,.184-.018.963.963,0,0,0,.62-.408l.656-.967A.971.971,0,0,0,7.075,19.3l-.026-.017a2.27,2.27,0,0,1,1.181-.713,7.715,7.715,0,0,1,2.839.047,6.706,6.706,0,0,0,2.862-.154l1.293-.357a6.655,6.655,0,0,0,2.356-1.191l.016-.013,2.219-1.966a1.083,1.083,0,0,0,.33-1.2h2.832A1.025,1.025,0,0,0,24,12.717v-.429a1.025,1.025,0,0,0-1.024-1.024ZM12,.7A1.644,1.644,0,0,1,13.01.93a1.011,1.011,0,0,1-.447.825l-.205-.009-.069,0c-.1,0-.195,0-.289,0l-.2,0-.1,0-.12,0-.138.007A1.011,1.011,0,0,1,10.99.93,1.644,1.644,0,0,1,12,.7Zm2.518,13.208a1.158,1.158,0,0,0-.093-.169h3.367l-1.456.964-2.075.6-.07,0a1.194,1.194,0,0,0,.327-1.4Zm-3.807-.169-.507.106-.392-.106ZM6.751,20.255l-.655.967a.267.267,0,0,1-.372.071L1.239,18.246a.268.268,0,0,1-.071-.371l.656-.967a.265.265,0,0,1,.171-.113.268.268,0,0,1,.051,0,.265.265,0,0,1,.15.047L2.437,17h0L6.68,19.884a.268.268,0,0,1,.071.372Zm12.632-5.871-.024.02-2.222,1.968a5.958,5.958,0,0,1-2.1,1.06l-1.293.357a5.994,5.994,0,0,1-2.56.138,8.359,8.359,0,0,0-3.112-.039,2.982,2.982,0,0,0-1.606,1L3.147,16.635l1.611-1.956a3.305,3.305,0,0,1,2.121-.937h.014a2.647,2.647,0,0,1,.729.136l.155.043,2.325.627a.351.351,0,0,0,.163,0l3.045-.635a.523.523,0,0,1,.4.077.471.471,0,0,1,.167.2.491.491,0,0,1-.227.635l-1.039.55a.351.351,0,0,0,.172.661l1.541-.033a.354.354,0,0,0,.09-.014l2.171-.628a.352.352,0,0,0,.1-.044l2.19-1.45c.184-.114.428-.207.559-.015a.418.418,0,0,1-.045.528Zm0,0" transform="translate(128 1466.979)" fill="#222"/>
  </g>
</svg>
