<svg xmlns="http://www.w3.org/2000/svg" xmlns:xlink="http://www.w3.org/1999/xlink" width="24" height="24" viewBox="0 0 24 24">
  <defs>
    <clipPath id="clip-path">
      <rect id="Rectangle_2399" data-name="Rectangle 2399" width="24" height="24" transform="translate(128 1466)" fill="#222"/>
    </clipPath>
  </defs>
  <g id="distance-1" transform="translate(-128 -1466)" clip-path="url(#clip-path)">
    <g id="airport" transform="translate(128 1466)">
      <path id="Path_13417" data-name="Path 13417" d="M23.809,7.441a.886.886,0,0,0-.7-.34H21.348l.925-3.816A.959.959,0,0,0,21.341,2.1H18.006V1.3h.455a.36.36,0,0,0,0-.72H16.83a.36.36,0,0,0,0,.72h.455v.8h-3.5a.959.959,0,0,0-.932,1.185L13.78,7.1H12.015a.891.891,0,0,0-.866,1.1L12.1,12.14a.888.888,0,0,0,.778.676v2H3.05a1.334,1.334,0,0,0-.949.4l-2,2.046a.364.364,0,0,0-.1.252v4.207a1.917,1.917,0,0,0,1.915,1.915h19.27A1.116,1.116,0,0,0,22.3,22.523V19.346a.36.36,0,1,0-.72,0v3.178a.4.4,0,0,1-.4.4H19.691V20.2a1.032,1.032,0,0,0-1.031-1.031H16.468A1.032,1.032,0,0,0,15.437,20.2v2.72H13.6v-10.1H21.58v4.87a.36.36,0,0,0,.72,0V12.809a.888.888,0,0,0,.72-.669L23.975,8.2a.886.886,0,0,0-.166-.761ZM16.158,20.2a.311.311,0,0,1,.31-.31H18.66a.311.311,0,0,1,.31.31v2.72H16.158Zm-2.6-17.083a.239.239,0,0,1,.232-.3h7.555a.239.239,0,0,1,.232.3L20.607,7.1H14.521ZM2.616,15.722a.61.61,0,0,1,.434-.183h9.833v1.617H1.215Zm-1.9,6V17.877H12.883v5.042H11.755V20.2a1.032,1.032,0,0,0-1.031-1.031H8.532A1.032,1.032,0,0,0,7.5,20.2v2.72H1.915A1.2,1.2,0,0,1,.72,21.724Zm7.5,1.195V20.2a.311.311,0,0,1,.31-.31h2.192a.311.311,0,0,1,.31.31v2.72ZM23.275,8.032c-.866,3.282-.787,4.231-1.335,4.07h-8.7c-.147-.016-.356.066-.438-.13l-.955-3.939c0-.075-.022-.164.166-.211H23.109c.073.017.164.017.166.211Z" fill="#222"/>
      <path id="Path_13418" data-name="Path 13418" d="M20.8,8.731H14.493a.36.36,0,0,0-.36.36v1.739a.36.36,0,0,0,.36.36H20.8a.36.36,0,0,0,.36-.36V9.091a.36.36,0,0,0-.36-.36Zm-.36,1.739H14.853V9.451h5.585Z" fill="#222"/>
      <path id="Path_13419" data-name="Path 13419" d="M5.85,19.168H2.317a.36.36,0,0,0,0,.72H5.85a.36.36,0,0,0,0-.72Z" fill="#222"/>
      <path id="Path_13420" data-name="Path 13420" d="M15.8,13.623a.36.36,0,0,0,0,.72h3.533a.36.36,0,0,0,0-.72Z" fill="#222"/>
      <path id="Path_13421" data-name="Path 13421" d="M16.557,4.58a.4.4,0,1,0,.4.4A.4.4,0,0,0,16.557,4.58Z" fill="#222"/>
      <path id="Path_13422" data-name="Path 13422" d="M18.5,4.58a.4.4,0,1,0,.4.4A.4.4,0,0,0,18.5,4.58Z" fill="#222"/>
      <path id="Path_13423" data-name="Path 13423" d="M.413,5.605l.858.725a2.449,2.449,0,0,0,2.762.2l7.347-4.646a.372.372,0,0,0,.1-.52C11.069.825,10.036-.04,9.03.572,8.2,1.079,6.766,2.045,6.29,2.367l-2.606-1a.361.361,0,0,0-.271.005l-1.258.539a.366.366,0,0,0-.1.6l1.576,1.4-.951.862L1.269,4.578a.36.36,0,0,0-.253.06l-.575.4a.371.371,0,0,0-.028.572Zm.9-.295c.283-.01,1.517.333,1.734.106L4.415,4.173a.372.372,0,0,0,0-.536L2.961,2.347l.6-.258L6.207,3.107a.36.36,0,0,0,.332-.038C6.558,3.055,8.432,1.78,9.4,1.187c.448-.273.933.052,1.225.323L3.647,5.925A1.737,1.737,0,0,1,1.735,5.78l-.5-.421Z" fill="#222"/>
      <path id="Path_13424" data-name="Path 13424" d="M3.65,10.959,2.116,11.9a.36.36,0,1,0,.377.614l1.534-.943a.36.36,0,0,0-.377-.614Z" fill="#222"/>
      <path id="Path_13425" data-name="Path 13425" d="M7.35,6.887a.36.36,0,0,0-.5-.111L3.308,9.024a.36.36,0,1,0,.386.608L7.239,7.384a.36.36,0,0,0,.111-.5Z" fill="#222"/>
    </g>
  </g>
</svg>
