<svg xmlns="http://www.w3.org/2000/svg" xmlns:xlink="http://www.w3.org/1999/xlink" width="24" height="24" viewBox="0 0 24 24">
  <defs>
    <clipPath id="clip-path">
      <rect id="Rectangle_2399" data-name="Rectangle 2399" width="24" height="24" transform="translate(128 1466)" fill="#222"/>
    </clipPath>
  </defs>
  <g id="distance-3" transform="translate(-128 -1466)" clip-path="url(#clip-path)">
    <g id="store" transform="translate(128 1467.354)">
      <path id="Path_13426" data-name="Path 13426" d="M22.449,14.634a.352.352,0,0,0-.352.352v5.6H14.851V13.937a.821.821,0,0,0-.82-.82H9.969a.821.821,0,0,0-.82.82v6.653H1.9v-5.6a.352.352,0,1,0-.7,0v5.769a.54.54,0,0,0,.539.539H22.262a.54.54,0,0,0,.539-.539V14.986a.352.352,0,0,0-.352-.352Zm-12.6,5.956V13.937a.117.117,0,0,1,.117-.117h4.061a.117.117,0,0,1,.117.117v6.653Zm0,0" fill="#222"/>
      <path id="Path_13427" data-name="Path 13427" d="M20.779,19.2a.749.749,0,0,0,.749-.749V14.617a.749.749,0,0,0-.749-.748H16.428a.749.749,0,0,0-.749.748v3.836a.749.749,0,0,0,.749.749Zm-4.4-.749V14.617a.045.045,0,0,1,.045-.045h4.351a.045.045,0,0,1,.045.045v3.836a.045.045,0,0,1-.045.045H16.428A.045.045,0,0,1,16.383,18.453Zm0,0" fill="#222"/>
      <path id="Path_13428" data-name="Path 13428" d="M7.572,19.2a.749.749,0,0,0,.749-.749V14.617a.749.749,0,0,0-.749-.748H3.221a.749.749,0,0,0-.749.748v3.836a.749.749,0,0,0,.749.749Zm-4.4-.749V14.617a.045.045,0,0,1,.045-.045H7.572a.045.045,0,0,1,.045.045v3.836a.045.045,0,0,1-.045.045H3.221a.045.045,0,0,1-.045-.045Zm0,0" fill="#222"/>
      <path id="Path_13429" data-name="Path 13429" d="M22.967,5.183a.682.682,0,0,1,.682-.681A.352.352,0,0,0,24,4.15V3.29a.352.352,0,0,0-.352-.352h-5.8a.352.352,0,1,0,0,.7H23.3v.2a1.39,1.39,0,0,0-.988.987H16.778V1.711A1.713,1.713,0,0,0,15.068,0H8.932A1.712,1.712,0,0,0,7.222,1.711V2.939H.352A.352.352,0,0,0,0,3.29v.86A.352.352,0,0,0,.352,4.5a.682.682,0,0,1,.682.681.352.352,0,0,0,.168.3v2.4H.568a.54.54,0,0,0-.539.539v1.914a.54.54,0,0,0,.539.539H1.2v2.705a.352.352,0,1,0,.7,0V10.877H22.125v2.706a.352.352,0,1,0,.7,0V10.877h.633A.54.54,0,0,0,24,10.338V8.423a.54.54,0,0,0-.539-.539h-.633V5.463a.351.351,0,0,0,.139-.28ZM7.925,1.711A1.009,1.009,0,0,1,8.932.7h6.135a1.009,1.009,0,0,1,1.007,1.007V5.546a1.009,1.009,0,0,1-1.007,1.007H8.932A1.009,1.009,0,0,1,7.925,5.546V1.711ZM23.3,10.174H.732V8.587H23.3ZM1.9,7.884V5.535H6.167a.352.352,0,1,0,0-.7H1.691A1.39,1.39,0,0,0,.7,3.844v-.2H7.222v1.9A1.713,1.713,0,0,0,8.932,7.257h6.135a1.712,1.712,0,0,0,1.711-1.711V5.535h5.347V7.884Zm0,0" fill="#222"/>
      <path id="Path_13430" data-name="Path 13430" d="M10.641,16.854h-.281a.352.352,0,0,0,0,.7h.281a.352.352,0,0,0,0-.7Zm0,0" fill="#222"/>
      <path id="Path_13431" data-name="Path 13431" d="M9.482,2.106h.431l.442,2.113a.893.893,0,0,0,.87.707h2.088a.893.893,0,0,0,.831-.575l.689-1.825a.565.565,0,0,0-.529-.765H11.352a.352.352,0,1,0,0,.7H14.1L13.486,4.1a.187.187,0,0,1-.174.12H11.225a.187.187,0,0,1-.182-.148L10.6,1.954A.7.7,0,0,0,9.921,1.4H9.482a.352.352,0,0,0,0,.7Zm0,0" fill="#222"/>
      <path id="Path_13432" data-name="Path 13432" d="M11.285,5.221h-.094a.352.352,0,0,0,0,.7h.094a.352.352,0,0,0,0-.7Zm0,0" fill="#222"/>
      <path id="Path_13433" data-name="Path 13433" d="M12.809,5.221h-.094a.352.352,0,0,0,0,.7h.094a.352.352,0,0,0,0-.7Zm0,0" fill="#222"/>
    </g>
  </g>
</svg>
