<svg xmlns="http://www.w3.org/2000/svg" xmlns:xlink="http://www.w3.org/1999/xlink" width="24" height="24" viewBox="0 0 24 24">
  <defs>
    <clipPath id="clip-path">
      <rect id="Rectangle_2399" data-name="Rectangle 2399" width="24" height="24" transform="translate(128 1466)" fill="#222"/>
    </clipPath>
  </defs>
  <g id="distance-2" transform="translate(-128 -1466)" clip-path="url(#clip-path)">
    <g id="sea" transform="translate(128 1466)">
      <g id="Group_3966" data-name="Group 3966">
        <g id="Group_3965" data-name="Group 3965">
          <path id="Path_13410" data-name="Path 13410" d="M23.593,6.606a1.825,1.825,0,0,1-1.381-.652,2.586,2.586,0,0,0-3.862,0,1.788,1.788,0,0,1-2.763,0,2.585,2.585,0,0,0-3.862,0,1.788,1.788,0,0,1-2.762,0,2.585,2.585,0,0,0-3.862,0,1.788,1.788,0,0,1-2.762,0A2.6,2.6,0,0,0,.407,5.087a.407.407,0,1,0,0,.814,1.825,1.825,0,0,1,1.381.652,2.585,2.585,0,0,0,3.862,0,1.788,1.788,0,0,1,2.762,0,2.585,2.585,0,0,0,3.862,0,1.788,1.788,0,0,1,2.762,0,2.586,2.586,0,0,0,3.862,0,1.789,1.789,0,0,1,2.763,0,2.6,2.6,0,0,0,1.931.866.407.407,0,0,0,0-.814Z" fill="#222"/>
        </g>
      </g>
      <g id="Group_3968" data-name="Group 3968">
        <g id="Group_3967" data-name="Group 3967">
          <path id="Path_13411" data-name="Path 13411" d="M23.593,10.437a1.825,1.825,0,0,1-1.381-.652,2.586,2.586,0,0,0-3.862,0,1.788,1.788,0,0,1-2.763,0,2.585,2.585,0,0,0-3.862,0,1.788,1.788,0,0,1-2.762,0l-.153-.139a.407.407,0,1,0-.541.607l.144.131a2.585,2.585,0,0,0,3.862,0,1.788,1.788,0,0,1,2.762,0,2.586,2.586,0,0,0,3.862,0,1.789,1.789,0,0,1,2.763,0,2.6,2.6,0,0,0,1.931.866.407.407,0,1,0,0-.814Z" fill="#222"/>
        </g>
      </g>
      <g id="Group_3970" data-name="Group 3970">
        <g id="Group_3969" data-name="Group 3969">
          <path id="Path_13412" data-name="Path 13412" d="M7.611,8.979a2.668,2.668,0,0,0-.58-.061A2.6,2.6,0,0,0,5.1,9.785a1.788,1.788,0,0,1-2.762,0A2.6,2.6,0,0,0,.407,8.918a.407.407,0,0,0,0,.814,1.825,1.825,0,0,1,1.381.652,2.585,2.585,0,0,0,3.862,0,1.822,1.822,0,0,1,1.784-.611.407.407,0,1,0,.177-.794Z" fill="#222"/>
        </g>
      </g>
      <g id="Group_3972" data-name="Group 3972">
        <g id="Group_3971" data-name="Group 3971">
          <path id="Path_13413" data-name="Path 13413" d="M23.593,18.1a1.825,1.825,0,0,1-1.381-.652,2.586,2.586,0,0,0-3.862,0,1.788,1.788,0,0,1-2.763,0,2.585,2.585,0,0,0-3.862,0,1.788,1.788,0,0,1-2.762,0,2.585,2.585,0,0,0-3.862,0,1.825,1.825,0,0,1-1.381.652.407.407,0,1,0,0,.814,2.6,2.6,0,0,0,1.931-.866,1.788,1.788,0,0,1,2.762,0,2.585,2.585,0,0,0,3.862,0,1.788,1.788,0,0,1,2.762,0,2.586,2.586,0,0,0,3.862,0,1.789,1.789,0,0,1,2.763,0,2.6,2.6,0,0,0,1.931.866.407.407,0,0,0,0-.814Z" fill="#222"/>
        </g>
      </g>
      <g id="Group_3974" data-name="Group 3974">
        <g id="Group_3973" data-name="Group 3973">
          <path id="Path_13414" data-name="Path 13414" d="M2.767,17.808a4.406,4.406,0,0,1-.429-.362A2.6,2.6,0,0,0,.407,16.58a.407.407,0,0,0,0,.814,1.825,1.825,0,0,1,1.381.652,5.09,5.09,0,0,0,.51.427.407.407,0,1,0,.469-.665Z" fill="#222"/>
        </g>
      </g>
      <g id="Group_3976" data-name="Group 3976">
        <g id="Group_3975" data-name="Group 3975">
          <path id="Path_13415" data-name="Path 13415" d="M23.593,14.268a1.825,1.825,0,0,1-1.381-.652,2.586,2.586,0,0,0-3.862,0,.407.407,0,0,0,.55.6,1.789,1.789,0,0,1,2.763,0,2.6,2.6,0,0,0,1.931.866.407.407,0,0,0,0-.814Z" fill="#222"/>
        </g>
      </g>
      <g id="Group_3978" data-name="Group 3978">
        <g id="Group_3977" data-name="Group 3977">
          <path id="Path_13416" data-name="Path 13416" d="M17.912,14.508a.407.407,0,0,0-.5-.293,1.787,1.787,0,0,1-.449.052,1.825,1.825,0,0,1-1.381-.652,2.585,2.585,0,0,0-3.862,0,1.788,1.788,0,0,1-2.762,0,2.585,2.585,0,0,0-3.862,0,1.788,1.788,0,0,1-2.762,0,2.6,2.6,0,0,0-1.931-.866.407.407,0,1,0,0,.814,1.825,1.825,0,0,1,1.381.652,2.585,2.585,0,0,0,3.862,0,1.788,1.788,0,0,1,2.762,0,2.585,2.585,0,0,0,3.862,0,1.788,1.788,0,0,1,2.762,0,2.6,2.6,0,0,0,1.931.866A2.625,2.625,0,0,0,17.619,15,.407.407,0,0,0,17.912,14.508Z" fill="#222"/>
        </g>
      </g>
    </g>
  </g>
</svg>
