<svg xmlns="http://www.w3.org/2000/svg" width="111.399" height="100" viewBox="0 0 111.399 100">
    <defs>
        <style>
            .cls-1{fill:#222}.cls-3{fill:#e15068}
        </style>
    </defs>
    <g id="done-icon">
        <path id="Path_12514" d="M430.248 232.4a.2.2 0 0 1-.112-.035l-54.05-37.642a.98.98 0 0 0-1.12 0l-53.661 37.639a.2.2 0 1 1-.224-.32l53.66-37.64a1.372 1.372 0 0 1 1.567 0l54.05 37.642a.2.2 0 0 1-.112.356z" class="cls-1" transform="translate(-319.827 -194.163)"/>
        <path id="Path_12515" fill="#ddd" d="M23.264 46.269l51.207-37.95 51.6 40.651-48.962 29.022-26.579-6.058z" transform="translate(-18.717 -6.694)"/>
        <path id="Path_12516" d="M380.247 640.973h-25.3a1.182 1.182 0 0 1 0-2.364h25.3a1.182 1.182 0 0 1 0 2.364z" class="cls-3" transform="translate(-346.191 -551.748)"/>
        <path id="Path_12517" d="M364.026 614.973h-9.076a1.182 1.182 0 1 1 0-2.364h9.076a1.182 1.182 0 1 1 0 2.364z" class="cls-3" transform="translate(-346.191 -530.83)"/>
        <path id="Path_12518" fill="#fff" d="M471.641 275.936a1.478 1.478 0 0 1-.561-.11l-31.581-13.1v-41.021a1.37 1.37 0 0 1 1.368-1.368h60.585a1.37 1.37 0 0 1 1.368 1.368v41.046l-.059.025-30.543 13.043a1.488 1.488 0 0 1-.577.117z" transform="translate(-415.168 -215.222)"/>
        <path id="Path_12519" fill="#3f3d56" d="M471.239 275.631a1.577 1.577 0 0 1-.6-.117L439 262.385V221.3a1.467 1.467 0 0 1 1.466-1.466h60.585a1.467 1.467 0 0 1 1.466 1.466v41.11l-30.662 13.094a1.585 1.585 0 0 1-.616.127zm-31.848-13.507l31.4 13.029a1.2 1.2 0 0 0 .912-.005l30.423-12.992V221.3a1.076 1.076 0 0 0-1.075-1.075h-60.585a1.076 1.076 0 0 0-1.075 1.075z" transform="translate(-414.766 -214.82)"/>
        <path id="Path_12520" d="M425.031 387.837h-.039l-22.436 9.58-30.7 13.108a.99.99 0 0 1-.758 0L339.43 397.39l-22.987-9.537-.035-.016h-.039a1.37 1.37 0 0 0-1.369 1.368v59.413a1.37 1.37 0 0 0 1.368 1.368h108.663a1.37 1.37 0 0 0 1.368-1.368v-59.413a1.37 1.37 0 0 0-1.368-1.368zm.977 60.781a.978.978 0 0 1-.977.977H316.368a.978.978 0 0 1-.977-.977v-59.413a.979.979 0 0 1 .94-.977l23.1 9.584 31.52 13.079a1.392 1.392 0 0 0 1.063-.006l30.543-13.043 22.514-9.614a.98.98 0 0 1 .938.977z" class="cls-1" transform="translate(-315 -349.986)"/>
        <path id="Path_12521" d="M529.934 283.066a5.375 5.375 0 0 1-3.234-1.074l-.058-.043-12.178-9.324a5.41 5.41 0 1 1 6.581-8.589l7.888 6.048 18.64-24.31a5.41 5.41 0 0 1 7.585-1l-.116.157.119-.155a5.416 5.416 0 0 1 1 7.586l-21.926 28.594a5.412 5.412 0 0 1-4.3 2.111z" class="cls-3" transform="translate(-473.776 -233.983)"/>
    </g>
</svg>
