<svg xmlns="http://www.w3.org/2000/svg" width="19" height="19" viewBox="0 0 19 19">
    <defs>
        <clipPath id="8h5h4x41ja">
            <path fill="#e15068" stroke="#707070" d="M0 0H19V19H0z" transform="translate(797 177)"/>
        </clipPath>
    </defs>
    <g clip-path="url(#8h5h4x41ja)" transform="translate(-797 -177)">
        <path fill="#e15068" d="M18.158.912a2.881 2.881 0 0 0-4.071 0L1.164 13.835A3.947 3.947 0 0 0 0 16.644v1.631a.8.8 0 0 0 .795.795h1.631a3.946 3.946 0 0 0 2.809-1.163L18.158 4.983a2.881 2.881 0 0 0 0-4.071zM4.111 16.783a2.4 2.4 0 0 1-1.685.7h-.837v-.837a2.368 2.368 0 0 1 .7-1.685l9.807-9.807 1.827 1.827zM17.034 3.859l-1.991 1.992-1.828-1.823 1.992-1.992a1.291 1.291 0 0 1 1.824 1.827z" transform="translate(797 176.93)"/>
    </g>
</svg>
