<svg xmlns="http://www.w3.org/2000/svg" width="20" height="20" viewBox="0 0 20 20">
    <defs>
        <clipPath id="clip-path">
            <path id="Rectangle_2426" fill="#e15068" stroke="#ddd" d="M0 0H10V10H0z"/>
        </clipPath>
        <style>
            .cls-4{fill:#e15068}
        </style>
    </defs>
    <g id="edit-icon" transform="translate(-607 -602)">
        <g id="edit-icon-sm">
            <rect id="Rectangle_2424" width="20" height="20" fill="#fff" rx="5" transform="translate(607 602)"/>
            <g id="Mask_Group_140" clip-path="url(#clip-path)" transform="translate(612 607)">
                <g id="fi-rr-edit" transform="translate(-.172 -.172)">
                    <path id="Path_13539" d="M9.011.41L3.756 5.665a2.141 2.141 0 0 0-.631 1.524v.579a.431.431 0 0 0 .431.431h.579a2.141 2.141 0 0 0 1.524-.631l5.255-5.255a1.347 1.347 0 0 0 0-1.9A1.377 1.377 0 0 0 9.011.41zM10.3 1.7L5.049 6.958a1.3 1.3 0 0 1-.914.378h-.148v-.148a1.3 1.3 0 0 1 .378-.914l5.256-5.255a.5.5 0 0 1 .684 0 .484.484 0 0 1-.005.681z" class="cls-4" transform="translate(-.97 -.009)"/>
                    <path id="Path_13540" d="M9.914 3.87a.431.431 0 0 0-.431.431v2.165H7.759a1.293 1.293 0 0 0-1.293 1.293v1.724H2.155A1.293 1.293 0 0 1 .862 8.19V2.155A1.293 1.293 0 0 1 2.155.862h3.9a.431.431 0 0 0 0-.862h-3.9A2.158 2.158 0 0 0 0 2.155V8.19a2.158 2.158 0 0 0 2.155 2.155h4.889a2.141 2.141 0 0 0 1.524-.631l1.145-1.146a2.141 2.141 0 0 0 .631-1.524V4.3a.431.431 0 0 0-.43-.43zM7.959 9.1a1.282 1.282 0 0 1-.631.345V7.759a.431.431 0 0 1 .431-.431H9.45a1.3 1.3 0 0 1-.345.631z" class="cls-4"/>
                </g>
            </g>
        </g>
    </g>
</svg>
