<svg xmlns="http://www.w3.org/2000/svg" width="42" height="42" viewBox="0 0 42 42">
    <defs>
        <clipPath id="clip-path">
            <path id="Rectangle_2374" fill="#e15068" stroke="#707070" d="M0 0H42V42H0z"/>
        </clipPath>
        <style>
            .cls-3{fill:#e15068}
        </style>
    </defs>
    <g id="eft-red-icon" clip-path="url(#clip-path)">
        <g id="outline">
            <path id="Path_12504" d="M33.6 30.8a.7.7 0 0 0 .7-.7v-2.8a.694.694 0 0 0-.39-.62l-11.2-5.607a.7.7 0 0 0-.626 0l-11.2 5.607a.694.694 0 0 0-.384.619v2.8a.7.7 0 0 0 .7.7h.7v8.4h-.7a.7.7 0 0 0-.7.7v2.8a.7.7 0 0 0 .7.7h22.4a.7.7 0 0 0 .7-.7V39.9a.7.7 0 0 0-.7-.7h-.7v-8.4zm-11.2-8.317l8.235 4.117h-16.47zM32.9 42h-21v-1.4h21zm-19.6-2.8v-8.4h1.4v8.4zm2.8 0v-8.4h1.4v8.4zm2.8 0v-8.4h1.4v8.4zm2.8 0v-8.4h1.4v8.4zm2.8 0v-8.4h1.4v8.4zm2.8 0v-8.4h1.4v8.4zm2.8 0v-8.4h1.4v8.4zm-18.2-9.8V28h21v1.4z" class="cls-3" transform="translate(-1.4 -1.4)"/>
            <path id="Path_12505" d="M5.105 20.505l-3.5 3.5A.7.7 0 0 0 2.1 25.2h1.4v11.2a.7.7 0 0 0 .7.7h5.6a.7.7 0 0 0 .7-.7v-2.8a.7.7 0 0 0-.7-.7H7.7v-7.7h1.4a.7.7 0 0 0 .495-1.195l-3.5-3.5a.7.7 0 0 0-.99 0zM7.41 23.8H7a.7.7 0 0 0-.7.7v9.1a.7.7 0 0 0 .7.7h2.1v1.4H4.9V24.5a.7.7 0 0 0-.7-.7h-.41l1.81-1.81z" class="cls-3" transform="translate(-1.4 -1.4)"/>
            <path id="Path_12506" d="M35 37.1h5.6a.7.7 0 0 0 .7-.7V25.2h1.4a.7.7 0 0 0 .495-1.195l-3.5-3.5a.7.7 0 0 0-.99 0l-3.5 3.5A.7.7 0 0 0 35.7 25.2h1.4v7.7H35a.7.7 0 0 0-.7.7v2.8a.7.7 0 0 0 .7.7zm.7-2.8h2.1a.7.7 0 0 0 .7-.7v-9.1a.7.7 0 0 0-.7-.7h-.41l1.81-1.81 1.81 1.81h-.41a.7.7 0 0 0-.7.7v11.2h-4.2z" class="cls-3" transform="translate(-1.4 -1.4)"/>
            <path id="Path_12507" d="M5.6 1.4v16.8h2.8v1.4h29.4V4.2h-1.4V1.4zm2.8 15.4H7v-14h28v1.4H8.4zm28 1.4H9.8V5.6h26.6z" class="cls-3" transform="translate(-1.4 -1.4)"/>
            <path id="Path_12508" d="M13.3 16.1v.7h19.6v-.7a1.4 1.4 0 0 1 1.4-1.4h.7V9.1h-.7a1.4 1.4 0 0 1-1.4-1.4V7H13.3v.7a1.4 1.4 0 0 1-1.4 1.4h-.7v5.6h.7a1.4 1.4 0 0 1 1.4 1.4zm-.7-5.689A2.811 2.811 0 0 0 14.612 8.4h16.976a2.811 2.811 0 0 0 2.012 2.011v2.978a2.81 2.81 0 0 0-2.012 2.011H14.612a2.811 2.811 0 0 0-2.012-2.011z" class="cls-3" transform="translate(-1.4 -1.4)"/>
            <path id="Path_12509" d="M16.1 14a2.1 2.1 0 1 0-2.1-2.1 2.1 2.1 0 0 0 2.1 2.1zm0-2.8a.7.7 0 1 1-.7.7.7.7 0 0 1 .7-.7z" class="cls-3" transform="translate(-1.4 -1.4)"/>
            <path id="Path_12510" d="M30.1 14a2.1 2.1 0 1 0-2.1-2.1 2.1 2.1 0 0 0 2.1 2.1zm0-2.8a.7.7 0 1 1-.7.7.7.7 0 0 1 .7-.7z" class="cls-3" transform="translate(-1.4 -1.4)"/>
            <path id="Path_12511" d="M19.6 11.9a3.5 3.5 0 1 0 3.5-3.5 3.5 3.5 0 0 0-3.5 3.5zm3.5-2.1a2.1 2.1 0 1 1-2.1 2.1 2.1 2.1 0 0 1 2.1-2.1z" class="cls-3" transform="translate(-1.4 -1.4)"/>
        </g>
    </g>
</svg>
