<svg xmlns="http://www.w3.org/2000/svg" width="82" height="82" viewBox="0 0 82 82">
    <defs>
        <clipPath id="37pcmxzp8a">
            <path fill="#fff" stroke="#707070" d="M0 0H82V82H0z" transform="translate(931 476)"/>
        </clipPath>
    </defs>
    <g clip-path="url(#37pcmxzp8a)" transform="translate(-931 -476)">
        <g>
            <g>
                <g>
                    <path fill="#f8d608" d="M57.276 23.317L52.891 27.7l-8.4 8.4-14.248 14.25a1.366 1.366 0 0 0-.369-.26L2.131 36.567a1.366 1.366 0 0 1 .164-2.527L53.67 16.925a13.66 13.66 0 0 0 3.606 6.393z" transform="translate(931.028 476) translate(-1.366) translate(1.366 1.366)"/>
                    <path fill="#fdd834" d="M53.67 16.925l-3.7 1.229a13.578 13.578 0 0 0 3.21 5.163L48.793 27.7l-8.4 8.4-12.855 12.857 2.336 1.134a1.366 1.366 0 0 1 .369.26L44.49 36.1l8.4-8.4 4.385-4.385a13.66 13.66 0 0 1-3.606-6.393z" transform="translate(931.028 476) translate(-1.366) translate(1.366 1.366)"/>
                    <path fill="#f8c008" d="M63.669 26.924L46.553 78.3a1.366 1.366 0 0 1-2.527.164L30.5 50.719a1.366 1.366 0 0 0-.26-.369L44.49 36.1l8.4-8.4 4.385-4.385a13.66 13.66 0 0 0 6.393 3.606z" transform="translate(931.028 476) translate(-1.366) translate(1.366 1.366)"/>
                    <path fill="#e15068" d="M80.593 13.66A13.66 13.66 0 1 1 66.933 0a13.66 13.66 0 0 1 13.66 13.66z" transform="translate(931.028 476) translate(-1.366) translate(1.366 1.366)"/>
                    <path fill="#d1324c" d="M66.933 0a14.466 14.466 0 0 0-2.049.164 13.66 13.66 0 0 1 0 26.978 12.526 12.526 0 0 0 2.049.178 13.66 13.66 0 0 0 0-27.32z" transform="translate(931.028 476) translate(-1.366) translate(1.366 1.366)"/>
                </g>
                <g>
                    <path d="M53.67 27.716l-4.89 4.89a1.372 1.372 0 001.94 1.94l4.89-4.89a1.372 1.372 0 00-1.94-1.94zM44.927 36.472l-8.7 8.688a1.372 1.372 0 101.94 1.94l8.688-8.7a1.366 1.366 0 00-1.926-1.926z" transform="translate(931.028 476) translate(-1.366)"/>
                    <path d="M68.3 0a15.026 15.026 0 0 0-15.027 15.026 14.875 14.875 0 0 0 .2 2.349L3.224 34.15A2.732 2.732 0 0 0 2.9 39.2l27.739 13.527L44.162 80.47a2.732 2.732 0 0 0 2.459 1.489h.164a2.732 2.732 0 0 0 2.39-1.858L65.95 29.847a14.875 14.875 0 0 0 2.349.2A15.026 15.026 0 0 0 68.3 0zM46.621 79.227l-13.51-27.7a2.732 2.732 0 0 0-1.27-1.3L4.1 36.7l50.05-16.679a15.108 15.108 0 0 0 9.15 9.156zM68.3 27.32a12.294 12.294 0 1 1 12.293-12.294A12.294 12.294 0 0 1 68.3 27.32z" transform="translate(931.028 476) translate(-1.366)"/>
                    <path d="M16.242 56.948a8.346 8.346 0 00-5.1-3.47 8.879 8.879 0 00-6.174.874 6.611 6.611 0 00-3.602 5.478 8.018 8.018 0 002.814 5.737 17.416 17.416 0 007.581 4.533 38.344 38.344 0 01-4.439 5.259 27.319 27.319 0 01-5.218 4.1A1.372 1.372 0 002.814 82a1.462 1.462 0 00.71-.191 31.308 31.308 0 005.737-4.549 37.7 37.7 0 005.464-6.68 13.482 13.482 0 003.415-.191c6.967-1.366 10.928-8.4 10.559-14.206a1.368 1.368 0 00-2.732.15c.273 4.658-2.841 10.327-8.346 11.379a12.582 12.582 0 01-1.462.164 17.13 17.13 0 001.366-4.357 9.22 9.22 0 00-1.283-6.571zm-1.476 6.092a14.834 14.834 0 01-1.544 4.549l-.683-.178a14.725 14.725 0 01-6.434-3.838 5.532 5.532 0 01-2.008-3.7 3.92 3.92 0 012.2-3.128 6.2 6.2 0 012.937-.738 5.819 5.819 0 011.366.15 5.642 5.642 0 013.429 2.295 6.543 6.543 0 01.738 4.59zM68.3 5.464a1.366 1.366 0 00-1.367 1.366v9.562a1.366 1.366 0 102.732 0V6.83A1.366 1.366 0 0068.3 5.464zM68.3 20.49a1.366 1.366 0 00-1.366 1.366v1.366a1.366 1.366 0 102.732 0v-1.366A1.366 1.366 0 0068.3 20.49z" transform="translate(931.028 476) translate(-1.366)"/>
                </g>
            </g>
        </g>
    </g>
</svg>
