<svg xmlns="http://www.w3.org/2000/svg" width="30" height="30" viewBox="0 0 30 30">
    <defs>
        <clipPath id="clip-path">
            <path id="Rectangle_1345" d="M0 0H30V30H0z" class="cls-1"/>
        </clipPath>
        <style>
            .cls-1{fill:#e15068}
        </style>
    </defs>
    <g id="envelope" clip-path="url(#clip-path)">
        <g id="newsletter">
            <path id="Path_10475" d="M30 11.9v-.074-.02c0-.007 0-.038-.008-.057v-.021c0-.023-.01-.046-.017-.069v-.007l-.023-.068-.01-.025-.021-.045-.013-.026c-.011-.021-.023-.041-.035-.06l-.015-.022-.031-.042-.017-.022c-.015-.019-.031-.037-.048-.054l-.057-.053-.007-.007-1.5-1.244V6.153A2.053 2.053 0 0 0 26.133 4.1h-5.026L17.058.742a3.225 3.225 0 0 0-4.116 0L8.893 4.1H3.867a2.053 2.053 0 0 0-2.051 2.053v3.822l-1.5 1.244-.007.007c-.02.017-.039.034-.057.053-.017.017-.033.036-.048.054l-.017.022-.034.045-.015.022c-.013.02-.024.04-.035.06l-.013.026-.021.045-.01.025c-.009.022-.017.045-.023.068v.007c-.007.023-.012.046-.017.069v.021q-.005.028-.008.057v.094H0v14.883a3.213 3.213 0 0 0 1.011 2.34c.018.018.035.035.054.051A3.21 3.21 0 0 0 3.223 30h23.554a3.21 3.21 0 0 0 2.158-.832c.019-.016.036-.033.054-.051A3.213 3.213 0 0 0 30 26.777V11.9zM3.867 5.86h22.266a.293.293 0 0 1 .293.293v6.837l-.5.413-9.99 8.297a1.466 1.466 0 0 1-1.871 0l-9.993-8.3-.5-.413V6.153a.293.293 0 0 1 .293-.293zM1.758 26.777v-13.01l.378.314 8.583 7.119-8.871 6.083a1.457 1.457 0 0 1-.09-.506zm10.367-4.406l.817.678a3.224 3.224 0 0 0 4.116 0l.817-.678 8.568 5.871H3.558zm7.156-1.171l8.582-7.122.378-.314v13.01a1.457 1.457 0 0 1-.09.506zM14.064 2.1a1.466 1.466 0 0 1 1.871 0l2.419 2h-6.708z" class="cls-1"/>
            <path id="Path_10476" d="M7.705 9.668a.879.879 0 0 0 .879.879H16.9a.879.879 0 0 0 0-1.758H8.584a.879.879 0 0 0-.879.879z" class="cls-1"/>
            <path id="Path_10477" d="M8.584 14.062h12.832a.879.879 0 0 0 0-1.758H8.584a.879.879 0 0 0 0 1.758z" class="cls-1"/>
        </g>
    </g>
</svg>
