<?xml version="1.0" encoding="utf-8"?>
<!-- Generator: Adobe Illustrator 25.2.1, SVG Export Plug-In . SVG Version: 6.00 Build 0)  -->
<svg version="1.1" id="Outline" xmlns="http://www.w3.org/2000/svg" xmlns:xlink="http://www.w3.org/1999/xlink" x="0px" y="0px"
	 viewBox="0 0 24 24" style="enable-background:new 0 0 24 24;" xml:space="preserve">
<style type="text/css">
	.st0{fill:#F5AE76;}
</style>
<path class="st0" d="M12,0C5.4,0,0,5.4,0,12s5.4,12,12,12s12-5.4,12-12C24,5.4,18.6,0,12,0z M12,22C6.5,22,2,17.5,2,12S6.5,2,12,2
	s10,4.5,10,10C22,17.5,17.5,22,12,22z"/>
<path class="st0" d="M12.7,5.1c-2.2-0.4-4.3,1-4.7,3.2C8,8.5,8,8.8,8,9c0,0.6,0.4,1,1,1s1-0.4,1-1c0-1.1,0.9-2,2-2
	c0.1,0,0.2,0,0.4,0c0.8,0.2,1.4,0.8,1.6,1.6c0.2,0.9-0.2,1.7-1,2.1c-1.2,0.7-2,2.1-2,3.5V15c0,0.6,0.4,1,1,1s1-0.4,1-1v-0.7
	c0-0.7,0.3-1.4,0.9-1.8c1.9-1.1,2.6-3.5,1.6-5.4C14.9,6,13.9,5.3,12.7,5.1z"/>
<path class="st0" d="M12,17L12,17c0.6,0,1,0.4,1,1l0,0c0,0.6-0.4,1-1,1l0,0c-0.6,0-1-0.4-1-1l0,0C11,17.4,11.4,17,12,17z"/>
</svg>
