<svg xmlns="http://www.w3.org/2000/svg" xmlns:xlink="http://www.w3.org/1999/xlink" width="24" height="24" viewBox="0 0 24 24">
  <defs>
    <clipPath id="clip-path">
      <rect id="Rectangle_2275" data-name="Rectangle 2275" width="24" height="24" fill="#222"/>
    </clipPath>
  </defs>
  <g id="Mask_Group_27" data-name="Mask Group 27" clip-path="url(#clip-path)">
    <g id="search">
      <path id="Path_12390" data-name="Path 12390" d="M5.319,14.5l-.835,3.119-3.053.065A12.021,12.021,0,0,1,1.342,6.481h0l2.718.5,1.191,2.7A7.162,7.162,0,0,0,5.319,14.5Z" fill="#fbbb00"/>
      <path id="Path_12391" data-name="Path 12391" d="M23.79,9.758a12,12,0,0,1-4.278,11.6h0l-3.424-.175L15.6,18.158a7.152,7.152,0,0,0,3.077-3.652H12.264V9.758H23.79Z" fill="#518ef8"/>
      <path id="Path_12392" data-name="Path 12392" d="M19.512,21.357h0A12,12,0,0,1,1.43,17.687L5.319,14.5A7.137,7.137,0,0,0,15.6,18.158Z" fill="#28b446"/>
      <path id="Path_12393" data-name="Path 12393" d="M19.66,2.763,15.772,5.945A7.136,7.136,0,0,0,5.252,9.682l-3.909-3.2h0A12,12,0,0,1,19.66,2.763Z" fill="#f14336"/>
    </g>
  </g>
</svg>
