<svg xmlns="http://www.w3.org/2000/svg" xmlns:xlink="http://www.w3.org/1999/xlink" width="18" height="18" viewBox="0 0 18 18">
  <defs>
    <clipPath id="clip-path">
      <rect id="Rectangle_2313" data-name="Rectangle 2313" width="18" height="18" transform="translate(1230 2337)" fill="#222" stroke="#707070" stroke-width="1"/>
    </clipPath>
  </defs>
  <g id="gallery-icon" transform="translate(-1230 -2337)" clip-path="url(#clip-path)">
    <g id="fi-rr-grid" transform="translate(1230 2337)">
      <path id="Path_12409" data-name="Path 12409" d="M3.375,13.125H1.5a1.5,1.5,0,0,0-1.5,1.5V16.5A1.5,1.5,0,0,0,1.5,18H3.375a1.5,1.5,0,0,0,1.5-1.5V14.625A1.5,1.5,0,0,0,3.375,13.125Zm0,3.375H1.5V14.625H3.375Z" fill="#222"/>
      <path id="Path_12410" data-name="Path 12410" d="M16.5,13.125H14.625a1.5,1.5,0,0,0-1.5,1.5V16.5a1.5,1.5,0,0,0,1.5,1.5H16.5A1.5,1.5,0,0,0,18,16.5V14.625A1.5,1.5,0,0,0,16.5,13.125Zm0,3.375H14.625V14.625H16.5Z" fill="#222"/>
      <path id="Path_12411" data-name="Path 12411" d="M3.375,6.563H1.5A1.5,1.5,0,0,0,0,8.063V9.938a1.5,1.5,0,0,0,1.5,1.5H3.375a1.5,1.5,0,0,0,1.5-1.5V8.063A1.5,1.5,0,0,0,3.375,6.563Zm0,3.375H1.5V8.063H3.375Z" fill="#222"/>
      <path id="Path_12412" data-name="Path 12412" d="M16.5,6.563H14.625a1.5,1.5,0,0,0-1.5,1.5V9.938a1.5,1.5,0,0,0,1.5,1.5H16.5a1.5,1.5,0,0,0,1.5-1.5V8.063A1.5,1.5,0,0,0,16.5,6.563Zm0,3.375H14.625V8.063H16.5Z" fill="#222"/>
      <path id="Path_12413" data-name="Path 12413" d="M3.375,0H1.5A1.5,1.5,0,0,0,0,1.5V3.375a1.5,1.5,0,0,0,1.5,1.5H3.375a1.5,1.5,0,0,0,1.5-1.5V1.5A1.5,1.5,0,0,0,3.375,0Zm0,3.375H1.5V1.5H3.375Z" fill="#222"/>
      <path id="Path_12414" data-name="Path 12414" d="M9.938,13.125H8.063a1.5,1.5,0,0,0-1.5,1.5V16.5a1.5,1.5,0,0,0,1.5,1.5H9.938a1.5,1.5,0,0,0,1.5-1.5V14.625A1.5,1.5,0,0,0,9.938,13.125Zm0,3.375H8.063V14.625H9.938Z" fill="#222"/>
      <path id="Path_12415" data-name="Path 12415" d="M9.938,6.563H8.063a1.5,1.5,0,0,0-1.5,1.5V9.938a1.5,1.5,0,0,0,1.5,1.5H9.938a1.5,1.5,0,0,0,1.5-1.5V8.063A1.5,1.5,0,0,0,9.938,6.563Zm0,3.375H8.063V8.063H9.938Z" fill="#222"/>
      <path id="Path_12416" data-name="Path 12416" d="M9.938,0H8.063a1.5,1.5,0,0,0-1.5,1.5V3.375a1.5,1.5,0,0,0,1.5,1.5H9.938a1.5,1.5,0,0,0,1.5-1.5V1.5A1.5,1.5,0,0,0,9.938,0Zm0,3.375H8.063V1.5H9.938Z" fill="#222"/>
      <path id="Path_12417" data-name="Path 12417" d="M16.5,0H14.625a1.5,1.5,0,0,0-1.5,1.5V3.375a1.5,1.5,0,0,0,1.5,1.5H16.5a1.5,1.5,0,0,0,1.5-1.5V1.5A1.5,1.5,0,0,0,16.5,0Zm0,3.375H14.625V1.5H16.5Z" fill="#222"/>
    </g>
  </g>
</svg>
