<svg xmlns="http://www.w3.org/2000/svg" width="55" height="55" viewBox="0 0 55 55">
    <defs>
        <clipPath id="clip-path">
            <path id="Rectangle_50" d="M0 0H55V55H0z" class="cls-1"/>
        </clipPath>
        <style>
            .cls-1{fill:#2ebf8e}
        </style>
    </defs>
    <g id="guarantee" clip-path="url(#clip-path)">
        <g id="surface1" transform="translate(4.082)">
            <path id="Path_1875" d="M46.781 14.923v-.043c-.024-.528-.04-1.087-.05-1.709a5.829 5.829 0 0 0-5.49-5.711A22.619 22.619 0 0 1 25.846.971L25.81.937a3.52 3.52 0 0 0-4.784 0l-.036.034A22.622 22.622 0 0 1 5.6 7.461a5.829 5.829 0 0 0-5.493 5.71c-.007.618-.026 1.177-.05 1.709v.1c-.123 6.448-.276 14.473 2.409 21.758a27.7 27.7 0 0 0 6.645 10.35 34.76 34.76 0 0 0 13 7.691 4.021 4.021 0 0 0 .533.145 3.937 3.937 0 0 0 1.548 0 4.024 4.024 0 0 0 .535-.146 34.781 34.781 0 0 0 12.989-7.7 27.737 27.737 0 0 0 6.645-10.352c2.695-7.303 2.539-15.343 2.42-21.803zm-5.448 20.69c-2.833 7.677-8.612 12.95-17.671 16.118a.83.83 0 0 1-.1.028.725.725 0 0 1-.284 0 .816.816 0 0 1-.1-.027C14.106 48.568 8.322 43.3 5.492 35.621c-2.474-6.714-2.334-14.081-2.21-20.58v-.036c.025-.559.042-1.143.051-1.786a2.591 2.591 0 0 1 2.442-2.536 28.316 28.316 0 0 0 9.611-2.114 25.144 25.144 0 0 0 7.832-5.262.3.3 0 0 1 .4 0 25.153 25.153 0 0 0 7.832 5.262 28.316 28.316 0 0 0 9.611 2.114 2.59 2.59 0 0 1 2.439 2.536c.01.646.026 1.231.052 1.786.126 6.507.263 13.879-2.219 20.608zm0 0" class="cls-1"/>
            <path id="Path_1876" d="M23.418 13.794A13.707 13.707 0 1 0 37.124 27.5a13.722 13.722 0 0 0-13.706-13.706zm0 24.186A10.479 10.479 0 1 1 33.9 27.5a10.491 10.491 0 0 1-10.482 10.48zm0 0" class="cls-1"/>
            <path id="Path_1877" d="M27.357 23.245l-6.367 6.367-1.728-1.728a1.614 1.614 0 0 0-2.282 2.282l2.869 2.869a1.614 1.614 0 0 0 2.282 0l7.508-7.508a1.614 1.614 0 0 0-2.282-2.282zm0 0" class="cls-1"/>
        </g>
    </g>
</svg>
