<svg xmlns="http://www.w3.org/2000/svg" width="40" height="40" viewBox="0 0 40 40">
    <defs>
        <clipPath id="e783ts0m5a">
            <path fill="#222" d="M0 0H40V40H0z"/>
        </clipPath>
    </defs>
    <g clip-path="url(#e783ts0m5a)">
        <g>
            <g>
                <g>
                    <path d="M32.915 35.43l6.413-7.33v-2.512h-7.953l-9.27-13.9V2.46h2.46V0h-4.92v2.53C15.738 2.971 12.137 5.515 9.4 9.8a31.488 31.488 0 0 0-4.5 15.788H2.422V27.9l3.3 7.534zm-10.81-19.311l6.313 9.469h-6.313zm-10.632-4.992c2.254-3.531 5.119-5.661 8.172-6.114v20.575H7.364a28.973 28.973 0 0 1 4.109-14.461zM36.1 28.049l-4.3 4.921H7.327l-2.153-4.921z" transform="translate(-.797 2.16) translate(2.422) translate(-2.422)"/>
                </g>
            </g>
        </g>
    </g>
</svg>
