<svg xmlns="http://www.w3.org/2000/svg" width="42" height="42" viewBox="0 0 42 42">
    <defs>
        <clipPath id="clip-path">
            <path id="Rectangle_9" fill="#f5f5f5" d="M0 0H42V42H0z" transform="translate(266 1139)"/>
        </clipPath>
        <style>
            .cls-5{fill:#37bc9b}.cls-7{fill:#f8d608}.cls-9{fill:#f3e173}.cls-11{fill:#e15068}.cls-12{fill:#ffdad2}
        </style>
    </defs>
    <g id="icon-feature-3" clip-path="url(#clip-path)" transform="translate(-266 -1139)">
        <g id="mortgage" transform="translate(264.6 1137.6)">
            <path id="Path_264" fill="#2eaa8b" d="M6.3 2.1h18.2v16.1H6.3z"/>
            <path id="Path_265" fill="#5cd6b3" d="M6.3 2.1h18.2v10.5H6.3z"/>
            <g id="Group_32">
                <path id="Path_266" d="M6.3 2.1h4.2a4.2 4.2 0 0 1-4.2 4.2z" class="cls-5"/>
                <path id="Path_267" d="M20.3 2.1h4.2a4.2 4.2 0 0 1-4.2 4.2z" class="cls-5" transform="rotate(90 22.4 4.2)"/>
                <path id="Path_268" d="M20.3 8.4h4.2a4.2 4.2 0 0 1-4.2 4.2z" class="cls-5" transform="rotate(180 22.4 10.5)"/>
                <path id="Path_269" d="M6.3 8.4h4.2a4.2 4.2 0 0 1-4.2 4.2z" class="cls-5" transform="rotate(-90 8.4 10.5)"/>
            </g>
            <path id="Path_270" fill="#1e9174" d="M20.945 12.6a5.593 5.593 0 0 1-4.845 2.8H6.3v2.8h18.2v-5.6z"/>
            <path id="Path_271" d="M13.3 2.1h4.2v10.5h-4.2z" class="cls-7"/>
            <path id="Path_272" fill="#f8a008" d="M13.3 12.6h4.2v5.6h-4.2z"/>
            <path id="Path_273" d="M17.5 18.2h18.2v11.9H17.5z" class="cls-7"/>
            <path id="Path_274" d="M20.3 21h4.2v9.1h-4.2z" class="cls-9"/>
            <path id="Path_275" d="M14.7 18.2L26.6 6.3l11.9 11.9z" class="cls-7"/>
            <path id="Path_276" d="M31.5 11.2V7.7h4.2v7.7z" class="cls-9"/>
            <path id="Path_277" d="M27.3 21h5.6v4.2h-5.6z" class="cls-9"/>
            <path id="Path_278" fill="#f8c208" d="M14.7 25.2h9.8v4.9h-9.8z"/>
            <path id="Path_279" d="M28.7 25.2h9.8v4.9h-9.8z" class="cls-7"/>
            <path id="Path_280" d="M2.1 40.6h12.6v2.8H2.1z" class="cls-11"/>
            <path id="Path_281" d="M3.5 37.8h9.8v2.8H3.5z" class="cls-11"/>
            <path id="Path_282" d="M11.2 29.4l-.7-.7v-4.2a2.1 2.1 0 1 0-4.2 0V13.3a2.1 2.1 0 1 0-4.2 0v15.252A16.672 16.672 0 0 0 4.9 37.8h6.3a5.94 5.94 0 0 0 0-8.4z" class="cls-12"/>
            <path id="Path_283" d="M30.1 40.6h12.6v2.8H30.1z" class="cls-11"/>
            <path id="Path_284" d="M31.5 37.8h9.8v2.8h-9.8z" class="cls-11"/>
            <path id="Path_285" d="M40.6 11.2a2.1 2.1 0 0 0-2.1 2.1v11.2a2.1 2.1 0 1 0-4.2 0v4.2l-.7.7a5.94 5.94 0 0 0 0 8.4h6.3a16.672 16.672 0 0 0 2.8-9.248V13.3a2.1 2.1 0 0 0-2.1-2.1z" class="cls-12"/>
            <path id="Path_286" d="M2.8 41.3H14v2.1h1.4v-2.8a.7.7 0 0 0-.7-.7H14v-2.1a.7.7 0 0 0-.7-.7h-.659a6.65 6.65 0 0 0-.946-8.195l-.495-.5V24.5A2.8 2.8 0 0 0 7 22.076V13.3a2.8 2.8 0 0 0-5.6 0v15.252A17.309 17.309 0 0 0 3.648 37.1H3.5a.7.7 0 0 0-.7.7v2.1h-.7a.7.7 0 0 0-.7.7v2.8h1.4zm0-12.748V13.3a1.4 1.4 0 0 1 2.8 0v16.8a.7.7 0 0 0 1.4 0v-5.6a1.4 1.4 0 1 1 2.8 0v4.2a.7.7 0 0 0 .205.495l.7.7A5.24 5.24 0 0 1 10.9 37.1H5.28a15.918 15.918 0 0 1-2.48-8.548zM4.2 38.5h8.4v1.4H4.2z"/>
            <path id="Path_287" d="M33.6 24.5v3.91l-.495.5a6.65 6.65 0 0 0-.946 8.195H31.5a.7.7 0 0 0-.7.7v2.1h-.7a.7.7 0 0 0-.7.7v2.8h1.4V41.3H42v2.1h1.4v-2.8a.7.7 0 0 0-.7-.7H42v-2.1a.7.7 0 0 0-.7-.7h-.148a17.309 17.309 0 0 0 2.248-8.548V13.3a2.8 2.8 0 1 0-5.6 0v8.776a2.8 2.8 0 0 0-4.2 2.424zm-1.4 15.4v-1.4h8.4v1.4zm5.6-15.4v5.6a.7.7 0 1 0 1.4 0V13.3a1.4 1.4 0 1 1 2.8 0v15.252a15.918 15.918 0 0 1-2.48 8.548H33.9a5.24 5.24 0 0 1 .194-7.205l.7-.7A.7.7 0 0 0 35 28.7v-4.2a1.4 1.4 0 0 1 2.8 0z"/>
            <path id="Path_288" d="M14.053 18.468a.7.7 0 0 0 .647.432h2.1v5.6h-2.1a.7.7 0 0 0-.7.7v4.9a.7.7 0 0 0 .7.7h16.1v-1.4h-1.4v-3.5h2.8v-1.4H28v-2.8h5.6V21a.7.7 0 0 0-.7-.7h-5.6a.7.7 0 0 0-.7.7v4.2a.7.7 0 0 0 .7.7h.7v3.5h-2.8V21a.7.7 0 0 0-.7-.7h-4.2a.7.7 0 0 0-.7.7v3.5h-1.4v-5.6H35v1.4h1.4v-2.8H16.39L26.6 7.29l4.405 4.405 4.2 4.2.7.7.99-.99-.495-.495V7.7a.7.7 0 0 0-.7-.7h-4.2a.7.7 0 0 0-.7.7v1.81l-3.705-3.705a.7.7 0 0 0-.99 0l-11.9 11.9a.7.7 0 0 0-.152.763zM21 29.4h-5.6v-3.5H21zm0-7.7h2.8v7.7h-1.4v-4.2a.7.7 0 0 0-.7-.7H21zM32.2 8.4H35v5.31l-2.8-2.8z"/>
            <path id="Path_289" d="M8.4 17.5h4.2v1.4H8.4z"/>
            <path id="Path_290" d="M24.5 1.4H6.3a.7.7 0 0 0-.7.7v7h.7a3.506 3.506 0 0 1 3.43 2.8H8.4v1.4h4.2v2.8H14v-2.8h3.5a.7.7 0 0 0 .7-.7V2.8h1.451a4.909 4.909 0 0 0 3.215 3.921l.467-1.32a3.507 3.507 0 0 1-2.262-2.6H23.8V4.9h1.4V2.1a.7.7 0 0 0-.7-.7zM7 2.8h2.73A3.511 3.511 0 0 1 7 5.53zm0 4.951v-.8A4.91 4.91 0 0 0 11.149 2.8H12.6v9.1h-1.451A4.91 4.91 0 0 0 7 7.751zm9.8 4.149H14V2.8h2.8z"/>
            <path id="Path_291" d="M8.4 17.5h4.2v1.4H8.4z"/>
        </g>
    </g>
</svg>
