<svg xmlns="http://www.w3.org/2000/svg" width="42" height="42" viewBox="0 0 42 42">
    <defs>
        <clipPath id="clip-path">
            <path id="Rectangle_14" fill="#222" d="M0 0H42V42H0z" transform="translate(266 1202)"/>
        </clipPath>
        <style>
            .cls-3{fill:#f8d608}.cls-4{fill:#e15068}.cls-5{fill:#ffceb6}
        </style>
    </defs>
    <g id="icon-feature-7" clip-path="url(#clip-path)" transform="translate(-266 -1202)">
        <g id="feedback" transform="translate(264.6 1200.6)">
            <path id="Path_377" d="M19.232 20.3a4.2 4.2 0 0 1 4.038 3.046L25.2 30.1h4.9v4.2h-5.3a4.2 4.2 0 0 1-4.014-2.965L18.9 25.2v10.5H6.3v.7H2.1V24.5a4.2 4.2 0 0 1 4.2-4.2z" class="cls-3"/>
            <path id="Path_378" d="M13.3 23.8l1.4 7-2.1 2.1-2.1-2.1 1.4-7z" class="cls-4"/>
            <path id="Path_379" d="M11.9 23.8l-.7-1.4 1.4-1.4 1.4 1.4-.7 1.4z" class="cls-4"/>
            <path id="Path_380" d="M6.3 36.4v4.2H4.2a2.1 2.1 0 0 1-2.1-2.1v-2.1z" class="cls-5"/>
            <path id="Path_381" d="M30.1 30.1l1.81-1.81a.99.99 0 0 1 .7-.29.99.99 0 0 1 .99.99v1.11h2.8v2.8a1.4 1.4 0 0 1-1.4 1.4h-4.9z" class="cls-5"/>
            <path id="Path_382" d="M23.8 17.5h1.4V21l4.2-3.5h11.9a1.4 1.4 0 0 0 1.4-1.4V3.5a1.4 1.4 0 0 0-1.4-1.4H23.8a1.4 1.4 0 0 0-1.4 1.4v12.6a1.4 1.4 0 0 0 1.4 1.4z" class="cls-4"/>
            <path id="Path_383" d="M28 9.1l2.1 1.4-.39-2.466L31.5 6.3h-2.38L28 4.2l-1.12 2.1H24.5l1.79 1.734-.39 2.466z" class="cls-3"/>
            <path id="Path_384" d="M37.1 9.1l2.1 1.4-.39-2.466L40.6 6.3h-2.38L37.1 4.2l-1.12 2.1H33.6l1.79 1.734L35 10.5z" class="cls-3"/>
            <path id="Rectangle_20" d="M0 0H12.6V7.7H0z" class="cls-4" transform="translate(6.3 35.7)"/>
            <path id="Path_385" d="M12.6 21a2.8 2.8 0 0 1-2.8-2.8v-1.4l2.1-2.1h3.5v3.5a2.8 2.8 0 0 1-2.8 2.8z" class="cls-5"/>
            <path id="Path_386" fill="#c47220" d="M15.4 14.7l.683-.341A1.3 1.3 0 0 0 16.8 13.2a1.3 1.3 0 0 0-1.3-1.3h-2.9a2.8 2.8 0 0 0-2.8 2.8v2.1l2.1-2.1z"/>
            <path id="Path_387" d="M36.4 29.4h-2.1v-.41a1.69 1.69 0 0 0-2.885-1.2L29.81 29.4h-4.082l-1.785-6.246a4.921 4.921 0 0 0-4.711-3.554h-3.425a3.479 3.479 0 0 0 .293-1.4v-3.067l.3-.148a2 2 0 0 0-.9-3.785h-2.9a3.5 3.5 0 0 0-3.5 3.5v3.5a3.479 3.479 0 0 0 .293 1.4H6.3a4.906 4.906 0 0 0-4.9 4.9v14a2.8 2.8 0 0 0 2.8 2.8h1.4v2.1H7v-7h11.2v7h1.4V29.855l.519 1.686A4.875 4.875 0 0 0 24.8 35H35a2.1 2.1 0 0 0 2.1-2.1v-2.8a.7.7 0 0 0-.7-.7zm-23.926-4.9h.252l1.214 6.07-1.34 1.34-1.34-1.34zm.393-1.4h-.535l-.281-.562.548-.548.548.548zm-.267-2.8a2.1 2.1 0 0 1-2.1-2.1v-1.11l1.69-1.69h2.51v2.8a2.1 2.1 0 0 1-2.1 2.1zm0-7.7h2.9a.6.6 0 0 1 .267 1.133l-.532.267H11.9a.7.7 0 0 0-.495.2l-.905.905V14.7a2.1 2.1 0 0 1 2.1-2.1zM2.8 38.5v-1.4h2.8v2.8H4.2a1.4 1.4 0 0 1-1.4-1.4zm26.6-4.9h-4.6a3.482 3.482 0 0 1-3.345-2.471l-1.888-6.135a.7.7 0 0 0-1.367.206V35H7v-9.8H5.6v10.5H2.8V24.5A3.5 3.5 0 0 1 6.3 21h4.2a3.5 3.5 0 0 0 .7.41L9.3 23.3l.99.99.713-.713.158.317-1.347 6.769a.7.7 0 0 0 .191.632l2.1 2.1a.7.7 0 0 0 .99 0l2.1-2.1a.7.7 0 0 0 .191-.632L14.034 23.9l.158-.317.713.713.99-.99-1.9-1.9a3.5 3.5 0 0 0 .7-.41h4.532a3.515 3.515 0 0 1 3.373 2.543l1.93 6.754a.7.7 0 0 0 .673.508h4.2zm6.3-.7a.7.7 0 0 1-.7.7h-4.2v-3.21l1.605-1.605a.29.29 0 0 1 .495.2V30.1a.7.7 0 0 0 .7.7h2.1z"/>
            <path id="Path_388" d="M41.3 1.4H23.8a2.1 2.1 0 0 0-2.1 2.1v12.6a2.1 2.1 0 0 0 2.1 2.1h.7V21a.7.7 0 0 0 1.148.538l4.005-3.338H41.3a2.1 2.1 0 0 0 2.1-2.1V3.5a2.1 2.1 0 0 0-2.1-2.1zm.7 14.7a.7.7 0 0 1-.7.7H29.4a.7.7 0 0 0-.448.162L25.9 19.505V17.5a.7.7 0 0 0-.7-.7h-1.4a.7.7 0 0 1-.7-.7V3.5a.7.7 0 0 1 .7-.7h17.5a.7.7 0 0 1 .7.7z"/>
            <path id="Path_389" d="M30.1 11.2a.7.7 0 0 0 .691-.809l-.333-2.107L31.987 6.8a.7.7 0 0 0-.487-1.2h-1.96l-.922-1.729a.7.7 0 0 0-1.235 0L26.46 5.6H24.5a.7.7 0 0 0-.487 1.2l1.529 1.481-.333 2.107a.7.7 0 0 0 1.08.692L28 9.941l1.712 1.141a.7.7 0 0 0 .388.118zm-1.081-3.057l.14.888-.771-.514a.7.7 0 0 0-.777 0l-.771.514.14-.888a.7.7 0 0 0-.2-.612L26.228 7h.652a.7.7 0 0 0 .618-.371l.5-.942.5.942A.7.7 0 0 0 29.12 7h.652l-.548.531a.7.7 0 0 0-.2.612z"/>
            <path id="Path_390" d="M40.6 5.6h-1.96l-.922-1.729a.7.7 0 0 0-1.235 0L35.56 5.6H33.6a.7.7 0 0 0-.487 1.2l1.529 1.481-.333 2.107a.7.7 0 0 0 1.08.692L37.1 9.941l1.712 1.141a.7.7 0 0 0 1.08-.692l-.333-2.107L41.087 6.8a.7.7 0 0 0-.487-1.2zm-2.277 1.931a.7.7 0 0 0-.2.612l.14.888-.771-.514a.7.7 0 0 0-.777 0l-.771.514.14-.888a.7.7 0 0 0-.2-.612L35.328 7h.652a.7.7 0 0 0 .618-.371l.5-.942.5.942A.7.7 0 0 0 38.22 7h.652z"/>
            <path id="Rectangle_21" d="M0 0H1.4V1.4H0z" transform="translate(26.6 13.3)"/>
            <path id="Rectangle_22" d="M0 0H6.3V1.4H0z" transform="translate(29.4 13.3)"/>
            <path id="Rectangle_23" d="M0 0H1.4V1.4H0z" transform="translate(37.1 13.3)"/>
            <path id="Rectangle_24" d="M0 0H1.4V3.5H0z" transform="translate(11.9 39.9)"/>
        </g>
    </g>
</svg>
