<svg xmlns="http://www.w3.org/2000/svg" width="42" height="50" viewBox="0 0 42 50">
    <defs>
        <clipPath id="clip-path">
            <path id="Rectangle_13" d="M0 0H42V50H0z" class="cls-1" transform="translate(266 1202)"/>
        </clipPath>
        <style>
            .cls-1{fill:#f8d608}.cls-6{fill:#d14547}.cls-7{fill:#e15068}.cls-10{fill:#73c97c}.cls-11{fill:#55965c}
        </style>
    </defs>
    <g id="icon-feature-6" clip-path="url(#clip-path)" transform="translate(-266 -1202)">
        <g id="jackpot" transform="translate(261.575 1200.6)">
            <g id="Fill_out_line" transform="translate(4.425 1.4)">
                <path id="Path_376" fill="#f5f5f5" d="M18.809 0A18.809 18.809 0 1 1 0 18.809 18.809 18.809 0 0 1 18.809 0z" transform="translate(2.192 .818)"/>
                <circle id="Ellipse_15" cx="16.356" cy="16.356" r="16.356" class="cls-1" transform="translate(4.645 3.271)"/>
                <path id="Path_343" fill="#396795" d="M21.239 10.5h3.271a1.64 1.64 0 0 1 1.636 1.636 1.64 1.64 0 0 1-1.636 1.636h-3.271a1.64 1.64 0 0 1-1.639-1.635 1.64 1.64 0 0 1 1.639-1.637z" transform="translate(-1.874 .129)"/>
                <path id="Path_344" fill="#8acce7" d="M24.627 11.09h-3.271A2.447 2.447 0 0 1 18.9 8.637V7h2.453a1.636 1.636 0 1 0 3.271 0h2.453v1.637a2.447 2.447 0 0 1-2.45 2.453z" transform="translate(-1.991 -.459)"/>
                <path id="Path_345" d="M29.4 35.947l6.538-6.547 3.271 3.271-6.542 6.542z" class="cls-6" transform="translate(-.228 3.307)"/>
                <path id="Path_346" d="M7.7 33.376l3.272-3.276 5.728 5.729-3.274 3.271z" class="cls-6" transform="translate(-3.874 3.424)"/>
                <g id="Group_48" transform="translate(.805 26.987)">
                    <path id="Path_347" d="M42.963 26.671a3.349 3.349 0 0 1 1.554 5.612l-4.488 4.487.215-.215a2.441 2.441 0 0 0-1.135-4.1 47.348 47.348 0 0 0-11.428-1.411h-4.753A46.844 46.844 0 0 0 11.5 32.457a2.441 2.441 0 0 0-1.135 4.1l.215.215-4.488-4.489a3.349 3.349 0 0 1 1.554-5.612A72.412 72.412 0 0 1 25.238 24.5h.133a72.288 72.288 0 0 1 17.592 2.167z" class="cls-7" transform="translate(-5.114 -24.504)"/>
                    <path id="Path_348" d="M36.044 35.1l4.089 4.089h-4.907V44.1L29.5 38.374a2.32 2.32 0 0 1 0-3.271 2.32 2.32 0 0 1 3.271 0 2.32 2.32 0 0 0 3.271 0z" class="cls-7" transform="translate(-1.128 -22.836)"/>
                    <path id="Path_349" d="M10.39 35.1L6.3 39.191h4.907V44.1l5.724-5.724a2.32 2.32 0 0 0 0-3.271 2.32 2.32 0 0 0-3.271 0 2.32 2.32 0 0 1-3.271 0z" class="cls-7" transform="translate(-4.914 -22.836)"/>
                </g>
                <path id="Path_350" d="M45.6 31.3a4.161 4.161 0 0 0-2.32-1.544c-.082-.02-.164-.041-.256-.061a19.627 19.627 0 1 0-35.205 0l-.245.061a4.164 4.164 0 0 0-1.932 6.982l3.918 3.916-3.506 3.506a.821.821 0 0 0 0 1.155.81.81 0 0 0 .583.235h4.089v4.089a.824.824 0 0 0 1.4.583l5.725-5.722a3.14 3.14 0 0 0 0-4.426l-1.84-1.84a19.658 19.658 0 0 0 18.88 0l-1.84 1.84a3.14 3.14 0 0 0 0 4.426l5.724 5.724a.821.821 0 0 0 1.155 0 .81.81 0 0 0 .235-.583V45.55h4.089a.824.824 0 0 0 .583-1.4l-3.537-3.5 3.915-3.915A4.193 4.193 0 0 0 45.6 31.3zM7.434 21.027a17.991 17.991 0 1 1 33.958 8.29l-.828-.184a17 17 0 0 0 2.036-8.106 17.173 17.173 0 1 0-32.312 8.106c-.276.061-.552.112-.828.184a18.025 18.025 0 0 1-2.026-8.29zm10.079 6.961a5.224 5.224 0 0 1-.153-2.688 5.673 5.673 0 0 1 .307-1l2.78-6.665a2.45 2.45 0 0 1 2.269-1.513h5.448a2.46 2.46 0 0 1 2.269 1.513l2.76 6.665a5.334 5.334 0 0 1 .153 3.69 71.864 71.864 0 0 0-7.851-.419h-.133a74.51 74.51 0 0 0-7.851.419zm9.548-16.775H23.79a1.64 1.64 0 0 1-1.636-1.636V8.76h.961a2.451 2.451 0 0 0 4.62 0h.965v.818a1.64 1.64 0 0 1-1.639 1.636zm.818 2.453a.82.82 0 0 1-.818.818H23.79a.818.818 0 1 1 0-1.636h3.271a.82.82 0 0 1 .818.819zm6.828 10L31.927 17a4.078 4.078 0 0 0-2.617-2.351 2.44 2.44 0 0 0-.286-2.453 3.249 3.249 0 0 0 1.308-2.617V7.942a.82.82 0 0 0-.818-.818h-2.453a.82.82 0 0 0-.818.818.818.818 0 1 1-1.636 0 .82.82 0 0 0-.818-.818h-2.453a.82.82 0 0 0-.818.818v1.636a3.249 3.249 0 0 0 1.308 2.617 2.44 2.44 0 0 0-.286 2.453A4.051 4.051 0 0 0 18.924 17l-2.78 6.665a7 7 0 0 0-.286 4.518c-1.3.174-2.6.378-3.884.613a15.535 15.535 0 1 1 26.9.01c-1.288-.235-2.586-.44-3.884-.613a7.026 7.026 0 0 0-.286-4.528zm-18.042 17.57a1.5 1.5 0 0 1 0 2.116l-4.324 4.324v-2.934a.82.82 0 0 0-.818-.818H8.589l2.188-2.188a3.126 3.126 0 0 0 3.772-.5 1.481 1.481 0 0 1 2.116 0zM10.859 37.8a1.585 1.585 0 0 1 .961-.675c.2-.051.4-.1.6-.143l2.3 2.3a3.093 3.093 0 0 0-1.329.787 1.5 1.5 0 0 1-2.116 0l-.225-.225a1.651 1.651 0 0 1-.194-2.044zm14.567 1.216a17.776 17.776 0 0 1-9.507-2.716c.44-.072.869-.133 1.308-.184a17.138 17.138 0 0 0 16.386 0c.44.051.869.112 1.308.184a17.715 17.715 0 0 1-9.5 2.719zm-4.784-3.21c.8-.041 1.6-.061 2.4-.061H27.8c.8 0 1.6.02 2.4.061a15.424 15.424 0 0 1-9.558 0zm21.62 8.116h-2.935a.82.82 0 0 0-.818.818v2.934l-4.324-4.334a1.5 1.5 0 1 1 2.106-2.126l.01.01a3.126 3.126 0 0 0 3.772.5zm-6.133-4.641l2.3-2.3c.2.051.4.092.6.143a1.633 1.633 0 0 1 1.188 1.976 1.6 1.6 0 0 1-.419.746l-.225.225a1.5 1.5 0 0 1-2.116 0 3.2 3.2 0 0 0-1.329-.787zm7.932-3.7l-2.28 2.269a3.377 3.377 0 0 0-.429-.961 3.241 3.241 0 0 0-1.922-1.349 47.931 47.931 0 0 0-11.623-1.431h-4.753a47.931 47.931 0 0 0-11.623 1.431 3.241 3.241 0 0 0-1.922 1.349 3.116 3.116 0 0 0-.429.961l-2.269-2.267a2.528 2.528 0 0 1 1.176-4.242A71.507 71.507 0 0 1 25.354 29.2h.133a71.672 71.672 0 0 1 17.388 2.136 2.531 2.531 0 0 1 1.84 3.067 2.487 2.487 0 0 1-.654 1.176z" transform="translate(-4.425 -1.4)"/>
            </g>
            <path id="Path_351" d="M11.981 24.337l2.606 3.163 1.646-.194 7.922-2.648 7.912 2.642 1.646.194 3.506-.48V16.026L32.313 8.85 29.144 6.3l-3.138-.818h-3.548l-2.678.634a8.075 8.075 0 0 0-1.544.777c-.092.184-3.363 7.176-3.363 7.176z" class="cls-1" transform="translate(1.27 .687)"/>
            <g id="Fill_out_line_1_" transform="translate(11.068 7.605)">
                <path id="Path_352" d="M11.228 19.408l11.715-.47.266 6.512-11.715.47z" class="cls-7" transform="translate(-9.925 -4.658)"/>
                <path id="Path_353" d="M27.583 19.259l-.983.041.266 6.512-5.2.215-.266-6.512-.981.041 3.424-4.048z" class="cls-6" transform="translate(-8.381 -5.234)"/>
                <path id="Path_354" d="M12.409 20.98l1.952-.082.184 4.559-1.952.082z" class="cls-1" transform="translate(-9.726 -4.328)"/>
                <g id="Group_49" transform="translate(5.944 16.08)">
                    <path id="Path_355" d="M15.2 20.868l2.28-.092.082 1.952-2.28.092z" class="cls-1" transform="translate(-15.201 -20.428)"/>
                    <path id="Path_356" d="M18.264 20.745l2.28-.092.082 1.952-2.28.092z" class="cls-1" transform="translate(-14.686 -20.449)"/>
                    <path id="Path_357" d="M22.447 20.58l2.607-.1.082 1.952-2.607.1z" class="cls-1" transform="translate(-13.983 -20.478)"/>
                </g>
                <path id="Path_358" fill="gray" d="M25.537 15.5l-.848 1-.572.675-.583.685-.572.675-.862 1.012-11.715.47.862-1.017.572-.675.583-.685.572-.675.848-1z" transform="translate(-10.066 -5.236)"/>
                <path id="Path_359" d="M23.526 17.45a.651.651 0 0 1 .675.624l.041.981-1.3.051-.041-.981a.65.65 0 0 1 .625-.675z" class="cls-1" transform="translate(-7.963 -4.908)"/>
                <circle id="Ellipse_16" cx="1.625" cy="1.625" r="1.625" fill="#f2e368" transform="translate(12.752 2.361)"/>
                <path id="Path_360" d="M19.805 11.353a.99.99 0 0 0 .8-.44c.133-.164.184-.215.307-.215a.205.205 0 0 1 .133.041 1.877 1.877 0 0 0 .2.838.881.881 0 0 0-.184.143.99.99 0 0 0-.256.879c.02.2.02.286-.072.368s-.153.082-.368.072l-.051.654c.061 0 .133.01.2.01a.9.9 0 0 0 .675-.266.99.99 0 0 0 .256-.879c-.02-.2-.02-.286.072-.368a.245.245 0 0 1 .123-.072 1.886 1.886 0 0 0 .736.45.871.871 0 0 0-.031.235.99.99 0 0 0 .44.8c.164.133.215.184.215.307s-.051.174-.215.307l.419.5a1.024 1.024 0 0 0 .44-.8.99.99 0 0 0-.44-.8c-.164-.133-.215-.184-.215-.307a.205.205 0 0 1 .041-.133 1.877 1.877 0 0 0 .838-.2.881.881 0 0 0 .143.184.99.99 0 0 0 .879.256c.2-.02.286-.02.368.072s.082.153.072.368l.654.051a.95.95 0 0 0-1.135-1.135c-.2.02-.286.02-.368-.072a.245.245 0 0 1-.072-.123 1.886 1.886 0 0 0 .45-.736.871.871 0 0 0 .235.031.99.99 0 0 0 .8-.44c.133-.164.184-.215.307-.215s.174.051.307.215l.5-.419a1.024 1.024 0 0 0-.8-.44.99.99 0 0 0-.8.44c-.133.164-.184.215-.307.215a.205.205 0 0 1-.133-.041 1.877 1.877 0 0 0-.2-.838.881.881 0 0 0 .184-.143.99.99 0 0 0 .256-.879c-.02-.2-.02-.286.072-.368s.153-.082.368-.072l.051-.654a.95.95 0 0 0-1.135 1.135c.02.2.02.286-.072.368a.245.245 0 0 1-.123.072 1.886 1.886 0 0 0-.736-.45.871.871 0 0 0 .031-.235.99.99 0 0 0-.44-.8c-.164-.133-.215-.184-.215-.307s.051-.174.215-.307l-.419-.5a1.024 1.024 0 0 0-.44.8.99.99 0 0 0 .44.8c.164.133.215.184.215.307a.205.205 0 0 1-.041.133 1.877 1.877 0 0 0-.838.2.881.881 0 0 0-.141-.183.99.99 0 0 0-.879-.256c-.2.02-.286.02-.368-.072s-.082-.153-.072-.368l-.654-.051a.95.95 0 0 0 1.135 1.135c.2-.02.286-.02.368.072a.245.245 0 0 1 .072.123 1.886 1.886 0 0 0-.45.736.871.871 0 0 0-.235-.031.99.99 0 0 0-.8.44c-.133.164-.184.215-.307.215s-.174-.051-.307-.215l-.5.419a.99.99 0 0 0 .8.44zm4.5-.654A1.3 1.3 0 1 1 23 9.4a1.3 1.3 0 0 1 1.3 1.3z" transform="translate(-8.617 -6.712)"/>
                <path id="Path_361" d="M29.55 19.081l-3.742-3.761a.309.309 0 0 0-.245-.092l-11.715.47a.306.306 0 0 0-.235.112l-3.424 4.048a.325.325 0 0 0 .041.46.357.357 0 0 0 .225.082l.654-.031.245 6.184a.336.336 0 0 0 .337.317l16.918-.685a.336.336 0 0 0 .317-.337l-.245-6.184.654-.031a.336.336 0 0 0 .317-.337.353.353 0 0 0-.102-.215zm-7.544.194l-1.073.041.572-.675 1.073-.041zm-7.984-2.934L15.1 16.3l-.562.664-1.073.041.02-.031zm.828 1.259l1.073-.041-.583.685-1.073.041zm-1.472.726l-1.073.041.583-.685 1.073-.041zm3.424-.808l1.073-.041-.583.685-1.072.038zm1.952-.082l1.073-.041-.583.685-1.073.041zm1.952-.072l1.073-.041-.583.685-1.073.041zm.562-.675l.562-.664 1.073-.041-.562.664zm-.879.031l-1.073.041.562-.664 1.073-.041zm-1.952.082l-1.073.041.562-.664L19 16.137zm-1.952.082l-1.073.041.562-.664 1.073-.041zM12.806 19l-.572.675-1.073.041.572-.675zm.889-.041l1.073-.041-.572.675-1.073.041zm1.952-.072l1.073-.041-.572.675-1.073.041zm1.952-.082l1.073-.041-.572.675-1.073.041zm1.952-.082l1.073-.041-.572.675-1.072.043zm3.588-.8l-1.073.041.583-.685 1.073-.041zm1.155-1.36l-1.073.041.562-.664 1.073-.041zm-12.531 3.776l11.06-.45.235 5.857-7.81.317-.174-4.232a.336.336 0 0 0-.337-.317l-1.952.082a.336.336 0 0 0-.317.337l.174 4.232-.654.031zm2.74 3.476l-.654.031.031.654.654-.031.061 1.625-1.3.051-.153-3.9 1.3-.051zm13.83-4.795a.336.336 0 0 0-.317.337l.245 6.184-4.559.184-.245-6.184a.336.336 0 0 0-.337-.317l-.235.01 2.719-3.21 2.964 2.985z" transform="translate(-10.112 -5.281)"/>
                <path id="Path_362" d="M15.34 23.194l2.28-.092a.336.336 0 0 0 .317-.337l-.082-1.952a.336.336 0 0 0-.337-.317l-2.28.092a.336.336 0 0 0-.317.337L15 22.877a.317.317 0 0 0 .34.317zm.245-1.963l1.625-.061.051 1.3-1.625.061z" transform="translate(-9.304 -4.396)"/>
                <path id="Path_363" d="M18.4 23.072l2.28-.092a.336.336 0 0 0 .32-.337l-.082-1.952a.336.336 0 0 0-.337-.317l-2.28.092a.336.336 0 0 0-.317.337l.082 1.952a.33.33 0 0 0 .334.317zm.245-1.973l1.625-.061.051 1.3-1.621.062z" transform="translate(-8.79 -4.416)"/>
                <path id="Path_364" d="M22.167 20.638l.082 1.952a.336.336 0 0 0 .337.317l2.607-.1a.336.336 0 0 0 .317-.337l-.082-1.952a.336.336 0 0 0-.337-.317l-2.607.1a.323.323 0 0 0-.317.337zm.664.3l1.952-.082.051 1.3-1.952.082z" transform="translate(-8.087 -4.446)"/>
                <path id="Path_365" d="M22.622 18.191l.041.981a.336.336 0 0 0 .337.317l1.3-.051a.336.336 0 0 0 .317-.337l-.041-.981a.977.977 0 0 0-1.952.072zm1.3-.051l.031.654-.654.031-.031-.654a.323.323 0 0 1 .317-.337.309.309 0 0 1 .336.306z" transform="translate(-8.01 -4.953)"/>
            </g>
            <path id="Path_366" d="M30.284 19.373h-3.005a.117.117 0 0 1-.112-.061.152.152 0 0 1 0-.133 2.188 2.188 0 0 1 3.393-.879h.54v1.073z" class="cls-10" transform="translate(3.82 2.758)"/>
            <path id="Path_367" d="M33.856 18.233l1.421-.981a.146.146 0 0 0 .061-.123.126.126 0 0 0-.072-.112 2.8 2.8 0 0 0-3.823.94v.276h2.412z" class="cls-11" transform="translate(4.541 2.559)"/>
            <path id="Path_368" d="M32.213 18.022a2.749 2.749 0 0 1 3.077 1.124.135.135 0 0 1-.112.215h-3.507v-1.339h.542z" class="cls-10" transform="translate(4.579 2.77)"/>
            <path id="Path_369" fill="#64af6c" d="M31.56 18.256c1.564-2-.031-3.087-.613-3.394a.152.152 0 0 0-.133 0 .128.128 0 0 0-.061.112v3.547h.808z" transform="translate(4.425 2.26)"/>
            <path id="Path_370" d="M30.389 18.578l-2.239-2.136a.128.128 0 0 1-.041-.133.12.12 0 0 1 .1-.092 2.577 2.577 0 0 1 2.978 1.283v1.073h-.8z" class="cls-11" transform="translate(3.98 2.479)"/>
            <path id="Path_371" fill="#cc995e" d="M30.525 18.92h1.339v6.44a.264.264 0 0 1-.266.266h-.808a.264.264 0 0 1-.266-.266z" transform="translate(4.387 2.945)"/>
            <path id="Path_372" fill="#97e69f" d="M32.595 18.573a.808.808 0 1 1-.808-.808.8.8 0 0 1 .808.808z" transform="translate(4.463 2.75)"/>
            <path id="Path_373" fill="#86cc8d" d="M31.676 18.118a.808.808 0 1 1-.808-.808.8.8 0 0 1 .808.808z" transform="translate(4.309 2.674)"/>
            <path id="Path_374" fill="#a8ffb1" d="M31.44 19.037a.808.808 0 1 1-.808-.808.8.8 0 0 1 .808.808z" transform="translate(4.269 2.828)"/>
            <path id="Path_375" d="M36.107 20.4a.382.382 0 0 0 .358-.225.392.392 0 0 0-.041-.419 3.8 3.8 0 0 0-1.124-1.01l1.022-.685a.419.419 0 0 0 .184-.358.4.4 0 0 0-.225-.337 3.354 3.354 0 0 0-3.046-.051 2.092 2.092 0 0 0 0-.8 2.563 2.563 0 0 0-1.38-1.625.424.424 0 0 0-.4.01.4.4 0 0 0-.194.348v1.871a3.122 3.122 0 0 0-2.76-.685.384.384 0 0 0-.307.286.408.408 0 0 0 .112.409l1.257 1.2a2.213 2.213 0 0 0-.777.041 2.841 2.841 0 0 0-1.686 1.45.4.4 0 0 0 .358.593h2.883a1.075 1.075 0 0 0 .654.5v5.408a.545.545 0 0 0 .542.542h.808a.545.545 0 0 0 .542-.542V20.4zm-4.58 3.22h.808v.808h-.808zm0-.532v-.808h.808v.808zm0-1.339V20.9a1.058 1.058 0 0 0 .7-.572l.112.031v1.38h-.808zM31 18.828v-.041a.542.542 0 0 1 1.084 0 .578.578 0 0 1-.082.286A1.1 1.1 0 0 0 31 18.828zm1.6-.031a.553.553 0 0 1 .47.266.521.521 0 0 1 0 .532.541.541 0 0 1-.47.266.514.514 0 0 1-.276-.082 1.887 1.887 0 0 0-.041-.235 1 1 0 0 0 .317-.744zm3.22 1.073h-2.3a1.057 1.057 0 0 0 .082-.91 2.426 2.426 0 0 1 2.219.911zm0-2.116l-1.114.736a2.633 2.633 0 0 0-1.462-.01 1.069 1.069 0 0 0-.388-.194 2.533 2.533 0 0 1 2.965-.531zM32.7 16.63a1.943 1.943 0 0 1-.378 1.452 1.111 1.111 0 0 0-.521-.317v-2.28a1.947 1.947 0 0 1 .899 1.145zm-1.584 1.176a1.076 1.076 0 0 0-.613.685l-1.633-1.564a2.276 2.276 0 0 1 2.249.879zm-3.435 2.065a2.2 2.2 0 0 1 1.227-.981 1.979 1.979 0 0 1 1.513.317 1.072 1.072 0 0 0-.245.675h-2.492zm3.036 0a.542.542 0 1 1 .542.542.552.552 0 0 1-.539-.542zm.808 6.44v-1.339h.808v1.339z" transform="translate(3.803 2.26)"/>
        </g>
    </g>
</svg>
