<svg xmlns="http://www.w3.org/2000/svg" width="42" height="42" viewBox="0 0 42 42">
    <defs>
        <clipPath id="clip-path">
            <path id="Rectangle_10" fill="#222" d="M0 0H42V42H0z" transform="translate(266 1139)"/>
        </clipPath>
        <style>
            .cls-4{fill:#f8d608}.cls-8{fill:#ccd1d9}
        </style>
    </defs>
    <g id="icon-feature-2" clip-path="url(#clip-path)" transform="translate(-266 -1139)">
        <g id="sublease" transform="translate(266 1138.968)">
            <path id="Path_300" fill="#ffc729" d="M14.172 11.47a1.615 1.615 0 0 0 .014.189H1.35L5.4 4.91h16.486l-7.059 4.94a1.535 1.535 0 0 0-.655 1.262zm0 0"/>
            <path id="Path_301" d="M41.166 11.112v.358a1.534 1.534 0 0 1-2.423 1.255l-.277-.2L27.669 4.91l-10.8 7.619-.277.2a1.527 1.527 0 0 1-1.971-.169 1.513 1.513 0 0 1-.439-.9 1.615 1.615 0 0 1-.014-.189v-.358a1.535 1.535 0 0 1 .655-1.262l7.059-4.94 5.787-4.05 12.842 8.99a1.535 1.535 0 0 1 .655 1.262zm0 0" class="cls-4"/>
            <path id="Path_302" fill="#ce334d" d="M16.871 12.53v4.528H5.4l-3.375 3.853v-9.252h12.16a1.513 1.513 0 0 0 .439.9 1.527 1.527 0 0 0 1.971.169zm0 0"/>
            <path id="Path_303" fill="#e15068" d="M38.467 12.53v18.025h-4.05v-8.1a1.354 1.354 0 0 0-1.35-1.35h-4.048a1.354 1.354 0 0 0-1.35 1.35v8.1H20.92v-13.5h-4.049V12.53l10.8-7.619zm0 0"/>
            <path id="Path_304" fill="#f5f5f5" d="M20.92 17.058V34.6h-1.35a2.025 2.025 0 1 0 0 4.049h1.35v2.7H.675v-18.9H5.4v-5.4zm0 0"/>
            <path id="Path_305" d="M5.4 17.058v5.4H.675l1.35-1.545zm0 0" class="cls-8"/>
            <path id="Path_306" d="M40.491 36.629l-4.049 2.025V34.6zm0 0" class="cls-8"/>
            <path id="Path_307" d="M22.945 34.6h13.5v4.049h-13.5zm0 0" class="cls-4"/>
            <path id="Path_308" d="M22.945 34.6v4.049h-3.374a2.025 2.025 0 0 1 0-4.049zm0 0" class="cls-8"/>
            <path id="Path_309" fill="#5cd6b3" d="M11.925 25.156h2.247v8.1H3.374v-8.1zm0 0"/>
            <path id="Path_310" d="M22.945 12.334h9.448v2.7h-9.448zm0 0" class="cls-4"/>
            <path id="Path_311" d="M27.669 30.555v-8.1a1.354 1.354 0 0 1 1.35-1.35h4.049a1.354 1.354 0 0 1 1.35 1.35v8.1zm0 0" class="cls-4"/>
            <path id="Path_312" d="M42 36.629l-5.4-2.7h-15v-2.7h17.541V13.623a2.188 2.188 0 0 0 2.7-2.151v-.362A2.214 2.214 0 0 0 40.9 9.3L27.669.038l-6 4.2H5.017l-4.859 8.1H1.35v8.322L0 22.2v19.827h21.6v-2.7h15zm-18.38-1.35h12.147v2.7H23.62zm-1.35 2.7h-2.7a1.35 1.35 0 1 1 0-2.7h2.7zm14.847-.417V35.7l1.865.933zm-3.374-7.682h-5.4v-7.423a.675.675 0 0 1 .675-.675h4.049a.675.675 0 0 1 .675.675zm1.35 0v-7.423a2.027 2.027 0 0 0-2.025-2.025h-4.049a2.027 2.027 0 0 0-2.025 2.025v7.423H21.6v-13.5h-4.054v-3.5l10.123-7.143 10.123 7.146v17zm5.03-19.48a.86.86 0 0 1 .368.706v.362a.862.862 0 0 1-1.359.7L27.669 4.085l-11.462 8.091a.863.863 0 0 1-1.36-.7v-.366a.86.86 0 0 1 .368-.706l12.454-8.719zM5.781 5.585h13.962L14.441 9.3a2.206 2.206 0 0 0-.929 1.686H2.542zM2.7 12.334h10.972a2.215 2.215 0 0 0 2.037 1.35 2.177 2.177 0 0 0 .488-.061v2.76H5.092L2.7 19.118zm2.025 6.52v2.927H2.162zm15.521 21.824H1.35V23.131h4.724v-5.4h14.172v16.2h-.675a2.7 2.7 0 1 0 0 5.4h.675zm0 0"/>
            <path id="Path_313" d="M14.847 24.481h-1.484l1.327-1.592-1.037-.864-2.047 2.456H2.7v9.448h12.147zm-1.35 8.1H4.049v-6.75h6.432l-3.1 3.725-1.5-1.5-.954.954 2.547 2.547 4.771-5.723H13.5zm0 0"/>
            <path id="Path_314" d="M2.7 37.978h12.822v1.35H2.7zm0 0"/>
            <path id="Path_315" d="M2.7 35.279h12.822v1.35H2.7zm0 0"/>
            <path id="Path_316" d="M7.423 19.082H18.9v1.35H7.423zm0 0"/>
            <path id="Path_317" d="M29.693 24.481h1.35v1.35h-1.35zm0 0"/>
            <path id="Path_318" d="M22.27 15.708h10.8v-4.049h-10.8zm1.35-2.7h8.1v1.35h-8.1zm0 0"/>
        </g>
    </g>
</svg>
