<svg xmlns="http://www.w3.org/2000/svg" width="42" height="42" viewBox="0 0 42 42">
    <defs>
        <clipPath id="clip-path">
            <path id="Rectangle_15" fill="#222" d="M0 0H42V42H0z" transform="translate(266 1202)"/>
        </clipPath>
        <style>
            .cls-5{fill:#aab2bd}.cls-6{fill:#e15068}
        </style>
    </defs>
    <g id="icon-feature-8" clip-path="url(#clip-path)" transform="translate(-266 -1202)">
        <g id="dasdaasd" transform="translate(266.003 1202.002)">
            <path id="Path_391" fill="#f8d608" d="M37.428 1.881v40.17H1.532V1.881h13.957l-1.175 2.9-.386.954 2.915 2.748s-.44 2.376-.469 2.478A14.111 14.111 0 0 0 18.183 12s1.609-3.854 1.725-3.954S21.8 6.61 21.8 6.61V3.056l-.415-1.176z" transform="translate(-1.531 -1.408)"/>
            <path id="Path_392" fill="#5cd6b3" d="M34.666 4.782v8.292H4.928V4.782h9.386l-.386.954 2.915 2.748s-.44 2.376-.469 2.478A14.111 14.111 0 0 0 18.183 12s1.609-3.854 1.725-3.954S21.8 6.607 21.8 6.607V4.782z" transform="translate(-1.531 -1.408)"/>
            <path id="Path_393" d="M43.525 30.069a2.123 2.123 0 0 0-.4-1.393c-.112-.145-.079-.235.016-.363A2.14 2.14 0 0 0 43.525 27c-.009-1.2 0-2.4 0-3.6a3.652 3.652 0 0 0-.036-.673 2.047 2.047 0 0 0-2.256-1.665c-.319 0-.456-.064-.422-.411a8.687 8.687 0 0 0 .005-1.016 3.349 3.349 0 0 0-2.3-3.129.493.493 0 0 1-.415-.578c.012-4.682 0-9.365.016-14.048 0-.352-.053-.473-.449-.473q-8.484.023-16.968.009h-.44c.052.176.088.309.133.44.392 1.176.766 2.358 1.186 3.52.134.369.039.511-.287.657-.591.264-1.158.583-1.745.858a.66.66 0 0 0-.382.459c-.255.893-.513 1.787-.792 2.673-.112.358-.1.915-.389 1.016-.269.093-.681-.25-1.038-.375-.224-.081-.224-.181-.127-.369.356-.689.69-1.389 1.05-2.074.116-.221.088-.334-.133-.463-.918-.526-1.813-1.092-2.736-1.616-.3-.176-.384-.3-.2-.642.632-1.2 1.219-2.414 1.821-3.625a.79.79 0 0 0 .159-.458h-.37c-4.81 0-9.619.005-14.433-.011-.394 0-.449.123-.449.473q.013 20.543 0 41.087c0 .352.081.44.44.44q17.625-.016 35.247-.011a1.694 1.694 0 0 0 1.829-1.259c.512-1.357 1.009-2.719 1.533-4.072a3.484 3.484 0 0 0 .242-1.312c-.012-2.4-.007-4.8 0-7.193 0-.126-.088-.291.1-.372a.884.884 0 0 1 1.252.766c.008.311 0 .62 0 .931 0 1.038 0 1.026 1.046 1.011.282 0 .321-.111.314-.352-.018-.487-.02-.981-.006-1.474zM39.45 19.6c.028 1.07 0 2.139.014 3.209 0 .229-.078.285-.292.281-.576-.012-1.155 0-1.731 0s-1.155-.008-1.731 0c-.226.006-.322-.043-.319-.3.014-1.056-.011-2.112.012-3.168a2.025 2.025 0 0 1 4.047-.022zm-3.743 22.438h-3.3q-14.516 0-29.031.005c-.365 0-.495-.063-.495-.471q.019-19.213.013-38.426c0-.223-.025-.39.312-.389 3.752.013 7.5.008 11.256.009.042 0 .088.011.186.025-.2.411-.4.768-.561 1.144-.1.235-.288.187-.463.187H5.075c-.827 0-.827 0-.827.839 0 2.738.007 5.474-.009 8.21 0 .352.088.44.44.44q4.656-.021 9.31 0c.321 0 .432-.067.426-.412-.022-.949-.005-.95-.938-.95-2.482 0-4.964-.008-7.448.009-.358 0-.44-.1-.44-.44.018-1.989.01-3.978.01-5.967 0-.2-.048-.378.28-.377 2.427.015 4.854.01 7.279.011a.341.341 0 0 1 .088.032 1.665 1.665 0 0 1-.264.606c-.124.218-.088.331.135.462.926.536 1.835 1.1 2.763 1.64.269.155.352.278.182.582-.368.664-.667 1.368-1.038 2.03-.2.352-.1.451.235.587 1.432.591 2.846 1.225 4.278 1.817a.836.836 0 0 1 .539.624c.331 1.223.691 2.44 1.028 3.66.07.25.152.325.433.244.976-.285.977-.271.7-1.241-.357-1.245-.715-2.49-1.056-3.739a.651.651 0 0 0-.44-.505c-.41-.149-.8-.346-1.207-.507-.181-.072-.228-.151-.166-.347q.5-1.617.962-3.24a.54.54 0 0 1 .34-.341c.782-.388 1.554-.792 2.348-1.162.305-.14.359-.29.223-.576a5.353 5.353 0 0 1-.207-.63h2.154c2.807 0 5.614.007 8.421-.008.342 0 .451.068.448.432q-.031 2.983 0 5.967c0 .332-.1.386-.4.386-3.33-.011-6.659 0-9.988-.016-.378 0-.471.1-.459.464.027.9.008.9.9.9h10.834c.346 0 .48-.048.476-.447q-.03-4.317 0-8.633c0-.338-.094-.415-.421-.414-3.992.011-7.984 0-11.976.016-.341 0-.516-.079-.581-.422-.058-.3-.362-.671-.224-.862.162-.226.6-.075.913-.076 4.4-.006 8.8 0 13.2-.012.352 0 .44.088.44.44q-.02 6.39 0 12.781c0 .314-.109.419-.389.51a3.315 3.315 0 0 0-2.32 3.113q-.016 8.8-.009 17.6a1.486 1.486 0 0 0 .119.528l1.437 3.838a.869.869 0 0 1 .1.471zm3.344-3.776c-.44 1.154-.868 2.313-1.3 3.469-.058.154-.143.282-.327.282s-.264-.13-.325-.282c-.432-1.158-.86-2.317-1.3-3.469-.088-.228-.053-.3.194-.289.492.012.985 0 1.477 0 .463 0 .928.01 1.391 0 .254 0 .279.075.194.3zm.408-2c0 .264-.052.366-.342.362q-1.691-.024-3.383 0c-.286.005-.348-.088-.346-.358.01-1.917.005-3.834.005-5.749 0-1.9.005-3.805-.006-5.708 0-.284.055-.389.365-.384q1.672.027 3.339 0c.305-.006.369.088.369.379q-.009 5.737 0 11.466zm2.708-9.334a.877.877 0 0 1-1.219.894c-.192-.056-.129-.194-.129-.3-.005-.815 0-1.632 0-2.447 0-.792.009-1.576-.006-2.363 0-.242.073-.305.31-.309.84-.011 1.05.183 1.05 1.025l-.006 3.502z" transform="translate(-1.531 -1.408)"/>
            <path id="Path_394" d="M39.054 38.269c-.44 1.154-.868 2.313-1.3 3.469-.058.154-.143.282-.327.282s-.264-.13-.325-.282c-.432-1.158-.86-2.317-1.3-3.469-.088-.228-.053-.3.194-.289.492.012.985 0 1.477 0 .463 0 .928.01 1.391 0 .25-.008.275.067.19.289z" class="cls-5" transform="translate(-1.531 -1.408)"/>
            <path id="Path_395" d="M39.462 36.272c0 .264-.052.366-.342.362q-1.691-.024-3.383 0c-.286.005-.348-.088-.346-.358.01-1.917.005-3.834.005-5.749 0-1.9.005-3.805-.006-5.708 0-.284.055-.389.365-.384q1.672.027 3.339 0c.305-.006.369.088.369.379q-.012 5.728-.001 11.458z" class="cls-6" transform="translate(-1.531 -1.408)"/>
            <path id="Path_396" d="M39.464 22.809c0 .229-.078.285-.292.281-.576-.012-1.155 0-1.731 0s-1.155-.008-1.731 0c-.226.006-.322-.043-.319-.3.014-1.056-.011-2.112.012-3.168a2.025 2.025 0 0 1 4.047-.022c.029 1.073.002 2.137.014 3.209z" class="cls-5" transform="translate(-1.531 -1.408)"/>
            <path id="Path_397" d="M25.844 30.01a2.381 2.381 0 0 0-1.2-1.408q-4.307-2.64-8.609-5.285a1.723 1.723 0 0 0-1.9 0Q9.754 26 5.387 28.7a3.381 3.381 0 0 0-.48.345 2.014 2.014 0 0 0-.462 2.36 1.968 1.968 0 0 0 2.12 1.13c.4-.088.4.062.4.359-.008 2.425.005 4.85-.014 7.275 0 .4.067.543.516.537 2.537-.026 5.076-.012 7.613-.012 2.565 0 5.133-.007 7.7.009.352 0 .444-.081.44-.44-.017-2.481-.006-4.963-.012-7.444 0-.264.027-.352.341-.294a2.017 2.017 0 0 0 2.295-2.515zm-8.394 9.329c-.8-.019-1.605-.007-2.409-.007-.792 0-1.578-.011-2.366.005-.246 0-.307-.076-.305-.311q.016-1.713 0-3.424c0-.247.049-.341.322-.338q2.388.019 4.776 0c.264 0 .33.08.328.334q-.018 1.691 0 3.381c0 .271-.06.372-.346.364zm4.406-.3c0 .253-.088.3-.318.3-.691-.012-1.383-.018-2.073 0-.27.008-.328-.084-.327-.336.011-1.567 0-3.132.013-4.7 0-.313-.069-.407-.392-.4-1.227.019-2.454.008-3.681.008s-2.426.016-3.639-.009c-.366-.008-.44.108-.431.449.018 1.537 0 3.074.017 4.612 0 .3-.077.383-.375.374-.676-.023-1.354-.016-2.03 0-.233 0-.316-.055-.316-.3q.014-3.555 0-7.109a.412.412 0 0 1 .231-.4q3.155-1.93 6.3-3.878a.4.4 0 0 1 .495 0q3.144 1.948 6.3 3.88a.41.41 0 0 1 .229.4q-.011 3.554 0 7.107zm2.621-8.2c-.208.391-.624.465-1.09.176q-2.124-1.3-4.245-2.612c-1.232-.761-2.475-1.514-3.7-2.288a.584.584 0 0 0-.716 0q-3.915 2.425-7.842 4.829a1.128 1.128 0 0 1-.645.249.659.659 0 0 1-.61-.466.634.634 0 0 1 .295-.767c.463-.3.935-.578 1.4-.867q3.635-2.235 7.264-4.478a.815.815 0 0 1 .968 0q4.239 2.625 8.487 5.232c.489.3.626.627.429 1z" transform="translate(-1.531 -1.408)"/>
            <path id="Path_398" d="M17.8 38.987c0 .264-.06.365-.346.357-.8-.019-1.605-.007-2.409-.007-.792 0-1.578-.011-2.366.005-.246 0-.307-.076-.305-.311q.016-1.713 0-3.424c0-.247.049-.341.322-.338q2.388.019 4.776 0c.264 0 .33.08.328.334q-.023 1.697 0 3.384z" class="cls-5" transform="translate(-1.531 -1.408)"/>
            <path id="Path_399" fill="#e6e9ed" d="M21.856 39.04c0 .253-.088.3-.318.3-.691-.012-1.383-.018-2.073 0-.27.008-.328-.084-.327-.336.011-1.567 0-3.132.013-4.7 0-.313-.069-.407-.392-.4-1.227.019-2.454.008-3.681.008s-2.426.016-3.639-.009c-.366-.008-.44.108-.431.449.018 1.537 0 3.074.017 4.612 0 .3-.077.383-.375.374-.676-.023-1.354-.016-2.03 0-.233 0-.316-.055-.316-.3q.014-3.555 0-7.109a.412.412 0 0 1 .231-.4q3.155-1.93 6.3-3.878a.4.4 0 0 1 .495 0q3.144 1.948 6.3 3.88a.41.41 0 0 1 .229.4q-.011 3.556-.003 7.109z" transform="translate(-1.531 -1.408)"/>
            <path id="Path_400" d="M24.477 30.843c-.208.391-.624.465-1.09.176q-2.124-1.3-4.245-2.612c-1.232-.761-2.475-1.514-3.7-2.288a.584.584 0 0 0-.716 0q-3.915 2.425-7.842 4.829a1.128 1.128 0 0 1-.645.249.659.659 0 0 1-.61-.471.634.634 0 0 1 .295-.767c.463-.3.935-.578 1.4-.867q3.635-2.235 7.264-4.478a.815.815 0 0 1 .968 0q4.239 2.625 8.487 5.232c.495.297.631.629.434.997z" class="cls-6" transform="translate(-1.531 -1.408)"/>
            <path id="Path_401" d="M11.741 17.669c2.341 0 4.682.008 7.023-.008.326 0 .4.088.392.4-.013.964 0 .964-.968.964-4.5 0-9-.007-13.5.008-.385 0-.466-.108-.457-.468.022-.9 0-.9.9-.9h6.6z" transform="translate(-1.531 -1.408)"/>
            <path id="Path_402" d="M11.676 21.732c-2.341 0-4.681-.008-7.021.008-.339 0-.42-.1-.415-.421.018-.942 0-.942.943-.942q6.767 0 13.534-.009c.357 0 .444.1.436.44-.023.919-.005.92-.922.92z" transform="translate(-1.531 -1.408)"/>
            <path id="Path_403" d="M13.094 14.961c1.889 0 3.779.009 5.668-.008.325 0 .4.088.392.4-.013.96 0 .961-.968.961-3.6 0-7.19-.008-10.785.01-.386 0-.465-.11-.456-.468.025-.9.009-.9.906-.9z" transform="translate(-1.531 -1.408)"/>
            <path id="Path_404" d="M29.282 16.315c-1.9 0-3.806-.007-5.71.007-.3 0-.374-.088-.372-.378.008-.984 0-.984.983-.984 3.594 0 7.189.005 10.784-.009.352 0 .446.088.44.44-.023.921-.005.921-.921.921z" transform="translate(-1.531 -1.408)"/>
            <path id="Path_405" d="M32.7 40.034c-.055.209.113.528-.088.62-.233.113-.515-.059-.749-.192a3.318 3.318 0 0 1-.852-.872c-.28-.339-.421-.337-.7 0-.145.176-.275.36-.428.528a1.636 1.636 0 0 1-2.5.008c-.153-.164-.282-.352-.428-.524-.294-.352-.44-.352-.729.016a2.4 2.4 0 0 1-1.331 1.048c-.256.057-.3-.011-.352-.274a1.966 1.966 0 0 1 .75-1.783 1.656 1.656 0 0 1 2.586-.005c.114.126.216.264.323.393.372.461.479.459.859-.019.106-.133.208-.264.321-.393a1.645 1.645 0 0 1 2.552.013 7.22 7.22 0 0 0 .67.756c.196.154.046.446.096.68z" transform="translate(-1.531 -1.408)"/>
            <path id="Path_406" d="M27.95 19.023c-1.465 0-2.931-.007-4.4.006-.279 0-.352-.078-.352-.352 0-1.008-.011-1.008 1-1.008 2.692 0 5.384.007 8.076-.008.334 0 .422.088.416.419-.018.943 0 .943-.941.943z" transform="translate(-1.531 -1.408)"/>
            <path id="Path_407" d="M27.926 21.737c-1.452 0-2.9-.009-4.356.008-.3 0-.374-.088-.371-.379.008-.986 0-.987.986-.987 2.692 0 5.385.007 8.078-.009.357 0 .445.094.435.44-.027.918-.01.92-.921.921h-3.851z" transform="translate(-1.531 -1.408)"/>
            <path id="Path_408" d="M27.957 24.441c-1.466 0-2.932-.007-4.4.005-.268 0-.358-.062-.359-.347 0-1.013-.012-1.013 1-1.013 2.692 0 5.384.005 8.075-.007.322 0 .431.068.424.411-.021.95 0 .95-.935.95z" transform="translate(-1.531 -1.408)"/>
            <path id="Path_409" d="M28.669 33.92c1.213 0 2.425.008 3.637-.005.275 0 .392.041.391.358 0 1.008.013 1-1.008 1-2.242 0-4.483-.008-6.724.009-.342 0-.419-.1-.412-.423.022-.937.008-.939.943-.942l3.173.003z" transform="translate(-1.531 -1.408)"/>
            <path id="Path_410" d="M29.963 27.149c-.792 0-1.579-.011-2.367.006-.264.005-.33-.07-.333-.33-.009-1.031-.018-1.031 1.019-1.031 1.353 0 2.706.008 4.059-.006.275 0 .352.076.352.352 0 1.009.012 1.009-1 1.009z" transform="translate(-1.531 -1.408)"/>
            <path id="Path_411" d="M29.957 29.858c-.792 0-1.578-.012-2.366.006-.269.006-.324-.084-.327-.335-.009-1.025-.018-1.025.983-1.025 1.353 0 2.705.005 4.057-.008.274 0 .394.04.392.358-.006 1 .009 1-1.006 1z" transform="translate(-1.531 -1.408)"/>
            <path id="Path_412" d="M29.936 32.568c-.775 0-1.551-.012-2.325.006-.282.007-.352-.088-.348-.356 0-1-.006-1 1-1.007 1.353 0 2.705.01 4.058-.007.3 0 .372.088.371.378-.008.983 0 .983-.984.983h-1.772z" transform="translate(-1.531 -1.408)"/>
            <path id="Path_413" d="M5.6 15.681c-.088.216.251.672-.4.647-.953-.037-.954-.006-.957-.422 0-.945 0-.945.421-.945.936 0 .936 0 .936.72z" transform="translate(-1.531 -1.408)"/>
            <path id="Path_414" d="M21.139 21.732c-.64 0-.64 0-.64-.642 0-.713 0-.713.694-.713a2.059 2.059 0 0 0 .295 0c.3-.046.413.074.367.37a1.725 1.725 0 0 0 0 .253c-.001.732-.001.732-.716.732z" transform="translate(-1.531 -1.408)"/>
            <path id="Path_415" d="M17.112 30.538a2.03 2.03 0 1 1-2.012-2.031 2.03 2.03 0 0 1 2.012 2.031zm-2.024-.672a.673.673 0 1 0 .665.672.686.686 0 0 0-.668-.675z" transform="translate(-1.531 -1.408)"/>
            <path id="Path_416" fill="#2e7dbf" d="M15.085 29.863a.673.673 0 1 0 .668.675.686.686 0 0 0-.668-.675z" transform="translate(-1.531 -1.408)"/>
        </g>
    </g>
</svg>
