<svg xmlns="http://www.w3.org/2000/svg" width="42" height="42" viewBox="0 0 42 42">
    <defs>
        <clipPath id="clip-path">
            <path id="Rectangle_8" fill="#222" d="M0 0H42V42H0z" transform="translate(257 1139)"/>
        </clipPath>
        <style>
            .cls-3{fill:#c4702a}.cls-4{fill:#f8d608}.cls-5{fill:#e15068}.cls-6{fill:#fad296}
        </style>
    </defs>
    <g id="icon-feature-1" clip-path="url(#clip-path)" transform="translate(-257 -1139)">
        <g id="wooden-house" transform="translate(257 1139)">
            <path id="Rectangle_16" d="M0 0H31.336V27.891H0z" class="cls-3" transform="translate(5.25 13.289)"/>
            <path id="Path_292" d="M21 4.1L2.953 13.289h36.094z" class="cls-3"/>
            <path id="Rectangle_17" d="M0 0H6.562V9.844H0z" class="cls-4" transform="translate(12.797 13.289)"/>
            <path id="Rectangle_18" d="M0 0H6.562V9.844H0z" class="cls-4" transform="translate(22.641 13.289)"/>
            <path id="Rectangle_19" d="M0 0H7.383V10.664H0z" class="cls-5" transform="translate(17.309 30.516)"/>
            <path id="Path_293" d="M41.18 17.227L21 4.654.82 17.227V12.97L20.258 1a1.619 1.619 0 0 1 1.483 0L41.18 12.97z" class="cls-5"/>
            <circle id="Ellipse_3" cx="2.871" cy="2.871" r="2.871" class="cls-6" transform="translate(18.129 .82)"/>
            <circle id="Ellipse_4" cx="3.281" cy="3.281" r="3.281" class="cls-6" transform="translate(2.051 34.617)"/>
            <circle id="Ellipse_5" cx="3.281" cy="3.281" r="3.281" class="cls-6" transform="translate(2.051 28.055)"/>
            <circle id="Ellipse_6" cx="3.281" cy="3.281" r="3.281" class="cls-6" transform="translate(2.051 21.492)"/>
            <circle id="Ellipse_7" cx="3.281" cy="3.281" r="3.281" class="cls-6" transform="translate(2.051 14.93)"/>
            <circle id="Ellipse_8" cx="3.281" cy="3.281" r="3.281" class="cls-6" transform="translate(33.305 34.617)"/>
            <circle id="Ellipse_9" cx="3.281" cy="3.281" r="3.281" class="cls-6" transform="translate(33.305 28.055)"/>
            <circle id="Ellipse_10" cx="3.281" cy="3.281" r="3.281" class="cls-6" transform="translate(33.305 21.492)"/>
            <circle id="Ellipse_11" cx="3.281" cy="3.281" r="3.281" class="cls-6" transform="translate(33.305 14.93)"/>
            <g id="Group_33">
                <path id="Path_294" d="M16.078 26.25H12.8a.82.82 0 0 0 0 1.641h3.281a.82.82 0 0 0 0-1.641z"/>
                <path id="Path_295" d="M29.2 26.25h-9.841a.82.82 0 0 0 0 1.641H29.2a.82.82 0 1 0 0-1.641z"/>
                <path id="Path_296" d="M11.156 35.437h2.625a.82.82 0 1 0 0-1.641h-2.625a.82.82 0 1 0 0 1.641z"/>
                <path id="Path_297" d="M21.41 35.027h-.82a.82.82 0 1 0 0 1.641h.82a.82.82 0 1 0 0-1.641z"/>
                <path id="Path_298" d="M21 10.828a.82.82 0 1 0-.82-.82.822.822 0 0 0 .82.82z"/>
                <path id="Path_299" d="M41.61 12.271L23.827 1.321a3.685 3.685 0 0 0-5.653 0L.39 12.271a.82.82 0 0 0-.39.7v4.257a.819.819 0 0 0 1.241.7c-.006.093-.011.187-.011.281a4.1 4.1 0 0 0 1.643 3.281 4.1 4.1 0 0 0 0 6.562 4.1 4.1 0 0 0 0 6.562A4.1 4.1 0 0 0 5.171 42h31.415a4.1 4.1 0 0 0 2.458-7.383 4.1 4.1 0 0 0 0-6.562 4.1 4.1 0 0 0 0-6.562 4.1 4.1 0 0 0 1.643-3.281c0-.113-.006-.224-.015-.334l.074.046a.82.82 0 0 0 1.254-.7V12.97a.821.821 0 0 0-.39-.699zM24.689 3.779l15.67 9.649v2.321L24.133 5.64a3.667 3.667 0 0 0 .556-1.861zm7.878 33.3h-7.055v-1.642h1.8a.82.82 0 1 0 0-1.641h-1.8v-1.64h7.055a4.109 4.109 0 0 0 1.561 2.461 4.109 4.109 0 0 0-1.561 2.461zm.741 3.281h-7.8v-1.641h7.055a4.085 4.085 0 0 0 .745 1.64zm-.741-9.844h-7.055a.82.82 0 0 0-.82-.82h-7.383a.82.82 0 0 0-.82.82H9.351a4.109 4.109 0 0 0-1.561-2.461 4.1 4.1 0 0 0 1.561-4.1h23.216a4.1 4.1 0 0 0 1.561 4.1 4.109 4.109 0 0 0-1.561 2.461zm-23.216 1.64h7.137v4.922H9.351a4.109 4.109 0 0 0-1.561-2.461 4.109 4.109 0 0 0 1.561-2.461zm0 6.562h7.137v1.641H8.611a4.085 4.085 0 0 0 .74-1.64zM7.375 14.109h4.6v3.281H9.351a4.116 4.116 0 0 0-2.467-2.975zm21.008 8.2h-4.922v-8.2h4.922zm-6.563-4.918h-1.64v-3.282h1.64zm-1.64 1.64h1.64v3.281h-1.64zm-1.641 3.281h-4.922v-8.2h4.922zm-9.188-3.281h2.625v3.281H8.611a4.137 4.137 0 0 0-.821-.82 4.109 4.109 0 0 0 1.561-2.461zm23.956 3.281h-3.284v-3.281h2.544a4.109 4.109 0 0 0 1.561 2.461 4.138 4.138 0 0 0-.821.82zm-.74-4.922h-2.544v-3.281h4.6l.459.286a4.115 4.115 0 0 0-2.515 2.996zM21 1.641a2.051 2.051 0 1 1-2.051 2.051A2.053 2.053 0 0 1 21 1.641zM19.059 6.83a3.681 3.681 0 0 0 3.881 0l3.784 2.358h-2.443a.82.82 0 1 0 0 1.641h5.077l2.633 1.641H10.008l2.633-1.641h5.077a.82.82 0 1 0 0-1.641h-2.443zM1.64 13.43l15.67-9.649a3.667 3.667 0 0 0 .556 1.861L1.641 15.749zm1.23 4.783a2.453 2.453 0 0 1 .739-1.756l.909-.566a2.461 2.461 0 1 1-1.648 2.322zm0 6.562a2.461 2.461 0 1 1 2.461 2.461 2.464 2.464 0 0 1-2.46-2.463zm0 6.562A2.461 2.461 0 1 1 5.332 33.8a2.464 2.464 0 0 1-2.461-2.464zm0 6.562a2.461 2.461 0 1 1 2.461 2.461 2.464 2.464 0 0 1-2.46-2.46zm15.258 2.461v-9.024h5.742v9.023zm20.919-2.46a2.461 2.461 0 1 1-2.461-2.461 2.464 2.464 0 0 1 2.461 2.461zm0-6.562a2.461 2.461 0 1 1-2.461-2.461 2.464 2.464 0 0 1 2.461 2.459zm0-6.562a2.461 2.461 0 1 1-2.461-2.461 2.464 2.464 0 0 1 2.461 2.458zm0-6.562a2.462 2.462 0 1 1-1.407-2.224l.469.292a2.457 2.457 0 0 1 .938 1.929z"/>
            </g>
        </g>
    </g>
</svg>
