<svg xmlns="http://www.w3.org/2000/svg" width="42" height="42" viewBox="0 0 42 42">
    <defs>
        <clipPath id="clip-path">
            <path id="Rectangle_12" d="M0 0H42V42H0z" transform="translate(257 1202)"/>
        </clipPath>
        <style>
            .cls-2{fill:#e15068}.cls-3{fill:#e6e9ed}.cls-4{fill:#f0d0b4}
        </style>
    </defs>
    <g id="icon-feature-5" clip-path="url(#clip-path)" transform="translate(-257 -1202)">
        <g id="installment" transform="translate(256.323 1201.323)">
            <g id="Group_46">
                <g id="Group_34">
                    <path id="Path_319" d="M6.774 4.065v13.548H4.065v2.71h-2.71V4.065z" class="cls-2"/>
                </g>
                <g id="Group_35">
                    <path id="Path_320" d="M9.484 4.065h1.355a1.359 1.359 0 0 1 1.355 1.355v12.193h-2.71z" class="cls-2"/>
                </g>
                <g id="Group_36">
                    <path id="Path_321" d="M6.774 4.065h2.71v13.548h-2.71z" class="cls-3"/>
                </g>
                <g id="Group_37">
                    <path id="Path_322" d="M29.806 5.419h7.452a2.032 2.032 0 0 1 0 4.065H27.1v8.129H12.2V5.419l3.218-2.757a5.4 5.4 0 0 1 3.529-1.307h12.214a1.359 1.359 0 0 1 1.355 1.355 2.706 2.706 0 0 1-2.71 2.71z" class="cls-4"/>
                </g>
                <g id="Group_38">
                    <path id="Path_323" d="M39.968 9.484a2.032 2.032 0 0 1 0 4.065H27.1V9.484h12.868z" class="cls-4"/>
                </g>
                <g id="Group_39">
                    <path id="Path_324" d="M37.258 13.548a2.032 2.032 0 0 1 0 4.065H27.1v-4.065z" class="cls-4"/>
                </g>
                <g id="Group_40">
                    <path id="Path_325" fill="#f8d608" d="M37.258 17.613H4.065v17.613h33.87V17.613z"/>
                </g>
                <g id="Group_41">
                    <path id="Path_326" d="M31.161 20.323h4.065v2.71h-4.065z" class="cls-2"/>
                </g>
                <g id="Group_42">
                    <path id="Path_327" d="M24.387 20.323h4.065v2.71h-4.065z" class="cls-2"/>
                </g>
                <g id="Group_43">
                    <path id="Path_328" d="M17.613 20.323h4.065v2.71h-4.065z" class="cls-2"/>
                </g>
                <g id="Group_44">
                    <path id="Path_329" fill="#5cd6b3" d="M6.774 20.323H14.9V27.1H6.774z"/>
                </g>
                <g id="Group_45">
                    <path id="Path_330" d="M42 34.548a7.45 7.45 0 0 1-14.869.677c-.02-.224-.034-.447-.034-.677a7.452 7.452 0 1 1 14.9 0z" class="cls-3"/>
                </g>
            </g>
            <g id="Group_47">
                <path id="Path_331" d="M33.622 35.238h7.3v1.355h-7.3z" transform="rotate(-68.23 37.233 35.9)"/>
                <circle id="Ellipse_12" cx=".677" cy=".677" r=".677" transform="translate(38.613 35.903)"/>
                <circle id="Ellipse_13" cx=".677" cy=".677" r=".677" transform="translate(34.548 33.871)"/>
                <path id="Path_332" d="M31.161 31.161a2.035 2.035 0 0 0-2.032 2.032V35.9a2.032 2.032 0 1 0 4.065 0v-2.71a2.035 2.035 0 0 0-2.033-2.029zm.677 4.742a.677.677 0 1 1-1.355 0v-2.71a.677.677 0 1 1 1.355 0z"/>
                <path id="Path_333" d="M38.613 27.519v-9.605a2.666 2.666 0 0 0 .978-3.688h.377a2.71 2.71 0 1 0 0-5.419h-.377a2.682 2.682 0 0 0 .377-1.355 2.712 2.712 0 0 0-2.71-2.71H32.5a3.352 3.352 0 0 0 .7-2.032A2.035 2.035 0 0 0 31.161.677H18.94a6.1 6.1 0 0 0-3.968 1.468L12.5 4.261a2.029 2.029 0 0 0-1.666-.874H.677V21h2.71v14.9h23.155a8.124 8.124 0 1 0 12.071-8.384zm0-11.939a1.356 1.356 0 0 1-1.355 1.355h-9.484v-2.71h9.484a1.356 1.356 0 0 1 1.355 1.356zm2.71-4.065a1.356 1.356 0 0 1-1.355 1.355H27.774v-2.71h12.194a1.356 1.356 0 0 1 1.355 1.356zM15.854 3.174a4.748 4.748 0 0 1 3.086-1.142h12.221a.678.678 0 0 1 .677.677 2.035 2.035 0 0 1-2.032 2.032h-5.022l-1.437 1.438a2.044 2.044 0 0 1-1.437.6h-1.587v1.35h1.587a3.366 3.366 0 0 0 2.39-.992L25.345 6.1h11.913a1.355 1.355 0 0 1 0 2.71h-9.511a2.957 2.957 0 0 0-.847-1.837l-.959.958a1.625 1.625 0 0 1 .479 1.156v7.849H12.871V5.731zm-4.338 2.245v11.516h-1.355V7.452H8.806v9.484H7.452V4.742h1.354V6.1h1.355V4.742h.677a.678.678 0 0 1 .678.677zM2.032 19.645V4.742H6.1v12.193H3.387v2.71zm2.71 14.9V18.29h32.516v8.6a8.107 8.107 0 0 0-10.839 7.655zm29.806 6.774a6.774 6.774 0 1 1 6.774-6.774 6.782 6.782 0 0 1-6.774 6.778z"/>
                <path id="Path_334" d="M15.581 19.645H6.1v8.129h9.484zm-1.355 6.774H7.452V21h6.774z"/>
                <path id="Path_335" d="M22.355 19.645h-5.42v4.065h5.419zM21 22.355h-2.71V21H21z"/>
                <path id="Path_336" d="M29.129 19.645H23.71v4.065h5.419zm-1.355 2.71h-2.71V21h2.71z"/>
                <path id="Path_337" d="M35.9 19.645h-5.416v4.065H35.9zm-1.355 2.71h-2.71V21h2.71z"/>
                <path id="Path_338" d="M6.1 29.129h1.352v1.355H6.1z"/>
                <path id="Path_339" d="M8.806 29.129h16.259v1.355H8.806z"/>
                <path id="Path_340" d="M6.1 31.839h18.965v1.355H6.1z"/>
                <path id="Path_341" d="M16.935 25.065h1.355v1.355h-1.355z"/>
                <path id="Path_342" d="M19.645 25.065h9.484v1.355h-9.484z"/>
            </g>
        </g>
    </g>
</svg>
