<svg xmlns="http://www.w3.org/2000/svg" width="42" height="42" viewBox="0 0 42 42">
    <defs>
        <clipPath id="clip-path">
            <path id="Rectangle_11" fill="#222" d="M0 0H42V42H0z" transform="translate(266 1139)"/>
        </clipPath>
        <style>
            .cls-5{fill:#5cd6b3}.cls-6{fill:#37bc9b}.cls-7{fill:#f0d0b4}.cls-8{fill:#f8d608}
        </style>
    </defs>
    <g id="icon-feature-4" clip-path="url(#clip-path)" transform="translate(-266 -1139)">
        <g id="refund_2_" transform="translate(265.323 1138.322)">
            <path id="Path_247" fill="#e15068" d="M1.355 22.355h8.129V35.9H1.355z"/>
            <path id="Path_248" fill="#e6e9ed" d="M13.548 34.548V35.9H9.484V22.355h4.065v3.387L12.194 27.1l1.355 1.355z"/>
            <path id="Path_249" d="M37.935 25.065V27.1A8.13 8.13 0 0 0 23.2 22.355h-1.523v-6.1a4.068 4.068 0 0 0 4.065-4.065h8.129a4.068 4.068 0 0 0 4.065 4.065z" class="cls-5"/>
            <path id="Path_250" d="M37.935 35.9v2.032A4.068 4.068 0 0 0 33.871 42h-8.129a4.068 4.068 0 0 0-4.065-4.065V27.1a8.129 8.129 0 0 0 16.258 0v8.8z" class="cls-5"/>
            <path id="Path_251" d="M25.742 42h-4.065v-4.065A4.068 4.068 0 0 1 25.742 42z" class="cls-6"/>
            <path id="Path_252" d="M37.935 37.935V42h-4.064a4.068 4.068 0 0 1 4.064-4.065z" class="cls-6"/>
            <path id="Path_253" d="M37.935 12.194v4.065a4.068 4.068 0 0 1-4.065-4.065z" class="cls-6"/>
            <path id="Path_254" d="M21.677 12.194h4.065a4.068 4.068 0 0 1-4.065 4.065z" class="cls-6"/>
            <g id="Group_31">
                <path id="Path_255" d="M40.645 30.484A1.359 1.359 0 0 1 42 31.839a1.365 1.365 0 0 1-1.355 1.355h-2.71v-2.71z" class="cls-7"/>
                <path id="Path_256" d="M40.645 27.774A1.359 1.359 0 0 1 42 29.129a1.365 1.365 0 0 1-1.355 1.355h-2.71v-2.71z" class="cls-7"/>
                <path id="Path_257" d="M40.645 33.194A1.359 1.359 0 0 1 42 34.548a1.365 1.365 0 0 1-1.355 1.352h-2.71v-2.71z" class="cls-7"/>
                <path id="Path_258" d="M40.645 25.065A1.359 1.359 0 0 1 42 26.419a1.365 1.365 0 0 1-1.355 1.355h-2.71v-2.71z" class="cls-7"/>
                <path id="Path_259" d="M23.2 22.355h3.218a.679.679 0 0 1 .677.677 3.377 3.377 0 0 1-3.387 3.387h-2.031V35.9H19.93a4.138 4.138 0 0 1-1.822-.427l-1.849-.928h-2.71v-6.1L12.194 27.1l1.355-1.355V23.71h2.71l.163-.163a4.06 4.06 0 0 1 2.878-1.192h3.9z" class="cls-7"/>
            </g>
            <path id="Path_260" d="M27.1 23.032a.679.679 0 0 0-.677-.677H23.2a8.131 8.131 0 1 1-1.523 4.745v-.677h2.033a3.377 3.377 0 0 0 3.39-3.391z" class="cls-8"/>
            <path id="Path_261" d="M21.677 4.065v5.419h-5.419l1.707-1.707a7.452 7.452 0 0 0-13.9 3.814 7.023 7.023 0 0 0 2.7 5.528 1.372 1.372 0 0 1 .508 1.064 1.23 1.23 0 0 1-.041.312 1.342 1.342 0 0 1-2.12.745 9.747 9.747 0 0 1-3.733-8.461 10.154 10.154 0 0 1 18.544-4.96z" class="cls-8"/>
            <path id="Path_262" d="M42.149 27.774a2.024 2.024 0 0 0-1.5-3.387h-2.036V11.516H21v10.161h-1.7a4.711 4.711 0 0 0-3.319 1.355h-1.755v-1.355H.677v14.9h13.549v-1.351H16.1l1.708.854a4.767 4.767 0 0 0 2.12.5H21v6.1h17.613v-6.1h2.032a2.024 2.024 0 0 0 1.5-3.387 2 2 0 0 0 0-2.71 2 2 0 0 0 0-2.71zm-.826 4.065a.678.678 0 0 1-.677.677h-2.033v-1.355h2.032a.678.678 0 0 1 .678.678zm-8.075 9.484h-6.883a4.745 4.745 0 0 0-4.01-4.01v-5.545a8.782 8.782 0 0 0 14.9 0v5.544a4.745 4.745 0 0 0-4.007 4.011zM26.57 25.917a2.7 2.7 0 0 0 2.559 1.857h1.355a1.356 1.356 0 0 1 1.355 1.355v1.355h-2.71a1.356 1.356 0 0 1-1.355-1.355h-1.355a2.712 2.712 0 0 0 2.71 2.71v1.355h1.355v-1.355h2.71v-2.71a2.712 2.712 0 0 0-2.71-2.71h-1.355a1.356 1.356 0 0 1-1.355-1.355V23.71h2.71a1.356 1.356 0 0 1 1.355 1.355h1.355a2.712 2.712 0 0 0-2.71-2.71V21h-1.355v1.355h-1.543a1.35 1.35 0 0 0-1.167-.677h-1.707a7.439 7.439 0 1 1-2.357 5.422h1.355a4.051 4.051 0 0 0 2.86-1.183zm12.043 3.89v-1.355h2.032a.677.677 0 1 1 0 1.355zm2.032-4.065a.677.677 0 1 1 0 1.355h-2.032v-1.355zm-3.387-10.23a3.4 3.4 0 0 1-2.641-2.641h2.641zM25 12.871a3.4 3.4 0 0 1-2.641 2.641v-2.641zm-2.641 4.01a4.745 4.745 0 0 0 4.01-4.01h6.883a4.745 4.745 0 0 0 4.01 4.01v5.544a8.776 8.776 0 0 0-14.375-.748h-.528zM2.032 23.032h6.774v12.194H2.032zm10.839 2.429L11.236 27.1l1.635 1.635v6.494h-2.71V23.032h2.71zm7.056 9.764a3.4 3.4 0 0 1-1.514-.358l-2-1h-2.187v-5.7L13.151 27.1l1.074-1.074v-1.639h2.313l.362-.362a3.366 3.366 0 0 1 2.4-.992h7.123a2.712 2.712 0 0 1-2.71 2.71H21.4l-.362.362a3.367 3.367 0 0 1-2.4.992h-1.7v1.355h1.7A4.713 4.713 0 0 0 21 27.818v7.408zm2.428 3.456A3.4 3.4 0 0 1 25 41.323h-2.645zm12.262 2.641a3.4 3.4 0 0 1 2.641-2.641v2.641zm6.028-6.1h-2.032v-1.351h2.032a.677.677 0 0 1 0 1.355z"/>
            <path id="Path_263" d="M4.69 19.769a1.971 1.971 0 0 0 1.227.428 2.025 2.025 0 0 0 1.274-3.6 6.394 6.394 0 0 1-2.448-5.006 6.855 6.855 0 0 1 5.779-6.774A6.777 6.777 0 0 1 17.1 7.683l-2.478 2.478h7.732V2.429L20 4.783A10.833 10.833 0 0 0 .7 10.729a10.451 10.451 0 0 0 3.985 9.04zm-2.634-8.945A9.481 9.481 0 0 1 19.363 6.2l.46.678L21 5.7v3.106h-3.107l.917-.917-.261-.45A8.128 8.128 0 0 0 3.388 11.6a7.729 7.729 0 0 0 2.956 6.05.664.664 0 0 1 .231.677.681.681 0 0 1-.444.48.632.632 0 0 1-.6-.1 9.116 9.116 0 0 1-3.476-7.883z"/>
        </g>
    </g>
</svg>
