<svg xmlns="http://www.w3.org/2000/svg" width="19" height="19" viewBox="0 0 19 19">
    <defs>
        <clipPath id="clip-path">
            <path id="Rectangle_2454" fill="#e15068" stroke="#707070" d="M0 0H19V19H0z" transform="translate(158 453)"/>
        </clipPath>
        <style>
            .cls-3{fill:#e15068}
        </style>
    </defs>
    <g id="inf-icon-insta-red" clip-path="url(#clip-path)" transform="translate(-158 -453)">
        <g id="instagram_1_" transform="translate(158 453)">
            <path id="Path_13611" d="M13.857 0H5.143A5.149 5.149 0 0 0 0 5.143v8.714A5.149 5.149 0 0 0 5.143 19h8.714A5.149 5.149 0 0 0 19 13.857V5.143A5.149 5.149 0 0 0 13.857 0zm4.029 13.857a4.034 4.034 0 0 1-4.029 4.029H5.143a4.034 4.034 0 0 1-4.029-4.029V5.143a4.034 4.034 0 0 1 4.029-4.029h8.714a4.034 4.034 0 0 1 4.029 4.029zm0 0" class="cls-3"/>
            <path id="Path_13612" d="M9.5 4.3a5.2 5.2 0 1 0 5.2 5.2 5.2 5.2 0 0 0-5.2-5.2zm0 9.276A4.081 4.081 0 1 1 13.581 9.5 4.086 4.086 0 0 1 9.5 13.581zm0 0" class="cls-3"/>
            <path id="Path_13613" d="M14.819 2.46a1.535 1.535 0 1 0 1.535 1.535 1.537 1.537 0 0 0-1.535-1.535zm0 1.956a.421.421 0 1 1 .421-.421.422.422 0 0 1-.421.421zm0 0" class="cls-3"/>
        </g>
    </g>
</svg>
