<svg xmlns="http://www.w3.org/2000/svg" width="24" height="24" viewBox="0 0 24 24">
    <defs>
        <clipPath id="clip-path">
            <path id="Rectangle_2455" fill="#fff" stroke="#707070" d="M0 0H24V24H0z" transform="translate(287.16 595.16)"/>
        </clipPath>
        <style>
            .cls-3{fill:#fff}
        </style>
    </defs>
    <g id="inf-icon-insta" clip-path="url(#clip-path)" transform="translate(-287.16 -595.16)">
        <g id="instagram_1_" transform="translate(287 595)">
            <path id="Path_13614" d="M17.736 0H6.583A6.59 6.59 0 0 0 0 6.583v11.153a6.59 6.59 0 0 0 6.583 6.583h11.153a6.59 6.59 0 0 0 6.583-6.583V6.583A6.59 6.59 0 0 0 17.736 0zm5.157 17.736a5.163 5.163 0 0 1-5.157 5.157H6.583a5.163 5.163 0 0 1-5.157-5.157V6.583a5.163 5.163 0 0 1 5.157-5.157h11.153a5.163 5.163 0 0 1 5.157 5.157zm0 0" class="cls-3"/>
            <path id="Path_13615" d="M11.181 4.531a6.65 6.65 0 1 0 6.65 6.65 6.657 6.657 0 0 0-6.65-6.65zm0 11.874a5.224 5.224 0 1 1 5.219-5.224 5.23 5.23 0 0 1-5.219 5.219zm0 0" class="cls-3" transform="translate(.979 .979)"/>
            <path id="Path_13616" d="M15.948 2.589a1.965 1.965 0 1 0 1.965 1.965 1.967 1.967 0 0 0-1.965-1.965zm0 2.5a.539.539 0 1 1 .539-.539.54.54 0 0 1-.539.543zm0 0" class="cls-3" transform="translate(3.02 .559)"/>
        </g>
    </g>
</svg>
