<svg xmlns="http://www.w3.org/2000/svg" width="19" height="19" viewBox="0 0 19 19">
    <defs>
        <clipPath id="3gexkqrrla">
            <path fill="#e15068" stroke="#707070" d="M0 0H19V19H0z" transform="translate(158 453)"/>
        </clipPath>
    </defs>
    <g clip-path="url(#3gexkqrrla)" transform="translate(-158 -453)">
        <path fill="#e15068" d="M12.766 19H10.75a17.864 17.864 0 0 1-5.72-.7c-.291-.1-.545-.215-.769-.315a2.649 2.649 0 0 0-1.036-.316H1.9a2.05 2.05 0 0 1-1.392-.414 1.778 1.778 0 0 1-.49-1.372V9.83a1.9 1.9 0 0 1 .495-1.358A1.856 1.856 0 0 1 1.9 7.949h.117a2.311 2.311 0 0 0 1.536-.371l.076-.143.042-.077.012-.021a.9.9 0 0 1 .109-.193 6.513 6.513 0 0 1 .729-1.01 5.785 5.785 0 0 1 1.393-1.1A2.545 2.545 0 0 0 7.06 3.928l.021-.042a8.548 8.548 0 0 0 .763-1.709 1.667 1.667 0 0 0 .051-.47A1.527 1.527 0 0 1 9.194 0h.062a2.623 2.623 0 0 1 1.559.441 2.419 2.419 0 0 1 .916 2.1 10.276 10.276 0 0 1-.78 3.945l4.3.54a1.961 1.961 0 0 1 1.777 2.094 2.223 2.223 0 0 1-.635 1.476 1.731 1.731 0 0 1 .513 1.335 1.722 1.722 0 0 1-.486 1.269 1.563 1.563 0 0 1-.4.282 1.864 1.864 0 0 1 .376 1.131 1.99 1.99 0 0 1-.6 1.457 2.031 2.031 0 0 1-1.174.543 1.611 1.611 0 0 1 .092.613 2.828 2.828 0 0 1-.022.322 1.42 1.42 0 0 1-.422.83 2.148 2.148 0 0 1-1.5.624zM1.9 9.062c-.539 0-.768.23-.768.768v6.057a.866.866 0 0 0 .124.547c.052.047.205.126.645.126h1.324a3.542 3.542 0 0 1 1.489.413c.215.1.437.195.683.281a17.115 17.115 0 0 0 5.353.631h2.018a1.044 1.044 0 0 0 .728-.317.3.3 0 0 0 .09-.2c0-.033.007-.117.008-.151v-.038a.469.469 0 0 0-.317-.474.661.661 0 0 1 .324-1.263l.748.063a.925.925 0 0 0 .671-.248.877.877 0 0 0 .26-.653.828.828 0 0 0-.833-.807.6.6 0 0 1 .058-1.2c.342.006.914.017 1.139-.2.036-.035.146-.141.149-.486v-.019c.021-.492-.37-.683-.7-.758a.568.568 0 0 1 .1-1.121.921.921 0 0 0 .73-.942.848.848 0 0 0-.74-.933h-.045l-4.378-.55a1.068 1.068 0 0 1-.86-1.481 9.272 9.272 0 0 0 .714-3.563c0-1.245-.7-1.424-1.327-1.43a.266.266 0 0 0-.232.2.93.93 0 0 0-.051.325v.018a2.774 2.774 0 0 1-.085.8 9.26 9.26 0 0 1-.851 1.938l-.021.041a3.605 3.605 0 0 1-1.552 1.553 4.777 4.777 0 0 0-1.152.9 5.512 5.512 0 0 0-.612.859L4.7 7.8c-.022.049-.043.086-.058.111l-.012.022-.012.023c-.034.062-.073.135-.111.21l-.04.08-.067.066a3.216 3.216 0 0 1-2.393.75H1.9zm11.687 8.3zm0 0zm.007-.129zm.939-4.538zm.71-1.566zm0 0" transform="translate(158.976 453)"/>
    </g>
</svg>
