<svg xmlns="http://www.w3.org/2000/svg" width="24" height="24" viewBox="0 0 24 24">
    <defs>
        <clipPath id="clip-path">
            <path id="Rectangle_2455" d="M0 0H24V24H0z" class="cls-1" transform="translate(287 595)"/>
        </clipPath>
        <style>
            .cls-1{fill:#fff}
        </style>
    </defs>
    <g id="inf-icon-contact" clip-path="url(#clip-path)" transform="translate(-287 -595)">
        <g id="contact" transform="translate(287 595.601)">
            <g id="Group_4401">
                <g id="Group_4400">
                    <path id="Path_13617" d="M22.98.5H6.216A1.021 1.021 0 0 0 5.2 1.521v4.624l-.767-1.15a1.185 1.185 0 0 0-1.6-.36l-1.577.948A2.314 2.314 0 0 0 .194 6.954c-.575 2.095-.148 5.7 5.149 11 4.213 4.212 7.357 5.346 9.52 5.346a5.59 5.59 0 0 0 1.484-.194 2.318 2.318 0 0 0 1.372-1.056l.947-1.579a1.186 1.186 0 0 0-.36-1.6l-3.777-2.517a1.192 1.192 0 0 0-1.6.259l-1.1 1.414a.383.383 0 0 1-.49.1l-.209-.115a12.578 12.578 0 0 1-3.276-2.573c-.187-.187-.357-.362-.516-.53H22.98A1.019 1.019 0 0 0 24 13.9V1.521A1.021 1.021 0 0 0 22.98.5zM10.752 18.718l.2.112a1.179 1.179 0 0 0 1.51-.311l1.1-1.414a.389.389 0 0 1 .52-.084l3.777 2.517a.386.386 0 0 1 .117.52l-.947 1.579a1.52 1.52 0 0 1-.9.7c-1.891.52-5.2.08-10.225-4.944S.448 9.056.967 7.166a1.52 1.52 0 0 1 .7-.9l1.579-.947a.387.387 0 0 1 .52.117l2.514 3.78a.388.388 0 0 1-.084.52l-1.414 1.1a1.178 1.178 0 0 0-.311 1.51l.112.2a13.264 13.264 0 0 0 2.71 3.459 13.29 13.29 0 0 0 3.459 2.713zM23.2 13.9a.218.218 0 0 1-.22.216H6.621a10.09 10.09 0 0 1-1.335-1.946l-.115-.21a.382.382 0 0 1 .1-.489l1.414-1.1a1.192 1.192 0 0 0 .259-1.6L6 7.346V1.521a.218.218 0 0 1 .22-.22h16.76a.218.218 0 0 1 .22.22V13.9z" class="cls-1" transform="translate(0 -.501)"/>
                    <path id="Path_13618" d="M20.443 2.058l-6.687 5.071a.54.54 0 0 1-.635 0L6.437 2.058a.4.4 0 1 0-.484.638l6.685 5.071a1.347 1.347 0 0 0 1.6 0L20.926 2.7a.4.4 0 0 0-.483-.638z" class="cls-1" transform="translate(1.159 -.205)"/>
                    <path id="Path_13619" d="M10.02 6.848l-4.1 4.389a.4.4 0 0 0 .585.546l4.1-4.391a.4.4 0 0 0-.585-.544z" class="cls-1" transform="translate(1.163 .747)"/>
                    <path id="Path_13620" d="M15.148 6.851a.4.4 0 1 0-.585.546l4.1 4.389a.4.4 0 0 0 .585-.546z" class="cls-1" transform="translate(2.891 .744)"/>
                </g>
            </g>
        </g>
    </g>
</svg>
