<svg xmlns="http://www.w3.org/2000/svg" width="24" height="24" viewBox="0 0 24 24">
    <defs>
        <clipPath id="clip-path">
            <path id="Rectangle_2460" d="M0 0H24V24H0z" class="cls-1" transform="translate(285 593)"/>
        </clipPath>
        <style>
            .cls-1{fill:#fff}
        </style>
    </defs>
    <g id="inf-icon-web" clip-path="url(#clip-path)" transform="translate(-285 -593)">
        <g id="globe" transform="translate(285 593)">
            <g id="Group_4431">
                <path id="Path_13698" d="M12 0C6.931 0 0 3.831 0 12a11.926 11.926 0 0 0 12 12c9.151 0 12-8.017 12-12A11.9 11.9 0 0 0 12 0zM9.217 1.129a10.715 10.715 0 0 0-2.962 5.027 11.148 11.148 0 0 1-2.376-1.895 11.243 11.243 0 0 1 5.338-3.132zM3.364 4.838a11.765 11.765 0 0 0 2.679 2.088 20.289 20.289 0 0 0-.614 4.687H.784a11.177 11.177 0 0 1 2.58-6.775zm0 14.324a11.148 11.148 0 0 1-2.58-6.775h4.644a20.255 20.255 0 0 0 .614 4.687 12.113 12.113 0 0 0-2.678 2.088zm.515.581a11.148 11.148 0 0 1 2.376-1.894 10.739 10.739 0 0 0 2.962 5.027 11.32 11.32 0 0 1-5.338-3.133zm7.734 3.457c-2.013-.255-3.746-2.5-4.682-5.726a11.292 11.292 0 0 1 4.682-1.2V23.2zm0-7.7a12.02 12.02 0 0 0-4.88 1.214 20.266 20.266 0 0 1-.533-4.327h5.414V15.5zm0-3.883H6.2a20.266 20.266 0 0 1 .532-4.327 12.058 12.058 0 0 0 4.881 1.21zm0-3.879a11.2 11.2 0 0 1-4.682-1.2C7.866 3.3 9.6 1.058 11.613.8zm9.024-2.9a11.177 11.177 0 0 1 2.58 6.775h-4.641a20.255 20.255 0 0 0-.614-4.687 11.979 11.979 0 0 0 2.674-2.088zm-.515-.581a11.148 11.148 0 0 1-2.376 1.894 10.763 10.763 0 0 0-2.962-5.027 11.32 11.32 0 0 1 5.337 3.133zM12.387.8c2.013.255 3.746 2.5 4.682 5.726a11.274 11.274 0 0 1-4.682 1.2zm0 7.7a12.02 12.02 0 0 0 4.88-1.214 20.266 20.266 0 0 1 .534 4.323h-5.414zm0 3.883H17.8a20.266 20.266 0 0 1-.534 4.323 11.87 11.87 0 0 0-4.88-1.214zm0 10.809v-6.926a11.2 11.2 0 0 1 4.682 1.2c-.935 3.234-2.669 5.476-4.682 5.734zm2.4-.326a10.715 10.715 0 0 0 2.962-5.027 11.148 11.148 0 0 1 2.376 1.894 11.243 11.243 0 0 1-5.342 3.138zm5.854-3.709a11.979 11.979 0 0 0-2.674-2.088 20.289 20.289 0 0 0 .614-4.687h4.639a11.177 11.177 0 0 1-2.584 6.78z" class="cls-1"/>
            </g>
        </g>
    </g>
</svg>
