<svg xmlns="http://www.w3.org/2000/svg" xmlns:xlink="http://www.w3.org/1999/xlink" width="24" height="24" viewBox="0 0 24 24">
  <defs>
    <clipPath id="clip-path">
      <rect id="Rectangle_2362" data-name="Rectangle 2362" width="24" height="24" transform="translate(885 1260)" fill="#e15068" stroke="#707070" stroke-width="1"/>
    </clipPath>
  </defs>
  <g id="info-red" transform="translate(-885 -1260)" clip-path="url(#clip-path)">
    <g id="fi-rr-info" transform="translate(885 1260)">
      <path id="Path_12492" data-name="Path 12492" d="M12,0A12,12,0,1,0,24,12,12,12,0,0,0,12,0Zm0,22A10,10,0,1,1,22,12,10,10,0,0,1,12,22Z" fill="#e15068"/>
      <path id="Path_12493" data-name="Path 12493" d="M12,10H11a1,1,0,0,0,0,2h1v6a1,1,0,0,0,2,0V12A2,2,0,0,0,12,10Z" fill="#e15068"/>
      <circle id="Ellipse_1352" data-name="Ellipse 1352" cx="1.5" cy="1.5" r="1.5" transform="translate(10.5 5)" fill="#e15068"/>
    </g>
  </g>
</svg>
