<svg xmlns="http://www.w3.org/2000/svg" xmlns:xlink="http://www.w3.org/1999/xlink" width="24" height="24" viewBox="0 0 24 24">
  <defs>
    <clipPath id="clip-path">
      <rect id="Rectangle_2316" data-name="Rectangle 2316" width="24" height="24" transform="translate(128 834)" fill="#222"/>
    </clipPath>
  </defs>
  <g id="kitchen" transform="translate(-128 -834)" clip-path="url(#clip-path)">
    <g id="cutlery" transform="translate(128 834)">
      <g id="Group_3634" data-name="Group 3634">
        <g id="Group_3633" data-name="Group 3633">
          <path id="Path_12469" data-name="Path 12469" d="M9.4.148a.71.71,0,0,0-.71.71V4.545a2.13,2.13,0,0,1-1.417,2V.71a.71.71,0,1,0-1.42,0V6.549a2.13,2.13,0,0,1-1.417-2V.858a.71.71,0,0,0-1.42,0V4.545A3.553,3.553,0,0,0,5.855,8.02v3.922a2.505,2.505,0,0,0-1.791,2.4V21.5a2.5,2.5,0,1,0,5,0V14.341a2.505,2.505,0,0,0-1.791-2.4V8.02a3.553,3.553,0,0,0,2.837-3.476V.858A.71.71,0,0,0,9.4.148ZM7.646,14.341V21.5A1.082,1.082,0,0,1,6.565,22.58h0A1.082,1.082,0,0,1,5.484,21.5V14.341a1.081,1.081,0,1,1,2.162,0Z"/>
        </g>
      </g>
      <g id="Group_3636" data-name="Group 3636">
        <g id="Group_3635" data-name="Group 3635">
          <path id="Path_12470" data-name="Path 12470" d="M17.959,11.943v-3.5A4.161,4.161,0,0,0,20.982,4.26,4.027,4.027,0,0,0,17.249,0a4.028,4.028,0,0,0-3.734,4.26,4.161,4.161,0,0,0,3.023,4.182v3.5a2.505,2.505,0,0,0-1.791,2.4V21.5a2.5,2.5,0,1,0,5,0V14.341A2.505,2.505,0,0,0,17.959,11.943ZM14.936,4.26a2.62,2.62,0,0,1,2.313-2.84,2.62,2.62,0,0,1,2.313,2.84A2.62,2.62,0,0,1,17.249,7.1,2.62,2.62,0,0,1,14.936,4.26ZM18.33,21.5a1.081,1.081,0,1,1-2.162,0V14.341a1.081,1.081,0,1,1,2.162,0Z"/>
        </g>
      </g>
    </g>
  </g>
</svg>
