<svg xmlns="http://www.w3.org/2000/svg" xmlns:xlink="http://www.w3.org/1999/xlink" width="20" height="20" viewBox="0 0 20 20">
  <defs>
    <clipPath id="clip-path">
      <rect id="Rectangle_2288" data-name="Rectangle 2288" width="20" height="20" transform="translate(40 757)" fill="#e15068"/>
    </clipPath>
  </defs>
  <g id="liked" transform="translate(-40 -757)" clip-path="url(#clip-path)">
    <path id="fi-rr-heart" d="M14.577,1.6A5.331,5.331,0,0,0,10,4.346,5.331,5.331,0,0,0,5.414,1.6,5.664,5.664,0,0,0,0,7.469C0,11.257,3.987,15.394,7.33,18.2a4.143,4.143,0,0,0,5.331,0c3.344-2.8,7.33-6.941,7.33-10.729A5.664,5.664,0,0,0,14.577,1.6ZM11.591,16.924a2.476,2.476,0,0,1-3.19,0c-4.28-3.591-6.735-7.036-6.735-9.454A4,4,0,0,1,5.414,3.263,4,4,0,0,1,9.163,7.469a.833.833,0,1,0,1.666,0,4,4,0,0,1,3.748-4.207,4,4,0,0,1,3.748,4.207c0,2.418-2.455,5.863-6.735,9.451Z" transform="translate(40.004 756.617)" fill="#e15068"/>
  </g>
</svg>
