<svg xmlns="http://www.w3.org/2000/svg" width="228" height="223.474" viewBox="0 0 228 223.474">
    <defs>
        <style>
            .cls-1{fill:#1a1e22}.cls-2{fill:#fff}.cls-3{fill:#e15068}
        </style>
    </defs>
    <g id="liked-empty-img">
        <path id="Path_13369" d="M817.246 785.853a12.171 12.171 0 0 1-2.959 5.987 10.358 10.358 0 0 1-8.7 2.68c-4.159-.585-6-3.209-6.758-7.132 0 0 5.426.933 10.608-8.679a84.772 84.772 0 0 0 4.246-9.239c-.175.495 1.4 3.391 1.629 3.987.552 1.467.988 2.975 1.529 4.438a13.889 13.889 0 0 1 .405 7.958z" class="cls-1" transform="translate(-676.813 -688.458)"/>
        <path id="Path_13370" d="M802.859 790.986a10.637 10.637 0 0 0 7.6-2.991 12.7 12.7 0 0 0 3.133-6.316 14.511 14.511 0 0 0-.429-8.327c-.255-.688-.492-1.405-.721-2.1-.253-.769-.517-1.565-.809-2.341-.075-.2-.243-.541-.475-1.016a18.027 18.027 0 0 1-1.124-2.615.667.667 0 0 0-1.284-.341 84.735 84.735 0 0 1-4.2 9.144c-4.895 9.088-9.855 8.348-9.9 8.338a.667.667 0 0 0-.768.783c.895 4.655 3.22 7.091 7.32 7.667a11.876 11.876 0 0 0 1.657.115zm6.468-23.845c.173.38.384.821.637 1.333.191.392.372.761.424.9.284.748.541 1.531.792 2.288.232.705.473 1.433.736 2.144a13.244 13.244 0 0 1 .376 7.591 11.4 11.4 0 0 1-2.786 5.66 9.723 9.723 0 0 1-8.134 2.484c-3.264-.46-5.147-2.259-6.022-5.8 1.877-.143 6.232-1.368 10.366-9.039.973-1.778 2.549-5.008 3.611-7.561zm.685-1.761zm.023-.134z" class="cls-1" transform="translate(-672.51 -684.148)"/>
        <path id="Path_13371" d="M1412.165 583.979c-4.313-5.991-7.814-11.134-12.379-18.667 6.934-3.2 9.892-4.19 13.754-10.782a151.791 151.791 0 0 0 14.65 18.487 13.956 13.956 0 0 1-5.589 11.168c-3.138 2.351-8.93 1.891-10.436-.206z" class="cls-2" transform="translate(-1367.499 -502.178)"/>
        <path id="Path_13372" d="M228.348 759.966l-2.68-.368c-25.956-4.02-57.377-25.241-75.691-55.457 5.978-1.007 12.324-6.159 16.025-10.962 0 0 19.385 17.734 36.847 26.268a65.911 65.911 0 0 0 13.022 4.9c17.067 4.228 32.016 1.125 48.884-.155 15.386-1.167 32.58.547 44.482 10.307 11.875 9.74 21.067 22.333 22.919 37.919 1.8 15.182-1.156 31.582-10.934 43.69a43.349 43.349 0 0 1-3.575 3.9A47.063 47.063 0 0 1 286 832.5c-15.285-.187-53.783-12.73-65.258-21.686.342-17.14 1.958-34.484 7.606-50.848z" class="cls-2" transform="translate(-105.313 -622.341)"/>
        <path id="Path_13373" d="M282.188 828.788a47.781 47.781 0 0 0 31.648-12.682 44.267 44.267 0 0 0 3.629-3.956 51.444 51.444 0 0 0 9.934-20.961 68.5 68.5 0 0 0 1.137-23.222 50.907 50.907 0 0 0-7.8-21.431 72.422 72.422 0 0 0-15.359-16.923c-5.575-4.572-12.718-7.734-21.229-9.391a89.269 89.269 0 0 0-23.726-1.067c-3.567.267-7.078.627-10.472.969-12.776 1.292-24.844 2.512-38.2-.8a64.95 64.95 0 0 1-12.891-4.855c-17.177-8.4-36.495-25.984-36.688-26.16a.667.667 0 0 0-.979.084c-3.561 4.623-9.768 9.734-15.6 10.711a.667.667 0 0 0-.46 1 128.784 128.784 0 0 0 37.047 38.908c13.734 9.439 28.248 15.5 41 17.133a125.909 125.909 0 0 0-4.864 19.959 213.342 213.342 0 0 0-2.509 30.308.667.667 0 0 0 .257.533c5.391 4.208 17.129 9.531 31.4 14.239 13.914 4.6 27.044 7.512 34.252 7.6zM268.679 720.17a79.729 79.729 0 0 1 15.214 1.363c8.292 1.617 15.237 4.683 20.639 9.114a71.179 71.179 0 0 1 15.081 16.609 49.649 49.649 0 0 1 7.6 20.871 67.253 67.253 0 0 1-1.112 22.766 50.11 50.11 0 0 1-9.674 20.423 42.892 42.892 0 0 1-3.523 3.837 46.407 46.407 0 0 1-31.176 12.3c-7.084-.087-20.057-2.968-33.857-7.52-13.9-4.587-25.344-9.734-30.736-13.822a211.376 211.376 0 0 1 2.484-29.782 123.751 123.751 0 0 1 5.051-20.446.705.705 0 0 0 .052-.149q1.467-4.207 3.227-8.134a.667.667 0 0 0-1.216-.548q-1.7 3.783-3.12 7.807c-12.606-1.551-27.029-7.555-40.685-16.943a127.682 127.682 0 0 1-36.165-37.692c5.66-1.333 11.467-6.031 15.042-10.454 3.248 2.9 20.73 18.2 36.471 25.894a65.648 65.648 0 0 0 13.159 4.959c13.582 3.364 25.761 2.133 38.656.829 3.387-.343 6.89-.7 10.439-.965q4.192-.318 8.149-.317z" class="cls-1" transform="translate(-101.034 -617.967)"/>
        <path id="Path_13374" d="M390.408 1420.2a.667.667 0 0 0 .633-.457 23.591 23.591 0 0 0-3.565-20.733A32.606 32.606 0 0 0 401 1388.381a22.806 22.806 0 0 0 4.333-17.287.667.667 0 0 0-1.316.215 21.5 21.5 0 0 1-4.1 16.292 31.463 31.463 0 0 1-13.74 10.5.667.667 0 0 0-.276 1.032 22.242 22.242 0 0 1 3.875 20.186.667.667 0 0 0 .633.876z" class="cls-1" transform="translate(-209.722 -1209.378)"/>
        <path id="Path_13375" d="M579.437 626.381c-.576 5.216-5.475 10.248-9.954 12.472-5.887 2.921-18.69 5.162-24.341-1.953-1.373-1.733-2.919-6.275-2.368-8.491 1.783-7.182.484-16.57.483-26.589 0-4.551.483-9.258 2.715-13.224 5.333-9.467 18.553-10.776 26.432-3.783 6.026 5.348 6.084 13.334 6.7 20.8.57 6.836 1.09 13.921.333 20.768z" class="cls-2" transform="translate(-404.834 -524.585)"/>
        <path id="Path_13376" d="M552.691 637.969h.2a30.47 30.47 0 0 0 12.55-2.857c4.667-2.319 9.716-7.527 10.32-13 .737-6.72.291-13.44-.329-20.9-.056-.66-.107-1.327-.156-1.993-.533-6.979-1.077-14.2-6.77-19.247a18.715 18.715 0 0 0-15.413-4.34 16.873 16.873 0 0 0-12.043 8.295c-2.476 4.4-2.8 9.56-2.8 13.551 0 3.087.123 6.1.241 9.022.267 6.439.509 12.52-.7 17.407a10.329 10.329 0 0 0 .471 4.78 13.939 13.939 0 0 0 2.023 4.286c3.263 4.112 8.507 4.996 12.406 4.996zm21.747-16a13.413 13.413 0 0 1-3.36 7 20.528 20.528 0 0 1-6.23 4.948 29.061 29.061 0 0 1-11.967 2.717c-3.621.033-8.567-.728-11.554-4.488-1.591-2-2.647-6.293-2.244-7.915 1.26-5.067 1.009-11.246.743-17.782-.117-2.905-.24-5.908-.24-8.968 0-3.828.3-8.755 2.628-12.9a15.347 15.347 0 0 1 11.1-7.634 17.384 17.384 0 0 1 14.309 4.023c5.288 4.693 5.808 11.636 6.323 18.355.052.667.1 1.333.157 2 .613 7.39 1.067 14.042.333 20.642z" class="cls-1" transform="translate(-400.497 -520.246)"/>
        <path id="Path_13377" d="M796.567 717.1a4.487 4.487 0 0 0-.155-.605 2.469 2.469 0 0 0-3.467-1.48c-1.383.817-2.145 2.779-2.432 4.676a11.285 11.285 0 0 0 .6 6.052 4.8 4.8 0 0 0 3.9 3.189c2.185.068 4.429-2.517 4.641-4.584a31.068 31.068 0 0 0-.667-6.194c-.672-3.118-2.334-.615-2.42-1.054z" class="cls-2" transform="translate(-657.727 -641.009)"/>
        <path id="Path_13378" d="M803.5 725.33a4.33 4.33 0 0 0 3.42-1.893.667.667 0 1 0-1.077-.785 3 3 0 0 1-2.408 1.348 4.158 4.158 0 0 1-3.308-2.788 10.57 10.57 0 0 1-.557-5.687c.308-2.031 1.1-3.6 2.112-4.2a1.66 1.66 0 0 1 1.609.031 1.788 1.788 0 0 1 .959 1.52.667.667 0 0 0 1.333-.06 3.132 3.132 0 0 0-1.656-2.632 2.965 2.965 0 0 0-2.923 0c-1.955 1.156-2.575 3.987-2.752 5.15a11.9 11.9 0 0 0 .653 6.417 5.464 5.464 0 0 0 4.49 3.591z" class="cls-1" transform="translate(-666.128 -636.738)"/>
        <path id="Path_13379" d="M691.672 790.109a3.893 3.893 0 0 0 .548-.039c2.45-.34 3.788-2.815 3.844-5.083a.667.667 0 0 0-1.333-.033c-.056 2.253-1.4 3.615-2.695 3.8a1.805 1.805 0 0 1-1.491-.369 4.532 4.532 0 0 1-1.153-3.228.667.667 0 0 0-1.333.049c.033.881.257 3.052 1.628 4.2a3 3 0 0 0 1.985.703z" class="cls-1" transform="translate(-540.47 -701.314)"/>
        <path id="Path_13380" d="M643.381 718.641c.24 1.439-2.975 1.839-3.362.487-.5-1.759 2.569-2.155 3.24-.84a1.2 1.2 0 0 1 .122.353z" class="cls-1" transform="translate(-481.387 -643.426)"/>
        <path id="Path_13381" d="M759.4 715.779c.105 1.455-3.132 1.552-3.392.171-.337-1.8 2.759-1.905 3.305-.533a1.231 1.231 0 0 1 .087.362z" class="cls-1" transform="translate(-612.864 -640.802)"/>
        <path id="Path_13382" d="M383.356 562.277c-3.115-1.579-7.452-5.034-10.5-6.739a15.068 15.068 0 0 0 1.148 2.845 12.83 12.83 0 0 1-4.366-2.267 28.758 28.758 0 0 1-3.952-3.542 24.129 24.129 0 0 1-4.88-9.494 25.21 25.21 0 0 1-6.508 11.611c-2.02 2.044-4.41 3.761-6.046 6.124a19.978 19.978 0 0 1-2.975-6.39c-.819-4.071 1.028-8.327 3.895-11.334a11.926 11.926 0 0 1 4.4-3.067 7.057 7.057 0 0 1 5.271.025c1.683-1.887 4.473-2.72 6.99-2.968a19.339 19.339 0 0 1 15.38 5.046c6.211 6 6.951 18.925 6.534 24.73-.52 7.22 4.677 11.618 7.427 14.227 4.41 4.182 10.719 8.408 15.691 8.995.209.025-2.477 3.648-5.812 5.655-3.811 2.3-11.192 4.425-16.89.563a14.712 14.712 0 0 1-6.106-11.032c-.464-5 1.372-9.762 1.952-14.667a30.258 30.258 0 0 0-.653-8.321z" class="cls-1" transform="translate(-209.552 -486.97)"/>
        <path id="Path_13383" d="M391.2 594.739a17.314 17.314 0 0 0 1.895-.107 20.421 20.421 0 0 0 8.008-2.683 20.662 20.662 0 0 0 4.289-3.589c1.977-2.133 1.885-2.56 1.841-2.765a.679.679 0 0 0-.584-.533c-3.169-.375-9.082-2.908-15.31-8.818q-.243-.231-.507-.477c-2.86-2.681-7.182-6.735-6.715-13.218a50.446 50.446 0 0 0-.791-12.466c-1.111-5.751-3.111-10.054-5.944-12.792a19.939 19.939 0 0 0-15.909-5.228c-1.78.176-4.987.779-7.095 2.844a7.868 7.868 0 0 0-5.333.133 12.671 12.671 0 0 0-4.644 3.235c-3.343 3.5-4.863 7.962-4.066 11.924a20.573 20.573 0 0 0 3.067 6.608.667.667 0 0 0 1.115.029 24.132 24.132 0 0 1 3.849-4.044c.707-.639 1.437-1.3 2.123-1.991a25.777 25.777 0 0 0 6.048-9.774 23.832 23.832 0 0 0 4.355 7.63 27.009 27.009 0 0 0 3.695 3.356l.345.277a13.423 13.423 0 0 0 4.62 2.387.667.667 0 0 0 .753-.957q-.256-.485-.476-.989c.961.617 2 1.333 3.076 2.072a62.478 62.478 0 0 0 5.572 3.568 28.484 28.484 0 0 1 .573 7.792c-.2 1.708-.567 3.44-.92 5.115a32.14 32.14 0 0 0-1.033 9.7 15.411 15.411 0 0 0 6.4 11.522 13.562 13.562 0 0 0 7.703 2.239zm14.275-8.51a20.9 20.9 0 0 1-5.059 4.584 19.046 19.046 0 0 1-7.467 2.5 12.772 12.772 0 0 1-8.706-1.917 14.1 14.1 0 0 1-5.815-10.542 30.874 30.874 0 0 1 1.011-9.3c.359-1.7.731-3.467.933-5.234a29.933 29.933 0 0 0-.667-8.542.667.667 0 0 0-.348-.448 57.539 57.539 0 0 1-5.692-3.636c-1.733-1.188-3.359-2.311-4.77-3.1a.667.667 0 0 0-.967.767c.145.5.317 1 .512 1.485a12.148 12.148 0 0 1-2.667-1.6l-.348-.279a26.12 26.12 0 0 1-3.517-3.187 23.291 23.291 0 0 1-4.742-9.231.667.667 0 0 0-.644-.493.667.667 0 0 0-.64.507 24.415 24.415 0 0 1-6.352 11.3c-.657.667-1.375 1.312-2.067 1.939a30.811 30.811 0 0 0-3.451 3.467 16.925 16.925 0 0 1-2.375-5.334c-.711-3.537.681-7.552 3.724-10.742a11.31 11.31 0 0 1 4.144-2.905 6.37 6.37 0 0 1 4.766.009.667.667 0 0 0 .771-.164c1.788-2 4.876-2.583 6.558-2.748a18.6 18.6 0 0 1 14.853 4.861c5.971 5.77 6.752 18.354 6.331 24.2-.513 7.115 4.267 11.6 7.131 14.286.175.163.343.32.5.471 3.978 3.777 9.895 7.986 15.06 9.026z" class="cls-1" transform="translate(-205.263 -482.613)"/>
        <path id="Path_13384" d="M503.257 725.96c.933-1.439 1.672-3.117 3.839-2.425 1.635.523 2.761 2.252 3.359 4.01a9.632 9.632 0 0 1 .236 5.891 5.349 5.349 0 0 1-3.8 3.772c-3.124.62-5.231-2.648-5.734-5.7a5.028 5.028 0 0 1 1.213-4.444 5.841 5.841 0 0 0 .887-1.104z" class="cls-2" transform="translate(-330.522 -648.509)"/>
        <path id="Path_13385" d="M499.5 733.907a4.346 4.346 0 0 0 .851-.083 6.029 6.029 0 0 0 4.3-4.225 10.255 10.255 0 0 0-.241-6.306c-.779-2.295-2.16-3.911-3.787-4.43a3.656 3.656 0 0 0-3.321.691 2.975 2.975 0 0 0-1.152 2.625.67.67 0 0 0 1.333-.133 1.661 1.661 0 0 1 .667-1.452 2.316 2.316 0 0 1 2.075-.457c.577.185 2.019.9 2.933 3.588a8.919 8.919 0 0 1 .232 5.476 4.678 4.678 0 0 1-3.292 3.319 3.546 3.546 0 0 1-2.92-.833.667.667 0 1 0-.869 1.012 4.952 4.952 0 0 0 3.191 1.208z" class="cls-1" transform="translate(-323.849 -644.472)"/>
        <path id="Path_13386" d="M1358.9 210.389a14.14 14.14 0 0 0-12.758.372c-16.73 8.534-2.287 28.469 4.156 38.84 2.948 4.747 16.469 24.961 17.88 24.985 1.666.029 4.071-2.713 5.187-3.679 3.455-2.992 6.724-6.21 9.93-9.467 7.476-7.6 16.491-16.151 21.365-25.734 4.667-9.18.443-19.617-8.958-23.6-9.038-3.831-18.859 1.217-22.333 10.294-.313.821-2.055 4.237-1.915 4.91-1.431-6.854-6.209-14.015-12.554-16.921z" class="cls-3" transform="translate(-1337.688 -202.762)"/>
        <path id="Path_13387" d="M1363.861 270.988c1.589 0 3.437-1.781 4.789-3.085.317-.307.592-.571.808-.757 3.675-3.181 7.1-6.59 9.968-9.5q1.148-1.167 2.337-2.363c6.9-6.956 14.725-14.842 19.146-23.533a17.393 17.393 0 0 0 .948-13.967 18.28 18.28 0 0 0-10.238-10.55 16.638 16.638 0 0 0-13.114.008 18.889 18.889 0 0 0-10.1 10.667c-.077.2-.267.62-.492 1.1-.288.628-.533 1.168-.735 1.635-2.059-6.682-6.816-12.59-12.342-15.119a14.842 14.842 0 0 0-13.334.384c-4.083 2.081-6.667 5-7.667 8.676-1.1 4.008-.368 8.855 2.225 14.817a104.448 104.448 0 0 0 7.781 13.83c.553.871 1.075 1.692 1.553 2.463 1.393 2.243 5.483 8.458 9.535 14.292 7.632 10.986 8.366 11 8.9 11.007zm21.213-63.766a15.4 15.4 0 0 1 6.026 1.236 16.932 16.932 0 0 1 9.506 9.778 16.06 16.06 0 0 1-.883 12.907c-4.327 8.5-12.071 16.311-18.9 23.2l-2.34 2.365c-2.85 2.9-6.254 6.28-9.892 9.431-.243.209-.533.485-.86.8-1.024.988-2.718 2.619-3.774 2.708-.341-.244-1.909-1.733-8.24-10.875-3.734-5.38-7.672-11.348-9.191-13.792-.481-.775-1.005-1.6-1.56-2.473-4.839-7.623-12.154-19.141-9.847-27.58.9-3.3 3.252-5.936 6.988-7.84a13.559 13.559 0 0 1 12.178-.36 20.388 20.388 0 0 1 7.855 6.763 26.211 26.211 0 0 1 4.326 9.69.667.667 0 0 0 1.311-.239 20.778 20.778 0 0 1 1.353-3.384c.241-.525.432-.94.525-1.184a17.551 17.551 0 0 1 9.38-9.911 15.425 15.425 0 0 1 6.039-1.24zm-17.308 15.687z" class="cls-1" transform="translate(-1333.342 -198.496)"/>
        <path id="Path_13388" d="M1145.329 342.864a.667.667 0 0 0 .021-1.333l-15.982-.531a.667.667 0 0 0-.044 1.333l15.982.533z" class="cls-1" transform="translate(-1049.163 -317.117)"/>
        <path id="Path_13389" d="M1256.094 173.2a.667.667 0 0 0 .553-.293 121.791 121.791 0 0 1 7.43-9.89.667.667 0 1 0-1.023-.853 123.085 123.085 0 0 0-7.512 10 .667.667 0 0 0 .552 1.039z" class="cls-1" transform="translate(-1184.309 -161.904)"/>
        <path id="Path_13390" d="M1175.1 240.7a.667.667 0 0 0 .3-.072l9.892-5.031a.667.667 0 1 0-.605-1.188l-9.891 5.031a.667.667 0 0 0 .3 1.26z" class="cls-1" transform="translate(-1094.921 -224.676)"/>
        <path id="Path_13391" d="M767.722 1354.415a4.489 4.489 0 0 0-4.267-4.016 5.847 5.847 0 0 0-5.039 3.676 15.869 15.869 0 0 0-1.007 6.472q-.035 5.051.312 10.094l3.967-.069a26.586 26.586 0 0 0 6.934-.736c3.751-1.087 7.148-4.736 6.426-8.9a4.4 4.4 0 0 0-5.08-3.532 6.072 6.072 0 0 0-4.3 2.8 9.194 9.194 0 0 0 2.054-5.789z" class="cls-3" transform="translate(-628.798 -1191.927)"/>
        <path id="Path_13392" d="M753.434 1366.984h.012l3.968-.071a26.922 26.922 0 0 0 7.1-.76c4.012-1.163 7.688-5.092 6.9-9.654a5.093 5.093 0 0 0-5.832-4.078 6.749 6.749 0 0 0-1.912.573 8.253 8.253 0 0 0 .432-2.949 5.152 5.152 0 0 0-4.925-4.636h-.055c-2.595 0-4.679 2.036-5.6 4.067a16.513 16.513 0 0 0-1.067 6.743c-.023 3.369.083 6.781.313 10.144a.667.667 0 0 0 .666.621zm12.946-13.284a3.672 3.672 0 0 1 3.724 3.03c.52 3-1.564 6.872-5.955 8.144a26.108 26.108 0 0 1-6.752.709l-3.333.059c-.2-3.125-.289-6.288-.267-9.412a15.185 15.185 0 0 1 .947-6.2c.748-1.651 2.411-3.3 4.424-3.284a3.818 3.818 0 0 1 3.609 3.4 8.578 8.578 0 0 1-1.265 4.448 6.155 6.155 0 0 0-.7.944.667.667 0 0 0 1.067.8 6.368 6.368 0 0 0 .709-.933 5.5 5.5 0 0 1 3.193-1.652 4.313 4.313 0 0 1 .599-.053zm-2.933-3.6z" class="cls-1" transform="translate(-624.511 -1187.604)"/>
        <path id="Path_13393" d="M875.159 1371.413a2.967 2.967 0 0 0-2.051-1.467c-3.295-.533-2.933 3.215-2.613 5.143a4.988 4.988 0 0 0-4.184-3.537 2.8 2.8 0 0 0-1.349.213 2.237 2.237 0 0 0-1.217 1.867c-.119 1.571 1.121 2.908 2.328 4a61.123 61.123 0 0 0 5.508 4.434c-.111-.08 2.428-5.305 2.667-5.82.587-1.269 1.66-3.015 1.109-4.42a2.993 2.993 0 0 0-.198-.413z" class="cls-3" transform="translate(-743.339 -1208.823)"/>
        <path id="Path_13394" d="M867.249 1378.373a.67.67 0 0 0 .664-.6c.2-.581 1.733-3.769 2.239-4.839.187-.388.321-.667.368-.772.084-.183.18-.376.279-.577.633-1.289 1.423-2.895.845-4.365a3.719 3.719 0 0 0-2.759-2.288 2.871 2.871 0 0 0-2.64.679 3.737 3.737 0 0 0-.933 2.467 5.529 5.529 0 0 0-3.3-1.548 3.446 3.446 0 0 0-1.671.276 2.917 2.917 0 0 0-1.6 2.415c-.133 1.847 1.208 3.333 2.545 4.546a62.22 62.22 0 0 0 5.569 4.48.667.667 0 0 0 .394.126zm.389-1.208a.638.638 0 0 1 .181.195.665.665 0 0 0-.181-.195zm0 0zm0 0zm.533-10.958a3.136 3.136 0 0 1 .5.044 2.3 2.3 0 0 1 1.58 1.143 2.426 2.426 0 0 1 .152.315c.363.924-.283 2.236-.8 3.291-.1.211-.2.415-.293.607-.045.1-.177.375-.36.755-.391.816-.98 2.048-1.467 3.108-.223.481-.4.879-.533 1.187a60.658 60.658 0 0 1-4.748-3.878c-1.1-.993-2.207-2.181-2.109-3.455a1.561 1.561 0 0 1 .833-1.308 2.148 2.148 0 0 1 1.029-.152 4.348 4.348 0 0 1 3.564 2.981.667.667 0 1 0 1.315-.221c-.44-2.616-.043-3.659.369-4.072a1.267 1.267 0 0 1 .967-.345zm2.657.855z" class="cls-1" transform="translate(-739.007 -1204.471)"/>
        <path id="Path_13395" d="M753.228 1452.747a3.793 3.793 0 0 0-4.612-1.911 5.584 5.584 0 0 0-3.669 4.166 11.1 11.1 0 0 0 .476 5.208q1.036 3.867 2.4 7.615l3.485-1.125a28.856 28.856 0 0 0 5.956-2.433 8.554 8.554 0 0 0 3.987-4.556 6.952 6.952 0 0 0 .18-2.667 3.909 3.909 0 0 0-.565-1.851c-.944-1.373-3.268-1.549-5.036-.767a5.957 5.957 0 0 0-3.2 3.292 6.807 6.807 0 0 0 .598-4.971z" class="cls-3" transform="translate(-613.457 -1278.826)"/>
        <path id="Path_13396" d="M743.493 1464.16a.681.681 0 0 0 .205-.032l3.487-1.127a29.227 29.227 0 0 0 6.094-2.495 9.14 9.14 0 0 0 4.283-4.934 7.577 7.577 0 0 0 .2-2.933 4.584 4.584 0 0 0-.679-2.16c-1.184-1.724-3.907-1.867-5.855-1a7.032 7.032 0 0 0-1.44.857 5.689 5.689 0 0 0-.267-2.153l-.625.231.625-.231a4.453 4.453 0 0 0-5.426-2.319 6.284 6.284 0 0 0-4.133 4.667 11.806 11.806 0 0 0 .484 5.519c.692 2.583 1.507 5.163 2.421 7.671a.667.667 0 0 0 .626.439zm10.2-13.867a2.756 2.756 0 0 1 2.3.94 3.318 3.318 0 0 1 .451 1.541 6.2 6.2 0 0 1-.156 2.416 7.9 7.9 0 0 1-3.689 4.171 27.906 27.906 0 0 1-5.819 2.371l-2.872.927c-.813-2.28-1.541-4.616-2.168-6.954a10.458 10.458 0 0 1-.468-4.9 4.918 4.918 0 0 1 3.207-3.664 3.138 3.138 0 0 1 3.8 1.5 6.129 6.129 0 0 1-.187 3.612 5.288 5.288 0 0 0-.416.907.667.667 0 0 0 1.2.56 5.423 5.423 0 0 0 .432-.911 5.569 5.569 0 0 1 2.471-2.115 4.774 4.774 0 0 1 1.917-.4z" class="cls-1" transform="translate(-609.125 -1274.494)"/>
        <path id="Path_13397" d="M946.542 1380.119c-.716 1.312.048 2.957 1.057 4.059 2.165 2.365 5.371 3.551 7.6 5.854.843-1.791 2.025-3.4 2.857-5.2a7.582 7.582 0 0 0 .6-5.748 3.077 3.077 0 0 0-1.6-1.832 2.92 2.92 0 0 0-2.2.1 4.461 4.461 0 0 0-2.583 4.507c-.073-2.519-4.415-4.151-5.731-1.74z" class="cls-3" transform="translate(-837.826 -1215.048)"/>
        <path id="Path_13398" d="M950.83 1386.324a.619.619 0 0 0 .109-.009.667.667 0 0 0 .493-.373c.4-.852.9-1.689 1.377-2.5a29.863 29.863 0 0 0 1.481-2.705 8.277 8.277 0 0 0 .616-6.267 3.713 3.713 0 0 0-1.964-2.216 3.549 3.549 0 0 0-2.711.1 4.713 4.713 0 0 0-2.677 2.9 4.832 4.832 0 0 0-2.243-1.243 3.194 3.194 0 0 0-3.733 1.407c-.591 1.083-.6 2.919 1.152 4.829a20.189 20.189 0 0 0 4.021 3.135 20.2 20.2 0 0 1 3.592 2.732.668.668 0 0 0 .487.21zm.933-12.954a1.763 1.763 0 0 1 .667.123 2.435 2.435 0 0 1 1.224 1.451 7.026 7.026 0 0 1-.577 5.234 28.986 28.986 0 0 1-1.419 2.585c-.345.581-.7 1.177-1.025 1.792a26.583 26.583 0 0 0-3.152-2.283 18.949 18.949 0 0 1-3.767-2.917c-.8-.872-1.529-2.256-.964-3.289a1.968 1.968 0 0 1 2.248-.749c1.059.253 2.2 1.1 2.236 2.183a.667.667 0 0 0 .667.647h.02a.667.667 0 0 0 .647-.687 3.864 3.864 0 0 1 2.172-3.867 2.685 2.685 0 0 1 1.029-.221z" class="cls-1" transform="translate(-833.454 -1210.674)"/>
        <path id="Path_13399" d="M901.067 1413.94a3.2 3.2 0 0 0-2.816 1.333c-1.2 2.1-.021 5.254 1.423 6.907a18.432 18.432 0 0 0 5.683 4.195 79.386 79.386 0 0 0 9.446 2.983 36.618 36.618 0 0 0 .987-15.3 7.108 7.108 0 0 0-1.781-4.291 4.377 4.377 0 0 0-4.533-.74 5.455 5.455 0 0 0-3.067 3.547c-.477 1.665.255 3.009.2 4.548-1.455-1.792-3.068-3.208-5.542-3.182z" class="cls-3" transform="translate(-788.548 -1242.454)"/>
        <path id="Path_13400" d="M910.487 1425.635a.667.667 0 0 0 .64-.485 37.387 37.387 0 0 0 1-15.582 7.71 7.71 0 0 0-1.987-4.681 5.021 5.021 0 0 0-5.239-.869 5.935 5.935 0 0 0-3.5 6.781 6.591 6.591 0 0 0-4.6-1.911h-.061a3.8 3.8 0 0 0-3.388 1.671c-1.415 2.488.025 5.986 1.5 7.675a18.914 18.914 0 0 0 5.895 4.357 79.1 79.1 0 0 0 9.57 3.027.665.665 0 0 0 .17.017zm-3.652-20.657a3.553 3.553 0 0 1 2.4.884 6.582 6.582 0 0 1 1.575 3.9 36.112 36.112 0 0 1-.8 14.393 70.682 70.682 0 0 1-8.69-2.772 17.831 17.831 0 0 1-5.467-4.031c-1.408-1.613-2.323-4.42-1.345-6.134a2.6 2.6 0 0 1 2.241-1c2.293-.019 3.768 1.4 5.02 2.934a.667.667 0 0 0 1.183-.4 9 9 0 0 0-.188-1.9 5.346 5.346 0 0 1-.037-2.491 4.793 4.793 0 0 1 2.667-3.113 3.816 3.816 0 0 1 1.441-.277z" class="cls-1" transform="translate(-784.231 -1238.069)"/>
        <path id="Path_13401" d="M837.556 1455.105a2.986 2.986 0 0 0-2.884-.439 2.881 2.881 0 0 0-1.252 1.439 6.942 6.942 0 0 0-.319 4.34 17.313 17.313 0 0 0 1.623 4.107c.965 1.889 2.016 3.733 3.067 5.576l2.353 4.134a34.239 34.239 0 0 0 8.776-11.359 6.655 6.655 0 0 0 .865-4.267 4.1 4.1 0 0 0-3.132-2.948 5.089 5.089 0 0 0-4.234 1.148c-1.243 1.043-1.377 2.469-2.227 3.634-.192-2.142-.705-4.086-2.636-5.365z" class="cls-3" transform="translate(-713.604 -1282.108)"/>
        <path id="Path_13402" d="M835.815 1470.638a.667.667 0 0 0 .431-.157 35.069 35.069 0 0 0 8.954-11.581 7.268 7.268 0 0 0 .912-4.7 4.771 4.771 0 0 0-3.644-3.449 5.712 5.712 0 0 0-4.8 1.291 5.578 5.578 0 0 0-1.459 2.049 6.188 6.188 0 0 0-2.607-3.83 3.6 3.6 0 0 0-3.548-.48 3.469 3.469 0 0 0-1.563 1.759 7.635 7.635 0 0 0-.363 4.76 17.959 17.959 0 0 0 1.68 4.267c.972 1.9 2.043 3.784 3.079 5.6l2.355 4.133a.667.667 0 0 0 .461.327.7.7 0 0 0 .112.011zm5.6-18.667a3.745 3.745 0 0 1 .767.079 3.441 3.441 0 0 1 2.62 2.447 6.121 6.121 0 0 1-.817 3.824 33.714 33.714 0 0 1-8 10.612l-1.952-3.428c-1.017-1.8-2.084-3.667-3.039-5.544a16.882 16.882 0 0 1-1.565-3.947 6.334 6.334 0 0 1 .275-3.921 2.29 2.29 0 0 1 .941-1.117 2.386 2.386 0 0 1 2.22.4c1.773 1.175 2.173 3.036 2.34 4.874a.667.667 0 0 0 1.2.332 8.428 8.428 0 0 0 .852-1.579 4.952 4.952 0 0 1 1.264-1.937 4.6 4.6 0 0 1 2.9-1.093zm-8.192-1.16z" class="cls-1" transform="translate(-709.281 -1277.819)"/>
        <path id="Path_13403" d="M736.558 1442.35a47.192 47.192 0 0 0-8.891 23.98c-.667 8.155.615 17.107 7.148 22.689a21.874 21.874 0 0 0 9.55 4.676q.963.208 1.936.347c6.627.949 13.578.288 19.257-3.507 12.436-8.31 13.226-27.493 8.907-40.461.001.186-34.392 20.412-37.907-7.724z" class="cls-2" transform="translate(-626.508 -1271.618)"/>
        <path id="Path_13404" d="M747.183 1490.742a25.64 25.64 0 0 0 14.415-4c5.832-3.9 9.644-10.443 11.024-18.934a48.367 48.367 0 0 0-1.855-22.294.667.667 0 0 0-.743-.448.658.658 0 0 0-.337.164 58.282 58.282 0 0 1-10.624 4.848c-5.156 1.76-12.464 3.359-18 .981-4.578-1.964-7.326-6.386-8.17-13.142a.667.667 0 0 0-1.2-.313 47.934 47.934 0 0 0-9.019 24.321 37.238 37.238 0 0 0 .895 12.534 20.749 20.749 0 0 0 6.484 10.715 22.52 22.52 0 0 0 9.842 4.82c.64.133 1.307.259 1.983.356a37.389 37.389 0 0 0 5.305.392zm22.579-44a47.013 47.013 0 0 1 1.544 20.852c-.92 5.658-3.479 13.379-10.448 18.036-4.913 3.283-11.412 4.459-18.793 3.4-.644-.092-1.28-.207-1.889-.339a21.2 21.2 0 0 1-9.259-4.534 19.446 19.446 0 0 1-6.06-10.043 35.915 35.915 0 0 1-.857-12.084 46.78 46.78 0 0 1 7.815-22.3c.911 5.067 2.972 8.787 6.134 11.091 2.9 2.112 6.724 3.026 11.359 2.717a46.632 46.632 0 0 0 14.439-3.84c2.115-.905 3.808-1.761 4.856-2.321.509-.264.887-.479 1.159-.635zm-.295-1.015zm0 0zm0 0zm0 0zm0-.049v-.008zm0 0z" class="cls-1" transform="translate(-622.177 -1267.268)"/>
        <path id="Path_13405" d="M461.185 1027.875a.658.658 0 0 0 .316-.08c11.2-6.077 22.581-18.487 30.433-33.194 8.15-15.267 11.114-30.2 8.134-40.979a.667.667 0 0 0-1.285.356c1.483 5.354 1.457 11.734-.077 18.945a81.837 81.837 0 0 1-7.943 21.05c-7.734 14.486-18.907 26.692-29.89 32.65a.667.667 0 0 0 .319 1.252z" class="cls-1" transform="translate(-315.267 -847.632)"/>
        <path id="Path_13406" d="M529.01 1544.615a40.7 40.7 0 0 1-18.4 0 43.576 43.576 0 0 1-7.86-3.111c-1.875-.921-5.579-3.7-7.695-2.208-2.376 1.679 2.417 5.015 3.672 5.715l8.8 4.905c-3.7-1.619-7.341-2.995-10.934-4.831a10.739 10.739 0 0 0-3.593-1.333 1.737 1.737 0 0 0-1.2.2 1.526 1.526 0 0 0-.545 1.293 4.247 4.247 0 0 0 1.685 3.227 46.308 46.308 0 0 0 12.9 7.012c-2.4-.969-4.687-1.685-7.09-2.655a23.26 23.26 0 0 0-6.295-1.867 1.669 1.669 0 0 0-1.613.481 1.688 1.688 0 0 0 .267 1.712c1.295 2.1 4.308 3.6 6.518 4.7 15.2 7.571 31.382 7.688 35.368 7.564a27 27 0 0 0 .581-11.376 19.144 19.144 0 0 0-4.566-9.428z" class="cls-2" transform="translate(-352.024 -1355.262)"/>
        <path id="Path_13407" d="M527.082 1561.679c.677 0 1.2-.011 1.564-.021a.667.667 0 0 0 .616-.471 27.422 27.422 0 0 0 .6-11.688 19.754 19.754 0 0 0-4.751-9.784.667.667 0 0 0-.624-.181 39.982 39.982 0 0 1-18.073 0 42.164 42.164 0 0 1-7.734-3.067c-.344-.169-.777-.419-1.235-.681-2.147-1.233-5.086-2.922-7.139-1.467a2 2 0 0 0-.933 1.785c.051.933.737 2 2.044 3.157.235.208.472.4.707.591a10.362 10.362 0 0 0-3.413-1.2 2.335 2.335 0 0 0-1.657.315 2.163 2.163 0 0 0-.831 1.845 4.918 4.918 0 0 0 1.947 3.751c.82.627 1.639 1.217 2.465 1.775a14.676 14.676 0 0 0-2.48-.471 2.2 2.2 0 0 0-2.236.783 2.152 2.152 0 0 0 .252 2.424c1.393 2.267 4.508 3.813 6.783 4.947 13.966 6.957 28.746 7.658 34.128 7.658zm1.031-1.343c-4.1.08-19.8-.155-34.557-7.507-2.133-1.067-5.054-2.519-6.247-4.455-.276-.448-.38-.831-.267-1s.477-.231.991-.181a22.424 22.424 0 0 1 6.11 1.815c1.213.489 2.411.92 3.568 1.333.52.187 1.047.376 1.579.572q.957.391 1.964.755a.667.667 0 0 0 .477-1.245c-.659-.267-1.312-.513-1.956-.751a45.059 45.059 0 0 1-10.788-6.172 3.557 3.557 0 0 1-1.424-2.7.9.9 0 0 1 .267-.741 1.132 1.132 0 0 1 .74-.083 10.276 10.276 0 0 1 3.32 1.245l.047.025c2.481 1.267 5.028 2.335 7.492 3.367 1.139.477 2.316.971 3.479 1.48a.667.667 0 0 0 .592-1.192l-8.8-4.907c-1.395-.777-3.917-2.767-3.982-3.961-.009-.175.027-.385.368-.625 1.359-.959 3.973.544 5.7 1.539.477.275.933.533 1.313.721a43.62 43.62 0 0 0 7.984 3.159 41.394 41.394 0 0 0 18.331.091 19.006 19.006 0 0 1 4.143 8.812 26.867 26.867 0 0 1-.445 10.606z" class="cls-1" transform="translate(-347.655 -1350.836)"/>
        <path id="Path_13408" d="M1407.464 517.893a46.951 46.951 0 0 1-2.464-10.642c-.205-1.592-.147-3.615.955-4.428a1.781 1.781 0 0 1 2.415.533 8.66 8.66 0 0 1 1.348 2.857 44.29 44.29 0 0 0 8.236 14.442c2.035 2.5 4.123 4.975 6.351 7.3a13.526 13.526 0 0 1-5.59 10.855c-3.134 2.349-8.926 2.2-10.435.107-2.3-3.191-6.358-9.235-8.478-12.434l9.38-7.875z" class="cls-2" transform="translate(-1363.62 -457.118)"/>
        <path id="Path_13409" d="M1409.146 536.9a10.694 10.694 0 0 0 6.231-1.851 14.1 14.1 0 0 0 5.855-11.427.667.667 0 0 0-.183-.421c-2.357-2.464-4.516-5.055-6.318-7.266a43.284 43.284 0 0 1-8.119-14.231 9.34 9.34 0 0 0-1.467-3.08 2.441 2.441 0 0 0-3.32-.633c-1.487 1.1-1.4 3.636-1.217 5.051a49.122 49.122 0 0 0 2.653 10.944.667.667 0 1 0 1.251-.464 47.923 47.923 0 0 1-2.583-10.652c-.244-1.885.013-3.308.689-3.807.484-.359 1.123-.031 1.511.427a8.265 8.265 0 0 1 1.224 2.636 45.076 45.076 0 0 0 8.351 14.653c1.772 2.173 3.887 4.715 6.206 7.154a13.069 13.069 0 0 1-5.333 10.051 9.722 9.722 0 0 1-6.831 1.484 4.094 4.094 0 0 1-2.667-1.233c-2.457-3.412-7.356-10.74-9.036-13.275a.667.667 0 1 0-1.111.736c1.684 2.541 6.595 9.89 9.067 13.319a5.254 5.254 0 0 0 3.544 1.771 10.744 10.744 0 0 0 1.603.114z" class="cls-1" transform="translate(-1359.879 -452.826)"/>
    </g>
</svg>
