<svg xmlns="http://www.w3.org/2000/svg" xmlns:xlink="http://www.w3.org/1999/xlink" width="19" height="19" viewBox="0 0 19 19">
  <defs>
    <clipPath id="clip-path">
      <rect id="Rectangle_2449" data-name="Rectangle 2449" width="19" height="19" transform="translate(584 705)" fill="#fff" stroke="#707070" stroke-width="1"/>
    </clipPath>
  </defs>
  <g id="link-icon" transform="translate(-584 -705)" clip-path="url(#clip-path)">
    <g id="fi-rr-link" transform="translate(584.002 705)">
      <path id="Path_13600" data-name="Path 13600" d="M10.959,13.668,8.377,16.25a3.98,3.98,0,1,1-5.629-5.628L5.33,8.038A.792.792,0,1,0,4.21,6.919L1.629,9.5A5.563,5.563,0,0,0,9.5,17.37l2.582-2.582a.792.792,0,1,0-1.119-1.119Z"/>
      <path id="Path_13601" data-name="Path 13601" d="M17.37,1.631A5.524,5.524,0,0,0,13.437,0h0A5.528,5.528,0,0,0,9.5,1.628L6.918,4.211a.792.792,0,1,0,1.119,1.12l2.584-2.582a3.952,3.952,0,0,1,2.813-1.166h0a3.98,3.98,0,0,1,2.813,6.794l-2.582,2.582a.792.792,0,0,0,1.12,1.12L17.369,9.5a5.57,5.57,0,0,0,0-7.867Z"/>
      <path id="Path_13602" data-name="Path 13602" d="M11.314,6.565,6.565,11.314a.792.792,0,1,0,1.119,1.119l4.749-4.75a.792.792,0,1,0-1.119-1.119Z"/>
    </g>
  </g>
</svg>
