<svg xmlns="http://www.w3.org/2000/svg" xmlns:xlink="http://www.w3.org/1999/xlink" width="19" height="19" viewBox="0 0 19 19">
  <defs>
    <clipPath id="clip-path">
      <rect id="Rectangle_2448" data-name="Rectangle 2448" width="19" height="19" transform="translate(584 705)" fill="#fff" stroke="#707070" stroke-width="1"/>
    </clipPath>
  </defs>
  <g id="lock-icon" transform="translate(-584 -705)" clip-path="url(#clip-path)">
    <g id="fi-rr-lock" transform="translate(584 705)">
      <path id="Path_13598" data-name="Path 13598" d="M15.042,6.669V5.542a5.542,5.542,0,1,0-11.083,0V6.669a3.958,3.958,0,0,0-2.375,3.623v4.75A3.963,3.963,0,0,0,5.542,19h7.917a3.963,3.963,0,0,0,3.958-3.958v-4.75A3.958,3.958,0,0,0,15.042,6.669Zm-9.5-1.127a3.958,3.958,0,1,1,7.917,0v.792H5.542Zm10.292,9.5a2.375,2.375,0,0,1-2.375,2.375H5.542a2.375,2.375,0,0,1-2.375-2.375v-4.75A2.375,2.375,0,0,1,5.542,7.917h7.917a2.375,2.375,0,0,1,2.375,2.375Z"/>
      <path id="Path_13599" data-name="Path 13599" d="M9.5,11.083a.792.792,0,0,0-.792.792v1.583a.792.792,0,0,0,1.583,0V11.875A.792.792,0,0,0,9.5,11.083Z"/>
    </g>
  </g>
</svg>
