<svg xmlns="http://www.w3.org/2000/svg" xmlns:xlink="http://www.w3.org/1999/xlink" width="110" height="110" viewBox="0 0 110 110">
  <defs>
    <clipPath id="clip-path">
      <rect id="Rectangle_2323" data-name="Rectangle 2323" width="18" height="18" transform="translate(527.899 3646.899)" fill="#fff" stroke="#707070" stroke-width="1"/>
    </clipPath>
  </defs>
  <g id="map-mark" transform="translate(-485 -4955)">
    <circle id="Ellipse_1381" data-name="Ellipse 1381" cx="55" cy="55" r="55" transform="translate(485 4955)" fill="#222" opacity="0.1"/>
    <g id="Group_3552" data-name="Group 3552" transform="translate(0 1351)">
      <circle id="Ellipse_1350" data-name="Ellipse 1350" cx="20" cy="20" r="20" transform="translate(520 3639)" fill="#e15068"/>
      <g id="Mask_Group_59" data-name="Mask Group 59" transform="translate(3.102 3.101)" clip-path="url(#clip-path)">
        <path id="fi-rr-home" d="M17.146,6.731,11.521,1.105a3.714,3.714,0,0,0-5.244,0L.652,6.731A2.208,2.208,0,0,0,0,8.3v7.28a2.225,2.225,0,0,0,2.225,2.225H15.573A2.225,2.225,0,0,0,17.8,15.584V8.3A2.208,2.208,0,0,0,17.146,6.731Zm-6.022,9.595H6.674V13.408a2.225,2.225,0,0,1,4.449,0Zm5.191-.742a.742.742,0,0,1-.742.742H12.607V13.408a3.708,3.708,0,0,0-7.416,0v2.917H2.225a.742.742,0,0,1-.742-.742V8.3A.748.748,0,0,1,1.7,7.779L7.325,2.156a2.231,2.231,0,0,1,3.147,0L16.1,7.782a.748.748,0,0,1,.217.522Z" transform="translate(528 3646.984)" fill="#fff"/>
      </g>
    </g>
  </g>
</svg>
