<svg xmlns="http://www.w3.org/2000/svg" xmlns:xlink="http://www.w3.org/1999/xlink" width="24" height="24" viewBox="0 0 24 24">
  <defs>
    <clipPath id="clip-path">
      <rect id="Rectangle_2317" data-name="Rectangle 2317" width="24" height="24" transform="translate(313 834)" fill="#222"/>
    </clipPath>
  </defs>
  <g id="meter" transform="translate(-313 -834)" clip-path="url(#clip-path)">
    <g id="measure-tape" transform="translate(313 834)">
      <path id="Path_12481" data-name="Path 12481" d="M12,12V8.471a4.526,4.526,0,0,0-1.816-3.546,6.969,6.969,0,0,0-8.369,0A4.526,4.526,0,0,0,0,8.471v5.647a6.36,6.36,0,0,0,6.353,6.353H24V12ZM6,4.942c2.53,0,4.588,1.583,4.588,3.529V12H6c-2.53,0-4.588-1.583-4.588-3.529S3.47,4.942,6,4.942ZM1.412,14.118V11.661A6.508,6.508,0,0,0,5.647,13.4v.009H19.059v5.647H16.941V16.942H15.529v2.118H13.412V16.236H12v2.824H9.882V16.942H8.471v2.118H6.353a4.947,4.947,0,0,1-4.941-4.941Zm21.176,4.941H20.471V13.412h2.118Z"/>
      <path id="Path_12482" data-name="Path 12482" d="M3.812,9.983a4.255,4.255,0,0,0,4.375,0,1.908,1.908,0,0,0,.989-1.512,1.908,1.908,0,0,0-.989-1.512,4.255,4.255,0,0,0-4.375,0,1.908,1.908,0,0,0-.989,1.512A1.908,1.908,0,0,0,3.812,9.983ZM6,7.765a2.065,2.065,0,0,1,1.757.706A2.065,2.065,0,0,1,6,9.177a2.065,2.065,0,0,1-1.757-.706A2.065,2.065,0,0,1,6,7.765Z"/>
    </g>
  </g>
</svg>
