<svg xmlns="http://www.w3.org/2000/svg" xmlns:xlink="http://www.w3.org/1999/xlink" width="20" height="20" viewBox="0 0 20 20">
  <defs>
    <clipPath id="clip-path">
      <rect id="NoPath" width="20" height="20" transform="translate(1311 781)" fill="#2ebf8e"/>
    </clipPath>
  </defs>
  <g id="money-back" transform="translate(-1311 -781)" clip-path="url(#clip-path)">
    <g id="Untitled-1" transform="translate(1311.02 781)">
      <path id="Path_12427" data-name="Path 12427" d="M5.142,28.161a.715.715,0,0,1-.433-.746c.011-1.868.005-3.736.005-5.6a.593.593,0,0,1,.677-.68H8.548a.743.743,0,0,0,.318-.069,5.115,5.115,0,0,1,2.564-.517,14.02,14.02,0,0,1,1.549.278,17.878,17.878,0,0,0,3.385.316,2.885,2.885,0,0,1,2.755,1.755c.057.118.092.126.191.049q.583-.457,1.174-.9a2.927,2.927,0,0,1,3.843.252,2.564,2.564,0,0,1,.344.44v.352a2.941,2.941,0,0,1-.284.361,16.292,16.292,0,0,1-1.444,1.309A11.643,11.643,0,0,1,16.6,27.332,13.5,13.5,0,0,1,12.351,27a5.54,5.54,0,0,0-2.523-.09c-.394.09-.417.079-.395.469A.715.715,0,0,1,9,28.163Zm12.932-4.687a.722.722,0,0,0-.023-.09,1.158,1.158,0,0,0-.066-.141,1.736,1.736,0,0,0-1.6-.922,18.329,18.329,0,0,1-4.3-.482,3.744,3.744,0,0,0-2.511.2.2.2,0,0,0-.141.215q.006,1.68,0,3.359c0,.134.015.177.17.142a5.686,5.686,0,0,1,2.472-.02,20.667,20.667,0,0,0,2.355.409,10.676,10.676,0,0,0,3.954-.318,11.251,11.251,0,0,0,4.766-2.808c.111-.1.058-.137-.037-.186a1.694,1.694,0,0,0-1.888.133c-.535.391-1.036.826-1.6,1.185a2.863,2.863,0,0,1-1.574.492q-2.239,0-4.482,0a.65.65,0,0,1-.211-.023.591.591,0,0,1-.412-.65.573.573,0,0,1,.584-.5q2.164,0,4.327,0ZM8.261,24.653c0-.722,0-1.444,0-2.166,0-.137-.021-.191-.177-.189-.677.009-1.35.008-2.026,0-.145,0-.184.035-.183.182q.009,2.166,0,4.333c0,.129.023.18.167.179q1.022-.011,2.045,0c.139,0,.172-.04.171-.174C8.257,26.1,8.261,25.375,8.261,24.653Z" transform="translate(-4.708 -8.163)" fill="#2ebf8e"/>
      <path id="Path_12428" data-name="Path 12428" d="M23.035,8.163a.716.716,0,0,1,.433.746c-.009,3.078-.005,6.156-.005,9.233a.583.583,0,0,1-.636.644H6.578a.588.588,0,0,1-.655-.663c0-3.073,0-6.145-.006-9.214a.717.717,0,0,1,.434-.746ZM14.713,9.334q-3.7,0-7.405,0c-.179,0-.222.047-.221.223q.009,3.925,0,7.849c0,.162.025.219.208.219q7.4-.01,14.79,0c.173,0,.212-.043.212-.214q-.008-3.935,0-7.869c0-.187-.064-.205-.22-.2Q18.4,9.338,14.713,9.334Z" transform="translate(-4.708 -8.163)" fill="#2ebf8e"/>
      <path id="Path_12429" data-name="Path 12429" d="M11.77,13.469a2.923,2.923,0,1,1,2.9,2.974A2.945,2.945,0,0,1,11.77,13.469Zm4.677,0a1.754,1.754,0,1,0-1.741,1.8A1.814,1.814,0,0,0,16.446,13.474Z" transform="translate(-4.708 -8.163)" fill="#2ebf8e"/>
      <path id="Path_12430" data-name="Path 12430" d="M8.261,13.464V11.142a.577.577,0,0,1,.625-.634H10a.585.585,0,1,1-.007,1.169,3.876,3.876,0,0,1-.389,0c-.137-.012-.174.034-.173.172.006.839,0,1.678,0,2.517,0,.247.008.495,0,.741-.007.142.043.18.176.169a4.047,4.047,0,0,1,.428,0,.584.584,0,0,1,0,1.168c-.4.006-.792.005-1.188,0a.572.572,0,0,1-.583-.6C8.26,15.051,8.261,14.257,8.261,13.464Z" transform="translate(-4.708 -8.163)" fill="#2ebf8e"/>
      <path id="Path_12431" data-name="Path 12431" d="M21.124,13.494v2.3a.586.586,0,0,1-.653.646H19.4a.579.579,0,0,1-.613-.588.586.586,0,0,1,.619-.584c.179,0,.417.082.521-.039.087-.1.029-.334.03-.509,0-.956,0-1.912,0-2.868,0-.149-.041-.194-.185-.18a3.69,3.69,0,0,1-.409,0,.585.585,0,1,1,.011-1.169q.573,0,1.149,0a.573.573,0,0,1,.595.605C21.125,11.907,21.124,12.7,21.124,13.494Z" transform="translate(-4.708 -8.163)" fill="#2ebf8e"/>
    </g>
  </g>
</svg>
