<svg xmlns="http://www.w3.org/2000/svg" width="40" height="40" viewBox="0 0 40 40">
    <defs>
        <clipPath id="obg7dixzsa">
            <path fill="#222" d="M0 0H40V40H0z"/>
        </clipPath>
    </defs>
    <g clip-path="url(#obg7dixzsa)">
        <g>
            <g>
                <path d="M0 27.412h2.42v-5.459H0v-2.344h4.689v-5.468H7.8l-1.565-1.563H0v-2.343h7.2l3.906 3.906h6.3a7.373 7.373 0 0 1 5.248 2.174l3.295 3.295h3.131l1.562 1.562H40v1.452l-.068.191a11.14 11.14 0 0 1-7.016 6.875l-.226.075L0 29.755zm21-9.44a5.045 5.045 0 0 0-3.591-1.487H7.033v3.125H22.64zm11.3 9.45a8.8 8.8 0 0 0 4.73-3.906H12.189a5.087 5.087 0 0 0-4.941 3.906zm-27.54 0h.1a7.442 7.442 0 0 1 4.019-5.467H4.767z" transform="translate(0 10.235) translate(0 -10.235)"/>
            </g>
        </g>
    </g>
</svg>
