<svg xmlns="http://www.w3.org/2000/svg" width="40" height="40" viewBox="0 0 40 40">
    <defs>
        <clipPath id="clip-path">
            <path id="Rectangle_2418" d="M0 0H40V40H0z" class="cls-1" transform="translate(2.777)"/>
        </clipPath>
        <style>
            .cls-1{fill:#222}
        </style>
    </defs>
    <g id="party-icon" clip-path="url(#clip-path)" transform="translate(-2.777)">
        <g id="confetti" transform="translate(2.777)">
            <g id="Group_4172">
                <path id="Path_13514" d="M12.223 17.017a.781.781 0 0 0-1.257.215L.256 39.575l-.017.037a2.644 2.644 0 0 0 .529 2.978 2.56 2.56 0 0 0 1.834.767 2.974 2.974 0 0 0 1.145-.238l.037-.017 22.343-10.71a.781.781 0 0 0 .215-1.257zM11.9 18.9l7.9 7.9a21.174 21.174 0 0 1-10.008-3.506zM3.128 41.684a1.114 1.114 0 0 1-1.256-.2 1.114 1.114 0 0 1-.2-1.256l2.109-4.4a43.26 43.26 0 0 0 4.559 3.358zm15.311-7.34a20.7 20.7 0 0 1-2.887-.957.781.781 0 1 0-.6 1.444q.694.286 1.382.52l-6.324 3.032a40.958 40.958 0 0 1-5.53-4.007l2.186-4.559c.669.528 1.344 1.032 2.015 1.5a.781.781 0 0 0 .9-1.279c-.739-.518-1.483-1.078-2.219-1.668l1.755-3.66c4.009 2.438 7.778 3.668 11.235 3.668q.5 0 .992-.035l3.116 3.116z" class="cls-1" transform="translate(-.001 -3.358)"/>
                <path id="Path_13515" d="M18.422 9.1a4.232 4.232 0 0 1 .48.482c-.108.121-.327.32-.481.46a2.536 2.536 0 0 0 1.587 4.408h.122a2.517 2.517 0 0 0 1.7-.66 7.711 7.711 0 0 0 1.307-1.431A4.825 4.825 0 0 0 24 9.575a5.194 5.194 0 0 0-2.168-4.223 4.236 4.236 0 0 1-.48-.482c.108-.121.326-.32.481-.46A2.536 2.536 0 0 0 18.422.66a7.7 7.7 0 0 0-1.307 1.431 4.824 4.824 0 0 0-.861 2.791A5.193 5.193 0 0 0 18.422 9.1zm1.66 3.79a.973.973 0 0 1-.61-1.692c.195-.177.383-.348.539-.515l.743.75a.873.873 0 0 1 .015 1.216.964.964 0 0 1-.686.245zm2.358-3.315a3.283 3.283 0 0 1-.221 1.219 2.432 2.432 0 0 0-.354-.456l-2.01-2.03c-.123-.125-.253-.243-.378-.357a3.709 3.709 0 0 1-1.656-3.066 3.283 3.283 0 0 1 .221-1.219 2.432 2.432 0 0 0 .354.456l2.01 2.03c.123.125.253.243.378.357a3.709 3.709 0 0 1 1.656 3.066zm-2.313-8.013h.047a.973.973 0 0 1 .609 1.693c-.195.177-.382.347-.538.514L19.5 3.02a.873.873 0 0 1-.012-1.22.965.965 0 0 1 .639-.241z" class="cls-1" transform="translate(-3.251)"/>
                <path id="Path_13516" d="M37.315 12.067a2.346 2.346 0 0 0 3.314 0l1.1-1.1a2.346 2.346 0 0 0 0-3.314l-1.1-1.1a2.346 2.346 0 0 0-3.314 0l-1.1 1.1a2.348 2.348 0 0 0 0 3.314zm0-3.314l1.1-1.1a.786.786 0 0 1 1.1 0l1.1 1.1a.786.786 0 0 1 0 1.1l-1.1 1.1a.786.786 0 0 1-1.1 0l-1.1-1.1a.786.786 0 0 1 0-1.1z" class="cls-1" transform="translate(-7.106 -1.172)"/>
                <path id="Path_13517" d="M45.557 26.06a2.536 2.536 0 0 0-3.583.169c-.139.153-.338.372-.459.48a4.241 4.241 0 0 1-.482-.48 5.194 5.194 0 0 0-4.222-2.168 4.824 4.824 0 0 0-2.791.861 7.707 7.707 0 0 0-1.43 1.307l-.028.032a2.535 2.535 0 0 0 3.78 3.379c.139-.153.337-.372.458-.479a4.224 4.224 0 0 1 .482.48 5.193 5.193 0 0 0 4.218 2.168 4.824 4.824 0 0 0 2.791-.861 7.711 7.711 0 0 0 1.43-1.307 2.539 2.539 0 0 0-.169-3.582zm-2.427 1.22a.973.973 0 0 1 1.452 1.3.873.873 0 0 1-1.216-.015l-.75-.743c.167-.156.338-.344.514-.538zm-7.946 1.31a.973.973 0 0 1-1.451-1.3.873.873 0 0 1 1.216.015l.75.743c-.167.156-.337.343-.514.538zm3.254 0c-.114-.126-.232-.256-.358-.379l-2.03-2.01a2.435 2.435 0 0 0-.456-.354 3.283 3.283 0 0 1 1.219-.221 3.71 3.71 0 0 1 3.066 1.656c.114.125.232.255.356.378l2.03 2.01a2.436 2.436 0 0 0 .456.355 3.283 3.283 0 0 1-1.219.221 3.709 3.709 0 0 1-3.064-1.655z" class="cls-1" transform="translate(-6.386 -4.812)"/>
                <path id="Path_13518" d="M46.111 4.28a.781.781 0 0 0 0-1.562.781.781 0 1 0 0 1.562z" class="cls-1" transform="translate(-9.067 -.544)"/>
                <path id="Path_13519" d="M32.771 3.575a.781.781 0 0 0 0-1.562.781.781 0 1 0 0 1.562z" class="cls-1" transform="translate(-6.399 -.403)"/>
                <path id="Path_13520" d="M29.716 12.43a.781.781 0 0 0 0-1.562.781.781 0 0 0 0 1.562z" class="cls-1" transform="translate(-5.787 -2.174)"/>
                <path id="Path_13521" d="M28.97 21.421a.781.781 0 0 0 0-1.562.781.781 0 1 0 0 1.562z" class="cls-1" transform="translate(-5.638 -3.972)"/>
                <path id="Path_13522" d="M46.035 16.839a.781.781 0 1 0 .781-.782.781.781 0 0 0-.781.783z" class="cls-1" transform="translate(-9.208 -3.212)"/>
                <path id="Path_13523" d="M37.18 19.894a.781.781 0 1 0 .781-.782.781.781 0 0 0-.781.783z" class="cls-1" transform="translate(-7.437 -3.823)"/>
                <path id="Path_13524" d="M14.928 35.528a.781.781 0 1 0 .782.781.781.781 0 0 0-.783-.781z" class="cls-1" transform="translate(-2.83 -7.106)"/>
            </g>
        </g>
    </g>
</svg>
