<svg xmlns="http://www.w3.org/2000/svg" width="42" height="42" viewBox="0 0 42 42">
    <defs>
        <clipPath id="clip-path">
            <path id="Rectangle_2435" fill="#717171" stroke="#707070" d="M0 0H42V42H0z" transform="translate(149 929)"/>
        </clipPath>
        <style>
            .cls-3{fill:#717171}
        </style>
    </defs>
    <g id="partial-payment-icon" clip-path="url(#clip-path)" transform="translate(-149 -929)">
        <g id="wallet" transform="translate(149 929)">
            <path id="Path_13579" d="M12.782 38.011v-1.406a1.273 1.273 0 0 0-1.271-1.271H7.387a1.273 1.273 0 0 0-1.271 1.271v1.405a1.273 1.273 0 0 0 1.271 1.271h4.123a1.273 1.273 0 0 0 1.272-1.27zm-5.436 0v-1.406a.041.041 0 0 1 .041-.041h4.123a.041.041 0 0 1 .041.041v1.405a.041.041 0 0 1-.041.041H7.387a.041.041 0 0 1-.041-.04z" class="cls-3"/>
            <path id="Path_13580" d="M29.833 28.539a1.974 1.974 0 1 0 1.974 1.974 1.976 1.976 0 0 0-1.974-1.974zm0 2.718a.744.744 0 1 1 .744-.744.745.745 0 0 1-.744.744z" class="cls-3"/>
            <path id="Path_13581" d="M36.628 23.1h-.744v-8.9a1.976 1.976 0 0 0-1.974-1.974h-.744V4.013a1.3 1.3 0 0 0-1.295-1.295H19.577v-.79A1.93 1.93 0 0 0 17.649 0H6.684a1.93 1.93 0 0 0-1.928 1.928v2.213a.615.615 0 0 0 1.23 0V1.928a.7.7 0 0 1 .7-.7h.79v16.439H5.987V6.6a.615.615 0 0 0-1.23 0v5.686a3.332 3.332 0 0 0-2.717 3.256v23.12A3.337 3.337 0 0 0 5.372 42h2.846a.615.615 0 0 0 0-1.23H5.372a2.105 2.105 0 0 1-2.1-2.1V18.122a3.406 3.406 0 0 0 2.048.772h28.594a.745.745 0 0 1 .744.744v6.18h-7.543a1.976 1.976 0 0 0-1.974 1.974v5.436a1.976 1.976 0 0 0 1.974 1.974h7.539v4.821a.745.745 0 0 1-.744.744H10.679a.615.615 0 0 0 0 1.23H33.91a1.976 1.976 0 0 0 1.974-1.974v-4.818h.744a3.337 3.337 0 0 0 3.333-3.333v-5.436a3.337 3.337 0 0 0-3.333-3.336zM3.27 15.624a2.106 2.106 0 0 1 1.487-2.071v4.007a2.125 2.125 0 0 1-1.487-1.936zM19.641 3.948h12.231a.064.064 0 0 1 .064.064v13.655h-1.487V7.8a.948.948 0 0 0-.746-.931.966.966 0 0 1-.683-.683.958.958 0 0 0-.931-.746h-4.664a.948.948 0 0 0-.931.746.966.966 0 0 1-.683.683.958.958 0 0 0-.746.931v9.87h-1.488V4.013a.064.064 0 0 1 .064-.064zm9.577 13.718h-6.923V8a2.221 2.221 0 0 0 1.338-1.338h4.247A2.221 2.221 0 0 0 29.218 8zM18.346 1.928v15.739h-6.923V1.23h6.226a.7.7 0 0 1 .697.698zM8.7 17.667V1.23h1.487v16.437zm25.205 0h-.744v-4.206h.744a.745.745 0 0 1 .744.744v3.608a1.963 1.963 0 0 0-.739-.146zm4.821 14.205a2.105 2.105 0 0 1-2.1 2.1h-9.511a.745.745 0 0 1-.744-.744v-5.433a.745.745 0 0 1 .744-.744h8.833a.615.615 0 0 0 0-1.23h-.064v-1.488h.744a2.105 2.105 0 0 1 2.1 2.1v5.436z" class="cls-3"/>
            <path id="Path_13582" d="M25.756 12.231a1.974 1.974 0 1 0 1.974 1.974 1.976 1.976 0 0 0-1.974-1.974zm0 2.718a.744.744 0 1 1 .744-.744.745.745 0 0 1-.744.744z" class="cls-3"/>
            <path id="Path_13583" d="M25.756 10.743a.615.615 0 0 0 .615-.615V8.769a.615.615 0 0 0-1.23 0v1.359a.615.615 0 0 0 .615.615z" class="cls-3"/>
            <path id="Path_13584" d="M14.182 8.025h1.405a1.273 1.273 0 0 0 1.271-1.271V3.99a1.273 1.273 0 0 0-1.271-1.271h-1.405A1.273 1.273 0 0 0 12.91 3.99v2.764a1.273 1.273 0 0 0 1.272 1.271zm-.041-4.036a.041.041 0 0 1 .041-.041h1.405a.041.041 0 0 1 .041.041v2.765a.041.041 0 0 1-.041.041h-1.405a.041.041 0 0 1-.041-.041z" class="cls-3"/>
        </g>
    </g>
</svg>
