<svg xmlns="http://www.w3.org/2000/svg" width="40" height="40" viewBox="0 0 40 40">
    <defs>
        <clipPath id="clip-path">
            <path id="Rectangle_2418" d="M0 0H40V40H0z" class="cls-1" transform="translate(2.777)"/>
        </clipPath>
        <style>
            .cls-1{fill:#000}
        </style>
    </defs>
    <g id="pati-icon-white" clip-path="url(#clip-path)" transform="translate(-2.777)">
        <g id="track" transform="translate(2.777 1.671)">
            <g id="Group_4174">
                <g id="Group_4173">
                    <path id="Path_13525" d="M28.711 27.478a.781.781 0 1 0 .781.781.782.782 0 0 0-.781-.781z" class="cls-1" transform="translate(-5.586 -7.166)"/>
                    <path id="Path_13526" d="M31.95 30.226a19.585 19.585 0 0 1-3.909-5.926 6.689 6.689 0 0 0-12.347 0 18.9 18.9 0 0 1-4.182 6.185l-.008.007a6.7 6.7 0 0 0-2.229 4.984A6.629 6.629 0 0 0 12.3 41.1a7.412 7.412 0 0 0 6.077.981 14.1 14.1 0 0 1 7.012.015 7.364 7.364 0 0 0 6.049-.951 6.728 6.728 0 0 0 .515-10.917zm-1.377 9.614a5.8 5.8 0 0 1-4.766.75 15.657 15.657 0 0 0-7.846-.017 5.851 5.851 0 0 1-4.8-.774 5.081 5.081 0 0 1-2.328-4.321 5.135 5.135 0 0 1 1.705-3.817 20.116 20.116 0 0 0 4.586-6.741l.005-.012a5.126 5.126 0 0 1 9.467 0l.005.012a21.147 21.147 0 0 0 4.276 6.449.805.805 0 0 0 .071.062 5.166 5.166 0 0 1-.379 8.41z" class="cls-1" transform="translate(-1.855 -5.708)"/>
                    <path id="Path_13527" d="M31.207 31.277a.781.781 0 1 0-1.309.853 22.326 22.326 0 0 0 2.882 3.6.781.781 0 0 0 1.1-1.109 20.711 20.711 0 0 1-2.673-3.344z" class="cls-1" transform="translate(-5.954 -7.855)"/>
                    <path id="Path_13528" d="M19.762 12.757a7.937 7.937 0 0 0 .859-4.781c-.4-3.36-2.714-6.175-5.3-5.865a3.991 3.991 0 0 0-2.931 2.162 7.942 7.942 0 0 0-.859 4.781c.648 5.488 5.756 8.026 8.231 3.703zm-6.016-7.708a2.4 2.4 0 0 1 1.955-1.4c1.538 0 3.08 2.064 3.369 4.508a6.351 6.351 0 0 1-.663 3.821c-1.8 3.146-4.9.494-5.323-3.111a6.356 6.356 0 0 1 .662-3.818z" class="cls-1" transform="translate(-2.294 -2.088)"/>
                    <path id="Path_13529" d="M9.985 23.928a7.089 7.089 0 0 0-.774-4.336 7.089 7.089 0 0 0-3.089-3.141 4.235 4.235 0 0 0-3.879-.1 4.236 4.236 0 0 0-2.166 3.224 7.09 7.09 0 0 0 .774 4.336 7.09 7.09 0 0 0 3.089 3.14 4.247 4.247 0 0 0 3.879.1 4.236 4.236 0 0 0 2.166-3.223zM7.1 25.76a2.719 2.719 0 0 1-2.474-.111 5.523 5.523 0 0 1-2.389-2.455 5.522 5.522 0 0 1-.62-3.369 2.719 2.719 0 0 1 1.34-2.082 2.736 2.736 0 0 1 2.473.111 5.523 5.523 0 0 1 2.389 2.455 5.522 5.522 0 0 1 .62 3.369A2.719 2.719 0 0 1 7.1 25.76z" class="cls-1" transform="translate(0 -4.857)"/>
                    <path id="Path_13530" d="M31.267 14.96c2.368 0 4.53-2.586 4.922-5.887.416-3.517-1.356-6.964-4.17-6.964-2.369 0-4.53 2.586-4.921 5.887-.417 3.523 1.36 6.964 4.169 6.964zm-2.618-6.781c.289-2.444 1.832-4.508 3.369-4.508a1.479 1.479 0 0 1 .191.011 2.636 2.636 0 0 1 1.858 1.564 6.524 6.524 0 0 1 .57 3.643c-.3 2.532-1.978 4.7-3.561 4.5h-.009a2.6 2.6 0 0 1-1.849-1.562 6.527 6.527 0 0 1-.569-3.648z" class="cls-1" transform="translate(-5.407 -2.092)"/>
                    <path id="Path_13531" d="M47.408 19.579a4.031 4.031 0 0 0-6.044-3.123 7.444 7.444 0 0 0-3.864 7.477 4.031 4.031 0 0 0 6.044 3.123 7.443 7.443 0 0 0 3.864-7.477zm-4.551 6.074a2.72 2.72 0 0 1-2.474.111 2.719 2.719 0 0 1-1.34-2.082 5.889 5.889 0 0 1 3.009-5.824 2.484 2.484 0 0 1 3.814 1.971 5.887 5.887 0 0 1-3.01 5.823z" class="cls-1" transform="translate(-7.485 -4.858)"/>
                </g>
            </g>
        </g>
    </g>
</svg>
