<svg xmlns="http://www.w3.org/2000/svg" xmlns:xlink="http://www.w3.org/1999/xlink" width="19" height="19" viewBox="0 0 19 19">
  <defs>
    <clipPath id="clip-path">
      <rect id="Rectangle_2376" data-name="Rectangle 2376" width="19" height="19" transform="translate(650 365)" fill="#ddd" stroke="#707070" stroke-width="1"/>
    </clipPath>
  </defs>
  <g id="pax-gray" transform="translate(-650 -365)" clip-path="url(#clip-path)">
    <path id="fi-rr-users" d="M5.938,10.292A3.563,3.563,0,1,1,9.5,6.729a3.563,3.563,0,0,1-3.562,3.563Zm0-5.542A1.979,1.979,0,1,0,7.917,6.729,1.979,1.979,0,0,0,5.938,4.75Zm5.938,13.458v-.4A5.938,5.938,0,0,0,0,17.813v.4a.792.792,0,0,0,1.583,0v-.4a4.354,4.354,0,0,1,8.708,0v.4a.792.792,0,0,0,1.583,0ZM19,14.25a5.542,5.542,0,0,0-9.236-4.13A.792.792,0,1,0,10.82,11.3a3.958,3.958,0,0,1,6.6,2.951.792.792,0,0,0,1.583,0ZM13.854,7.125a3.563,3.563,0,1,1,3.563-3.562,3.563,3.563,0,0,1-3.563,3.563Zm0-5.542a1.979,1.979,0,1,0,1.979,1.979A1.979,1.979,0,0,0,13.854,1.583Z" transform="translate(650 365)" fill="#ddd"/>
  </g>
</svg>
