<svg xmlns="http://www.w3.org/2000/svg" width="520.24" height="52.025" viewBox="0 0 520.24 52.025">
    <defs>
        <style>
            .cls-1{fill:#f4f7ff}.cls-2{fill:#0066b2}.cls-4{fill:#2ebf8e}.cls-10,.cls-5{fill:#ec1c2e}.cls-6{fill:#0084c4}.cls-11,.cls-7{fill:#fff}.cls-12,.cls-8{fill:none;stroke:#fff}.cls-8{stroke-width:.215px}.cls-9{fill:#fbb231}.cls-10,.cls-11,.cls-9{fill-rule:evenodd}.cls-12{stroke-miterlimit:2.613;stroke-width:.216px}.cls-13{fill:#147591}
        </style>
    </defs>
    <g id="payment-logos" transform="translate(479.131 314.746)">
        <g id="Group_367" transform="translate(-479.131 -314.746)">
            <path id="Rectangle_115" d="M4.18 0h74.88a4.18 4.18 0 0 1 4.18 4.18v43.662a4.182 4.182 0 0 1-4.182 4.182H4.18A4.18 4.18 0 0 1 0 47.844V4.18A4.18 4.18 0 0 1 4.18 0z" class="cls-1"/>
            <g id="Group_366" transform="translate(16.703 17.929)">
                <g id="Group_365">
                    <path id="Path_2160" d="M-423.471-271.69h-4.066l2.537-15.618h4.067z" class="cls-2" transform="translate(445.073 287.587)"/>
                    <path id="Path_2161" d="M-439.846-287.308l-3.876 10.742-.459-2.313-1.368-7.024a1.74 1.74 0 0 0-1.929-1.406h-6.408l-.075.265a15.183 15.183 0 0 1 4.254 1.785l3.533 13.569h4.236l6.47-15.619z" class="cls-2" transform="translate(453.962 287.587)"/>
                    <path id="Path_2162" d="M-389.936-271.689h3.734l-3.256-15.619h-3.268a1.87 1.87 0 0 0-1.878 1.163l-6.064 14.455h4.238l.848-2.32h5.169zm-4.475-5.525l2.136-5.846 1.2 5.846z" class="cls-2" transform="translate(436.036 287.587)"/>
                    <path id="Path_2163" d="M-406.057-283.694l.58-3.354a11.743 11.743 0 0 0-3.657-.681c-2.019 0-6.811.883-6.811 5.17 0 4.036 5.625 4.086 5.625 6.2s-5.045 1.74-6.71.4l-.6 3.506a11.386 11.386 0 0 0 4.59.883c2.774 0 6.962-1.437 6.962-5.347 0-4.06-5.675-4.44-5.675-6.2s3.953-1.536 5.696-.577z" class="cls-2" transform="translate(441.743 287.729)"/>
                </g>
                <path id="Path_2164" fill="#f9a533" d="M-444.182-278.878l-1.368-7.024a1.74 1.74 0 0 0-1.929-1.406h-6.408l-.075.265a15.76 15.76 0 0 1 6.035 3.029 12.169 12.169 0 0 1 3.745 5.136z" transform="translate(453.962 287.587)"/>
            </g>
        </g>
        <g id="Group_370" transform="translate(-42.371 -314.746)">
            <path id="Rectangle_116" d="M4.182 0h74.877a4.181 4.181 0 0 1 4.181 4.181v43.663a4.181 4.181 0 0 1-4.181 4.181H4.18A4.18 4.18 0 0 1 0 47.845V4.182A4.182 4.182 0 0 1 4.182 0z" class="cls-1" transform="translate(.24)"/>
            <g id="shopify-ssl-secured" transform="translate(9.161 10.528)">
                <path id="Path_12382" d="M0 31.171h22.4V15.378H0zm7.924-9.133l2.112 2.112 4.891-4.891 1.57 1.57-6.462 6.461-3.682-3.682zM6.606 8.375a4.593 4.593 0 0 1 9.187 0v4.747h3.79V8.375a8.375 8.375 0 0 0-16.75 0v4.747h3.79V8.375zm34.149 5.631c0-2.274-1.336-3.574-3.447-4.368l-1.949-.83c-1.552-.56-2.635-.939-2.635-1.9 0-.939.812-1.462 2.021-1.462a5.751 5.751 0 0 1 3.7 1.281l1.84-2.287a7.834 7.834 0 0 0-5.343-2.112c-3.465 0-5.884 2.112-5.884 4.783a4.665 4.665 0 0 0 3.43 4.389l2.076.884c1.534.632 2.491.939 2.491 2.076 0 .812-.722 1.408-2.256 1.408a6.855 6.855 0 0 1-4.26-1.679l-2.094 2.491a9.193 9.193 0 0 0 6.1 2.31c3.972-.002 6.21-2.331 6.21-4.984zm8.862-4.368l-1.949-.83c-1.552-.56-2.635-.939-2.635-1.9 0-.939.812-1.462 2.021-1.462a5.751 5.751 0 0 1 3.7 1.281l1.841-2.287a7.834 7.834 0 0 0-5.343-2.112c-3.465 0-5.884 2.112-5.884 4.783A4.665 4.665 0 0 0 44.8 11.5l2.076.884c1.534.632 2.491.939 2.491 2.076 0 .812-.722 1.408-2.256 1.408a6.855 6.855 0 0 1-4.26-1.679l-2.094 2.491a9.193 9.193 0 0 0 6.1 2.31c3.989 0 6.227-2.31 6.227-4.982-.02-2.276-1.337-3.576-3.467-4.37z" class="cls-4"/>
                <path id="Path_12383" d="M305.31 27.513V14.5h-3.61v16.064h10.757v-3.05z" class="cls-4" transform="translate(-247.246 -11.883)"/>
                <path id="Path_12384" d="M160.847 119.775l-.975-.415c-.6-.253-1.245-.487-1.245-1.155 0-.632.542-1.011 1.354-1.011a2.515 2.515 0 0 1 1.715.65l.469-.578a3.036 3.036 0 0 0-2.148-.866 2.023 2.023 0 0 0-2.274 1.841 2 2 0 0 0 1.5 1.787l.993.433c.7.307 1.245.523 1.245 1.263 0 .65-.56 1.1-1.516 1.1a2.9 2.9 0 0 1-2.04-.866l-.523.614a3.51 3.51 0 0 0 2.527 1.029c1.534 0 2.455-.884 2.455-1.985-.002-1.029-.684-1.498-1.537-1.841z" class="cls-4" transform="translate(-128.991 -95.391)"/>
                <path id="Path_12385" d="M196.284 120.782h2.888v-.758h-2.888v-2.184h3.416v-.74h-4.3v6.949h4.4v-.758h-3.52z" class="cls-4" transform="translate(-160.132 -95.965)"/>
                <path id="Path_12386" d="M230.722 122.744c-1.336 0-2.2-1.1-2.2-2.852 0-1.733.866-2.816 2.2-2.816a1.839 1.839 0 0 1 1.39.632l.505-.56a2.538 2.538 0 0 0-1.9-.848c-1.8 0-3.122 1.372-3.122 3.61 0 2.274 1.318 3.61 3.032 3.61a2.7 2.7 0 0 0 2.148-1.011l-.505-.541a1.907 1.907 0 0 1-1.548.776zm7.22-1.949c0 1.444-.632 1.967-1.48 1.967-.83 0-1.462-.523-1.462-1.967v-4.35h-.884v4.332c0 1.985.993 2.762 2.346 2.762s2.328-.758 2.328-2.762v-4.332h-.866v4.35zm7.346-2.4c0-1.444-1.011-1.949-2.419-1.949H240.7v6.949h.884v-2.942h1.245l1.679 2.942h1.011l-1.769-3.032a1.912 1.912 0 0 0 1.538-1.969zm-2.563 1.336h-1.155v-2.581h1.155c1.083 0 1.679.325 1.679 1.245-.004.905-.596 1.334-1.679 1.334z" class="cls-4" transform="translate(-186.52 -95.309)"/>
                <path id="Path_12387" d="M337 120.782h2.888v-.758H337v-2.184h3.411v-.74H336.1v6.949h4.422v-.758H337z" class="cls-4" transform="translate(-275.437 -95.965)"/>
            </g>
        </g>
        <g id="Group_392" transform="translate(-260.751 -314.746)">
            <path id="Rectangle_117" d="M4.18 0h74.879a4.181 4.181 0 0 1 4.181 4.181v43.661a4.182 4.182 0 0 1-4.182 4.182H4.181A4.181 4.181 0 0 1 0 47.843V4.18A4.18 4.18 0 0 1 4.18 0z" class="cls-1"/>
            <g id="Group_391" transform="translate(16.748 11.073)">
                <path id="Path_2174" d="M-80.744-268.181l.772-.02.76-.059.747-.094.736-.133.727-.166.712-.2.692-.235.682-.271.663-.3.644-.329.628-.359.6-.392.588-.417.565-.442.545-.471.52-.5.49-.521.472-.545.447-.564.418-.584.388-.609.359-.629.333-.644.3-.662.265-.683.236-.691.2-.712.168-.722.132-.741.093-.746.059-.761.021-.771-.021-.765-.059-.756-.093-.741-.132-.736-.168-.717-.2-.707-.236-.693-.265-.677-.3-.658-.333-.644-.359-.624-.388-.609-.418-.583-.447-.565-.472-.54-.49-.52-.52-.492-.545-.471-.565-.442-.588-.417-.6-.387-.628-.358-.644-.335-.663-.3-.682-.266-.692-.235-.712-.2-.727-.167-.736-.133-.747-.093-.76-.059-.772-.02-.771.02-.761.059-.746.093-.737.133-.726.167-.707.2-.7.235-.677.266-.663.3-.644.335-.624.358-.608.387-.585.417-.564.442-.539.471-.517.492-.5.52-.472.54-.442.565-.416.583-.388.609-.359.624-.33.644-.294.658-.27.677-.236.693-.2.707-.167.717-.133.736-.093.741-.059.756-.019.765.019.771.059.761.093.746.133.741.167.722.2.712.236.691.27.683.294.662.33.644.359.629.388.609.416.584.442.564.472.545.5.521.517.5.539.471.564.442.585.417.608.392.624.359.644.329.663.3.677.271.7.235.707.2.726.166.737.133.746.094.761.059z" class="cls-5" transform="translate(115.524 298.061)"/>
                <path id="Path_2175" d="M-110.618-268.181l.771-.02.761-.059.746-.094.737-.133.726-.166.708-.2.7-.235.677-.271.663-.3.643-.329.623-.359.609-.392.584-.417.564-.442.541-.471.52-.5.492-.521.471-.545.442-.564.417-.584.388-.609.359-.629.328-.644.3-.662.266-.683.235-.691.2-.712.167-.722.132-.741.093-.746.059-.761.02-.771-.02-.765-.059-.756-.093-.741-.132-.736-.167-.717-.2-.707-.235-.693-.266-.677-.3-.658-.328-.644-.359-.624-.388-.609-.417-.583-.442-.565-.471-.54-.492-.52-.52-.492-.541-.471-.564-.442-.584-.417-.609-.387-.623-.358-.643-.335-.663-.3-.677-.266-.7-.235-.708-.2-.726-.167-.737-.133-.746-.093-.761-.059-.771-.02-.771.02-.761.059-.746.093-.737.133-.726.167-.713.2-.692.235-.682.266-.663.3-.644.335-.628.358-.6.387-.59.417-.564.442-.545.471-.515.492-.5.52-.472.54-.446.565-.418.583-.388.609-.359.624-.333.644-.3.658-.265.677-.236.693-.2.707-.168.717-.132.736-.093.741-.059.756-.019.765.019.771.059.761.093.746.132.741.168.722.2.712.236.691.265.683.3.662.333.644.359.629.388.609.418.584.446.564.472.545.5.521.515.5.545.471.564.442.59.417.6.392.628.359.644.329.663.3.682.271.692.235.713.2.726.166.737.133.746.094.761.059z" class="cls-6" transform="translate(125.582 298.061)"/>
                <path id="Path_2176" d="M-90.878-289.909h7.578v-.835h-6.844z" class="cls-5" transform="translate(113.909 295.6)"/>
                <path id="Path_2177" d="M-92.669-287.244h8.769v-.83h-8.233z" class="cls-5" transform="translate(114.511 294.702)"/>
                <path id="Path_2178" d="M-94.009-284.539h9.653v-.835H-93.6z" class="cls-5" transform="translate(114.962 293.793)"/>
                <path id="Path_2179" d="M-94.88-281.873h10.231v-.83h-9.976z" class="cls-5" transform="translate(115.255 292.895)"/>
                <path id="Path_2180" d="M-95.45-279.205h10.61v-.835H-95.3z" class="cls-5" transform="translate(115.447 291.999)"/>
                <path id="Path_2181" d="M-95.606-274.034h10.688v-.835h-10.761z" class="cls-5" transform="translate(115.524 290.26)"/>
                <path id="Path_2182" d="M-95.261-271.215h10.433v-.835h-10.585z" class="cls-5" transform="translate(115.434 289.312)"/>
                <path id="Path_2183" d="M-94.551-268.928h9.926v-.835h-10.182z" class="cls-5" transform="translate(115.23 288.543)"/>
                <path id="Path_2184" d="M-93.487-266.147h9.171v-.834h-9.573z" class="cls-5" transform="translate(114.922 287.607)"/>
                <path id="Path_2185" d="M-91.96-263.328h8.1v-.834h-8.66z" class="cls-5" transform="translate(114.461 286.659)"/>
                <path id="Path_2186" d="M-90.036-260.621h6.7v-.834h-7.428z" class="cls-5" transform="translate(113.872 285.748)"/>
                <g id="Group_372" transform="translate(47.27 23.507)">
                    <g id="Group_371">
                        <path id="Path_2187" d="M-54.332-262.059l.044-.133.073-.123.094-.108.108-.089.122-.068.133-.044.142-.015.147.015.138.044.122.068.108.089.088.108.069.123.045.133h-.152l-.03-.093-.053-.1-.069-.088-.084-.069-.1-.053-.113-.035-.117-.01-.118.01-.114.035-.1.053-.088.069-.07.088-.053.1-.029.093z" class="cls-5" transform="translate(54.346 262.639)"/>
                        <path id="Path_2188" d="M-53.636-261.855v-.177h.343l.053.005.05.015.039.019.03.025.024.029.015.034.005.045h-.123l-.005-.025-.01-.02-.015-.02-.019-.015-.025-.01h-.024l-.025-.005h-.182v.1z" class="cls-5" transform="translate(54.112 262.435)"/>
                        <path id="Path_2189" d="M-54.346-261.638l.01-.123h.147v.024l-.011.1z" class="cls-5" transform="translate(54.351 262.345)"/>
                        <path id="Path_2190" d="M-53.636-261.638v-.128h.127v.1h.241l.025-.01.015-.01.015-.019.01-.025v-.034h.128l-.005.044-.01.04-.014.029-.015.015z" class="cls-5" transform="translate(54.112 262.345)"/>
                        <path id="Path_2191" d="M-52.386-261.638l-.009-.1v-.024h.152l.015.123z" class="cls-5" transform="translate(53.696 262.345)"/>
                        <path id="Path_2192" d="M-54.349-261.573v.024l.014.147.044.138.073.118.094.108.108.083.122.064.133.039.142.015.147-.015.138-.039.122-.064.108-.083.088-.108.069-.118.045-.138.015-.147v-.024h-.153v.024l-.009.128-.035.118-.053.1-.069.088-.084.073-.1.054-.113.034-.117.01-.118-.01-.114-.034-.1-.054-.088-.073-.07-.088-.053-.1-.034-.118-.011-.128v-.024z" class="cls-5" transform="translate(54.353 262.281)"/>
                        <path id="Path_2193" d="M-53.636-261.573v.3h.127v-.25h.128l.152.25h.128l-.182-.25.044-.006.044-.005.035-.014.029-.019.01-.01z" class="cls-5" transform="translate(54.112 262.281)"/>
                    </g>
                </g>
                <path id="Path_2194" d="M-81.049-278.37h-.1l-.1-.01-.089-.015-.088-.008-.089-.016-.088-.015-.093-.015-.1-.015-.1-.011-.109-.009-.123-.01-.133-.005h-.139l-.162.005-.182.01-.2.015-.143.02-.133.029-.122.04-.108.044-.1.053-.088.06-.074.068-.058.069-.044.079-.029.083-.015.083v.089l.02.093.034.093.054.093.069.093.143.128.167.1.2.088.211.073.221.074.231.074.235.083.226.1.211.118.2.143.176.182.147.215.113.265.074.315.025.373-.025.442-.054.329-.089.294-.112.265-.143.235-.166.206-.182.177-.2.152-.215.133-.226.108-.235.088-.241.075-.241.053-.24.039-.236.025-.225.015-.222.006h-.305l-.274-.006h-.481l-.211-.01-.187-.01-.176-.014-.158-.021-.147-.02-.138-.025-.128-.024-.127-.035-.118-.034-.118-.034-.117-.044-.123-.044.3-1.541.069.015.083.024.1.025.113.029.132.025.147.035.157.028.167.03.177.025.187.025.192.02.2.019.2.01h.413l.21-.01.2-.034.162-.054.123-.079.1-.088.074-.1.054-.107.044-.109.029-.108.015-.113v-.1l-.024-.093-.04-.078-.053-.079-.069-.069-.084-.064-.093-.059-.1-.053-.112-.054-.123-.054-.129-.049-.127-.05-.137-.054-.138-.054-.142-.059-.138-.059-.137-.064-.138-.073-.133-.078-.127-.084-.119-.093-.112-.108-.1-.113-.093-.128-.084-.137-.069-.152-.059-.162-.04-.182-.025-.2-.005-.216.016-.231.014-.142.02-.138.02-.132.029-.128.03-.124.034-.122.044-.113.044-.112.053-.1.054-.1.064-.094.069-.093.074-.088.078-.084.083-.078.093-.074.1-.069.1-.064.113-.059.119-.059.122-.049.133-.049.139-.039.146-.04.158-.034.162-.029.167-.025.177-.02.186-.015.2-.009.2-.01h.706l.212.006.2.009.172.01.158.01.142.015.123.01.113.015.1.015.093.009.078.015.07.01.064.01.058.01.054.005z" class="cls-7" transform="translate(112.592 292.024)"/>
                <g id="Group_374" transform="translate(25.628 11.911)">
                    <g id="Group_373">
                        <path id="Path_2195" d="M-81.049-278.37h-.1l-.1-.01-.089-.015-.088-.008-.089-.016-.088-.015-.093-.015-.1-.015-.1-.011-.109-.009-.123-.01-.133-.005h-.139l-.162.005-.182.01-.2.015-.143.02-.133.029-.122.04-.108.044-.1.053-.088.06-.074.068-.058.069-.044.079-.029.083-.015.083v.089l.02.093.034.093.054.093.069.093.143.128.167.1.2.088.211.073.221.074.231.074.235.083.226.1.211.118.2.143.176.182.147.215.113.265.074.315.025.373-.025.442-.054.329-.089.294-.112.265-.143.235-.166.206-.182.177-.2.152-.215.133-.226.108-.235.088-.241.075-.241.053-.24.039-.236.025-.225.015-.222.006h-.305l-.274-.006h-.481l-.211-.01-.187-.01-.176-.014-.158-.021-.147-.02-.138-.025-.128-.024-.127-.035-.118-.034-.118-.034-.117-.044-.123-.044.3-1.541.069.015.083.024.1.025.113.029.132.025.147.035.157.028.167.03.177.025.187.025.192.02.2.019.2.01h.413l.21-.01.2-.034.162-.054.123-.079.1-.088.074-.1.054-.107.044-.109.029-.108.015-.113v-.1l-.024-.093-.04-.078-.053-.079-.069-.069-.084-.064-.093-.059-.1-.053-.112-.054-.123-.054-.129-.049-.127-.05-.137-.054-.138-.054-.142-.059-.138-.059-.137-.064-.138-.073-.133-.078-.127-.084-.119-.093-.112-.108-.1-.113-.093-.128-.084-.137-.069-.152-.059-.162-.04-.182-.025-.2-.005-.216.016-.231.014-.142.02-.138.02-.132.029-.128.03-.124.034-.122.044-.113.044-.112.053-.1.054-.1.064-.094.069-.093.074-.088.078-.084.083-.078.093-.074.1-.069.1-.064.113-.059.119-.059.122-.049.133-.049.139-.039.146-.04.158-.034.162-.029.167-.025.177-.02.186-.015.2-.009.2-.01h.706l.212.006.2.009.172.01.158.01.142.015.123.01.113.015.1.015.093.009.078.015.07.01.064.01.058.01.054.005-.354 1.591" class="cls-8" transform="translate(86.964 280.113)"/>
                    </g>
                </g>
                <path id="Path_2196" d="M-76.3-282.437h1.974l-.3 1.719h1.213l-.275 1.566-1.242-.025-.653 3.913-.01.083v.074l.01.064.02.059.029.049.033.049.045.04.049.029.059.03.059.024.068.02.069.01.079.015h.078l.083.005h.241l.137-.01.127-.02.109-.025.083-.024.065-.025.039-.02h.015l-.2 1.34-.049.029-.054.025-.054.024-.055.025-.053.019-.06.019-.058.019-.068.02-.07.019-.073.015-.083.015-.088.015-.093.015-.1.015-.113.015-.118.015h-.53l-.28-.02-.25-.029-.22-.04-.192-.055-.162-.058-.137-.074-.112-.083-.093-.094-.074-.1-.054-.113-.034-.122-.019-.137-.005-.143.005-.157.014-.162.025-.177z" class="cls-7" transform="translate(109.462 292.806)"/>
                <g id="Group_376" transform="translate(31.804 10.369)">
                    <g id="Group_375">
                        <path id="Path_2197" d="M-76.3-282.437h1.974l-.3 1.719h1.213l-.275 1.566-1.242-.025-.653 3.913-.01.083v.074l.01.064.02.059.029.049.033.049.045.04.049.029.059.03.059.024.068.02.069.01.079.015h.078l.083.005h.241l.137-.01.127-.02.109-.025.083-.024.065-.025.039-.02h.015l-.2 1.34-.049.029-.054.025-.054.024-.055.025-.053.019-.06.019-.058.019-.068.02-.07.019-.073.015-.083.015-.088.015-.093.015-.1.015-.113.015-.118.015h-.53l-.28-.02-.25-.029-.22-.04-.192-.055-.162-.058-.137-.074-.112-.083-.093-.094-.074-.1-.054-.113-.034-.122-.019-.137-.005-.143.005-.157.014-.162.025-.177 1.31-7.678" class="cls-8" transform="translate(77.658 282.437)"/>
                    </g>
                </g>
                <path id="Path_2198" d="M-94.752-275.683l-.025.123v.123l.009.133.03.128.039.133.059.132.069.127.083.123.093.118.108.114.112.1.123.093.132.078.138.064.148.049.146.034.178.025.176.024.182.02.181.01h.368l.192-.009.186-.016.191-.029.2-.035.2-.049.2-.063.2-.074.207-.088.2-.108.207-.118-.3 1.743-.113.059-.113.054-.1.045-.108.039-.108.039-.108.03-.112.025-.123.025-.127.015-.139.014-.152.015-.162.005-.177.009h-.2l-.215.005h-.423l-.177-.01-.172-.01-.176-.019-.181-.024-.177-.03-.177-.039-.176-.039-.172-.054-.172-.054-.167-.064-.168-.073-.161-.084-.158-.089-.147-.1-.147-.108-.137-.118-.133-.128-.128-.138-.113-.147-.108-.162-.1-.166-.088-.181-.078-.193-.069-.205-.054-.216-.045-.226-.029-.245-.019-.256v-.264l.009-.285.025-.3.015-.1.015-.118.02-.118.024-.127.024-.133.035-.137.04-.142.039-.147.05-.153.053-.147.064-.152.068-.152.078-.153.084-.152.093-.151.1-.148.113-.142.117-.143.128-.138.142-.128.147-.128.163-.117.172-.109.187-.1.2-.088.211-.084.22-.073.236-.059.251-.049.265-.034.275-.02.295-.01h.138l.137.01.142.01.142.015.142.02.148.029.142.034.143.04.142.043.144.055.137.058.133.07.128.078.127.083.117.1.119.1.108.113.1.123.093.137.084.143.079.156.068.167.059.182.044.192.04.206.024.215.011.231v.246l-.016.26-.024.275-.044.29-.059.3-.078.432h-5.1l.3-1.365h3.059l.015-.187v-.172l-.01-.162-.029-.148-.039-.132-.05-.123-.064-.108-.074-.1-.083-.088-.093-.073-.1-.059-.1-.05-.112-.039-.118-.03-.123-.014-.128-.006h-.15l-.127.019-.128.024-.118.04-.113.054-.108.063-.1.074-.093.083-.088.1-.078.1-.074.113-.069.123-.058.127-.05.138-.039.148-.035.152z" class="cls-7" transform="translate(115.912 292.012)"/>
                <g id="Group_378" transform="translate(19.08 11.935)">
                    <g id="Group_377">
                        <path id="Path_2199" d="M-94.752-275.683l-.025.123v.123l.009.133.03.128.039.133.059.132.069.127.083.123.093.118.108.114.112.1.123.093.132.078.138.064.148.049.146.034.178.025.176.024.182.02.181.01h.368l.192-.009.186-.016.191-.029.2-.035.2-.049.2-.063.2-.074.207-.088.2-.108.207-.118-.3 1.743-.113.059-.113.054-.1.045-.108.039-.108.039-.108.03-.112.025-.123.025-.127.015-.139.014-.152.015-.162.005-.177.009h-.2l-.215.005h-.423l-.177-.01-.172-.01-.176-.019-.181-.024-.177-.03-.177-.039-.176-.039-.172-.054-.172-.054-.167-.064-.168-.073-.161-.084-.158-.089-.147-.1-.147-.108-.137-.118-.133-.128-.128-.138-.113-.147-.108-.162-.1-.166-.088-.181-.078-.193-.069-.205-.054-.216-.045-.226-.029-.245-.019-.256v-.264l.009-.285.025-.3.015-.1.015-.118.02-.118.024-.127.024-.133.035-.137.04-.142.039-.147.05-.153.053-.147.064-.152.068-.152.078-.153.084-.152.093-.151.1-.148.113-.142.117-.143.128-.138.142-.128.147-.128.163-.117.172-.109.187-.1.2-.088.211-.084.22-.073.236-.059.251-.049.265-.034.275-.02.295-.01h.138l.137.01.142.01.142.015.142.02.148.029.142.034.143.04.142.043.144.055.137.058.133.07.128.078.127.083.117.1.119.1.108.113.1.123.093.137.084.143.079.156.068.167.059.182.044.192.04.206.024.215.011.231v.246l-.016.26-.024.275-.044.29-.059.3-.078.432h-5.1l.3-1.365h3.059l.015-.187v-.172l-.01-.162-.029-.148-.039-.132-.05-.123-.064-.108-.074-.1-.083-.088-.093-.073-.1-.059-.1-.05-.112-.039-.118-.03-.123-.014-.128-.006h-.15l-.127.019-.128.024-.118.04-.113.054-.108.063-.1.074-.093.083-.088.1-.078.1-.074.113-.069.123-.058.127-.05.138-.039.148-.035.152-.275 1.468" class="cls-8" transform="translate(96.832 280.077)"/>
                    </g>
                </g>
                <path id="Path_2200" d="M-101.052-273.944l-.28 1.567h-1.768l.02-.148.019-.148.02-.132.019-.123.02-.1.015-.088.019-.059.02-.034-.093.107-.118.108-.132.1-.153.1-.162.093-.177.088-.187.079-.192.073-.2.064-.206.055-.207.038-.205.03-.207.015-.2.005-.2-.014-.191-.031-.251-.059-.221-.079-.2-.093-.177-.1-.157-.112-.134-.128-.117-.133-.1-.147-.084-.147-.068-.153-.054-.158-.044-.161-.029-.157-.021-.162-.009-.157-.006-.153.02-.274.044-.26.064-.252.093-.235.113-.22.127-.206.153-.192.162-.182.182-.162.191-.142.207-.132.216-.114.226-.1.231-.079.235-.058.241-.045H-104.9l.054-.006.073-.01.084-.009.1-.01.109-.015.117-.009.118-.01.119-.015.122-.01.118-.009.107-.01H-102.849l.069.006h.261l.015-.049.034-.118.026-.138v-.122l-.01-.089-.015-.083-.025-.079-.034-.073-.039-.069-.049-.063-.049-.059-.059-.059-.064-.049-.064-.04-.074-.039-.073-.035-.078-.024-.084-.02-.084-.013-.084-.011-.2-.005-.212.005h-.222l-.225.015-.227.015-.226.019-.226.025-.221.024-.211.034-.2.03-.182.035-.172.039-.153.039-.128.039-.1.04-.072.044.5-1.669.147-.068.158-.064.156-.055.167-.044.173-.035.176-.029.187-.025.191-.019.2-.01.2-.01.206-.005h.668l.236.005h.245l.2.019.212.029.22.054.221.063.221.083.222.1.205.118.2.138.182.157.162.172.138.192.108.21.078.232.044.25.005.264-.039.29z" class="cls-7" transform="translate(119.483 291.992)"/>
                <g id="Group_380" transform="translate(12.033 11.975)">
                    <g id="Group_379">
                        <path id="Path_2201" d="M-101.052-273.944l-.28 1.567h-1.768l.02-.148.019-.148.02-.132.019-.123.02-.1.015-.088.019-.059.02-.034-.093.107-.118.108-.132.1-.153.1-.162.093-.177.088-.187.079-.192.073-.2.064-.206.055-.207.038-.205.03-.207.015-.2.005-.2-.014-.191-.031-.251-.059-.221-.079-.2-.093-.177-.1-.157-.112-.134-.128-.117-.133-.1-.147-.084-.147-.068-.153-.054-.158-.044-.161-.029-.157-.021-.162-.009-.157-.006-.153.02-.274.044-.26.064-.252.093-.235.113-.22.127-.206.153-.192.162-.182.182-.162.191-.142.207-.132.216-.114.226-.1.231-.079.235-.058.241-.045H-104.9l.054-.006.073-.01.084-.009.1-.01.109-.015.117-.009.118-.01.119-.015.122-.01.118-.009.107-.01H-102.849l.069.006h.261l.015-.049.034-.118.026-.138v-.122l-.01-.089-.015-.083-.025-.079-.034-.073-.039-.069-.049-.063-.049-.059-.059-.059-.064-.049-.064-.04-.074-.039-.073-.035-.078-.024-.084-.02-.084-.013-.084-.011-.2-.005-.212.005h-.222l-.225.015-.227.015-.226.019-.226.025-.221.024-.211.034-.2.03-.182.035-.172.039-.153.039-.128.039-.1.04-.072.044.5-1.669.147-.068.158-.064.156-.055.167-.044.173-.035.176-.029.187-.025.191-.019.2-.01.2-.01.206-.005h.668l.236.005h.245l.2.019.212.029.22.054.221.063.221.083.222.1.205.118.2.138.182.157.162.172.138.192.108.21.078.232.044.25.005.264-.039.29-.731 3.687" class="cls-8" transform="translate(107.45 280.017)"/>
                    </g>
                </g>
                <path id="Path_2202" d="M-101.637-273.71v-.039l-.029-.029-.05-.024-.063-.014-.084-.01-.089-.005h-.211l-.113.01-.118.015-.113.015-.113.02-.108.019-.1.02-.088.024-.079.025-.044.01-.059.019-.073.025-.079.034-.084.035-.093.044-.093.053-.093.055-.093.068-.089.074-.084.078-.073.089-.07.093-.049.1-.039.112-.025.118-.009.241.035.187.059.147.088.108.108.074.112.049.123.025.118.005.216-.005.192-.02.181-.034.162-.044.147-.05.133-.059.117-.069.1-.074.093-.074.079-.084.069-.079.058-.083.05-.083.039-.079.03-.078.024-.074.025-.109.024-.113.025-.118.025-.122.019-.117.02-.108.019-.1z" class="cls-6" transform="translate(118.373 289.911)"/>
                <path id="Path_2203" d="M-121.11-273.191h-1.921l1.615-9.246h3.339l.329 5.5 2.273-5.5h3.467l-1.62 9.246h-1.92l1.212-6.923h-.074l-2.857 6.923h-2.15l-.02-.29-.044-.771-.064-1.09-.074-1.251-.073-1.263-.064-1.114-.045-.805-.019-.339h-.078z" class="cls-7" transform="translate(124.724 292.806)"/>
                <g id="Group_382" transform="translate(1.693 10.369)">
                    <g id="Group_381">
                        <path id="Path_2204" d="M-121.11-273.191h-1.921l1.615-9.246h3.339l.329 5.5 2.273-5.5h3.467l-1.62 9.246h-1.92l1.212-6.923h-.074l-2.857 6.923h-2.15l-.02-.29-.044-.771-.064-1.09-.074-1.251-.073-1.263-.064-1.114-.045-.805-.019-.339h-.078l-1.212 6.923" class="cls-8" transform="translate(123.031 282.437)"/>
                    </g>
                </g>
                <path id="Path_2205" d="M-71.8-272.372h2l.682-3.992.03-.158.034-.152.039-.152.049-.142.054-.142.069-.133.083-.128.093-.122.113-.109.127-.1.153-.088.167-.079.2-.063.22-.049.245-.029.275-.02h.025l.029.005h.114l.029.005h.03l.005-.029.02-.084.025-.128.039-.162.05-.181.053-.2.064-.2.073-.186.054-.138.064-.133.064-.132.069-.122.059-.1.049-.084.034-.054.01-.019h-.01l-.025-.01h-.034l-.05-.01-.049-.01h-.059l-.065.002h-.049l-.216.015-.2.024-.181.04-.168.044-.157.058-.142.064-.138.078-.123.084-.123.094-.113.1-.1.108-.109.118-.1.123-.1.133-.1.137-.1.143.23-1.262-2-.025-1.315 7.551z" class="cls-7" transform="translate(107.493 291.987)"/>
                <g id="Group_384" transform="translate(35.689 11.985)">
                    <g id="Group_383">
                        <path id="Path_2206" d="M-71.8-272.372h2l.682-3.992.03-.158.034-.152.039-.152.049-.142.054-.142.069-.133.083-.128.093-.122.113-.109.127-.1.153-.088.167-.079.2-.063.22-.049.245-.029.275-.02h.025l.029.005h.114l.029.005h.03l.005-.029.02-.084.025-.128.039-.162.05-.181.053-.2.064-.2.073-.186.054-.138.064-.133.064-.132.069-.122.059-.1.049-.084.034-.054.01-.019h-.01l-.025-.01h-.034l-.05-.01-.049-.01h-.059l-.065.002h-.049l-.216.015-.2.024-.181.04-.168.044-.157.058-.142.064-.138.078-.123.084-.123.094-.113.1-.1.108-.109.118-.1.123-.1.133-.1.137-.1.143.23-1.262-2-.025-1.315 7.551" class="cls-8" transform="translate(71.805 280.002)"/>
                    </g>
                </g>
                <path id="Path_2207" d="M-60.83-280h.221l.216.015.211.019.207.029.2.04.191.049.182.054.181.064.172.074.162.079.162.084.147.093.147.1.137.108.128.113.122.123.118.127.108.138.1.138.093.147.088.152.074.162.073.162.06.172.054.172.044.181.039.187.03.191.019.191.01.2v.412l-.015.251-.029.241-.034.23-.044.225-.049.216-.064.206-.069.2-.073.191-.089.182-.088.177-.1.167-.1.157-.113.153-.123.142-.127.133-.132.128-.138.117-.142.114-.152.1-.153.094-.162.088-.168.079-.166.073-.177.064-.176.059-.187.05-.187.04-.187.034-.2.025-.2.019-.2.01h-.4l-.2-.01-.191-.019-.192-.03-.186-.034-.187-.039-.176-.05-.171-.058-.172-.064-.162-.074-.157-.078-.153-.088-.147-.093-.138-.1-.138-.108-.127-.117-.125-.119-.118-.133-.1-.137-.1-.147-.089-.152-.088-.162-.073-.168-.07-.172-.058-.181-.054-.191-.044-.2-.034-.2-.024-.21-.015-.216v-.456l.015-.236.024-.227.034-.221.044-.211.049-.206.059-.2.064-.191.074-.186.079-.182.088-.171.1-.163.1-.162.108-.147.117-.148.123-.133.128-.132.137-.122.143-.113.147-.108.153-.1.161-.088.168-.088.172-.074.172-.069.182-.058.185-.055.192-.043.2-.04.2-.025.205-.024.212-.01z" class="cls-7" transform="translate(105.164 291.987)"/>
                <g id="Group_386" transform="translate(40.284 11.985)">
                    <g id="Group_385">
                        <path id="Path_2208" d="M-60.83-280h.221l.216.015.211.019.207.029.2.04.191.049.182.054.181.064.172.074.162.079.162.084.147.093.147.1.137.108.128.113.122.123.118.127.108.138.1.138.093.147.088.152.074.162.073.162.06.172.054.172.044.181.039.187.03.191.019.191.01.2v.412l-.015.251-.029.241-.034.23-.044.225-.049.216-.064.206-.069.2-.073.191-.089.182-.088.177-.1.167-.1.157-.113.153-.123.142-.127.133-.132.128-.138.117-.142.114-.152.1-.153.094-.162.088-.168.079-.166.073-.177.064-.176.059-.187.05-.187.04-.187.034-.2.025-.2.019-.2.01h-.4l-.2-.01-.191-.019-.192-.03-.186-.034-.187-.039-.176-.05-.171-.058-.172-.064-.162-.074-.157-.078-.153-.088-.147-.093-.138-.1-.138-.108-.127-.117-.125-.119-.118-.133-.1-.137-.1-.147-.089-.152-.088-.162-.073-.168-.07-.172-.058-.181-.054-.191-.044-.2-.034-.2-.024-.21-.015-.216v-.456l.015-.236.024-.227.034-.221.044-.211.049-.206.059-.2.064-.191.074-.186.079-.182.088-.171.1-.163.1-.162.108-.147.117-.148.123-.133.128-.132.137-.122.143-.113.147-.108.153-.1.161-.088.168-.088.172-.074.172-.069.182-.058.185-.055.192-.043.2-.04.2-.025.205-.024.212-.01h.211" class="cls-8" transform="translate(64.88 280.002)"/>
                    </g>
                </g>
                <path id="Path_2209" d="M-54.353-269.075h.579v.075H-54v.481h-.127V-269h-.226z" class="cls-7" transform="translate(101.623 288.311)"/>
                <g id="Group_388" transform="translate(47.27 19.236)">
                    <g id="Group_387">
                        <path id="Path_2210" d="M-54.353-269.075h.579v.075H-54v.481h-.127V-269h-.226v-.074" class="cls-8" transform="translate(54.353 269.075)"/>
                    </g>
                </g>
                <path id="Path_2211" d="M-53.369-269.075h.176l.207.427.2-.427h.177v.554h-.128v-.426l-.2.426h-.1l-.2-.426v.426h-.127z" class="cls-7" transform="translate(101.292 288.311)"/>
                <g id="Group_390" transform="translate(47.923 19.236)">
                    <g id="Group_389">
                        <path id="Path_2212" d="M-53.369-269.075h.176l.207.427.2-.427h.177v.554h-.128v-.426l-.2.426h-.1l-.2-.426v.426h-.127v-.554" class="cls-8" transform="translate(53.369 269.075)"/>
                    </g>
                </g>
                <path id="Path_2213" d="M-61.16-275.548l-.029.275-.016.255v.231l.016.216.029.2.043.172.055.157.068.142.084.123.093.1.1.089.113.07.122.053.138.04.141.019.153.01h.167l.162-.019.152-.035.147-.053.138-.069.132-.088.122-.1.118-.123.1-.136.1-.158.093-.176.079-.191.074-.211.066-.245.05-.251.044-.269.024-.212.015-.2v-.2l-.015-.186-.024-.172-.039-.167-.054-.152-.064-.142-.078-.128-.089-.108-.1-.1-.113-.078-.128-.064-.138-.039-.147-.024h-.163l-.2.015-.187.034-.172.058-.162.074-.147.1-.137.108-.123.122-.109.138-.1.146-.088.157-.079.156-.064.167-.059.167-.049.167-.035.167z" class="cls-5" transform="translate(103.928 291.141)"/>
            </g>
        </g>
        <g id="Group_394" transform="translate(-369.941 -314.746)">
            <path id="Rectangle_118" d="M4.18 0h74.88a4.181 4.181 0 0 1 4.18 4.181v43.661a4.182 4.182 0 0 1-4.182 4.182H4.181A4.181 4.181 0 0 1 0 47.843V4.18A4.18 4.18 0 0 1 4.18 0z" class="cls-1"/>
            <g id="Group_393" transform="translate(16.669 11.079)">
                <path id="Path_2214" d="M-244.763-268.184l.77-.02.761-.055.746-.095.74-.132.72-.166.711-.2.695-.237.68-.267.664-.3.645-.327.624-.363.61-.388.584-.418.564-.444.544-.469.519-.5.5-.519.469-.545.444-.563.418-.585.388-.609.362-.626.328-.645.3-.664.267-.681.236-.7.2-.709.165-.721.131-.74.1-.746.056-.76.019-.771-.019-.766-.056-.756-.1-.745-.131-.731-.165-.72-.2-.706-.236-.695-.267-.675-.3-.659-.328-.645-.362-.619-.388-.609-.418-.585-.444-.559-.469-.543-.5-.519-.519-.494-.544-.468-.564-.444-.584-.418-.61-.388-.624-.357-.645-.327-.664-.3-.68-.267-.695-.237-.711-.2-.72-.166-.74-.131-.746-.1-.761-.056-.77-.02-.767.02-.761.056-.745.1-.736.131-.72.166-.709.2-.691.237-.681.267-.66.3-.639.327-.624.357-.6.388-.584.418-.565.444-.539.468-.519.494-.493.519-.469.543-.443.559-.413.585-.388.609-.358.619-.332.645-.3.659-.267.675-.231.695-.2.706-.166.72-.131.731-.1.745-.056.756-.02.766.02.771.056.76.1.746.131.74.166.721.2.709.231.7.267.681.3.664.332.645.358.626.388.609.413.585.443.563.469.545.493.519.519.5.539.469.565.444.584.418.6.388.624.363.639.327.66.3.681.267.691.237.709.2.72.166.736.132.745.095.761.055.767.02z" class="cls-9" transform="translate(279.703 298.051)"/>
                <path id="Path_2215" d="M-274.9-268.184l.765-.02.761-.055.746-.095.735-.132.72-.166.71-.2.691-.237.68-.267.66-.3.64-.327.625-.363.6-.388.585-.418.564-.444.539-.469.519-.5.494-.519.469-.545.443-.563.413-.585.389-.609.357-.626.332-.645.3-.664.268-.681.231-.7.2-.709.167-.721.131-.74.1-.746.055-.76.021-.771-.021-.766-.055-.756-.1-.745-.131-.731-.167-.72-.2-.706-.231-.695-.268-.675-.3-.659-.332-.645-.357-.619-.389-.609-.413-.585-.443-.559-.469-.543-.494-.519-.519-.494-.539-.468-.564-.444-.585-.418-.6-.388-.625-.357-.64-.327-.66-.3-.68-.267-.691-.237-.71-.2-.72-.166-.735-.131-.746-.1-.761-.056-.765-.02-.772.02-.76.056-.746.1-.741.131-.72.166-.71.2-.7.237-.68.267-.665.3-.645.327-.625.357-.61.388-.585.418-.564.444-.544.468-.518.494-.5.519-.469.543-.443.559-.418.585-.388.609-.363.619-.327.645-.3.659-.267.675-.236.695-.2.706-.166.72-.131.731-.1.745-.055.756-.02.766.02.771.055.76.1.746.131.74.166.721.2.709.236.7.267.681.3.664.327.645.363.626.388.609.418.585.443.563.469.545.5.519.518.5.544.469.564.444.585.418.61.388.625.363.645.327.665.3.68.267.7.237.71.2.72.166.741.132.746.095.76.055.772.02z" class="cls-10" transform="translate(289.858 298.051)"/>
                <path id="Path_2216" d="M-254.894-289.831h7.934v-.811h-7.249l-.685.811z" class="cls-9" transform="translate(278.097 295.559)"/>
                <path id="Path_2217" d="M-256.686-287.114h9.123v-.811h-8.644l-.479.811z" class="cls-9" transform="translate(278.7 294.645)"/>
                <path id="Path_2218" d="M-258.021-284.4h10.009v-.811h-9.657l-.353.811z" class="cls-9" transform="translate(279.149 293.734)"/>
                <path id="Path_2219" d="M-258.94-281.686h10.619v-.811h-10.367l-.252.811z" class="cls-9" transform="translate(279.458 292.819)"/>
                <path id="Path_2220" d="M-258.536-268.554h10.291v-.811h-10.544l.252.811z" class="cls-9" transform="translate(279.407 288.402)"/>
                <path id="Path_2221" d="M-257.454-265.837h9.531v-.811h-9.909l.378.811z" class="cls-9" transform="translate(279.085 287.488)"/>
                <path id="Path_2222" d="M-255.912-263.127h8.464v-.811h-8.971l.508.811z" class="cls-9" transform="translate(278.61 286.577)"/>
                <path id="Path_2223" d="M-253.8-260.412h6.992v-.816h-7.7l.71.816z" class="cls-9" transform="translate(277.967 285.666)"/>
                <path id="Path_2224" d="M-259.479-278.977h10.979v-.811h-10.821l-.156.811z" class="cls-9" transform="translate(279.639 291.908)"/>
                <path id="Path_2225" d="M-249.4-271.264h4.186v-.812h-4.035l-.152.812z" class="cls-9" transform="translate(276.249 289.314)"/>
                <path id="Path_2226" d="M-248.9-273.977h3.853v-.816h-3.7l-.151.816z" class="cls-9" transform="translate(276.08 290.228)"/>
                <path id="Path_2227" d="M-259.9-274.793h1.089v.816h-1.038l-.051-.816z" class="cls-9" transform="translate(279.78 290.228)"/>
                <path id="Path_2228" d="M-265.1-276.917h-.07l-.07-.01-.066-.01-.065-.01-.061-.01-.065-.01-.065-.01-.072-.011-.07-.009-.081-.005-.091-.005-.1-.005h-.106l-.116.005-.131.011-.146.009-.1.016-.1.015-.086.03-.075.03-.071.036-.064.04-.051.051-.046.045-.029.055-.025.055-.01.06v.061l.015.066.02.065.04.066.051.065.1.1.122.076.14.065.151.055.161.051.166.055.167.061.161.065.151.086.141.106.126.127.106.156.081.191.051.227.019.273-.019.317-.035.237-.061.206-.081.191-.1.166-.115.147-.132.125-.141.111-.155.1-.162.075-.166.065-.171.051-.176.04-.172.031-.165.015-.166.01h-.916l-.151-.005-.136-.01-.12-.01-.116-.015-.106-.01-.1-.02-.1-.016-.086-.024-.086-.02-.08-.031-.081-.029-.086-.03.227-1.113.046.01.055.015.071.019.086.021.09.02.1.02.111.025.12.02.126.02.131.02.136.015.141.015h.145l.148.005h.145l.146-.005.146-.03.116-.041.09-.055.071-.071.05-.071.04-.081.026-.08.019-.076.011-.146-.046-.126-.087-.1-.125-.085-.151-.075-.176-.076-.2-.071-.2-.08-.2-.09-.191-.106-.176-.131-.162-.156-.126-.192-.091-.227-.046-.271.005-.322.025-.2.036-.187.05-.171.06-.161.081-.151.091-.131.106-.126.126-.11.147-.1.16-.081.181-.075.2-.055.227-.046.247-.035.271-.02.3-.005h.185l.171.005.157.006h.141l.126.01.116.01.1.01.091.01.086.01.071.015.065.01.061.01.05.01.045.006.045.01.041.005-.258 1.137z" class="cls-11" transform="translate(282.954 291.37)"/>
                <path id="Path_2229" d="M-265.1-276.917h-.07l-.07-.01-.066-.01-.065-.01-.061-.01-.065-.01-.065-.01-.072-.011-.07-.009-.081-.005-.091-.005-.1-.005h-.106l-.116.005-.131.011-.146.009-.1.016-.1.015-.086.03-.075.03-.071.036-.064.04-.051.051-.046.045-.029.055-.025.055-.01.06v.061l.015.066.02.065.04.066.051.065.1.1.122.076.14.065.151.055.161.051.166.055.167.061.161.065.151.086.141.106.126.127.106.156.081.191.051.227.019.273-.019.317-.035.237-.061.206-.081.191-.1.166-.115.147-.132.125-.141.111-.155.1-.162.075-.166.065-.171.051-.176.04-.172.031-.165.015-.166.01h-.916l-.151-.005-.136-.01-.12-.01-.116-.015-.106-.01-.1-.02-.1-.016-.086-.024-.086-.02-.08-.031-.081-.029-.086-.03.227-1.113.046.01.055.015.071.019.086.021.09.02.1.02.111.025.12.02.126.02.131.02.136.015.141.015h.145l.148.005h.145l.146-.005.146-.03.116-.041.09-.055.071-.071.05-.071.04-.081.026-.08.019-.076.011-.146-.046-.126-.087-.1-.125-.085-.151-.075-.176-.076-.2-.071-.2-.08-.2-.09-.191-.106-.176-.131-.162-.156-.126-.192-.091-.227-.046-.271.005-.322.025-.2.036-.187.05-.171.06-.161.081-.151.091-.131.106-.126.126-.11.147-.1.16-.081.181-.075.2-.055.227-.046.247-.035.271-.02.3-.005h.185l.171.005.157.006h.141l.126.01.116.01.1.01.091.01.086.01.071.015.065.01.061.01.05.01.045.006.045.01.041.005-.258 1.137" class="cls-12" transform="translate(282.954 291.37)"/>
                <path id="Path_2230" d="M-261.66-279.863h1.4l-.207 1.219h.841l-.181 1.138-.887-.025-.483 2.81-.005.1.025.086.051.065.066.055.091.036.1.03.11.02.121.011.11-.005.1-.01.091-.016.081-.02.066-.02.045-.015.03-.011h.01l-.176.937-.036.025-.035.02-.035.02-.035.02-.035.015-.04.016-.045.015-.046.015-.05.015-.051.011-.06.01-.06.01-.065.01-.076.01-.081.01-.086.01h-.383l-.2-.015-.176-.02-.161-.03-.136-.036-.117-.046-.1-.049-.086-.061-.065-.066-.051-.07-.036-.086-.024-.086-.016-.095v-.217l.015-.116.016-.126.962-5.5z" class="cls-11" transform="translate(280.707 291.933)"/>
                <path id="Path_2231" d="M-261.66-279.863h1.4l-.207 1.219h.841l-.181 1.138-.887-.025-.483 2.81-.005.1.025.086.051.065.066.055.091.036.1.03.11.02.121.011.11-.005.1-.01.091-.016.081-.02.066-.02.045-.015.03-.011h.01l-.176.937-.036.025-.035.02-.035.02-.035.02-.035.015-.04.016-.045.015-.046.015-.05.015-.051.011-.06.01-.06.01-.065.01-.076.01-.081.01-.086.01h-.383l-.2-.015-.176-.02-.161-.03-.136-.036-.117-.046-.1-.049-.086-.061-.065-.066-.051-.07-.036-.086-.024-.086-.016-.095v-.217l.015-.116.016-.126.962-5.5" class="cls-12" transform="translate(280.707 291.933)"/>
                <path id="Path_2232" d="M-257.165-275.043l-.016.085v.09l.01.1.02.1.035.1.041.092.055.095.06.085.071.086.075.076.081.075.09.06.091.056.1.045.1.035.1.02.131.02.126.016.131.015.131.01h.398l.136-.01.136-.02.136-.026.141-.03.136-.045.142-.055.145-.061.141-.08.146-.086-.2 1.239-.081.04-.08.041-.081.029-.075.031-.076.025-.081.026-.08.019-.086.016-.091.015-.1.01-.106.01-.116.01-.131.006H-256.165l-.251-.025-.253-.036-.252-.061-.247-.075-.236-.1-.228-.125-.212-.146-.2-.171-.171-.206-.146-.232-.122-.267-.085-.3-.055-.338-.016-.372.026-.413.02-.161.029-.187.041-.2.055-.213.076-.216.09-.217.116-.221.141-.212.161-.2.2-.191.222-.171.252-.151.292-.126.328-.091.362-.06.409-.021.2.005.207.02.207.035.207.05.2.076.2.09.181.121.166.141.151.172.126.2.1.231.071.267.041.3.005.342-.035.383-.076.424-.025.307h-3.672l.231-.993h2.206l.01-.125-.006-.121-.01-.111-.019-.1-.035-.1-.035-.087-.051-.075-.05-.07-.06-.06-.066-.051-.076-.045-.076-.04-.08-.029-.081-.02-.086-.015-.091-.01-.1.005-.09.015-.086.021-.086.029-.086.04-.075.046-.077.055-.065.06-.066.07-.061.075-.055.081-.046.086-.046.09-.035.1-.03.1-.02.106-.2 1.043" class="cls-12" transform="translate(279.356 291.37)"/>
                <path id="Path_2233" d="M-240.921-278.457l-.065-.035-.065-.031-.072-.035-.075-.035-.076-.03-.084-.03-.086-.03-.09-.03-.1-.025-.1-.02-.1-.02-.106-.015-.116-.01-.116-.01h-.373l-.131.01-.136.016-.14.025-.141.04-.141.056-.141.071-.142.09-.136.111-.132.131-.126.161-.12.186-.111.221-.106.252-.1.283-.08.322-.032.18-.019.176-.01.177.006.172.014.171.035.161.046.151.055.151.076.136.09.13.107.116.121.106.136.091.156.076.172.065.191.045.066.015.076.015.091.011.1.01.11.01h.242l.126-.01.131-.016.131-.025.126-.035.126-.04.126-.056.116-.065.106-.08.1-.091-.226 1.345-.031.025-.029.03-.041.036-.045.029-.055.041-.071.036-.081.035-.09.03-.116.036-.131.025-.151.02-.177.02-.2.01-.227.006-.256-.006-.283-.015-.232-.025-.232-.051-.231-.075-.232-.1-.222-.12-.212-.152-.2-.176-.187-.2-.167-.227-.14-.252-.121-.282-.09-.308-.061-.338-.021-.358.01-.393.055-.418.041-.206.044-.2.051-.2.051-.186.054-.177.066-.176.066-.166.07-.156.076-.156.075-.146.086-.141.09-.131.091-.126.1-.121.1-.111.106-.106.115-.1.116-.1.121-.086.126-.081.136-.075.136-.065.141-.061.146-.056.157-.05.155-.04.162-.036.172-.03.17-.026.182-.02.181-.009.192-.006.162.006.155.009.151.015.151.02.142.019.136.03.131.025.121.03.116.03.1.03.1.031.08.03.071.025.06.021.045.02.031.01-.253 1.395z" class="cls-11" transform="translate(275.125 292.049)"/>
                <path id="Path_2234" d="M-240.921-278.457l-.065-.035-.065-.031-.072-.035-.075-.035-.076-.03-.084-.03-.086-.03-.09-.03-.1-.025-.1-.02-.1-.02-.106-.015-.116-.01-.116-.01h-.373l-.131.01-.136.016-.14.025-.141.04-.141.056-.141.071-.142.09-.136.111-.132.131-.126.161-.12.186-.111.221-.106.252-.1.283-.08.322-.032.18-.019.176-.01.177.006.172.014.171.035.161.046.151.055.151.076.136.09.13.107.116.121.106.136.091.156.076.172.065.191.045.066.015.076.015.091.011.1.01.11.01h.242l.126-.01.131-.016.131-.025.126-.035.126-.04.126-.056.116-.065.106-.08.1-.091-.226 1.345-.031.025-.029.03-.041.036-.045.029-.055.041-.071.036-.081.035-.09.03-.116.036-.131.025-.151.02-.177.02-.2.01-.227.006-.256-.006-.283-.015-.232-.025-.232-.051-.231-.075-.232-.1-.222-.12-.212-.152-.2-.176-.187-.2-.167-.227-.14-.252-.121-.282-.09-.308-.061-.338-.021-.358.01-.393.055-.418.041-.206.044-.2.051-.2.051-.186.054-.177.066-.176.066-.166.07-.156.076-.156.075-.146.086-.141.09-.131.091-.126.1-.121.1-.111.106-.106.115-.1.116-.1.121-.086.126-.081.136-.075.136-.065.141-.061.146-.056.157-.05.155-.04.162-.036.172-.03.17-.026.182-.02.181-.009.192-.006.162.006.155.009.151.015.151.02.142.019.136.03.131.025.121.03.116.03.1.03.1.031.08.03.071.025.06.021.045.02.031.01-.253 1.395" class="cls-12" transform="translate(275.125 292.049)"/>
                <path id="Path_2235" d="M-221.967-273.237h-1.4l.1-.559v-.051l-.081.1-.086.09-.085.081-.091.071-.091.065-.091.054-.091.046-.1.046-.1.035-.1.025-.1.025-.1.014-.1.016-.1.01-.1.005h-.1l-.262-.02-.242-.055-.222-.086-.2-.115-.181-.147-.161-.17-.141-.187-.121-.211-.1-.228-.081-.236-.055-.247-.04-.257-.015-.257v-.262l.025-.257.046-.257.076-.3.091-.282.106-.257.125-.242.131-.227.152-.2.156-.181.167-.167.176-.146.186-.126.192-.111.192-.086.2-.071.2-.045.2-.03.207-.01h.147l.141.016.131.025.121.036.116.041.1.044.1.056.091.055.08.059.075.066.066.065.061.065.05.065.046.065.04.061.03.06.354-1.98h1.369l-1.139 6.589z" class="cls-11" transform="translate(268.573 291.921)"/>
                <path id="Path_2236" d="M-221.967-273.237h-1.4l.1-.559v-.051l-.081.1-.086.09-.085.081-.091.071-.091.065-.091.054-.091.046-.1.046-.1.035-.1.025-.1.025-.1.014-.1.016-.1.01-.1.005h-.1l-.262-.02-.242-.055-.222-.086-.2-.115-.181-.147-.161-.17-.141-.187-.121-.211-.1-.228-.081-.236-.055-.247-.04-.257-.015-.257v-.262l.025-.257.046-.257.076-.3.091-.282.106-.257.125-.242.131-.227.152-.2.156-.181.167-.167.176-.146.186-.126.192-.111.192-.086.2-.071.2-.045.2-.03.207-.01h.147l.141.016.131.025.121.036.116.041.1.044.1.056.091.055.08.059.075.066.066.065.061.065.05.065.046.065.04.061.03.06.354-1.98h1.369l-1.139 6.589" class="cls-12" transform="translate(268.573 291.921)"/>
                <path id="Path_2237" d="M-223.427-273.235l.141-.01.131-.03.121-.035.116-.055.106-.06.1-.076.1-.085.086-.092.075-.1.071-.111.065-.116.056-.12.05-.127.041-.131.035-.136.026-.136.025-.141.016-.146v-.277l-.016-.131-.02-.126-.035-.121-.041-.116-.05-.1-.061-.1-.065-.081-.076-.07-.086-.06-.091-.04-.1-.025-.1-.01-.137.01-.126.02-.116.04-.116.05-.1.066-.1.081-.086.086-.086.1-.075.11-.071.117-.066.121-.055.131-.05.136-.04.137-.041.145-.03.146-.026.222.011.242.035.246.066.237.1.207.131.166.166.111.2.04z" class="cls-9" transform="translate(267.752 290.7)"/>
                <path id="Path_2238" d="M-272.007-273.783l-.2 1.118h-1.27l.035-.206.026-.186.019-.141.021-.076-.07.081-.081.081-.1.076-.106.07-.121.071-.126.06-.132.061-.136.051-.147.045-.145.036-.147.03-.15.02-.146.01h-.146l-.142-.015-.136-.02-.176-.046-.161-.051-.141-.065-.126-.076-.11-.08-.1-.091-.081-.1-.071-.1-.06-.106-.051-.112-.04-.11-.03-.111-.02-.116-.015-.116-.01-.111v-.111l.015-.2.031-.186.051-.176.065-.172.08-.161.09-.146.106-.141.121-.127.126-.116.141-.106.146-.1.15-.081.161-.069.167-.056.171-.045.177-.03h.009l.025-.005h.091l.061-.01.07-.005.075-.01.086-.01.086-.01.086-.01.091-.005.08-.01h.081l.075-.006h.363l.11.006h.273l.05.005h.015l.01-.035.03-.09.025-.106.01-.1-.02-.111-.045-.1-.061-.09-.081-.076-.1-.064-.106-.046-.121-.031-.131-.01-.141-.005h-.469l-.166.01-.162.015-.161.015-.156.02-.152.02-.146.025-.131.025-.121.026-.111.031-.091.029-.07.035-.056.03.358-1.214.111-.045.11-.04.122-.035.121-.026.122-.025.131-.019.131-.02.136-.01.141-.01.146-.005.151-.005h.483l.177.005.177.005.141.01.152.026.156.035.161.045.156.061.151.07.151.086.142.1.124.111.112.121.1.135.075.151.051.162.03.171v.191l-.03.2-.508 2.66z" class="cls-11" transform="translate(285.397 291.349)"/>
                <path id="Path_2239" d="M-272.007-273.783l-.2 1.118h-1.27l.035-.206.026-.186.019-.141.021-.076-.07.081-.081.081-.1.076-.106.07-.121.071-.126.06-.132.061-.136.051-.147.045-.145.036-.147.03-.15.02-.146.01h-.146l-.142-.015-.136-.02-.176-.046-.161-.051-.141-.065-.126-.076-.11-.08-.1-.091-.081-.1-.071-.1-.06-.106-.051-.112-.04-.11-.03-.111-.02-.116-.015-.116-.01-.111v-.111l.015-.2.031-.186.051-.176.065-.172.08-.161.09-.146.106-.141.121-.127.126-.116.141-.106.146-.1.15-.081.161-.069.167-.056.171-.045.177-.03h.009l.025-.005h.091l.061-.01.07-.005.075-.01.086-.01.086-.01.086-.01.091-.005.08-.01h.081l.075-.006h.363l.11.006h.273l.05.005h.015l.01-.035.03-.09.025-.106.01-.1-.02-.111-.045-.1-.061-.09-.081-.076-.1-.064-.106-.046-.121-.031-.131-.01-.141-.005h-.469l-.166.01-.162.015-.161.015-.156.02-.152.02-.146.025-.131.025-.121.026-.111.031-.091.029-.07.035-.056.03.358-1.214.111-.045.11-.04.122-.035.121-.026.122-.025.131-.019.131-.02.136-.01.141-.01.146-.005.151-.005h.483l.177.005.177.005.141.01.152.026.156.035.161.045.156.061.151.07.151.086.142.1.124.111.112.121.1.135.075.151.051.162.03.171v.191l-.03.2-.508 2.66" class="cls-12" transform="translate(285.397 291.349)"/>
                <path id="Path_2240" d="M-272.427-273.61l-.005-.025-.02-.025-.03-.016-.05-.01-.056-.01-.065-.006h-.152l-.08.006-.086.01-.081.01-.081.011-.075.01-.071.015-.06.016-.056.015-.035.01-.041.016-.055.02-.056.025-.065.03-.065.036-.07.035-.065.041-.07.05-.066.05-.061.061-.055.061-.051.065-.035.071-.029.08-.016.081v.171l.024.136.051.1.065.075.076.05.086.03.081.015H-273.616l.136-.015.131-.021.116-.03.1-.035.1-.045.086-.046.076-.055.065-.051.059-.06.051-.055.04-.061.035-.061.032-.06.025-.056.014-.055.041-.146.035-.167.03-.161.026-.132z" class="cls-10" transform="translate(284.603 289.861)"/>
                <path id="Path_2241" d="M-286.347-273.249h-1.369l1.143-6.614h2.382l.227 3.924 1.647-3.924h2.488l-1.171 6.614h-1.37l.866-4.941h-.055l-2.051 4.941h-1.546l-.01-.206-.034-.545-.045-.78-.051-.9-.051-.9-.045-.79-.035-.575-.01-.242h-.075l-.837 4.941z" class="cls-11" transform="translate(289.137 291.933)"/>
                <path id="Path_2242" d="M-286.347-273.249h-1.369l1.143-6.614h2.382l.227 3.924 1.647-3.924h2.488l-1.171 6.614h-1.37l.866-4.941h-.055l-2.051 4.941h-1.546l-.01-.206-.034-.545-.045-.78-.051-.9-.051-.9-.045-.79-.035-.575-.01-.242h-.075l-.837 4.941" class="cls-12" transform="translate(289.137 291.933)"/>
                <path id="Path_2243" d="M-234.321-273.783l-.207 1.118h-1.265l.01-.206.005-.181v-.136l.01-.06-.065.075-.076.075-.09.07-.1.071-.1.065-.122.06-.126.061-.126.05-.136.04-.141.04-.14.026-.141.02-.147.01h-.14l-.136-.015-.136-.02-.181-.046-.16-.051-.142-.065-.132-.076-.11-.08-.1-.091-.08-.1-.07-.1-.061-.106-.046-.112-.04-.11-.025-.111-.021-.116-.014-.116-.011-.111v-.111l.011-.2.03-.186.045-.176.066-.172.075-.161.1-.146.106-.141.116-.127.131-.116.136-.106.146-.1.156-.081.156-.069.166-.056.166-.045.171-.03h.01l.024-.005h.086l.066-.01.07-.005.076-.01.08-.01.087-.01.091-.01.086-.005.086-.01h.08l.07-.006h.368l.116.006H-235.419l.045.005h.021l.01-.035.015-.09.015-.106.01-.1-.019-.111-.04-.1-.065-.09-.077-.076-.09-.064-.106-.046-.111-.031-.122-.01-.141-.005h-.469l-.165.01-.162.015-.161.015-.156.02-.151.02-.145.025-.132.025-.121.026-.111.031-.09.029-.072.035-.055.03.353-1.214.11-.045.117-.04.116-.035.12-.026.126-.025.126-.019.13-.02.137-.01.14-.01.146-.005.146-.005h.474l.171.005.171.005.141.01.151.026.156.035.162.045.156.061.155.07.151.086.141.1.127.111.115.121.1.135.076.151.055.162.036.171v.191l-.026.2-.528 2.66z" class="cls-11" transform="translate(272.713 291.349)"/>
                <path id="Path_2244" d="M-232.334-270.431l.03-.03.207-1.119-.061-.01-.206 1.119.031-.031v.071l.024-.006.005-.025-.03.03z" class="cls-11" transform="translate(270.519 289.151)"/>
                <path id="Path_2245" d="M-234.272-269.915l.03.036h1.265v-.071h-1.265l.03.035h-.061v.036h.035l-.03-.036z" class="cls-11" transform="translate(271.162 288.599)"/>
                <path id="Path_2246" d="M-234.189-270.768l-.046-.04-.02.081-.006.136v.181l-.009.206h.061l.01-.206.01-.181-.005-.136v-.041l-.045-.04.051.04z" class="cls-11" transform="translate(271.16 288.888)"/>
                <path id="Path_2247" d="M-237.1-270.122l.141.02.136.015h.14l.147-.01.145-.02.141-.026.142-.039.14-.041.126-.05.131-.06.122-.06.1-.071.106-.071.09-.07.081-.081.066-.076-.051-.04-.065.076-.071.071-.091.071-.1.071-.106.06-.121.061-.121.06-.126.05-.131.04-.141.041-.142.025-.135.019-.147.011h-.14l-.136-.015-.131-.019-.01.06z" class="cls-11" transform="translate(272.112 288.888)"/>
                <path id="Path_2248" d="M-238.938-272.076v.11l.01.111.016.121.02.116.025.111.04.116.045.116.066.106.07.106.081.1.1.1.116.081.131.081.147.065.165.051.182.045.01-.06-.182-.046-.156-.051-.136-.065-.131-.071-.106-.08-.091-.087-.08-.1-.071-.1-.055-.105-.045-.106-.041-.1-.025-.111-.02-.116-.015-.111-.01-.111.005-.11h-.07z" class="cls-11" transform="translate(272.73 289.314)"/>
                <path id="Path_2249" d="M-237.13-274.99l-.176.03-.171.046-.167.055-.161.071-.157.08-.15.1-.137.106-.131.121-.121.126-.106.141-.1.151-.075.167-.065.171-.046.181-.03.191-.015.2h.07l.005-.2.03-.181.045-.171.065-.171.075-.157.09-.141.107-.141.11-.125.131-.111.136-.106.14-.09.158-.081.15-.07.167-.055.161-.046.166-.03v-.061z" class="cls-11" transform="translate(272.73 290.294)"/>
                <path id="Path_2250" d="M-235.176-275.15h-.055l-.071.011-.07.006h-.08l-.086.01-.086.006-.091.01-.087.01-.08.011-.076.01h-.07l-.066.011h-.09l-.02.005h-.01v.061h.01l.03-.006h.03l.05-.005.066-.01.07-.006.076-.01.08-.01.087-.01.091-.01h.086l.086-.011h.08l.07-.005h.126v-.071z" class="cls-11" transform="translate(271.814 290.348)"/>
                <path id="Path_2251" d="M-233.97-275.095l.03-.025H-234.086l-.1-.01h-.227l-.121-.011h-.121v.071h.242l.116.01h.207l.08.005.045.006h.021l.03-.025-.03.025h.025v-.03l-.061-.011z" class="cls-11" transform="translate(271.288 290.348)"/>
                <path id="Path_2252" d="M-233.574-275.552h-.005v.1l-.016.1-.015.091-.01.035.061.011.01-.036.015-.091.015-.11.016-.1h-.065z" class="cls-11" transform="translate(270.943 290.483)"/>
                <path id="Path_2253" d="M-234.453-276.336l.117.005.105.03.1.045.086.061.07.07.061.086.041.091.02.106h.06l-.021-.115-.04-.111-.071-.1-.08-.082-.1-.07-.111-.046-.116-.029-.126-.015v.065z" class="cls-11" transform="translate(271.221 290.769)"/>
                <path id="Path_2254" d="M-237.709-276.1l.05.03.05-.025.065-.035.086-.03.11-.029.122-.025.13-.026.146-.025.146-.019.156-.021.161-.015.162-.015.165-.01h.61v-.061h-.141l-.15-.011H-236l-.162.011-.165.009-.162.015-.161.015-.156.02-.156.019-.146.026-.13.025-.122.025-.111.029-.1.031-.076.034-.06.036.05.03-.061-.01z" class="cls-11" transform="translate(272.317 290.775)"/>
                <path id="Path_2255" d="M-237.335-277.807l-.021.026-.352 1.214.061.01.353-1.215-.021.026-.019-.061-.016.005-.006.02.021-.026z" class="cls-11" transform="translate(272.317 291.242)"/>
                <path id="Path_2256" d="M-234.905-278.163l-.171-.01-.171-.005h-.474l-.146.01-.146.005-.14.01-.137.009-.136.02-.125.02-.126.026-.122.025-.12.035-.115.04-.111.045.019.061.111-.045.115-.04.111-.036.121-.025.126-.026.125-.02.126-.02.137-.01.14-.01h1.108v-.06z" class="cls-11" transform="translate(272.127 291.367)"/>
                <path id="Path_2257" d="M-232.041-276.448l.025-.207v-.191l-.035-.177-.056-.166-.08-.156-.1-.141-.121-.126-.125-.111-.146-.1-.151-.09-.161-.071-.156-.061-.166-.045-.157-.035-.156-.025-.141-.01v.06l.141.01.146.025.156.035.156.045.157.06.151.071.151.08.136.1.126.111.111.116.1.13.07.147.056.156.036.166v.191l-.025.2.061.01z" class="cls-11" transform="translate(270.991 291.359)"/>
                <path id="Path_2258" d="M-231.993-272.928l.529-2.659-.061-.01-.529 2.659.061.01z" class="cls-11" transform="translate(270.414 290.498)"/>
                <path id="Path_2259" d="M-234.746-273.612l-.01-.03-.019-.025-.036-.016-.05-.015-.055-.006-.066-.005h-.076l-.075.005-.081.01-.081.01-.08.01-.076.01-.074.015-.066.01-.066.015-.05.01-.035.005-.041.015-.05.015-.056.02-.066.03-.06.031-.071.035-.065.045-.066.046-.066.055-.055.055-.055.066-.046.07-.035.075-.03.081-.015.086-.005.171.024.136.042.1.06.075.076.05.086.03.086.015h.237l.14-.015.132-.026.117-.035.11-.04.1-.045.09-.051.08-.06.071-.055.059-.065.056-.061.046-.066.035-.06.026-.061.02-.06.015-.055.02-.141.026-.146.019-.141.01-.126z" class="cls-9" transform="translate(271.918 289.863)"/>
                <path id="Path_2260" d="M-218.209-271.281l.012-.117.039-.136.071-.121.086-.106.106-.085.122-.061.131-.041.14-.015.142.015.131.041.121.061.106.085.086.106.07.121.04.136.011.117h-.152v-.091l-.031-.111-.05-.1-.065-.087-.08-.07-.1-.05-.111-.035-.116-.01-.115.01-.111.035-.1.05-.081.07-.065.087-.05.1-.03.111-.01.091z" class="cls-11" transform="translate(265.758 289.276)"/>
                <path id="Path_2261" d="M-217.525-271.089v-.3h.338l.055.01.04.015.035.02.025.03.02.03.01.035.005.036-.005.045-.01.035-.015.03-.01.011h-.212l.02-.006h.036l.03-.01.026-.01.02-.015.01-.016.009-.024v-.036l-.005-.025-.01-.02-.014-.01-.016-.01h-.257v.2z" class="cls-11" transform="translate(265.528 289.084)"/>
                <path id="Path_2262" d="M-218.211-270.936v.029l.016.146.039.136.071.121.086.1.106.085.122.067.131.04.14.015.142-.015.131-.04.121-.067.106-.085.086-.1.07-.121.04-.136.015-.146v-.029h-.152l.005.029-.01.121-.031.111-.05.1-.065.085-.08.071-.1.055-.111.036-.116.01-.115-.01-.111-.036-.1-.055-.081-.071-.065-.085-.05-.1-.03-.111-.01-.121v-.029z" class="cls-11" transform="translate(265.76 288.931)"/>
                <path id="Path_2263" d="M-217.525-270.936v.307h.126v-.252h.125l.151.252h.1l-.151-.252h.035l.035-.011.03-.01.026-.02.01-.014h-.362z" class="cls-11" transform="translate(265.528 288.931)"/>
                <path id="Path_2264" d="M-218.215-271.251l.015-.146.039-.136.07-.121.086-.105.107-.085.121-.061.131-.04.14-.015.142.015.13.04.121.061.106.085.086.105.07.121.04.136.015.146-.015.146-.04.136-.07.121-.086.1-.106.085-.121.067-.13.04-.142.015-.14-.015-.131-.04-.121-.067-.107-.085-.086-.1-.07-.121-.039-.136-.015-.146m.584.277h-.126v-.61h.277l.061.005.056.009.04.015.035.021.025.03.02.031.01.035.005.035-.005.045-.01.035-.015.031-.02.025-.026.02-.031.01-.035.011h-.035l.151.252h-.1l-.151-.252h-.125v.252m.125-.3l.045-.01.036-.005.03-.009.026-.011.02-.015.011-.016.009-.025v-.036l-.005-.025-.01-.021-.014-.009-.016-.01-.025-.005H-217.629v.2h.125m0 .609l.117-.01.111-.036.1-.054.08-.072.065-.084.05-.1.031-.111.01-.121-.01-.121-.031-.111-.05-.1-.065-.086-.08-.07-.1-.05-.111-.035-.117-.011-.115.011-.11.035-.1.05-.081.07-.065.086-.05.1-.031.111-.011.121.011.121.031.111.05.1.065.084.081.072.1.054.11.036.115.01" class="cls-12" transform="translate(265.76 289.276)"/>
                <path id="Path_2265" d="M-231.438-272.66h1.421l.508-2.866.02-.11.031-.111.03-.111.04-.111.05-.11.06-.106.066-.1.081-.1.091-.085.1-.081.116-.076.131-.06.146-.05.161-.04.176-.03.2-.011h.126l.227-1.294-.141.01-.136.016-.126.025-.121.035-.111.04-.106.052-.1.055-.1.06-.09.071-.086.07-.08.081-.08.08-.076.086-.075.1-.075.091-.07.1.151-.912h-1.421l-.941 5.395z" class="cls-11" transform="translate(270.207 291.344)"/>
                <path id="Path_2266" d="M-231.438-272.66h1.421l.508-2.866.02-.11.031-.111.03-.111.04-.111.05-.11.06-.106.066-.1.081-.1.091-.085.1-.081.116-.076.131-.06.146-.05.161-.04.176-.03.2-.011h.126l.227-1.294-.141.01-.136.016-.126.025-.121.035-.111.04-.106.052-.1.055-.1.06-.09.071-.086.07-.08.081-.08.08-.076.086-.075.1-.075.091-.07.1.151-.912h-1.421l-.941 5.395" class="cls-12" transform="translate(270.207 291.344)"/>
                <path id="Path_2267" d="M-251.539-272.66h1.445l.484-2.866.02-.11.025-.106.025-.106.036-.1.04-.1.051-.1.06-.09.071-.086.081-.076.091-.075.112-.061.12-.055.141-.046.157-.039.171-.026.2-.015h.016l.02.005H-248.098l.021.005.014.005h.006l.005-.02.015-.061.02-.09.026-.111.035-.131.036-.141.046-.141.044-.141.041-.1.05-.1.05-.095.05-.086.045-.075.035-.061.025-.035.01-.015-.021-.005-.025-.005-.036-.005H-247.682l-.035-.005h-.036l-.156.01-.141.016-.131.025-.12.031-.116.04-.106.051-.1.05-.091.06-.085.066-.081.076-.075.076-.076.085-.076.086-.07.1-.075.1-.076.1.181-.912h-1.453l-.942 5.395z" class="cls-11" transform="translate(276.969 291.344)"/>
                <path id="Path_2268" d="M-251.539-272.66h1.445l.484-2.866.02-.11.025-.106.025-.106.036-.1.04-.1.051-.1.06-.09.071-.086.081-.076.091-.075.112-.061.12-.055.141-.046.157-.039.171-.026.2-.015h.016l.02.005H-248.098l.021.005.014.005h.006l.005-.02.015-.061.02-.09.026-.111.035-.131.036-.141.046-.141.044-.141.041-.1.05-.1.05-.095.05-.086.045-.075.035-.061.025-.035.01-.015-.021-.005-.025-.005-.036-.005H-247.682l-.035-.005h-.036l-.156.01-.141.016-.131.025-.12.031-.116.04-.106.051-.1.05-.091.06-.085.066-.081.076-.075.076-.076.085-.076.086-.07.1-.075.1-.076.1.181-.912h-1.453l-.942 5.395" class="cls-12" transform="translate(276.969 291.344)"/>
                <path id="Path_2269" d="M-218.192-262.195v-.02l.039-.131.071-.116.086-.1.106-.081.122-.061.131-.035.14-.016.142.016.131.035.121.061.106.081.086.1.07.116.04.131v.02h-.145l-.031-.105-.05-.1-.065-.086-.08-.07-.1-.056-.111-.035-.116-.01-.115.01-.111.035-.1.056-.081.07-.065.086-.05.1-.03.105z" class="cls-9" transform="translate(265.752 286.179)"/>
                <path id="Path_2270" d="M-217.525-262v-.176h.338l.055.01.04.009.035.02.025.026.02.03.01.035.002.046h-.1v-.025l-.005-.025-.01-.02-.014-.01-.016-.01-.026-.005H-217.402v.1z" class="cls-9" transform="translate(265.528 285.984)"/>
                <path id="Path_2271" d="M-218.215-261.8l.016-.111h.145l-.01.106z" class="cls-9" transform="translate(265.76 285.895)"/>
                <path id="Path_2272" d="M-217.525-261.8v-.111h.126v.1h.125l.045-.009.036-.005.03-.011.026-.01.02-.015.01-.016.009-.024v-.011h.1l-.005.035-.01.031-.015.026-.02.019z" class="cls-9" transform="translate(265.528 285.895)"/>
                <path id="Path_2273" d="M-216.307-261.8l-.01-.106h.145l.015.111z" class="cls-9" transform="translate(265.121 285.895)"/>
                <path id="Path_2274" d="M-218.215-261.745v.015l.016.146.039.136.071.121.086.106.106.086.122.06.131.041.14.015.142-.015.131-.041.121-.06.106-.086.086-.106.07-.121.04-.136.015-.146v-.015h-.15v.015l-.01.121-.031.111-.05.1-.065.085-.08.072-.1.055-.111.035-.116.01-.115-.01-.111-.035-.1-.055-.081-.072-.065-.085-.05-.1-.03-.111-.01-.121v-.015z" class="cls-9" transform="translate(265.76 285.839)"/>
                <path id="Path_2275" d="M-217.525-261.745v.293h.126v-.252h.125l.151.252h.1l-.151-.252h.035l.035-.009.03-.01.026-.02h-.479z" class="cls-9" transform="translate(265.528 285.839)"/>
                <path id="Path_2276" d="M-253.77-276.474l-.04-.3-.071-.267-.1-.232-.127-.2-.151-.172-.166-.141-.181-.121-.2-.09-.2-.077-.206-.05-.207-.035-.206-.02-.2-.006-.409.021-.362.06-.328.09-.291.127-.252.151-.222.171-.2.191-.161.2-.141.212-.115.222-.09.217-.076.216-.055.212-.04.2-.03.186-.02.161-.025.413.015.372.055.338.085.3.122.267.146.232.171.206.2.171.212.147.228.125.236.1.246.075.252.061.252.036.252.025H-255.465l.131-.006.116-.01.106-.009.1-.011.091-.015.086-.016.08-.019.082-.025.076-.025.075-.031.081-.03.08-.04.082-.04.2-1.24-.146.086-.141.08-.145.061-.141.055-.136.045-.141.03-.137.026-.136.02-.136.011h-.398l-.131-.011-.131-.015-.126-.015-.131-.02-.1-.021-.1-.035-.1-.044-.092-.056-.09-.06-.081-.075-.075-.076-.071-.086-.06-.086-.055-.095-.041-.092-.035-.1-.02-.1-.01-.1v-.085l.013-.065h3.268l.025-.307.076-.424.035-.383zm-1.366.464h-1.84l.013-.07.021-.106.03-.1.035-.1.046-.09.046-.086.054-.082.061-.075.066-.07.064-.06.077-.055.074-.046.086-.04.086-.029.086-.021.09-.015.1-.005.091.011.085.015.081.02.08.03.076.04.076.045.066.05.06.06.05.07.05.075.035.087.035.1.019.1.011.111.006.121z" class="cls-11" transform="translate(279.356 291.37)"/>
            </g>
        </g>
        <g id="Group_396" transform="translate(-151.562 -314.746)">
            <path id="Rectangle_119" d="M4.18 0h74.88a4.182 4.182 0 0 1 4.182 4.182v43.662a4.18 4.18 0 0 1-4.18 4.18H4.181A4.181 4.181 0 0 1 0 47.843V4.18A4.18 4.18 0 0 1 4.18 0z" class="cls-1"/>
            <g id="Group_395" transform="translate(8.909 13.822)">
                <path id="Path_2277" d="M43.679-282.939v-.832l-.4.832h-3.445l-.431-.893v.893h-6.442l-.762-1.8h-1.29l-.8 1.8h-3.348v-5.439l2.45-5.539H33.9l.658 1.569v-1.558h5.734l1.261 2.643 1.232-2.655h18.1a3.08 3.08 0 0 1 1.572.426v-.426h4.559v.6a3.71 3.71 0 0 1 2.032-.6h8.047l.707 1.593v-1.593h5.156l.936 1.593v-1.593h4.929v10.988h-5.066l-1.19-1.915v1.905h-6.293l-.886-1.962h-1.233l-.832 1.962h-3.808a4.936 4.936 0 0 1-2.486-.78v.78h-7.584v-2.56c0-.372-.286-.346-.286-.346h-.276v2.91z" class="cls-7" transform="translate(-26.761 293.917)"/>
                <path id="Path_2278" d="M46.553-273.788h9.965l1.437 1.628 1.471-1.628h7.662a3.528 3.528 0 0 1 1.4.382v-.382h6.822a3.487 3.487 0 0 1 1.593.433v-.433h8.771v.4a2.97 2.97 0 0 1 1.463-.4h5.714v.4a3.49 3.49 0 0 1 1.48-.4h4.489v10.355a2.469 2.469 0 0 1-1.809.668H91.1v-.329a3.031 3.031 0 0 1-1.42.329H73.967v-2.676c0-.263-.116-.311-.35-.311H73.4v2.988h-4.908v-2.97a3.306 3.306 0 0 1-1.455.293h-1.766v2.676H59.22l-1.378-1.68-1.471 1.68h-9.818z" class="cls-7" transform="translate(-33.418 287.146)"/>
                <path id="Path_2279" d="M93.879-271.3h6.253v1.677h-4.339v1.462h4.218v1.478h-4.218v1.539h4.339v1.636h-6.253z" class="cls-13" transform="translate(-49.337 286.309)"/>
                <path id="Path_2280" d="M119.421-268.253c2.351.121 2.547 1.295 2.547 2.547a2.276 2.276 0 0 1-2.451 2.244H115.5v-1.671h3.131c.53 0 1.321 0 1.321-.748 0-.355-.139-.582-.7-.642-.25-.036-1.181-.088-1.321-.09-2.124-.056-2.618-1.112-2.618-2.4a2.147 2.147 0 0 1 2.28-2.259h4.007v1.67h-2.941c-.668.007-1.39-.079-1.39.676 0 .478.355.575.808.619.161 0 1.204.055 1.344.054z" class="cls-13" transform="translate(-56.544 286.3)"/>
                <path id="Path_2281" d="M108.57-268.253c2.351.121 2.548 1.295 2.548 2.547a2.276 2.276 0 0 1-2.452 2.244h-4.018v-1.671h3.131c.53 0 1.323 0 1.323-.748 0-.355-.14-.582-.705-.642-.252-.036-1.183-.088-1.322-.09-2.124-.056-2.617-1.112-2.617-2.4a2.146 2.146 0 0 1 2.278-2.259h4.018v1.67h-2.939c-.67.007-1.392-.079-1.392.676 0 .478.356.575.809.619.155 0 1.2.055 1.338.054z" class="cls-13" transform="translate(-52.895 286.3)"/>
                <path id="Path_2282" d="M67.067-271.281h-6.712l-2.191 2.418-2.122-2.437H48.5v7.791h7.3l2.3-2.574 2.243 2.592h3.67v-2.645h2.574c.992 0 2.8-.034 2.8-2.765a2.158 2.158 0 0 0-2.32-2.38zM54.8-265.143h-4.411v-1.538h4.217v-1.478h-4.217v-1.462l4.651.011 1.863 2.12zm7.313.9l-2.747-3.252 2.747-3.043zm4.313-3.5h-2.384v-1.87h2.389c.8 0 1.054.513 1.054.9a.922.922 0 0 1-1.061.974z" class="cls-13" transform="translate(-34.074 286.309)"/>
                <path id="Path_2283" d="M87.387-267.028a2.127 2.127 0 0 0 1.322-2.157 2.056 2.056 0 0 0-2.3-2.086H81.44v7.791h1.913v-2.749h2.5c.66 0 .921.661.938 1.322l.052 1.427h1.861l-.069-1.6c.005-1.253-.342-1.845-1.248-1.948zm-1.652-.806h-2.382v-1.766h2.39a.917.917 0 0 1 1.052.9c.005.517-.277.865-1.06.865z" class="cls-13" transform="translate(-45.153 286.3)"/>
                <path id="Rectangle_120" d="M0 0H1.913V7.8H0z" class="cls-13" transform="translate(37.053 1.56)"/>
                <path id="Path_2284" d="M59-291.552h6.25v1.677h-4.337v1.462h4.216v1.478h-4.216v1.539h4.337v1.636H59z" class="cls-13" transform="translate(-37.604 293.122)"/>
                <path id="Path_2285" d="M76.079-287.31a2.125 2.125 0 0 0 1.322-2.157 2.056 2.056 0 0 0-2.3-2.085h-4.97v7.791h1.913v-2.747h2.5c.662 0 .922.66.939 1.321l.054 1.427H77.4l-.07-1.6c.001-1.254-.347-1.84-1.251-1.95zm-1.652-.806h-2.383v-1.766h2.39a.917.917 0 0 1 1.052.9c.001.519-.277.866-1.06.866z" class="cls-13" transform="translate(-41.349 293.122)"/>
                <path id="Path_2286" d="M43.752-291.552l-2.352 5.226-2.339-5.226h-3v7.5l-3.339-7.5H30.2l-3.409 7.791H28.8l.747-1.739h3.819l.757 1.739h3.852v-5.784l2.556 5.784h1.739l2.617-5.687v5.687H46.8v-7.791zm-13.478 4.371l1.141-2.724 1.189 2.724z" class="cls-13" transform="translate(-26.769 293.122)"/>
                <path id="Path_2287" d="M105.707-291.558v5.395l-3.226-5.395h-2.827v7.317l-3.26-7.313h-2.531l-2.635 6.035s-1.113 0-1.225-.027c-.463-.095-1.182-.42-1.191-1.794v-.565c0-1.826.992-1.96 2.263-1.96h1.182v-1.693h-2.5c-.869 0-2.761.664-2.824 3.864-.044 2.157.9 3.935 3.016 3.935h2.522l.748-1.739h3.818l.756 1.739h3.773v-5.706l3.444 5.706h2.609v-7.8zm-11.75 4.379L95.1-289.9l1.2 2.724z" class="cls-13" transform="translate(-47 293.124)"/>
            </g>
        </g>
    </g>
</svg>
