<svg xmlns="http://www.w3.org/2000/svg" xmlns:xlink="http://www.w3.org/1999/xlink" width="20" height="20" viewBox="0 0 20 20">
  <defs>
    <clipPath id="clip-path">
      <rect id="Rectangle_2337" data-name="Rectangle 2337" width="20" height="20" transform="translate(1111 994)" fill="#222"/>
    </clipPath>
  </defs>
  <g id="phone-icon" transform="translate(-1111 -994)" clip-path="url(#clip-path)">
    <g id="phone_1_" data-name="phone (1)" transform="translate(1111 994)">
      <g id="Group_3611" data-name="Group 3611">
        <g id="Group_3610" data-name="Group 3610">
          <path id="Path_12457" data-name="Path 12457" d="M15.662,15.537l-1.995-1.995a1.66,1.66,0,0,0-2.348,0l-.7.7a1.86,1.86,0,0,1-1.7.393,4.455,4.455,0,0,1-2.28-1.275,4.454,4.454,0,0,1-1.275-2.28,1.86,1.86,0,0,1,.393-1.7l.7-.7a1.66,1.66,0,0,0,0-2.348L4.463,4.338a1.66,1.66,0,0,0-2.348,0l-.7.7A4.792,4.792,0,0,0,.134,7.5a7.478,7.478,0,0,0,.037,3,12.174,12.174,0,0,0,3.328,6,12.174,12.174,0,0,0,6,3.328A8.394,8.394,0,0,0,11.153,20a6.6,6.6,0,0,0,1.347-.134,4.792,4.792,0,0,0,2.466-1.286l.7-.7A1.662,1.662,0,0,0,15.662,15.537Zm-.847,1.5-.7.7a4.773,4.773,0,0,1-4.38.921,10.949,10.949,0,0,1-5.393-3,10.95,10.95,0,0,1-3-5.393,4.773,4.773,0,0,1,.921-4.38l.7-.7a.463.463,0,0,1,.654,0L5.611,7.18a.463.463,0,0,1,0,.654l-.7.7a3.012,3.012,0,0,0-.724,2.761A5.658,5.658,0,0,0,5.8,14.2a5.657,5.657,0,0,0,2.911,1.606,3.012,3.012,0,0,0,2.761-.724l.7-.7a.463.463,0,0,1,.654,0l1.995,1.995A.463.463,0,0,1,14.815,17.038Z"/>
        </g>
      </g>
      <g id="Group_3613" data-name="Group 3613">
        <g id="Group_3612" data-name="Group 3612">
          <path id="Path_12458" data-name="Path 12458" d="M18.368,1.632A5.574,5.574,0,0,0,8.908,4.787,5.627,5.627,0,0,0,9.393,7.97l-.74,2.638a.6.6,0,0,0,.738.738l2.638-.74a5.626,5.626,0,0,0,3.183.485A5.574,5.574,0,0,0,20,5.574,5.537,5.537,0,0,0,18.368,1.632Zm-.847,7.036a4.352,4.352,0,0,1-5.149.771.6.6,0,0,0-.443-.048l-1.835.515.515-1.835a.6.6,0,0,0-.048-.443,4.377,4.377,0,1,1,6.96,1.04Z"/>
        </g>
      </g>
      <g id="Group_3615" data-name="Group 3615">
        <g id="Group_3614" data-name="Group 3614">
          <path id="Path_12459" data-name="Path 12459" d="M12.309,4.964a.6.6,0,1,0,.6.6A.605.605,0,0,0,12.309,4.964Z"/>
        </g>
      </g>
      <g id="Group_3617" data-name="Group 3617">
        <g id="Group_3616" data-name="Group 3616">
          <path id="Path_12460" data-name="Path 12460" d="M14.438,4.964a.6.6,0,1,0,.6.6A.605.605,0,0,0,14.438,4.964Z"/>
        </g>
      </g>
      <g id="Group_3619" data-name="Group 3619">
        <g id="Group_3618" data-name="Group 3618">
          <path id="Path_12461" data-name="Path 12461" d="M16.566,4.964a.6.6,0,1,0,.6.6A.605.605,0,0,0,16.566,4.964Z"/>
        </g>
      </g>
    </g>
  </g>
</svg>
