<svg xmlns="http://www.w3.org/2000/svg" xmlns:xlink="http://www.w3.org/1999/xlink" width="24" height="24" viewBox="0 0 24 24">
  <defs>
    <clipPath id="clip-path">
      <rect id="Rectangle_2281" data-name="Rectangle 2281" width="24" height="24" transform="translate(536 14)" fill="#ddd"/>
    </clipPath>
  </defs>
  <g id="phone" transform="translate(-536 -14)" clip-path="url(#clip-path)">
    <g id="fi-rr-smartphone" transform="translate(536 14)">
      <path id="Path_12400" data-name="Path 12400" d="M15,0H9A5.006,5.006,0,0,0,4,5V19a5.006,5.006,0,0,0,5,5h6a5.006,5.006,0,0,0,5-5V5A5.006,5.006,0,0,0,15,0ZM9,2h6a3,3,0,0,1,3,3V16H6V5A3,3,0,0,1,9,2Zm6,20H9a3,3,0,0,1-3-3V18H18v1A3,3,0,0,1,15,22Z" fill="#ddd"/>
      <circle id="Ellipse_1340" data-name="Ellipse 1340" cx="1" cy="1" r="1" transform="translate(11 19)" fill="#ddd"/>
    </g>
  </g>
</svg>
