<svg xmlns="http://www.w3.org/2000/svg" xmlns:xlink="http://www.w3.org/1999/xlink" width="18" height="18" viewBox="0 0 18 18">
  <defs>
    <clipPath id="clip-path">
      <rect id="Rectangle_2304" data-name="Rectangle 2304" width="18" height="18" transform="translate(860 455)" fill="#e15068"/>
    </clipPath>
  </defs>
  <g id="place-icon-red" transform="translate(-860 -455)" clip-path="url(#clip-path)">
    <path id="fi-rr-location-alt" d="M9,12a2.25,2.25,0,0,0,1.006-.235l1.5-.75A2.239,2.239,0,0,0,12.75,9V6.775a2.239,2.239,0,0,0-1.243-2.012l-1.5-.75a2.26,2.26,0,0,0-2.012,0l-1.5.75A2.239,2.239,0,0,0,5.25,6.775V9a2.239,2.239,0,0,0,1.243,2.013l1.5.75A2.25,2.25,0,0,0,9,12ZM6.75,9V6.775a.75.75,0,0,1,.038-.225l1.635.817a1.29,1.29,0,0,0,1.153,0l1.635-.817a.75.75,0,0,1,.038.225V9a.745.745,0,0,1-.415.671l-1.5.75a.757.757,0,0,1-.671,0l-1.5-.75A.745.745,0,0,1,6.75,9Zm7.5,7.5H12.218l2.615-2.416A8.25,8.25,0,1,0,3.187,14.1l2.594,2.4H3.75a.75.75,0,0,0,0,1.5h10.5a.75.75,0,0,0,0-1.5ZM4.227,3.477A6.75,6.75,0,0,1,13.795,13l-2.989,2.761a2.635,2.635,0,0,1-3.628-.013L4.227,13.023a6.757,6.757,0,0,1,0-9.546Z" transform="translate(860 455)" fill="#e15068"/>
  </g>
</svg>
