<svg xmlns="http://www.w3.org/2000/svg" width="30" height="30" viewBox="0 0 30 30">
    <defs>
        <clipPath id="clip-path">
            <path id="Rectangle_1344" d="M0 0H30V30H0z" class="cls-1"/>
        </clipPath>
        <style>
            .cls-1{fill:#e15068}
        </style>
    </defs>
    <g id="place" clip-path="url(#clip-path)">
        <g id="marker">
            <path id="Path_10472" d="M8.364 25.613a25.47 25.47 0 0 0 6.636.782 25.468 25.468 0 0 0 6.636-.782c2.183-.617 3.29-1.509 3.29-2.653s-1.107-2.036-3.29-2.653a20.7 20.7 0 0 0-3.454-.624c2.506-4.277 4.988-9.119 4.988-11.514a8.17 8.17 0 0 0-16.341 0c0 2.395 2.483 7.237 4.988 11.513a20.687 20.687 0 0 0-3.454.624c-2.183.617-3.29 1.509-3.29 2.653S6.182 25 8.364 25.613zM15 1.758a6.42 6.42 0 0 1 6.413 6.412c0 1.816-2.247 6.577-6.011 12.735a.47.47 0 0 1-.8 0C10.835 14.747 8.587 9.986 8.587 8.17A6.42 6.42 0 0 1 15 1.758zM9.161 21.913a21.365 21.365 0 0 1 3.657-.552l.28.46a2.228 2.228 0 0 0 3.8 0l.28-.461a21.366 21.366 0 0 1 3.657.552 4.488 4.488 0 0 1 2.314 1.047 4.487 4.487 0 0 1-2.314 1.047 24.664 24.664 0 0 1-5.839.63 24.663 24.663 0 0 1-5.839-.63 4.487 4.487 0 0 1-2.31-1.046 4.489 4.489 0 0 1 2.314-1.047z" class="cls-1"/>
            <path id="Path_10473" d="M27.441 21.034a.879.879 0 1 0-.846 1.541c1.047.575 1.647 1.213 1.647 1.749 0 .656-.93 1.673-3.54 2.56A31.384 31.384 0 0 1 15 28.242a31.384 31.384 0 0 1-9.7-1.358c-2.61-.887-3.54-1.9-3.54-2.56 0-.537.6-1.174 1.647-1.749a.879.879 0 0 0-.846-1.541C1.392 21.675 0 22.766 0 24.323c0 1.194.821 2.9 4.732 4.225A33.159 33.159 0 0 0 15 30a33.159 33.159 0 0 0 10.268-1.452C29.179 27.219 30 25.517 30 24.323c0-1.557-1.392-2.648-2.559-3.289z" class="cls-1"/>
            <path id="Path_10474" d="M18.284 7.609A3.284 3.284 0 1 0 15 10.893a3.288 3.288 0 0 0 3.284-3.284zm-4.81 0A1.526 1.526 0 1 1 15 9.135a1.528 1.528 0 0 1-1.526-1.526z" class="cls-1"/>
        </g>
    </g>
</svg>
