<svg xmlns="http://www.w3.org/2000/svg" xmlns:xlink="http://www.w3.org/1999/xlink" width="24" height="24" viewBox="0 0 24 24">
  <defs>
    <clipPath id="clip-path">
      <rect id="Rectangle_2316" data-name="Rectangle 2316" width="24" height="24" transform="translate(128 834)" fill="#222"/>
    </clipPath>
  </defs>
  <g id="pool" transform="translate(-128 -834)" clip-path="url(#clip-path)">
    <g id="swimming-pool" transform="translate(128 834)">
      <path id="Path_12476" data-name="Path 12476" d="M24,3.529V2.471a2.471,2.471,0,1,0-4.941,0V5.647H13.412V2.471a1.059,1.059,0,0,1,2.118,0V3.529h1.412V2.471a2.471,2.471,0,0,0-4.941,0V12h0a2.908,2.908,0,0,0-1.8.589,1.654,1.654,0,0,1-2.04,0A2.908,2.908,0,0,0,6.353,12a2.908,2.908,0,0,0-1.8.589,1.552,1.552,0,0,1-1.02.352,1.552,1.552,0,0,1-1.02-.352A2.907,2.907,0,0,0,.706,12H0V24H24V12h-.706a2.908,2.908,0,0,0-1.8.589,1.552,1.552,0,0,1-1.02.352V2.471a1.059,1.059,0,0,1,2.118,0V3.529ZM19.059,7.059V9.176H13.412V7.059Zm-5.647,3.529h5.647v1.757A2.786,2.786,0,0,0,17.647,12a2.908,2.908,0,0,0-1.8.589,1.551,1.551,0,0,1-1.02.352c-.686,0-.841-.281-1.411-.6Zm-12,6.51a3.516,3.516,0,0,0,2.118.784,2.908,2.908,0,0,0,1.8-.589,1.552,1.552,0,0,1,1.02-.352,1.552,1.552,0,0,1,1.02.352,2.908,2.908,0,0,0,1.8.589,2.907,2.907,0,0,0,1.8-.589,1.654,1.654,0,0,1,2.04,0,3.054,3.054,0,0,0,3.607,0,1.655,1.655,0,0,1,2.041,0,2.908,2.908,0,0,0,1.8.589,3.517,3.517,0,0,0,2.118-.784v1.8a3.105,3.105,0,0,0-1.1.514,1.655,1.655,0,0,1-2.041,0,3.055,3.055,0,0,0-3.607,0,1.654,1.654,0,0,1-2.04,0,3.054,3.054,0,0,0-3.607,0,1.654,1.654,0,0,1-2.04,0,2.908,2.908,0,0,0-1.8-.589,2.908,2.908,0,0,0-1.8.589,1.552,1.552,0,0,1-1.02.352,1.552,1.552,0,0,1-1.02-.352,3.105,3.105,0,0,0-1.1-.514Zm0,5.49v-2.2a3.516,3.516,0,0,0,2.118.784,2.908,2.908,0,0,0,1.8-.589,1.552,1.552,0,0,1,1.02-.352,1.552,1.552,0,0,1,1.02.352,2.908,2.908,0,0,0,1.8.589,2.907,2.907,0,0,0,1.8-.589,1.654,1.654,0,0,1,2.04,0,3.054,3.054,0,0,0,3.607,0,1.655,1.655,0,0,1,2.041,0,2.908,2.908,0,0,0,1.8.589,3.517,3.517,0,0,0,2.118-.784v2.2Zm21.176-9.019V15.6a3.106,3.106,0,0,0-1.1.514,1.655,1.655,0,0,1-2.041,0,3.055,3.055,0,0,0-3.607,0,1.654,1.654,0,0,1-2.04,0,3.054,3.054,0,0,0-3.607,0,1.654,1.654,0,0,1-2.04,0,2.908,2.908,0,0,0-1.8-.589,2.908,2.908,0,0,0-1.8.589,1.552,1.552,0,0,1-1.02.352,1.552,1.552,0,0,1-1.02-.352,3.105,3.105,0,0,0-1.1-.514V13.569a3.516,3.516,0,0,0,2.118.784,2.908,2.908,0,0,0,1.8-.589,1.552,1.552,0,0,1,1.02-.352,1.552,1.552,0,0,1,1.02.352,2.908,2.908,0,0,0,1.8.589,2.907,2.907,0,0,0,1.8-.589,1.654,1.654,0,0,1,2.04,0,3.054,3.054,0,0,0,3.607,0,1.655,1.655,0,0,1,2.041,0,2.908,2.908,0,0,0,1.8.589,3.517,3.517,0,0,0,2.118-.784Z"/>
    </g>
  </g>
</svg>
