<svg xmlns="http://www.w3.org/2000/svg" xmlns:xlink="http://www.w3.org/1999/xlink" width="24" height="24" viewBox="0 0 24 24">
  <defs>
    <clipPath id="clip-path">
      <rect id="Rectangle_2327" data-name="Rectangle 2327" width="24" height="24" transform="translate(128 1572)" fill="#717171"/>
    </clipPath>
  </defs>
  <g id="restriction" transform="translate(-128 -1572)" clip-path="url(#clip-path)">
    <path id="fi-rr-ban" d="M12,0A12,12,0,1,0,24,12,12,12,0,0,0,12,0Zm0,2a9.949,9.949,0,0,1,6.324,2.262L4.262,18.324A9.992,9.992,0,0,1,12,2Zm0,20a9.949,9.949,0,0,1-6.324-2.262L19.738,5.676A9.992,9.992,0,0,1,12,22Z" transform="translate(128 1572)" fill="#717171"/>
  </g>
</svg>
