<svg xmlns="http://www.w3.org/2000/svg" xmlns:xlink="http://www.w3.org/1999/xlink" width="18" height="18" viewBox="0 0 18 18">
  <defs>
    <clipPath id="clip-path">
      <rect id="Rectangle_2293" data-name="Rectangle 2293" width="18" height="18" transform="translate(860 455)" fill="#e15068"/>
    </clipPath>
  </defs>
  <g id="Mask_Group_35" data-name="Mask Group 35" transform="translate(-860 -455)" clip-path="url(#clip-path)">
    <path id="fi-rr-star" d="M17.88,6.6a2.385,2.385,0,0,0-2.3-1.67H12.3l-1-3.1a2.421,2.421,0,0,0-4.61,0l-1,3.1H2.424A2.421,2.421,0,0,0,1,9.3l2.667,1.95L2.652,14.393a2.421,2.421,0,0,0,3.739,2.7L9,15.167l2.612,1.92a2.421,2.421,0,0,0,3.738-2.694l-1.014-3.141,2.67-1.95a2.383,2.383,0,0,0,.872-2.7ZM16.122,8.09l-3.109,2.272a.75.75,0,0,0-.272.837l1.181,3.653A.92.92,0,0,1,12.5,15.876l-3.057-2.25a.75.75,0,0,0-.888,0L5.5,15.876a.92.92,0,0,1-1.425-1.024L5.261,11.2a.75.75,0,0,0-.272-.837L1.881,8.09a.92.92,0,0,1,.543-1.663H6.249a.75.75,0,0,0,.714-.521L8.126,2.283a.92.92,0,0,1,1.752,0l1.163,3.624a.75.75,0,0,0,.714.521h3.826a.92.92,0,0,1,.543,1.663Z" transform="translate(859.994 455.144)" fill="#e15068"/>
  </g>
</svg>
