<svg xmlns="http://www.w3.org/2000/svg" width="24" height="24" viewBox="0 0 24 24">
    <defs>
        <clipPath id="clip-path">
            <path id="Rectangle_1109" d="M0 0H24V24H0z" class="cls-1"/>
        </clipPath>
        <style>
            .cls-1{fill:#222}
        </style>
    </defs>
    <g id="secure-payment-icon" clip-path="url(#clip-path)">
        <g id="padlock">
            <g id="_027---Secure">
                <path id="Shape" d="M23.76 3.2L17.36.433a.4.4 0 0 0-.317 0l-3.79 1.637A6.792 6.792 0 0 0 2 7.2v2a2 2 0 0 0-2 2v11.2a2 2 0 0 0 2 2h13.6a2 2 0 0 0 2-2v-5.32c.013-.008.028-.011.04-.02l4.423-3.149A4.6 4.6 0 0 0 24 10.175v-6.61a.4.4 0 0 0-.24-.365zM2.8 7.2a6 6 0 0 1 9.63-4.775l-1.79.775-.014.008A4.394 4.394 0 0 0 4.4 7.2v2H2.8zm7.6 2H5.2v-2a3.586 3.586 0 0 1 5.2-3.216zm5.2 14.4H2a1.2 1.2 0 0 1-1.2-1.2V22h2.4a.4.4 0 1 0 0-.8H.8v-.8h2.4a.4.4 0 0 0 0-.8H.8v-.8h2.4a.4.4 0 1 0 0-.8H.8v-.8h2.4a.4.4 0 1 0 0-.8H.8v-.8h2.4a.4.4 0 1 0 0-.8H.8V14h2.4a.4.4 0 1 0 0-.8H.8v-.8h2.4a.4.4 0 1 0 0-.8H.8v-.4A1.2 1.2 0 0 1 2 10h8.4v.176a4.6 4.6 0 0 0 1.936 3.735l3.5 2.49H14.4a.4.4 0 1 0 0 .8h2.4V18h-2.4a.4.4 0 1 0 0 .8h2.4v.8h-2.4a.4.4 0 0 0 0 .8h2.4v.8h-2.4a.4.4 0 1 0 0 .8h2.4v.4a1.2 1.2 0 0 1-1.2 1.2zm7.6-13.424a3.8 3.8 0 0 1-1.6 3.083l-4.4 3.132-4.4-3.132a3.8 3.8 0 0 1-1.6-3.083V3.828l2.14-.928h.011L17.2 1.236l6 2.592z" class="cls-1" transform="translate(0 -.4)"/>
                <path id="Shape-2" d="M17.04 2.176l-4.8 2.074a.4.4 0 0 0-.24.367v5.56a3 3 0 0 0 1.264 2.432l3.7 2.636a.4.4 0 0 0 .464 0l3.7-2.636a3 3 0 0 0 1.272-2.434V4.616a.4.4 0 0 0-.24-.367l-4.8-2.074a.4.4 0 0 0-.32.001zm4.56 2.7v5.3a2.194 2.194 0 0 1-.928 1.78l-3.472 2.47-3.472-2.471a2.2 2.2 0 0 1-.928-1.78V4.88l4.4-1.9z" class="cls-1" transform="translate(0 -.4)"/>
                <path id="Shape-3" d="M14.7 9.166a.4.4 0 0 0-.48.64l1.828 1.371a.4.4 0 0 0 .552-.07l3.657-4.571a.4.4 0 1 0-.625-.5L16.215 10.3z" class="cls-1" transform="translate(0 -.4)"/>
                <path id="Shape-4" d="M11.2 15.2a2.4 2.4 0 1 0-3.813 1.939l-.58 3.19a.4.4 0 0 0 .393.471h3.2a.4.4 0 0 0 .393-.472l-.58-3.19A2.41 2.41 0 0 0 11.2 15.2zm-1.625 1.4a.4.4 0 0 0-.2.42L9.92 20H7.68l.542-2.98a.4.4 0 0 0-.2-.42 1.6 1.6 0 1 1 1.551 0z" class="cls-1" transform="translate(0 -.4)"/>
            </g>
        </g>
    </g>
</svg>
