<svg xmlns="http://www.w3.org/2000/svg" xmlns:xlink="http://www.w3.org/1999/xlink" width="38" height="38" viewBox="0 0 38 38">
  <defs>
    <clipPath id="clip-path">
      <rect id="Rectangle_2382" data-name="Rectangle 2382" width="38" height="38" transform="translate(339 605)" fill="#e15068" stroke="#707070" stroke-width="1"/>
    </clipPath>
  </defs>
  <g id="secure-red" transform="translate(-339 -605)" clip-path="url(#clip-path)">
    <g id="surface1" transform="translate(341.82 605)">
      <path id="Path_13366" data-name="Path 13366" d="M32.321,10.31v-.03c-.017-.365-.028-.751-.034-1.181a4.027,4.027,0,0,0-3.792-3.945A15.628,15.628,0,0,1,17.857.671L17.833.648a2.432,2.432,0,0,0-3.305,0L14.5.671A15.629,15.629,0,0,1,3.866,5.155,4.027,4.027,0,0,0,.074,9.1c-.006.427-.018.813-.034,1.181l0,.069c-.085,4.455-.19,10,1.664,15.032a19.136,19.136,0,0,0,4.591,7.151,24.015,24.015,0,0,0,8.984,5.314,2.783,2.783,0,0,0,.368.1,2.719,2.719,0,0,0,1.069,0,2.791,2.791,0,0,0,.37-.1,24.031,24.031,0,0,0,8.974-5.317,19.163,19.163,0,0,0,4.591-7.153C32.511,20.329,32.406,14.774,32.321,10.31ZM28.557,24.605c-1.956,5.3-5.95,8.947-12.209,11.136a.559.559,0,0,1-.071.019.5.5,0,0,1-.2,0,.555.555,0,0,1-.07-.019C9.746,33.556,5.75,29.916,3.795,24.611c-1.71-4.639-1.613-9.729-1.527-14.219v-.025c.017-.386.029-.79.035-1.234A1.79,1.79,0,0,1,3.99,7.381a19.564,19.564,0,0,0,6.64-1.461,17.373,17.373,0,0,0,5.411-3.636.206.206,0,0,1,.276,0A17.379,17.379,0,0,0,21.729,5.92,19.565,19.565,0,0,0,28.37,7.381a1.79,1.79,0,0,1,1.687,1.752c.007.446.018.851.036,1.234C30.177,14.863,30.272,19.956,28.557,24.605Zm0,0" fill="#e15068"/>
      <path id="Path_13367" data-name="Path 13367" d="M16.179,9.53A9.47,9.47,0,1,0,25.65,19,9.481,9.481,0,0,0,16.179,9.53Zm0,16.711A7.24,7.24,0,1,1,23.419,19,7.249,7.249,0,0,1,16.179,26.241Zm0,0" fill="#e15068"/>
      <path id="Path_13368" data-name="Path 13368" d="M18.9,16.061l-4.4,4.4-1.194-1.194a1.115,1.115,0,0,0-1.577,1.577l1.982,1.982a1.115,1.115,0,0,0,1.577,0l5.187-5.187A1.115,1.115,0,1,0,18.9,16.061Zm0,0" fill="#e15068"/>
    </g>
  </g>
</svg>
