<svg xmlns="http://www.w3.org/2000/svg" width="40" height="40" viewBox="0 0 40 40">
    <defs>
        <clipPath id="yyqqg3bvwa">
            <path fill="#222" d="M0 0H40V40H0z" transform="translate(2.777)"/>
        </clipPath>
    </defs>
    <g clip-path="url(#yyqqg3bvwa)" transform="translate(-2.777)">
        <g transform="translate(2.777 5.403)">
            <path d="M41.4 34.885H11.722a.787.787 0 0 0-.787.787v5.115a.787.787 0 0 0 .787.787h19.337a.787.787 0 1 0 0-1.574h-2.332v-3.541h11.886V40H38.22a.787.787 0 0 0 0 1.574h3.18a.787.787 0 0 0 .787-.787v-5.115a.787.787 0 0 0-.787-.787zm-28.891 1.574h14.644V40H12.509z" transform="translate(-2.187 -12.38)"/>
            <path d="M7.787 34.885a.787.787 0 0 0-.787.787v5.115a.787.787 0 1 0 1.574 0v-5.115a.787.787 0 0 0-.787-.787z" transform="translate(-1.4 -12.38)"/>
            <path d="M3.853 36.066a.787.787 0 0 0-.787.787v3.226a.787.787 0 1 0 1.574 0v-3.226a.787.787 0 0 0-.787-.787z" transform="translate(-.613 -12.616)"/>
            <path d="M6.4 6.754a.787.787 0 0 0-.787.787v1.1A1.313 1.313 0 0 1 4.3 9.954H2.885a2.885 2.885 0 1 0 0 5.77H4.3a1.313 1.313 0 0 1 1.311 1.311v.577A1.313 1.313 0 0 1 4.3 18.925H2.885A2.888 2.888 0 0 0 0 21.81v.262a2.888 2.888 0 0 0 2.885 2.885H4.3a1.313 1.313 0 0 1 1.311 1.311v.63a.787.787 0 1 0 1.574 0v-.63A2.888 2.888 0 0 0 4.3 23.384H2.885a1.313 1.313 0 0 1-1.311-1.311v-.263a1.313 1.313 0 0 1 1.311-1.31H4.3a2.889 2.889 0 0 0 2.885-2.885v-.577A2.889 2.889 0 0 0 4.3 14.151H2.885a1.311 1.311 0 1 1 0-2.623H4.3a2.889 2.889 0 0 0 2.887-2.885v-1.1a.787.787 0 0 0-.787-.789z" transform="translate(0 -6.754)"/>
            <circle cx=".781" cy=".781" r=".781" transform="translate(31.652 27.626)"/>
        </g>
    </g>
</svg>
