<svg xmlns="http://www.w3.org/2000/svg" xmlns:xlink="http://www.w3.org/1999/xlink" width="20" height="20" viewBox="0 0 20 20">
  <defs>
    <clipPath id="clip-path">
      <rect id="Rectangle_2462" data-name="Rectangle 2462" width="20" height="20" transform="translate(40 757)" fill="#ddd"/>
    </clipPath>
  </defs>
  <g id="travels-gray" transform="translate(-40 -757)" clip-path="url(#clip-path)">
    <g id="backpack" transform="translate(40 757)">
      <path id="Path_13702" data-name="Path 13702" d="M18.824,15.882A2.946,2.946,0,0,0,16.471,13V8.824a6.435,6.435,0,0,0-1.176-3.716V1.765a1.765,1.765,0,1,0-3.529,0V2.6A6.485,6.485,0,0,0,8.824,2.46v-.7a1.765,1.765,0,0,0-3.529,0V4.387A6.447,6.447,0,0,0,3.529,8.824V13a2.946,2.946,0,0,0-2.353,2.882v2.941H3.529V20H16.471V18.824h2.353ZM12.941,1.765a.588.588,0,1,1,1.176,0V3.833a6.49,6.49,0,0,0-1.176-.774Zm2.05,5.294H12.353V5.882H11.176V7.059H8.824V5.882H7.647V7.059H5.009a5.294,5.294,0,0,1,9.983,0ZM6.471,1.765a.588.588,0,0,1,1.176,0v1.03A6.491,6.491,0,0,0,6.471,3.4ZM2.353,17.647V15.882a1.768,1.768,0,0,1,1.176-1.664v3.429Zm2.353,1.176v-10a5.328,5.328,0,0,1,.033-.588H7.647V9.412H8.824V8.235h2.353V9.412h1.176V8.235h2.908a5.328,5.328,0,0,1,.033.588v10Zm12.941-1.176H16.471V14.218a1.768,1.768,0,0,1,1.176,1.664Z" fill="#ddd"/>
      <path id="Path_13703" data-name="Path 13703" d="M6.471,17.647h7.059V11.765H6.471Zm1.176-4.706h4.706v3.529H7.647Z" fill="#ddd"/>
    </g>
  </g>
</svg>
