<svg xmlns="http://www.w3.org/2000/svg" xmlns:xlink="http://www.w3.org/1999/xlink" width="24" height="24" viewBox="0 0 24 24">
  <defs>
    <clipPath id="clip-path">
      <rect id="Rectangle_2338" data-name="Rectangle 2338" width="24" height="24" transform="translate(128 834)" fill="#222"/>
    </clipPath>
  </defs>
  <g id="user-group" transform="translate(-128 -834)" clip-path="url(#clip-path)">
    <g id="XMLID_10_" transform="translate(128 834)">
      <g id="Group_3654" data-name="Group 3654">
        <path id="Path_12489" data-name="Path 12489" d="M24,16.949a6.909,6.909,0,0,0-1.216-3.922,7.013,7.013,0,0,0-2.164-2.044A5.219,5.219,0,1,0,12.756,4.2a5.187,5.187,0,0,0-1.511,0,5.219,5.219,0,1,0-7.864,6.78,7.011,7.011,0,0,0-2.164,2.044A6.91,6.91,0,0,0,0,16.949v2.9H5.034v2.175H18.967V19.853H24v-2.9h0ZM17.033,3.261a3.933,3.933,0,0,1,0,7.866l-.117,0,.008-.025a5.17,5.17,0,0,0,.168-.585c0-.014.007-.028.01-.042.012-.054.022-.108.032-.163,0-.026.01-.051.014-.077q.012-.073.022-.147c0-.034.009-.068.013-.1s.01-.087.014-.13.007-.089.01-.134.005-.07.007-.106q.005-.114.006-.228c0-.006,0-.011,0-.017s0-.006,0-.009c0-.078,0-.155-.006-.232,0-.022,0-.045,0-.067q-.006-.1-.015-.2c0-.015,0-.029,0-.044a5.2,5.2,0,0,0-3.1-4.238A3.944,3.944,0,0,1,17.033,3.261ZM10.639,5.678l.038-.013.118-.04.091-.028.066-.019.12-.031a3.91,3.91,0,0,1,1.856,0l.119.031.067.019.09.027.12.041.036.013a3.945,3.945,0,0,1,2.525,3.077l.005.034c.007.048.013.1.018.145,0,.018,0,.036.006.054,0,.044.007.089.01.134,0,.019,0,.038,0,.058q0,.086,0,.173c0,.005,0,.01,0,.015s0,0,0,.007c0,.056,0,.112,0,.167,0,.017,0,.035,0,.052q0,.08-.012.16c0,.02,0,.041-.007.061s-.008.068-.013.1-.007.053-.012.079-.014.08-.021.12-.014.071-.022.106l-.015.063q-.019.078-.041.156c-.006.021-.011.041-.018.062s-.019.059-.028.088l-.024.07c-.009.026-.018.053-.028.079q-.025.067-.052.133l-.025.059q-.024.055-.049.109l-.006.013-.018.038q-.029.058-.059.116l-.024.045,0,0c-.022.041-.046.081-.069.12l-.028.047q-.039.063-.08.124l-.052.075-.045.063-.06.08-.042.054-.066.08-.042.049-.07.079-.043.045q-.058.061-.119.12l-.073.069-.052.046-.086.074-.044.037q-.052.043-.106.084l-.029.022a3.924,3.924,0,0,1-4.683,0L9.63,12.5q-.054-.041-.107-.084l-.044-.036-.086-.074-.052-.046-.073-.069q-.061-.059-.119-.121l-.043-.045-.07-.079L8.994,11.9l-.066-.08-.042-.054-.06-.08-.045-.063-.052-.075q-.041-.061-.08-.124l-.028-.046c-.024-.04-.048-.081-.07-.122l-.024-.046c-.02-.038-.04-.077-.059-.116l-.02-.042,0-.006c-.018-.038-.035-.076-.052-.114l-.024-.055q-.028-.067-.054-.136c-.009-.025-.018-.049-.026-.074l-.026-.077c-.009-.028-.018-.056-.027-.084s-.025-.084-.036-.126-.015-.06-.022-.09-.011-.047-.016-.071-.013-.058-.019-.087q-.013-.068-.024-.137c0-.025-.007-.05-.011-.074s-.01-.074-.014-.111c0-.018,0-.036-.006-.055-.005-.054-.009-.109-.012-.164,0-.016,0-.032,0-.047,0-.059,0-.118,0-.177s0-.127,0-.189c0-.017,0-.034,0-.051,0-.047.006-.094.011-.141,0-.016,0-.033.005-.049.006-.051.012-.1.019-.151l0-.029A3.945,3.945,0,0,1,10.639,5.678ZM3.034,7.194a3.931,3.931,0,0,1,6.873-2.61,5.2,5.2,0,0,0-3.1,4.24c0,.013,0,.026,0,.038q-.01.1-.015.2c0,.021,0,.041,0,.062,0,.081-.006.161-.006.243s0,.164.006.246c0,.033,0,.066.006.1s.006.094.011.141.009.083.014.125.009.072.014.108.014.095.021.141c0,.028.01.056.015.084.01.053.02.105.031.157l.012.051a5.16,5.16,0,0,0,.163.568l.012.036-.117,0A3.937,3.937,0,0,1,3.034,7.194Zm3.08,8.215-.042.068c-.029.048-.059.1-.087.143l-.046.081c-.025.045-.05.089-.075.135l-.045.086q-.035.067-.069.135l-.042.086c-.023.048-.045.1-.066.144l-.035.079c-.025.058-.049.116-.073.174l-.021.051q-.045.114-.085.229l-.018.053c-.02.059-.04.118-.059.178-.009.027-.016.055-.025.082-.015.051-.03.1-.044.152-.008.03-.016.061-.024.091q-.019.073-.037.147-.011.047-.022.093c-.011.05-.021.1-.031.15-.006.03-.012.06-.018.09-.01.055-.019.109-.028.164,0,.026-.009.051-.013.077-.012.081-.023.161-.032.242v0q-.012.111-.021.222H1.289V16.949a5.666,5.666,0,0,1,3.257-5.131,5.2,5.2,0,0,0,3.178.542c.039.056.079.111.12.165l.043.054c.041.052.082.1.125.154l.053.061q.06.069.122.136L8.253,13q.057.059.116.116l.043.043q-.084.051-.166.1l-.027.018q-.082.054-.163.109L8,13.428l-.143.1-.045.033q-.09.068-.178.139l-.038.031q-.07.057-.138.116l-.053.046q-.068.06-.135.122l-.035.032q-.082.077-.161.157l-.041.042q-.061.062-.12.126l-.047.051q-.067.073-.132.148l-.021.023q-.074.086-.145.175l-.039.05q-.054.068-.106.138l-.04.054c-.045.062-.09.124-.134.188S6.158,15.339,6.114,15.409Zm.208,5.33V19.124q0-.107,0-.214c0-.023,0-.047,0-.07,0-.047,0-.095.008-.142,0-.029.005-.057.008-.086s.007-.083.012-.125.008-.06.012-.091.01-.079.016-.118.01-.062.016-.093.012-.076.019-.113.013-.063.019-.095.015-.073.023-.109.015-.064.023-.1.017-.071.026-.106.018-.064.027-.1.019-.069.03-.1.02-.064.031-.1.022-.067.033-.1.023-.063.034-.094.024-.066.037-.1.025-.062.038-.093.026-.065.04-.1.027-.062.041-.092.028-.063.043-.095.03-.061.045-.091.03-.062.046-.093L7,16.427l.049-.09.051-.088.053-.088.055-.086.056-.086.058-.085.059-.084.061-.083.061-.081.064-.081.064-.079.067-.078.068-.077.07-.076.07-.075.072-.073.073-.072.075-.071.076-.07.078-.068.079-.067.08-.065.082-.065.082-.062.085-.062.085-.059.088-.059.087-.056.091-.057.089-.053.093-.054.091-.05.1-.051.093-.047.074-.035a5.2,5.2,0,0,0,4.842,0l.073.035.094.047.1.05.092.051.092.053.09.054.09.056.088.057.087.059.086.06.084.061.083.063.081.064.081.066.079.067.078.068.076.069.076.071.073.072.073.074.07.074.07.076.067.076.067.079.064.079.064.081.061.081.061.083.058.083.058.085.055.086.055.087.052.088.052.089.049.09.048.09c.016.031.031.062.046.092s.03.061.045.091.029.063.043.095.028.062.041.093.027.064.04.1.026.063.038.094.024.066.036.1.023.063.034.095.022.068.033.1.021.063.031.1.02.069.03.1.018.063.027.1.018.071.026.106.016.063.023.1.015.073.023.109.013.063.019.095.013.075.019.112.011.063.016.094.01.078.015.117.008.061.012.091.008.083.012.125.006.057.008.086c0,.047.006.095.008.142,0,.023,0,.046,0,.07q0,.107,0,.214v1.616H6.322Zm12.622-2.175q-.019-.235-.054-.468c0-.025-.008-.049-.012-.073-.009-.056-.018-.112-.029-.168-.005-.029-.011-.059-.017-.088q-.015-.076-.032-.152l-.021-.091q-.018-.075-.037-.149c-.008-.03-.016-.06-.024-.09-.014-.051-.029-.1-.045-.154-.008-.027-.016-.054-.024-.081-.019-.061-.039-.121-.06-.181l-.017-.05q-.041-.115-.086-.23l-.02-.049c-.024-.059-.048-.118-.074-.177l-.035-.077c-.022-.049-.044-.1-.067-.145l-.041-.084q-.034-.069-.069-.137l-.045-.085q-.037-.068-.075-.135l-.046-.081c-.028-.048-.058-.1-.087-.144l-.041-.067q-.066-.1-.136-.207c-.044-.064-.088-.126-.134-.188l-.04-.053q-.052-.07-.106-.138l-.039-.049q-.071-.089-.145-.176l-.02-.022q-.065-.076-.133-.149l-.047-.05q-.06-.064-.121-.127l-.04-.041q-.08-.08-.162-.157l-.034-.032q-.067-.062-.136-.123l-.052-.046q-.068-.059-.138-.116l-.038-.031q-.088-.071-.177-.139l-.045-.033-.142-.1-.056-.039q-.08-.055-.162-.108l-.028-.019q-.082-.053-.166-.1l.042-.042q.06-.058.118-.118l.064-.067c.042-.045.083-.091.124-.138l.052-.06c.043-.051.085-.1.127-.156l.041-.052c.041-.054.081-.11.121-.166a5.2,5.2,0,0,0,3.178-.542,5.666,5.666,0,0,1,3.257,5.131v1.616Z"/>
      </g>
    </g>
  </g>
</svg>
