<svg xmlns="http://www.w3.org/2000/svg" width="24" height="24" viewBox="0 0 24 24">
    <defs>
        <clipPath id="clip-path">
            <path id="Rectangle_2281" d="M0 0H24V24H0z" class="cls-1" transform="translate(536 14)"/>
        </clipPath>
        <style>
            .cls-1{fill:#ddd}
        </style>
    </defs>
    <g id="user" clip-path="url(#clip-path)" transform="translate(-536 -14)">
        <g id="fi-rr-user" transform="translate(536 14)">
            <path id="Path_12396" d="M12 12a6 6 0 1 0-6-6 6 6 0 0 0 6 6zm0-10a4 4 0 1 1-4 4 4 4 0 0 1 4-4z" class="cls-1"/>
            <path id="Path_12397" d="M12 14a9.01 9.01 0 0 0-9 9 1 1 0 1 0 2 0 7 7 0 0 1 14 0 1 1 0 0 0 2 0 9.01 9.01 0 0 0-9-9z" class="cls-1"/>
        </g>
    </g>
</svg>
