<svg xmlns="http://www.w3.org/2000/svg" xmlns:xlink="http://www.w3.org/1999/xlink" width="24" height="24" viewBox="0 0 24 24">
  <defs>
    <clipPath id="clip-path">
      <rect id="Rectangle_2316" data-name="Rectangle 2316" width="24" height="24" transform="translate(128 834)" fill="#222"/>
    </clipPath>
  </defs>
  <g id="wifi" transform="translate(-128 -834)" clip-path="url(#clip-path)">
    <g id="_3274643" data-name="3274643" transform="translate(128.002 833.999)">
      <path id="Path_12439" data-name="Path 12439" d="M6.684,29.985c.4,0,.8-.011,1.195.005.184.007.217-.056.215-.224-.009-.8,0-1.593-.008-2.391,0-.166.045-.212.208-.206.32.013.641-.009.96.007.2.011.245-.047.245-.243q-.01-3.843,0-7.686c0-.193-.083-.442.034-.564s.37-.031.564-.038.392.013.585-.005.227.063.226.235c-.005,2.671,0,5.343-.009,8.014,0,.239.058.307.293.29.3-.023.609,0,.914-.009.162-.007.212.038.21.205-.009.8,0,1.593-.008,2.39,0,.167.029.225.214.225q6.14-.01,12.276,0c.181,0,.218-.053.216-.223-.009-.8,0-1.593-.008-2.39,0-.165.043-.214.208-.207.32.013.641-.009.96.007.193.01.246-.044.245-.242-.007-2.578,0-5.156-.005-7.733,0-.564,0-.564.551-.559.211,0,.423.015.632,0,.192-.016.228.057.228.234-.006,2.672,0,5.343-.01,8.014,0,.236.054.309.292.291.295-.023.594,0,.89-.009.178-.009.238.037.235.227-.012.773.006,1.547-.011,2.32-.005.237.068.286.286.274.335-.019.672,0,1.007-.008.136,0,.168.044.168.174q-.006,3.338,0,6.678c0,.172-.07.184-.206.183-.814,0-1.625,0-2.438-.006-.168,0-.231.031-.224.215.016.4.005.8.005,1.195h-1.4c0-.383-.014-.766.006-1.147.012-.221-.063-.264-.27-.264q-4.508.011-9.013,0-3.005,0-6.017,0c-.17,0-.23.035-.223.216.015.4.005.8.005,1.194H9.5c0-.406-.007-.811,0-1.216,0-.156-.046-.195-.2-.193-.873.007-1.746,0-2.619,0ZM18.69,31.391q-5.179,0-10.356,0c-.188,0-.25.031-.25.237q.016,1.886,0,3.772c0,.178.048.222.222.218.585-.011,1.171,0,1.757,0q9.488,0,18.977.005c.2,0,.239-.063.237-.25q-.012-1.862,0-3.725c0-.21-.054-.254-.257-.254Q23.855,31.4,18.69,31.391Zm-8.535-1.408c.239,0,.426,0,.612,0,.1,0,.137-.035.134-.135-.006-.188.006-.376,0-.564-.009-.231.1-.53-.045-.673s-.43-.033-.654-.036-.525-.078-.654.036c-.15.13-.044.438-.048.668s-.1.52.034.654C9.678,30.087,9.977,29.962,10.156,29.984Zm16.919,0c.239,0,.426,0,.612,0,.1,0,.137-.035.134-.135-.005-.188.006-.376,0-.564-.009-.231.1-.53-.045-.673s-.43-.033-.654-.036-.524-.078-.654.036c-.15.13-.044.438-.048.668s-.1.52.035.654c.142.152.441.027.62.049Z" transform="translate(-6.684 -14.423)"/>
      <path id="Path_12440" data-name="Path 12440" d="M18.529,14.423a13.784,13.784,0,0,1,5.109.947c.213.083.247.165.146.364a6.909,6.909,0,0,0-.358.838c-.063.188-.147.178-.3.115a11.813,11.813,0,0,0-4.639-.856,11.667,11.667,0,0,0-4.24.859c-.188.077-.25.039-.313-.137-.113-.307-.247-.607-.383-.9-.056-.125-.05-.182.09-.238a13.405,13.405,0,0,1,3.407-.886,11.5,11.5,0,0,1,1.483-.1Z" transform="translate(-6.684 -14.423)"/>
      <path id="Path_12441" data-name="Path 12441" d="M18.792,17.238a10.7,10.7,0,0,1,3.779.739c.191.075.207.15.125.319-.134.281-.256.569-.365.86-.063.167-.13.2-.3.13a9.079,9.079,0,0,0-6.688,0c-.163.066-.242.059-.308-.12-.113-.307-.244-.607-.383-.9-.069-.149-.042-.21.111-.27a10.946,10.946,0,0,1,4.031-.753Z" transform="translate(-6.684 -14.423)"/>
      <path id="Path_12442" data-name="Path 12442" d="M18.642,20.047a7.909,7.909,0,0,1,2.874.537c.147.058.168.111.1.25-.144.313-.276.626-.4.947-.049.125-.093.165-.237.11a6.235,6.235,0,0,0-4.593,0c-.142.054-.188.018-.239-.108-.125-.319-.26-.636-.4-.946-.063-.139-.043-.193.1-.25A7.852,7.852,0,0,1,18.642,20.047Z" transform="translate(-6.684 -14.423)"/>
      <path id="Path_12443" data-name="Path 12443" d="M13.033,32.8c1.109,0,2.218,0,3.326,0,.175,0,.227.044.22.22-.015.335-.011.671,0,1.007,0,.136-.026.188-.178.188q-3.36-.009-6.722,0c-.144,0-.188-.039-.183-.183.011-.327.015-.656,0-.983-.009-.188.038-.25.239-.25,1.1.011,2.2.005,3.3.005Z" transform="translate(-6.684 -14.423)"/>
      <path id="Path_12444" data-name="Path 12444" d="M22.179,33.5c0,.225.088.527-.023.654-.131.148-.438.037-.67.046-.188.008-.376,0-.564,0-.1,0-.137-.03-.136-.133q.007-.573,0-1.146c0-.106.043-.131.139-.131.376,0,.751.006,1.123,0,.109,0,.153.03.149.145-.008.188,0,.376,0,.564Z" transform="translate(-6.684 -14.423)"/>
      <path id="Path_12445" data-name="Path 12445" d="M25.011,33.544c-.024.2.1.492-.049.62-.125.11-.415.035-.632.038-.2,0-.391,0-.585,0-.115,0-.146-.04-.145-.149.006-.367.007-.734,0-1.1,0-.118.027-.165.155-.163q.55.011,1.1,0c.125,0,.162.042.157.162C25,33.142,25.011,33.329,25.011,33.544Z" transform="translate(-6.684 -14.423)"/>
      <path id="Path_12446" data-name="Path 12446" d="M27.128,34.2c-.172,0-.344-.008-.515,0-.143.008-.208-.023-.2-.188.013-.351.009-.7,0-1.053,0-.133.036-.175.17-.172.359.008.718.006,1.076,0,.115,0,.168.022.165.153-.008.366-.006.733,0,1.1,0,.125-.035.166-.159.16-.178-.009-.358,0-.538,0Z" transform="translate(-6.684 -14.423)"/>
    </g>
  </g>
</svg>
