<svg xmlns="http://www.w3.org/2000/svg" width="40" height="40" viewBox="0 0 40 40">
    <defs>
        <clipPath id="jouwmnf12a">
            <path fill="#222" d="M0 0H40V40H0z"/>
        </clipPath>
    </defs>
    <g clip-path="url(#jouwmnf12a)">
        <path d="M3.121 37.037a3.319 3.319 0 0 0 1.219.547 12.977 12.977 0 0 1-.24-2.165v-3.6h24.8v-2.5H14.387l.475-2.078A45.684 45.684 0 0 1 28.9 3.414V.016h2.344v31.8h4.474v3.6a8.338 8.338 0 0 1-.292 2.2 3.1 3.1 0 0 0 1.451-.581A5.258 5.258 0 0 1 40 36.078v2.344a3 3 0 0 0-1.879.6 5.556 5.556 0 0 1-6.242 0 3.228 3.228 0 0 0-3.758 0 5.556 5.556 0 0 1-6.242 0 3.228 3.228 0 0 0-3.758 0 5.258 5.258 0 0 1-3.121.962 5.258 5.258 0 0 1-3.121-.959 3 3 0 0 0-1.879-.6 3 3 0 0 0-1.879.6A5.258 5.258 0 0 1 5 39.984a5.258 5.258 0 0 1-3.121-.959A3 3 0 0 0 0 38.422v-2.344a5.258 5.258 0 0 1 3.121.959zM28.9 26.977v-3.063H18.216q-.493 1.509-.88 3.063zm-9.843-5.407H28.9V6.628a42.986 42.986 0 0 0-9.843 14.942zM10 36.078a5.258 5.258 0 0 1 3.121.959 3.228 3.228 0 0 0 3.758 0 5.556 5.556 0 0 1 6.242 0 3.228 3.228 0 0 0 3.758 0 5.557 5.557 0 0 1 6.242 0l.031.019a6.006 6.006 0 0 0 .225-1.637v-1.26H6.44v1.26a11.2 11.2 0 0 0 .209 1.76c.075-.045.151-.092.23-.142A5.259 5.259 0 0 1 10 36.078z"/>
    </g>
</svg>
