<svg xmlns="http://www.w3.org/2000/svg" width="156.208" height="45.746" viewBox="0 0 156.208 45.746">
    <defs>
        <style>
            .cls-2{fill:#25252a}
        </style>
    </defs>
    <g id="appstore-white">
        <path id="Path_11134" fill="#fff" d="M18.827 1.171a4.536 4.536 0 0 1-4.5 4.575h-147.205a4.544 4.544 0 0 1-4.5-4.575v-36.6a4.548 4.548 0 0 1 4.5-4.575H14.329a4.548 4.548 0 0 1 4.5 4.575v36.6z" transform="translate(137.38 40)"/>
        <path id="Path_11135" d="M-78.149-6.076a6.7 6.7 0 0 1 3.187-5.615 6.862 6.862 0 0 0-5.394-2.9c-2.272-.252-4.475 1.346-5.631 1.346s-2.962-1.346-4.868-1.3a7.178 7.178 0 0 0-6.061 3.69c-2.616 4.524-.668 11.18 1.841 14.84 1.254 1.792 2.718 3.793 4.636 3.724s2.573-1.2 4.838-1.2 2.9 1.2 4.857 1.144 3.278-1.8 4.491-3.61A14.776 14.776 0 0 0-74.2-.148a6.481 6.481 0 0 1-3.949-5.928zm-3.694-10.941a6.6 6.6 0 0 0 1.525-4.723 6.709 6.709 0 0 0-4.338 2.245 6.222 6.222 0 0 0-1.563 4.548 5.54 5.54 0 0 0 4.376-2.07z" class="cls-2" transform="translate(113.111 28.701)"/>
        <path id="Path_11136" d="M4.5 29.561H1.876L.439 25.048h-4.99l-1.369 4.513h-2.55L-3.514 14.2h3.05l4.955 15.361zM.008 23.142l-1.3-4c-.137-.412-.381-1.372-.762-2.893h-.057q-.229.976-.732 2.893l-1.254 4zm17.208.762a6.31 6.31 0 0 1-1.525 4.468 4.472 4.472 0 0 1-3.4 1.437 3.391 3.391 0 0 1-3.141-1.57H9.1v5.836H6.638V22.128c0-1.182-.03-2.4-.091-3.648h2.164l.152 1.757h.05a4.1 4.1 0 0 1 3.736-1.986A4.11 4.11 0 0 1 15.92 19.8a6.189 6.189 0 0 1 1.296 4.1zM14.708 24a4.575 4.575 0 0 0-.728-2.669 2.611 2.611 0 0 0-3.812-.492 2.791 2.791 0 0 0-.968 1.582 3.24 3.24 0 0 0-.114.762v1.849a2.954 2.954 0 0 0 .762 2.04 2.447 2.447 0 0 0 1.906.831 2.516 2.516 0 0 0 2.162-1.071 4.7 4.7 0 0 0 .8-2.855zm15.249-.1a6.31 6.31 0 0 1-1.525 4.468 4.46 4.46 0 0 1-3.393 1.456 3.4 3.4 0 0 1-3.149-1.571h-.065v5.817h-2.443V22.128c0-1.182-.03-2.4-.1-3.648h2.158l.137 1.757h.046a4.1 4.1 0 0 1 3.736-1.986 4.125 4.125 0 0 1 3.279 1.549 6.144 6.144 0 0 1 1.319 4.1zm-2.509.1a4.575 4.575 0 0 0-.732-2.669 2.512 2.512 0 0 0-2.139-1.094 2.558 2.558 0 0 0-1.654.6 2.806 2.806 0 0 0-.968 1.586 3.24 3.24 0 0 0-.114.762v1.849a2.966 2.966 0 0 0 .747 2.009 2.466 2.466 0 0 0 1.906.831 2.52 2.52 0 0 0 2.165-1.074 4.7 4.7 0 0 0 .762-2.825zM44.2 25.269a4.094 4.094 0 0 1-1.369 3.191 6.032 6.032 0 0 1-4.193 1.346 7.32 7.32 0 0 1-3.984-.957l.572-2.051a6.717 6.717 0 0 0 3.557.984 3.351 3.351 0 0 0 2.165-.629 2.036 2.036 0 0 0 .762-1.677 2.154 2.154 0 0 0-.637-1.574 5.924 5.924 0 0 0-2.1-1.208q-4.037-1.5-4.033-4.4a3.9 3.9 0 0 1 1.414-3.107 5.635 5.635 0 0 1 3.763-1.189 7.434 7.434 0 0 1 3.488.732l-.618 2.005a6.069 6.069 0 0 0-2.939-.7 2.973 2.973 0 0 0-2.032.633 1.83 1.83 0 0 0-.614 1.391 1.872 1.872 0 0 0 .705 1.5 7.9 7.9 0 0 0 2.234 1.186 7.525 7.525 0 0 1 2.916 1.868 3.9 3.9 0 0 1 .938 2.669zm8.12-4.941h-2.712v5.379q0 2.055 1.437 2.051a4.4 4.4 0 0 0 1.094-.114l.065 1.868a5.516 5.516 0 0 1-1.906.274 2.958 2.958 0 0 1-2.287-.888 4.4 4.4 0 0 1-.82-2.989v-5.581h-1.616v-1.849h1.616v-2.028l2.417-.728v2.756h2.714zm12.237 3.6a6.1 6.1 0 0 1-1.457 4.196 5.215 5.215 0 0 1-4.06 1.685 4.956 4.956 0 0 1-3.885-1.616 5.894 5.894 0 0 1-1.445-4.079A6.027 6.027 0 0 1 55.2 19.9a5.173 5.173 0 0 1 4.022-1.643 5.063 5.063 0 0 1 3.919 1.62 5.821 5.821 0 0 1 1.418 4.056zm-2.55.08a4.99 4.99 0 0 0-.66-2.63 2.436 2.436 0 0 0-2.211-1.327A2.463 2.463 0 0 0 56.9 21.38a5.07 5.07 0 0 0-.66 2.669 4.99 4.99 0 0 0 .66 2.63 2.52 2.52 0 0 0 4.445-.023 5.013 5.013 0 0 0 .679-2.669zm10.552-3.362a3.892 3.892 0 0 0-.762-.072 2.333 2.333 0 0 0-2.009.984 3.7 3.7 0 0 0-.614 2.188v5.81h-2.457l.023-7.586c0-1.277-.034-2.44-.091-3.488h2.142l.088 2.12h.072a3.778 3.778 0 0 1 1.228-1.757 2.993 2.993 0 0 1 1.776-.591 3.778 3.778 0 0 1 .618.046v2.348zM83.583 23.5a5.817 5.817 0 0 1-.088 1.117h-7.384a3.21 3.21 0 0 0 1.071 2.508 3.66 3.66 0 0 0 2.413.762 8.162 8.162 0 0 0 2.989-.526l.381 1.712a9.29 9.29 0 0 1-3.713.682 5.383 5.383 0 0 1-4.052-1.528 5.529 5.529 0 0 1-1.468-4.068 6.359 6.359 0 0 1 1.368-4.17 4.72 4.72 0 0 1 3.873-1.78 4.125 4.125 0 0 1 3.625 1.78 5.977 5.977 0 0 1 .98 3.5zm-2.344-.637a3.336 3.336 0 0 0-.48-1.906 2.15 2.15 0 0 0-1.959-1.029 2.333 2.333 0 0 0-1.959 1 3.625 3.625 0 0 0-.728 1.906h5.127z" class="cls-2" transform="translate(57.613 6.593)"/>
        <path id="Path_11137" d="M1.562-16.722a3.8 3.8 0 0 1-1.22 3.069 4.867 4.867 0 0 1-3.214.949 15.528 15.528 0 0 1-1.769-.088v-7.422a12.679 12.679 0 0 1 2.081-.16 4.5 4.5 0 0 1 2.989.862 3.488 3.488 0 0 1 1.132 2.791zm-1.273.03a2.756 2.756 0 0 0-.7-2.024 2.749 2.749 0 0 0-2.043-.705 5.143 5.143 0 0 0-.976.076v5.645a6.344 6.344 0 0 0 .816.034 2.871 2.871 0 0 0 2.146-.762 3.1 3.1 0 0 0 .762-2.253zm8.04 1.144a2.966 2.966 0 0 1-.721 2.059 2.55 2.55 0 0 1-1.994.842 2.428 2.428 0 0 1-1.906-.8 2.893 2.893 0 0 1-.709-2 2.947 2.947 0 0 1 .732-2.074 2.554 2.554 0 0 1 1.975-.8 2.489 2.489 0 0 1 1.925.8 2.874 2.874 0 0 1 .694 1.994zm-1.258.038a2.44 2.44 0 0 0-.324-1.29 1.189 1.189 0 0 0-1.083-.652 1.22 1.22 0 0 0-1.113.652 2.524 2.524 0 0 0-.32 1.315 2.482 2.482 0 0 0 .32 1.292 1.224 1.224 0 0 0 1.1.652 1.208 1.208 0 0 0 1.086-.656 2.44 2.44 0 0 0 .335-1.289zm10.323-2.714l-1.7 5.451h-1.109l-.705-2.36a18 18 0 0 1-.438-1.761h-.023a12.637 12.637 0 0 1-.435 1.761l-.762 2.36h-1.11l-1.6-5.44h1.243l.618 2.588c.149.61.271 1.193.381 1.746h.023c.091-.457.24-1.037.45-1.735l.762-2.6h.984l.74 2.543c.179.621.324 1.216.438 1.792h.034a16.647 16.647 0 0 1 .381-1.792l.663-2.543h1.186zm6.271 5.451h-1.208v-3.115q0-1.441-1.1-1.441a1.083 1.083 0 0 0-.873.381 1.411 1.411 0 0 0-.335.934v3.24h-1.211v-3.885c0-.477 0-.995-.042-1.559h1.064l.042.854h.034a1.723 1.723 0 0 1 .625-.66 2.051 2.051 0 0 1 1.1-.3 1.738 1.738 0 0 1 1.292.492 2.394 2.394 0 0 1 .625 1.8v3.259zm3.336 0h-1.208v-7.937H27zm7.125-2.764a2.981 2.981 0 0 1-.717 2.059 2.554 2.554 0 0 1-1.994.831 2.432 2.432 0 0 1-1.906-.8 2.893 2.893 0 0 1-.713-2 2.966 2.966 0 0 1 .736-2.074 2.554 2.554 0 0 1 1.975-.8 2.489 2.489 0 0 1 1.929.8 2.874 2.874 0 0 1 .694 1.994zm-1.258.038a2.474 2.474 0 0 0-.32-1.289 1.2 1.2 0 0 0-1.086-.652 1.208 1.208 0 0 0-1.109.652 2.489 2.489 0 0 0-.324 1.3 2.447 2.447 0 0 0 .324 1.292 1.22 1.22 0 0 0 1.086.66 1.212 1.212 0 0 0 1.086-.663 2.474 2.474 0 0 0 .343-1.289zm7.114 2.726H38.9l-.1-.627h-.034a1.86 1.86 0 0 1-1.59.762 1.635 1.635 0 0 1-1.239-.492 1.552 1.552 0 0 1-.431-1.109 1.7 1.7 0 0 1 .835-1.525 4.346 4.346 0 0 1 2.337-.526v-.1q0-1.075-1.144-1.075a2.52 2.52 0 0 0-1.418.4l-.244-.8a3.5 3.5 0 0 1 1.868-.469q2.131 0 2.135 2.249v2.005a8.868 8.868 0 0 0 .076 1.3zm-1.258-1.868v-.842q-2-.034-2 1.094a.82.82 0 0 0 .233.64.85.85 0 0 0 .591.21 1.212 1.212 0 0 0 .755-.248 1.01 1.01 0 0 0 .419-.644 1.094 1.094 0 0 0 0-.21zm8.131 1.868H45.78l-.057-.873h-.03a1.811 1.811 0 0 1-1.75 1 2.055 2.055 0 0 1-1.635-.762 3.015 3.015 0 0 1-.648-2 3.183 3.183 0 0 1 .705-2.142 2.169 2.169 0 0 1 1.681-.762 1.639 1.639 0 0 1 1.525.736h.023V-20.7H46.8v6.481c0 .53 0 1.018.042 1.464zM45.6-15.06v-.915a1.673 1.673 0 0 0-.034-.381 1.369 1.369 0 0 0-.438-.736 1.182 1.182 0 0 0-.808-.3 1.243 1.243 0 0 0-1.064.541 2.287 2.287 0 0 0-.381 1.365 2.146 2.146 0 0 0 .381 1.311 1.243 1.243 0 0 0 1.056.538 1.17 1.17 0 0 0 .957-.446 1.5 1.5 0 0 0 .347-1zm11.6-.469a2.981 2.981 0 0 1-.717 2.059 2.554 2.554 0 0 1-1.994.823 2.444 2.444 0 0 1-1.906-.8 2.893 2.893 0 0 1-.713-2 2.966 2.966 0 0 1 .732-2.074 2.558 2.558 0 0 1 1.979-.8 2.489 2.489 0 0 1 1.906.8 2.874 2.874 0 0 1 .694 1.994zm-1.254.038a2.44 2.44 0 0 0-.324-1.289 1.193 1.193 0 0 0-1.086-.652 1.216 1.216 0 0 0-1.109.652 2.489 2.489 0 0 0-.324 1.3 2.447 2.447 0 0 0 .324 1.292 1.22 1.22 0 0 0 1.1.652 1.208 1.208 0 0 0 1.086-.663 2.474 2.474 0 0 0 .335-1.281zm7.754 2.718h-1.2v-3.115c0-.961-.362-1.441-1.094-1.441a1.086 1.086 0 0 0-.877.381 1.411 1.411 0 0 0-.335.934v3.24h-1.216v-3.885c0-.477 0-.995-.042-1.559H60l.057.854h.03a1.792 1.792 0 0 1 .629-.66 2.047 2.047 0 0 1 1.094-.3 1.75 1.75 0 0 1 1.269.492 2.409 2.409 0 0 1 .625 1.8zm8.143-4.533h-1.33v2.642c0 .671.236 1.01.7 1.01a1.944 1.944 0 0 0 .541-.061l.03.919a2.668 2.668 0 0 1-.938.137 1.441 1.441 0 0 1-1.121-.438 2.12 2.12 0 0 1-.4-1.464v-2.749h-.793v-.9h.8v-1l1.182-.355v1.353h1.334zm6.4 4.533H77.04v-3.092c0-.976-.381-1.464-1.094-1.464a1.144 1.144 0 0 0-1.144.85 1.559 1.559 0 0 0-.057.435v3.271h-1.22v-7.937h1.208v3.278h.023a1.834 1.834 0 0 1 1.635-.892 1.7 1.7 0 0 1 1.247.492 2.478 2.478 0 0 1 .614 1.822v3.237zm6.606-2.977a2.786 2.786 0 0 1-.05.549H81.18a1.6 1.6 0 0 0 .53 1.243 1.8 1.8 0 0 0 1.193.381 4.022 4.022 0 0 0 1.468-.255l.187.839a4.525 4.525 0 0 1-1.826.335 2.638 2.638 0 0 1-1.986-.743 2.733 2.733 0 0 1-.721-2 3.111 3.111 0 0 1 .671-2.051 2.322 2.322 0 0 1 1.906-.873 2.024 2.024 0 0 1 1.776.873 2.882 2.882 0 0 1 .488 1.712zm-1.144-.313a1.62 1.62 0 0 0-.233-.93 1.067 1.067 0 0 0-.961-.5 1.144 1.144 0 0 0-.976.488 1.818 1.818 0 0 0-.358.942z" class="cls-2" transform="translate(55.243 28.064)"/>
    </g>
</svg>
