<svg xmlns="http://www.w3.org/2000/svg" width="156.208" height="45.746" viewBox="0 0 156.208 45.746">
    <defs>
        <linearGradient id="linear-gradient" x1="1.154" x2="-.141" y1="-1.998" y2="-1.322" gradientUnits="objectBoundingBox">
            <stop offset="0" stop-color="#00a0ff"/>
            <stop offset=".01" stop-color="#00a1ff"/>
            <stop offset=".26" stop-color="#00beff"/>
            <stop offset=".51" stop-color="#00d2ff"/>
            <stop offset=".76" stop-color="#00dfff"/>
            <stop offset="1" stop-color="#00e3ff"/>
        </linearGradient>
        <linearGradient id="linear-gradient-2" x1="1.377" x2="-.999" y1="-5.479" y2="-5.479" gradientUnits="objectBoundingBox">
            <stop offset="0" stop-color="#ffe000"/>
            <stop offset=".41" stop-color="#ffbd00"/>
            <stop offset=".78" stop-color="orange"/>
            <stop offset="1" stop-color="#ff9c00"/>
        </linearGradient>
        <linearGradient id="linear-gradient-3" x1=".548" x2="-.812" y1="-4.456" y2="-2.67" gradientUnits="objectBoundingBox">
            <stop offset="0" stop-color="#ff3a44"/>
            <stop offset="1" stop-color="#c31162"/>
        </linearGradient>
        <linearGradient id="linear-gradient-4" x1="-.5" x2=".108" y1="-3.884" y2="-3.086" gradientUnits="objectBoundingBox">
            <stop offset="0" stop-color="#32a071"/>
            <stop offset=".07" stop-color="#2da771"/>
            <stop offset=".48" stop-color="#15cf74"/>
            <stop offset=".8" stop-color="#06e775"/>
            <stop offset="1" stop-color="#00f076"/>
        </linearGradient>
        <style>
            .cls-2{fill:#25252a}
        </style>
    </defs>
    <g id="gplay-white">
        <g id="android-g12">
            <path id="android-path14" fill="#fff" d="M13.435 5.876h-144.642A5.768 5.768 0 0 1-136.99.158v-34.31a5.768 5.768 0 0 1 5.783-5.718H13.435a5.768 5.768 0 0 1 5.783 5.718V.158a5.768 5.768 0 0 1-5.783 5.718z" transform="translate(136.99 39.87)"/>
            <g id="android-g18" transform="translate(47.853 7.849)">
                <path id="android-path20" d="M-4.451-15.415a3.1 3.1 0 0 1-.858 2.287 3.408 3.408 0 0 1-2.546 1.018 3.534 3.534 0 0 1-2.554-1.025 3.458 3.458 0 0 1-1.052-2.565 3.431 3.431 0 0 1 1.052-2.55 3.511 3.511 0 0 1 2.554-1.033 3.637 3.637 0 0 1 1.426.29 2.852 2.852 0 0 1 1.086.762l-.606.606a2.352 2.352 0 0 0-1.906-.789 2.669 2.669 0 0 0-1.906.762 2.627 2.627 0 0 0-.8 1.952 2.638 2.638 0 0 0 .8 1.986 2.7 2.7 0 0 0 1.906.762 2.646 2.646 0 0 0 1.937-.762 2.135 2.135 0 0 0 .572-1.4h-2.509v-.827H-4.5a2.493 2.493 0 0 1 .05.522z" class="cls-2" transform="translate(11.462 19.282)"/>
            </g>
            <g id="android-g22" transform="translate(56.153 7.987)">
                <path id="android-path24" d="M14.355-18.058H11.2v2.158h2.85v.831H11.2v2.169h3.156v.839H10.31v-6.859h4.049v.842z" class="cls-2" transform="translate(-10.31 18.92)"/>
            </g>
            <g id="android-g26" transform="translate(61.132 8.009)">
                <path id="android-path28" d="M26.2-12.006h-.9v-6.016h-1.93v-.839h4.769v.842H26.2z" class="cls-2" transform="translate(-23.37 18.86)"/>
            </g>
            <g id="android-g30" transform="translate(69.355 8.002)">
                <path id="android-path32" d="M44.94-12.018v-6.862h.888v6.862z" class="cls-2" transform="translate(-44.94 18.88)"/>
            </g>
            <g id="android-g34" transform="translate(71.372 8.009)">
                <path id="android-path36" d="M53.059-12.006h-.884v-6.016H50.23v-.839H55v.842h-1.941z" class="cls-2" transform="translate(-50.23 18.86)"/>
            </g>
            <g id="android-g38" transform="translate(79.056 7.852)">
                <path id="android-path40" d="M76.5-13.146a3.431 3.431 0 0 1-2.54 1.046 3.431 3.431 0 0 1-2.55-1.037 3.481 3.481 0 0 1-1.022-2.547 3.481 3.481 0 0 1 1.022-2.543 3.431 3.431 0 0 1 2.55-1.041 3.408 3.408 0 0 1 2.54 1.037 3.477 3.477 0 0 1 1.025 2.543 3.477 3.477 0 0 1-1.025 2.546zm-4.43-.572a2.566 2.566 0 0 0 1.906.762 2.558 2.558 0 0 0 1.883-.762 2.691 2.691 0 0 0 .762-1.971 2.691 2.691 0 0 0-.762-1.975 2.569 2.569 0 0 0-1.883-.762 2.558 2.558 0 0 0-1.906.762 2.669 2.669 0 0 0-.762 1.971 2.669 2.669 0 0 0 .762 1.971z" class="cls-2" transform="translate(-70.387 19.273)"/>
            </g>
            <g id="android-g42" transform="translate(87.447 8.002)">
                <path id="android-path44" d="M92.4-12.018v-6.862h1.086l3.374 5.337h.04l-.038-1.315v-4.014h.892v6.862h-.93l-3.534-5.6h-.04l.038 1.327v4.27z" class="cls-2" transform="translate(-92.4 18.88)"/>
            </g>
            <path id="android-path46" d="M18.925 16.652a4.822 4.822 0 1 0 3.51 1.378 4.864 4.864 0 0 0-3.51-1.378zm0 7.811a2.829 2.829 0 0 1-2.775-2.947 2.783 2.783 0 1 1 5.558 0 2.832 2.832 0 0 1-2.783 2.947zM8.152 16.652a4.864 4.864 0 1 0 0 9.725 4.864 4.864 0 1 0 0-9.729zm0 7.811a2.829 2.829 0 0 1-2.779-2.947 2.779 2.779 0 1 1 5.551 0 2.821 2.821 0 0 1-2.771 2.947zm-12.824-6.32v2.066H.314A4.281 4.281 0 0 1-.83 22.8a5.169 5.169 0 0 1-3.861 1.53 5.493 5.493 0 0 1-5.349-5.491 5.493 5.493 0 0 1 5.349-5.491 5.337 5.337 0 0 1 3.762 1.474l1.476-1.456a7.327 7.327 0 0 0-5.219-2.1 7.722 7.722 0 0 0-7.758 7.556 7.709 7.709 0 0 0 7.758 7.556 7.029 7.029 0 0 0 5.337-2.121 6.939 6.939 0 0 0 1.811-4.826 6.8 6.8 0 0 0-.114-1.289zm52.429 1.6a4.562 4.562 0 0 0-4.216-3.1 4.634 4.634 0 0 0-4.641 4.873 4.784 4.784 0 0 0 4.872 4.861 4.895 4.895 0 0 0 4.1-2.154L46.2 23.117a2.825 2.825 0 0 1-2.425 1.346 2.5 2.5 0 0 1-2.375-1.479l6.565-2.669-.229-.553zm-6.713 1.616a2.669 2.669 0 0 1 2.573-2.836 1.906 1.906 0 0 1 1.83 1.033l-4.4 1.8zm-5.337 4.719h2.161v-14.3h-2.162zm-3.545-8.349h-.072a3.408 3.408 0 0 0-2.59-1.077 4.868 4.868 0 0 0 0 9.729 3.378 3.378 0 0 0 2.585-1.106h.072v.7c0 1.857-1 2.855-2.627 2.855a2.73 2.73 0 0 1-2.482-1.735l-1.879.762a4.693 4.693 0 0 0 4.361 2.874c2.539 0 4.678-1.475 4.678-5.063v-8.723h-2.047zm-2.493 6.728a2.806 2.806 0 0 1-2.737-2.932 2.824 2.824 0 0 1 2.737-2.966 2.742 2.742 0 0 1 2.63 2.966 2.718 2.718 0 0 1-2.631 2.938zm28.21-12.675h-5.167v14.3h2.158v-5.416h3.008a4.561 4.561 0 0 0 4.746-4.441 4.556 4.556 0 0 0-4.746-4.437zm.057 6.889h-3.074v-4.9h3.073a2.452 2.452 0 1 1 0 4.9zm13.343-2.055a4.055 4.055 0 0 0-3.846 2.192l1.906.793a2.044 2.044 0 0 1 1.971-1.052A2.1 2.1 0 0 1 73.6 20.4v.149a4.822 4.822 0 0 0-2.257-.553c-2.062 0-4.163 1.121-4.163 3.217a3.332 3.332 0 0 0 3.591 3.149 3.05 3.05 0 0 0 2.741-1.4h.076v1.098h2.081v-5.482c0-2.535-1.906-3.957-4.392-3.957zm-.259 7.838c-.705 0-1.689-.347-1.689-1.212 0-1.106 1.228-1.525 2.287-1.525a3.927 3.927 0 0 1 1.975.48 2.611 2.611 0 0 1-2.573 2.264zm12.249-7.521l-2.478 6.2h-.072l-2.566-6.2h-2.331l3.854 8.667-2.2 4.819h2.257l5.936-13.484h-2.4zm-19.444 9.154h2.162v-14.3h-2.162v14.3z" class="cls-2" transform="translate(59.914 8.226)"/>
            <g id="android-g48" transform="translate(11.535 8.539)">
                <path id="android-path64" fill="url(#linear-gradient)" d="M-106.194-17.39a2.287 2.287 0 0 0-.534 1.609V9.513a2.261 2.261 0 0 0 .534 1.609l.084.076 14.341-14.167V-3.3l-14.341-14.17z" transform="translate(106.732 17.47)"/>
            </g>
            <g id="android-g66" transform="translate(26.498 17.982)">
                <path id="android-path78" fill="url(#linear-gradient-2)" d="M-62.722 17.1l-4.758-4.739v-.335L-62.7 7.3l.107.061 5.657 3.183c1.616.9 1.616 2.39 0 3.3l-5.657 3.176z" transform="translate(67.48 -7.3)"/>
            </g>
            <g id="android-g80" transform="translate(12.073 22.873)">
                <path id="android-path88" fill="url(#linear-gradient-3)" d="M-86.008 24.96l-4.887-4.83-14.425 14.258a1.9 1.9 0 0 0 2.405.065l16.907-9.492" transform="translate(105.32 -20.13)"/>
            </g>
            <g id="android-g90" transform="translate(12.073 8.167)">
                <path id="android-path104" fill="url(#linear-gradient-4)" d="M-86.008-8.574l-16.9-9.492a1.917 1.917 0 0 0-2.409.072l14.426 14.253z" transform="translate(105.32 18.447)"/>
            </g>
        </g>
    </g>
</svg>
