<svg xmlns="http://www.w3.org/2000/svg" width="160" height="160" viewBox="0 0 160 160">
    <defs>
        <clipPath id="clip-path">
            <rect id="Rectangle_2127" width="160" height="160" fill="#d0d0d0" rx="10" transform="translate(198 1124)"/>
        </clipPath>
        <clipPath id="clip-path-2">
            <path id="Rectangle_7" fill="none" d="M13.78 18.39a648.462 648.462 0 0 1 132.44 0 15.43 15.43 0 0 1 13.52 18.21 239.36 239.36 0 0 0 0 86.8 15.43 15.43 0 0 1-13.52 18.21 648.457 648.457 0 0 1-132.44 0A15.43 15.43 0 0 1 .26 123.4a239.36 239.36 0 0 0 0-86.8 15.43 15.43 0 0 1 13.52-18.21z"/>
        </clipPath>
        <style>
            .cls-6{fill:#ebebeb}.cls-7{fill:#f5f5f5}.cls-8{fill:#e0e0e0}.cls-9{fill:#f8d608}.cls-10{fill:#263238}.cls-11{fill:#455a64}.cls-12{fill:#e15068}.cls-14{opacity:.4}.cls-15{fill:#fafafa}.cls-16{fill:#fff}.cls-17{fill:#ffbe9d}.cls-18{fill:#2e7dbf}.cls-19{fill:#eb996e}.cls-20{opacity:.3}
        </style>
    </defs>
    <g id="illustration1" clip-path="url(#clip-path)" transform="translate(-198 -1124)">
        <g id="tatiloley-illustrations-01" transform="translate(198.009 1124.009)">
            <path id="Rectangle_7-2" fill="#ddd" d="M13.78 18.39a648.462 648.462 0 0 1 132.44 0 15.43 15.43 0 0 1 13.52 18.21 239.36 239.36 0 0 0 0 86.8 15.43 15.43 0 0 1-13.52 18.21 648.457 648.457 0 0 1-132.44 0A15.43 15.43 0 0 1 .26 123.4a239.36 239.36 0 0 0 0-86.8 15.43 15.43 0 0 1 13.52-18.21z"/>
            <g id="Group_3399" clip-path="url(#clip-path-2)">
                <g id="freepik--background-complete--inject-4">
                    <path id="Rectangle_2128" d="M0 0H2.81V16.33H0z" class="cls-6" transform="translate(135.36 108.58)"/>
                    <path id="Path_11480" d="M136.17 54.87c0 .29-5.89 18.86-5.89 18.86l2.95-3L129 83.7l2.8-3.89-3.3 16.27 1.61-1.7-2.8 11.48 2.4-3-2.4 8.58 19-1.39-4.49-16.17 2.72 3L141 85.1l1.8 1-4.1-15.17 1.9 1.3z" class="cls-7"/>
                    <path id="Path_11481" d="M139 84.87l-.06-.06-.17-.16-.65-.63-2.19-2.23h.09l-.39 2.36c-.08.46-.16.92-.23 1.36v.2l-.07-.18a20.609 20.609 0 0 1-1.09-3.67c-.09-.46-.15-.85-.18-1.11a2.13 2.13 0 0 1 0-.3.21.21 0 0 1 0-.11.36.36 0 0 1 0 .1.72.72 0 0 0 .05.3c.05.12.12.64.22 1.1a22.181 22.181 0 0 0 1.12 3.64h-.11l.23-1.36c.15-.83.28-1.63.41-2.35v-.11l.07.08 2.12 2.26.62.66.16.17a.3.3 0 0 1 .05.04z" class="cls-8"/>
                    <path id="Path_11482" d="M138.57 93.24a1.21 1.21 0 0 1 0 .14l-.16.39c-.15.36-.37.85-.63 1.46l-2.12 4.83-.08.16v-.17l-.1-.43-.77-3.54h.09l-1.8 2.57-.49.72-.14.18a.18.18 0 0 1 0 .07.3.3 0 0 1 0-.08l.12-.19.47-.73c.42-.64 1-1.52 1.7-2.58l.07-.1v.12c.23 1 .51 2.25.79 3.53a2.162 2.162 0 0 0 .1.44h-.11c.85-1.88 1.61-3.58 2.16-4.81l.66-1.44.18-.39a.54.54 0 0 1 .06-.15z" class="cls-8"/>
                    <path id="Path_11483" d="M138.26 69.42l-.15-.2-.37-.56-1.27-2h.09c-.13.65-.25 1.37-.33 2.14-.07.61-.12 1.19-.14 1.73v.21l-.09-.19a12.25 12.25 0 0 1-.92-2.47c-.08-.32-.13-.57-.16-.75a2.51 2.51 0 0 1 0-.27 1.339 1.339 0 0 1 .07.27 4.4 4.4 0 0 0 .19.73 14.18 14.18 0 0 0 1 2.44h-.1a16 16 0 0 1 .14-1.75c.09-.77.21-1.5.34-2.14v-.13l.07.11c.5.8.92 1.48 1.24 2l.35.57a.881.881 0 0 1 .04.26z" class="cls-8"/>
                    <path id="Rectangle_2129" d="M0 0H3.41V19.85H0z" class="cls-6" transform="translate(27.56 105.07)"/>
                    <path id="Path_11484" d="M28.54 39.81c0 .36-7.16 22.91-7.16 22.91L25 59.08l-5.2 15.76 3.39-4.73-4 19.77 1.94-2.07-3.39 14 2.91-3.64-2.91 10.43 23-1.7-5.41-19.69 3.29 3.63-4.26-14.3 2.18 1.21-5-18.43 2.3 1.58z" class="cls-6"/>
                    <path id="Path_11485" d="M32 76.83l-.08-.06-.21-.2-.77-.77-2.67-2.71h.11c-.15.88-.31 1.85-.48 2.86-.1.57-.2 1.12-.29 1.66v.23l-.09-.23a24.82 24.82 0 0 1-1.32-4.46c-.11-.57-.18-1-.23-1.35v-.36a.29.29 0 0 1 0-.13v.13l.06.36c.05.31.14.77.26 1.33a27.63 27.63 0 0 0 1.36 4.43h-.13c.09-.54.19-1.09.29-1.65.17-1 .34-2 .49-2.87v-.12l.09.09L31 75.74l.75.79.19.22a.27.27 0 0 1 .06.08z" class="cls-8"/>
                    <path id="Path_11486" d="M31.46 87l-.06.17-.21.48c-.18.43-.44 1-.76 1.77-.66 1.51-1.56 3.57-2.58 5.87l-.08.19-.05-.2-.12-.53-.94-4.29h.11l-2.11 3.1-.6.86-.16.23-.06.07a.15.15 0 0 1 0-.08l.15-.23.57-.89 2.07-3.13.08-.12v.14c.28 1.27.61 2.74 1 4.29a3.115 3.115 0 0 0 .11.53h-.13l2.63-5.86.8-1.75c.09-.19.16-.35.23-.47a.8.8 0 0 1 .11-.15z" class="cls-8"/>
                    <path id="Path_11487" d="M31.08 58.06a2 2 0 0 1-.17-.23l-.46-.68-1.55-2.38h.11c-.16.79-.3 1.67-.41 2.6-.08.74-.14 1.46-.17 2.11v.25l-.11-.23a15.25 15.25 0 0 1-1.12-3c-.09-.39-.16-.69-.19-.92a1.88 1.88 0 0 1-.05-.33 1.92 1.92 0 0 1 .09.32c.05.21.12.51.23.89a16.41 16.41 0 0 0 1.14 3h-.12a20.424 20.424 0 0 1 .16-2.12c.11-.94.26-1.82.42-2.61v-.15l.08.13 1.54 2.39.42.69a1.75 1.75 0 0 1 .16.27z" class="cls-8"/>
                    <path id="Rectangle_2130" d="M0 0H3.41V19.85H0z" class="cls-6" transform="translate(6.85 105.07)"/>
                    <path id="Path_11488" d="M7.83 39.81c0 .36-7.16 22.91-7.16 22.91l3.58-3.64L-.9 74.84l3.39-4.73-4 19.77 1.94-2.07-3.39 14L0 98.12l-3 10.43 23-1.7-5.38-19.64 3.29 3.64-4.26-14.31 2.18 1.21-5-18.42 2.29 1.57z" class="cls-6"/>
                    <path id="Path_11489" d="M11.26 76.83l-.08-.06-.21-.2-.77-.77-2.66-2.71h.1c-.14.88-.31 1.85-.48 2.86-.1.57-.2 1.12-.29 1.66v.23l-.09-.23a24.82 24.82 0 0 1-1.32-4.46c-.11-.57-.18-1-.23-1.35v-.36a.29.29 0 0 1 0-.13v.13l.06.36c.06.31.14.77.26 1.33a27.63 27.63 0 0 0 1.36 4.43h-.18c.1-.54.19-1.09.29-1.65.17-1 .34-2 .5-2.87v-.12l.09.09 2.62 2.75.75.79.19.22a.27.27 0 0 1 .09.06z" class="cls-8"/>
                    <path id="Path_11490" d="M10.75 87l-.06.17-.2.48-.77 1.77c-.66 1.51-1.56 3.58-2.58 5.87l-.08.19v-.2a2.121 2.121 0 0 0-.12-.53c-.33-1.55-.66-3-.94-4.29h.11L4 93.58l-.61.86-.16.23-.06.07a.59.59 0 0 1 0-.08l.15-.23.58-.89c.5-.77 1.22-1.85 2.06-3.13l.04-.12v.14c.28 1.27.61 2.74 1 4.29a3.116 3.116 0 0 0 .11.53H7c1-2.3 2-4.36 2.63-5.86l.8-1.75c.09-.19.16-.35.23-.47a.8.8 0 0 1 .09-.17z" class="cls-8"/>
                    <path id="Path_11491" d="M10.37 58.06a2 2 0 0 1-.17-.23l-.46-.68-1.55-2.38h.11c-.15.79-.3 1.67-.4 2.6-.09.74-.14 1.46-.17 2.11v.25l-.12-.23a15.42 15.42 0 0 1-1.1-3 8 8 0 0 1-.19-.92 1.88 1.88 0 0 1 0-.33 1.92 1.92 0 0 1 .09.32c.05.21.12.51.23.89a16.45 16.45 0 0 0 1.15 3h-.12a20.424 20.424 0 0 1 .16-2.12c.11-.94.26-1.82.42-2.61v-.15l.08.13 1.49 2.39.42.69a1.13 1.13 0 0 1 .13.27z" class="cls-8"/>
                    <path id="Rectangle_2131" d="M0 0H3.41V21.9H0z" class="cls-6" transform="translate(148.58 102.84)"/>
                    <path id="Path_11492" d="M149.56 37.58c0 .36-7.15 22.91-7.15 22.91l3.59-3.64-5.16 15.76 3.4-4.72-4 19.76 1.94-2.06-3.4 13.94 2.91-3.64-2.91 10.43 23-1.7L156.35 85l3.3 3.64-4.27-14.3 2.19 1.21-5-18.43 2.31 1.57z" class="cls-6"/>
                    <path id="Path_11493" d="M153 74l-.07-.06-.21-.2-.78-.77-2.66-2.7h.11c-.15.89-.31 1.85-.49 2.87-.1.56-.19 1.11-.28 1.65v.23l-.09-.23a24.581 24.581 0 0 1-1.32-4.46c-.12-.57-.19-1-.23-1.35a3.524 3.524 0 0 1 0-.36.28.28 0 0 1 0-.13v.13a.892.892 0 0 0 .06.36c.06.31.14.77.26 1.33a27 27 0 0 0 1.36 4.43h-.13c.1-.53.19-1.09.29-1.65.17-1 .34-2 .49-2.86v-.13l.08.09 2.61 2.74.75.8.19.21a.24.24 0 0 1 .06.06z" class="cls-8"/>
                    <path id="Path_11494" d="M152.48 84.2a.49.49 0 0 1-.06.17l-.2.48c-.18.43-.44 1-.76 1.77l-2.58 5.87-.09.19v-.2l-.12-.53-.94-4.29h.11l-2.11 3.1-.6.87-.16.23-.07.07a.562.562 0 0 1 0-.08l.15-.23.57-.89 2.07-3.13.08-.12v.14c.28 1.27.61 2.74 1 4.29a3.116 3.116 0 0 0 .11.53h-.13l2.62-5.86.8-1.75c.1-.19.17-.35.23-.47a.889.889 0 0 1 .08-.16z" class="cls-8"/>
                    <path id="Path_11495" d="M152.1 55.26a2 2 0 0 1-.17-.23l-.46-.67-1.55-2.36h.12c-.16.79-.3 1.67-.41 2.6-.09.74-.14 1.46-.17 2.11v.25l-.11-.23a14.65 14.65 0 0 1-1.12-3c-.1-.39-.16-.69-.2-.92a1.859 1.859 0 0 1 0-.33 1.872 1.872 0 0 1 .08.32c.06.21.13.51.23.89a16.929 16.929 0 0 0 1.15 3h-.12a20.423 20.423 0 0 1 .16-2.12c.11-.93.26-1.82.42-2.61v-.15l.08.13 1.5 2.41.47.65a2.149 2.149 0 0 1 .1.26z" class="cls-8"/>
                    <path id="Path_11496" d="M69.34 41.83c.14-1-1.24-1.79-2.29-1.87a6.09 6.09 0 0 1-1.48-.13c-1-.35-1.42-1.67-2.41-2.08a2.83 2.83 0 0 0-2.32.32 5.83 5.83 0 0 1-2.23.87c-.7.05-1.45-.21-2.06.13-.46.25-.69.78-1.11 1.09a2.67 2.67 0 0 1-1.46.39 4 4 0 0 0-1.5.25 1.18 1.18 0 0 0-.75 1.2z" class="cls-8"/>
                    <path id="Path_11497" d="M56.21 56.53c.13-1-1.21-1.73-2.21-1.81a6.14 6.14 0 0 1-1.43-.12c-1-.35-1.38-1.61-2.34-2a2.71 2.71 0 0 0-2.24.31 5.69 5.69 0 0 1-2.16.84c-.69.05-1.41-.2-2 .13-.44.24-.68.75-1.08 1a2.5 2.5 0 0 1-1.41.38 4.4 4.4 0 0 0-1.45.23 1.16 1.16 0 0 0-.73 1.17z" class="cls-6"/>
                    <path id="Path_11498" d="M121.66 58.51c.09-.66-.85-1.21-1.55-1.27a3.76 3.76 0 0 1-1-.08c-.69-.25-1-1.15-1.64-1.42a1.87 1.87 0 0 0-1.58.23 4.12 4.12 0 0 1-1.52.59c-.47 0-1-.15-1.4.08s-.48.53-.76.74a1.74 1.74 0 0 1-1 .27 2.7 2.7 0 0 0-1 .17.78.78 0 0 0-.51.82z" class="cls-6"/>
                    <path id="Path_11499" d="M99.23 44.23l-.23-.06a2.06 2.06 0 0 0-.7 0 1.91 1.91 0 0 0-.93.41 1.93 1.93 0 0 0-.66 1v.16l-.06-.15a2.07 2.07 0 0 0-1.76-1.29 2.82 2.82 0 0 0-1 .13.94.94 0 0 1 .23-.1 2.13 2.13 0 0 1 .71-.09 2.09 2.09 0 0 1 1.85 1.32h-.1a2.06 2.06 0 0 1 .7-1.1 1.93 1.93 0 0 1 1-.41 2 2 0 0 1 .72 0 1 1 0 0 1 .23.18z" class="cls-8"/>
                    <circle id="Ellipse_1317" cx="5.29" cy="5.29" r="5.29" class="cls-9" transform="translate(137.45 26.86)"/>
                    <path id="Path_11500" d="M142.44 38a14.671 14.671 0 0 1 .08 2.2 14.58 14.58 0 0 1-.08 2.19 14.582 14.582 0 0 1-.08-2.19 14.669 14.669 0 0 1 .08-2.2z" class="cls-9"/>
                    <path id="Path_11501" d="M139.49 37.31a6.67 6.67 0 0 1-.86 1.12 6.261 6.261 0 0 1-1 1 6.08 6.08 0 0 1 .85-1.13 5.85 5.85 0 0 1 1.01-.99z" class="cls-9"/>
                    <path id="Path_11502" d="M136.47 34.15a18 18 0 0 1-2.16 1.27 20.2 20.2 0 0 1-2.23 1.12 17.9 17.9 0 0 1 2.16-1.26 19.441 19.441 0 0 1 2.23-1.13z" class="cls-9"/>
                    <path id="Path_11503" d="M135.42 30.39a18.48 18.48 0 0 1-3.43.24 17.88 17.88 0 0 1 3.43-.24z" class="cls-9"/>
                    <path id="Path_11504" d="M137.16 27.82a18.541 18.541 0 0 1-1.85-1.7 19.591 19.591 0 0 1-1.72-1.81 18.539 18.539 0 0 1 1.85 1.7 19.59 19.59 0 0 1 1.72 1.81z" class="cls-9"/>
                    <path id="Path_11505" d="M140.42 25.83a3.3 3.3 0 0 1-.47-.89 2.88 2.88 0 0 1-.32-1 3.3 3.3 0 0 1 .47.89 3 3 0 0 1 .32 1z" class="cls-9"/>
                    <path id="Path_11506" d="M143.33 21a16.2 16.2 0 0 1 0 2.31 17.937 17.937 0 0 1-.12 2.32 16.338 16.338 0 0 1 0-2.32 16.253 16.253 0 0 1 .12-2.31z" class="cls-9"/>
                    <path id="Path_11507" d="M148.67 24.06a6.11 6.11 0 0 1-.73 1.2 6.339 6.339 0 0 1-.87 1.12 6.492 6.492 0 0 1 .73-1.21 6.65 6.65 0 0 1 .87-1.11z" class="cls-9"/>
                    <path id="Path_11508" d="M153.7 25.34a28.647 28.647 0 0 1-2.55 1.66 30 30 0 0 1-2.63 1.53 28.651 28.651 0 0 1 2.55-1.67 27.679 27.679 0 0 1 2.63-1.52z" class="cls-9"/>
                    <path id="Path_11509" d="M147.46 39.55a2.91 2.91 0 0 1-.69-1 3 3 0 0 1-.41-1.12 8.7 8.7 0 0 1 .56 1 8.681 8.681 0 0 1 .54 1.12z" class="cls-9"/>
                    <path id="Path_11510" d="M152.74 38.58a26.311 26.311 0 0 1-2.53-1.31 25.272 25.272 0 0 1-2.46-1.46 24.45 24.45 0 0 1 2.54 1.32 26.267 26.267 0 0 1 2.45 1.45z" class="cls-9"/>
                    <path id="Path_11511" d="M152.18 34.6a8.12 8.12 0 0 1-1.59-.56 8.46 8.46 0 0 1-1.52-.72 9 9 0 0 1 1.58.56 8.55 8.55 0 0 1 1.53.72z" class="cls-9"/>
                    <path id="Path_11512" d="M153.07 30.7a11.22 11.22 0 0 1-1.83.27 10.33 10.33 0 0 1-1.84.11 11.259 11.259 0 0 1 1.82-.27 10.389 10.389 0 0 1 1.85-.11z" class="cls-9"/>
                </g>
                <g id="freepik--Plants--inject-4">
                    <path id="Path_11513" d="M59.52 139.42a4.58 4.58 0 0 0-.1-.81 5.09 5.09 0 0 0-.23-.85 4.52 4.52 0 0 0-.5-.95 6.73 6.73 0 0 0-1.36-1.41c-.4-.31-.66-.48-.65-.5l.2.1.5.34a6 6 0 0 1 1.41 1.4 4.32 4.32 0 0 1 .5 1 4.41 4.41 0 0 1 .24 1.48.81.81 0 0 1-.01.2z" class="cls-10"/>
                    <path id="Path_11514" d="M61.41 130.7a2.13 2.13 0 0 1-.11.33c-.07.21-.17.51-.29.89a17.649 17.649 0 0 0-.67 3 16.92 16.92 0 0 0-.1 3.1 8.269 8.269 0 0 0 .08.94 2.07 2.07 0 0 1 0 .35 1.37 1.37 0 0 1-.07-.34 7.119 7.119 0 0 1-.12-.94 14.79 14.79 0 0 1 .06-3.12 15.09 15.09 0 0 1 .71-3c.13-.38.24-.69.33-.89a1.77 1.77 0 0 1 .18-.32z" class="cls-10"/>
                    <path id="Path_11515" d="M63.2 135.1s-.18.2-.44.54a5.27 5.27 0 0 0-1 3.09v.69a.41.41 0 0 1-.05-.18 2.94 2.94 0 0 1 0-.51 4.66 4.66 0 0 1 1.06-3.14 2.441 2.441 0 0 1 .35-.37.44.44 0 0 1 .08-.12z" class="cls-10"/>
                    <path id="Path_11516" d="M156.92 124.82a7.11 7.11 0 0 0-1-1.75 6.85 6.85 0 0 0-1.53-1.31 1.82 1.82 0 0 1 .54.27 4.53 4.53 0 0 1 1.82 2.21 2.26 2.26 0 0 1 .17.58z" class="cls-10"/>
                    <path id="Path_11517" d="M157.19 119.32a6.691 6.691 0 0 1 0 .84 14.2 14.2 0 0 0 .49 4 8.3 8.3 0 0 1 .21.81.67.67 0 0 1-.09-.21 4.149 4.149 0 0 1-.2-.58 11.51 11.51 0 0 1-.5-4v-.61a.79.79 0 0 1 .09-.25z" class="cls-10"/>
                    <path id="Path_11518" d="M160.13 121.19a15 15 0 0 0-.94 1.77 4.39 4.39 0 0 0-.35 1.37 2.94 2.94 0 0 0 0 .58.39.39 0 0 1-.05-.15 1.228 1.228 0 0 1 0-.19 1 1 0 0 1 0-.25 4 4 0 0 1 .32-1.4 7.321 7.321 0 0 1 .69-1.26 2 2 0 0 1 .33-.47z" class="cls-10"/>
                    <path id="Rectangle_2132" d="M0 0H2.93V17.03H0z" class="cls-11" transform="translate(11.99 107.79)"/>
                    <path id="Path_11519" d="M12.83 51.77c0 .31-6.14 19.67-6.14 19.67l3.07-3.12-4.42 13.53 2.91-4.06-3.44 17L6.48 93l-2.91 12 2.5-3.13-2.5 9 19.77-1.46-4.69-16.95 2.83 3.13-3.66-12.28 1.87 1-4.25-15.78 2 1.35z" class="cls-11"/>
                    <path id="Path_11520" d="M15.77 83.06l-.06-.06-.18-.17-.67-.66-2.29-2.32h.1c-.14.76-.28 1.59-.42 2.46-.09.48-.17 1-.25 1.42v.2l-.07-.19a21.37 21.37 0 0 1-1.15-3.83c-.09-.49-.15-.88-.19-1.15a.677.677 0 0 1 0-.32.2.2 0 0 1 0-.11.43.43 0 0 1 0 .11l.06.31c.05.27.12.66.23 1.15A23.05 23.05 0 0 0 12 83.66h-.11c.08-.45.16-.93.25-1.41l.42-2.46v-.11l.08.08 2.25 2.35.64.69.17.19a.1.1 0 0 1 .07.07z" class="cls-10"/>
                    <path id="Path_11521" d="M8.58 98.43a8.21 8.21 0 0 1 .16-1.32A8 8 0 0 1 9 95.82a7.22 7.22 0 0 1-.16 1.31 7.17 7.17 0 0 1-.26 1.3z" class="cls-10"/>
                    <path id="Path_11522" d="M15.34 91.79a.84.84 0 0 1-.06.14l-.17.41-.65 1.52c-.57 1.29-1.35 3.06-2.22 5l-.07.16v-.17l-.1-.46c-.29-1.34-.57-2.6-.81-3.69h.1c-.74 1.09-1.38 2-1.81 2.66l-.55.82-.14.19v.06a.25.25 0 0 1 0-.07l.12-.2.5-.76 1.77-2.69.07-.1v.12c.25 1.09.53 2.34.83 3.68l.1.46h-.12l2.26-5 .68-1.51.19-.4a.64.64 0 0 1 .08-.17z" class="cls-10"/>
                    <path id="Path_11523" d="M16.89 107a15.567 15.567 0 0 1-1.39-1.69 20.091 20.091 0 0 1-1.3-1.77 20.451 20.451 0 0 1 1.39 1.69 18.711 18.711 0 0 1 1.3 1.77z" class="cls-10"/>
                    <path id="Path_11524" d="M15 66.94l-.15-.2-.38-.57-1.33-2h.1c-.14.68-.26 1.44-.35 2.23s-.12 1.25-.15 1.81v.22l-.09-.19a12.73 12.73 0 0 1-1-2.58 7.79 7.79 0 0 1-.17-.78 1.35 1.35 0 0 1 0-.28 1.34 1.34 0 0 1 .07.27 4.173 4.173 0 0 0 .2.77 13.91 13.91 0 0 0 1 2.55h-.11a17.235 17.235 0 0 1 .14-1.82c.09-.8.23-1.56.36-2.24V64l.07.11 1.29 2.07.37.59z" class="cls-10"/>
                    <path id="Path_11525" d="M35.93 115.28a1.82 1.82 0 0 1 .93 1 3.15 3.15 0 0 1 .12 1.43 5.67 5.67 0 0 1-1.2 2.61 3.86 3.86 0 0 1-1-2.48c-.08-1 .35-2.75 1.17-2.61" class="cls-12"/>
                    <path id="Path_11526" d="M36.69 121.9a1.54 1.54 0 0 1 .49-1.46 2.05 2.05 0 0 1 1.51-.46.89.89 0 0 1 .66.3.67.67 0 0 1 0 .67 1.33 1.33 0 0 1-.49.48 2.67 2.67 0 0 1-2.18.48" class="cls-12"/>
                    <path id="Path_11527" d="M35.69 124.75a1.11 1.11 0 0 1 0-.19 3.55 3.55 0 0 1 .1-.52 5.68 5.68 0 0 1 .53-1.65 3.37 3.37 0 0 1 1.18-1.25 2.06 2.06 0 0 1 .48-.21h.14a3.06 3.06 0 0 0-1.79 1.54 6.15 6.15 0 0 0-.55 1.63 1.862 1.862 0 0 1-.11.51 1.21 1.21 0 0 1 .02.14z" class="cls-10"/>
                    <path id="Path_11528" d="M35.71 116.68a.31.31 0 0 1 0 .08 2.361 2.361 0 0 0 0 .25v3.78c0 1.13 0 2.17-.06 2.91v-6.92s.06-.07.06-.1z" class="cls-10"/>
                    <path id="Path_11529" d="M35.34 122.47a3.64 3.64 0 0 0-2-2.63.74.74 0 0 0-.82 0 .72.72 0 0 0-.06.81 3.06 3.06 0 0 0 2.82 1.9" class="cls-12"/>
                    <path id="Path_11530" d="M33.5 120.72a.51.51 0 0 1 .17.07l.18.1a1.14 1.14 0 0 1 .23.15l.28.2.29.27a3.68 3.68 0 0 1 .91 1.53 3 3 0 0 1 .09.38 2.15 2.15 0 0 1 .05.34v.28a.74.74 0 0 1 0 .21.55.55 0 0 1 0 .18v-1a1.468 1.468 0 0 0-.1-.37 3.88 3.88 0 0 0-.9-1.51 3.452 3.452 0 0 0-.28-.26 2.471 2.471 0 0 0-.27-.21c-.42-.24-.66-.35-.65-.36z" class="cls-10"/>
                </g>
                <g id="freepik--Caravan--inject-4">
                    <path id="Path_11531" d="M63.54 115.64l86.72-.69.06-8.71-91.01-.69z" class="cls-12"/>
                    <g id="Group_3393" opacity="0.6">
                        <path id="Path_11532" d="M63.54 115.64l86.72-.69.06-8.71-91.01-.69z"/>
                    </g>
                    <path id="Path_11533" d="M42 66.53s-5.09.65-6.63 5.14-3.87 24-3.77 26.07.83 12.24.83 12.24.09 3.59 3.55 3.73 27.58 1.94 27.58 1.94l2.49-5.65a2.26 2.26 0 0 1 2.07-1.33l9.25.07a2.26 2.26 0 0 1 2.18 1.76c.46 2.08 1.19 5.28 1.43 5.28l48.61.36 4.12-6.84a2.33 2.33 0 0 1 2-1.12h8.66a2.61 2.61 0 0 1 2.29 1.41l2.27 5.61 2.36.08a2.47 2.47 0 0 0 2.56-2.39.31.31 0 0 0 0-.1c0-4.4-.1-13-.69-13.56-.8-.81-12.55-5.64-12.55-5.64l-9.53-10.4h10.34a4.62 4.62 0 0 0 4.21-2.68l2.16-4.68c-.17-.77-4.56-7.57-6.9-11.15a4.61 4.61 0 0 0-4-2.09z" class="cls-12"/>
                    <path id="Path_11534" d="M115.59 75.62v12.22c0 3.78-.05 8.26-.09 13.25v10.83a1.72 1.72 0 0 0 1 1.66 2 2 0 0 0 1 .18h2.15l9.44.07h-.05l2.33-4.24 1.12-2a5.36 5.36 0 0 1 1.41-1.76 4.91 4.91 0 0 1 2-.93 5.291 5.291 0 0 1 1.06-.11h6.74a8.428 8.428 0 0 1 .87 0 4.609 4.609 0 0 1 .84.15 4.84 4.84 0 0 1 2.55 1.75 12.812 12.812 0 0 1 .72 1.18l.64 1.1 1.08 1.87-1.09-1.87-.64-1.09a12.9 12.9 0 0 0-.73-1.18 4.77 4.77 0 0 0-2.55-1.69 3.82 3.82 0 0 0-.82-.15 8.242 8.242 0 0 0-.87 0h-5.73a9 9 0 0 0-2.07.1 4.75 4.75 0 0 0-1.92.92 5.16 5.16 0 0 0-1.38 1.73l-1.11 2L129 114l-9.45-.07h-2.14a2.13 2.13 0 0 1-1.06-.19 1.88 1.88 0 0 1-.79-.74 2 2 0 0 1-.23-1v-3.06c0-2.71 0-5.33.06-7.82 0-5 .08-9.48.11-13.25s.07-6.82.09-8.94v-3.06a1.05 1.05 0 0 0 0-.25z" class="cls-10"/>
                    <path id="Path_11535" d="M123.57 99h.13a.74.74 0 0 0 .32-.16.68.68 0 0 0 .22-.5 2 2 0 0 0 0-.35.54.54 0 0 0-.16-.34.61.61 0 0 0-.35-.21 3.85 3.85 0 0 0-.48 0h-3.52a.61.61 0 0 0-.51.25.58.58 0 0 0-.12.25 1.511 1.511 0 0 0 0 .3.66.66 0 0 0 .17.52.67.67 0 0 0 .48.2h3.85a.3.3 0 0 1-.13 0h-3.72a.74.74 0 0 1-.56-.22.78.78 0 0 1-.21-.6v-.32a.76.76 0 0 1 .75-.6h4.02a.75.75 0 0 1 .57.63 2.289 2.289 0 0 1 0 .37.71.71 0 0 1-.26.52.74.74 0 0 1-.34.15.38.38 0 0 1-.15.11z" class="cls-10"/>
                    <path id="Path_11536" d="M52.82 96.22h.12a.74.74 0 0 0 .34-.15.73.73 0 0 0 .23-.5v-.37a.68.68 0 0 0-.52-.55 3.849 3.849 0 0 0-.48 0h-3.52a.64.64 0 0 0-.63.52 1.38 1.38 0 0 0 0 .29.64.64 0 0 0 .65.72H49a.7.7 0 0 1-.56-.23.76.76 0 0 1-.21-.59 1.13 1.13 0 0 1 0-.32.75.75 0 0 1 .74-.61h3.52a4.179 4.179 0 0 1 .5 0 .74.74 0 0 1 .4.23.81.81 0 0 1 .17.39v.37a.71.71 0 0 1-.26.52.74.74 0 0 1-.34.15.3.3 0 0 1-.14.13z" class="cls-10"/>
                    <g id="Group_3394" class="cls-14">
                        <path id="Path_11537" d="M147.79 75.87l-32.2-.25v7.54l25.85.06a4.62 4.62 0 0 0 4.21-2.68z"/>
                    </g>
                    <g id="Group_3395" class="cls-14">
                        <path id="Path_11538" d="M31.61 98.31l83.8.63-.07 9.42-83.09-.63-.41-5.81z"/>
                    </g>
                    <path id="Path_11539" d="M61.31 112.47v-4.06c0-2.62 0-6.42.06-11.09s.07-10.25.11-16.44v-4.17a1.62 1.62 0 0 0-.07-.58 1.32 1.32 0 0 0-.81-.79 1.68 1.68 0 0 0-.59-.08H47.84a1.3 1.3 0 0 0-1.28 1.19v9.78c0 3.38 0 6.64-.08 9.74-.05 6.2-.1 11.78-.14 16.47l11 .11-11.06-.06c0-4.68.07-10.27.11-16.47 0-3.1 0-6.36.07-9.74V76.5a1.45 1.45 0 0 1 1.4-1.3h12.22a1.86 1.86 0 0 1 .62.08 1.43 1.43 0 0 1 .88.87 1.8 1.8 0 0 1 .08.61v4.09c0 6.19-.1 11.77-.14 16.46s-.08 8.47-.1 11.09v3.78a1.17 1.17 0 0 1-.11.29z" class="cls-10"/>
                    <rect id="Rectangle_2133" width="17.77" height="25.64" class="cls-11" rx="2.12" transform="rotate(-89.57 86.985 7.645)"/>
                    <path id="Path_11540" d="M102.21 94.75a2.31 2.31 0 0 0 .82-.17 2.1 2.1 0 0 0 .81-.6 2.06 2.06 0 0 0 .48-1.27c0-2.11 0-5.16.05-8.92v-4.52a2.12 2.12 0 0 0-.47-1.49 2.05 2.05 0 0 0-1.4-.78h-5.38l-16.18-.11a2.1 2.1 0 0 0-1 .25 1.91 1.91 0 0 0-.74.7 2 2 0 0 0-.32 1v5.13c0 2.71 0 5.32-.06 7.81v.92a2.07 2.07 0 0 0 1.68 1.8 6.329 6.329 0 0 0 .87 0h8.71l8.91.09H81.32a6.479 6.479 0 0 1-.88 0 2.18 2.18 0 0 1-1.77-1.89V78.77a2.05 2.05 0 0 1 .33-1 2.27 2.27 0 0 1 .79-.75 2.35 2.35 0 0 1 1.21-.25l16.18.13h5.38a2.15 2.15 0 0 1 1.49.78 2.19 2.19 0 0 1 .49 1.55v4.57c0 3.76-.07 6.8-.09 8.91a2.21 2.21 0 0 1-.5 1.3 2.36 2.36 0 0 1-.83.6 2.57 2.57 0 0 1-.61.14z" class="cls-10"/>
                    <path id="Path_11541" d="M73.51 96.38a1.15 1.15 0 0 0 .25 0 1.23 1.23 0 0 0 .62-.34 1.34 1.34 0 0 0 .27-.44 1.36 1.36 0 0 0 .06-.29v-1.89a1.25 1.25 0 0 0-.28-.79 1.21 1.21 0 0 0-.81-.4h-6.99a1.17 1.17 0 0 0-1 .57 1.14 1.14 0 0 0-.16.57v1.81a1.18 1.18 0 0 0 1 1.13H67a4.87 4.87 0 0 1-.54 0 1.27 1.27 0 0 1-.54-.21 1.3 1.3 0 0 1-.55-1v-1.81A1.3 1.3 0 0 1 66.63 92h7a1.28 1.28 0 0 1 1.17 1.3v1.85a1.32 1.32 0 0 1-.07.3 1.44 1.44 0 0 1-.29.46 1.18 1.18 0 0 1-.65.34 1 1 0 0 1-.28.13z" class="cls-10"/>
                    <circle id="Ellipse_1318" cx="7.74" cy="7.74" r="7.74" class="cls-10" transform="translate(64.66 109.3)"/>
                    <path id="Path_11542" d="M64.67 116.85a7.74 7.74 0 0 0 15.47.34z" class="cls-10"/>
                    <path id="Path_11543" d="M67 116.91a5.44 5.44 0 1 0 5.55-5.31 5.44 5.44 0 0 0-5.55 5.31z" class="cls-15"/>
                    <path id="Path_11544" d="M72.52 111.61a5.43 5.43 0 0 0-5.55 5.3l10.86.23a5.43 5.43 0 0 0-5.31-5.53z" class="cls-8"/>
                    <path id="Path_11545" d="M69.1 117a3.31 3.31 0 1 0 3.38-3.24A3.31 3.31 0 0 0 69.1 117z" class="cls-10"/>
                    <circle id="Ellipse_1319" cx="7.74" cy="7.74" r="7.74" class="cls-10" transform="translate(132.24 109.22)"/>
                    <path id="Path_11546" d="M132.25 116.77a7.74 7.74 0 1 0 15.471.5v-.18z" class="cls-10"/>
                    <path id="Path_11547" d="M134.55 116.84a5.43 5.43 0 1 0 5.55-5.31 5.43 5.43 0 0 0-5.55 5.31z" class="cls-15"/>
                    <path id="Path_11548" d="M140.1 111.53a5.43 5.43 0 0 0-5.55 5.31l10.86.23a5.42 5.42 0 0 0-5.31-5.54z" class="cls-8"/>
                    <path id="Path_11549" d="M136.67 116.89a3.31 3.31 0 1 0 3.38-3.24 3.32 3.32 0 0 0-3.38 3.24z" class="cls-10"/>
                    <path id="Path_11550" d="M118.37 86.6l-.06 8.8 17.8.13v-2.17a1.76 1.76 0 0 0-.46-1.19l-6.41-6.53a1.73 1.73 0 0 0-1.21-.53l-7.92-.29a1.8 1.8 0 0 0-1.74 1.78z" class="cls-11"/>
                    <path id="Path_11551" d="M118.37 86.6v-.13a2.079 2.079 0 0 1 .06-.36 1.83 1.83 0 0 1 .88-1.1 1.85 1.85 0 0 1 1-.21h1.23l3 .1c1.12 0 2.33.07 3.65.13a1.82 1.82 0 0 1 .94.39 3.15 3.15 0 0 1 .37.36c.13.13.23.25.37.37l1.51 1.54 3.25 3.31.86.88.21.23a1.221 1.221 0 0 1 .2.25 1.77 1.77 0 0 1 .23.59 2.29 2.29 0 0 1 0 .64v2h-1l-16.84-.14c0-2.71 0-4.91.07-6.43v6.41l16.84.11h.94v-1.93a2.509 2.509 0 0 0 0-.61 1.65 1.65 0 0 0-.23-.55 1.3 1.3 0 0 0-.18-.23l-.21-.23-.86-.87-3.24-3.32-1.51-1.54-.37-.37a3.059 3.059 0 0 0-.36-.36 1.81 1.81 0 0 0-.89-.37L124.5 85l-3-.12-1.23-.05a2.45 2.45 0 0 0-.54 0 1.83 1.83 0 0 0-1.33 1.23 2.63 2.63 0 0 0-.03.54z" class="cls-10"/>
                    <path id="Path_11552" d="M140.46 93.61l-2 .14-7.33-8.09a.68.68 0 0 1 0-1 .72.72 0 0 1 .27-.15.67.67 0 0 1 .68.19z" class="cls-11"/>
                    <path id="Path_11553" d="M125.43 88.71a15.313 15.313 0 0 1-1.51 1.14 14.131 14.131 0 0 1-1.58 1.07 14.068 14.068 0 0 1 1.51-1.16 15.461 15.461 0 0 1 1.58-1.05z" class="cls-16"/>
                    <path id="Path_11554" d="M126.18 89.09s-1.06.83-2.39 1.79-2.44 1.73-2.46 1.7a24.206 24.206 0 0 1 2.39-1.79c1.39-.96 2.43-1.73 2.46-1.7z" class="cls-16"/>
                    <path id="Path_11555" d="M140.61 93.59h-.57l-1.57.13v-.08c1.24.6 3 1.49 4.84 2.59s3.47 2 4.69 2.68l1.44.76.4.21.13.08a.35.35 0 0 1-.14-.06l-.41-.19c-.35-.16-.85-.41-1.46-.73-1.23-.63-2.89-1.58-4.71-2.65s-3.58-2-4.82-2.62l-.14-.06h.16l1.57-.1h.43z" class="cls-10"/>
                    <path id="Path_11556" d="M149.16 97.46s.37 4.53 4.14 4.84a12 12 0 0 0-.46-3 22.29 22.29 0 0 0-3.68-1.84z" class="cls-8"/>
                    <rect id="Rectangle_2134" width="10.68" height="4.04" class="cls-8" rx="1.72" transform="rotate(-89.57 111.04 -17.243)"/>
                    <path id="Path_11557" d="M130.25 91.18h-.46l.07-8.76a1.46 1.46 0 0 0-1.44-1.42h-1.54v-.46h1.54a1.91 1.91 0 0 1 1.89 1.92z" class="cls-8"/>
                    <path id="Path_11558" d="M130.32 83.24v2.48c0 .81 0 1.67-.06 2.68v2.85a.39.39 0 0 1-.07.23.24.24 0 0 1-.24.11.26.26 0 0 1-.23-.13.4.4 0 0 1-.05-.24v-2.85c0-1 .07-1.92.09-2.69a17.124 17.124 0 0 1 .07-1.81v-.49a1.109 1.109 0 0 1 0-.17v2.48c0 .76 0 1.67-.06 2.68v2.85c0 .14 0 .25.16.26s.18-.11.18-.23v-1.27c0-.55 0-1.08.05-1.58 0-1 .06-1.92.08-2.69s.06-1.37.07-1.81v-.49a.549.549 0 0 1 .01-.17z" class="cls-10"/>
                    <path id="Path_11559" d="M136 104.65v-4.59c0-2.54.06-4.58.09-4.58s.05 2 0 4.58-.02 4.59-.09 4.59z" class="cls-10"/>
                    <rect id="Rectangle_2135" width="13.65" height="10.19" class="cls-11" rx="1.06" transform="rotate(-89.57 70.748 21.397)"/>
                    <path id="Path_11560" d="M58 92.05a1 1 0 0 0 .44-.11 1.1 1.1 0 0 0 .42-.35 1.16 1.16 0 0 0 .18-.72C59 89.7 59 88 59 86v-6.28a1.94 1.94 0 0 0 0-.48 1 1 0 0 0-.65-.69 1.4 1.4 0 0 0-.5-.06h-7.86a1 1 0 0 0-.91.55 1.08 1.08 0 0 0-.11.53V91a1.19 1.19 0 0 0 .11.41 1.06 1.06 0 0 0 .63.5 1.81 1.81 0 0 0 .4 0h1.21l4.91.05H50a1.6 1.6 0 0 1-.43 0 1.1 1.1 0 0 1-.81-1V79.44a1.2 1.2 0 0 1 .12-.59 1.13 1.13 0 0 1 1-.62h7.88a1.66 1.66 0 0 1 .54.06 1.24 1.24 0 0 1 .46.29 1.17 1.17 0 0 1 .26.46 1.76 1.76 0 0 1 0 .51v6.28c0 2.07 0 3.75-.06 4.92a1.11 1.11 0 0 1-.63 1.1 1.4 1.4 0 0 1-.34.08l.01.12z" class="cls-10"/>
                    <path id="Path_11561" d="M57 82.52s-1.13.94-2.57 2-2.63 2-2.65 1.94a27.476 27.476 0 0 1 2.57-2C55.79 83.4 57 82.48 57 82.52z" class="cls-16"/>
                    <path id="Path_11562" d="M56.64 81.79a21 21 0 0 1-1.76 1.35A19.189 19.189 0 0 1 53 84.39a21.744 21.744 0 0 1 1.77-1.35 20.39 20.39 0 0 1 1.87-1.25z" class="cls-16"/>
                    <path id="Path_11563" d="M147.79 75.87l-32.2-.24v-.01l32.2.24z" class="cls-10"/>
                    <path id="Path_11564" d="M118.89 66.61v5.21a1.28 1.28 0 0 0 1.26 1.28l16.88.13a1.27 1.27 0 0 0 1.1-1.92l-3.34-5.71a1.26 1.26 0 0 0-1.13-.62l-13.49.37a1.26 1.26 0 0 0-1.28 1.26z" class="cls-11"/>
                    <path id="Path_11565" d="M118.89 66.61v-.13a1.18 1.18 0 0 1 .09-.37 1.26 1.26 0 0 1 1.16-.78l5.37-.17 8-.23a1.39 1.39 0 0 1 1.08.37 1.78 1.78 0 0 1 .33.48l.3.5 1.22 2.07 1.26 2.15c.1.18.21.36.32.54a2.461 2.461 0 0 1 .28.59 1.34 1.34 0 0 1-.35 1.25 1.31 1.31 0 0 1-.58.34 2.381 2.381 0 0 1-.65 0h-8.48l-8-.07a2 2 0 0 1-.43 0 1.11 1.11 0 0 1-.39-.16 1.31 1.31 0 0 1-.62-1V72a1.06 1.06 0 0 0 .09.36 1.23 1.23 0 0 0 .86.71 1.42 1.42 0 0 0 .41 0h16.47a2.14 2.14 0 0 0 .62 0 1.21 1.21 0 0 0 .85-1.45 1.88 1.88 0 0 0-.27-.55l-.32-.55-1.26-2.15-1.21-2.08-.3-.5a1.81 1.81 0 0 0-.32-.46 1.24 1.24 0 0 0-1-.34l-8 .21-5.38.13a1.27 1.27 0 0 0-1.14.74 1.42 1.42 0 0 0-.01.54z" class="cls-10"/>
                    <path id="Path_11566" d="M118.68 71.94s-18.63-.08-41.59-.25-41.6-.34-41.6-.37 18.62.08 41.6.25 41.59.34 41.59.37z" class="cls-16"/>
                    <path id="Path_11567" d="M118.85 70.16s-18.39-.08-41.07-.25-41.08-.33-41.07-.37 18.38.08 41.07.25 41.07.35 41.07.37z" class="cls-16"/>
                    <path id="Path_11568" d="M99.86 80.65l-.14.09-.51.34-1.89 1.21c-1.61 1-3.85 2.36-6.37 3.79s-4.85 2.66-6.54 3.52c-.84.43-1.53.77-2 1l-.55.26-.14.07.14-.08.54-.28 2-1c1.68-.88 4-2.12 6.51-3.55s4.76-2.77 6.38-3.76l1.92-1.17.52-.32.14-.08z" class="cls-16"/>
                    <path id="Path_11569" d="M92.64 82.75s-1.51.84-3.4 1.83-3.44 1.75-3.46 1.72 1.5-.85 3.4-1.83 3.45-1.74 3.46-1.72z" class="cls-16"/>
                    <path id="Path_11570" d="M132.19 67.65s-1.79.83-4 1.79-4.08 1.71-4.09 1.68 1.8-.83 4-1.79 4.08-1.72 4.09-1.68z" class="cls-16"/>
                    <path id="Path_11571" d="M131 69.45a18.2 18.2 0 0 1-1.78.69 16.1 16.1 0 0 1-1.82.59 16.092 16.092 0 0 1 1.78-.71 14.74 14.74 0 0 1 1.82-.57z" class="cls-16"/>
                    <path id="Rectangle_2136" d="M0 0H13.88V17.85H0z" class="cls-10" transform="translate(14.52 107.07)"/>
                    <path id="Path_11572" d="M27 119.24v-7.34H15.9l.06-.06v7.35l-.05-.06h-.04v-7.4c-.05 0 .08-.08.06-.07H27.1v7.27a.52.52 0 0 1-.1.31z" class="cls-11"/>
                    <path id="Path_11573" d="M19.46 115.67a1 1 0 0 0-.06-.28 1.21 1.21 0 0 0-.44-.62 1.13 1.13 0 0 0-1.57.22 1.1 1.1 0 0 0 .51 1.73 1.12 1.12 0 0 0 1.06-.15 1.21 1.21 0 0 0 .44-.62c.05-.17 0-.28.06-.28s0 0 0 .08a.76.76 0 0 1 0 .21 1.12 1.12 0 0 1-.42.68 1.25 1.25 0 0 1-1.15.19 1.16 1.16 0 0 1-.57-.43 1.23 1.23 0 0 1 0-1.46 1.14 1.14 0 0 1 .57-.42 1.2 1.2 0 0 1 1.15.19 1.07 1.07 0 0 1 .42.67.76.76 0 0 1 0 .21z" class="cls-11"/>
                    <path id="Path_11574" d="M17.92 115.54a.18.18 0 0 1 0 .25.19.19 0 0 1-.26 0 .18.18 0 0 1 0-.25.18.18 0 0 1 .26 0z" class="cls-11"/>
                    <path id="Path_11575" d="M18.83 115.54a.17.17 0 0 1 0 .25.18.18 0 0 1-.28-.22h.05a.18.18 0 0 1 .23-.03z" class="cls-11"/>
                    <circle id="Ellipse_1320" cx="1.17" cy="1.17" r="1.17" class="cls-11" transform="translate(20.43 114.5)"/>
                    <path id="Path_11576" d="M26.15 115.67a1.87 1.87 0 0 0-.06-.28 1.14 1.14 0 1 0-1.49 1.33 1.12 1.12 0 0 0 1.06-.15 1.14 1.14 0 0 0 .43-.62c.05-.17.05-.28.06-.28s0 0 0 .08a.75.75 0 0 1 0 .21 1.2 1.2 0 0 1-2.13.48A1.23 1.23 0 0 1 24 115a1.21 1.21 0 0 1 1.7-.25 1.22 1.22 0 0 1 .42.68.75.75 0 0 1 0 .21s.04.03.03.03z" class="cls-11"/>
                    <path id="Path_11577" d="M24.61 115.54a.17.17 0 0 1 0 .25.19.19 0 0 1-.26 0 .18.18 0 0 1 0-.25.16.16 0 0 1 .26 0z" class="cls-11"/>
                    <path id="Path_11578" d="M25.53 115.54a.18.18 0 0 1-.26.24.17.17 0 0 1 0-.25.18.18 0 0 1 .26.01z" class="cls-11"/>
                    <path id="Path_11579" d="M20.43 115.67s-.25 1.91 1.17 1.91 1.18-2 1.18-2z" class="cls-11"/>
                    <path id="Path_11580" d="M67.86 96.63v3.13c0 2 0 4.93-.06 8.53s0 7.88-.09 12.64a6.89 6.89 0 0 1-.2 1.81 2.45 2.45 0 0 1-1.12 1.46 4.21 4.21 0 0 1-1.84.46h-9.92c-5.5 0-10.73.14-15.49.2s-9 .08-12.65.06h-2.56l-1.18-.05a.88.88 0 0 1-.55-.15 1.11 1.11 0 0 1-.34-.46 3.24 3.24 0 0 1-.2-1 7.69 7.69 0 0 1 0-1V120.58c0-1 .06-1.78.07-2.31v4.94a3.07 3.07 0 0 0 .2 1 1 1 0 0 0 .31.42.85.85 0 0 0 .52.14h3.74c3.6 0 7.89 0 12.65-.08s10-.16 15.49-.22h9.93a4.07 4.07 0 0 0 1.78-.44 2.28 2.28 0 0 0 1.07-1.4 6.25 6.25 0 0 0 .2-1.77c.05-4.76.09-9 .13-12.65s.06-6.51.09-8.53v-2.92a.84.84 0 0 0 .02-.13z" class="cls-11"/>
                </g>
                <path id="Path_11581" d="M128.07 37.05l-1-.78a1 1 0 0 1 1.19.65 1.69 1.69 0 0 1 1.24.08l-2 .71a1.53 1.53 0 0 1 .57-.66z" class="cls-10"/>
                <path id="Path_11582" d="M96.3 43.63l-1.4-1.12a1.49 1.49 0 0 1 1.72.94 2.39 2.39 0 0 1 1.77.11l-2.8 1a2.13 2.13 0 0 1 .71-.93z" class="cls-10"/>
                <path id="Path_11583" d="M113.65 36.76l-1.39-1.11a1.48 1.48 0 0 1 1.71.94 2.35 2.35 0 0 1 1.77.1l-2.79 1a2.08 2.08 0 0 1 .7-.93z" class="cls-10"/>
                <g id="freepik--Floor--inject-4">
                    <path id="Path_11584" d="M163 124.91s-37.1.06-82.85.06-82.87 0-82.87-.06 37.1-.06 82.87-.06 82.85.03 82.85.06z" class="cls-10"/>
                    <path id="Path_11585" d="M141.67 139.42s-20.68.06-46.17.06-46.17 0-46.17-.06 20.66-.06 46.17-.06 46.17.02 46.17.06z" class="cls-10"/>
                </g>
                <g id="freepik--Character--inject-4">
                    <path id="Path_11586" d="M99.16 107.91a33.729 33.729 0 0 1-2 3.36c-.17-.01-4.91 1.64-4.91 1.64l1.27 2.29s3.81-.06 4.75-.66a16.051 16.051 0 0 0 2.59-3l1.08-3z" class="cls-17"/>
                    <path id="Path_11587" d="M101.85 101.69a5.24 5.24 0 0 0-2.49 2.38l-2 3.39 3.51 1.76z" class="cls-18"/>
                    <path id="Path_11588" d="M81.71 132.12l-1.54 3.54s-4.11-.38-4.46.25l6.75 3.23 2.62-5.41z" class="cls-12"/>
                    <path id="Path_11589" d="M82.4 136.36a.32.32 0 0 1 0 .41.3.3 0 0 1-.41 0 .33.33 0 0 1 0-.43.32.32 0 0 1 .43 0" class="cls-8"/>
                    <path id="Path_11590" d="M82.45 139.14l.26-.54-6.58-2.91s-.36 0-.42.22z" class="cls-8"/>
                    <path id="Path_11591" d="M80.07 135.57a1.639 1.639 0 0 1 .25.31c.11.18.13.37.17.37s.08-.22-.06-.44-.35-.27-.36-.24z" class="cls-10"/>
                    <path id="Path_11592" d="M79.22 135.53a1.461 1.461 0 0 1 .14.34.8.8 0 0 1 0 .37.448.448 0 0 0 .08-.4c-.06-.24-.2-.36-.22-.31z" class="cls-10"/>
                    <path id="Path_11593" d="M78.41 136.17a.486.486 0 0 0 .16-.34c.01-.22-.12-.37-.15-.35s0 .17 0 .35-.04.34-.01.34z" class="cls-10"/>
                    <path id="Path_11594" d="M80.51 134.8a2.577 2.577 0 0 1 .35.16c.18.1.3.23.33.21s0-.2-.27-.32-.41-.08-.41-.05z" class="cls-10"/>
                    <path id="Path_11595" d="M80.83 134.11a.76.76 0 0 0 .34.16 1.4 1.4 0 0 0 .41.06h.24a.32.32 0 0 0 .14 0 .16.16 0 0 0 .1-.17.21.21 0 0 0-.06-.16h-.13a2.129 2.129 0 0 0-.25 0 1.4 1.4 0 0 0-.41.06c-.23.07-.34.17-.33.18s.14-.05.35-.09a1.26 1.26 0 0 1 .61 0c.08 0 .14 0 .14.08a.23.23 0 0 1-.11 0h-.22a1.29 1.29 0 0 1-.39 0 2.292 2.292 0 0 0-.43-.12z" class="cls-10"/>
                    <path id="Path_11596" d="M80.85 134.17a.84.84 0 0 0 .25-.29 1.18 1.18 0 0 0 .14-.64.29.29 0 0 0-.13-.27.17.17 0 0 0-.19 0 .43.43 0 0 0-.09.1.7.7 0 0 0-.11.23.86.86 0 0 0 0 .42.349.349 0 0 0 .17.33 3.579 3.579 0 0 1-.09-.35.87.87 0 0 1 0-.36.75.75 0 0 1 .1-.2c0-.06.1-.11.12-.09a.23.23 0 0 1 .07.17v.23a1.56 1.56 0 0 1-.1.37c-.06.18-.15.33-.14.35z" class="cls-10"/>
                    <path id="Path_11597" d="M97.1 114.36c-1.2-.39-5.92-1.84-9.35-2.69a5 5 0 0 0-3.9.75A4.38 4.38 0 0 0 82 116.9l1.41 8.71 5.81-.78-1.52-7.67 8.11 2.21 7.4-2.14v-.36l-6.1-2.5" class="cls-10"/>
                    <path id="Path_11598" d="M98.91 115.89l-10.45 2.27a4.65 4.65 0 0 0-3.38 2.91l-5.24 13.25 4.7 2.2 5.91-12.84 8.15-.63c2.19-.27 4.79-.87 6.47-3.41l.79-1.63z" class="cls-10"/>
                    <path id="Path_11599" d="M97 116.27h-.13l-.51.12-1.84.41-2.75.6-1.63.35c-.56.13-1.14.23-1.73.39a5.28 5.28 0 0 0-1.62.69 4.13 4.13 0 0 0-1.18 1.17 10.22 10.22 0 0 0-1.13 2.55c-.24.76-.46 1.37-.63 1.78-.09.21-.16.37-.21.46l-.07.12.05-.12a2.475 2.475 0 0 1 .2-.48c.17-.41.36-1 .6-1.79a10 10 0 0 1 1.12-2.52 4.42 4.42 0 0 1 1.16-1.2 5.43 5.43 0 0 1 1.65-.68c.59-.16 1.18-.27 1.74-.39l1.62-.35 2.75-.58 1.86-.38.5-.1h.13z" class="cls-11"/>
                    <path id="Path_11600" d="M105.59 112.72a8 8 0 0 1-1.63.6 4.37 4.37 0 0 1 .8-.34 4.2 4.2 0 0 1 .83-.26z" class="cls-19"/>
                    <path id="Path_11601" d="M101.85 101.69l-2.38 9.56-3.2 2.88 3.21 2.36a2.93 2.93 0 0 0 1.29.56l5.09 1 3.24-7.11 2.58-7.88a3.4 3.4 0 0 0-2.55-1.7l-3.73-.66z" class="cls-18"/>
                    <path id="Path_11602" d="M101.33 103.68a2.868 2.868 0 0 1 0 .31 4.716 4.716 0 0 1-.19.81c-.16.69-.39 1.63-.65 2.68s-.49 2-.67 2.67c-.09.33-.16.61-.21.81l-.09.29v-.3c0-.1.11-.48.19-.81.16-.69.39-1.64.64-2.68s.5-2 .68-2.68c.09-.33.16-.6.21-.8a1.709 1.709 0 0 1 .09-.3z" class="cls-10"/>
                    <path id="Path_11603" d="M102.42 111.87s-.15-.1-.39-.23a3.339 3.339 0 0 0-1-.32 6.52 6.52 0 0 0-1.08-.06 1.771 1.771 0 0 1-.46 0 2.311 2.311 0 0 1 .46-.05 5.06 5.06 0 0 1 1.1 0 2.91 2.91 0 0 1 1 .35 1.09 1.09 0 0 1 .37.31z" class="cls-10"/>
                    <g id="Group_3396" class="cls-20">
                        <path id="Path_11604" d="M99.47 111.25a8.08 8.08 0 0 1 2.86-.13 1 1 0 0 1 .6.23.42.42 0 0 1 .08.58.44.44 0 0 1-.44.08c-.15 0-.33-.27-.46-.35a4.07 4.07 0 0 0-2.58-.4"/>
                    </g>
                    <g id="Group_3397" class="cls-20">
                        <path id="Path_11605" d="M107.22 103.61c-.76 2.15.77 4.55 2.2 6.32l.36-1.09s-1.78-7.38-2.56-5.23z"/>
                    </g>
                    <path id="Path_11606" d="M107.09 114.49s-5.41-6.15-5.49-6.13-4.11-.58-4.11-.58l-.69.68 4.49.58 5.51 5.79z" class="cls-11"/>
                    <path id="Path_11607" d="M96.8 108.46a3.15 3.15 0 0 0-.32.2l.06.57a9.827 9.827 0 0 1 1 .34c0 .04.23-.31.23-.31z" class="cls-11"/>
                    <path id="Path_11608" d="M107 115l-5.7-6-4.49-.55 5.07 5.42z" class="cls-10"/>
                    <path id="Path_11609" d="M96.8 108.46s-.74.32.42.47 3.78.46 3.78.46l3.86 5.28s-.22.32-.41.27a21.941 21.941 0 0 1-3.72-.78c-1-.53-4.36-4.84-4.41-5.24s.48-.46.48-.46z" class="cls-7"/>
                    <path id="Path_11610" d="M104.45 115l-.07-.09c0-.06-.12-.15-.2-.25l-.69-.94-2.29-3.1-.54-.74-1.8-.23-.77-.09-.66-.1a2.078 2.078 0 0 1-.54-.1 1.641 1.641 0 0 1-.39-.14.58.58 0 0 1-.19-.19.2.2 0 0 1 0-.09.43.43 0 0 0 .23.25 1.71 1.71 0 0 0 .38.13l.54.07.66.1.77.1 1.79.21.54.73 2.27 3.12.69 1 .18.26a.25.25 0 0 1 .09.09z" class="cls-10"/>
                    <path id="Path_11611" d="M105.92 111.6s-.89-.85-1.19-.89a3.11 3.11 0 0 1-1.25-.71.24.24 0 0 0-.35 0l.86 1-2.83-.4a.76.76 0 0 0 .38.57c.36.22.27.23.27.23s-.19.25 0 .42a3.075 3.075 0 0 0 .54.35.72.72 0 0 0 .1.6 1.25 1.25 0 0 0 .19.56 3.4 3.4 0 0 0 1 .66l3.76-.14-.09-2.15z" class="cls-17"/>
                    <path id="Path_11612" d="M102.83 110.86a3.4 3.4 0 0 0 .77.16 4.16 4.16 0 0 0 .79.09 7.46 7.46 0 0 0-1.56-.25z" class="cls-19"/>
                    <path id="Path_11613" d="M101.67 111.31a4.539 4.539 0 0 0 .78.35 4.75 4.75 0 0 0 .8.28 4.13 4.13 0 0 0-.77-.35 4.56 4.56 0 0 0-.81-.28z" class="cls-19"/>
                    <path id="Path_11614" d="M102.19 112.13a1.63 1.63 0 0 0 .4.24 1.28 1.28 0 0 0 .44.18 3.09 3.09 0 0 0-.83-.42z" class="cls-19"/>
                    <path id="Path_11615" d="M102.39 112.74a.67.67 0 0 0 .23.17c.14.08.23.15.25.13s-.08-.11-.21-.19-.26-.13-.27-.11z" class="cls-19"/>
                    <path id="Path_11616" d="M100.73 111a3 3 0 0 1-.52 0 7.26 7.26 0 0 1-2.45-.43 2.06 2.06 0 0 1-.48-.21 4.13 4.13 0 0 1 .5.15 11.669 11.669 0 0 0 1.2.29 10.261 10.261 0 0 0 1.23.13z" class="cls-10"/>
                    <path id="Path_11617" d="M102.31 112.94a2 2 0 0 1-.48 0 9.149 9.149 0 0 1-1.17 0 7.429 7.429 0 0 1-1.14-.23 2.29 2.29 0 0 1-.46-.17 3.939 3.939 0 0 1 .47.1 11.047 11.047 0 0 0 1.15.2c.45 0 .86.06 1.14.06a3.909 3.909 0 0 1 .49.04z" class="cls-10"/>
                    <path id="Path_11618" d="M103 114a1.41 1.41 0 0 1-.46 0 6.07 6.07 0 0 1-1.12-.07 8.081 8.081 0 0 1-1.08-.26 2.35 2.35 0 0 1-.44-.17 13.523 13.523 0 0 0 1.54.33c.85.13 1.56.17 1.56.17z" class="cls-10"/>
                    <path id="Path_11619" d="M101.35 111.91a1.76 1.76 0 0 1-.45.07 5.06 5.06 0 0 1-1.1 0 5.85 5.85 0 0 1-1.08-.2 2.16 2.16 0 0 1-.43-.14 13.849 13.849 0 0 0 1.52.25c.84.09 1.53-.02 1.54.02z" class="cls-10"/>
                    <path id="Path_11620" d="M104.76 114l9.47-.14a7.1 7.1 0 0 0 0-4.62l-2-5c-.56-1.35-2-2.46-3.34-1.86-1.3.58-1.41 1.9-.84 3.2l2.5 5.3-4.67.72" class="cls-17"/>
                    <path id="Path_11621" d="M107.89 105.86l1.89 3.21 4.28-1.77s-1.84-3.49-2.44-4.39a2.93 2.93 0 0 0-2.34-1.29 3.921 3.921 0 0 0-.49.13 2.05 2.05 0 0 0-1.44 1.59v.18a4 4 0 0 0 .54 2.34z" class="cls-18"/>
                    <path id="Path_11622" d="M109.78 109.07a2.33 2.33 0 0 1-.17-.26l-.46-.7-.66-1.06c-.24-.4-.53-.83-.78-1.31a3.9 3.9 0 0 1-.31-.73 4.06 4.06 0 0 1 0-2 1.62 1.62 0 0 1 .38-.75l.1-.09.08-.06h.01l-.07.07-.09.09a1.87 1.87 0 0 0-.35.74 3.63 3.63 0 0 0-.06 1.23 3.42 3.42 0 0 0 .13.71 4.55 4.55 0 0 0 .3.72c.25.48.53.92.77 1.31l.65 1.06.43.73a1.711 1.711 0 0 1 .1.3z" class="cls-10"/>
                    <path id="Path_11623" d="M113.32 112.1a4.091 4.091 0 0 0-.28-.4 2.33 2.33 0 0 0-2-.87 2.848 2.848 0 0 0-.48.07l.12-.05a1.47 1.47 0 0 1 .35-.08 2.23 2.23 0 0 1 2.1.89 1.44 1.44 0 0 1 .19.31c0 .09.01.13 0 .13z" class="cls-19"/>
                    <path id="Path_11624" d="M95.42 125.06l7.16 6.7.66-2.32-5.25-4.62z" class="cls-11"/>
                    <path id="Rectangle_2137" d="M0 0H21.17V2.65H0z" class="cls-11" transform="translate(91.16 123.05)"/>
                    <path id="Path_11625" d="M112.33 125.7s-4.74.06-10.59.06-10.58 0-10.58-.06 4.73-.06 10.58-.06 10.59.02 10.59.06z" class="cls-10"/>
                    <path id="Path_11626" d="M93.63 124.82l-.1-.06a2.849 2.849 0 0 0-.31-.12 2.1 2.1 0 0 0-1.19 0 3.08 3.08 0 0 0 2.85.73.35.35 0 0 0 .19-.12.2.2 0 0 0 0-.21 1.43 1.43 0 0 0-.3-.35 3.411 3.411 0 0 0-.73-.51 3.56 3.56 0 0 0-1.44-.4 3.42 3.42 0 0 0-1 .06 2.71 2.71 0 0 0-.36.1h.09l.27-.07a3.47 3.47 0 0 1 1-.09 3.65 3.65 0 0 1 1.45.4 3.819 3.819 0 0 1 .75.51 1.56 1.56 0 0 1 .31.37.28.28 0 0 1 0 .25.37.37 0 0 1-.22.15 3.1 3.1 0 0 1-2.9-.77 2.08 2.08 0 0 1 1.21.06 1.42 1.42 0 0 1 .43.07z" class="cls-10"/>
                    <path id="Path_11627" d="M99 125.75h-.2a2.49 2.49 0 0 1-.55-.16 5.21 5.21 0 0 1-1.51-1.12 6.74 6.74 0 0 0-1.47-1.14 2.14 2.14 0 0 0-.53-.2h-.2a.69.69 0 0 1 .2 0 2 2 0 0 1 .54.19 6.129 6.129 0 0 1 1.49 1.15 5.79 5.79 0 0 0 1.49 1.11 2.45 2.45 0 0 0 .54.18z" class="cls-10"/>
                    <path id="Path_11628" d="M103.65 123.05a1.12 1.12 0 0 1 0 .32 1.52 1.52 0 0 1-.46.73 2.22 2.22 0 0 1-1.13.6 3.11 3.11 0 0 1-1.57-.1A7.76 7.76 0 0 1 99 124c-.42-.23-.81-.44-1.14-.6a3.94 3.94 0 0 0-.82-.27h-.31a1.631 1.631 0 0 1 .31 0 3 3 0 0 1 .83.27c.34.15.72.36 1.15.58a7.67 7.67 0 0 0 1.44.63 3.25 3.25 0 0 0 1.55.1 2.41 2.41 0 0 0 1.12-.58 1.68 1.68 0 0 0 .46-.71 1.8 1.8 0 0 0 .06-.37z" class="cls-10"/>
                    <path id="Path_11629" d="M112.11 124l-.2-.06a3.66 3.66 0 0 0-4 1.07 3.221 3.221 0 0 0-.34.46l-.12.17a2.92 2.92 0 0 1 .44-.66 3.61 3.61 0 0 1 3.44-1.22 3.28 3.28 0 0 1 .78.24z" class="cls-10"/>
                    <path id="Path_11630" d="M107.14 112.91l-7.59 26.75h3.21l7.55-26.75z" class="cls-11"/>
                    <path id="Path_11631" d="M106.74 114.32S105.19 120 103.2 127s-3.61 12.66-3.65 12.65 1.55-5.65 3.54-12.65 3.61-12.69 3.65-12.68z" class="cls-10"/>
                    <path id="Path_11632" d="M109.91 114.32s-1.55 5.68-3.54 12.68-3.62 12.66-3.65 12.65 1.55-5.68 3.54-12.69 3.63-12.65 3.65-12.64z" class="cls-10"/>
                    <path id="Path_11633" d="M105.23 120.58a1.938 1.938 0 0 1-.07.19l-.08.23a1.728 1.728 0 0 1-.1.33 9.911 9.911 0 0 0-.33 2.15c-.06.92 0 2-.1 3.24a12 12 0 0 1-.29 1.89 13.6 13.6 0 0 1-.64 2c-.46 1.11-1 2.14-1.44 3.1s-.83 1.77-1.18 2.68a12.24 12.24 0 0 0-.59 2.13 9.541 9.541 0 0 0-.14 1.31 8.19 8.19 0 0 1 .13-1.31 12.421 12.421 0 0 1 .58-2.15 26.351 26.351 0 0 1 1.15-2.68c.46-1 1-2 1.44-3.11a14.679 14.679 0 0 0 .64-1.94 10.909 10.909 0 0 0 .28-1.89c.08-1.21.06-2.31.12-3.23a9.919 9.919 0 0 1 .34-2.16 1.155 1.155 0 0 1 .1-.33l.09-.22z" class="cls-10"/>
                    <path id="Path_11634" d="M104.28 133.47h-.06l-.16.13a2.431 2.431 0 0 0-.25.2c-.11.09-.22.18-.32.28s-.24.25-.35.38-.23.3-.36.46a5.931 5.931 0 0 0-.64 1.19 6.628 6.628 0 0 0-.37 1.3 1.91 1.91 0 0 1-.06.59 4.339 4.339 0 0 0 0 .51 3 3 0 0 0 0 .43v.32a1.77 1.77 0 0 1 0 .2v.07a.19.19 0 0 1 0-.07v-.2a1.769 1.769 0 0 1-.05-.32v-.42a4.511 4.511 0 0 1 0-.52 3.053 3.053 0 0 1 .06-.6 6.511 6.511 0 0 1 .36-1.31 7 7 0 0 1 .65-1.2c.12-.16.24-.31.37-.46a4.081 4.081 0 0 1 .36-.36 2.79 2.79 0 0 1 .32-.28l.26-.2.17-.11a.1.1 0 0 1 .07-.01z" class="cls-10"/>
                    <path id="Path_11635" d="M107.68 118.39l-.08.17-.23.5a6.681 6.681 0 0 0-.3.82 2.456 2.456 0 0 1-.15.52c-.05.19 0 .19-.07.29a1 1 0 0 0 0 .3c0 .1.06.23.17.21a.426.426 0 0 0 .25-.19c.07-.09.26-.4.39-.61a7.68 7.68 0 0 0 .66-1.46 7.84 7.84 0 0 0 .23-.83.88.88 0 0 1 .08-.44 1.621 1.621 0 0 0 0-.44.51.51 0 0 0-.25-.35.67.67 0 0 0-.44-.06 1.3 1.3 0 0 0-.74.56 7.48 7.48 0 0 0-1.37 3.35 11 11 0 0 0 0 3 18.49 18.49 0 0 0 .32 2l.12.54v.19s-.07-.26-.18-.72c-.14-.66-.26-1.33-.34-2a11.51 11.51 0 0 1 0-3 7.53 7.53 0 0 1 1.38-3.37 1.37 1.37 0 0 1 .76-.58.73.73 0 0 1 .48.06.56.56 0 0 1 .27.39 1.7 1.7 0 0 1 0 .45l-.09.44a7.58 7.58 0 0 1-.89 2.3c-.13.21-.26.42-.39.61s-.15.2-.28.2a.16.16 0 0 1-.15-.08.3.3 0 0 1 0-.16.65.65 0 0 1 0-.31 2.46 2.46 0 0 1 .07-.29 1.742 1.742 0 0 1 .15-.52 8.6 8.6 0 0 1 .31-.82 3.723 3.723 0 0 1 .31-.67z" class="cls-10"/>
                    <path id="Path_11636" d="M108.43 114.4a.31.31 0 0 1-.05.1c0 .08-.11.15-.17.23a3.5 3.5 0 0 1-.69.64 3.63 3.63 0 0 1-.84.41 1.28 1.28 0 0 1-.28.07h-.1l.37-.12a4.31 4.31 0 0 0 .83-.42 3.69 3.69 0 0 0 .68-.63 3.222 3.222 0 0 0 .25-.28z" class="cls-10"/>
                    <path id="Path_11637" d="M136.26 125.06l-7.16 6.7-.66-2.32 5.26-4.62z" class="cls-11"/>
                    <path id="Rectangle_2138" d="M0 0H21.17V2.65H0z" class="cls-11" transform="translate(119.36 123.04)"/>
                    <path id="Path_11638" d="M119.36 125.7h10.65c5.88 0 10.65.06 10.65.09s-4.77 0-10.65 0-10.65-.06-10.65-.09z" class="cls-10"/>
                    <path id="Path_11639" d="M138.06 124.82a1.56 1.56 0 0 1 .41-.2 2.26 2.26 0 0 1 1.21-.06 3.1 3.1 0 0 1-2.89.76.4.4 0 0 1-.22-.14.3.3 0 0 1 0-.26 1.22 1.22 0 0 1 .32-.36 2.87 2.87 0 0 1 .74-.51 3.55 3.55 0 0 1 1.45-.41 3.47 3.47 0 0 1 1 .09l.27.08h.09a3.571 3.571 0 0 0-.36-.09 3.11 3.11 0 0 0-1-.07 3.42 3.42 0 0 0-1.44.41 3.05 3.05 0 0 0-.73.5 1.43 1.43 0 0 0-.3.35.2.2 0 0 0 0 .21.28.28 0 0 0 .19.12 3 3 0 0 0 1.65 0 3.07 3.07 0 0 0 1.2-.69 2.19 2.19 0 0 0-1.19 0l-.31.13z" class="cls-10"/>
                    <path id="Path_11640" d="M132.72 125.75h.2a2 2 0 0 0 .54-.18 5.57 5.57 0 0 0 1.49-1.11 6.39 6.39 0 0 1 1.49-1.15 2.47 2.47 0 0 1 .54-.19 3 3 0 0 0-.52.2 6.611 6.611 0 0 0-1.48 1.15 5.18 5.18 0 0 1-1.51 1.11 2.6 2.6 0 0 1-.54.17z" class="cls-10"/>
                    <path id="Path_11641" d="M128.14 123a1.881 1.881 0 0 0 .05.33 1.64 1.64 0 0 0 .44.75 2 2 0 0 0 1.14.58 3.43 3.43 0 0 0 1.59-.17 9.849 9.849 0 0 0 1.47-.69 13.255 13.255 0 0 1 1.2-.58 4.92 4.92 0 0 1 .85-.26 1.861 1.861 0 0 1 .33 0h-.09a1.56 1.56 0 0 0-.22 0 4.68 4.68 0 0 0-.85.27c-.35.15-.75.35-1.19.59a9.512 9.512 0 0 1-1.48.69 3.47 3.47 0 0 1-1.6.17 2 2 0 0 1-1.17-.6 1.56 1.56 0 0 1-.44-.78 1.12 1.12 0 0 1-.03-.3z" class="cls-10"/>
                    <path id="Path_11642" d="M119.57 124a2.83 2.83 0 0 1 .75-.23 3.6 3.6 0 0 1 3.44 1.22 2.88 2.88 0 0 1 .43.66 1.08 1.08 0 0 1-.11-.18 3 3 0 0 0-.35-.45 3.7 3.7 0 0 0-4-1.08z" class="cls-10"/>
                    <path id="Path_11643" d="M124.54 112.91l7.59 26.75h-3.21l-7.55-26.75z" class="cls-11"/>
                    <path id="Path_11644" d="M124.94 114.32s1.67 5.66 3.65 12.65 3.57 12.68 3.54 12.69-1.66-5.66-3.65-12.66-3.57-12.67-3.54-12.68z" class="cls-10"/>
                    <path id="Path_11645" d="M121.76 114.32s1.67 5.66 3.66 12.65 3.58 12.68 3.58 12.69-1.71-5.66-3.7-12.66-3.57-12.67-3.54-12.68z" class="cls-10"/>
                    <path id="Path_11646" d="M126.45 120.58l.08.19a1.359 1.359 0 0 0 .09.23l.1.33a9.83 9.83 0 0 1 .34 2.15c.07.92 0 2 .12 3.24a12 12 0 0 0 .28 1.89 16.31 16.31 0 0 0 .64 1.94c.46 1.12 1 2.14 1.44 3.11a27.9 27.9 0 0 1 1.18 2.68 13 13 0 0 1 .58 2.14 9.52 9.52 0 0 1 .12 1.31l.06-.3v.3a9.39 9.39 0 0 0-.13-1.3 13.341 13.341 0 0 0-.6-2.14 28.773 28.773 0 0 0-1.17-2.67c-.46-1-1-2-1.45-3.11a14.818 14.818 0 0 1-.64-1.95 11.051 11.051 0 0 1-.28-1.89c-.08-1.22 0-2.32-.11-3.24a10.339 10.339 0 0 0-.32-2.15l-.1-.33-.09-.23a1.8 1.8 0 0 1-.14-.2z" class="cls-10"/>
                    <path id="Path_11647" d="M127.41 133.47h.06l.17.11a2.428 2.428 0 0 1 .25.2 2.791 2.791 0 0 1 .32.28 4.166 4.166 0 0 1 .36.37c.13.15.25.3.37.46a6.339 6.339 0 0 1 .65 1.2 5.911 5.911 0 0 1 .36 1.31 3.053 3.053 0 0 0 .06.6 4.513 4.513 0 0 1 0 .52v.42a1.769 1.769 0 0 1-.05.32v.2a.25.25 0 0 1 0 .07v-.59a3 3 0 0 0 0-.43 4.341 4.341 0 0 0 0-.51 2.042 2.042 0 0 0-.06-.59 7.371 7.371 0 0 0-.36-1.3 6.532 6.532 0 0 0-.65-1.19 3.5 3.5 0 0 0-.36-.46c-.11-.13-.23-.26-.35-.38a2.92 2.92 0 0 0-.32-.28 2.428 2.428 0 0 0-.25-.2l-.16-.13z" class="cls-10"/>
                    <path id="Path_11648" d="M124 118.39a5.719 5.719 0 0 1 .32.66c.09.23.2.5.31.82.05.16.1.33.15.52a2.46 2.46 0 0 1 .07.29.65.65 0 0 1 0 .31.3.3 0 0 1 0 .16.16.16 0 0 1-.15.09c-.13 0-.21-.12-.28-.21s-.26-.4-.39-.61a7.72 7.72 0 0 1-.67-1.46 6.1 6.1 0 0 1-.22-.84 3.729 3.729 0 0 0-.08-.44 1.19 1.19 0 0 1 0-.46.52.52 0 0 1 .26-.38.67.67 0 0 1 .48-.06 1.4 1.4 0 0 1 .76.57 7.61 7.61 0 0 1 1.38 3.38 11.51 11.51 0 0 1 0 3 18.79 18.79 0 0 1-.34 2c-.11.46-.18.72-.18.72v-.18l.12-.54c.09-.46.23-1.15.33-2a11.44 11.44 0 0 0-.05-3 7.28 7.28 0 0 0-1.37-3.35 1.36 1.36 0 0 0-.74-.57.67.67 0 0 0-.44.06.5.5 0 0 0-.24.35 1.14 1.14 0 0 0 0 .45 3.387 3.387 0 0 0 .08.44 6 6 0 0 0 .23.83 7.071 7.071 0 0 0 .65 1.46c.13.21.26.42.39.6s.15.19.25.2.16-.12.17-.22a.78.78 0 0 0 0-.3.408.408 0 0 0-.07-.28 2.517 2.517 0 0 1-.15-.52 6.681 6.681 0 0 0-.3-.82 3.561 3.561 0 0 0-.23-.5.74.74 0 0 1-.05-.17z" class="cls-10"/>
                    <path id="Path_11649" d="M123.25 114.4a3.642 3.642 0 0 0 .25.31 4 4 0 0 0 .68.62 3.41 3.41 0 0 0 .83.42l.37.12h-.1l-.28-.07a3.3 3.3 0 0 1-.84-.42 3.5 3.5 0 0 1-.69-.64c-.06-.07-.11-.15-.17-.23z" class="cls-10"/>
                    <path id="Rectangle_2139" d="M0 0H31.53V2.83H0z" class="cls-11" transform="translate(99.33 112.6)"/>
                    <path id="Path_11650" d="M104.3 112.49a5.78 5.78 0 0 1-1.21 1.3 6.641 6.641 0 0 1-.94.62 6.4 6.4 0 0 1-1 .45 5.539 5.539 0 0 1-.89.23 4.8 4.8 0 0 1-.85.08h.23l.61-.08a8.933 8.933 0 0 0 .89-.23 9.439 9.439 0 0 0 1-.45 6.54 6.54 0 0 0 .93-.62 5.779 5.779 0 0 0 .69-.61 5.874 5.874 0 0 0 .41-.46l.1-.13a.3.3 0 0 1 .03-.1z" class="cls-10"/>
                    <path id="Path_11651" d="M114.55 112.71a2.17 2.17 0 0 1-.36.32 3.29 3.29 0 0 1-1.21.54 5.44 5.44 0 0 1-2 .08c-.73-.08-1.53-.27-2.38-.39a6 6 0 0 0-2.38.06 5.42 5.42 0 0 0-1.74.89 11.638 11.638 0 0 0-1 .85l-.26.26-.09.08.34-.35a10.387 10.387 0 0 1 1-.87 5.29 5.29 0 0 1 1.75-.9 6.06 6.06 0 0 1 2.4-.07c.85.13 1.65.31 2.38.4a5.56 5.56 0 0 0 2-.07 3.44 3.44 0 0 0 1.21-.53 2.831 2.831 0 0 0 .28-.23z" class="cls-10"/>
                    <path id="Path_11652" d="M118.23 112.55a6.61 6.61 0 0 1-.69.8 7.56 7.56 0 0 1-.87.72 6.89 6.89 0 0 1-2.52 1.12 6.169 6.169 0 0 1-1.12.16 4.61 4.61 0 0 1-1 0h1a8.509 8.509 0 0 0 1.11-.17 8.772 8.772 0 0 0 1.31-.44 8.389 8.389 0 0 0 1.2-.68 7.29 7.29 0 0 0 .87-.71l.3-.31.23-.24.13-.16z" class="cls-10"/>
                    <path id="Path_11653" d="M122.87 114.16h-.62a4.71 4.71 0 0 0-.75 0 3.7 3.7 0 0 0-.46 0 1.45 1.45 0 0 0-.5.11.44.44 0 0 0-.19.19.27.27 0 0 0 0 .26.74.74 0 0 0 .56.19h1.38a11.7 11.7 0 0 0 1.52-.13 3.752 3.752 0 0 0 .79-.14 1.57 1.57 0 0 0 .38-.14.44.44 0 0 0 .21-.32.39.39 0 0 0-.18-.33 1.27 1.27 0 0 0-.37-.18c-.26-.06-.53-.11-.79-.15a12.8 12.8 0 0 0-1.52-.13 7 7 0 0 0-2.54.32 2.37 2.37 0 0 0-1.29 1.1 2.15 2.15 0 0 0-.18.61.91.91 0 0 1 0-.16 1.25 1.25 0 0 1 .15-.46 2.31 2.31 0 0 1 1.29-1.13 6.81 6.81 0 0 1 2.55-.33 11.278 11.278 0 0 1 1.53.13 3.4 3.4 0 0 1 .8.15 1.27 1.27 0 0 1 .37.18.41.41 0 0 1 .2.37.43.43 0 0 1-.23.36 1.32 1.32 0 0 1-.39.15l-.8.14a15.065 15.065 0 0 1-1.52.13 12.493 12.493 0 0 1-1.37 0h-.33a.44.44 0 0 1-.26-.16.32.32 0 0 1 0-.3.53.53 0 0 1 .21-.21 1.29 1.29 0 0 1 .51-.1 3.782 3.782 0 0 1 .46 0 4.709 4.709 0 0 1 .75 0 4.23 4.23 0 0 1 .63-.02z" class="cls-10"/>
                    <path id="Path_11654" d="M130.86 112.91h-.21l-.56.14a8.56 8.56 0 0 0-3.31 1.8c-.18.17-.33.3-.42.4l-.11.11.11-.11a3.9 3.9 0 0 1 .41-.41 8.06 8.06 0 0 1 3.32-1.81c.23-.06.43-.11.57-.13h.15z" class="cls-10"/>
                    <path id="Path_11655" d="M130.87 115.44s-7.06.06-15.77.06-15.77 0-15.77-.06 7.06-.06 15.77-.06 15.77.02 15.77.06z" class="cls-10"/>
                    <path id="Path_11656" d="M110.1 97.48a.47.47 0 0 1-.39-.18.38.38 0 0 1 .18-.42 1.4 1.4 0 0 0 .38-.31.57.57 0 0 0 0-.55 1.19 1.19 0 0 0-1.81-.33l-.41-.06a5.78 5.78 0 0 0-.07 1.44 1.93 1.93 0 0 0 .62 1.26.85.85 0 0 0 .55.23.56.56 0 0 0 .51-.27.39.39 0 0 0-.16-.52 2.08 2.08 0 0 0 .66.11.27.27 0 0 0 .2-.09c.03-.11-.12-.27-.26-.31z" class="cls-10"/>
                    <path id="Path_11657" d="M107.73 97.78a11.87 11.87 0 0 0 .74-1.9 4.19 4.19 0 0 0 .07-2c0-.1-.25-.78-.36-.78s0 .62 0 .68a3.64 3.64 0 0 0-.63 2 10 10 0 0 0 .18 2" class="cls-10"/>
                    <path id="Path_11658" d="M104.3 102.84c1 .1 3.11-1.84 3.11-1.84l.69-5.8c.25-1.69-.52-3.25-2.21-3.44h-.16a3.05 3.05 0 0 0-3.21 2.61c-.21 1.47-.43 3.09-.46 3.88a2 2 0 0 0 1.54 2l-.09.86c-.11 1.07-.28 1.64.8 1.75z" class="cls-17"/>
                    <path id="Path_11659" d="M103.58 100.23a3.91 3.91 0 0 0 2.17-.5 2.08 2.08 0 0 1-2.22.92z" class="cls-19"/>
                    <path id="Path_11660" d="M107.89 96.41s1.14-.26 1 .85a.85.85 0 0 1-1.21.75z" class="cls-17"/>
                    <path id="Path_11661" d="M108.1 97.62h.05a.26.26 0 0 0 .15 0 .5.5 0 0 0 .26-.41.65.65 0 0 0 0-.28.21.21 0 0 0-.13-.17.12.12 0 0 0-.12 0v-.07a.063.063 0 0 1 .11-.06.28.28 0 0 1 .19.19.69.69 0 0 1 0 .32.51.51 0 0 1-.33.46.24.24 0 0 1-.18 0 .081.081 0 0 1 0 .02z" class="cls-19"/>
                    <path id="Path_11662" d="M103.42 92.59c-.17-.12.43-.65.9-.8a4 4 0 0 1 2.34-.08 2.73 2.73 0 0 1 1.61 1.44 4.36 4.36 0 0 1 .26 2.29 1.38 1.38 0 0 1-.23.66c-.18.23-.5.36-.52.69a.45.45 0 0 1-.15.33c-.23.2-.46 0-.55-.25a3.25 3.25 0 0 1-.14-1.49 3.13 3.13 0 0 1 .18-1c.07-.18.18-.35.24-.53a.67.67 0 0 0 0-.57l-.08-.1a1.17 1.17 0 0 0-1.13-.34c-.65.16-1.76.38-2 .14a1.64 1.64 0 0 1-.45-.56z" class="cls-10"/>
                    <path id="Path_11663" d="M106.62 91.55a2.5 2.5 0 0 0-1.9-.09 1.23 1.23 0 0 0-.74.67.72.72 0 0 0 .27.9 1.69 1.69 0 0 0 1.27.06c.41-.1.79-.3 1.21-.4a2.25 2.25 0 0 1 1.33.1 3.79 3.79 0 0 0-1.44-1.24z" class="cls-10"/>
                    <path id="Path_11664" d="M108 92.63a1.49 1.49 0 0 0-.53-.17 1.73 1.73 0 0 0-.6.07 4.19 4.19 0 0 0-.69.29 5.85 5.85 0 0 1-.68.3 1.91 1.91 0 0 1-.63.08 1 1 0 0 1-.41-.1.38.38 0 0 1-.13-.09 1.48 1.48 0 0 0 .55.13 1.7 1.7 0 0 0 .59-.1 4.229 4.229 0 0 0 .69-.3 4.06 4.06 0 0 1 .71-.29 1.62 1.62 0 0 1 .62 0 1.12 1.12 0 0 1 .4.14z" class="cls-11"/>
                    <path id="Path_11665" d="M107.53 92.22a1.61 1.61 0 0 0-.49-.13 2 2 0 0 0-.54.07 3 3 0 0 0-.63.28l-.6.33a2.519 2.519 0 0 1-.54.21 1.58 1.58 0 0 1-.38 0 .36.36 0 0 1-.14 0 2.28 2.28 0 0 0 1-.3l.6-.34a3 3 0 0 1 .64-.27 1.88 1.88 0 0 1 .58-.06 1.3 1.3 0 0 1 .37.11c.1.06.14.1.13.1z" class="cls-11"/>
                    <path id="Path_11666" d="M105 91.6l-.17.18a2.33 2.33 0 0 0-.37.46 1 1 0 0 0-.17.55 2.133 2.133 0 0 0 0 .24.462.462 0 0 1-.09-.23 1.05 1.05 0 0 1 .15-.6 1.76 1.76 0 0 1 .41-.45.52.52 0 0 1 .24-.15z" class="cls-11"/>
                    <path id="Path_11667" d="M104.13 92.05a2.24 2.24 0 0 0 0 .52 2.16 2.16 0 0 0 .16.49.31.31 0 0 1-.11-.11.86.86 0 0 1-.09-.76c-.01-.1.03-.14.04-.14z" class="cls-11"/>
                    <path id="Path_11668" d="M108.56 95.48a1 1 0 0 1 0 .48.76.76 0 0 1-.23.42 2.507 2.507 0 0 0 .15-.44 1.83 1.83 0 0 1 .08-.46z" class="cls-12"/>
                    <path id="Path_11669" d="M95.12 119.46H95l-.36.08-1.27.31v-.06l2.09 3.21h1.86v.08l-1.52-2.57-.44-.76-.15-.29a1.45 1.45 0 0 1 .17.26l.46.73c.39.63 1 1.53 1.58 2.57l.05.09h-2l-2-3.21v-.05h.06l1.3-.26.35-.07z" class="cls-11"/>
                    <path id="Path_11670" d="M93.58 120.3s-.33.06-.87.15a16.681 16.681 0 0 0-2.09.49 1.13 1.13 0 0 0-.51.26.66.66 0 0 0-.18.48 1.9 1.9 0 0 0 .28.89 2.641 2.641 0 0 1 .23.61.65.65 0 0 1 0 .24 1.349 1.349 0 0 0-.06-.23 3.06 3.06 0 0 0-.27-.58 2 2 0 0 1-.31-.92.77.77 0 0 1 .21-.56 1.33 1.33 0 0 1 .56-.3 13.65 13.65 0 0 1 2.11-.45 6.46 6.46 0 0 0 .65-.07 1 1 0 0 1 .25-.01z" class="cls-11"/>
                    <path id="Path_11671" d="M120.43 112.64l.69-3.98-3.65-.03.58 4.01z" class="cls-9"/>
                    <path id="Path_11672" d="M121 109.53s1.64-.16 1.52 1.19-2 1-2 1v-.52s1.46 0 1.3-.59-1.15-.48-1.15-.48z" class="cls-9"/>
                    <path id="Path_11673" d="M119.64 106.75a2.48 2.48 0 0 0-.36-.57l-.36-.42-.13-.16a.5.5 0 0 1 0-.54l.11-.16a1.38 1.38 0 0 0 .18-.34 1.36 1.36 0 0 0 .07-.35 1.05 1.05 0 0 0-.31-.89c-.18-.15-.33-.15-.42-.08a.92.92 0 0 0-.19.33 1 1 0 0 1-.23.35h-.16a3.79 3.79 0 0 0-.4.3 1.49 1.49 0 0 0-.45 1 1.78 1.78 0 0 0 .22 1 2.552 2.552 0 0 0 .26.38 2.37 2.37 0 0 0 .27.28c.17.15.31.26.43.35l.27.21a.51.51 0 0 1 .16.13 1.15 1.15 0 0 1 .21.33 1.1 1.1 0 0 0 .1.34c.04.11.21.16.44 0a1.07 1.07 0 0 0 .43-.89 1.45 1.45 0 0 0-.14-.6z" class="cls-8"/>
                    <g id="Group_3398" class="cls-20">
                        <path id="Path_11674" d="M119 111a.9.9 0 0 1 .13-.42 3.253 3.253 0 0 1 .23-.29.87.87 0 0 0 .14-.27.36.36 0 0 0 0-.11.39.39 0 0 1 .18.28 1 1 0 0 1 0 .34.78.78 0 0 1-.18.35.53.53 0 0 1-.43.14z"/>
                        <path id="Path_11675" d="M118.85 110.61a1.64 1.64 0 0 1 .09-.44.49.49 0 0 1 .32-.31.45.45 0 0 1 .23 0 .21.21 0 0 1 0 .12.82.82 0 0 1-.14.26l-.23.29a.7.7 0 0 0-.12.35v.12a.28.28 0 0 1-.1-.09.53.53 0 0 1-.05-.3z"/>
                    </g>
                </g>
                <g id="freepik--Birds--inject-4">
                    <path id="Path_11676" d="M80.36 44.91a2.113 2.113 0 0 1-.19.23 4.9 4.9 0 0 0-1.23 3.28h-.1a4.36 4.36 0 0 0-1.19-2.39 6.67 6.67 0 0 0-.88-.71h.07a1.731 1.731 0 0 1 .2.12 4 4 0 0 1 .65.52 4.33 4.33 0 0 1 1.25 2.42h-.1a4.93 4.93 0 0 1 .77-2.64 4.26 4.26 0 0 1 .53-.66l.16-.08z" class="cls-10"/>
                    <path id="Path_11677" d="M94 54.38l-.44-.12a3.81 3.81 0 0 0-1.26 0 3.41 3.41 0 0 0-1.69.72 3.54 3.54 0 0 0-1.19 1.9 3.81 3.81 0 0 0-1.43-1.72 3.61 3.61 0 0 0-1.74-.58 4.05 4.05 0 0 0-1.25.11c-.28.08-.43.15-.44.14l.11-.05a2.079 2.079 0 0 1 .32-.12 3.6 3.6 0 0 1 1.26-.14 3.67 3.67 0 0 1 1.79.57 3.81 3.81 0 0 1 1.46 1.76h-.2a3.62 3.62 0 0 1 1.23-1.94 3.47 3.47 0 0 1 1.73-.73 3.6 3.6 0 0 1 1.27.08 1.6 1.6 0 0 1 .33.11z" class="cls-10"/>
                    <path id="Path_11678" d="M103.48 51.7l-.25.27a5.84 5.84 0 0 0-.58.8 5.77 5.77 0 0 0-.88 3.08h-.09a5.11 5.11 0 0 0-1.42-2.83 5 5 0 0 0-.75-.63 1.63 1.63 0 0 1-.29-.21.15.15 0 0 1 .08 0l.23.14a4.59 4.59 0 0 1 .77.61 5.32 5.32 0 0 1 .89 1.17 5.12 5.12 0 0 1 .58 1.7h-.09a5.58 5.58 0 0 1 .92-3.12 5.2 5.2 0 0 1 .61-.79l.2-.18a.18.18 0 0 1 .07-.01z" class="cls-10"/>
                </g>
            </g>
        </g>
    </g>
</svg>
