<svg xmlns="http://www.w3.org/2000/svg" width="160" height="160" viewBox="0 0 160 160">
    <defs>
        <clipPath id="clip-path">
            <rect id="Rectangle_7" width="160" height="160" fill="#d0d0d0" rx="10" transform="translate(198 1124)"/>
        </clipPath>
        <clipPath id="clip-path-2">
            <path id="SVGID" d="M92 74.43v-.06a6.59 6.59 0 0 0-.31-2 24 24 0 0 0-.56-2.37 5.53 5.53 0 0 0-2.52-3.35l-.25-.16h-.06a5.26 5.26 0 0 0-4.71.15A4.45 4.45 0 0 0 81.84 68a6.77 6.77 0 0 0-1.23 2.17 6.48 6.48 0 0 0-.94 7 4.221 4.221 0 0 0 .08 1h.07v-.7q.12.22.27.45v.34c0 .16.24.34.65.51a6.48 6.48 0 0 0 9.16.44 5.3 5.3 0 0 0 .57-.59 6.549 6.549 0 0 0 1.14-.67c.17-.13.23-.83.18-1.81a4.37 4.37 0 0 0 .15-.7c.08.72.14 1.45.2 2.19h.08a30.322 30.322 0 0 0-.22-3.2zM89.86 68c-.06-.08-.12-.17-.19-.25a6.72 6.72 0 0 1 1.46 2.92c.08.27.14.57.2.85a4.591 4.591 0 0 0-.35-.61A10.09 10.09 0 0 0 89.86 68z" class="cls-2"/>
        </clipPath>
        <clipPath id="clip-path-3">
            <path id="SVGID-2" d="M94.78 53.09A6.49 6.49 0 1 1 85 47.51a3.54 3.54 0 0 1 2.82-2.33c3.41-.85 4.15 1.61 4.24 1.88a8.89 8.89 0 0 1 .3 1 6.46 6.46 0 0 1 2.42 5.03z" class="cls-2"/>
        </clipPath>
        <style>
            .cls-2{fill:none}.cls-5{fill:#c7c7c7}.cls-6{fill:#a6a6a6}.cls-17,.cls-7{fill:#fff}.cls-10,.cls-8{fill:#dbdbdb}.cls-22,.cls-9{fill:#263238}.cls-10{fill-rule:evenodd}.cls-11{fill:#ebebeb}.cls-13{fill:#ffc3bd}.cls-14{fill:#e15068}.cls-15{fill:#455a64}.cls-16{fill:#ad6359}.cls-17{opacity:.2}.cls-18{fill:#f4bead}.cls-19{fill:#f8d608}.cls-22{opacity:.1}.cls-23{fill:#2e7dbf}
        </style>
    </defs>
    <g id="illustration8" clip-path="url(#clip-path)" transform="translate(-198 -1124)">
        <g id="tatiloley-illustrations-07" transform="translate(198.009 1124.009)">
            <path id="Rectangle_7-2" fill="#ddd" d="M13.78 18.39a648.462 648.462 0 0 1 132.44 0 15.43 15.43 0 0 1 13.52 18.21 239.36 239.36 0 0 0 0 86.8 15.43 15.43 0 0 1-13.52 18.21 648.457 648.457 0 0 1-132.44 0A15.43 15.43 0 0 1 .26 123.4a239.36 239.36 0 0 0 0-86.8 15.43 15.43 0 0 1 13.52-18.21z"/>
            <g id="freepik--background-complete--inject-32">
                <circle id="Ellipse_1327" cx="9.85" cy="9.85" r="9.85" class="cls-5" transform="translate(34.42 40.51)"/>
                <circle id="Ellipse_1328" cx="9.4" cy="9.4" r="9.4" class="cls-6" transform="translate(35.32 41.18)"/>
                <circle id="Ellipse_1329" cx="8.81" cy="8.81" r="8.81" class="cls-7" transform="translate(35.91 41.77)"/>
                <path id="Rectangle_2197" d="M0 0H0.17V1.33H0z" class="cls-8" transform="translate(44.64 42.41)"/>
                <path id="Rectangle_2198" d="M0 0H0.17V1.33H0z" class="cls-8" transform="rotate(-30 101.528 -53.93)"/>
                <path id="Rectangle_2199" d="M0 0H0.17V1.33H0z" class="cls-8" transform="rotate(-60 59.134 -9.283)"/>
                <path id="Rectangle_2200" d="M0 0H1.33V0.17H0z" class="cls-8" transform="translate(36.55 50.49)"/>
                <path id="Rectangle_2201" d="M0 0H1.33V0.17H0z" class="cls-8" transform="rotate(-30.01 120.62 -42.852)"/>
                <path id="Rectangle_2202" d="M0 0H1.33V0.17H0z" class="cls-8" transform="rotate(-60.03 70.144 -6.306)"/>
                <path id="Rectangle_2203" d="M0 0H0.17V1.33H0z" class="cls-8" transform="translate(44.64 57.41)"/>
                <path id="Rectangle_2204" d="M0 0H0.17V1.33H0z" class="cls-8" transform="rotate(-30 129.537 -61.435)"/>
                <path id="Rectangle_2205" d="M0 0H0.17V1.33H0z" class="cls-8" transform="rotate(-60 72.124 -16.782)"/>
                <path id="Rectangle_2206" d="M0 0H1.33V0.17H0z" class="cls-8" transform="translate(51.56 50.49)"/>
                <path id="Rectangle_2207" d="M0 0H1.33V0.17H0z" class="cls-8" transform="rotate(-30 113.176 -70.88)"/>
                <path id="Rectangle_2208" d="M0 0H1.33V0.17H0z" class="cls-8" transform="rotate(-60.03 62.656 -19.293)"/>
                <path id="Rectangle_2209" d="M0 0H8.52V0.17H0z" class="cls-8" transform="rotate(-63.03 66.254 -6.724)"/>
                <path id="Rectangle_2210" d="M0 0H0.23V8.39H0z" class="cls-9" transform="rotate(-11.535 256.792 -194.965)"/>
                <g id="freepik--xsrjP0--inject-32">
                    <path id="Path_11865" d="M69.84 44.25c-.22-.13-.4-.33-.69-.3-.12 0-.09-.08-.09-.14v-3.26a.18.18 0 0 1 .09-.19c.83-.42 1.19-1.24 1.7-1.94a3.26 3.26 0 0 0 .6-2.46c0-.24.08-.35.3-.4a.55.55 0 0 1 .62.19 4.24 4.24 0 0 1 .47 1.42 5 5 0 0 1-.15 1.22 5.667 5.667 0 0 1-.16.9.36.36 0 0 0 .23 0h2.75c.39 0 .58.11.63.36a.74.74 0 0 1-.4.8c-.06 0-.19 0-.2.11s.12.1.19.14c.33.23.27.7-.12 1-.09.06-.27 0-.27.17s.16.11.24.18a.62.62 0 0 1-.28 1l-.16.06s-.09.07 0 .13a.55.55 0 0 1 0 1l-.12.09a.8.8 0 0 1-.48.1h-4.32a.48.48 0 0 1-.38-.18z" class="cls-10"/>
                    <path id="Path_11866" d="M65.76 42.34v-2.07c0-.14 0-.21.18-.21h2.52c.17 0 .2.06.2.2v4.15c0 .18 0 .23-.23.22H66c-.2 0-.23-.06-.22-.24z" class="cls-10"/>
                </g>
                <g id="freepik--xsrjp0--inject-32-2">
                    <path id="Path_11867" d="M129.28 73.59c.22.14.41.33.7.31.11 0 .08.08.08.14v3.25c0 .08 0 .15-.08.19-.83.42-1.19 1.24-1.7 1.94a3.19 3.19 0 0 0-.6 2.46.33.33 0 0 1-.3.41.55.55 0 0 1-.62-.2 4.42 4.42 0 0 1-.48-1.42 5.089 5.089 0 0 1 .15-1.22 4.907 4.907 0 0 1 .17-.9h-2.99c-.39 0-.58-.11-.63-.37a.72.72 0 0 1 .4-.79c.07 0 .19 0 .2-.11s-.12-.1-.18-.15c-.33-.23-.28-.69.11-1 .09-.07.28 0 .28-.18s-.16-.1-.24-.18a.61.61 0 0 1 .28-1l.16-.06s.09-.07 0-.13a.55.55 0 0 1 0-1l.12-.08a.8.8 0 0 1 .48-.11h4.31a.55.55 0 0 1 .38.2z" class="cls-10"/>
                    <path id="Path_11868" d="M133.37 75.51v2.07c0 .14 0 .2-.18.2h-2.53c-.16 0-.19 0-.19-.2v-4.16c0-.18.05-.23.23-.22h2.45c.2 0 .23.06.23.24-.01.69-.01 1.37-.01 2.07z" class="cls-10"/>
                </g>
                <path id="Path_11869" d="M91.72 90.42v38h23v-38zm20.88 24H93.8v-9.92h18.8zm0-12.24H93.8v-9.92h18.8z" class="cls-11"/>
                <path id="Rectangle_2211" d="M0 0H9.18V37.99H0z" class="cls-8" transform="translate(114.68 90.42)"/>
                <path id="Rectangle_2212" d="M0 0H4.47V9.89H0z" class="cls-8" transform="translate(93.8 92.26)"/>
                <path id="Path_11870" d="M112.74 126.17h-19v-9.71h19zm-18.68-.28h18.4v-9.15h-18.4z" class="cls-8"/>
                <path id="Rectangle_2213" d="M0 0H3.71V1.88H0z" class="cls-8" transform="translate(100.62 119.25)"/>
                <path id="Path_11871" d="M105.57 121.13h-4v-1.87h4zm-3.72-.28h3.44v-1.32h-3.44z" class="cls-8"/>
                <path id="Rectangle_2214" d="M0 0H4.47V9.89H0z" class="cls-8" transform="translate(93.8 104.5)"/>
            </g>
            <g id="freepik--Floor--inject-32">
                <path id="Path_11872" d="M33.24 128.37l12.3-.07 12.29-.02 24.6-.05 24.6.05 12.3.02 12.3.07-12.3.07-12.3.02-24.6.04-24.6-.04-12.29-.02z" class="cls-9"/>
            </g>
            <g id="freepik--Shadows--inject-32">
                <ellipse id="Ellipse_1330" cx="39.28" cy="4.46" class="cls-11" rx="39.28" ry="4.46" transform="translate(24.73 130.34)"/>
                <ellipse id="Ellipse_1331" cx="19.62" cy="2.56" class="cls-11" rx="19.62" ry="2.56" transform="translate(97.98 132.24)"/>
            </g>
            <g id="freepik--Puff--inject-32">
                <path id="Path_11873" fill="#f0f0f0" d="M34.32 134.6l45.38.2c11-8.66 12.18-21.5 4.3-29.28-4.76-4.7-10.81-3.76-16.57-4.51a16.87 16.87 0 0 1-5.85-1.71c-5.93-3.13-9.27-10.51-14.26-16.72a27.9 27.9 0 0 0-2-2.26A10.75 10.75 0 0 0 28.81 82c-10.81 15.6-5.87 38.9 5.51 52.6z"/>
                <path id="Path_11874" d="M33.31 98.8c1.19 18.62 22.69 25.57 36.13 20 11.68-4.85 7.86-15.92-2-17.78a16.87 16.87 0 0 1-5.85-1.71c-5.93-3.13-9.27-10.51-14.26-16.72-7.45-3.87-14.89 2.57-14.02 16.21z" class="cls-5"/>
            </g>
            <g id="freepik--Character--inject-32">
                <path id="Path_11875" d="M71 133.35c-.63-.23-14.82-11.58-15.09-12.35-.1-.3 1.43-2.46 3.36-5 .41-.56.84-1.11 1.29-1.7 2.87-3.74 6-7.64 6-7.64l9.51 7.56-6.26 7.43-1.38 1.64s3.57 6.71 3.72 7.63-.49 2.66-1.15 2.43z" class="cls-13"/>
                <path id="Path_11876" d="M71 133.35c-.63-.23-14.82-11.58-15.09-12.35-.12-.36 2.16-3.48 4.65-6.72l9.25 7.35-1.38 1.64s3.57 6.73 3.72 7.65-.49 2.66-1.15 2.43z" class="cls-7"/>
                <path id="Path_11877" d="M71 133.35c-.63-.23-14.82-11.58-15.09-12.35-.1-.3 1.43-2.46 3.36-5l9.17 7.29s3.56 6.71 3.72 7.63-.5 2.66-1.16 2.43z" class="cls-14"/>
                <path id="Path_11878" d="M71.29 132.62c-2.33-2-11.93-9.65-14.39-11.41 2.27 2 11.93 9.6 14.36 11.43.04.05.07.02.03-.02z" class="cls-9"/>
                <path id="Path_11879" d="M71.66 129.68a2.45 2.45 0 0 0-1.89-.55 2.36 2.36 0 0 0-1.55.84 2.82 2.82 0 0 1 3.38-.28z" class="cls-9"/>
                <path id="Path_11880" d="M69.2 124.24a4.28 4.28 0 0 0-3.53-1 .05.05 0 0 0 0 .09 17.119 17.119 0 0 1 3.44 1.06h.11a.076.076 0 1 0-.02-.15z" class="cls-9"/>
                <path id="Path_11881" d="M69.71 125.1a4.25 4.25 0 0 0-3.53-1c-.05 0 0 .08 0 .09a17.421 17.421 0 0 1 3.45 1.06.07.07 0 0 0 .11 0 .08.08 0 0 0-.03-.15z" class="cls-9"/>
                <path id="Path_11882" d="M70.21 126a4.23 4.23 0 0 0-3.52-1v.09a17.329 17.329 0 0 1 3.44 1.06.08.08 0 0 0 .1 0 .07.07 0 0 0 0-.11z" class="cls-9"/>
                <path id="Path_11883" d="M70.72 126.86a4.24 4.24 0 0 0-3.53-1v.08a17.121 17.121 0 0 1 3.44 1.06.094.094 0 1 0 .09-.14z" class="cls-9"/>
                <path id="Path_11884" d="M59.31 119.43a1.06 1.06 0 1 0 .118 1.44 1.06 1.06 0 0 0-.118-1.44z" class="cls-9"/>
                <path id="Path_11885" d="M72.26 122.52c-.16-.78-1.08-.88-1.71-.7a6.35 6.35 0 0 0-2.81 1.74.15.15 0 0 0 .06.2 11.14 11.14 0 0 0 3.21 0c.67-.04 1.41-.5 1.25-1.24zm-2.78 1.09c-.52 0-1-.07-1.56-.08.56-.33 1.08-.69 1.67-1a6 6 0 0 1 .86-.36c.46-.15 2-.2 1.29.91-.4.62-1.65.54-2.26.51z" class="cls-9"/>
                <path id="Path_11886" d="M65.09 122a11.06 11.06 0 0 0 2.69 1.76.15.15 0 0 0 .19-.07 6.32 6.32 0 0 0-1.37-3c-.42-.5-1.24-.93-1.81-.37s-.13 1.24.3 1.68zm-.09-1c0-1.33 1.29-.41 1.59 0a7.11 7.11 0 0 1 .51.79 17.371 17.371 0 0 1 .83 1.74c-.44-.28-.89-.53-1.34-.8s-1.6-.95-1.59-1.69z" class="cls-9"/>
                <path id="Path_11887" d="M85.72 99.66c0 1.43-1.44 4-3.39 6.92a172.4 172.4 0 0 1-10.86 13.94l-.32.37-10.08-7.75.12-.15 8.87-11.62-26.48-.16 10.06-7.81a4.13 4.13 0 0 0 2.51.22c5.84-.86 19-2.75 22.12-2.63 4.01.18 7.51 4.1 7.45 8.67z" class="cls-15"/>
                <path id="Path_11888" d="M82.33 106.59a173.626 173.626 0 0 1-10.86 13.93L61.19 113l8.87-11.63z" class="cls-9"/>
                <path id="Path_11889" d="M73.25 97.05a12.9 12.9 0 0 0-.92 1.18l-.94 1.23.17-.36c.2-.41.35-.83.59-1.23-.24.39-.52.76-.72 1.17-.1.19-.19.39-.28.58a2.791 2.791 0 0 0-.14.33l-.06.16-.41.58c-.3.43-.55.89-.86 1.32.31-.4.65-.78 1-1.18a15.414 15.414 0 0 0 .92-1.25l.86-1.24a11.091 11.091 0 0 0 .87-1.28z" class="cls-9"/>
                <path id="Path_11890" d="M47.21 82.32c1.88 2.31 8.69 8.92 12.95 9.89 2.34.53 13.67 2.12 15.22.7 1.82-1.66 1-7.89-.47-7.94-4.41-.18-12.58.69-14.62.24-.92-.21-5.81-3.36-11-5.88-1.99-.96-3.29 1.42-2.08 2.99z" class="cls-16"/>
                <path id="Path_11891" d="M73.17 84.42a4.294 4.294 0 0 1-.07.65.75.75 0 0 1 0 .21 3.069 3.069 0 0 1-.08.82v.11a2.926 2.926 0 0 1-.08.81v.22a3.864 3.864 0 0 1-.09.81v.11l-.09.83v.21l-.09.82a.18.18 0 0 1 0 .1 7.093 7.093 0 0 1-.09.82v.21l-.06.51v.42l-.06.44v.37a1.331 1.331 0 0 1 0 .21c-.06.38-.1.67-.14.83a.36.36 0 0 1 0 .11h-1.67l-.82-.09h-.21l-.81-.08h-.11l-.82-.09h-.21l-.81-.09h-.11l-.82-.09h-.21l-.81-.1h-.11l-.82-.09h-.39l-.64-.08h-.11L61.75 93h-.16l-.82-.12h-.11l-.81-.13h-.21c-.32-.06-.6-.11-.82-.17h-.17a3.36 3.36 0 0 1-.65-.28h-.1l-.1-.06-.16-.24a9.311 9.311 0 0 1-.82-.53l-.11-.07-.21-.15-.29-.25-.31-.24-.22-.16-.52-.42-.16-.1-.13-.08-.11-.09-.15-.12-.61-.52v-.08l-.16-.13h-.06c-.27-.24-.55-.47-.81-.71l-.07-.06-.08-.07-.82-.75-.17-.15-.19-.18-.64-.61-.16-.17-.15-.14-.12-.11-.57-.52-.21-.2-.1-.09-.23-.22-.46-.47-.11-.1-.24-.24-.11-.11-.54-.46-.21-.21-.15-.15-.18-.18a4.6 4.6 0 0 1-.45-.54l-.11-.16-.08-.12-.07-.11a3.92 3.92 0 0 1-.36-.81 1.42 1.42 0 0 1-.07-.22 2.76 2.76 0 0 1-.09-.81v-.11a1.58 1.58 0 0 1 .31-.81 1.371 1.371 0 0 1 .2-.22l.15-.1a.41.41 0 0 1 .11-.07 1.89 1.89 0 0 1 .81-.19H48a4.08 4.08 0 0 1 .69.09h.13L49 79c.21.06.43.13.64.21l.17.07.22.09.1.05.44.22.28.14.1.06.75.4h.07l.13.07h.08l.82.45.11.06.47.28.34.19.17.1.82.46.11.06.33.19.19.11.28.17.21.12.82.47.1.06.35.2.46.26.21.12.79.44.11.06h.07l.74.38.21.1a6.32 6.32 0 0 0 .82.32h1.09a8.063 8.063 0 0 0 .82 0h5.96l.82-.05h1.13l.82-.06h.21l.81-.06h.11z" class="cls-14"/>
                <path id="Path_11892" d="M47 79.05v3.54l-.11-.16v-3.32zm1.87-.05v5.5l.11.11V79zm-1-.13v4.63l.21.21v-4.85zm1.95.44v6.08l.22.21v-6.2zm1 .49v6.57l.11.1v-6.62zm2 1.06v7.28h.06v-7.23zm-.89-.49l-.13-.07v6.95l.17.16v-7h-.08zm1.85 1v7.56h.06l.15.13v-7.57zm1 .55v7.84l.11.1V82zm2.05 1.18l-.1-.06v8.22l.12.08v-8.21zm-1.12-.64v8.06l.21.16V82.6zm2 1.11V92h.11l.1.05v-8.3zm1 .57v8.2h.11v-8.12zm2 .91v7.65h.11v-7.62zm-1.07-.43v7.91h.21v-7.79zm1.94.48v7.75h.21v-7.73zm1 0V93h.12v-7.91zm1.87-.1v8.24h.11V85zm-1 0v8.06h.22V85zm1.94-.11v8.4h.22v-8.35zm1-.06v8.58h.11v-8.53zm2-.12v8.9h.11v-8.86zm-1 .06v8.73h.22v-8.69zm2-.13v9.07h.22V84.7zm1-.06v9.23h.11v-9.19zm1.95-.14v8a1.86 1.86 0 0 1 .06-.45v-7.51zm-1 .07V94h.21v-9.45zm-.46 9.35H72a.489.489 0 0 0 0-.11zm-9.13-1l.81.11h.12l.63.08h9a.86.86 0 0 1 0-.21zm-4-.92l.1.05h14.49V92zM55 90l.14.1h17.38a.18.18 0 0 1 0-.1zm1.19.92l.29.21h16v-.21zM53.72 89l.16.13.09.08h18.7a1.519 1.519 0 0 1 0-.21zm-1.06-.92l.08.07h20v-.11zm-2.14-1.95l.12.11H73v-.11zm1 .92l.19.17h21.14a1.49 1.49 0 0 1 0-.21zm11.42-2H49.47l.22.21h23.39v-.21zm-4.24-.86l-.11-.06H48.51l.12.12h10.18zm-3.54-2h-8.38a.6.6 0 0 0 .06.11h8.52zm1.63.93h-9.3l.18.18h9.45zm-3.09-1.74l-.35-.2h-7a1.87 1.87 0 0 0 .07.22h7.32zm-2-1.08h-5.48v.11h5.62zm-1.7-.91l-.22-.09-.17-.07h-2.84l-.2.21h3.54z" class="cls-17"/>
                <path id="Path_11893" d="M54.58 89.68c-2.64-2.18-5.66-5.1-7.07-6.52-1.93-2-1.73-4.87 1.23-4.21.81 1.34 4.32 7.89 5.84 10.73z" class="cls-9"/>
                <path id="Path_11894" d="M71.35 85.27c-.12.65-.18 1.3-.25 2s-.14 1.35-.2 2c-.12 1.34-.26 2.69-.3 4 .2-1.32.31-2.67.44-4 .06-.66.12-1.32.16-2s.15-1.27.15-2z" class="cls-9"/>
                <path id="Path_11895" d="M55.27 99.54a1.26 1.26 0 0 1-.44.14h-.11l-.27.05-.53.1h-.21l-.82.13h-.11l-.81.12h-.21l-.82.11h-.11l-.81.12h-.21l-.82.11h-.44l-.48.07h-.22l-.81.1h-.11l-.69.08h-.34l-.81.1h-.11l-.81.09h-.22l-.81.1H43l-.82.1h-.21l-.81.09h-.25l-.68.08h-.21l-.81.08h-.11l-.78.07h-.63a.23.23 0 0 1 0-.11 7.57 7.57 0 0 1 0-.82.82.82 0 0 1 0-.21c0-.24.05-.51.08-.82v-.1c0-.26.06-.53.09-.82v-.21a6.666 6.666 0 0 1 .1-.83v-.93q-.005-.1 0-.21l.12-.81v-.16a5.287 5.287 0 0 1 .11-.77 1.771 1.771 0 0 1 0-.21 5.687 5.687 0 0 1 .13-.81v-.11a5.96 5.96 0 0 1 .13-.83 1.55 1.55 0 0 1 0-.21 5.4 5.4 0 0 1 .13-.82.23.23 0 0 1 0-.11 4.428 4.428 0 0 1 .14-.81.78.78 0 0 1 0-.21 1.7 1.7 0 0 1 0-.22l.1-.6v-.09c.05-.27.1-.55.16-.81a.78.78 0 0 1 0-.21l.15-.83v-.11a3.734 3.734 0 0 1 .17-.82v-.21c.06-.28.12-.55.19-.82a.12.12 0 0 1 0-.08c.06-.28.13-.56.19-.82v-.06a.42.42 0 0 1 0-.15c.07-.28.13-.56.21-.82a.61.61 0 0 1 0-.11c.07-.27.15-.55.23-.81l.06-.21c.08-.26.16-.51.24-.74a.41.41 0 0 1 0-.08V81.63a2.646 2.646 0 0 1 .15-.39c.05-.11.08-.2.12-.3s.06-.15.09-.21a5.9 5.9 0 0 1 .45-.82l.07-.1.14-.16.08-.08.15-.13c.19-.17.36-.32.52-.44a.18.18 0 0 1 .07 0l.11-.09.1-.08c.26-.19.49-.34.71-.48l.26-.07a1.84 1.84 0 0 1 .38-.17l1.18.19h.11a7.352 7.352 0 0 1 .82-.1H47a6.441 6.441 0 0 1 .82 0h.21a2.319 2.319 0 0 1 .38.07l.15.09.23.23.11.12c.11.13.23.28.36.46l.15.22.31.49.19.32v.07c.15.26.28.54.42.81 0 .07.07.15.11.22s.17.39.25.59 0 .15.08.22v.07a7.191 7.191 0 0 1 .24.79.31.31 0 0 0 .06.21l.2.81a.45.45 0 0 0 0 .11c.07.25.14.52.22.82a1.619 1.619 0 0 0 0 .19q.11.38.21.78a.38.38 0 0 0 0 .1l.22.82a1.6 1.6 0 0 0 0 .21l.21.82a.61.61 0 0 0 0 .11c.07.27.15.55.22.83l.05.19a1.865 1.865 0 0 0 .1.39l.11.42a.45.45 0 0 0 0 .11l.21.82.06.21.21.81a.35.35 0 0 0 0 .11 2.6 2.6 0 0 0 .17.65v.17a.328.328 0 0 0 .05.21l.12.45a1.462 1.462 0 0 0 .09.36.35.35 0 0 0 0 .11l.21.82a1.6 1.6 0 0 0 .05.21c.07.28.14.55.2.82a.38.38 0 0 0 0 .1l.2.82v.21l.06.27a2.68 2.68 0 0 0 .13.56v.1c.07.32.13.59.17.83v.21a1.37 1.37 0 0 1 .73.8z" class="cls-14"/>
                <path id="Path_11896" d="M39.23 90.1v11.6h-.12v-11l.11-.59zm-.93 5.76v.11a7.351 7.351 0 0 1-.11.82 1.521 1.521 0 0 1 0 .21l-.06.37v4.43h.21v-6a.07.07 0 0 0-.04.06zm1.93-10.57c-.06.28-.13.54-.19.82v15.49h.21V85.23zm.89-3.08a.61.61 0 0 1 0 .11v19.19h.11V82.08a.43.43 0 0 1-.11.13zM43 79.39v21.9h.11v-22zm-.95.87l-.08.1v21h.22V80.09a1 1 0 0 0-.13.16zm1.87-1.51v22.43h.22V78.61zM45 78.3v22.76h.11V78.28zm1.92-.14v22.66H47V78.16zm-1 0v22.75h.22V78.17zm1.94 0v22.5a.25.25 0 0 0 .12 0H48V78.23zm1 .43v21.94h.11V78.76zm2.06 3.57l-.1-.16v18.34h.11V82.21zM50 80.27c-.07-.11-.13-.22-.2-.32v20.52h.22V80.29zm1.76 5v14.93h.21V86.08c-.07-.28-.14-.54-.21-.79zm1 3.9v10.84h.11v-10.4a1.72 1.72 0 0 0-.11-.42zm2 7.81l-.05-.21v2.92h.11v-2.41a2.3 2.3 0 0 0-.06-.28zm-1-3.91v6.78h.21v-6.3zm-16.14 8.61a.18.18 0 0 0 0 .1h.62l.78-.07zm.06-1a.75.75 0 0 1 0 .21h8.54l.69-.08h.11l.81-.1H37.71zm.09-.93v.11h16.15l.53-.1zm17.16-2H38v.11h17zm.2.93H37.92v.21h17.29v-.21zm-.44-1.94H38.17a1.52 1.52 0 0 1 0 .21h16.6zm-.23-.93H38.3v.11h16.22v-.12zM54 93.93H38.58V94H54v-.13zm.23.93H38.44a1.521 1.521 0 0 1 0 .21h15.85v-.24zm-.5-2h-15a1.55 1.55 0 0 1 0 .21h15.06v-.24zm-.24-.86H38.91a.22.22 0 0 1 0 .11h14.63v-.13zM53 90H39.24v.11H53a.35.35 0 0 0 0-.11zm.24.92H39.08a1.7 1.7 0 0 1 0 .22H53.3l-.07-.24zm-.46-1.76l-.06-.16H39.43v.21h13.34zm-.3-1.1H39.62v.11h12.89a.34.34 0 0 0 0-.14zm-.51-2H40a.12.12 0 0 1 0 .08h12a.39.39 0 0 0 0-.13zm.25.92H39.83a.78.78 0 0 1 0 .21h12.44a.323.323 0 0 0-.06-.24zm-.47-1.76a.262.262 0 0 0-.05-.19H40.29a.8.8 0 0 1 0 .15v.06h11.46v-.06zm-.28-1.11H40.53a.61.61 0 0 1 0 .11h11a.61.61 0 0 1 0-.16zm-.52-1.89v-.09h-9.83a.61.61 0 0 1 0 .11H51zm.26.86H40.83l-.07.21h10.49a1.649 1.649 0 0 0-.06-.24zm-.72-1.94h-8.95l-.09.22h9.13a2.9 2.9 0 0 0-.11-.27zm-.49-.8h-7.93l-.08.1h8.06zm-1.53-2H45l-.39.1h4.05a.47.47 0 0 0-.15-.13zm.85.9h-6.07l-.1.08-.11.09a.18.18 0 0 0-.07 0h6.51a1.08 1.08 0 0 0-.15-.27z" class="cls-17"/>
                <path id="Path_11897" d="M48.54 100.61c-2.61.34-5.48.68-7.61.91l.39-19.83a4.78 4.78 0 0 1 1-1.68l.15-.13z" class="cls-9"/>
                <path id="Path_11898" d="M52.14 97.85c-.13-.61-.27-1.23-.4-1.84-.27-1.23-.55-2.46-.83-3.69-.57-2.47-1.18-4.94-1.82-7.39-.35-1.39-.73-2.75-1.08-4.13.64 2.44 1.2 4.91 1.77 7.37s1.13 4.91 1.68 7.37l.46 2.06c.15.7.28 1.42.47 2.1 0 .08.16.06.15 0-.11-.61-.27-1.24-.4-1.85z" class="cls-9"/>
                <path id="Path_11899" d="M48 81.43c-1 .14-2.6-1.56-3.16-2.86a17.82 17.82 0 0 1 .39-2.06c.12-.67.24-1.4.31-2.09 0-.14.47.17.47.17l.86.29 2.85 1a10.87 10.87 0 0 0-.66 2.58 1.31 1.31 0 0 0 0 .28c.04.58-.06 2.55-1.06 2.69z" class="cls-13"/>
                <path id="Path_11900" d="M49.06 78.73a2.161 2.161 0 0 1-.44 0c-2.87-.34-2.89-4-2.89-4l1.14.16 2.85 1a10.87 10.87 0 0 0-.66 2.58 1.221 1.221 0 0 0 0 .26z" class="cls-18"/>
                <path id="Path_11901" d="M46.06 69c-.77 1.39-.88 5.87 0 7.06 1.25 1.71 3.74 2.37 5.31.77s1.56-7.39.55-8.51a3.79 3.79 0 0 0-5.86.68z" class="cls-13"/>
                <path id="Path_11902" d="M52.12 69.83c-1.54.87-3.41-.8-3.41-.8a1.6 1.6 0 0 1-1.71.87s-.49 2.44-1.14 2.38c-1-.09-1-3.48-.65-4.11a1.77 1.77 0 0 1 1.22-.74 1.65 1.65 0 0 1 .76-.92c.72-.46 3 .43 3 .43a2.22 2.22 0 0 1 .67-.76.61.61 0 0 1 .86.14 1.39 1.39 0 0 0-.27.59c-.18.71.41.76.46.1a1.06 1.06 0 0 0-.18-.69c.33-.41.82-.51 1.09-.25.5.48.58 3.03-.7 3.76z" class="cls-9"/>
                <path id="Path_11903" d="M46.25 72.7s-.72-1.59-1.42-1.36-.34 2.4.35 2.82a.77.77 0 0 0 1.07-.16z" class="cls-13"/>
                <path id="Path_11904" d="M49.06 78.78l-.93 2.32-3.21-3.1-.86 1s3.2 5 3.22 4.74l1-2.19 1.54 1.46-.23-3.78z" class="cls-14"/>
                <path id="Path_11905" d="M49.78 81.18c-.06-.62-.1-1.25-.19-1.87a35.081 35.081 0 0 0 .14 3.56c-.06-.07-1.42-1.29-1.44-1.27-.21.35-.92 1.94-1 2.09-.51-.79-2.65-3.89-3.24-4.63.45.83 3.22 4.93 3.26 4.92a21.692 21.692 0 0 0 1-2.32 14.488 14.488 0 0 0 1.62 1.56 20.151 20.151 0 0 0-.15-2.04z" class="cls-9"/>
                <path id="Path_11906" d="M61.72 95.56h11.24l2.12-15.91H63.84z" class="cls-6"/>
                <path id="Path_11907" d="M62.27 95.56h11.24l2.12-15.91H64.39z" class="cls-8"/>
                <path id="Path_11908" d="M70 86.82a1.21 1.21 0 0 1-1.19 1.09 1 1 0 0 1-1-1 .491.491 0 0 1 0-.12A1.21 1.21 0 0 1 69 85.68a1 1 0 0 1 1 1 .66.66 0 0 1 0 .14z" class="cls-7"/>
                <path id="Path_11909" d="M41.5 83.21c-.53 7.4.77 12.5 2.08 13 3.51 1.48 14.2 2.3 16.65 2 1-.1.32-8-.71-8-2.55.07-11.9.15-12 .09-.79-.37-.83-2.84-2.67-8.12-1.5-4.18-3.14-2-3.35 1.03z" class="cls-16"/>
                <path id="Path_11910" d="M67.69 88.69a1.13 1.13 0 0 1 0 1.31 1.75 1.75 0 0 1 .88.75c.31.63-.53 1.39-.53 1.39a2.12 2.12 0 0 1 .79.94c.24.63-.5 1.53-.5 1.53a1.86 1.86 0 0 1 .17 1.27c-.19.73-2 1.67-3.12 2a34.658 34.658 0 0 1-5.17.38l-2.3-7s4.45-3 5.79-3.19c1.15-.15 3.46-.07 3.99.62z" class="cls-13"/>
                <path id="Path_11911" d="M67.62 89.9a14.75 14.75 0 0 0-3.68.43c1.21-.23 2.46-.23 3.68-.41z" class="cls-9"/>
                <path id="Path_11912" d="M68 92.06a3.351 3.351 0 0 0-.83.14l-.89.22c-.58.16-1.16.33-1.74.52.58-.16 1.17-.31 1.76-.44l.89-.18a4.07 4.07 0 0 0 .83-.22z" class="cls-9"/>
                <path id="Path_11913" d="M68.32 94.62a2.21 2.21 0 0 0-.76.17l-.79.22c-.54.15-1.07.3-1.61.43l1.64-.38.81-.21a2.21 2.21 0 0 0 .71-.24s.01.01 0 .01z" class="cls-9"/>
                <path id="Path_11914" d="M58.52 89.88v8.92h-2.87l-.82-.06h-.11l-.81-.06h-.21l-.82-.07h-.11L52 98.4h-.21l-.82-.08h-.11L50 98.2h-.22l-.81-.1-.1-.1h-.39l-.42-.06h-.29l-.77-.25h-.11l-.81-.15h-.21l-.82-.2h-.11c-.28-.07-.54-.16-.77-.24l-.22-.08-.25-.12a2.4 2.4 0 0 1-.55-.34l-.15-.23a2.26 2.26 0 0 1-.28-.35l-.06-.11a5.069 5.069 0 0 1-.38-.82l-.07-.21v-.08c-.07-.22-.14-.46-.21-.71v-.1c-.07-.26-.13-.54-.19-.83a.78.78 0 0 0 0-.21c-.05-.27-.1-.54-.14-.82v-.11l-.12-.82a1.772 1.772 0 0 0 0-.21l-.09-.81V90c0-.28-.05-.55-.07-.82v-6.99a1.389 1.389 0 0 1 .09-.51.476.476 0 0 1 .07-.3 1.709 1.709 0 0 1 .07-.21 3 3 0 0 1 .37-.82l.09-.11.07-.08a1.219 1.219 0 0 1 1.02-.44h.11a1.76 1.76 0 0 1 .81.5.52.52 0 0 1 .1.11l.12.13a4.449 4.449 0 0 1 .45.68l.12.21c.08.17.16.34.24.53s.07.18.11.28v.11q.12.33.24.69a.53.53 0 0 0 0 .12 1.7 1.7 0 0 0 .07.21l.24.82v.11l.15.49.09.32a.467.467 0 0 0 .07.21c.02.06 0 .12.05.17l.2.65a.25.25 0 0 0 0 .11c.08.28.17.55.25.81l.06.22c.1.27.18.55.26.8v.11l.07.21c.07.22.15.42.21.61l.08.21a4.92 4.92 0 0 0 .37.81.48.48 0 0 0 .09.11.07.07 0 0 0 .06 0h10.06z" class="cls-14"/>
                <path id="Path_11915" d="M41.18 82.76v.37a1.48 1.48 0 0 1 0-.37zm1.84-3v16.6l.08.09v-16.7zm-1 .44V94c.07.25.14.49.21.71V80a1 1 0 0 0-.21.2zm2 .19l-.1-.11v16.61l.21.08V80.49l-.13-.13zM45 81.9v15.33h.11V82.19c0-.1-.08-.19-.11-.28zm2 6.25a.42.42 0 0 0 0-.1v9.63h.12v-9.31zm-.91-2.87l-.09-.21a1.277 1.277 0 0 0-.1-.32v12.7h.22V85.29zm1.79 4.86v7.68h.22v-7.68zm1 0V98H49v-7.88zm1.94 0v8.06h.11v-8.12zm-1 0v8h.21v-8zm1.94 0v8.16h.21v-8.25zm1 0v8.26h.12V90zm1.94 0v8.58h.11V90zm-.92 0h-.1v8.48h.21V90zm1.85 0v8.67h.21V90zm1 0v8.77h.11v-8.98zm.93 0v8.84h.21v-9.1zm-9.79 7.91h.29l.41.06h10.05V98zm9.59.93zm-13.67-2.19l.25.11.21.08h14.37v-.21zm-1-.93l.06.11h15.77v-.11zM42 93.92V94h16.52v-.11zm.27.93l.08.21h16.18v-.21zm-.5-1.95a1.551 1.551 0 0 0 0 .21h16.76v-.21zm-.2-.9a.2.2 0 0 0 0 .11h16.96V92zm-.25-2v.11h6.45a.48.48 0 0 1-.09-.11zm12.38 0zm-12.28 1a1.52 1.52 0 0 0 0 .21h17.11V91zm5.83-2h-6v.21h6.09zm-.31-1h-5.78v.11H47a.45.45 0 0 1-.06-.05zm-.62-2h-5.23v.1h5.25a.42.42 0 0 0 0-.1zm.27.92h-5.48v.21h5.53a.54.54 0 0 0 0-.21zm-.6-2h-4.91v.21h5a1.72 1.72 0 0 1-.07-.21zm-.28-.93H41.1v.11h4.65zm-.62-1.93h-3.85v.11h3.9zm.31.92h-4.25v.21h4.33a1.19 1.19 0 0 1-.08-.22zm-.79-1.94h-3.15a1.41 1.41 0 0 0-.06.22h3.32zm-.67-.93h-2l-.08.11h2.21a.37.37 0 0 0-.13.05z" class="cls-17"/>
                <path id="Path_11916" d="M58.58 89.89a.11.11 0 0 0 0-.13c-1.4 0-2.81.06-4.21.1s-2.81.06-4.21.11c-.79 0-2.31.1-2.32.07s-.44-1.34-.53-1.61c-.18-.53-.36-1.07-.55-1.6-.06-.15-.11-.31-.17-.46s0-.21 0-.31a4.17 4.17 0 0 1 0-.44 8.411 8.411 0 0 0-.15-.85 4.38 4.38 0 0 1 .09.88v.22c-.28-.74-.34-.87-.58-1.61.28 1.07.42 1.53.76 2.6.17.53.34 1.07.52 1.61.09.26.49 1.48.63 1.72 0 0 1.43 0 2.13-.06h2.11l3.98-.13c.78 0 1.56 0 2.34-.06 0 .09.07.55.06.58s.05 0 0 0a2.756 2.756 0 0 1 .1-.63z" class="cls-9"/>
                <path id="Path_11917" d="M57 90.6h-.05c-.09.61-.1 1.24-.14 1.87s-.06 1.29-.08 1.93c0 1.29-.11 2.58-.07 3.88h.08c.13-1.27.16-2.56.21-3.84 0-.63 0-1.26.05-1.89s0-1.32 0-1.95z" class="cls-9"/>
                <path id="Path_11918" d="M58.59 95.16v-.41a.06.06 0 0 0 0-.06v-.08m0 0v.08c0 .67-.1 1.33-.13 2s0 1.34 0 2c-.76-.06-1.53-.06-2.29-.1s-1.59-.09-2.38-.16c-1.58-.12-3.17-.27-4.74-.5l-1.32-.18c-.44-.07-.91-.1-1.35-.2.41.05.8.16 1.2.23l1.18.2c.78.13 1.56.24 2.35.33 1.57.2 3.15.34 4.73.42h1.36a12 12 0 0 0 1.34 0 .08.08 0 0 0 .08-.07v-3.62z" class="cls-9"/>
                <path id="Path_11919" d="M75 84.23c.71.91 2.34 1.9 2.62 2.7a1 1 0 0 1-.31 1.13s.92.23 1.06 1c.07.4-.51.87-.51.87a1.13 1.13 0 0 1 .8.91 1.11 1.11 0 0 1-.52.93 1.38 1.38 0 0 1 .48 1.11c-.23 1.18-4.91 2.21-6 .65-.51-.73.64-.92.64-.92s-1.72-.13-2-1.08 1.28-1.11 1.28-1.11-1.68-.14-1.82-1.16 1.38-1 1.38-1S71 87.83 71 87c.11-1.33 2.71-.2 3.69-.67z" class="cls-13"/>
                <path id="Path_11920" d="M78.08 91.87a8.38 8.38 0 0 1-4.88.77s-.06-.1 0-.1a16.79 16.79 0 0 0 4.88-.7z" class="cls-9"/>
                <path id="Path_11921" d="M77.9 89.93a7.78 7.78 0 0 1-5.37.52c-.06 0-.1-.1 0-.08a14.1 14.1 0 0 0 5.37-.44z" class="cls-9"/>
                <path id="Path_11922" d="M72 88.23a10.77 10.77 0 0 0 5.23-.13 7 7 0 0 1-2.84.64 4.79 4.79 0 0 1-2.39-.45z" class="cls-9"/>
                <path id="Path_11923" d="M107.84 120.49c-.24.63-11.63 14.79-12.4 15-.3.1-2.46-1.43-5-3.37l-1.7-1.29c-3.72-2.88-7.61-6-7.61-6l7.59-9.49 7.41 6.28 1.61 1.38s6.79-3.47 7.67-3.67 2.66.53 2.43 1.16z" class="cls-13"/>
                <path id="Path_11924" d="M107.84 120.49c-.24.63-11.63 14.79-12.4 15-.36.12-3.47-2.17-6.71-4.66l7.39-9.24 1.62 1.41s6.79-3.47 7.67-3.67 2.66.53 2.43 1.16z" class="cls-7"/>
                <path id="Path_11925" d="M107.84 120.49c-.24.63-11.63 14.79-12.4 15-.3.1-2.46-1.43-5-3.37l7.3-9.12s6.79-3.47 7.67-3.67 2.66.53 2.43 1.16z" class="cls-14"/>
                <path id="Path_11926" d="M107.11 120.24c-2 2.32-9.69 11.9-11.46 14.34 2-2.26 9.64-11.9 11.48-14.32.05-.04.02-.07-.02-.02z" class="cls-9"/>
                <path id="Path_11927" d="M104.17 119.85a2.41 2.41 0 0 0-.55 1.88 2.37 2.37 0 0 0 .83 1.55 2.83 2.83 0 0 1-.28-3.38z" class="cls-9"/>
                <path id="Path_11928" d="M98.72 122.29a4.21 4.21 0 0 0-1 3.53h.08a17.15 17.15 0 0 1 1.07-3.44.07.07 0 0 0 0-.11.09.09 0 0 0-.15.02z" class="cls-9"/>
                <path id="Path_11929" d="M99.6 121.78a4.25 4.25 0 0 0-1 3.53h.09a16.72 16.72 0 0 1 1.07-3.44.093.093 0 1 0-.16-.09z" class="cls-9"/>
                <path id="Path_11930" d="M100.47 121.28a4.29 4.29 0 0 0-1 3.53h.09a17.329 17.329 0 0 1 1.06-3.44.07.07 0 0 0 0-.11.09.09 0 0 0-.15.02z" class="cls-9"/>
                <path id="Path_11931" d="M101.35 120.78a4.25 4.25 0 0 0-1 3.53h.09a16.53 16.53 0 0 1 1.07-3.44.07.07 0 0 0 0-.11.08.08 0 0 0-.11 0z" class="cls-9"/>
                <path id="Path_11932" d="M93.88 132.16a1.064 1.064 0 1 0 1.5-.165 1.064 1.064 0 0 0-1.5.165z" class="cls-9"/>
                <path id="Path_11933" d="M97 119.23c-.79.16-.88 1.07-.71 1.7a6.4 6.4 0 0 0 1.73 2.82.16.16 0 0 0 .21-.06 10.8 10.8 0 0 0 0-3.21c-.03-.67-.47-1.41-1.23-1.25zm1.11 2.77c0 .52-.08 1-.08 1.56a18.518 18.518 0 0 1-1-1.66 7.12 7.12 0 0 1-.36-.86c-.15-.46-.19-2 .92-1.3.59.4.53 1.65.48 2.26z" class="cls-9"/>
                <path id="Path_11934" d="M96.49 126.4a10.57 10.57 0 0 0 1.78-2.69.15.15 0 0 0-.07-.19 6.39 6.39 0 0 0-3 1.36c-.5.42-.93 1.23-.37 1.81s1.17.13 1.66-.29zm-1 .13c-1.33 0-.41-1.29 0-1.58a6.521 6.521 0 0 1 .78-.51 18.662 18.662 0 0 1 1.75-.83c-.28.43-.54.88-.81 1.32s-.98 1.61-1.72 1.6z" class="cls-9"/>
                <path id="Path_11935" d="M95.72 120.21l-7.9 10.66-26.66-18.5-2.57-1.78s-.73.49-1.83 1.1a18.92 18.92 0 0 1-5.72 2.2c-3.32.49-8.84.44-11.63-3.29-2.35-3.14-.74-8.83-.74-8.83l3.87-.43s8-6.71 13.61-6.92c2.37-.09 5.82 1.7 9 3.57s30.57 22.22 30.57 22.22z" class="cls-15"/>
                <path id="Path_11936" d="M58.59 110.58s-.73.49-1.83 1.11c-1.93-2.32-6-6.53-6.16-6.68z" class="cls-9"/>
                <path id="Path_11937" d="M45.12 99.39c-.51.35-1 .73-1.52 1.1s-1 .7-1.48 1.1-.94.83-1.39 1.26c-.21.2-.43.41-.64.63a5.591 5.591 0 0 0-.62.67 6.131 6.131 0 0 0 .68-.56c.25-.2.48-.41.72-.61.46-.39.93-.77 1.38-1.17s.89-.83 1.34-1.21 1-.83 1.5-1.23c.05.03.04.01.03.02z" class="cls-9"/>
                <path id="Path_11938" d="M93.87 119.83c-.52.55-1 1.15-1.47 1.73s-1 1.18-1.43 1.77c-1 1.18-1.9 2.36-2.83 3.56-.52.65-1 1.32-1.5 2 1-1.12 1.94-2.32 2.9-3.5s1.89-2.37 2.82-3.57c.51-.66 1-1.31 1.5-2z" class="cls-9"/>
                <path id="Path_11939" d="M72.7 103.18A35.61 35.61 0 0 0 65.16 98c2.57 1.65 6.79 4.77 7.52 5.24.01.02.04-.03.02-.06z" class="cls-9"/>
            </g>
            <g id="freepik--Stars--inject-32">
                <path id="Path_11940" d="M61.58 73.89l.71 1.44 1.58.23-1.14 1.12.27 1.58-1.42-.75-1.42.75.27-1.58-1.15-1.12 1.59-.23z" class="cls-19"/>
                <path id="Path_11941" d="M66.85 69.28l.51 1.08 1.14.17-.83.84.2 1.18-1.02-.56-1.03.56.2-1.18-.83-.84 1.14-.17z" class="cls-19"/>
                <path id="Path_11942" d="M62.75 62.55l.32.65.73.11-.53.51.13.72-.65-.34-.65.34.13-.72-.53-.51.73-.11z" class="cls-19"/>
                <path id="Path_11943" d="M66.85 58.69l.24.5.55.08-.4.39.09.54-.48-.25-.5.25.1-.54-.4-.39.55-.08z" class="cls-19"/>
            </g>
            <g id="freepik--Reviews--inject-32">
                <path id="Rectangle_2215" d="M0 0H41.67V16.66H0z" class="cls-11" transform="translate(77.53 65.63)"/>
                <path id="Path_11944" d="M77.54 82.29v3.31l3-3.31z" class="cls-11"/>
                <circle id="Ellipse_1332" cx="6.48" cy="6.48" r="6.48" class="cls-7" transform="translate(79.04 67.89)"/>
                <path id="Path_11945" d="M96.67 68.75l.47.96 1.06.15-.76.75.18 1.05-.95-.5-.95.5.19-1.05-.77-.75 1.06-.15z" class="cls-19"/>
                <path id="Path_11946" d="M100.84 68.75l.47.96 1.06.15-.77.75.18 1.05-.94-.5-.95.5.18-1.05-.76-.75 1.06-.15z" class="cls-5"/>
                <path id="Path_11947" d="M105 68.75l.48.96 1.06.15-.77.75.18 1.05-.95-.5-.94.5.18-1.05-.77-.75 1.06-.15z" class="cls-5"/>
                <path id="Path_11948" d="M109.17 68.75l.47.96 1.06.15-.76.75.18 1.05-.95-.5-.94.5.18-1.05-.77-.75 1.06-.15z" class="cls-5"/>
                <path id="Path_11949" d="M113.34 68.75l.47.96 1.06.15-.76.75.18 1.05-.95-.5-.95.5.18-1.05-.76-.75 1.06-.15z" class="cls-5"/>
                <path id="Rectangle_2216" d="M0 0H19.77V0.42H0z" class="cls-9" transform="translate(95.14 73.96)"/>
                <path id="Rectangle_2217" d="M0 0H17.61V0.42H0z" class="cls-7" transform="translate(95.14 75.22)"/>
                <path id="Rectangle_2218" d="M0 0H14.56V0.42H0z" class="cls-7" transform="translate(95.14 76.49)"/>
                <path id="Rectangle_2219" d="M0 0H15.91V0.42H0z" class="cls-7" transform="translate(95.14 77.75)"/>
                <g id="Group_3407" clip-path="url(#clip-path-2)">
                    <path id="Path_11950" d="M83.53 66.62c-3 1.35-3.65 5.58-3.45 11.6 0 .92 7.77 2.51 11.52-.31.6-.46-.26-7.83-1.74-10-1.86-2.59-4.47-2.13-6.33-1.29z" class="cls-9"/>
                    <path id="Path_11951" d="M83.45 66.68a6.4 6.4 0 0 0-3 4 25.33 25.33 0 0 0-.62 3.77 14.3 14.3 0 0 0 0 3.64h.06a31.57 31.57 0 0 1 .71-6.79 6.78 6.78 0 0 1 3-4.55c-.03.01-.08-.1-.15-.07z" class="cls-9"/>
                    <path id="Path_11952" d="M91.14 70a5.58 5.58 0 0 0-3.77-3.91m0 0a6 6 0 0 1 3.77 4.47 43.071 43.071 0 0 1 1 7 28.81 28.81 0 0 0-1-7.56z" class="cls-9"/>
                    <path id="Path_11953" d="M81.3 80.48c1.36.92 4 2.55 5.47 2a3.19 3.19 0 0 0 1.83-1.89 13.33 13.33 0 0 0-1.77-1.23c-2.09-1.36-4-.52-5.53 1.12z" class="cls-6"/>
                    <path id="Path_11954" d="M83.35 79.68c.1.31 1.75 2.27 3.2 2.11.48-.05.29-2.65.29-2.65v-.19l.42-2.72L84 74.41l-.47-.23s-.07.75-.14 1.69V76a.81.81 0 0 1 0 .15v.76a2 2 0 0 1 0 .34 17.92 17.92 0 0 0-.04 2.43z" class="cls-13"/>
                    <path id="Path_11955" d="M83.4 75.87A5.56 5.56 0 0 0 86.87 79l.42-2.72L84 74.41l-.47-.23s-.06.75-.13 1.69z" class="cls-9"/>
                    <path id="Path_11956" d="M90.66 71.69c.76 4.78-2 5.77-3 5.93s-4 .38-5.2-4.29S83 67 85.09 66.5s4.81.42 5.57 5.19z" class="cls-13"/>
                    <path id="Path_11957" d="M82.41 73.33c.52-.07 1.75-1.61 1.59-4.12a17.411 17.411 0 0 1-.15 2.61 4.63 4.63 0 0 0 .59-2.89 8.37 8.37 0 0 0 2.16.9 3.1 3.1 0 0 0 1.62.06c.07-.07-1.38-.4-1.79-.81a16.92 16.92 0 0 0 3.81 1 4 4 0 0 0-1.94-3.58c-1.91-1-4.57.19-5.28 1a3.3 3.3 0 0 0-1.77 1.62c-.87 1.42.6 4.29 1.16 4.21z" class="cls-9"/>
                    <path id="Path_11958" d="M83.54 73.73s-1.16-1.43-1.81-1 .27 2.54 1.1 2.78a.82.82 0 0 0 1.06-.5z" class="cls-13"/>
                    <path id="Path_11959" d="M82 73.35a2.09 2.09 0 0 1 1.16 1.21.45.45 0 0 0-.62-.12h-.06a.51.51 0 0 1 .56.13 2.49 2.49 0 0 1 .29.43h.1a1.778 1.778 0 0 0-1.44-1.71z" class="cls-9"/>
                </g>
                <path id="Rectangle_2220" d="M0 0H41.67V16.66H0z" class="cls-11" transform="translate(80.3 44.35)"/>
                <path id="Path_11960" d="M80.31 61.01v3.3l3-3.3z" class="cls-11"/>
                <circle id="Ellipse_1333" cx="6.48" cy="6.48" r="6.48" class="cls-7" transform="translate(81.81 46.61)"/>
                <path id="Path_11961" d="M99.44 47.66l.48.96 1.05.15-.76.75.18 1.06-.95-.5-.95.5.18-1.06-.76-.75 1.06-.15z" class="cls-19"/>
                <path id="Path_11962" d="M103.62 47.66l.47.96 1.06.15-.77.75.18 1.06-.94-.5-.95.5.18-1.06-.77-.75 1.06-.15z" class="cls-19"/>
                <path id="Path_11963" d="M107.79 47.66l.48.96 1.06.15-.77.75.18 1.06-.95-.5-.95.5.18-1.06-.76-.75 1.06-.15z" class="cls-19"/>
                <path id="Path_11964" d="M111.97 47.66l.47.96 1.06.15-.77.75.19 1.06-.95-.5-.95.5.18-1.06-.77-.75 1.06-.15z" class="cls-5"/>
                <path id="Path_11965" d="M116.14 47.66l.48.96 1.06.15-.77.75.18 1.06-.95-.5-.95.5.19-1.06-.77-.75 1.06-.15z" class="cls-5"/>
                <path id="Rectangle_2221" d="M0 0H19.77V0.42H0z" class="cls-9" transform="translate(97.91 52.67)"/>
                <path id="Rectangle_2222" d="M0 0H11.56V0.42H0z" class="cls-7" transform="translate(97.91 53.94)"/>
                <path id="Rectangle_2223" d="M0 0H17.07V0.42H0z" class="cls-7" transform="translate(97.91 55.21)"/>
                <path id="Rectangle_2224" d="M0 0H15.59V0.42H0z" class="cls-7" transform="translate(97.91 56.47)"/>
                <g id="Group_3408" clip-path="url(#clip-path-3)">
                    <path id="Path_11966" d="M90.15 57.39L89.57 60l-3.92-2.7-1 1.44s2.56 3.47 5.3 3.47c1.43 0 1.71-3.29 1.71-3.29z" class="cls-14"/>
                    <path id="Path_11967" d="M89.49 60.34c-1 .33-3-1.18-3.83-2.46V53.4c0-.15.52.09.52.09l1 .16 3.17.55a11.691 11.691 0 0 0-.26 2.8 1 1 0 0 0 0 .3v.05c.19.59.42 2.65-.6 2.99z" class="cls-13"/>
                    <path id="Path_11968" d="M90.14 57.34a3.55 3.55 0 0 1-.47.06c-3.08.14-3.74-3.75-3.74-3.75h1.22l3.18.55a11.78 11.78 0 0 0-.25 2.84 1.4 1.4 0 0 0 .06.3z" class="cls-18"/>
                    <path id="Path_11969" d="M85.29 47.6c-.56 1.6.09 6.33 1.2 7.42 1.61 1.59 4.35 1.85 5.72-.11s.37-8-.88-9a4.06 4.06 0 0 0-6.04 1.69z" class="cls-13"/>
                    <path id="Path_11970" d="M85.86 51.42c.41-.11.79-1.43.8-2.72a2.18 2.18 0 0 1 1.26-2.17c.61-.21 1.68.29 2.29.14s.72-.49 1.08-.49.76.9.76.9-.64-2.8-4.24-1.9c-3.79 1-3 4.2-2.66 5.24a1.68 1.68 0 0 0 .71 1z" class="cls-9"/>
                    <path id="Path_11971" d="M86.13 51.46s-1-1.54-1.72-1.18 0 2.59.85 2.9a.83.83 0 0 0 1.1-.4z" class="cls-13"/>
                </g>
                <path id="Rectangle_2225" d="M0 0H41.67V16.66H0z" class="cls-11" transform="translate(83.07 23.06)"/>
                <path id="Path_11972" d="M83.07 39.72v3.31l3-3.31z" class="cls-11"/>
                <circle id="Ellipse_1334" cx="6.48" cy="6.48" r="6.48" class="cls-7" transform="translate(84.58 25.33)"/>
                <path id="Path_11973" d="M102.21 26.6l.47.96 1.06.15-.76.75.18 1.06-.95-.5-.95.5.18-1.06-.76-.75 1.06-.15z" class="cls-19"/>
                <path id="Path_11974" d="M106.39 26.6l.47.96 1.06.15-.77.75.18 1.06-.94-.5-.95.5.18-1.06-.77-.75 1.06-.15z" class="cls-19"/>
                <path id="Path_11975" d="M110.56 26.6l.47.96 1.06.15-.76.75.18 1.06-.95-.5-.95.5.18-1.06-.76-.75 1.05-.15z" class="cls-19"/>
                <path id="Path_11976" d="M114.73 26.6l.48.96 1.06.15-.77.75.18 1.06-.95-.5-.95.5.19-1.06-.77-.75 1.06-.15z" class="cls-19"/>
                <path id="Path_11977" d="M118.91 26.6l.47.96 1.06.15-.76.75.18 1.06-.95-.5-.95.5.18-1.06-.76-.75 1.06-.15z" class="cls-19"/>
                <path id="Rectangle_2226" d="M0 0H19.77V0.42H0z" class="cls-9" transform="translate(100.68 31.4)"/>
                <path id="Rectangle_2227" d="M0 0H14.71V0.42H0z" class="cls-7" transform="translate(100.68 32.66)"/>
                <path id="Rectangle_2228" d="M0 0H17.61V0.42H0z" class="cls-7" transform="translate(100.68 33.92)"/>
                <path id="Rectangle_2229" d="M0 0H7.56V0.42H0z" class="cls-7" transform="translate(100.68 35.19)"/>
                <path id="Path_11978" d="M97.86 36.75h-.56c0-.71-.5-1.79-.39-1.24a5.14 5.14 0 0 1 .09 1.24h-9.38a10.13 10.13 0 0 1 .38-2.81 7.24 7.24 0 0 0-.83 2.81h-.88A6.59 6.59 0 0 1 86.4 35a5.88 5.88 0 0 0-.4 1.75h-1A6.64 6.64 0 0 1 86.12 33c.68-1-.16-1.61-.14-3.6a4.59 4.59 0 0 1 2.12-3.91c4.09-3.79 7.8-.28 8.19 2.22s-.32 2.77.83 5a9.68 9.68 0 0 1 .74 4.04z" class="cls-9"/>
                <path id="Path_11979" d="M86.84 38.12c1.36.93 4 2.55 5.48 2a3.26 3.26 0 0 0 1.83-1.9 15.63 15.63 0 0 0-1.78-1.23c-2.09-1.35-4-.51-5.53 1.13z" class="cls-15"/>
                <path id="Path_11980" d="M88.88 37.32c.1.31 1.76 2.28 3.21 2.11.47 0 .29-2.64.29-2.64v-.2l.42-2.72-3.27-1.81-.48-.24s-.06.75-.14 1.69v.14a.81.81 0 0 1 0 .15v1.09a17.919 17.919 0 0 0-.03 2.43z" class="cls-13"/>
                <path id="Path_11981" d="M88.93 33.5a5.52 5.52 0 0 0 3.48 3.08l.42-2.72-3.27-1.8-.48-.24s-.08.75-.15 1.68z" class="cls-9"/>
                <path id="Path_11982" d="M96.2 29.35c.76 4.77-2 5.77-3 5.93s-4.15.53-5.38-4.15.73-6.53 2.85-7 4.77.43 5.53 5.22z" class="cls-13"/>
                <path id="Path_11983" d="M88.16 31.46c1.19-.14 1.23-3.87 1.23-4.31a9.21 9.21 0 0 0 .22 1.85 1.13 1.13 0 0 0 .37-.1 5.231 5.231 0 0 1 0-.56 2.52 2.52 0 0 1 .13.51l.21-.08a4.58 4.58 0 0 1 0-1.17 8.512 8.512 0 0 1 .3 1.05 15.13 15.13 0 0 1 3.09-.81l.79-.06a8.291 8.291 0 0 1-.09-.83 4.2 4.2 0 0 1 .26.83H95a13.176 13.176 0 0 0-.3-1.47 4.48 4.48 0 0 1 .74 1.5c.44.05.56.13.57 0a5.3 5.3 0 0 0-1.88-3.14 4.27 4.27 0 0 0-6.14.93 3.91 3.91 0 0 0-1.41 2.49c-.06 1.48.88 3.45 1.58 3.37z" class="cls-9"/>
                <path id="Path_11984" d="M88.58 31.38s-1.16-1.44-1.82-1 .28 2.55 1.11 2.79a.82.82 0 0 0 1-.48z" class="cls-13"/>
            </g>
            <g id="freepik--Plant--inject-32">
                <path id="Path_11985" d="M120.64 111.48s6.36-1.43 9.83-4.64 5.43-9 5.43-9a54.546 54.546 0 0 0-7.13 1.87 11.78 11.78 0 0 0-2.15 3 14.44 14.44 0 0 1 0-2.18 9.71 9.71 0 0 0-2.26 1.38c-2.91 2.61-3.72 9.57-3.72 9.57z" class="cls-14"/>
                <path id="Path_11986" d="M131.93 100.67c.87-.59 1.75-1.17 2.61-1.78a.06.06 0 0 0 0-.07.07.07 0 0 0-.06 0c-1.64 1-3.25 2-4.81 3.12-.56.38-1.08.77-1.61 1.18l.11-.19c.19-.32.39-.63.59-.94a13.208 13.208 0 0 1 1.35-1.8c-.49.57-1 1.13-1.44 1.74a8.137 8.137 0 0 0-.6.89 4.619 4.619 0 0 0-.28.48l-.1.16c-.83.64-1.62 1.32-2.38 2-.47.44-.93.89-1.36 1.36.24-.77.46-1.54.74-2.3-.28.79-.58 1.59-.8 2.41a14.9 14.9 0 0 0-1.38 1.63.36.36 0 0 1 0-.1c.07-.3.15-.6.23-.9.15-.57.32-1.14.52-1.7a9.91 9.91 0 0 1 1.7-3.23 12.25 12.25 0 0 0-2.43 5.07c-.07.28-.13.56-.19.82s-.07.29-.1.44c-.19.26-.38.52-.55.79a27.75 27.75 0 0 0-2.69 5.26 62.609 62.609 0 0 0-2 6.35h.07a47.659 47.659 0 0 1 4.64-10.81 24.126 24.126 0 0 1 1.45-2 12.11 12.11 0 0 0 3.09-.62 13.55 13.55 0 0 0 3.09-1.49q.83-.57 1.59-1.2a12.51 12.51 0 0 1-2.91 1.77 15.841 15.841 0 0 1-3.2 1.07c-.47.1-1 .18-1.42.24a26.073 26.073 0 0 1 1.87-2.07l.66-.63a14 14 0 0 1 2.35-1.34c1-.51 2.06-1 3.09-1.56.58-.3 1.16-.6 1.75-.89-1 .5-2.1 1-3.16 1.45a26.792 26.792 0 0 0-2.94 1.45l-.12.07c.86-.75 1.75-1.46 2.66-2.15s1.51-1.37 2.37-1.98z" class="cls-9"/>
                <path id="Path_11987" d="M131.57 104c-.52.23-1 .43-1.55.67a15.244 15.244 0 0 0-1.53.83c.51-.24 1-.47 1.52-.72s1-.54 1.55-.77c.06-.01.03-.07.01-.01z" class="cls-9"/>
                <path id="Path_11988" d="M100 79.47a9.12 9.12 0 0 1 1.9 5.28c0 .57-.07 1.36-.14 2.29a15.17 15.17 0 0 1 4.15 3.55 7.51 7.51 0 0 0-4.19-1 13.349 13.349 0 0 0 .25 1.9 7.38 7.38 0 0 1 2.69.53 6.17 6.17 0 0 0-2.43.49c1.14 3.6 4.5 7.3 13.79 8.87a19.45 19.45 0 0 0-1.64-13.07c-2.79-5.49-14.38-8.84-14.38-8.84z" class="cls-14"/>
                <path id="Path_11989" d="M119.24 116.8c-.16-1.54-.37-3.07-.61-4.6a88.442 88.442 0 0 0-1.87-9.1 35.212 35.212 0 0 0-1.34-4.1 4.709 4.709 0 0 0 0-.75v-.89a13.182 13.182 0 0 0-.08-1.78 21.711 21.711 0 0 0-.54-3.58c-.17-.66-.37-1.31-.56-2a23.781 23.781 0 0 1 .68 3.46 31.429 31.429 0 0 1 .28 3.54v1.41a29.309 29.309 0 0 0-1.59-3.23 37.208 37.208 0 0 0-3.18-4.76 2.33 2.33 0 0 0-.07-.53 2.9 2.9 0 0 0-.14-.62c-.1-.42-.2-.84-.32-1.26-.23-.83-.53-1.66-.8-2.49.25.83.41 1.67.6 2.51.09.41.18.83.28 1.25l.13.62c-.37-.47-.75-.93-1.15-1.4-1.78-2.08-3.73-4-5.68-5.9-.24-.24-.49-.47-.74-.7 1.88 1.94 3.72 3.93 5.46 6 .42.49.83 1 1.23 1.49l-.63-.42c-.56-.35-1.09-.7-1.66-1s-1.14-.63-1.71-.92-1.24-.53-1.81-.87a14 14 0 0 1 1.69.94c.56.34 1.13.67 1.69 1s1.11.68 1.64 1 .89.61 1.36.88a43.9 43.9 0 0 1 3 4.34 31.218 31.218 0 0 1 1.54 2.92l-.33-.15-.84-.36-1.64-.72c-1-.45-2.11-.87-3.13-1.37a14.911 14.911 0 0 1-1.66-.92 37.29 37.29 0 0 0 6.15 3.18l.92.4c.25.11.5.24.76.33a33.141 33.141 0 0 1 1.57 4.31 89.152 89.152 0 0 1 2 9c.53 3 .89 6.09 1.17 9.17a8.817 8.817 0 0 0 .12 1.14.11.11 0 0 0 .13.1.12.12 0 0 0 .11-.1c-.11-1.37-.27-2.93-.43-4.47z" class="cls-9"/>
                <path id="Path_11990" d="M113.58 91.12c-.17-.94-.42-1.87-.67-2.79.24.91.41 1.83.58 2.77s.33 1.88.46 2.82a24 24 0 0 0-.37-2.8z" class="cls-9"/>
                <path id="Path_11991" d="M109.58 93.68a18.229 18.229 0 0 0-2-1.13c-.34-.18-.69-.34-1-.51s-.72-.32-1.07-.49c.34.17.66.37 1 .55l1 .55c.69.37 1.35.77 2.07 1.07v-.05z" class="cls-9"/>
                <path id="Path_11992" d="M120.75 100.47s5.88-1.4 8.58-5.34c2.58-3.77 3.41-10.19 3.48-10.75-.11.51-1.32 6.12-5.32 8.74-3.06 2.01-6.03 3.66-6.74 7.35z" class="cls-22"/>
                <path id="Path_11993" d="M126.18 90.32a7.52 7.52 0 0 0-2.18 3.57 8.81 8.81 0 0 1 2.18-3.54s.02-.05 0-.03z" class="cls-9"/>
                <path id="Path_11994" d="M120.75 100.47s5.88-1.4 8.58-5.34c2.58-3.77 3.41-10.19 3.48-10.75s-2.82 4-5.78 5-7.13 4.55-6.28 11.09z" class="cls-14"/>
                <path id="Path_11995" d="M131.77 86.55a23.549 23.549 0 0 1-1.77 3.11 12.151 12.151 0 0 1-2.42 2.49c-.79.64-1.64 1.21-2.45 1.83.15-.22.32-.44.48-.65.34-.43.71-.83 1.08-1.24.73-.79 1.47-1.57 2.13-2.43a8.76 8.76 0 0 0 .94-1.52c-.95 2-2.86 3.26-4.22 4.93-.19.24-.37.49-.55.75a3.559 3.559 0 0 0-.34.6 12.8 12.8 0 0 0-2 2 8.522 8.522 0 0 1 .23-1.14 5.91 5.91 0 0 1 .63-1.49 7.68 7.68 0 0 0-.69 1.48 5.359 5.359 0 0 0-.21 1.26 12.369 12.369 0 0 0-.79 1.24.735.735 0 0 1 .07-.38c.12-.58.25-1.17.4-1.74a10.33 10.33 0 0 1 1.41-3.33 12.29 12.29 0 0 0-1.7 3.19 18.088 18.088 0 0 0-.47 1.75l-.18.88a4.039 4.039 0 0 1-.08.46 20.769 20.769 0 0 0-1.36 4 56.756 56.756 0 0 0-1.25 7.43 61.309 61.309 0 0 0-.41 7.9v1a.07.07 0 0 0 .14 0c0-1.31.09-2.61.17-3.91s.19-2.61.33-3.91a67.533 67.533 0 0 1 1.22-7.6 20.1 20.1 0 0 1 2.27-6.2 11.871 11.871 0 0 1 2.12-2.52c.83-.74 1.73-1.38 2.6-2.07a15.16 15.16 0 0 0 2.38-2.29 18.94 18.94 0 0 0 1.87-3c.14-.28.27-.53.42-.8.05-.08.01-.1 0-.08z" class="cls-9"/>
                <path id="Path_11996" d="M130.76 87.42a22.558 22.558 0 0 1-1.31 2.29 15.35 15.35 0 0 0 1.33-2.29s-.01-.03-.02 0z" class="cls-9"/>
                <path id="Path_11997" d="M99.18 97.88s-.09 8.35 4.9 10.77 7.67.4 11.07 1.21a12.16 12.16 0 0 0-6.4-4.64c-3.97-.99-8.37-3.86-9.57-7.34z" class="cls-14"/>
                <path id="Path_11998" d="M99.18 97.88s-.09 8.35 4.9 10.77 7.67.4 11.07 1.21a18.73 18.73 0 0 0-5.67-1.68 11.44 11.44 0 0 1-10.3-10.3z" class="cls-22"/>
                <path id="Path_11999" d="M115.48 110a8.62 8.62 0 0 0-2-1.35l-.32-.14-.17-.19c-.15-.16-.31-.31-.47-.45a7.13 7.13 0 0 0-1-.72c-.83-.49-1.73-.83-2.58-1.28.42.21.83.45 1.23.69s.8.45 1.19.7a8.679 8.679 0 0 1 1 .74 3.072 3.072 0 0 1 .26.25 12 12 0 0 0-1.69-.45c-.91-.18-1.83-.31-2.75-.51q-.67-.15-1.32-.36c-.42-.33-.83-.66-1.22-1a9.819 9.819 0 0 1-1.3-1.43 15 15 0 0 0 2 2.25c-.22-.08-.43-.17-.64-.27a10.34 10.34 0 0 1-4.26-3.54 11.74 11.74 0 0 0 3.45 3.32 10.27 10.27 0 0 0 2.17 1 20.922 20.922 0 0 0 2.71.64 19.88 19.88 0 0 1 2.64.63 7.74 7.74 0 0 1 2.22 1.17 10.38 10.38 0 0 1 3 3.71 18.67 18.67 0 0 1 1.66 6.11c0 .08.15.08.14 0-.31-3.42-1.24-7.08-3.95-9.52z" class="cls-9"/>
                <path id="Path_12000" d="M109.68 107.28a2.79 2.79 0 0 0-1-.93 3.84 3.84 0 0 1-1.22-1s-.05 0 0 0a4.12 4.12 0 0 0 1.07 1 3.7 3.7 0 0 1 1.18 1 .174.174 0 0 0-.03-.07z" class="cls-9"/>
                <path id="Path_12001" d="M112.33 116.17l.23 4.59.69 14.04h10.48l.7-14.04.23-4.59z" class="cls-23"/>
                <path id="Path_12002" fill="#26669b" d="M112.33 116.17l.23 4.59h11.87l.23-4.59z"/>
                <path id="Rectangle_2230" d="M0 0H13.8V4.38H0z" class="cls-23" transform="translate(111.6 114.25)"/>
            </g>
        </g>
    </g>
</svg>
