<svg xmlns="http://www.w3.org/2000/svg" width="160" height="160" viewBox="0 0 160 160">
    <defs>
        <clipPath id="clip-path">
            <rect id="Rectangle_7" width="160" height="160" fill="#d0d0d0" rx="10" transform="translate(198 1124)"/>
        </clipPath>
        <style>
            .cls-4{fill:#ebebeb}.cls-5,.cls-9{fill:#e6e6e6}.cls-6{fill:#f0f0f0}.cls-7{fill:#fafafa}.cls-8{fill:#fff}.cls-9{opacity:.7}.cls-10{fill:#e0e0e0}.cls-11{fill:#f5f5f5}.cls-12{fill:#263238}.cls-13{fill:#ffc3bd}.cls-14{fill:#e15068}.cls-15{opacity:.2}.cls-16{opacity:.3}.cls-21{fill:#ffc4c0}.cls-23{fill:#455a64}.cls-25{fill:#2e7dbf}
        </style>
    </defs>
    <g id="Mask_Group_16" clip-path="url(#clip-path)" transform="translate(-198 -1124)">
        <g id="tatiloley-illustrations-03" transform="translate(198.009 1124.009)">
            <path id="Rectangle_7-2" fill="#ddd" d="M13.78 18.39a648.462 648.462 0 0 1 132.44 0 15.43 15.43 0 0 1 13.52 18.21 239.36 239.36 0 0 0 0 86.8 15.43 15.43 0 0 1-13.52 18.21 648.457 648.457 0 0 1-132.44 0A15.43 15.43 0 0 1 .26 123.4a239.36 239.36 0 0 0 0-86.8 15.43 15.43 0 0 1 13.52-18.21z"/>
            <path id="Path_11308" d="M76.18 110.68H19.4a1.68 1.68 0 0 1-1.67-1.68V29.19a1.67 1.67 0 0 1 1.67-1.67h56.78a1.68 1.68 0 0 1 1.68 1.68V109a1.69 1.69 0 0 1-1.68 1.68zM19.4 27.58a1.61 1.61 0 0 0-1.6 1.61V109a1.6 1.6 0 0 0 1.6 1.6h56.78a1.6 1.6 0 0 0 1.6-1.6V29.19a1.61 1.61 0 0 0-1.6-1.61z" class="cls-4"/>
            <path id="Path_11309" d="M139.78 110.68H83a1.7 1.7 0 0 1-1.68-1.68V29.19A1.68 1.68 0 0 1 83 27.52h56.78a1.67 1.67 0 0 1 1.67 1.67V109a1.68 1.68 0 0 1-1.67 1.68zM83 27.58a1.61 1.61 0 0 0-1.6 1.61V109a1.6 1.6 0 0 0 1.6 1.6h56.78a1.61 1.61 0 0 0 1.61-1.6V29.19a1.62 1.62 0 0 0-1.61-1.61z" class="cls-4"/>
            <g id="freepik--background-complete--inject-79">
                <path id="Rectangle_2071" d="M0 0H10.31V0.08H0z" class="cls-4" transform="translate(133.84 126.78)"/>
                <path id="Rectangle_2072" d="M0 0H18.04V0.08H0z" class="cls-4" transform="translate(102.78 125.73)"/>
                <path id="Rectangle_2073" d="M0 0H16.84V0.08H0z" class="cls-4" transform="translate(116.69 123.89)"/>
                <path id="Rectangle_2074" d="M0 0H4.64V0.08H0z" class="cls-4" transform="translate(20.47 124.41)"/>
                <path id="Rectangle_2075" d="M0 0H20.04V0.08H0z" class="cls-4" transform="translate(27.88 124.41)"/>
                <path id="Rectangle_2076" d="M0 0H13.43V0.08H0z" class="cls-4" transform="translate(60.78 125.73)"/>
                <path id="Rectangle_2077" d="M0 0H48.46V44.85H0z" class="cls-5" transform="translate(24.3 28.88)"/>
                <path id="Rectangle_2078" d="M0 0H49.08V44.85H0z" class="cls-6" transform="translate(24.85 28.88)"/>
                <path id="Rectangle_2079" d="M0 0H45.82V41.19H0z" class="cls-7" transform="translate(26.48 30.71)"/>
                <path id="Path_11310" d="M53.26 71.9l-8.09-41.19H34.56l8.09 41.19z" class="cls-8"/>
                <path id="Path_11311" d="M41 71.9l-8.09-41.19h-4.8l8.1 41.19z" class="cls-8"/>
                <path id="Path_11312" d="M66.53 71.9l-8.1-41.19h-1.76l8.09 41.19z" class="cls-8"/>
                <path id="Rectangle_2080" d="M0 0H0.21V41.19H0z" class="cls-5" transform="translate(72.09 30.71)"/>
                <path id="Path_11313" d="M23.08 28.81v22.94h4.7s8.45-10.68 10.37-22a1.88 1.88 0 0 0-1.5-2.17 2.31 2.31 0 0 0-.37 0h-11.9a1.28 1.28 0 0 0-1.3 1.26z" class="cls-9"/>
                <path id="Path_11314" d="M23.08 92.28V53.19h4.7s2.93 32.36 4 39.09z" class="cls-9"/>
                <rect id="Rectangle_2081" width="5.33" height="1.43" class="cls-10" rx=".47" transform="translate(22.78 51.75)"/>
                <path id="Path_11315" d="M75.26 28.81v22.94h-4.7s-8.45-10.68-10.37-22a1.88 1.88 0 0 1 1.53-2.17 2 2 0 0 1 .34 0H74a1.28 1.28 0 0 1 1.26 1.23z" class="cls-9"/>
                <path id="Path_11316" d="M75.26 92.28V53.19h-4.7s-2.93 32.36-4 39.09z" class="cls-9"/>
                <rect id="Rectangle_2082" width="5.33" height="1.43" class="cls-10" rx=".47" transform="translate(70.23 51.75)"/>
                <path id="Rectangle_2083" d="M0 0H27.01V31.32H0z" class="cls-5" transform="translate(96.43 35.03)"/>
                <path id="Rectangle_2084" d="M0 0H28.49V31.32H0z" class="cls-6" transform="translate(96.84 35.03)"/>
                <path id="Rectangle_2085" d="M0 0H23.72V26.55H0z" class="cls-8" transform="translate(99.23 37.42)"/>
                <path id="Path_11317" d="M116.86 56.69h-6.16a5.61 5.61 0 0 1-5.6-5.61v-6.16a.23.23 0 0 1 .22-.23h6.16a5.63 5.63 0 0 1 5.62 5.6v6.16a.23.23 0 0 1-.21.24zm-11.32-11.54v5.91a5.17 5.17 0 0 0 5.15 5.18h5.94v-5.92a5.18 5.18 0 0 0-5.16-5.16z" class="cls-6"/>
                <path id="Rectangle_2086" d="M0 0H4.82V42.29H0z" class="cls-6" transform="translate(88.82 78.18)"/>
                <path id="Rectangle_2087" d="M0 0H46.26V1.3H0z" class="cls-6" transform="translate(89.49 120.47)"/>
                <path id="Rectangle_2088" d="M0 0H42.77V42.29H0z" class="cls-11" transform="translate(93.64 78.18)"/>
                <path id="Path_11318" d="M132.67 104H97.38v-9.31h35.29zm-35-.31h34.67V95H97.69z" class="cls-6"/>
                <path id="Path_11319" d="M132.67 115.49H97.38v-9.27h35.29zm-35-.31h34.67v-8.65H97.69z" class="cls-6"/>
                <path id="Path_11320" d="M119 98.48h-7.9a1.12 1.12 0 1 1 0-2.24h7.9a1.12 1.12 0 1 1 0 2.24zm-7.85-1.93a.81.81 0 0 0 0 1.62H119a.81.81 0 0 0 0-1.62h-7.9z" class="cls-6"/>
                <path id="Path_11321" d="M132.67 92.44H97.38v-9.27h35.29zm-35-.32h34.67v-8.64H97.69z" class="cls-6"/>
                <path id="Path_11322" d="M119 87h-7.9a1.13 1.13 0 0 1 0-2.25h7.9a1.13 1.13 0 1 1 0 2.25zm-7.9-2a.82.82 0 0 0 0 1.63h7.9a.82.82 0 1 0 0-1.63z" class="cls-6"/>
                <path id="Path_11323" d="M119 110h-7.9a1.13 1.13 0 0 1 0-2.25h7.9a1.13 1.13 0 1 1 0 2.25zm-7.85-1.93a.81.81 0 0 0 0 1.62H119a.81.81 0 0 0 0-1.62h-7.9z" class="cls-6"/>
                <path id="Rectangle_2089" d="M0 0H43.65V1.21H0z" class="cls-6" transform="translate(93.64 76.98)"/>
                <path id="Rectangle_2090" d="M0 0H5.76V1.21H0z" class="cls-5" transform="translate(87.88 76.97)"/>
            </g>
            <g id="freepik--Shadow--inject-79">
                <ellipse id="freepik--path--inject-79" cx="60.34" cy="3.52" class="cls-4" rx="60.34" ry="3.52" transform="translate(21.6 128.78)"/>
            </g>
            <g id="freepik--character-1--inject-79">
                <path id="Path_11324" d="M55.68 47.31c.06-.69 3-3.23 6.12-1.46S62.65 53 66 53.5c-2.18 2.18-9.28 4.84-11.46 2.34s-2.44-9.5 1.14-8.53z" class="cls-12"/>
                <path id="Path_11325" d="M68.14 64.57c.08 1.15.2 2.37.36 3.53a22.91 22.91 0 0 0 .7 3.39 1.378 1.378 0 0 0 .13.39l.12.33a.75.75 0 0 0 .1.2 1.4 1.4 0 0 0 1 .14 12 12 0 0 0 3.2-1l.79 1.16a8 8 0 0 1-.79.62q-.4.3-.83.55a7.86 7.86 0 0 1-1.92.82 4.46 4.46 0 0 1-1.2.17 3 3 0 0 1-1.45-.35 2.84 2.84 0 0 1-1.14-1.14l-.08-.17v-.12l-.11-.24a4.1 4.1 0 0 1-.21-.48 20.19 20.19 0 0 1-1-3.83 29.08 29.08 0 0 1-.41-3.84z" class="cls-13"/>
                <path id="Path_11326" d="M66.62 61.47C69.14 63.4 69 67 69 67l-4.52 1.08s-1.39-3.66-.82-5 1.54-2.7 2.96-1.61z" class="cls-14"/>
                <path id="Path_11327" d="M73.47 71.79l1.66-1.66.9 2.59a3.16 3.16 0 0 1-2.75 0z" class="cls-13"/>
                <path id="Path_11328" d="M77.43 69.87l.3 2.05-1.7.8-.9-2.59z" class="cls-13"/>
                <path id="Path_11329" d="M52 130.14l2.53.25 2.65-6.04-2.54-.25z" class="cls-13"/>
                <path id="Path_11330" d="M35.65 121.21l1.9 1.79 4.12-4.52-1.91-1.79z" class="cls-13"/>
                <path id="Path_11331" d="M38.43 122.14L37 119.56a.21.21 0 0 0-.25-.1l-2.21.84a.43.43 0 0 0-.23.56c.52.89.81 1.29 1.44 2.43.39.7 1.15 2.3 1.68 3.26s1.52.49 1.38 0a7.43 7.43 0 0 1-.31-4 .62.62 0 0 0-.07-.41z" class="cls-12"/>
                <path id="Path_11332" d="M54.87 129.6h-3.11a.26.26 0 0 0-.25.19l-.68 2.47a.39.39 0 0 0 .26.48h7.29c1.14 0 1.38-1.15.91-1.24a8.45 8.45 0 0 1-4-1.73.72.72 0 0 0-.42-.17z" class="cls-12"/>
                <path id="Path_11333" d="M57.17 124.35l-1.36 3.11h-2.64l1.46-3.36z" class="cls-15"/>
                <path id="Path_11334" d="M39.76 116.69l1.91 1.79-2.12 2.33-1.91-1.79z" class="cls-15"/>
                <path id="Path_11335" d="M65.86 61.1s1.15.49-2.69 15.64l-10.63-.92c.55-4.31.79-7-.51-16a31.72 31.72 0 0 1 4.57-.21 34 34 0 0 1 4.82.42 45 45 0 0 1 4.44 1.07z" class="cls-14"/>
                <path id="Path_11336" d="M58.5 65c-2.3-1.89-3.74-4.81-3.27-5.49v.06c-.42.65 1 3.51 3.21 5.34A4.68 4.68 0 0 1 60 62.5h.06a4.78 4.78 0 0 0-1.49 2.36z" class="cls-8"/>
                <path id="Path_11337" d="M62.18 65.06a4.57 4.57 0 0 0-1.45-2.44.06.06 0 0 1 0-.06h.06a4.6 4.6 0 0 1 1.47 2.4c1.15-1.41.5-4.1.05-4.8v-.06h.06c.47.72 1.15 3.54-.11 5-.04-.04-.07-.03-.08-.04z" class="cls-8"/>
                <path id="Path_11338" d="M57.54 54.19c.17 1.58.23 4.45-.94 5.39a17.77 17.77 0 0 0 3.79 2.7c1.85-1.28 1-2.28 1-2.28-1.69-.57-1.55-1.84-1.13-3z" class="cls-13"/>
                <path id="Path_11339" d="M58.66 55.32L60.29 57a4.25 4.25 0 0 0-.22.85c-.66-.16-1.6-.83-1.62-1.54a3.18 3.18 0 0 1 .21-.99z" class="cls-15"/>
                <path id="Path_11340" d="M56.15 51.72c.66 2.52.89 3.6 2.43 4.67A3.34 3.34 0 0 0 64 54c.09-2.4-1-6.13-3.7-6.65a3.55 3.55 0 0 0-4.18 2.79 3.59 3.59 0 0 0 .03 1.58z" class="cls-13"/>
                <path id="Path_11341" d="M56.87 53.61c.86 1.24 3.09-6.17.2-5.94s-2.54 3.33-.2 5.94z" class="cls-12"/>
                <path id="Path_11342" d="M57.26 48.09c1.67.85 6.53 1.87 5.86.52a4.24 4.24 0 0 0-3.75-2.25c-1.59-.02-3.59.99-2.11 1.73z" class="cls-12"/>
                <path id="Path_11343" d="M56 53.86a1.85 1.85 0 0 0 1.12.93c.64.19 1-.38.8-1s-.66-1.31-1.31-1.24a.84.84 0 0 0-.73 1 .7.7 0 0 0 .12.31z" class="cls-13"/>
                <path id="Path_11344" d="M63.17 76.74s3.6 15.91 1.2 27.13c-1.61 7.51-7.37 22.69-7.37 22.69l-4.53-.12s4.39-15.92 5.29-22.19c1.55-10.71-2.34-28.18-2.34-28.18z" class="cls-12"/>
                <path id="Path_11345" d="M59 80l-2.26 3.58a109.879 109.879 0 0 1 1.29 12.8C61.24 90.63 59.73 83 59 80z" class="cls-15"/>
                <path id="Path_11346" d="M57.6 126.8l-5.6-.15.32-1.72 5.72.27z" class="cls-14"/>
                <path id="Path_11347" d="M60.85 76.57s-2.11 16.88-6.69 26.09c-3.69 7.44-13.55 18-13.55 18l-2.52-2.59s6.66-11.52 9.4-16.46c6.74-12.12 1.25-21.37 5-25.83z" class="cls-12"/>
                <path id="Path_11348" d="M40.87 121.04l-3.26-3.17 1.08-1.47 3.45 3.44z" class="cls-14"/>
                <path id="Path_11349" d="M52.43 75.19l-.56.9c0 .08 0 .16.16.17l11.15 1c.1 0 .18 0 .19-.09l.18-.93c0-.07-.06-.13-.17-.14l-10.76-.93a.2.2 0 0 0-.19.02z" class="cls-14"/>
                <path id="Path_11350" d="M52.43 75.19l-.56.9c0 .08 0 .16.16.17l11.15 1c.1 0 .18 0 .19-.09l.18-.93c0-.07-.06-.13-.17-.14l-10.76-.93a.2.2 0 0 0-.19.02z" class="cls-16"/>
                <path id="Path_11351" d="M53.78 76.52h-.29c-.06 0-.1 0-.09-.08l.24-1.22a.209.209 0 0 1 .12-.06h.28c.06 0 .1 0 .1.07l-.25 1.23a.171.171 0 0 1-.11.06z" class="cls-12"/>
                <path id="Path_11352" d="M62.36 77.26h-.28c-.06 0-.1 0-.09-.07l.23-1.23s.07-.06.12-.05h.29c.06 0 .1 0 .09.08l-.24 1.22a.224.224 0 0 1-.12.05z" class="cls-12"/>
                <path id="Path_11353" d="M58.07 76.89h-.29c-.05 0-.1 0-.09-.07l.24-1.23a.083.083 0 0 1 .12 0h.29c.06 0 .1 0 .09.07l-.24 1.23a.11.11 0 0 1-.12 0z" class="cls-12"/>
                <path id="Path_11354" d="M53.55 63.77c-.42.69-.86 1.4-1.28 2.11S51.43 67.29 51 68a19.74 19.74 0 0 0-1.1 2.14c-.09.17-.16.35-.24.52s-.13.34-.2.51a1.05 1.05 0 0 0-.06.24s.05.12.31.23a4.42 4.42 0 0 0 .93.25A13.89 13.89 0 0 0 53 72a44.36 44.36 0 0 0 4.89-.4l.28 1.4a29.21 29.21 0 0 1-5.07 1.11 15.44 15.44 0 0 1-2.72.09 6.5 6.5 0 0 1-1.52-.3 3.3 3.3 0 0 1-.84-.42 2.48 2.48 0 0 1-1.12-2 3.44 3.44 0 0 1 .13-1l.21-.68c.08-.21.15-.43.23-.64.33-.84.7-1.63 1.09-2.41s.81-1.52 1.23-2.27.86-1.47 1.35-2.2z" class="cls-13"/>
                <path id="Path_11355" d="M57.22 72l2.08-1.1.08 2.31a2.8 2.8 0 0 1-2.31-.21z" class="cls-13"/>
                <path id="Path_11356" d="M60.56 71.02l-.31 2.05-.87.1-.08-2.31z" class="cls-13"/>
                <path id="Path_11357" d="M52 59.79c-1.3.24-3.13 4-3.13 4L53 67.27s1.85-3.38 1.71-5.08c-.17-1.46-1.02-2.7-2.71-2.4z" class="cls-14"/>
                <path id="Path_11358" d="M38.94 123.53h-.1c-.31-.1-.52-.68-.63-1a.06.06 0 0 1 0-.06h.06c.1 0 .94.49 1 .82a.2.2 0 0 1-.09.18.4.4 0 0 1-.24.06zm-.58-.93c.15.46.33.76.51.82a.22.22 0 0 0 .23 0 .1.1 0 0 0 0-.09c0-.21-.5-.53-.79-.7z" class="cls-14"/>
                <path id="Path_11359" d="M39.07 122.72a1.9 1.9 0 0 1-.82-.19s.69-.38 1-.26a.34.34 0 0 1 .2.19.21.21 0 0 1-.05.25.55.55 0 0 1-.33.01zm-.68-.24a1.419 1.419 0 0 0 1 .07c.17-.13.05-.06 0-.14a.21.21 0 0 0-.13-.13 1.56 1.56 0 0 0-.86.2z" class="cls-14"/>
                <path id="Path_11360" d="M56.26 130.11a4.13 4.13 0 0 1-.86-.11v-.05c.13-.06 1.25-.58 1.56-.39a.17.17 0 0 1 .07.16.35.35 0 0 1-.15.29 1 1 0 0 1-.62.1zm-.68-.18c.34.07 1 .15 1.21-.05a.27.27 0 0 0 .12-.21v-.07a7.163 7.163 0 0 0-1.33.33z" class="cls-14"/>
                <path id="Path_11361" d="M55.42 130v-.05s.27-1.16.88-1.09c.15 0 .2.09.2.15 0 .29-.67.86-1 1zm.77-1.05c-.39 0-.62.65-.7.91.37-.2.88-.66.86-.85l-.12-.06z" class="cls-14"/>
            </g>
            <g id="freepik--character-2--inject-79">
                <path id="Path_11362" d="M115.13 61.33a1.545 1.545 0 0 1-.06.54c-.06.17 0 .34-.07.5-.06.34-.13.66-.2 1a17.13 17.13 0 0 1-2.29 5.56l-.29.42-.07.1v.07l-.07.08a2.34 2.34 0 0 1-.31.32 3.37 3.37 0 0 1-1.27.7 6.51 6.51 0 0 1-2.24.19 13.53 13.53 0 0 1-3.86-.88l.34-1.34a21.761 21.761 0 0 0 3.52.07 4.89 4.89 0 0 0 1.45-.31.87.87 0 0 0 .31-.23 5.571 5.571 0 0 1 .31-.53 17.41 17.41 0 0 0 1.31-3.16c.17-.55.31-1.11.44-1.67.06-.29.11-.57.16-.85l.07-.42.06-.38z" class="cls-13"/>
                <path id="Path_11363" d="M115.77 59.5a26.71 26.71 0 0 1-.6 4.89l-4.32-.52s-.16-4.6.68-5.71c1.41-1.86 4.18-.31 4.24 1.34z" class="cls-12"/>
                <path id="Path_11364" fill="#b55b52" d="M105.28 68.76l-2.58-.91.54 1.93s1.21.71 1.9-.1z"/>
                <path id="Path_11365" d="M101.81 68.34l-.35 1.37 1.78.07-.54-1.94z" class="cls-13"/>
                <path id="Path_11366" fill="#d0b61e" d="M89.68 77.38a13.56 13.56 0 1 0 .41-27.11h-2.16v27.11z"/>
                <circle id="Ellipse_1307" cx="13.56" cy="13.56" r="13.56" class="cls-14" transform="translate(74.37 50.26)"/>
                <circle id="Ellipse_1308" cx="13.56" cy="13.56" r="13.56" fill="#e4c60e" transform="translate(74.37 50.26)"/>
                <circle id="Ellipse_1309" cx="12.02" cy="12.02" r="12.02" fill="#f8d608" transform="translate(75.91 51.81)"/>
                <path id="Path_11367" d="M86.15 63.39l-3 1.09v-1.13a.16.16 0 0 1 .13-.18l2.71-1c.1 0 .13-.08.12-.17s0-.36 0-.57l-3 1.09v-1.13a.16.16 0 0 1 .12-.18l2.71-1a.17.17 0 0 0 .13-.19V55.5h1.56v4.09l4.76-1.75v1.15c0 .18 0 .13-.11.16l-3.87 1.42-.68.25a.13.13 0 0 0-.1.14v.59l4.76-1.75v1.14a.15.15 0 0 1-.12.17l-4.44 1.63c-.24.09-.19 0-.2.28v6.64a6.1 6.1 0 0 0 3.92-2.12 6.3 6.3 0 0 0 1.55-4.17h1.55v.13a7.79 7.79 0 0 1-4.4 7 7.37 7.37 0 0 1-4 .77c-.14 0-.13-.08-.13-.17v-7.71z" class="cls-8"/>
                <path id="Path_11368" d="M102.68 50.76a5.24 5.24 0 0 1-.75 1.3.88.88 0 0 0 .72.13z" class="cls-21"/>
                <path id="Path_11369" d="M102.59 49.23h.06a1 1 0 0 1 .87.1.12.12 0 1 0 .17-.17 1.28 1.28 0 0 0-1.09-.14.12.12 0 0 0-.08.15.14.14 0 0 0 .07.06z" class="cls-12"/>
                <path id="Path_11370" d="M108.82 52.72c-.14 1.51.37 4 1.51 4.83a4.71 4.71 0 0 1-3.62 2c-3 .41-1.61-1.3-1.61-1.3 1.61-.62 1.44-1.83 1-2.94z" class="cls-21"/>
                <path id="Path_11371" d="M103.3 61.3a44.48 44.48 0 0 1-1.25 4.7 36.539 36.539 0 0 1-1.75 4.53l-.12.28-.19.35a5.929 5.929 0 0 1-.4.62 10.612 10.612 0 0 1-.88 1 18.42 18.42 0 0 1-1.89 1.63A30.82 30.82 0 0 1 92.76 77L92 75.83c1.18-1 2.36-2 3.45-3.06A19.53 19.53 0 0 0 97 71.15a8.219 8.219 0 0 0 .6-.82 2.821 2.821 0 0 0 .21-.38l.08-.18.1-.27c.28-.7.52-1.42.76-2.14s.46-1.46.68-2.18c.42-1.47.81-3 1.16-4.44z" class="cls-13"/>
                <path id="Path_11372" d="M92.9 76.88l-1.44.93-.71-1.21s1.41-1.68 2.26-.49z" class="cls-13"/>
                <path id="Path_11373" d="M92.53 75.63l-.81-.13-.91.2-.24.26.6.09.15.23.2.13z" class="cls-13"/>
                <path id="Path_11374" d="M90.04 77.93l-.79-.63 1.5-.7.71 1.22z" class="cls-13"/>
                <path id="Path_11375" d="M113.3 129.55l-2.51.19-.75-5.77 2.51-.18z" class="cls-21"/>
                <path id="Path_11376" d="M129.38 122.23l-2.18 1.32-3.61-4.52 2.17-1.32z" class="cls-21"/>
                <path id="Path_11377" d="M126.55 123.07l2.07-2a.2.2 0 0 1 .26 0l1.76 1.36a.4.4 0 0 1 0 .56c-.73.68-1.12 1-2 1.85-.55.54-1.32 1.38-2.09 2.12s-1.52 0-1.26-.34a5 5 0 0 0 1.08-3.18.68.68 0 0 1 .18-.37z" class="cls-12"/>
                <path id="Path_11378" d="M110.63 129.38h2.83a.2.2 0 0 1 .2.17l.38 2.23a.4.4 0 0 1-.34.45c-1 0-1.46-.07-2.71-.07-.76 0-2.34.08-3.39.08s-1.14-1.05-.7-1.14a6.66 6.66 0 0 0 3.37-1.56.62.62 0 0 1 .36-.16z" class="cls-12"/>
                <path id="Path_11379" d="M110.04 123.97l.42 3.21 2.48-.42-.38-2.97z" class="cls-15"/>
                <path id="Path_11380" d="M125.76 117.71l-2.17 1.32 1.49 1.87 2.23-1.26z" class="cls-15"/>
                <path id="Path_11381" d="M114.57 72.68l-10.17 1.37c-3.94-14.26-2.78-14.65-2.78-14.65a19.641 19.641 0 0 1 2.34-.93h.14c.66-.19.8-.22 1.67-.42 1.5-.26 2.9-.47 4.62-.62h1.24a5.82 5.82 0 0 0 .6 0h1a1.4 1.4 0 0 1 1.37 1.44.49.49 0 0 1 0 .12c-.88 7.39-.6 9.85-.03 13.69z" class="cls-12"/>
                <path id="Path_11382" d="M103.42 63.77a8.52 8.52 0 0 1-.55 4.35c-.68-2.78-1-4.67-1.23-6a1.647 1.647 0 0 1 1.78 1.65z" class="cls-15"/>
                <path id="Path_11383" d="M101.71 59.36a8.57 8.57 0 0 0-3.32 4.75l3.71 3.39s2.4-4.61 1.77-5.86-1.5-2.64-2.16-2.28z" class="cls-12"/>
                <path id="Path_11384" d="M109.67 49.92c-.19 2.49-.21 3.53-1.49 4.82-1.93 1.93-5 1.24-5.52-1.22-.51-2.21-.12-5.91 2.35-6.91a3.32 3.32 0 0 1 4.39 1.68 3.37 3.37 0 0 1 .27 1.63z" class="cls-21"/>
                <path id="Path_11385" d="M104.54 50.92c.26-.88-1.72-1.89-1.93-3.24-.28-1.75 1.08-3.16 2.35-2.34.51-1.17 4-1.67 5.91-.21 2.15 1.63-.49 3.35 1.66 4.79 1.71 1.16 2 1.87.89 3.25-.81 1 1.27.82.74 2.6s-11.26 2.42-9.83-1.56c1.26-3.51-.33-1.49.21-3.29z" class="cls-12"/>
                <path id="Path_11386" d="M105.15 50.72a2.36 2.36 0 0 1-.45 1.28c-.39.52-.84.38-.94-.1a1.69 1.69 0 0 1 .47-1.59c.49-.31.91-.11.92.41z" class="cls-21"/>
                <path id="Path_11387" d="M113.31 53.26a1.76 1.76 0 0 0 1-1.5 2.53 2.53 0 0 0-1.61-2 1.78 1.78 0 0 1-1-2.18 1.91 1.91 0 0 0-1-2.26v-.07c0-.07 0 0 .06 0a2 2 0 0 1 1 2.35c-.09.82-.17 1.53.93 2.1a2.63 2.63 0 0 1 1.66 2 1.84 1.84 0 0 1-1.06 1.58z" class="cls-12"/>
                <path id="Path_11388" d="M107.08 73.69s4 16.69 5.8 26.27c1.94 10.12 11.28 20.65 11.28 20.65l3.17-1.76s-5.87-9.62-7.78-19.06c-3.87-19.17-1.24-23-5-27.1z" class="cls-14"/>
                <path id="Path_11389" d="M123.85 120.91l3.96-2.21-.58-1.17-4.44 2.05z" class="cls-12"/>
                <path id="Path_11390" d="M109.18 77.31c3.07 2.67 2.74 12.14 2.42 16.39-1.29-6.06-2.84-12.81-3.74-16.71.31-.24.76-.15 1.32.32z" class="cls-15"/>
                <path id="Path_11391" d="M125.69 124.22h.09c.31 0 .68-.49.87-.78a.06.06 0 0 0 0-.06.09.09 0 0 0-.07 0c-.1 0-1 .21-1.11.51a.2.2 0 0 0 0 .2.45.45 0 0 0 .22.13zm.77-.71c-.26.37-.51.59-.69.6a.21.21 0 0 1-.18-.11.09.09 0 0 1 0-.09c.06-.15.52-.31.88-.4z" class="cls-14"/>
                <path id="Path_11392" d="M104.55 74.06s-1.78 19.81-.82 27.36c1 7.86 6.14 25 6.14 25l3.62-.47S110.55 109 110 101.19c-.57-8.49 2-28.14 2-28.14z" class="cls-14"/>
                <path id="Path_11393" d="M109.11 126.59l5.16-.66-.08-1.53-5.6.54z" class="cls-12"/>
                <path id="Path_11394" d="M125.82 123.44a1.92 1.92 0 0 0 .79 0 .11.11 0 0 0 0-.06s-.51-.53-.88-.51a.3.3 0 0 0-.24.12.21.21 0 0 0 0 .26.58.58 0 0 0 .33.19zm.65-.06c-.31 0-.79 0-.88-.2s0-.06 0-.12a.21.21 0 0 1 .16-.08 1.37 1.37 0 0 1 .7.4z" class="cls-14"/>
                <path id="Path_11395" d="M109.7 129.82a3.549 3.549 0 0 0 .79-.09v-.06c0-.01-1.13-.57-1.43-.4a.18.18 0 0 0-.1.16.34.34 0 0 0 .12.29 1 1 0 0 0 .62.1zm.59-.17a1.63 1.63 0 0 1-1.13-.07.23.23 0 0 1-.07-.19.08.08 0 0 1 0-.07c.16-.09.74.13 1.16.33z" class="cls-14"/>
                <path id="Path_11396" d="M110.47 129.74v-.06c0-.06-.12-1.07-.68-1.07a.2.2 0 0 0-.22.17c0 .28.56.82.87 1zm-.62-1c.37 0 .51.6.55.85-.31-.18-.72-.62-.7-.78s0-.06.12-.07z" class="cls-14"/>
                <path id="Path_11397" d="M114.65 72.07l.56.84c0 .07 0 .15-.15.17l-10.67 1.43c-.09 0-.17 0-.18-.08l-.19-.89a.16.16 0 0 1 .16-.14l10.3-1.4a.16.16 0 0 1 .17.07z" class="cls-14"/>
                <path id="Path_11398" fill="#fff" d="M114.65 72.07l.56.84c0 .07 0 .15-.15.17l-10.67 1.43c-.09 0-.17 0-.18-.08l-.19-.89a.16.16 0 0 1 .16-.14l10.3-1.4a.16.16 0 0 1 .17.07z" opacity="0.5"/>
                <path id="Path_11399" d="M113.39 73.41h.28s.09 0 .08-.08l-.25-1.16h-.39s-.09 0-.08.08l.25 1.16a.19.19 0 0 0 .11 0z" class="cls-14"/>
                <path id="Path_11400" d="M106.43 74.35h.27c.06 0 .1 0 .09-.08l-.26-1.15s0-.06-.11 0h-.27c-.06 0-.1 0-.09.08l.25 1.16a.837.837 0 0 1 .12-.01z" class="cls-14"/>
            </g>
            <g id="freepik--Plant--inject-19">
                <g id="freepik--Pot--inject-19">
                    <g id="freepik--pot--inject-19-2">
                        <path id="Path_11401" d="M27.93 132.31c2.05-2.11 3.25-10.71 1.26-12.39H19c-2 1.68-.8 10.28 1.25 12.39l.06.06.07.07.18.17a.1.1 0 0 1 .05 0l.16.11a1.45 1.45 0 0 0 .26.17 6.64 6.64 0 0 0 6.1 0 1.78 1.78 0 0 0 .27-.17l.15-.11.06-.05a1.289 1.289 0 0 0 .17-.16l.09-.08z" class="cls-23"/>
                        <path id="Path_11402" d="M19.9 119.24c-2.32 1.36-2.32 3.56 0 4.91a9.22 9.22 0 0 0 8.4 0c2.33-1.35 2.32-3.55 0-4.91a9.22 9.22 0 0 0-8.4 0z" class="cls-23"/>
                        <g id="Group_3376" opacity="0.1">
                            <path id="Path_11403" d="M19.9 119.24c-2.32 1.36-2.32 3.56 0 4.91a9.22 9.22 0 0 0 8.4 0c2.33-1.35 2.32-3.55 0-4.91a9.22 9.22 0 0 0-8.4 0z" class="cls-8"/>
                        </g>
                        <path id="Path_11404" d="M21 119.9c-1.7 1-1.7 2.6 0 3.61a6.75 6.75 0 0 0 6.17 0c1.7-1 1.7-2.61 0-3.61a6.72 6.72 0 0 0-6.17 0z" class="cls-12"/>
                        <path id="Path_11405" d="M27.19 121.61a6.72 6.72 0 0 0-6.17 0 2.71 2.71 0 0 0-1 .94 2.9 2.9 0 0 0 1 1 6.78 6.78 0 0 0 6.17 0 2.9 2.9 0 0 0 1-1 2.87 2.87 0 0 0-1-.94z" class="cls-11"/>
                    </g>
                    <g id="freepik--Plants--inject-19">
                        <path id="Path_11406" d="M18.47 103.23l4.06 2.77-3.85-1.45a7.21 7.21 0 0 0 .76 3 19.28 19.28 0 0 1 3.92 2.45L20 109a3.8 3.8 0 0 0 .11 1.77 1.271 1.271 0 0 0 .07.24c.18.54.44 1.56.87 2.77a16.93 16.93 0 0 0 1.4 3.06 10.57 10.57 0 0 0 .92 1.37l.07.09c.62-.42 1.28-.83 2-1.23a21.22 21.22 0 0 0 .9-5.39c.3-7.53-5.66-11.42-10.29-12.53a13.76 13.76 0 0 1 2.42 4.08z" class="cls-25"/>
                        <path id="Path_11407" d="M18.47 103.23l4.06 2.77-3.85-1.45a7.21 7.21 0 0 0 .76 3 19.28 19.28 0 0 1 3.92 2.45L20 109a3.8 3.8 0 0 0 .11 1.77 1.271 1.271 0 0 0 .07.24c.18.54.44 1.56.87 2.77a16.93 16.93 0 0 0 1.4 3.06 10.57 10.57 0 0 0 .92 1.37l.07.09c.62-.42 1.28-.83 2-1.23a21.22 21.22 0 0 0 .9-5.39c.3-7.53-5.66-11.42-10.29-12.53a13.76 13.76 0 0 1 2.42 4.08z" class="cls-16"/>
                        <path id="Path_11408" d="M21.71 103.32a5.87 5.87 0 0 1 1.06 1.27 11.479 11.479 0 0 1 .74 1.49 14.61 14.61 0 0 1 .9 3.18 13.92 13.92 0 0 1-.36 6.54.13.13 0 0 0 .07.14.11.11 0 0 0 .14-.07 14.16 14.16 0 0 0 .26-6.63 15.65 15.65 0 0 0-1-3.19 10.28 10.28 0 0 0-.77-1.47 5.38 5.38 0 0 0-1.04-1.26z" class="cls-7"/>
                        <path id="Path_11409" d="M35.92 107.08a23.65 23.65 0 0 0-3.74 5.13l-4.48 1.14 3.64.33-1.68 2.92-3.81.94 3 .38s-.72 3-2.82 4.28c-1.17.72-1.74.84-2.11.52a12.47 12.47 0 0 1-.63-2.89 9.58 9.58 0 0 1 .74-5.8 8 8 0 0 1 1.16-1.86c2.75-3.29 8.07-5.03 10.73-5.09z" class="cls-25"/>
                        <path id="Path_11410" d="M35.92 107.08a23.65 23.65 0 0 0-3.74 5.13l-4.48 1.14 3.64.33-1.68 2.92-3.81.94 3 .38s-.72 3-2.82 4.28c-1.17.72-1.74.84-2.11.52a12.47 12.47 0 0 1-.63-2.89 9.58 9.58 0 0 1 .74-5.8 8 8 0 0 1 1.16-1.86c2.75-3.29 8.07-5.03 10.73-5.09z" opacity="0.15"/>
                        <path id="Path_11411" d="M24.89 115.3a11.9 11.9 0 0 0-.77 3.27 35.62 35.62 0 0 0 .05 4.26.78.78 0 0 1-.22-.12 12.61 12.61 0 0 1-.63-2.89 9.58 9.58 0 0 1 .74-5.8 7.63 7.63 0 0 1 1.16-1.86c2.73-3.28 8.05-5 10.71-5.09a17.25 17.25 0 0 0-10.39 7 8.94 8.94 0 0 0-.65 1.23z" opacity="0.1"/>
                        <path id="Path_11412" d="M31.87 108.52a15.85 15.85 0 0 0-5.29 4 10.16 10.16 0 0 0-1.76 2.84 10 10 0 0 0-.72 3.25 13.36 13.36 0 0 1 .9-3.17 12.41 12.41 0 0 1 1.69-2.82 13.88 13.88 0 0 1 2.38-2.28 17.47 17.47 0 0 1 2.81-1.77z" class="cls-7"/>
                        <path id="Path_11413" d="M12.2 109.92a8 8 0 0 1 1 0 16 16 0 0 1 3.82.71c.46.14.92.31 1.37.49l.68.3a10.92 10.92 0 0 1 3 2 6.92 6.92 0 0 1 1.07 1.34l.12.19.26.5a9.39 9.39 0 0 1 1.1 4.58 5.92 5.92 0 0 1-.49 2.65.39.39 0 0 1-.1.08c-.31.22-.82.13-1.8-.35a6.876 6.876 0 0 1-2.86-3.61l2.62-.6-3.44-.48-1.55-2.06 2.52-.63-3.48-.33a52.321 52.321 0 0 0-3.87-4.77z" class="cls-25"/>
                        <path id="Path_11414" d="M13.18 109.91a16 16 0 0 1 3.82.71 14.078 14.078 0 0 1 1.37.5l.68.29a11.14 11.14 0 0 1 3 2 6.92 6.92 0 0 1 1.07 1.34l.12.19.26.5a9.39 9.39 0 0 1 1.1 4.56 5.92 5.92 0 0 1-.49 2.65.39.39 0 0 1-.1.08.72.72 0 0 1-.2.09 15.51 15.51 0 0 0-2.36-7.82 15.44 15.44 0 0 0-9.25-5.08c.33-.02.65-.02.98-.01z" opacity="0.05"/>
                        <path id="Path_11415" d="M23.82 122.86a15 15 0 0 0-.46-3.83 12.6 12.6 0 0 0-1.48-3.58 9 9 0 0 0-1.25-1.5 11.9 11.9 0 0 0-1.5-1.24 14.54 14.54 0 0 0-3.42-1.81m0 0a18.321 18.321 0 0 1 3.29 1.98 17.1 17.1 0 0 1 1.47 1.23 8.68 8.68 0 0 1 1.26 1.44 12.55 12.55 0 0 1 1.51 3.51 14.86 14.86 0 0 1 .55 3.81z" class="cls-7"/>
                    </g>
                </g>
            </g>
        </g>
    </g>
</svg>
