<svg xmlns="http://www.w3.org/2000/svg" width="160" height="160" viewBox="0 0 160 160">
    <defs>
        <clipPath id="clip-path">
            <rect id="Rectangle_7" width="160" height="160" fill="#d0d0d0" rx="10" transform="translate(198 1124)"/>
        </clipPath>
        <style>
            .cls-4{fill:#ebebeb}.cls-5{fill:#f0f0f0}.cls-6{fill:#f5f5f5}.cls-7{fill:#e6e6e6}.cls-8{fill:#fafafa}.cls-14,.cls-18,.cls-22,.cls-9{fill:#fff}.cls-10,.cls-22{opacity:.4}.cls-14{font-size:11.88px;font-family:Cabin-Bold,Cabin;font-weight:700}.cls-16{fill:#263238}.cls-17{fill:#e15068}.cls-18,.cls-20{opacity:.2}.cls-19{fill:#ffc3bd}
        </style>
    </defs>
    <g id="illustration6" clip-path="url(#clip-path)" transform="translate(-198 -1124)">
        <g id="tatiloley-illustrations-05" transform="translate(198.009 1124.009)">
            <path id="Rectangle_7-2" fill="#ddd" d="M13.78 18.39a648.462 648.462 0 0 1 132.44 0 15.43 15.43 0 0 1 13.52 18.21 239.36 239.36 0 0 0 0 86.8 15.43 15.43 0 0 1-13.52 18.21 648.457 648.457 0 0 1-132.44 0A15.43 15.43 0 0 1 .26 123.4a239.36 239.36 0 0 0 0-86.8 15.43 15.43 0 0 1 13.52-18.21z"/>
            <g id="freepik--background-complete--inject-4">
                <path id="Rectangle_2140" d="M0 0H149.81V0.07H0z" class="cls-4" transform="translate(3.79 123.92)"/>
                <path id="Rectangle_2141" d="M0 0H4.46V0.07H0z" class="cls-4" transform="translate(134.12 128.74)"/>
                <path id="Rectangle_2142" d="M0 0H2.6V0.07H0z" class="cls-4" transform="translate(100.42 129.55)"/>
                <path id="Rectangle_2143" d="M0 0H10.24V0.07H0z" class="cls-4" transform="translate(122.61 125.96)"/>
                <path id="Rectangle_2144" d="M0 0H12.94V0.07H0z" class="cls-4" transform="translate(23.69 127.51)"/>
                <path id="Rectangle_2145" d="M0 0H4.67V0.07H0z" class="cls-4" transform="translate(39.3 127.51)"/>
                <path id="Rectangle_2146" d="M0 0H28.07V0.07H0z" class="cls-4" transform="translate(52.05 126.5)"/>
                <path id="Path_11679" d="M74.79 110.56H16.94a1.72 1.72 0 0 1-1.71-1.71V27.52a1.71 1.71 0 0 1 1.71-1.69h57.85a1.71 1.71 0 0 1 1.72 1.71v81.31a1.72 1.72 0 0 1-1.72 1.71zM16.94 25.89a1.63 1.63 0 0 0-1.63 1.63v81.33a1.63 1.63 0 0 0 1.63 1.63h57.85a1.63 1.63 0 0 0 1.64-1.63V27.52a1.63 1.63 0 0 0-1.64-1.63z" class="cls-4"/>
                <path id="Path_11680" d="M139.6 110.56H81.75a1.72 1.72 0 0 1-1.75-1.71V27.52a1.71 1.71 0 0 1 1.71-1.69h57.89a1.71 1.71 0 0 1 1.71 1.69v81.33a1.72 1.72 0 0 1-1.71 1.71zM81.75 25.89a1.64 1.64 0 0 0-1.64 1.63v81.33a1.64 1.64 0 0 0 1.64 1.63h57.85a1.63 1.63 0 0 0 1.64-1.63V27.52a1.63 1.63 0 0 0-1.64-1.63z" class="cls-4"/>
                <path id="Rectangle_2147" d="M0 0H2.37V16.21H0z" class="cls-5" transform="translate(70.15 105.52)"/>
                <path id="Rectangle_2148" d="M0 0H48.68V2.19H0z" class="cls-5" transform="translate(22.28 121.73)"/>
                <path id="Rectangle_2149" d="M0 0H49.44V16.21H0z" class="cls-6" transform="translate(20.71 105.52)"/>
                <path id="Rectangle_2150" d="M0 0H43.04V9.26H0z" class="cls-5" transform="translate(23.91 108.35)"/>
                <rect id="Rectangle_2151" width="22.36" height="1.55" class="cls-6" rx=".71" transform="translate(34.25 108.03)"/>
                <path id="Rectangle_2152" d="M0 0H50.52V1.45H0z" class="cls-5" transform="translate(19.63 104.08)"/>
                <path id="Rectangle_2153" d="M0 0H3.5V1.45H0z" class="cls-7" transform="translate(70.15 104.08)"/>
                <path id="Rectangle_2154" d="M0 0H63.35V48.58H0z" class="cls-7" transform="translate(68.34 34.11)"/>
                <path id="Path_11681" d="M62.41 32.22h72.86a.55.55 0 0 1 .55.55.55.55 0 0 1-.55.55H62.41a.56.56 0 0 1-.55-.55.56.56 0 0 1 .55-.55z" class="cls-7"/>
                <path id="Rectangle_2155" d="M0 0H64.6V48.58H0z" class="cls-5" transform="translate(66 34.11)"/>
                <path id="Path_11682" d="M68.34 82.7h63.35v1.55H66.73z" class="cls-7"/>
                <path id="Path_11683" d="M62.08 82.7h64.6l-1.62 1.55H60.47z" class="cls-5"/>
                <path id="Rectangle_2156" d="M0 0H58.02V42.01H0z" class="cls-8" transform="translate(69.28 37.4)"/>
                <path id="Path_11684" d="M107.94 79.41L88.65 37.4h-9.11l19.3 42.01z" class="cls-9"/>
                <path id="Path_11685" d="M96.88 79.41L77.58 37.4h-3.55l19.3 42.01z" class="cls-9"/>
                <path id="Rectangle_2157" d="M0 0H0.42V42.01H0z" class="cls-7" transform="translate(69.29 37.4)"/>
                <g id="Group_3400" class="cls-10">
                    <path id="Rectangle_2158" d="M0 0H5.66V40.09H0z" class="cls-5" transform="translate(127.27 31.24)"/>
                    <path id="Rectangle_2159" d="M0 0H4.41V40.09H0z" class="cls-7" transform="translate(125.06 31.24)"/>
                    <path id="Rectangle_2160" d="M0 0H5.66V40.09H0z" class="cls-5" transform="translate(121.61 31.24)"/>
                    <path id="Rectangle_2161" d="M0 0H4.41V40.09H0z" class="cls-7" transform="translate(119.41 31.24)"/>
                    <path id="Rectangle_2162" d="M0 0H5.66V40.09H0z" class="cls-5" transform="translate(115.95 31.24)"/>
                </g>
                <g id="Group_3401" class="cls-10">
                    <path id="Rectangle_2163" d="M0 0H3.26V40.09H0z" class="cls-5" transform="translate(71.39 31.24)"/>
                    <path id="Rectangle_2164" d="M0 0H2.54V40.09H0z" class="cls-7" transform="translate(70.12 31.24)"/>
                    <path id="Rectangle_2165" d="M0 0H3.26V40.09H0z" class="cls-5" transform="translate(68.13 31.24)"/>
                    <path id="Rectangle_2166" d="M0 0H2.54V40.09H0z" class="cls-7" transform="translate(66.86 31.24)"/>
                    <path id="Rectangle_2167" d="M0 0H3.26V40.09H0z" class="cls-5" transform="translate(64.87 31.24)"/>
                </g>
                <path id="Rectangle_2168" d="M0 0H26.03V66.5H0z" class="cls-6" transform="translate(24.86 31.26)"/>
                <path id="Rectangle_2169" fill="#e0e0e0" d="M0 0H0.71V66.5H0z" transform="translate(50.89 31.26)"/>
                <path id="Rectangle_2170" d="M0 0H21.21V61.68H0z" class="cls-9" transform="translate(27.27 33.67)"/>
                <path id="Path_11686" d="M34.73 95.35l7.04-61.68h4.06L38.8 95.35z" class="cls-8"/>
                <path id="Path_11687" d="M31.22 95.35l7.03-61.68h2.03l-7.03 61.68z" class="cls-8"/>
                <circle id="Ellipse_1321" cx="21.28" cy="21.28" r="21.28" fill="#e1bc13" transform="translate(8.52 55.36)"/>
                <circle id="Ellipse_1322" cx="19.95" cy="19.95" r="19.95" fill="#f8d608" transform="translate(9.85 56.69)"/>
                <g id="Group">
                    <text id="_12" class="cls-14" transform="translate(23.48 73.79)">
                        <tspan x="0" y="0">12</tspan>
                    </text>
                    <text id="T" fill="#fff" font-family="Cabin-Bold, Cabin" font-size="11.88px" font-weight="700" letter-spacing="-0.05em" transform="translate(14.02 84.68)">
                        <tspan x="0" y="0">T</tspan>
                    </text>
                    <text id="aksit" class="cls-14" transform="translate(19.97 84.68)">
                        <tspan x="0" y="0">aksit</tspan>
                    </text>
                </g>
            </g>
            <g id="freepik--Shadow--inject-4">
                <ellipse id="freepik--path--inject-4" cx="58.09" cy="3.39" class="cls-6" rx="58.09" ry="3.39" transform="translate(20.6 130.67)"/>
            </g>
            <g id="freepik--Device--inject-4">
                <path id="Path_11688" d="M123.05 134.06h-35a3.52 3.52 0 0 1-3.55-3.48v-.31l4.89-74a4.1 4.1 0 0 1 4-3.79h35a3.51 3.51 0 0 1 3.61 3.46v.31l-4.88 74a4.12 4.12 0 0 1-4.07 3.81z" class="cls-16"/>
                <path id="Path_11689" d="M130.41 72.36h-4.23a.85.85 0 0 1-.86-.83v-.08l.43-6.41a1 1 0 0 1 1-.9H131a.84.84 0 0 1 .85.84V65l-.42 6.41a1 1 0 0 1-1.02.95z" class="cls-16"/>
                <path id="Rectangle_2171" d="M0 0H1.55V0.3H0z" class="cls-17" transform="translate(101.04 51.41)"/>
                <path id="Rectangle_2172" d="M0 0H5.63V0.3H0z" class="cls-17" transform="translate(93.5 51.41)"/>
                <path id="Path_11690" d="M122.51 134.06h-35a3.52 3.52 0 0 1-3.51-3.48v-.31l4.9-74a4.1 4.1 0 0 1 4-3.79h35a3.51 3.51 0 0 1 3.52 3.5v.29l-4.87 74a4.13 4.13 0 0 1-4.04 3.79z" class="cls-17"/>
                <path id="Path_11691" d="M124.1 125.44h-37a2 2 0 0 1-2-2 1.091 1.091 0 0 1 0-.18l4.25-64.44a2.33 2.33 0 0 1 2.28-2.15h37a2 2 0 0 1 2 2v.18l-4.26 64.44a2.34 2.34 0 0 1-2.27 2.15z" class="cls-9"/>
                <path id="Path_11692" d="M117.2 56.69h-7.36l-17.81 68.75h7.35z" class="cls-8"/>
                <path id="Path_11693" d="M123.67 56.69H120l-17.81 68.75h3.67z" class="cls-8"/>
                <path id="Path_11694" d="M118.79 104.13l-8-30.23a3.15 3.15 0 0 0-3.79-2.23l-18.91 5-2.52 39.51 31-8.2a3.15 3.15 0 0 0 2.22-3.85z" class="cls-5"/>
                <ellipse id="Ellipse_1323" cx="2.42" cy="2.27" class="cls-18" rx="2.42" ry="2.27" transform="rotate(-44.03 210.524 -61.693)"/>
                <path id="Path_11695" d="M111.24 54.45a1.06 1.06 0 0 1-1 1 .9.9 0 0 1-.9-.9v-.07a1.06 1.06 0 0 1 1-1 .9.9 0 0 1 .9.9z" class="cls-18"/>
                <path id="Path_11696" d="M110.8 54.45a.57.57 0 0 1-.57.53.49.49 0 0 1-.5-.48.56.56 0 0 1 .56-.53.48.48 0 0 1 .5.48z" class="cls-18"/>
            </g>
            <g id="freepik--Character--inject-4">
                <path id="Path_11697" d="M54.52 50.71c1.11-2.75.71-6.09-2.46-6.84a4.61 4.61 0 0 0-5.62 3.32 4.7 4.7 0 0 0-.14 1.35c.12 3 2.1 5.49-1.36 7.66s-3.08 8.72 3.6 7.46S51.61 59 51.61 59s-1.64 1.33-2.17 0c-.67-1.83 3.78-5.07 5.08-8.29z" class="cls-16"/>
                <path id="Path_11698" d="M42.76 59.72h-.15a4.27 4.27 0 0 1 1.89-3.06 4.68 4.68 0 0 0 2-3 6.66 6.66 0 0 0-.07-2.94 5.55 5.55 0 0 1 .23-3.73l.13.07a5.46 5.46 0 0 0-.21 3.64 6.77 6.77 0 0 1 .06 3 4.86 4.86 0 0 1-2.06 3.1 4.12 4.12 0 0 0-1.82 2.92z" class="cls-16"/>
                <path id="Path_11699" d="M63 65.8a.7.7 0 0 0 .09.4l.1.42c.07.28.15.57.24.85.17.57.35 1.14.55 1.7a35.859 35.859 0 0 0 1.35 3.34l.38.79a1.22 1.22 0 0 0 .27.37 2.5 2.5 0 0 0 1.16.52 10.71 10.71 0 0 0 3.39 0l.4 1.27a10.89 10.89 0 0 1-1.93.63 7.72 7.72 0 0 1-2.09.19 4.39 4.39 0 0 1-2.33-.73 3.49 3.49 0 0 1-1-1v-.08l-.06-.11-.13-.21-.24-.42a29.29 29.29 0 0 1-1.65-3.55c-.23-.59-.45-1.22-.63-1.85-.09-.3-.18-.63-.26-1s-.16-.63-.22-1z" class="cls-19"/>
                <path id="Path_11700" d="M60.71 61.61c3 1.35 3 5.88 3 5.88l-3.19 1.92s-2.39-3.55-2.21-5.16.69-3.39 2.4-2.64z" class="cls-17"/>
                <path id="Path_11701" d="M61.19 65.48c-.83-.84-1.56.13-2.22 1.2a25.249 25.249 0 0 0 1.55 2.73l1.31-.78a3.36 3.36 0 0 0-.64-3.15z" class="cls-20"/>
                <path id="Path_11702" d="M70.24 74.3l2.13-1.06v2.78a3.15 3.15 0 0 1-2.64-.84z" class="cls-19"/>
                <path id="Path_11703" d="M74.65 73.73l-.36 2.07-1.9.22-.02-2.78z" class="cls-19"/>
                <path id="Path_11704" d="M50.77 131.85l2.63.25 1.23-6.12-2.64-.25z" class="cls-19"/>
                <path id="Path_11705" d="M33.52 124.67l2.14 1.56 3.57-5.06-2.14-1.56z" class="cls-19"/>
                <path id="Path_11706" d="M36.44 125.26l-1.76-2.42a.22.22 0 0 0-.27-.06l-2.11 1.12a.42.42 0 0 0-.16.58c.63.83 1 1.2 1.75 2.27.48.65 1.44 2.16 2.1 3.06s1.58.3 1.39-.13a7.62 7.62 0 0 1-.83-4 .67.67 0 0 0-.11-.42z" class="cls-16"/>
                <path id="Path_11707" d="M53.75 131.3h-3.16a.26.26 0 0 0-.25.2l-.69 2.5a.4.4 0 0 0 .27.48h7.39c1.16 0 1.4-1.17.92-1.28a8.56 8.56 0 0 1-4-1.75.7.7 0 0 0-.48-.15z" class="cls-16"/>
                <path id="Path_11708" d="M54.63 125.98l-.64 3.16h-2.68l.68-3.41z" class="cls-20"/>
                <path id="Path_11709" d="M37.09 119.61l2.14 1.56-1.84 2.61-2.14-1.56z" class="cls-20"/>
                <path id="Path_11710" d="M62 64a101.058 101.058 0 0 1-2.82 13.75l-10.77-.93c.52-4 .76-6.66-.25-14.31a1.87 1.87 0 0 1 1.61-2.09h.12c.78 0 1.7-.07 2.63 0a33.5 33.5 0 0 1 4.89.42c1 .17 2 .42 2.78.63A2.43 2.43 0 0 1 62 64z" class="cls-17"/>
                <path id="Path_11711" d="M48.4 64.75c.13 1.2.24 2.27.3 3.23 1-.09 1.72-1.18 1.79-3.45-.37-1.1-1.25-.7-2.09.22z" class="cls-20"/>
                <path id="Path_11712" d="M59.14 77.75s3.64 16.12 1.2 27.49c-1.63 7.61-5.25 23-5.25 23l-4.59-.12s2.19-16.13 3.11-22.47c1.57-10.85-2.37-28.55-2.37-28.55z" class="cls-16"/>
                <path id="Path_11713" d="M54.94 81l-2.3 3.62A113.074 113.074 0 0 1 54 97.6c3.19-5.78 1.66-13.53.94-16.6z" class="cls-20"/>
                <path id="Path_11714" d="M55.75 128.46l-5.68-.15.33-1.74 5.79.27z" class="cls-17"/>
                <path id="Path_11715" d="M56.79 77.58S54.65 94.67 50 104c-3.74 7.54-11.57 19.52-11.57 19.52l-2.86-2.3S40.48 108 43.26 103c6.82-12.29 1.24-21.65 5.11-26.16z" class="cls-16"/>
                <rect id="Rectangle_2173" width="61.52" height="37.55" fill="#2e7dbf" rx="3.14" transform="rotate(-22.79 234.704 -76.007)"/>
                <rect id="Rectangle_2174" width="13.84" height="8.45" class="cls-18" rx="1.51" transform="rotate(-22.79 243.157 -88.73)"/>
                <rect id="Rectangle_2175" width="11.73" height="3.05" class="cls-22" rx=".57" transform="rotate(-22.79 295.124 -99.064)"/>
                <rect id="Rectangle_2176" width="11.73" height="3.05" class="cls-22" rx=".57" transform="rotate(-22.79 288.216 -133.266)"/>
                <rect id="Rectangle_2177" width="11.73" height="3.05" class="cls-22" rx=".57" transform="rotate(-22.79 281.333 -167.463)"/>
                <rect id="Rectangle_2178" width="11.73" height="3.05" class="cls-22" rx=".57" transform="rotate(-22.79 274.455 -201.687)"/>
                <g id="Group_3402" opacity="0.6">
                    <circle id="Ellipse_1324" cx="4.22" cy="4.22" r="4.22" class="cls-16" transform="translate(95.81 68.01)"/>
                    <circle id="Ellipse_1325" cx="4.22" cy="4.22" r="4.22" class="cls-9" transform="translate(90.69 70.15)"/>
                </g>
                <path id="Path_11716" d="M38.74 123.84l-3.67-2.77.9-1.62 3.91 3.03z" class="cls-17"/>
                <path id="Path_11717" d="M48.26 76.18l-.57.92c0 .07 0 .15.17.16l11.29 1c.1 0 .18 0 .19-.09l.18-1c0-.06-.06-.13-.17-.14l-10.9-.94a.2.2 0 0 0-.19.09z" class="cls-17"/>
                <path id="Path_11718" d="M48.26 76.18l-.57.92c0 .07 0 .15.17.16l11.29 1c.1 0 .18 0 .19-.09l.18-1c0-.06-.06-.13-.17-.14l-10.9-.94a.2.2 0 0 0-.19.09z" opacity="0.5"/>
                <path id="Path_11719" d="M49.63 77.52h-.3a.09.09 0 0 1-.1-.08l.25-1.24a.166.166 0 0 1 .12-.05h.3c.06 0 .1 0 .09.07l-.24 1.24a.11.11 0 0 1-.12.06z" class="cls-17"/>
                <path id="Path_11720" d="M58.32 78.27h-.3a.09.09 0 0 1-.1-.08l.25-1.24a.11.11 0 0 1 .12-.05h.3c.06 0 .1 0 .09.08l-.24 1.24a.166.166 0 0 1-.12.05z" class="cls-17"/>
                <path id="Path_11721" d="M54 77.9h-.3c-.06 0-.1 0-.09-.07l.25-1.24s.05-.07.11-.06h.3c.06 0 .1 0 .09.07l-.24 1.24z" class="cls-17"/>
                <path id="Path_11722" d="M37.12 126.59H37c-.32-.07-.6-.62-.74-.94a.06.06 0 0 1 0-.06c.11 0 1 .38 1.07.71a.18.18 0 0 1-.07.19.38.38 0 0 1-.14.1zm-.7-.88c.2.45.43.73.61.77a.26.26 0 0 0 .23-.08.1.1 0 0 0 0-.1c0-.2-.57-.46-.88-.59z" class="cls-17"/>
                <path id="Path_11723" d="M37.14 125.76a2 2 0 0 1-.84-.09s.64-.47 1-.39a.31.31 0 0 1 .22.16.23.23 0 0 1 0 .27.7.7 0 0 1-.38.05zm-.7-.16c.3.08.86.09 1-.06s.05-.07 0-.14a.19.19 0 0 0-.14-.11 1.57 1.57 0 0 0-.86.31z" class="cls-17"/>
                <path id="Path_11724" d="M55.15 131.81a4.12 4.12 0 0 1-.86-.1.06.06 0 0 1 0-.07c.13-.07 1.27-.6 1.56-.4a.21.21 0 0 1 .08.16.39.39 0 0 1-.16.3 1 1 0 0 1-.62.11zm-.68-.18a1.93 1.93 0 0 0 1.22 0 .35.35 0 0 0 .12-.22v-.07a5.029 5.029 0 0 0-1.34.29z" class="cls-17"/>
                <path id="Path_11725" d="M54.3 131.71v-.05c0-.05.27-1.19.9-1.11a.177.177 0 0 1 .2.16c0 .3-.68.86-1 1zm.78-1.07c-.4 0-.63.66-.7.92.37-.2.9-.67.86-.85 0 0 0-.06-.11-.07z" class="cls-17"/>
                <path id="Path_11726" d="M49.56 64.8l-.15.23-.18.25c-.11.18-.23.35-.34.54-.23.35-.44.73-.65 1.1a20.681 20.681 0 0 0-1.09 2.34 20.421 20.421 0 0 0-.79 2.44l-.14.6a.4.4 0 0 0 0 .16 3.16 3.16 0 0 0 .45.9 14.331 14.331 0 0 0 1.62 2c.6.63 1.26 1.25 1.93 1.86s1.35 1.2 2 1.77 1.4 1.17 2.1 1.73l-.75 1.11A48.919 48.919 0 0 1 49 78.65c-.75-.56-1.49-1.15-2.2-1.79a16.59 16.59 0 0 1-2-2.16 5.48 5.48 0 0 1-.84-1.54 2.67 2.67 0 0 1-.15-1.16v-.41l.06-.36a20.141 20.141 0 0 1 .75-2.84 24.651 24.651 0 0 1 1.16-2.7c.23-.43.47-.86.74-1.27.13-.21.26-.42.4-.63l.22-.3.25-.32z" class="cls-19"/>
                <path id="Path_11727" d="M49.3 60.58c-2.06.54-4 5.52-4 5.52l2.66 2.44S52.1 64.72 52 63c-.16-1.46-1-2.86-2.7-2.42z" class="cls-17"/>
                <path id="Path_11728" d="M52.48 60.28a5.54 5.54 0 0 1-1.15.11c-.08 1.48.87 2.91 3.21 4.82a3.12 3.12 0 0 1 1.79-2.12z" class="cls-20"/>
                <path id="Path_11729" d="M57.37 60.75a3.841 3.841 0 0 1 .92.19 3.8 3.8 0 0 1-.28 4.2c-.5-1.8-1.69-2-1.69-2z" class="cls-20"/>
                <path id="Path_11730" d="M52.48 60.28h-1.33c-.44.67 1.06 2.52 3.39 4.44.56-1.75 1.8-1.64 1.8-1.64z" class="cls-9"/>
                <path id="Path_11731" d="M57.37 60.75a3.841 3.841 0 0 1 .92.19c.43.67 1.37 2.48.09 3.93a2.22 2.22 0 0 0-2.06-1.77z" class="cls-9"/>
                <path id="Path_11732" d="M53.44 54.9c.17 1.6.23 4.5-1 5.47 0 0 .62 1.8 3.84 2.73 2-1.12 1-2.31 1-2.31-1.72-.57-1.56-1.87-1.15-3.06z" class="cls-19"/>
                <path id="Path_11733" d="M54.57 56.06l1.65 1.67a4.84 4.84 0 0 0-.23.85c-.66-.15-1.62-.84-1.63-1.55a2.72 2.72 0 0 1 .21-.97z" class="cls-20"/>
                <path id="Path_11734" d="M57.08 48.51c.53-.58 1.57.16 2 1.58.57 2.09-1 2.24-1.76 1.19a2.3 2.3 0 0 1-.24-2.77z" class="cls-16"/>
                <path id="Path_11735" d="M58.71 52.19a5.86 5.86 0 0 1 1.47.76c-.26-.63-.49-1.02-1.47-.76z" class="cls-16"/>
                <path id="Path_11736" d="M59 52.29a4.64 4.64 0 0 1 1.29-.07c-.41-.33-.72-.49-1.29.07z" class="cls-16"/>
                <path id="Path_11737" d="M52 52.4c.67 2.56.9 3.66 2.47 4.73A3.38 3.38 0 0 0 60 54.65c.1-2.43-1-6.2-3.75-6.73A3.58 3.58 0 0 0 52 50.73a3.49 3.49 0 0 0 0 1.67z" class="cls-19"/>
                <path id="Path_11738" d="M53.26 49l-.74.86a1.29 1.29 0 0 1-1.8.14 1.28 1.28 0 0 1-.13-1.8l.74-.86a1.27 1.27 0 0 1 1.79-.13 1.28 1.28 0 0 1 .14 1.79z" class="cls-9"/>
                <path id="Path_11739" d="M53.94 50l-.9.45a1.55 1.55 0 0 1-2.07-.7 1.55 1.55 0 0 1 .7-2.08l.9-.45a1.55 1.55 0 0 1 2.08.71 1.55 1.55 0 0 1-.71 2.07z" class="cls-17"/>
                <path id="Path_11740" d="M52.79 54.32s1.85-.43 1.06-3.13a.71.71 0 0 1 .49-.87h.18c2.08-.06 4-.5 3.75-1.7-.35-1.52-5.53-2.7-6.47.35-1.8.41-1.91 4.03.99 5.35z" class="cls-16"/>
                <path id="Path_11741" d="M52.8 53.78a6.28 6.28 0 0 1 1.48.76c-.28-.63-.5-1.01-1.48-.76z" class="cls-16"/>
                <path id="Path_11742" d="M53.1 53.89a4.36 4.36 0 0 1 1.3-.07c-.4-.32-.73-.49-1.3.07z" class="cls-16"/>
                <path id="Path_11743" d="M51.6 54.41a1.94 1.94 0 0 0 1.14.94c.65.2 1-.38.82-1s-.68-1.35-1.33-1.25a.86.86 0 0 0-.74 1 .76.76 0 0 0 .11.31z" class="cls-19"/>
                <path id="Path_11744" d="M53.41 80.22l2.39.17L54.72 83s-2-.63-2.08-2.09z" class="cls-19"/>
                <path id="Path_11745" d="M56.72 81.84l-1.16 1.75-.84-.64 1.09-2.56z" class="cls-19"/>
            </g>
        </g>
    </g>
</svg>
