<svg xmlns="http://www.w3.org/2000/svg" width="160" height="160" viewBox="0 0 160 160">
    <defs>
        <clipPath id="clip-path">
            <rect id="Rectangle_7" width="160" height="160" fill="#d0d0d0" rx="10" transform="translate(198 1124)"/>
        </clipPath>
        <style>
            .cls-13,.cls-4{fill:#fafafa}.cls-5{fill:#e0e0e0}.cls-6{fill:#ebebeb}.cls-8{fill:#f5f5f5}.cls-25{opacity:.4}.cls-10{fill:#e15068}.cls-11{opacity:.3}.cls-13,.cls-15{opacity:.1}.cls-16{opacity:.8}.cls-18{fill:#e4897b}.cls-19{fill:#f8d608}.cls-20{fill:#ecc214}.cls-21{fill:#263238}.cls-22{fill:#ffc3bd}.cls-23{fill:#2e7dbf}.cls-24{fill:#1d5583}.cls-25{fill:#ce6f64}.cls-27{fill:#455a64}
        </style>
    </defs>
    <g id="illustration9" clip-path="url(#clip-path)" transform="translate(-198 -1124)">
        <g id="tatiloley-illustrations-08" transform="translate(198.009 1124.009)">
            <path id="Rectangle_7-2" fill="#ddd" d="M13.78 18.39a648.462 648.462 0 0 1 132.44 0 15.43 15.43 0 0 1 13.52 18.21 239.36 239.36 0 0 0 0 86.8 15.43 15.43 0 0 1-13.52 18.21 648.457 648.457 0 0 1-132.44 0A15.43 15.43 0 0 1 .26 123.4a239.36 239.36 0 0 0 0-86.8 15.43 15.43 0 0 1 13.52-18.21z"/>
            <g id="freepik--background-complete--inject-78">
                <path id="Rectangle_2231" d="M0 0H155.74V0.08H0z" class="cls-4" transform="translate(2.13 123.96)"/>
                <path id="Rectangle_2232" d="M0 0H7.73V0.08H0z" class="cls-5" transform="translate(126.22 127.35)"/>
                <path id="Rectangle_2233" d="M0 0H2.61V0.08H0z" class="cls-5" transform="translate(136.24 127.3)"/>
                <path id="Rectangle_2234" d="M0 0H16.19V0.08H0z" class="cls-5" transform="translate(89.36 127.83)"/>
                <path id="Rectangle_2235" d="M0 0H2.41V0.08H0z" class="cls-5" transform="translate(83.12 128.67)"/>
                <path id="Rectangle_2236" d="M0 0H4.16V0.08H0z" class="cls-5" transform="translate(32.84 126.21)"/>
                <path id="Rectangle_2237" d="M0 0H21.11V0.08H0z" class="cls-5" transform="translate(38.73 126.21)"/>
                <path id="Rectangle_2238" d="M0 0H14.68V0.08H0z" class="cls-5" transform="translate(27.16 128.09)"/>
                <path id="Path_12003" d="M76 110.06H15.81a1.78 1.78 0 0 1-1.81-1.77V23.74A1.77 1.77 0 0 1 15.81 22H76a1.78 1.78 0 0 1 1.78 1.78v84.53a1.78 1.78 0 0 1-1.78 1.75zM15.81 22a1.7 1.7 0 0 0-1.7 1.7v84.55a1.71 1.71 0 0 0 1.7 1.7H76a1.71 1.71 0 0 0 1.7-1.7V23.74A1.7 1.7 0 0 0 76 22z" class="cls-5"/>
                <path id="Path_12004" d="M143.33 110.06H83.18a1.78 1.78 0 0 1-1.78-1.77V23.74A1.77 1.77 0 0 1 83.18 22h60.15a1.78 1.78 0 0 1 1.77 1.76v84.55a1.77 1.77 0 0 1-1.77 1.75zM83.18 22a1.7 1.7 0 0 0-1.7 1.7v84.55a1.71 1.71 0 0 0 1.7 1.7h60.15a1.71 1.71 0 0 0 1.7-1.7V23.74a1.7 1.7 0 0 0-1.7-1.7z" class="cls-5"/>
                <path id="Rectangle_2239" d="M0 0H11V19.97H0z" class="cls-5" transform="translate(108.58 103.98)"/>
                <path id="Rectangle_2240" d="M0 0H13.13V19.97H0z" class="cls-6" transform="translate(119.58 103.98)"/>
                <path id="Rectangle_2241" fill="#e0e0e0" d="M0 0H24.25V0.9H0z" opacity="0.7" transform="translate(108.58 105.68)"/>
                <path id="Rectangle_2242" d="M0 0H11.61V4.16H0z" class="cls-5" transform="translate(107.97 101.89)"/>
                <path id="Rectangle_2243" d="M0 0H13.74V4.16H0z" class="cls-6" transform="translate(119.58 101.89)"/>
                <path id="Rectangle_2244" d="M0 0H37.04V44.2H0z" class="cls-5" transform="translate(25.53 27.89)"/>
                <path id="Rectangle_2245" d="M0 0H37.95V44.2H0z" class="cls-6" transform="translate(26.33 27.89)"/>
                <path id="Rectangle_2246" d="M0 0H37.04V3.15H0z" class="cls-5" transform="translate(25.53 72.09)"/>
                <path id="Rectangle_2247" d="M0 0H37.95V3.15H0z" class="cls-6" transform="translate(29.15 72.09)"/>
                <path id="Rectangle_2248" d="M0 0H33.2V39.45H0z" class="cls-8" transform="translate(28.7 30.27)"/>
                <path id="Path_12005" d="M32.77 69.72L46.7 30.27h6.57L39.35 69.72z" class="cls-4"/>
                <path id="Path_12006" d="M29.8 56.33a.16.16 0 0 1-.17-.17V31.81a.16.16 0 0 1 .17-.17.18.18 0 0 1 .17.17v24.35a.17.17 0 0 1-.17.17z" class="cls-6"/>
                <path id="Path_12007" d="M40.76 69.72l13.93-39.45h2.56L43.32 69.72z" class="cls-4"/>
                <path id="Rectangle_2249" d="M0 0H0.3V39.45H0z" class="cls-5" transform="translate(61.59 30.27)"/>
                <path id="Path_12008" d="M64.83 33.3H27.79l-.22-2.11h37.04z" class="cls-5"/>
                <path id="Path_12009" d="M64.83 34.85H27.79l-.22-2.12h37.04z" class="cls-5"/>
                <path id="Path_12010" d="M64.83 36.7H27.79l-.22-2.11h37.04z" class="cls-5"/>
                <path id="Path_12011" d="M64.83 38.77H27.79l-.22-2.11h37.04z" class="cls-5"/>
                <path id="Path_12012" d="M64.83 41.24H27.79l-.22-2.11h37.04z" class="cls-5"/>
                <path id="Path_12013" d="M64.83 44.03H27.79l-.22-2.12h37.04z" class="cls-5"/>
                <path id="Rectangle_2250" d="M0 0H37.04V44.2H0z" class="cls-5" transform="translate(92.9 27.89)"/>
                <path id="Rectangle_2251" d="M0 0H37.95V44.2H0z" class="cls-6" transform="translate(93.7 27.89)"/>
                <path id="Rectangle_2252" d="M0 0H37.04V3.15H0z" class="cls-5" transform="translate(92.9 72.09)"/>
                <path id="Rectangle_2253" d="M0 0H37.95V3.15H0z" class="cls-6" transform="translate(96.52 72.09)"/>
                <path id="Rectangle_2254" d="M0 0H33.2V39.45H0z" class="cls-8" transform="translate(96.07 30.27)"/>
                <path id="Path_12014" d="M100.15 69.72l13.92-39.45h6.57l-13.92 39.45z" class="cls-4"/>
                <path id="Path_12015" d="M97.17 56.33a.17.17 0 0 1-.17-.17V31.81a.17.17 0 0 1 .17-.17.18.18 0 0 1 .17.17v24.35a.17.17 0 0 1-.17.17z" class="cls-6"/>
                <path id="Path_12016" d="M108.13 69.72l13.93-39.45h2.56L110.7 69.72z" class="cls-4"/>
                <path id="Rectangle_2255" d="M0 0H0.3V39.45H0z" class="cls-5" transform="translate(128.97 30.27)"/>
                <path id="Path_12017" d="M132.21 33.3H95.16l-.22-2.11h37.05z" class="cls-5"/>
                <path id="Path_12018" d="M132.21 34.85H95.16l-.22-2.12h37.05z" class="cls-5"/>
                <path id="Path_12019" d="M132.21 36.7H95.16l-.22-2.11h37.05z" class="cls-5"/>
                <path id="Path_12020" d="M132.21 38.77H95.16l-.22-2.11h37.05z" class="cls-5"/>
                <path id="Path_12021" d="M132.21 41.24H95.16l-.22-2.11h37.05z" class="cls-5"/>
                <path id="Path_12022" d="M132.21 44.03H95.16l-.22-2.12h37.05z" class="cls-5"/>
                <path id="Rectangle_2256" d="M0 0H7.4V28.01H0z" class="cls-5" transform="translate(93.8 95.94)"/>
                <path id="Path_12023" d="M99.78 123.96h1.41v-3.44h-2.88z" class="cls-8"/>
                <path id="Rectangle_2257" d="M0 0H7.4V28.01H0z" class="cls-5" transform="translate(22 95.94)"/>
                <path id="Rectangle_2258" d="M0 0H73.02V26.13H0z" class="cls-8" transform="translate(28.18 95.94)"/>
                <path id="Rectangle_2259" d="M0 0H34.95V18.66H0z" class="cls-5" transform="translate(65.15 97.25)"/>
                <path id="Rectangle_2260" d="M0 0H34.95V18.66H0z" class="cls-5" transform="translate(29.27 97.25)"/>
                <path id="Rectangle_2261" d="M0 0H34.95V2.08H0z" class="cls-5" transform="translate(65.15 117.77)"/>
                <path id="Rectangle_2262" d="M0 0H34.95V2.08H0z" class="cls-5" transform="translate(29.26 117.78)"/>
                <path id="Path_12024" d="M59.05 98.37H34.44a4.07 4.07 0 0 1-2.93-1.25H62a4.05 4.05 0 0 1-2.95 1.25z" class="cls-8"/>
                <path id="Path_12025" d="M95.07 98.37H70.46a4.07 4.07 0 0 1-2.93-1.25H98a4 4 0 0 1-2.93 1.25z" class="cls-8"/>
                <path id="Path_12026" d="M29.58 123.96h-1.41v-3.44h2.88z" class="cls-8"/>
                <path id="Rectangle_2263" fill="#e0e0e0" d="M0 0H8.24V17.2H0z" opacity="0.4" transform="translate(73.5 78.74)"/>
                <path id="Path_12027" d="M88.65 95.94H74.71L73.4 77.37h13.93z" class="cls-5"/>
                <path id="Path_12028" d="M90.23 95.94H75.11L73.8 77.37h15.12z" class="cls-8"/>
                <path id="Path_12029" d="M75.81 95.23L74.6 78.08h13.62l1.22 17.15z" class="cls-4"/>
                <path id="Path_12030" d="M79.11 91.39l-.67-9.47h6.48l.67 9.47z" class="cls-8"/>
                <circle id="Ellipse_1335" cx="3.62" cy="3.62" r="3.62" class="cls-6" transform="translate(48.14 85.65)"/>
                <circle id="Ellipse_1336" cx="3.62" cy="3.62" r="3.62" class="cls-6" transform="translate(54.34 87.38)"/>
                <circle id="Ellipse_1337" cx="2.41" cy="2.41" r="2.41" class="cls-6" transform="translate(60.79 87.08)"/>
                <circle id="Ellipse_1338" cx="2.41" cy="2.41" r="2.41" class="cls-6" transform="translate(52.98 84.68)"/>
                <path id="Path_12031" d="M46 90.35s.28 5.59 11.14 5.59 11.15-5.59 11.15-5.59z" class="cls-5"/>
                <path id="Path_12032" d="M36 94s-3.54-6.1 1.37-11a2.735 2.735 0 0 1 1.24 2c-.04 1.16-1.37 1.41-1.08 2.34s1.47 1.9.68 2.66.14 1.47.08 2.42S36 94 36 94z" class="cls-5"/>
                <path id="Path_12033" d="M36.21 94.58s1.44-6.9-4.75-10a2.78 2.78 0 0 0-.58 2.25c.37 1.06 1.74.9 1.77 1.87s-.91 2.26.13 2.73.34 1.43.69 2.31 2.74.84 2.74.84z" class="cls-5"/>
                <path id="Path_12034" d="M30.79 91.39s.11 4.55 4.62 4.55S40 91.39 40 91.39z" class="cls-6"/>
            </g>
            <g id="freepik--Shadow--inject-78">
                <ellipse id="Ellipse_1339" cx="60.39" cy="3.53" class="cls-8" rx="60.39" ry="3.53" transform="translate(19.61 130.97)"/>
            </g>
            <g id="freepik--Calendar--inject-78">
                <path id="Path_12035" d="M58.34 89.71a.73.73 0 1 1 0-1.46c1.78 0 3.28-2.55 3.28-5.57a.73.73 0 0 1 .77-.68.72.72 0 0 1 .68.68c0 3.94-2.07 7.03-4.73 7.03z" class="cls-10"/>
                <path id="Path_12036" d="M69.33 89.71a.73.73 0 1 1 0-1.46c1.78 0 3.28-2.55 3.28-5.57a.73.73 0 0 1 1.46 0c.01 3.94-2.07 7.03-4.74 7.03z" class="cls-10"/>
                <path id="Path_12037" d="M80.31 89.71a.73.73 0 1 1 0-1.46c1.78 0 3.28-2.55 3.28-5.57a.73.73 0 0 1 1.46 0c.01 3.94-2.05 7.03-4.74 7.03z" class="cls-10"/>
                <path id="Path_12038" d="M91.31 89.71a.731.731 0 0 1-.09-1.46h.09c1.78 0 3.29-2.55 3.29-5.57a.725.725 0 1 1 1.45 0c0 3.94-2.05 7.03-4.74 7.03z" class="cls-10"/>
                <path id="Path_12039" d="M102.3 89.71a.73.73 0 1 1 0-1.46c1.78 0 3.29-2.55 3.29-5.57a.73.73 0 0 1 1.45 0c-.04 3.94-2.04 7.03-4.74 7.03z" class="cls-10"/>
                <path id="Path_12040" d="M113.29 89.71a.73.73 0 0 1 0-1.46c1.78 0 3.29-2.55 3.29-5.57a.73.73 0 0 1 1.45 0c-.03 3.94-2.03 7.03-4.74 7.03z" class="cls-10"/>
                <g id="Group_3409" class="cls-11">
                    <path id="Path_12041" d="M58.34 89.71a.73.73 0 1 1 0-1.46c1.78 0 3.28-2.55 3.28-5.57a.73.73 0 0 1 .77-.68.72.72 0 0 1 .68.68c0 3.94-2.07 7.03-4.73 7.03z"/>
                    <path id="Path_12042" d="M69.33 89.71a.73.73 0 1 1 0-1.46c1.78 0 3.28-2.55 3.28-5.57a.73.73 0 0 1 1.46 0c.01 3.94-2.07 7.03-4.74 7.03z"/>
                    <path id="Path_12043" d="M80.31 89.71a.73.73 0 1 1 0-1.46c1.78 0 3.28-2.55 3.28-5.57a.73.73 0 0 1 1.46 0c.01 3.94-2.05 7.03-4.74 7.03z"/>
                    <path id="Path_12044" d="M91.31 89.71a.731.731 0 0 1-.09-1.46h.09c1.78 0 3.29-2.55 3.29-5.57a.725.725 0 1 1 1.45 0c0 3.94-2.05 7.03-4.74 7.03z"/>
                    <path id="Path_12045" d="M102.3 89.71a.73.73 0 1 1 0-1.46c1.78 0 3.29-2.55 3.29-5.57a.73.73 0 0 1 1.45 0c-.04 3.94-2.04 7.03-4.74 7.03z"/>
                    <path id="Path_12046" d="M113.29 89.71a.73.73 0 0 1 0-1.46c1.78 0 3.29-2.55 3.29-5.57a.73.73 0 0 1 1.45 0c-.03 3.94-2.03 7.03-4.74 7.03z"/>
                </g>
                <path id="Path_12047" d="M51.45 83.42h70.76a3.9 3.9 0 0 1 3.8 3.49l3.92 44.18a3.15 3.15 0 0 1-2.8 3.46 2.362 2.362 0 0 1-.38 0H56a3.89 3.89 0 0 1-3.79-3.48l-3.94-44.16a3.15 3.15 0 0 1 2.79-3.47z" class="cls-10"/>
                <path id="Path_12048" fill="#fafafa" d="M51.45 83.42h70.76a3.9 3.9 0 0 1 3.8 3.49l3.92 44.18a3.15 3.15 0 0 1-2.8 3.46 2.362 2.362 0 0 1-.38 0H56a3.89 3.89 0 0 1-3.79-3.48l-3.94-44.16a3.15 3.15 0 0 1 2.79-3.47z" opacity="0.4"/>
                <path id="Path_12049" d="M121.62 83.42H50.86a3.71 3.71 0 0 0-3.65 3.49l-2 44.18a3.32 3.32 0 0 0 3.13 3.48h71a3.69 3.69 0 0 0 3.65-3.48l2-44.18a3.31 3.31 0 0 0-3.14-3.48z" class="cls-10"/>
                <path id="Path_12050" d="M52.16 122.9l1.64-36.49a1.43 1.43 0 0 1 1.4-1.33h61.93a1.28 1.28 0 0 1 1.28 1.26v.07l-1.65 36.49a1.43 1.43 0 0 1-1.4 1.33H53.43a1.27 1.27 0 0 1-1.28-1.23s.01-.08.01-.1z" class="cls-10"/>
                <path id="Path_12051" d="M52.16 122.9l1.64-36.49a1.43 1.43 0 0 1 1.4-1.33h61.93a1.28 1.28 0 0 1 1.28 1.26v.07l-1.65 36.49a1.43 1.43 0 0 1-1.4 1.33H53.43a1.27 1.27 0 0 1-1.28-1.23s.01-.08.01-.1z" class="cls-13"/>
                <path id="Path_12052" d="M50.41 125.88l1.73-38.32a1.48 1.48 0 0 1 1.46-1.4h65a1.34 1.34 0 0 1 1.4 1.32v.08l-1.74 38.32a1.48 1.48 0 0 1-1.46 1.4h-65a1.33 1.33 0 0 1-1.39-1.28z" opacity="0.1"/>
                <path id="Path_12053" d="M48.8 129l1.81-40a1.56 1.56 0 0 1 1.52-1.46H120a1.38 1.38 0 0 1 1.39 1.38V89l-1.81 40a1.57 1.57 0 0 1-1.53 1.46H50.2a1.39 1.39 0 0 1-1.4-1.37z" class="cls-4"/>
                <path id="Path_12054" d="M113.29 89.94a.94.94 0 0 1-.94-.94 1 1 0 0 1 1-.94.94.94 0 0 1 .94.93v.06a1 1 0 0 1-1 .89z" class="cls-10"/>
                <path id="Path_12055" d="M102.29 89.94a.94.94 0 0 1-.93-.94 1 1 0 0 1 1-.94.93.93 0 0 1 .93.93V89a1 1 0 0 1-1 .94z" class="cls-10"/>
                <path id="Path_12056" d="M91.3 89.94a1 1 0 0 1-.94-.94 1 1 0 0 1 1-.94.94.94 0 0 1 .94.93V89a1 1 0 0 1-1 .94z" class="cls-10"/>
                <path id="Path_12057" d="M80.31 89.94a.94.94 0 0 1-.93-.94 1 1 0 0 1 1-.94.93.93 0 0 1 .93.93v.06a1 1 0 0 1-1 .89z" class="cls-10"/>
                <path id="Path_12058" d="M69.32 89.94a.94.94 0 0 1-.94-.94 1 1 0 0 1 1-.94.94.94 0 0 1 .94.93V89a1 1 0 0 1-1 .94z" class="cls-10"/>
                <path id="Path_12059" d="M58.33 89.94a.94.94 0 0 1-.94-.94 1 1 0 0 1 1-.94.94.94 0 0 1 .94.93V89a1 1 0 0 1-1 .94z" class="cls-10"/>
                <g id="Group_3410" class="cls-15">
                    <path id="Path_12060" d="M113.29 89.94a.94.94 0 0 1-.94-.94 1 1 0 0 1 1-.94.94.94 0 0 1 .94.93v.06a1 1 0 0 1-1 .89z" class="cls-4"/>
                    <path id="Path_12061" d="M102.29 89.94a.94.94 0 0 1-.93-.94 1 1 0 0 1 1-.94.93.93 0 0 1 .93.93V89a1 1 0 0 1-1 .94z" class="cls-4"/>
                    <path id="Path_12062" d="M91.3 89.94a1 1 0 0 1-.94-.94 1 1 0 0 1 1-.94.94.94 0 0 1 .94.93V89a1 1 0 0 1-1 .94z" class="cls-4"/>
                    <path id="Path_12063" d="M80.31 89.94a.94.94 0 0 1-.93-.94 1 1 0 0 1 1-.94.93.93 0 0 1 .93.93v.06a1 1 0 0 1-1 .89z" class="cls-4"/>
                    <path id="Path_12064" d="M69.32 89.94a.94.94 0 0 1-.94-.94 1 1 0 0 1 1-.94.94.94 0 0 1 .94.93V89a1 1 0 0 1-1 .94z" class="cls-4"/>
                    <path id="Path_12065" d="M58.33 89.94a.94.94 0 0 1-.94-.94 1 1 0 0 1 1-.94.94.94 0 0 1 .94.93V89a1 1 0 0 1-1 .94z" class="cls-4"/>
                </g>
                <path id="Path_12066" d="M61.07 93.42h-5.52a.59.59 0 0 1-.59-.58.67.67 0 0 1 .63-.63h5.52a.59.59 0 0 1 .59.58.66.66 0 0 1-.63.63z" class="cls-10"/>
                <path id="Path_12067" d="M72.07 93.42h-5.53a.6.6 0 0 1-.59-.58.65.65 0 0 1 .63-.63h5.53a.6.6 0 0 1 .59.58.66.66 0 0 1-.63.63z" class="cls-10"/>
                <path id="Path_12068" d="M83.06 93.42h-5.53a.6.6 0 0 1-.59-.58.66.66 0 0 1 .64-.63h5.53a.59.59 0 0 1 .59.58.65.65 0 0 1-.64.63z" class="cls-10"/>
                <path id="Path_12069" d="M94.05 93.42h-5.53a.6.6 0 0 1-.59-.58.65.65 0 0 1 .62-.63h5.53a.58.58 0 0 1 .58.58.64.64 0 0 1-.61.63z" class="cls-10"/>
                <path id="Path_12070" d="M105 93.42h-5.49a.58.58 0 0 1-.58-.58.65.65 0 0 1 .64-.63h5.53a.58.58 0 0 1 .58.58.65.65 0 0 1-.68.63z" class="cls-10"/>
                <path id="Path_12071" d="M116 93.42h-5.5a.58.58 0 0 1-.58-.58.65.65 0 0 1 .64-.63h5.53a.58.58 0 0 1 .58.58.65.65 0 0 1-.67.63z" class="cls-10"/>
                <g id="Group_3411" class="cls-11">
                    <path id="Path_12072" d="M61.07 93.42h-5.52a.59.59 0 0 1-.59-.58.67.67 0 0 1 .63-.63h5.52a.59.59 0 0 1 .59.58.66.66 0 0 1-.63.63z"/>
                    <path id="Path_12073" d="M72.07 93.42h-5.53a.6.6 0 0 1-.59-.58.65.65 0 0 1 .63-.63h5.53a.6.6 0 0 1 .59.58.66.66 0 0 1-.63.63z"/>
                    <path id="Path_12074" d="M83.06 93.42h-5.53a.6.6 0 0 1-.59-.58.66.66 0 0 1 .64-.63h5.53a.59.59 0 0 1 .59.58.65.65 0 0 1-.64.63z"/>
                    <path id="Path_12075" d="M94.05 93.42h-5.53a.6.6 0 0 1-.59-.58.65.65 0 0 1 .62-.63h5.53a.58.58 0 0 1 .58.58.64.64 0 0 1-.61.63z"/>
                    <path id="Path_12076" d="M105 93.42h-5.49a.58.58 0 0 1-.58-.58.65.65 0 0 1 .64-.63h5.53a.58.58 0 0 1 .58.58.65.65 0 0 1-.68.63z"/>
                    <path id="Path_12077" d="M116 93.42h-5.5a.58.58 0 0 1-.58-.58.65.65 0 0 1 .64-.63h5.53a.58.58 0 0 1 .58.58.65.65 0 0 1-.67.63z"/>
                </g>
                <path id="Path_12078" d="M61.38 105.18h-7.2A1.15 1.15 0 0 1 53 104l.31-7.2a1.3 1.3 0 0 1 1.28-1.22h7.2A1.17 1.17 0 0 1 63 96.7v.06l-.31 7.2a1.3 1.3 0 0 1-1.31 1.22z" class="cls-10"/>
                <path id="Path_12079" d="M72.37 105.18h-7.2A1.16 1.16 0 0 1 64 104a.2.2 0 0 1 0-.07l.31-7.2a1.29 1.29 0 0 1 1.27-1.22h7.22A1.16 1.16 0 0 1 74 96.7v.06l-.32 7.2a1.3 1.3 0 0 1-1.31 1.22z" class="cls-10"/>
                <path id="Path_12080" d="M83.36 105.18h-7.2A1.16 1.16 0 0 1 75 104l.32-7.2a1.29 1.29 0 0 1 1.27-1.22h7.2A1.17 1.17 0 0 1 85 96.69v.07l-.32 7.2a1.28 1.28 0 0 1-1.32 1.22z" class="cls-10"/>
                <path id="Path_12081" d="M94.35 105.18h-7.19A1.16 1.16 0 0 1 86 104a.17.17 0 0 1 0-.07l.31-7.2a1.29 1.29 0 0 1 1.27-1.22h7.2A1.17 1.17 0 0 1 96 96.7v.06l-.31 7.2a1.29 1.29 0 0 1-1.34 1.22z" class="cls-10"/>
                <path id="Path_12082" d="M105.35 105.18h-7.21A1.15 1.15 0 0 1 97 104l.31-7.2a1.3 1.3 0 0 1 1.28-1.22h7.2a1.17 1.17 0 0 1 1.17 1.15.15.15 0 0 1 0 .07l-.31 7.2a1.29 1.29 0 0 1-1.3 1.18z" class="cls-10"/>
                <path id="Path_12083" d="M116.33 105.18h-7.19A1.15 1.15 0 0 1 108 104l.31-7.2a1.3 1.3 0 0 1 1.28-1.22h7.2a1.17 1.17 0 0 1 1.17 1.16v.06l-.33 7.2a1.29 1.29 0 0 1-1.3 1.18z" class="cls-10"/>
                <g id="Group_3412" class="cls-16">
                    <path id="Path_12084" d="M61.38 105.18h-7.2A1.15 1.15 0 0 1 53 104l.31-7.2a1.3 1.3 0 0 1 1.28-1.22h7.2A1.17 1.17 0 0 1 63 96.7v.06l-.31 7.2a1.3 1.3 0 0 1-1.31 1.22z" class="cls-4"/>
                    <path id="Path_12085" d="M72.37 105.18h-7.2A1.16 1.16 0 0 1 64 104a.2.2 0 0 1 0-.07l.31-7.2a1.29 1.29 0 0 1 1.27-1.22h7.22A1.16 1.16 0 0 1 74 96.7v.06l-.32 7.2a1.3 1.3 0 0 1-1.31 1.22z" class="cls-4"/>
                    <path id="Path_12086" d="M83.36 105.18h-7.2A1.16 1.16 0 0 1 75 104l.32-7.2a1.29 1.29 0 0 1 1.27-1.22h7.2A1.17 1.17 0 0 1 85 96.69v.07l-.32 7.2a1.28 1.28 0 0 1-1.32 1.22z" class="cls-4"/>
                    <path id="Path_12087" d="M94.35 105.18h-7.19A1.16 1.16 0 0 1 86 104a.17.17 0 0 1 0-.07l.31-7.2a1.29 1.29 0 0 1 1.27-1.22h7.2A1.17 1.17 0 0 1 96 96.7v.06l-.31 7.2a1.29 1.29 0 0 1-1.34 1.22z" class="cls-4"/>
                    <path id="Path_12088" d="M105.35 105.18h-7.21A1.15 1.15 0 0 1 97 104l.31-7.2a1.3 1.3 0 0 1 1.28-1.22h7.2a1.17 1.17 0 0 1 1.17 1.15.15.15 0 0 1 0 .07l-.31 7.2a1.29 1.29 0 0 1-1.3 1.18z" class="cls-4"/>
                    <path id="Path_12089" d="M116.33 105.18h-7.19A1.15 1.15 0 0 1 108 104l.31-7.2a1.3 1.3 0 0 1 1.28-1.22h7.2a1.17 1.17 0 0 1 1.17 1.16v.06l-.33 7.2a1.29 1.29 0 0 1-1.3 1.18z" class="cls-4"/>
                </g>
                <path id="Path_12090" d="M60.87 116.36h-7.2a1.16 1.16 0 0 1-1.16-1.16v-.06l.31-7.21a1.31 1.31 0 0 1 1.28-1.22h7.21a1.18 1.18 0 0 1 1.17 1.16v.06l-.32 7.21a1.3 1.3 0 0 1-1.29 1.22z" class="cls-10"/>
                <path id="Path_12091" d="M71.87 116.36h-7.2a1.16 1.16 0 0 1-1.17-1.16v-.06l.31-7.21a1.3 1.3 0 0 1 1.28-1.22h7.2a1.17 1.17 0 0 1 1.17 1.16v.13l-.31 7.19a1.3 1.3 0 0 1-1.28 1.17z" class="cls-10"/>
                <path id="Path_12092" d="M82.86 116.36h-7.2a1.17 1.17 0 0 1-1.17-1.15v-.07l.31-7.21a1.3 1.3 0 0 1 1.28-1.22h7.2a1.17 1.17 0 0 1 1.17 1.15.15.15 0 0 1 0 .07l-.31 7.21a1.3 1.3 0 0 1-1.28 1.22z" class="cls-10"/>
                <path id="Path_12093" d="M93.85 116.36h-7.2a1.17 1.17 0 0 1-1.17-1.16v-.06l.31-7.21a1.31 1.31 0 0 1 1.28-1.22h7.2a1.16 1.16 0 0 1 1.18 1.14v.1l-.31 7.2a1.31 1.31 0 0 1-1.29 1.21z" class="cls-10"/>
                <path id="Path_12094" d="M104.84 116.36h-7.2a1.18 1.18 0 0 1-1.17-1.16v-.06l.32-7.21a1.29 1.29 0 0 1 1.28-1.23h7.2a1.16 1.16 0 0 1 1.16 1.16v.06l-.31 7.2a1.29 1.29 0 0 1-1.28 1.24z" class="cls-10"/>
                <path id="Path_12095" d="M115.82 116.36h-7.19a1.17 1.17 0 0 1-1.17-1.15v-.07l.31-7.21a1.29 1.29 0 0 1 1.28-1.22h7.19a1.16 1.16 0 0 1 1.17 1.16v.06l-.33 7.21a1.29 1.29 0 0 1-1.26 1.22z" class="cls-10"/>
                <g id="Group_3413" class="cls-16">
                    <path id="Path_12096" d="M60.87 116.36h-7.2a1.16 1.16 0 0 1-1.16-1.16v-.06l.31-7.21a1.31 1.31 0 0 1 1.28-1.22h7.21a1.18 1.18 0 0 1 1.17 1.16v.06l-.32 7.21a1.3 1.3 0 0 1-1.29 1.22z" class="cls-4"/>
                    <path id="Path_12097" d="M71.87 116.36h-7.2a1.16 1.16 0 0 1-1.17-1.16v-.06l.31-7.21a1.3 1.3 0 0 1 1.28-1.22h7.2a1.17 1.17 0 0 1 1.17 1.16v.13l-.31 7.19a1.3 1.3 0 0 1-1.28 1.17z" class="cls-4"/>
                    <path id="Path_12098" d="M82.86 116.36h-7.2a1.17 1.17 0 0 1-1.17-1.15v-.07l.31-7.21a1.3 1.3 0 0 1 1.28-1.22h7.2a1.17 1.17 0 0 1 1.17 1.15.15.15 0 0 1 0 .07l-.31 7.21a1.3 1.3 0 0 1-1.28 1.22z" class="cls-4"/>
                    <path id="Path_12099" d="M93.85 116.36h-7.2a1.17 1.17 0 0 1-1.17-1.16v-.06l.31-7.21a1.31 1.31 0 0 1 1.28-1.22h7.2a1.16 1.16 0 0 1 1.18 1.14v.1l-.31 7.2a1.31 1.31 0 0 1-1.29 1.21z" class="cls-4"/>
                    <path id="Path_12100" d="M104.84 116.36h-7.2a1.18 1.18 0 0 1-1.17-1.16v-.06l.32-7.21a1.29 1.29 0 0 1 1.28-1.23h7.2a1.16 1.16 0 0 1 1.16 1.16v.06l-.31 7.2a1.29 1.29 0 0 1-1.28 1.24z" class="cls-4"/>
                    <path id="Path_12101" d="M115.82 116.36h-7.19a1.17 1.17 0 0 1-1.17-1.15v-.07l.31-7.21a1.29 1.29 0 0 1 1.28-1.22h7.19a1.16 1.16 0 0 1 1.17 1.16v.06l-.33 7.21a1.29 1.29 0 0 1-1.26 1.22z" class="cls-4"/>
                </g>
                <path id="Path_12102" d="M60.38 127.53h-7.21a1.17 1.17 0 0 1-1.17-1.15v-.07l.32-7.2a1.28 1.28 0 0 1 1.27-1.22h7.2A1.15 1.15 0 0 1 62 119v.07l-.31 7.2a1.3 1.3 0 0 1-1.31 1.26z" class="cls-10"/>
                <path id="Path_12103" d="M71.36 127.53h-7.2a1.17 1.17 0 0 1-1.16-1.15.15.15 0 0 1 0-.07l.31-7.2a1.28 1.28 0 0 1 1.27-1.22h7.2A1.15 1.15 0 0 1 73 119v.08l-.31 7.2a1.3 1.3 0 0 1-1.33 1.25z" class="cls-10"/>
                <path id="Path_12104" d="M82.35 127.53h-7.2a1.15 1.15 0 0 1-1.15-1.15v-.07l.31-7.2a1.29 1.29 0 0 1 1.28-1.22h7.21A1.15 1.15 0 0 1 84 119v.07l-.33 7.2a1.29 1.29 0 0 1-1.32 1.26z" class="cls-10"/>
                <path id="Path_12105" d="M93.34 127.53h-7.19a1.16 1.16 0 0 1-1.15-1.16v-.06l.31-7.2a1.28 1.28 0 0 1 1.27-1.22h7.2a1.15 1.15 0 0 1 1.15 1.11v.07l-.31 7.2a1.31 1.31 0 0 1-1.28 1.26z" class="cls-10"/>
                <path id="Path_12106" d="M104.34 127.53h-7.21a1.17 1.17 0 0 1-1.13-1.15v-.07l.31-7.2a1.29 1.29 0 0 1 1.28-1.22h7.2a1.15 1.15 0 0 1 1.16 1.15v.07l-.31 7.2a1.3 1.3 0 0 1-1.3 1.22z" class="cls-10"/>
                <path id="Path_12107" d="M115.33 127.53h-7.2a1.16 1.16 0 0 1-1.17-1.15v-.07l.31-7.2a1.29 1.29 0 0 1 1.28-1.22h7.2a1.16 1.16 0 0 1 1.17 1.15v.07l-.33 7.2a1.3 1.3 0 0 1-1.26 1.22z" class="cls-10"/>
                <g id="Group_3414" class="cls-16">
                    <path id="Path_12108" d="M60.38 127.53h-7.21a1.17 1.17 0 0 1-1.17-1.15v-.07l.32-7.2a1.28 1.28 0 0 1 1.27-1.22h7.2A1.15 1.15 0 0 1 62 119v.07l-.31 7.2a1.3 1.3 0 0 1-1.31 1.26z" class="cls-4"/>
                    <path id="Path_12109" d="M71.36 127.53h-7.2a1.17 1.17 0 0 1-1.16-1.15.15.15 0 0 1 0-.07l.31-7.2a1.28 1.28 0 0 1 1.27-1.22h7.2A1.15 1.15 0 0 1 73 119v.08l-.31 7.2a1.3 1.3 0 0 1-1.33 1.25z" class="cls-4"/>
                    <path id="Path_12110" d="M82.35 127.53h-7.2a1.15 1.15 0 0 1-1.15-1.15v-.07l.31-7.2a1.29 1.29 0 0 1 1.28-1.22h7.21A1.15 1.15 0 0 1 84 119v.07l-.33 7.2a1.29 1.29 0 0 1-1.32 1.26z" class="cls-4"/>
                    <path id="Path_12111" d="M93.34 127.53h-7.19a1.16 1.16 0 0 1-1.15-1.16v-.06l.31-7.2a1.28 1.28 0 0 1 1.27-1.22h7.2a1.15 1.15 0 0 1 1.15 1.11v.07l-.31 7.2a1.31 1.31 0 0 1-1.28 1.26z" class="cls-4"/>
                    <path id="Path_12112" d="M104.34 127.53h-7.21a1.17 1.17 0 0 1-1.13-1.15v-.07l.31-7.2a1.29 1.29 0 0 1 1.28-1.22h7.2a1.15 1.15 0 0 1 1.16 1.15v.07l-.31 7.2a1.3 1.3 0 0 1-1.3 1.22z" class="cls-4"/>
                    <path id="Path_12113" d="M115.33 127.53h-7.2a1.16 1.16 0 0 1-1.17-1.15v-.07l.31-7.2a1.29 1.29 0 0 1 1.28-1.22h7.2a1.16 1.16 0 0 1 1.17 1.15v.07l-.33 7.2a1.3 1.3 0 0 1-1.26 1.22z" class="cls-4"/>
                </g>
                <path id="Path_12114" d="M58.34 89.71c-2.66 0-4.74-3.09-4.74-7s2.08-7 4.74-7 4.73 3.09 4.73 7a.73.73 0 0 1-1.45 0c0-3-1.5-5.57-3.28-5.57s-3.29 2.55-3.29 5.57 1.51 5.57 3.29 5.57a.73.73 0 0 1 .77.68.74.74 0 0 1-.68.78z" class="cls-10"/>
                <path id="Path_12115" d="M69.33 89.71c-2.66 0-4.74-3.09-4.74-7s2.08-7 4.74-7 4.75 3.09 4.75 7a.73.73 0 0 1-1.45 0c0-3-1.5-5.57-3.29-5.57s-3.28 2.55-3.28 5.57 1.51 5.57 3.28 5.57A.72.72 0 0 1 70 89a.73.73 0 0 1-.68.68z" class="cls-10"/>
                <path id="Path_12116" d="M80.31 89.71c-2.66 0-4.74-3.09-4.74-7s2.08-7 4.74-7 4.74 3.09 4.74 7a.73.73 0 1 1-1.46 0c0-3-1.5-5.57-3.28-5.57S77 79.66 77 82.68s1.5 5.57 3.28 5.57a.73.73 0 0 1 0 1.46z" class="cls-10"/>
                <path id="Path_12117" d="M91.31 89.71c-2.65 0-4.73-3.09-4.73-7s2.08-7 4.73-7 4.74 3.09 4.74 7a.73.73 0 0 1-.73.72.72.72 0 0 1-.72-.72c0-3-1.51-5.57-3.29-5.57S88 79.66 88 82.68s1.5 5.57 3.28 5.57a.73.73 0 1 1 0 1.46z" class="cls-10"/>
                <path id="Path_12118" d="M102.3 89.71c-2.65 0-4.73-3.09-4.73-7s2.08-7 4.73-7 4.74 3.09 4.74 7a.73.73 0 0 1-1.45 0c0-3-1.51-5.57-3.29-5.57S99 79.66 99 82.68s1.5 5.57 3.28 5.57a.732.732 0 1 1 .1 1.46z" class="cls-10"/>
                <path id="Path_12119" d="M113.29 89.71c-2.65 0-4.73-3.09-4.73-7s2.08-7 4.73-7 4.74 3.09 4.74 7a.73.73 0 0 1-1.45 0c0-3-1.51-5.57-3.29-5.57S110 79.66 110 82.68s1.51 5.57 3.28 5.57a.72.72 0 0 1 .72.75.73.73 0 0 1-.68.68z" class="cls-10"/>
                <g id="Group_3415" class="cls-11">
                    <path id="Path_12120" d="M58.34 89.71c-2.66 0-4.74-3.09-4.74-7s2.08-7 4.74-7 4.73 3.09 4.73 7a.73.73 0 0 1-1.45 0c0-3-1.5-5.57-3.28-5.57s-3.29 2.55-3.29 5.57 1.51 5.57 3.29 5.57a.73.73 0 0 1 .77.68.74.74 0 0 1-.68.78z"/>
                    <path id="Path_12121" d="M69.33 89.71c-2.66 0-4.74-3.09-4.74-7s2.08-7 4.74-7 4.75 3.09 4.75 7a.73.73 0 0 1-1.45 0c0-3-1.5-5.57-3.29-5.57s-3.28 2.55-3.28 5.57 1.51 5.57 3.28 5.57A.72.72 0 0 1 70 89a.73.73 0 0 1-.68.68z"/>
                    <path id="Path_12122" d="M80.31 89.71c-2.66 0-4.74-3.09-4.74-7s2.08-7 4.74-7 4.74 3.09 4.74 7a.73.73 0 1 1-1.46 0c0-3-1.5-5.57-3.28-5.57S77 79.66 77 82.68s1.5 5.57 3.28 5.57a.73.73 0 0 1 0 1.46z"/>
                    <path id="Path_12123" d="M91.31 89.71c-2.65 0-4.73-3.09-4.73-7s2.08-7 4.73-7 4.74 3.09 4.74 7a.73.73 0 0 1-.73.72.72.72 0 0 1-.72-.72c0-3-1.51-5.57-3.29-5.57S88 79.66 88 82.68s1.5 5.57 3.28 5.57a.73.73 0 1 1 0 1.46z"/>
                    <path id="Path_12124" d="M102.3 89.71c-2.65 0-4.73-3.09-4.73-7s2.08-7 4.73-7 4.74 3.09 4.74 7a.73.73 0 0 1-1.45 0c0-3-1.51-5.57-3.29-5.57S99 79.66 99 82.68s1.5 5.57 3.28 5.57a.732.732 0 1 1 .1 1.46z"/>
                    <path id="Path_12125" d="M113.29 89.71c-2.65 0-4.73-3.09-4.73-7s2.08-7 4.73-7 4.74 3.09 4.74 7a.73.73 0 0 1-1.45 0c0-3-1.51-5.57-3.29-5.57S110 79.66 110 82.68s1.51 5.57 3.28 5.57a.72.72 0 0 1 .72.75.73.73 0 0 1-.68.68z"/>
                </g>
                <path id="Path_12126" d="M92.05 105.59c-2.54-.51-5.4.08-6.42 2.76a3.72 3.72 0 0 0 2.5 5.06c2 .5 5.43-.11 6.14-2.41.81-2.63-2.49-3.48-4.35-3.64a.436.436 0 0 0 0 .87 5.66 5.66 0 0 1 2.56.59c1.56 1 .92 2.53-.41 3.28a4.9 4.9 0 0 1-4.67.11 3.06 3.06 0 0 1-.63-4.23c1.13-1.73 3.18-1.92 5-1.56.55.11.78-.73.23-.84z" class="cls-10"/>
                <path id="Path_12127" d="M92.05 105.59c-2.54-.51-5.4.08-6.42 2.76a3.72 3.72 0 0 0 2.5 5.06c2 .5 5.43-.11 6.14-2.41.81-2.63-2.49-3.48-4.35-3.64a.436.436 0 0 0 0 .87 5.66 5.66 0 0 1 2.56.59c1.56 1 .92 2.53-.41 3.28a4.9 4.9 0 0 1-4.67.11 3.06 3.06 0 0 1-.63-4.23c1.13-1.73 3.18-1.92 5-1.56.55.11.78-.73.23-.84z" class="cls-13"/>
                <path id="Path_12128" d="M64 95.55a68.859 68.859 0 0 0 8.09 9 .443.443 0 0 0 .63-.62 67.078 67.078 0 0 1-8-8.79c-.33-.45-1.09 0-.75.44z" class="cls-10"/>
                <path id="Path_12129" d="M64.91 104.16C66.74 100.89 70 98.1 73 96c.46-.31 0-1.08-.44-.75-3.16 2.22-6.49 5.09-8.41 8.5a.44.44 0 0 0 .19.59.45.45 0 0 0 .57-.18z" class="cls-10"/>
                <g id="Group_3416" opacity="0.2">
                    <path id="Path_12130" d="M64 95.55a68.859 68.859 0 0 0 8.09 9 .443.443 0 0 0 .63-.62 67.078 67.078 0 0 1-8-8.79c-.33-.45-1.09 0-.75.44z"/>
                    <path id="Path_12131" d="M64.91 104.16C66.74 100.89 70 98.1 73 96c.46-.31 0-1.08-.44-.75-3.16 2.22-6.49 5.09-8.41 8.5a.44.44 0 0 0 .19.59.45.45 0 0 0 .57-.18z"/>
                </g>
                <path id="Path_12132" d="M98.65 98.34h5.68a.44.44 0 0 0 .4-.47.45.45 0 0 0-.4-.4h-5.68a.44.44 0 0 0-.4.47.45.45 0 0 0 .4.4z" class="cls-10"/>
                <path id="Path_12133" d="M98.58 100h3.3a.44.44 0 0 0 0-.88h-3.3a.44.44 0 0 0 0 .88z" class="cls-10"/>
                <g id="Group_3417" class="cls-15">
                    <path id="Path_12134" d="M98.65 98.34h5.68a.44.44 0 0 0 .4-.47.45.45 0 0 0-.4-.4h-5.68a.44.44 0 0 0-.4.47.45.45 0 0 0 .4.4z" class="cls-4"/>
                    <path id="Path_12135" d="M98.58 100h3.3a.44.44 0 0 0 0-.88h-3.3a.44.44 0 0 0 0 .88z" class="cls-4"/>
                </g>
                <path id="Path_12136" d="M64.6 120.65h4.87a.43.43 0 0 0 .44-.43.44.44 0 0 0-.44-.44H64.6a.44.44 0 0 0 0 .87z" class="cls-10"/>
                <path id="Path_12137" d="M64.43 122.53h6.32a.44.44 0 0 0 0-.88h-6.32a.44.44 0 0 0 0 .88z" class="cls-10"/>
                <path id="Path_12138" d="M64.43 124.45h3.16A.43.43 0 0 0 68 124a.44.44 0 0 0-.43-.44h-3.14a.44.44 0 1 0 0 .87z" class="cls-10"/>
                <g id="Group_3418" class="cls-15">
                    <path id="Path_12139" d="M64.6 120.65h4.87a.43.43 0 0 0 .44-.43.44.44 0 0 0-.44-.44H64.6a.44.44 0 0 0 0 .87z" class="cls-4"/>
                    <path id="Path_12140" d="M64.43 122.53h6.32a.44.44 0 0 0 0-.88h-6.32a.44.44 0 0 0 0 .88z" class="cls-4"/>
                    <path id="Path_12141" d="M64.43 124.45h3.16A.43.43 0 0 0 68 124a.44.44 0 0 0-.43-.44h-3.14a.44.44 0 1 0 0 .87z" class="cls-4"/>
                </g>
            </g>
            <g id="freepik--Character--inject-78">
                <path id="Path_12142" d="M30.22 71.75l1.48-.07-.7 2.81a7.83 7.83 0 0 1-1.43-1.26.71.71 0 0 1 .08-1z" class="cls-18"/>
                <path id="Path_12143" d="M33.41 73.19l-.67 2.28-1.71-.99.67-2.8z" class="cls-18"/>
                <path id="Rectangle_2264" d="M0 0H3.03V75H0z" class="cls-19" transform="rotate(-5.29 663.827 -295.765)"/>
                <path id="Rectangle_2265" d="M0 0H3.03V75H0z" class="cls-19" transform="rotate(-5.29 660.74 -361.344)"/>
                <path id="Rectangle_2266" d="M0 0H3.03V75H0z" class="cls-19" transform="rotate(-5.29 662.22 -328.607)"/>
                <path id="Rectangle_2267" d="M0 0H3.03V75H0z" class="cls-20" transform="rotate(-5.29 663.827 -295.765)"/>
                <path id="Rectangle_2268" d="M0 0H3.03V75H0z" class="cls-20" transform="rotate(-5.29 660.74 -361.344)"/>
                <path id="Path_12144" d="M35.49 54.16l-2.71.25-2.68 5.53 9.05-.84z" class="cls-10"/>
                <g id="Group_3419" class="cls-16">
                    <path id="Path_12145" d="M35.49 54.16l-2.71.25-2.68 5.53 9.05-.84z" class="cls-4"/>
                </g>
                <path id="Path_12146" d="M33.93 52.04l-1.15 2.37 2.71-.25z" class="cls-21"/>
                <path id="Path_12147" d="M56.73 56.26a11.789 11.789 0 0 1 .83.93l.78.94c.52.62 1 1.28 1.46 1.95a22.69 22.69 0 0 1 2.43 4.36c.07.2.15.41.22.62l.11.31a2.86 2.86 0 0 1 .13.58 3.77 3.77 0 0 1-.24 1.82 8.44 8.44 0 0 1-1.39 2.37 19.65 19.65 0 0 1-3.56 3.38l-1.18-1.24a32.519 32.519 0 0 0 2.53-3.65 6.76 6.76 0 0 0 .76-1.74.9.9 0 0 0 0-.46l-.11-.23c-.07-.15-.13-.31-.21-.46A23.81 23.81 0 0 0 57 62.1c-.43-.6-.89-1.18-1.36-1.76l-.71-.85-.71-.82z" class="cls-22"/>
                <path id="Path_12148" d="M54.44 73.22l1.32 2.63 1.3-1.12L56 72.87z" class="cls-18"/>
                <path id="Path_12149" d="M44.44 57.8q-1.21 2.31-2.52 4.56c-.42.76-.87 1.5-1.31 2.25l-.67 1.12-.16.28a3.46 3.46 0 0 1-.27.4 2.851 2.851 0 0 1-.25.33c-.08.1-.16.21-.24.3A24.579 24.579 0 0 1 37 69c-.68.58-1.37 1.15-2.07 1.68-1.39 1.09-2.82 2.1-4.3 3.07l-1.07-1.35 3.69-3.63c.6-.62 1.21-1.21 1.79-1.83a21.381 21.381 0 0 0 1.6-1.83l.16-.21.12-.2a.51.51 0 0 0 .09-.16l.14-.29.58-1.17c.4-.78.78-1.56 1.18-2.33q1.2-2.32 2.5-4.6z" class="cls-22"/>
                <path id="Path_12150" d="M53.18 47.28c0 .18 0 .35.14.38s.25-.09.29-.28 0-.35-.15-.38-.25.09-.28.28z" class="cls-21"/>
                <path id="Path_12151" d="M53.19 47.62a7.16 7.16 0 0 0 .53 1.76 1 1 0 0 1-.89-.05z" class="cls-22"/>
                <path id="Path_12152" d="M53.66 46.18h-.06a.84.84 0 0 0-.77 0 .11.11 0 1 1-.09-.2 1.06 1.06 0 0 1 1 .07.1.1 0 0 1 0 .15.11.11 0 0 1-.08-.02z" class="cls-21"/>
                <path id="Path_12153" d="M46.88 48c.4 1.68.84 4.74-.29 5.86 0 0 .53 1.7 3.64 1.7 3.42 0 1.56-1.7 1.56-1.7-1.89-.44-1.89-1.83-1.62-3.13z" class="cls-22"/>
                <path id="Path_12154" d="M46.17 54.41c-.27-.54-.56-1.16 0-1.35a14.32 14.32 0 0 1 5.13 0 1.24 1.24 0 0 1 .89 1.49z" class="cls-10"/>
                <path id="Path_12155" d="M46.17 54.41c-.27-.54-.56-1.16 0-1.35a14.32 14.32 0 0 1 5.13 0 1.24 1.24 0 0 1 .89 1.49z" class="cls-23"/>
                <path id="Path_12156" d="M41.69 132.55a3.051 3.051 0 0 1-.6-.06v-.06s.62-.45 1-.37a.23.23 0 0 1 .18.13.2.2 0 0 1 0 .25 1.073 1.073 0 0 1-.58.11zm-.45-.14c.34.06.81.06.91-.07s0-.05 0-.14a.15.15 0 0 0-.11-.08 1.42 1.42 0 0 0-.78.3z" class="cls-4"/>
                <path id="Path_12157" d="M41.1 132.5a.08.08 0 0 1 0-.05s0-.69.29-.91a.3.3 0 0 1 .23-.07.17.17 0 0 1 .17.15 1.5 1.5 0 0 1-.62.88zm.43-.94a.17.17 0 0 0-.12.05 1.25 1.25 0 0 0-.25.72c.23-.18.51-.56.48-.7s0-.06-.09-.07z" class="cls-4"/>
                <path id="Path_12158" d="M55.43 132.55a4 4 0 0 1-.7-.06.06.06 0 0 1 0-.05.05.05 0 0 1 0-.05c.11-.07 1.13-.65 1.37-.25a.21.21 0 0 1 0 .24c-.1.14-.38.17-.67.17zm-.53-.14c.43.06 1 .05 1.11-.09s0 0 0-.12-.75 0-1.09.21z" class="cls-4"/>
                <path id="Path_12159" d="M54.74 132.5a.08.08 0 0 1 0-.05 1.52 1.52 0 0 1 .31-.88.38.38 0 0 1 .32-.1.183.183 0 0 1 .2.16c0 .26-.48.75-.75.87zm.52-.94a.32.32 0 0 0-.19.07 1.25 1.25 0 0 0-.27.71c.28-.17.62-.55.6-.71l-.11-.07z" class="cls-4"/>
                <path id="Path_12160" d="M52.22 132.44h2.29l.02-5.3h-2.29z" class="cls-22"/>
                <path id="Path_12161" d="M38.48 132.44h2.29l.95-5.3h-2.29z" class="cls-22"/>
                <path id="Path_12162" d="M40.92 132.18h-2.57a.19.19 0 0 0-.19.16l-.37 2a.35.35 0 0 0 .29.4h.06c.9 0 1.33-.06 2.46-.06.7 0 2.13.07 3.09.07s1.05-.93.65-1a5.93 5.93 0 0 1-3-1.42.59.59 0 0 0-.42-.15z" class="cls-21"/>
                <path id="Path_12163" d="M54.48 132.18H52a.19.19 0 0 0-.19.16l-.37 2a.34.34 0 0 0 .28.4h.06c.9 0 2.2-.06 3.34-.06 1.32 0 2.47.07 4 .07.94 0 1.17-.93.77-1-1.81-.39-3.27-.43-4.85-1.38a1.07 1.07 0 0 0-.56-.19z" class="cls-21"/>
                <path id="Path_12164" d="M42.23 54.34c-2.13.49-4.36 6.34-4.36 6.34l4.42 3A35 35 0 0 0 45 58.79c1.12-2.67-.6-4.95-2.77-4.45z" class="cls-10"/>
                <path id="Path_12165" d="M42.23 54.34c-2.13.49-4.36 6.34-4.36 6.34l4.42 3A35 35 0 0 0 45 58.79c1.12-2.67-.6-4.95-2.77-4.45z" class="cls-23"/>
                <path id="Path_12166" d="M43.91 58.07l-1.83 5.42.21.14s.83-1.24 1.72-2.9z" class="cls-10"/>
                <path id="Path_12167" d="M43.91 58.07l-1.83 5.42.21.14s.83-1.24 1.72-2.9z" class="cls-24"/>
                <path id="Path_12168" d="M56.5 64.56c0 2.56-.17 5.73-.55 9.68H43.71c-.16-1.87.67-11-1.48-19.9a33 33 0 0 1 4.08-.52 45.1 45.1 0 0 1 5.2 0 23.65 23.65 0 0 1 3.54.63s1.05 1.13 1.36 6.45c.07 1.1.1 2.27.09 3.66z" class="cls-10"/>
                <path id="Path_12169" d="M56.5 64.56c0 2.56-.17 5.73-.55 9.68H43.71c-.16-1.87.67-11-1.48-19.9a33 33 0 0 1 4.08-.52 45.1 45.1 0 0 1 5.2 0 23.65 23.65 0 0 1 3.54.63s1.05 1.13 1.36 6.45c.07 1.1.1 2.27.09 3.66z" class="cls-23"/>
                <path id="Path_12170" d="M56.5 64.56c-.74-1.35-2.08-4.06-1.89-5.6l1.8 1.95c.07 1.09.1 2.26.09 3.65z" class="cls-10"/>
                <path id="Path_12171" d="M56.5 64.56c-.74-1.35-2.08-4.06-1.89-5.6l1.8 1.95c.07 1.09.1 2.26.09 3.65z" class="cls-24"/>
                <path id="Path_12172" d="M52.65 56.53C52.46 58.71 57.4 64 57.4 64l4-3.22a24.87 24.87 0 0 0-3.7-4.83c-2.36-2.29-4.83-1.87-5.05.58z" class="cls-10"/>
                <path id="Path_12173" d="M52.65 56.53C52.46 58.71 57.4 64 57.4 64l4-3.22a24.87 24.87 0 0 0-3.7-4.83c-2.36-2.29-4.83-1.87-5.05.58z" class="cls-23"/>
                <path id="Path_12174" d="M54.53 127.15l-.01 2.73h-2.29l.01-2.73z" class="cls-25"/>
                <path id="Path_12175" d="M39.43 127.15h2.29l-.49 2.73h-2.29z" class="cls-25"/>
                <path id="Path_12176" d="M47.29 45.38c-.33 2.26-.64 3.56.23 5a3 3 0 0 0 4 1 2.89 2.89 0 0 0 1.18-1.31c.89-1.87 1.29-5.24-.67-6.67a2.916 2.916 0 0 0-4.74 1.98z" class="cls-22"/>
                <path id="Path_12177" d="M54.07 44.32a6 6 0 0 1-2.18.67c-.57 2.6-2.09 5.6-4.54 4.74-.94-.31-1.87-2.58-2-4.59-.16.2-.27.46-.35.56a5.11 5.11 0 0 1 .29-2.65c.68-1.92 1.13-.64 1.87-1.81.47-.77 1.32-1.17 2.8-1.22-.41.21-.49.56.12.51s3.24-.19 4.76.84c-1 .23-.4 1.87 1 1a5.7 5.7 0 0 1-1.77 1.95z" class="cls-21"/>
                <path id="Path_12178" d="M50.13 46.78a2.7 2.7 0 0 0 .54 1.59c.47.59 1 .31 1.13-.37a2.11 2.11 0 0 0-.58-2c-.58-.35-1.1.1-1.09.78z" class="cls-22"/>
                <path id="Path_12179" fill="#1e2a4c" d="M47.33 41.48a1.91 1.91 0 0 1-1.52-.93s-.04 1.82 1.52.93z"/>
                <path id="Path_12180" d="M51.61 74.24s-1.92 17.48-3.09 24c-1.29 7.17-6.23 31.08-6.23 31.08h-4.21s3-23.32 3.61-30.44c.67-7.71 2-24.68 2-24.68z" class="cls-27"/>
                <path id="Path_12181" d="M42.88 127.8l-.37 1.61H37.8v-1.43z" class="cls-10"/>
                <path id="Path_12182" d="M42.88 127.8l-.37 1.61H37.8v-1.43z" class="cls-21"/>
                <path id="Path_12183" d="M50.21 80.47c-3 .59-2.23 11.78-1.65 17.54.71-4.07 1.68-11.9 2.33-17.46a1.06 1.06 0 0 0-.68-.08z" class="cls-10"/>
                <path id="Path_12184" d="M56 74.24s1 17.1 1 24.08c0 7.26-1.6 31-1.6 31h-3.93S50.43 106 50 98.88c-.48-7.77-2.08-24.64-2.08-24.64z" class="cls-27"/>
                <path id="Path_12185" d="M56.89 72l-1.09.09a.6.6 0 0 0-.55.64v.12l.45 1.51a.79.79 0 0 0 1 .53.75.75 0 0 0 .3-.09 4 4 0 0 0 1.16-1.93z" class="cls-18"/>
                <path id="Path_12186" d="M56 127.8l-.16 1.61h-4.67L51 128z" class="cls-10"/>
                <path id="Path_12187" d="M56 127.8l-.16 1.61h-4.67L51 128z" class="cls-21"/>
            </g>
        </g>
    </g>
</svg>
