<svg xmlns="http://www.w3.org/2000/svg" width="160" height="160" viewBox="0 0 160 160">
    <defs>
        <clipPath id="clip-path">
            <rect id="Rectangle_1724" width="160" height="160" fill="#717171" rx="10" transform="translate(198 1124)"/>
        </clipPath>
        <style>
            .cls-4{fill:#ebebeb}.cls-5{fill:#fff}.cls-6{fill:#ffc4c0}.cls-7{fill:#e15068}.cls-8{fill:#263238}.cls-10{fill:#37474f}.cls-11{fill:#ff97b8}.cls-14{fill:#dbdbdb}.cls-15{fill:#c7c7c7}.cls-16{fill:#a6a6a6}.cls-17{fill:#fbfaff}.cls-18{opacity:.2}.cls-19{opacity:.4}.cls-20{opacity:.5}
        </style>
    </defs>
    <g id="Mask_Group_15" clip-path="url(#clip-path)" transform="translate(-198 -1124)">
        <g id="tatiloley-illustrations-02" transform="translate(198.009 1124.009)">
            <path id="Rectangle_7" fill="#ddd" d="M13.78 18.39a648.462 648.462 0 0 1 132.44 0 15.43 15.43 0 0 1 13.52 18.21 239.36 239.36 0 0 0 0 86.8 15.43 15.43 0 0 1-13.52 18.21 648.457 648.457 0 0 1-132.44 0A15.43 15.43 0 0 1 .26 123.4a239.36 239.36 0 0 0 0-86.8 15.43 15.43 0 0 1 13.52-18.21z"/>
            <g id="freepik--background-complete--inject-328">
                <path id="Path_11187" d="M141.85 77.16h-10.67v12.97h-2.75v-7.34h-13.58v11.62h-1.79V67.14h-11.8v7.48h-6.05v9.32h-1.83v-5.86H82.66v17.48h-3.14V81.35h-9.81V70.56h-6.67v-6.15h-7.72v27.26h-2.59V80.29H40.02v16.29h-1.76V83.29H25.37V71.31h-7.22v55.78h123.7z" class="cls-4"/>
                <path id="Rectangle_1735" d="M0 0H1.81V2.48H0z" class="cls-5" transform="translate(138.73 78.79)"/>
                <path id="Rectangle_1736" d="M0 0H1.81V2.48H0z" class="cls-5" transform="translate(135.6 78.79)"/>
                <path id="Rectangle_1737" d="M0 0H1.81V2.48H0z" class="cls-5" transform="translate(132.47 78.79)"/>
                <path id="Rectangle_1738" d="M0 0H1.81V2.48H0z" class="cls-5" transform="translate(138.73 82.52)"/>
                <path id="Rectangle_1739" d="M0 0H1.81V2.48H0z" class="cls-5" transform="translate(135.6 82.52)"/>
                <path id="Rectangle_1740" d="M0 0H1.81V2.48H0z" class="cls-5" transform="translate(132.47 82.52)"/>
                <path id="Rectangle_1741" d="M0 0H1.81V2.48H0z" class="cls-5" transform="translate(138.73 86.25)"/>
                <path id="Rectangle_1742" d="M0 0H1.81V2.48H0z" class="cls-5" transform="translate(135.6 86.25)"/>
                <path id="Rectangle_1743" d="M0 0H1.81V2.48H0z" class="cls-5" transform="translate(132.47 86.25)"/>
                <path id="Rectangle_1744" d="M0 0H1.81V2.48H0z" class="cls-5" transform="translate(138.73 89.98)"/>
                <path id="Rectangle_1745" d="M0 0H1.81V2.48H0z" class="cls-5" transform="translate(135.6 89.98)"/>
                <path id="Rectangle_1746" d="M0 0H1.81V2.48H0z" class="cls-5" transform="translate(132.47 89.98)"/>
                <path id="Rectangle_1747" d="M0 0H1.81V2.07H0z" class="cls-5" transform="translate(76.21 83.12)"/>
                <path id="Rectangle_1748" d="M0 0H1.81V2.07H0z" class="cls-5" transform="translate(73.08 83.12)"/>
                <path id="Rectangle_1749" d="M0 0H1.81V2.07H0z" class="cls-5" transform="translate(69.94 83.12)"/>
                <path id="Rectangle_1750" d="M0 0H1.81V2.07H0z" class="cls-5" transform="translate(76.21 86.23)"/>
                <path id="Rectangle_1751" d="M0 0H1.81V2.07H0z" class="cls-5" transform="translate(73.08 86.23)"/>
                <path id="Rectangle_1752" d="M0 0H1.81V2.07H0z" class="cls-5" transform="translate(69.94 86.23)"/>
                <path id="Rectangle_1753" d="M0 0H1.81V2.07H0z" class="cls-5" transform="translate(76.21 89.34)"/>
                <path id="Rectangle_1754" d="M0 0H1.81V2.07H0z" class="cls-5" transform="translate(73.08 89.34)"/>
                <path id="Rectangle_1755" d="M0 0H1.81V2.07H0z" class="cls-5" transform="translate(69.94 89.34)"/>
                <path id="Rectangle_1756" d="M0 0H1.81V2.07H0z" class="cls-5" transform="translate(76.21 92.45)"/>
                <path id="Rectangle_1757" d="M0 0H1.81V2.07H0z" class="cls-5" transform="translate(73.08 92.45)"/>
                <path id="Rectangle_1758" d="M0 0H1.81V2.07H0z" class="cls-5" transform="translate(69.94 92.45)"/>
                <path id="Rectangle_1759" d="M0 0H1.81V2.07H0z" class="cls-5" transform="translate(76.21 95.64)"/>
                <path id="Rectangle_1760" d="M0 0H1.81V2.07H0z" class="cls-5" transform="translate(73.08 95.64)"/>
                <path id="Rectangle_1761" d="M0 0H1.81V2.07H0z" class="cls-5" transform="translate(69.94 95.64)"/>
                <path id="Rectangle_1762" d="M0 0H1.81V2.07H0z" class="cls-5" transform="translate(76.21 98.83)"/>
                <path id="Rectangle_1763" d="M0 0H1.81V2.07H0z" class="cls-5" transform="translate(73.08 98.83)"/>
                <path id="Rectangle_1764" d="M0 0H1.81V2.07H0z" class="cls-5" transform="translate(69.94 98.83)"/>
                <path id="Rectangle_1765" d="M0 0H1.81V2.07H0z" class="cls-5" transform="translate(76.21 102.02)"/>
                <path id="Rectangle_1766" d="M0 0H1.81V2.07H0z" class="cls-5" transform="translate(73.08 102.02)"/>
                <path id="Rectangle_1767" d="M0 0H1.81V2.07H0z" class="cls-5" transform="translate(69.94 102.02)"/>
                <path id="Rectangle_1768" d="M0 0H1.81V2.07H0z" class="cls-5" transform="translate(76.21 105.2)"/>
                <path id="Rectangle_1769" d="M0 0H1.81V2.07H0z" class="cls-5" transform="translate(73.08 105.2)"/>
                <path id="Rectangle_1770" d="M0 0H1.81V2.07H0z" class="cls-5" transform="translate(69.94 105.2)"/>
                <path id="Rectangle_1771" d="M0 0H10.4V1.55H0z" class="cls-5" transform="translate(116.49 84.38)"/>
                <path id="Rectangle_1772" d="M0 0H10.4V1.55H0z" class="cls-5" transform="translate(116.49 87.39)"/>
                <path id="Rectangle_1773" d="M0 0H10.4V1.55H0z" class="cls-5" transform="translate(116.49 90.39)"/>
                <path id="Rectangle_1774" d="M0 0H10.4V1.55H0z" class="cls-5" transform="translate(116.49 93.4)"/>
                <path id="Rectangle_1775" d="M0 0H10.4V1.55H0z" class="cls-5" transform="translate(116.49 96.41)"/>
                <path id="Rectangle_1776" d="M0 0H10.4V1.55H0z" class="cls-5" transform="translate(116.49 99.42)"/>
                <path id="Rectangle_1777" d="M0 0H10.4V1.55H0z" class="cls-5" transform="translate(116.49 102.43)"/>
                <path id="Rectangle_1778" d="M0 0H10.4V1.55H0z" class="cls-5" transform="translate(116.49 105.43)"/>
                <path id="Rectangle_1779" d="M0 0H9.56V1.55H0z" class="cls-5" transform="translate(41.63 81.74)"/>
                <path id="Rectangle_1780" d="M0 0H9.56V1.55H0z" class="cls-5" transform="translate(41.63 84.75)"/>
                <path id="Rectangle_1781" d="M0 0H9.56V1.55H0z" class="cls-5" transform="translate(41.63 87.76)"/>
                <path id="Rectangle_1782" d="M0 0H9.56V1.55H0z" class="cls-5" transform="translate(41.63 90.76)"/>
                <path id="Rectangle_1783" d="M0 0H9.56V1.55H0z" class="cls-5" transform="translate(41.63 93.77)"/>
                <path id="Rectangle_1784" d="M0 0H9.56V1.55H0z" class="cls-5" transform="translate(41.63 96.78)"/>
                <path id="Rectangle_1785" d="M0 0H9.56V1.55H0z" class="cls-5" transform="translate(41.63 99.79)"/>
                <path id="Rectangle_1786" d="M0 0H9.56V1.55H0z" class="cls-5" transform="translate(41.63 102.8)"/>
                <path id="Rectangle_1787" d="M0 0H9.56V1.55H0z" class="cls-5" transform="translate(41.63 105.65)"/>
                <path id="Rectangle_1788" d="M0 0H9.56V1.55H0z" class="cls-5" transform="translate(41.63 108.51)"/>
                <path id="Rectangle_1789" d="M0 0H9.56V1.55H0z" class="cls-5" transform="translate(41.63 111.37)"/>
                <path id="Rectangle_1790" d="M0 0H9.56V1.55H0z" class="cls-5" transform="translate(41.63 114.22)"/>
                <path id="Rectangle_1791" d="M0 0H9.56V1.55H0z" class="cls-5" transform="translate(41.63 117.08)"/>
                <path id="Rectangle_1792" d="M0 0H10.1V1.55H0z" class="cls-5" transform="translate(26.18 85.37)"/>
                <path id="Rectangle_1793" d="M0 0H10.1V1.55H0z" class="cls-5" transform="translate(26.18 88.38)"/>
                <path id="Rectangle_1794" d="M0 0H10.1V1.55H0z" class="cls-5" transform="translate(26.18 91.39)"/>
                <path id="Rectangle_1795" d="M0 0H10.1V1.55H0z" class="cls-5" transform="translate(26.18 94.4)"/>
                <path id="Rectangle_1796" d="M0 0H10.1V1.55H0z" class="cls-5" transform="translate(26.18 97.4)"/>
                <path id="Rectangle_1797" d="M0 0H10.1V1.55H0z" class="cls-5" transform="translate(26.18 100.41)"/>
                <path id="Rectangle_1798" d="M0 0H10.1V1.55H0z" class="cls-5" transform="translate(26.18 103.42)"/>
                <path id="Rectangle_1799" d="M0 0H10.1V1.55H0z" class="cls-5" transform="translate(26.18 106.43)"/>
                <path id="Rectangle_1800" d="M0 0H10.1V1.55H0z" class="cls-5" transform="translate(26.18 109.12)"/>
                <path id="Rectangle_1801" d="M0 0H10.1V1.55H0z" class="cls-5" transform="translate(26.18 111.81)"/>
                <path id="Rectangle_1802" d="M0 0H10.1V1.55H0z" class="cls-5" transform="translate(26.18 114.5)"/>
                <path id="Rectangle_1803" d="M0 0H3.21V1.5H0z" class="cls-5" transform="translate(87.03 79.48)"/>
                <path id="Rectangle_1804" d="M0 0H3.21V1.5H0z" class="cls-5" transform="translate(87.03 82.39)"/>
                <path id="Rectangle_1805" d="M0 0H3.21V1.5H0z" class="cls-5" transform="translate(87.03 85.29)"/>
                <path id="Rectangle_1806" d="M0 0H3.21V1.5H0z" class="cls-5" transform="translate(87.03 88.2)"/>
                <path id="Rectangle_1807" d="M0 0H3.21V1.5H0z" class="cls-5" transform="translate(87.03 91.1)"/>
                <path id="Rectangle_1808" d="M0 0H3.21V1.5H0z" class="cls-5" transform="translate(87.03 94.01)"/>
                <path id="Rectangle_1809" d="M0 0H3.21V1.5H0z" class="cls-5" transform="translate(87.03 96.91)"/>
                <path id="Rectangle_1810" d="M0 0H3.21V1.5H0z" class="cls-5" transform="translate(87.03 99.81)"/>
                <path id="Rectangle_1811" d="M0 0H3.21V1.5H0z" class="cls-5" transform="translate(82.66 79.48)"/>
                <path id="Rectangle_1812" d="M0 0H3.21V1.5H0z" class="cls-5" transform="translate(82.66 82.39)"/>
                <path id="Rectangle_1813" d="M0 0H3.21V1.5H0z" class="cls-5" transform="translate(82.66 85.29)"/>
                <path id="Rectangle_1814" d="M0 0H3.21V1.5H0z" class="cls-5" transform="translate(82.66 88.2)"/>
                <path id="Rectangle_1815" d="M0 0H3.21V1.5H0z" class="cls-5" transform="translate(82.66 91.1)"/>
                <path id="Rectangle_1816" d="M0 0H3.21V1.5H0z" class="cls-5" transform="translate(82.66 94.01)"/>
                <path id="Rectangle_1817" d="M0 0H3.21V1.5H0z" class="cls-5" transform="translate(82.66 96.91)"/>
                <path id="Rectangle_1818" d="M0 0H3.21V1.5H0z" class="cls-5" transform="translate(82.66 99.81)"/>
                <path id="Rectangle_1819" d="M0 0H3.35V2.36H0z" class="cls-5" transform="translate(107.92 68.71)"/>
                <path id="Rectangle_1820" d="M0 0H3.35V2.36H0z" class="cls-5" transform="translate(102.93 68.71)"/>
                <path id="Rectangle_1821" d="M0 0H3.35V2.36H0z" class="cls-5" transform="translate(107.92 72.17)"/>
                <path id="Rectangle_1822" d="M0 0H3.35V2.36H0z" class="cls-5" transform="translate(102.93 72.17)"/>
                <path id="Rectangle_1823" d="M0 0H3.35V2.36H0z" class="cls-5" transform="translate(107.92 75.64)"/>
                <path id="Rectangle_1824" d="M0 0H3.35V2.36H0z" class="cls-5" transform="translate(102.93 75.64)"/>
                <path id="Rectangle_1825" d="M0 0H3.35V2.36H0z" class="cls-5" transform="translate(107.92 79.11)"/>
                <path id="Rectangle_1826" d="M0 0H3.35V2.36H0z" class="cls-5" transform="translate(102.93 79.11)"/>
                <path id="Rectangle_1827" d="M0 0H3.35V2.36H0z" class="cls-5" transform="translate(107.92 82.58)"/>
                <path id="Rectangle_1828" d="M0 0H3.35V2.36H0z" class="cls-5" transform="translate(102.93 82.58)"/>
                <path id="Rectangle_1829" d="M0 0H3.35V2.36H0z" class="cls-5" transform="translate(107.92 86.05)"/>
                <path id="Rectangle_1830" d="M0 0H3.35V2.36H0z" class="cls-5" transform="translate(102.93 86.05)"/>
                <path id="Rectangle_1831" d="M0 0H3.35V2.36H0z" class="cls-5" transform="translate(107.92 89.51)"/>
                <path id="Rectangle_1832" d="M0 0H3.35V2.36H0z" class="cls-5" transform="translate(102.93 89.51)"/>
                <path id="Rectangle_1833" d="M0 0H3.35V2.36H0z" class="cls-5" transform="translate(107.92 92.98)"/>
                <path id="Rectangle_1834" d="M0 0H3.35V2.36H0z" class="cls-5" transform="translate(102.93 92.98)"/>
                <path id="Rectangle_1835" d="M0 0H3.35V2.36H0z" class="cls-5" transform="translate(96.75 75.64)"/>
                <path id="Rectangle_1836" d="M0 0H3.35V2.36H0z" class="cls-5" transform="translate(96.75 79.11)"/>
                <path id="Rectangle_1837" d="M0 0H3.35V2.36H0z" class="cls-5" transform="translate(96.75 82.58)"/>
                <path id="Rectangle_1838" d="M0 0H3.35V2.36H0z" class="cls-5" transform="translate(96.75 86.05)"/>
                <path id="Rectangle_1839" d="M0 0H3.35V2.36H0z" class="cls-5" transform="translate(96.75 89.51)"/>
                <path id="Rectangle_1840" d="M0 0H3.35V2.36H0z" class="cls-5" transform="translate(96.75 92.98)"/>
                <path id="Rectangle_1841" d="M0 0H3.35V2.36H0z" class="cls-5" transform="translate(107.92 96.41)"/>
                <path id="Rectangle_1842" d="M0 0H3.35V2.36H0z" class="cls-5" transform="translate(102.93 96.41)"/>
                <path id="Rectangle_1843" d="M0 0H3.35V2.36H0z" class="cls-5" transform="translate(96.75 96.41)"/>
                <path id="Rectangle_1844" d="M0 0H3.35V2.36H0z" class="cls-5" transform="translate(107.92 99.83)"/>
                <path id="Rectangle_1845" d="M0 0H3.35V2.36H0z" class="cls-5" transform="translate(102.93 99.83)"/>
                <path id="Rectangle_1846" d="M0 0H3.35V2.36H0z" class="cls-5" transform="translate(96.75 99.83)"/>
                <path id="Rectangle_1847" d="M0 0H3.35V2.36H0z" class="cls-5" transform="translate(107.92 103.26)"/>
                <path id="Rectangle_1848" d="M0 0H3.35V2.36H0z" class="cls-5" transform="translate(102.93 103.26)"/>
                <path id="Rectangle_1849" d="M0 0H3.35V2.36H0z" class="cls-5" transform="translate(96.75 103.26)"/>
                <path id="Rectangle_1850" d="M0 0H3.35V2.36H0z" class="cls-5" transform="translate(107.92 106.69)"/>
                <path id="Rectangle_1851" d="M0 0H3.35V2.36H0z" class="cls-5" transform="translate(102.93 106.69)"/>
                <path id="Rectangle_1852" d="M0 0H3.35V2.36H0z" class="cls-5" transform="translate(96.75 106.69)"/>
                <path id="Rectangle_1853" d="M0 0H3.35V2.36H0z" class="cls-5" transform="translate(107.92 110.11)"/>
                <path id="Rectangle_1854" d="M0 0H3.35V2.36H0z" class="cls-5" transform="translate(102.93 110.11)"/>
                <path id="Rectangle_1855" d="M0 0H3.35V2.36H0z" class="cls-5" transform="translate(96.75 110.11)"/>
                <path id="Rectangle_1856" d="M0 0H1.81V2.07H0z" class="cls-5" transform="translate(66.54 72.07)"/>
                <path id="Rectangle_1857" d="M0 0H1.81V2.07H0z" class="cls-5" transform="translate(63.41 72.07)"/>
                <path id="Rectangle_1858" d="M0 0H1.81V2.07H0z" class="cls-5" transform="translate(66.54 75.19)"/>
                <path id="Rectangle_1859" d="M0 0H1.81V2.07H0z" class="cls-5" transform="translate(63.41 75.19)"/>
                <path id="Rectangle_1860" d="M0 0H1.81V2.07H0z" class="cls-5" transform="translate(66.54 78.3)"/>
                <path id="Rectangle_1861" d="M0 0H1.81V2.07H0z" class="cls-5" transform="translate(63.41 78.3)"/>
                <path id="Rectangle_1862" d="M0 0H1.81V2.07H0z" class="cls-5" transform="translate(66.54 81.41)"/>
                <path id="Rectangle_1863" d="M0 0H1.81V2.07H0z" class="cls-5" transform="translate(63.41 81.41)"/>
                <path id="Rectangle_1864" d="M0 0H1.81V2.07H0z" class="cls-5" transform="translate(66.54 84.6)"/>
                <path id="Rectangle_1865" d="M0 0H1.81V2.07H0z" class="cls-5" transform="translate(63.41 84.6)"/>
                <path id="Rectangle_1866" d="M0 0H1.81V2.07H0z" class="cls-5" transform="translate(66.54 87.79)"/>
                <path id="Rectangle_1867" d="M0 0H1.81V2.07H0z" class="cls-5" transform="translate(63.41 87.79)"/>
                <path id="Rectangle_1868" d="M0 0H1.81V2.07H0z" class="cls-5" transform="translate(66.54 90.97)"/>
                <path id="Rectangle_1869" d="M0 0H1.81V2.07H0z" class="cls-5" transform="translate(63.41 90.97)"/>
                <path id="Rectangle_1870" d="M0 0H1.81V2.07H0z" class="cls-5" transform="translate(66.54 94.16)"/>
                <path id="Rectangle_1871" d="M0 0H1.81V2.07H0z" class="cls-5" transform="translate(63.41 94.16)"/>
                <path id="Rectangle_1872" d="M0 0H1.81V2.07H0z" class="cls-5" transform="translate(66.54 97.39)"/>
                <path id="Rectangle_1873" d="M0 0H1.81V2.07H0z" class="cls-5" transform="translate(63.41 97.39)"/>
                <path id="Rectangle_1874" d="M0 0H1.81V2.07H0z" class="cls-5" transform="translate(66.54 100.6)"/>
                <path id="Rectangle_1875" d="M0 0H1.81V2.07H0z" class="cls-5" transform="translate(63.41 100.6)"/>
                <path id="Rectangle_1876" d="M0 0H1.81V2.07H0z" class="cls-5" transform="translate(66.54 103.83)"/>
                <path id="Rectangle_1877" d="M0 0H1.81V2.07H0z" class="cls-5" transform="translate(63.41 103.83)"/>
                <path id="Rectangle_1878" d="M0 0H1.81V2.07H0z" class="cls-5" transform="translate(66.54 107.05)"/>
                <path id="Rectangle_1879" d="M0 0H1.81V2.07H0z" class="cls-5" transform="translate(63.41 107.05)"/>
                <path id="Rectangle_1880" d="M0 0H1.81V2.44H0z" class="cls-5" transform="translate(22.43 72.41)"/>
                <path id="Rectangle_1881" d="M0 0H1.81V2.44H0z" class="cls-5" transform="translate(19.31 72.41)"/>
                <path id="Rectangle_1882" d="M0 0H1.81V2.44H0z" class="cls-5" transform="translate(22.43 76.08)"/>
                <path id="Rectangle_1883" d="M0 0H1.81V2.44H0z" class="cls-5" transform="translate(19.31 76.08)"/>
                <path id="Rectangle_1884" d="M0 0H1.81V2.44H0z" class="cls-5" transform="translate(22.43 79.74)"/>
                <path id="Rectangle_1885" d="M0 0H1.81V2.44H0z" class="cls-5" transform="translate(19.31 79.74)"/>
                <path id="Rectangle_1886" d="M0 0H1.81V2.44H0z" class="cls-5" transform="translate(22.43 83.41)"/>
                <path id="Rectangle_1887" d="M0 0H1.81V2.44H0z" class="cls-5" transform="translate(19.31 83.41)"/>
                <path id="Rectangle_1888" d="M0 0H1.81V2.44H0z" class="cls-5" transform="translate(22.43 87.17)"/>
                <path id="Rectangle_1889" d="M0 0H1.81V2.44H0z" class="cls-5" transform="translate(19.31 87.17)"/>
                <path id="Rectangle_1890" d="M0 0H1.81V2.44H0z" class="cls-5" transform="translate(22.43 90.92)"/>
                <path id="Rectangle_1891" d="M0 0H1.81V2.44H0z" class="cls-5" transform="translate(19.31 90.92)"/>
                <path id="Rectangle_1892" d="M0 0H1.81V2.44H0z" class="cls-5" transform="translate(22.43 94.68)"/>
                <path id="Rectangle_1893" d="M0 0H1.81V2.44H0z" class="cls-5" transform="translate(19.31 94.68)"/>
                <path id="Rectangle_1894" d="M0 0H1.81V2.44H0z" class="cls-5" transform="translate(22.43 98.43)"/>
                <path id="Rectangle_1895" d="M0 0H1.81V2.44H0z" class="cls-5" transform="translate(19.31 98.43)"/>
                <path id="Rectangle_1896" d="M0 0H1.81V2.44H0z" class="cls-5" transform="translate(22.43 102.23)"/>
                <path id="Rectangle_1897" d="M0 0H1.81V2.44H0z" class="cls-5" transform="translate(19.31 102.23)"/>
                <path id="Rectangle_1898" d="M0 0H1.81V2.44H0z" class="cls-5" transform="translate(22.43 106.03)"/>
                <path id="Rectangle_1899" d="M0 0H1.81V2.44H0z" class="cls-5" transform="translate(19.31 106.03)"/>
                <path id="Rectangle_1900" d="M0 0H1.81V2.44H0z" class="cls-5" transform="translate(22.43 109.82)"/>
                <path id="Rectangle_1901" d="M0 0H1.81V2.44H0z" class="cls-5" transform="translate(19.31 109.82)"/>
                <path id="Rectangle_1902" d="M0 0H1.81V2.44H0z" class="cls-5" transform="translate(22.43 113.62)"/>
                <path id="Rectangle_1903" d="M0 0H1.81V2.44H0z" class="cls-5" transform="translate(19.31 113.62)"/>
                <path id="Rectangle_1904" d="M0 0H1.81V2.07H0z" class="cls-5" transform="translate(59.84 72.07)"/>
                <path id="Rectangle_1905" d="M0 0H1.81V2.07H0z" class="cls-5" transform="translate(56.71 72.07)"/>
                <path id="Rectangle_1906" d="M0 0H1.81V2.07H0z" class="cls-5" transform="translate(59.84 68.89)"/>
                <path id="Rectangle_1907" d="M0 0H1.81V2.07H0z" class="cls-5" transform="translate(56.71 68.89)"/>
                <path id="Rectangle_1908" d="M0 0H1.81V2.07H0z" class="cls-5" transform="translate(59.84 65.7)"/>
                <path id="Rectangle_1909" d="M0 0H1.81V2.07H0z" class="cls-5" transform="translate(56.71 65.7)"/>
                <path id="Rectangle_1910" d="M0 0H1.81V2.07H0z" class="cls-5" transform="translate(59.84 75.19)"/>
                <path id="Rectangle_1911" d="M0 0H1.81V2.07H0z" class="cls-5" transform="translate(56.71 75.19)"/>
                <path id="Rectangle_1912" d="M0 0H1.81V2.07H0z" class="cls-5" transform="translate(59.84 78.3)"/>
                <path id="Rectangle_1913" d="M0 0H1.81V2.07H0z" class="cls-5" transform="translate(56.71 78.3)"/>
                <path id="Rectangle_1914" d="M0 0H1.81V2.07H0z" class="cls-5" transform="translate(59.84 81.41)"/>
                <path id="Rectangle_1915" d="M0 0H1.81V2.07H0z" class="cls-5" transform="translate(56.71 81.41)"/>
                <path id="Rectangle_1916" d="M0 0H1.81V2.07H0z" class="cls-5" transform="translate(59.84 84.6)"/>
                <path id="Rectangle_1917" d="M0 0H1.81V2.07H0z" class="cls-5" transform="translate(56.71 84.6)"/>
                <path id="Rectangle_1918" d="M0 0H1.81V2.07H0z" class="cls-5" transform="translate(59.84 87.79)"/>
                <path id="Rectangle_1919" d="M0 0H1.81V2.07H0z" class="cls-5" transform="translate(56.71 87.79)"/>
                <path id="Rectangle_1920" d="M0 0H1.81V2.07H0z" class="cls-5" transform="translate(59.84 90.97)"/>
                <path id="Rectangle_1921" d="M0 0H1.81V2.07H0z" class="cls-5" transform="translate(56.71 90.97)"/>
                <path id="Rectangle_1922" d="M0 0H1.81V2.07H0z" class="cls-5" transform="translate(59.84 94.16)"/>
                <path id="Rectangle_1923" d="M0 0H1.81V2.07H0z" class="cls-5" transform="translate(56.71 94.16)"/>
                <path id="Rectangle_1924" d="M0 0H1.81V2.07H0z" class="cls-5" transform="translate(59.84 97.39)"/>
                <path id="Rectangle_1925" d="M0 0H1.81V2.07H0z" class="cls-5" transform="translate(56.71 97.39)"/>
                <path id="Rectangle_1926" d="M0 0H1.81V2.07H0z" class="cls-5" transform="translate(59.84 100.6)"/>
                <path id="Rectangle_1927" d="M0 0H1.81V2.07H0z" class="cls-5" transform="translate(56.71 100.6)"/>
                <path id="Rectangle_1928" d="M0 0H1.81V2.07H0z" class="cls-5" transform="translate(59.84 103.83)"/>
                <path id="Rectangle_1929" d="M0 0H1.81V2.07H0z" class="cls-5" transform="translate(56.71 103.83)"/>
                <path id="Rectangle_1930" d="M0 0H1.81V2.07H0z" class="cls-5" transform="translate(59.84 107.05)"/>
                <path id="Rectangle_1931" d="M0 0H1.81V2.07H0z" class="cls-5" transform="translate(56.71 107.05)"/>
                <path id="Path_11188" d="M140.53 60H107.3s3.3-9 8.37-9 6.66 6.22 6.66 6.22 3.42-3.38 6.23-3.38 5.25 4.46 5.25 4.46a4.9 4.9 0 0 1 6.72 1.7z" class="cls-4"/>
                <path id="Path_11189" d="M121.93 42.16H106.4s3.47-5 6.21-5 3.54 3.36 3.54 3.36 1.93-1.57 3.7-1.29 2.08 2.93 2.08 2.93z" class="cls-4"/>
                <path id="Path_11190" d="M49.72 57.29H19.47S23.61 48 28 47.46s6.55 6.87 6.55 6.87 2.86-2.63 5.11-2.63 4 3.46 4 3.46 4.52-2.37 6.06 2.13z" class="cls-4"/>
                <path id="Path_11191" d="M78.47 34.39H58s3.51-6.7 7.32-6.79 5.81 5.07 5.81 5.07 5.96-4.76 7.34 1.72z" class="cls-4"/>
            </g>
            <g id="freepik--Shadow--inject-328">
                <ellipse id="Ellipse_1306" cx="50.33" cy="3.33" class="cls-4" rx="50.33" ry="3.33" transform="translate(42.1 132.47)"/>
            </g>
            <g id="freepik--Character--inject-328">
                <path id="Path_11192" d="M77.74 75.35C83 80.78 98.66 105 99.88 105.68c0 0 0 15.81-8.74 12.66S74.39 86.81 72.68 77.76c-.9-4.76.8-6.85 5.06-2.41z" class="cls-6"/>
                <path id="Path_11193" d="M76.41 94l16-1.82S82.49 79 77.36 74.34c-5.35-4.9-8-4.22-5.49 5.07S76.41 94 76.41 94z" class="cls-7"/>
                <path id="Path_11194" d="M75.66 85.32a4.64 4.64 0 0 0-.33 1.38 5.59 5.59 0 0 0 1-2.63 4.6 4.6 0 0 0-.67 1.25zm9 .36a5 5 0 0 0-1.37-.34 5.41 5.41 0 0 0 2.62 1 4.86 4.86 0 0 0-1.25-.67zm-2.38 6.23a5.17 5.17 0 0 0-.74-1.21 5.08 5.08 0 0 0 .41 1.36 5 5 0 0 0 .73 1.21 5 5 0 0 0-.41-1.36zm-9.4-20.07c-.08-.17-.16-.33-.25-.5a1.819 1.819 0 0 0-.33 0c.07.23.16.44.25.66a4.74 4.74 0 0 0 .74 1.21 5.14 5.14 0 0 0-.41-1.37zm18.45 18.94l-.33.12a5 5 0 0 0-1.21.74 5 5 0 0 0 1.36-.41 3 3 0 0 0 .36-.18zM79 78.06a5 5 0 0 0-1.21.73 5.41 5.41 0 0 0 2.57-1.14 5 5 0 0 0-1.36.41zm-1.07 0z" class="cls-5"/>
                <path id="Path_11195" d="M77.18 91.16a11.388 11.388 0 0 1 1.15-.16l1.18-.17 2.38-.31c1.59-.18 3.19-.37 4.78-.53q.66-.08 1.32-.12a9.382 9.382 0 0 0 1.39-.07c-.39.06-.78.15-1.17.21l-1.21.2-2.38.28c-1.57.17-3.14.35-4.72.49l-1.31.11c-.46 0-.93.11-1.39.11z" class="cls-8"/>
                <path id="Path_11196" d="M84.18 93.16l-7.76.84s-2.06-5.29-4.55-14.63c-1.06-3.94-1.19-6.33-.58-7.41z" opacity="0.1"/>
                <path id="Path_11197" d="M80.86 127H56.5c-.2-.79-.4-1.55-.59-2.32l-.65-2.56-.15-.55c-.16-.63-.31-1.25-.47-1.85l-.27-1.09-.28-1.07a2.68 2.68 0 0 0-.07-.27L54 117l-.09-.36a1.779 1.779 0 0 0-.1-.38l-.18-.69c-.08-.33-.17-.66-.25-1a2.221 2.221 0 0 0-.1-.41c-.03-.14-.12-.44-.17-.65s-.07-.28-.1-.42c-.15-.56-.28-1.08-.4-1.57a1.637 1.637 0 0 0-.1-.38c-.03-.12-.11-.42-.16-.62l-.09-.36c-.11-.42-.21-.8-.29-1.14a1.255 1.255 0 0 0-.07-.26c-.02-.09-.11-.42-.15-.59s0-.14-.05-.2v-.2a.42.42 0 0 0 0-.12v-.17a.15.15 0 0 0 0-.07l-.06-.22h23.52s.78 2.69 2 7c.25.88.53 1.85.82 2.85z" class="cls-10"/>
                <path id="Path_11198" d="M60.49 127h-.62c-.9-3.74-1.78-7.47-2.62-11.22l-.62-2.78-.06-.26a.29.29 0 0 0 0 .09c.27 1 .55 2 .82 2.94q1.66 5.59 3.1 11.23z" class="cls-8"/>
                <path id="Path_11199" d="M74.39 107.17l-1 5.25-.85 4.3L71 124l-.15.75-.22 1.25-.2.94H56.49c-.19-.79-.39-1.55-.58-2.32l-.65-2.56-.15-.55c-.16-.63-.31-1.25-.47-1.85l-.27-1.09-.28-1.07a2.68 2.68 0 0 0-.07-.27L54 117l-.09-.36a1.779 1.779 0 0 0-.1-.38l-.18-.69c-.08-.33-.17-.66-.25-1a2.042 2.042 0 0 0-.1-.41c-.03-.14-.12-.44-.17-.65s-.07-.28-.1-.42c-.15-.56-.28-1.08-.4-1.57a1.637 1.637 0 0 0-.1-.38c-.03-.12-.11-.42-.16-.62l-.09-.36c-.11-.42-.21-.8-.29-1.14a1.255 1.255 0 0 0-.07-.26c-.02-.09-.11-.42-.15-.59s0-.14-.05-.2v-.2a.42.42 0 0 0 0-.12v-.17a.15.15 0 0 0 0-.07l-.06-.22z" class="cls-8"/>
                <path id="Path_11200" d="M74.39 107.16c0 .13-.09 1.55-.32 3.71-.07.61-.14 1.32-.23 2.06-.14 1.17-.31 2.47-.53 3.82-.36 2.38-.84 5-1.46 7.52-.22.92-.46 1.81-.71 2.7H40.53c.36-4.66.69-8.88 1-12.21.36-4.68.61-7.61.61-7.61h32.25z" class="cls-10"/>
                <path id="Path_11201" d="M74.33 110c0 1.1-.08 2.19-.15 3.28s-.18 2.36-.34 3.54a.53.53 0 0 1 0 .13c-.15 1.11-.31 2.21-.5 3.31a12.08 12.08 0 0 1-.76 3.08 2.86 2.86 0 0 1-.72 1 2.12 2.12 0 0 1-1 .51h-.19v.06a10.288 10.288 0 0 1 0 1.11 6.562 6.562 0 0 1-.15 1H70c.1-.34.17-.69.26-1s.21-.7.29-1.07a1.62 1.62 0 0 1-1.58-1 2.81 2.81 0 0 1 0-1.44c.1-.62.19-1.25.29-1.88.17-1.15.41-2.29.61-3.43l.1-.53c.41-2.33.84-4.66 1.35-7l.06-.28a.06.06 0 1 1 .11 0v.47c-.09.89-.19 1.77-.3 2.65s-.25 2.07-.4 3.11l-.15 1c-.24 1.7-.49 3.4-.78 5.1-.13.79-.61 2.2.51 2.44A1.14 1.14 0 0 0 71 124a2.4 2.4 0 0 0 1-1.33 17 17 0 0 0 .6-2.83c.19-1 .35-2.07.5-3.11.18-1.3.38-2.6.58-3.9.1-.66.2-1.32.31-2l.14-.92c.1-.02.2 0 .2.09z" class="cls-8"/>
                <path id="Path_11202" d="M47.25 118.11a15 15 0 0 0 3.75-.51c.57-.14 1.13-.33 1.69-.51a4.35 4.35 0 0 0 1.52-.76 6.7 6.7 0 0 0 1.63-3 27.338 27.338 0 0 0 1-3.57c0-.06.1 0 .1 0a13.81 13.81 0 0 1-.51 4 6.32 6.32 0 0 1-1.62 3.24 6.6 6.6 0 0 1-3.46 1.26 16.15 16.15 0 0 1-4.11 0 .08.08 0 0 1-.07-.08.09.09 0 0 1 .08-.07z" class="cls-8"/>
                <path id="Path_11203" d="M45.12 109.85c-.07 1.71-.14 3.43-.22 5.14q-.26 6-.57 12h-.58q.41-6 .83-12l.39-5.12a.09.09 0 0 1 .08-.08.08.08 0 0 1 .07.08z" class="cls-8"/>
                <path id="Path_11204" d="M79.66 119.84l-41.52-3.15S46.5 83.58 63 71.41a8.14 8.14 0 0 1 10.9 1.21c5.28 5.92 5.89 47.09 5.76 47.22z" class="cls-7"/>
                <path id="Path_11205" d="M64.91 72.92a4.64 4.64 0 0 0-.33 1.38 5.61 5.61 0 0 0 1-2.61 4.77 4.77 0 0 0-.67 1.23zM60.4 90.78a4.72 4.72 0 0 0-.33 1.38 5.55 5.55 0 0 0 1-2.62 5 5 0 0 0-.67 1.24zm-14.83 7.66a5 5 0 0 0-.34 1.38 5.45 5.45 0 0 0 1-2.63 5 5 0 0 0-.66 1.25zm12 11.28a4.64 4.64 0 0 0-.33 1.38 5.58 5.58 0 0 0 1-2.63 4.86 4.86 0 0 0-.7 1.25zm18.09-24.41a4.72 4.72 0 0 0-.33 1.38 5.55 5.55 0 0 0 1-2.62 4.6 4.6 0 0 0-.68 1.25zm-7.39 22.46a5 5 0 0 0-.34 1.37 4.49 4.49 0 0 0 .68-1.23 4.72 4.72 0 0 0 .33-1.38 4.79 4.79 0 0 0-.67 1.24zm-15-23.3a4.72 4.72 0 0 0-.27 1.38 5.54 5.54 0 0 0 1-2.63 4.86 4.86 0 0 0-.69 1.25zm16.63-5.93a5.06 5.06 0 0 0-1.38-.33 4.79 4.79 0 0 0 1.24.67 5 5 0 0 0 1.37.34 4.77 4.77 0 0 0-1.23-.68zm4.7 14.89a5 5 0 0 0-1.38-.34 5.32 5.32 0 0 0 2.62 1 4.93 4.93 0 0 0-1.24-.66zm1.26 17.78a5 5 0 0 0-1.37-.33 4.74 4.74 0 0 0 1.23.67 5.07 5.07 0 0 0 1.38.34 5.31 5.31 0 0 0-1.24-.67zm-29.55-1.46a5.07 5.07 0 0 0-1.38-.34 5.45 5.45 0 0 0 2.62 1 4.93 4.93 0 0 0-1.24-.66zM57 98.33a5 5 0 0 0-1.39-.33 5.34 5.34 0 0 0 1.24.68 5 5 0 0 0 1.38.33 4.93 4.93 0 0 0-1.23-.67zm15.88-26.5c0-.09-.08-.18-.13-.27l-.48-.33a6.921 6.921 0 0 0 .28.76 4.58 4.58 0 0 0 .74 1.21 5 5 0 0 0-.41-1.36zm-12.13 9.6a5.38 5.38 0 0 0-.75-1.21 5.44 5.44 0 0 0 1.14 2.57 4.63 4.63 0 0 0-.4-1.36zM71.45 118a4.82 4.82 0 0 0-.73-1.21 5 5 0 0 0 .4 1.36 5.22 5.22 0 0 0 .68 1.13 4.85 4.85 0 0 0-.35-1.28zm-3.94-21.55a5 5 0 0 0-.74-1.21 5.69 5.69 0 0 0 1.14 2.57 5 5 0 0 0-.4-1.36zm-28.28 16.4l-.06.19.12.13-.06-.31zm12.35-8.23a5 5 0 0 0-.74-1.21A5.41 5.41 0 0 0 52 106a5 5 0 0 0-.41-1.35zm2.65 11.88a5.17 5.17 0 0 0-.74-1.21 5.44 5.44 0 0 0 1.14 2.57 4.9 4.9 0 0 0-.41-1.35zM75 102.2a5.17 5.17 0 0 0-1.21.74 5 5 0 0 0 1.36-.41 4.82 4.82 0 0 0 1.21-.73 5.14 5.14 0 0 0-1.37.41zM42.24 104l-.16.43a4.11 4.11 0 0 0 .93-.6 3.4 3.4 0 0 0-.78.18zm21.17 10.29a4.65 4.65 0 0 0-1.21.73 5 5 0 0 0 1.36-.4 5.17 5.17 0 0 0 1.21-.74 4.64 4.64 0 0 0-1.37.42zM44.48 117l-.22.1.73.06a4.31 4.31 0 0 0 .85-.56 4.93 4.93 0 0 0-1.37.41zm7.27-25.38a5.38 5.38 0 0 0-1.21.74 5.54 5.54 0 0 0 2.57-1.14 5.14 5.14 0 0 0-1.37.41zm10.64 11.82a5.38 5.38 0 0 0-1.21.74 5.44 5.44 0 0 0 2.57-1.14 5.14 5.14 0 0 0-1.37.41zM68 87.23a5.17 5.17 0 0 0-1.21.74 5.44 5.44 0 0 0 2.57-1.14 5.1 5.1 0 0 0-1.38.41z" class="cls-5"/>
                <path id="Path_11206" d="M71.55 79.54c-2.4-.35-4.83-5.19-5.25-8.48 0-.23 3.7-7.35 4.29-8.84.12-.31 8.44 6 8.44 6a25.24 25.24 0 0 0-3.17 5.35c-.07.2-2 6.31-4.31 5.97z" class="cls-6"/>
                <path id="Path_11207" d="M79 68.2a25.24 25.24 0 0 0-3.17 5.35s-.15.44-.35 1A13.31 13.31 0 0 1 68.8 66c.8-1.62 1.56-3.15 1.8-3.75.12-.33 8.4 5.95 8.4 5.95z" class="cls-8"/>
                <path id="Path_11208" d="M72.51 50.66c-2.44 2.81-4.87 13-3.48 16.1 2 4.53 7.41 7.25 11.77 4.35S88 55 86.22 52c-2.57-4.54-10.12-5.51-13.71-1.34z" class="cls-6"/>
                <path id="Path_11209" d="M79 58.91h-.93a1.5 1.5 0 0 1-1-.18.51.51 0 0 1-.12-.58 1.19 1.19 0 0 1 1.1-.5 1.7 1.7 0 0 1 1.19.38.51.51 0 0 1 0 .72.52.52 0 0 1-.24.16z" class="cls-8"/>
                <path id="Path_11210" d="M78.74 60.4a.059.059 0 0 0-.06.06c-.12.69-.37 1.47-1 1.57.74.09 1.06-.95 1.06-1.63z" class="cls-8"/>
                <path id="Path_11211" d="M78.27 59.56c-1.1-.31-1.63 1.91-.62 2.19s1.54-1.94.62-2.19z" class="cls-8"/>
                <path id="Path_11212" d="M82.73 61.26v.07c-.19.68-.29 1.49.28 1.85-.71-.18-.57-1.3-.28-1.92z" class="cls-8"/>
                <path id="Path_11213" d="M83.51 60.69c1.12.18.68 2.41-.36 2.24s-.58-2.39.36-2.24z" class="cls-8"/>
                <path id="Path_11214" d="M84.65 59.59c-.28-.13-.56-.28-.83-.44a1.47 1.47 0 0 1-.75-.62.47.47 0 0 1 .16-.56 1.2 1.2 0 0 1 1.21.06 1.72 1.72 0 0 1 .88.9.51.51 0 0 1-.29.67.55.55 0 0 1-.38-.01z" class="cls-8"/>
                <path id="Path_11215" d="M76.45 66.35c.12.2.23.46.48.54a2 2 0 0 0 .78 0 1 1 0 0 1-1 .16.74.74 0 0 1-.4-.73s.12-.01.14.03z" class="cls-8"/>
                <path id="Path_11216" d="M77.66 64.47A2.4 2.4 0 0 0 79 65.88a2.94 2.94 0 0 0 .83.24h.32a.17.17 0 0 0 .17-.12v-.14c.14-.53.28-1.34.28-1.34.17.14 1.05.82 1.1.54a36.221 36.221 0 0 0 .79-7.28.065.065 0 1 0-.13 0c-.48 2.21-.57 4.49-1 6.72a4.47 4.47 0 0 0-1-.61c-.08 0-.25 1.58-.33 1.81a3.34 3.34 0 0 1-2.24-1.33s-.16.03-.13.1z" class="cls-8"/>
                <path id="Path_11217" d="M79.55 65.77a2.81 2.81 0 0 1-1.31.6 1.28 1.28 0 0 1-.77-.14c-.51-.27-.41-.78-.2-1.18a2.73 2.73 0 0 1 .4-.6 3.69 3.69 0 0 0 1.88 1.32z" class="cls-8"/>
                <path id="Path_11218" d="M78.24 66.37a1.28 1.28 0 0 1-.77-.14c-.51-.27-.41-.78-.2-1.18a1.33 1.33 0 0 1 .97 1.32z" class="cls-11"/>
                <path id="Path_11219" d="M87.16 55.91c-4.33 1.81-8.7-3.19-8.7-3.19a4.2 4.2 0 0 1-4.72 1.73s-2.07 6.26-3.74 5.88c-2.57-.55-1.54-9.46-.38-11A4.76 4.76 0 0 1 73 47.78a4.29 4.29 0 0 1 2.28-2.18c2-1 7.72 2.09 7.72 2.09a5.73 5.73 0 0 1 2-1.77 1.62 1.62 0 0 1 2.21.62.431.431 0 0 1 0 .07 3.81 3.81 0 0 0-1 1.45c-.69 1.81.84 2.13 1.18.42a2.69 2.69 0 0 0-.23-1.87c1-1 2.3-1.07 2.92-.31 1.28 1.38.67 8.11-2.92 9.61z" class="cls-8"/>
                <path id="Path_11220" d="M76.56 63.84a3 3 0 1 1 3.88-2.65A3 3 0 0 1 77.27 64a2.87 2.87 0 0 1-.71-.16zm1.7-5.29a2.63 2.63 0 1 0 1.691 3.184 2.63 2.63 0 0 0-1.691-3.184z" class="cls-7"/>
                <path id="Path_11221" d="M83.13 65.09a2.77 2.77 0 0 1-1.23-3.37 3.47 3.47 0 0 1 1.1-1.87 1.85 1.85 0 0 1 2.62 0 1.81 1.81 0 0 1 .47.77 3.61 3.61 0 0 1 .11 2.18c-.4 1.59-1.68 2.65-2.87 2.35zm1.67-5.3h-.14a1.62 1.62 0 0 0-1.41.4 3.21 3.21 0 0 0-1 1.66c-.34 1.39.17 2.71 1.14 3s2-.69 2.39-2.07a3.19 3.19 0 0 0-.09-1.93 1.64 1.64 0 0 0-.89-1.06z" class="cls-7"/>
                <path id="Path_11222" d="M80.28 61.51l-.19-.35a1.63 1.63 0 0 1 2.2.31l-.34.21c-.5-.8-1.63-.2-1.67-.17z" class="cls-7"/>
                <path id="Path_11223" d="M67.1 59.69l-.31-.25c.12-.14 1.16-1.42 2.06-1.39a61.373 61.373 0 0 1 6.21 1.62l-.12.38c-1.47-.43-5.45-1.58-6.1-1.6s-1.46.89-1.74 1.24z" class="cls-7"/>
                <path id="Path_11224" d="M71.08 59.75s-.83-4-2.55-3.8-2 5.28-.63 6.59a1.8 1.8 0 0 0 2.54.11h.06z" class="cls-6"/>
                <path id="Path_11225" d="M68.48 57.42a4.55 4.55 0 0 1 1 3.54 1 1 0 0 0-1.26-.83v.07a1.12 1.12 0 0 1 1 .84 5.39 5.39 0 0 1 .15 1.13.12.12 0 0 0 .23 0c.65-1.41.4-3.94-1.12-4.75z" class="cls-8"/>
                <path id="Path_11226" d="M92.24 87.66c.78-2.06 18.89 1.66 18.16 4.81-2.65 11.55-10 21.87-11.9 24.22-2.46 3.09-7.33 2.41-9.11.53-2.58-2.71 2.08-27.53 2.85-29.56z" class="cls-6"/>
                <path id="Path_11227" d="M91 93.32a23.838 23.838 0 0 0-.95 3.4c-.26 1.14-.49 2.29-.68 3.44a52.278 52.278 0 0 0-.61 7.06v4c0-1.17.07-2.35.16-3.52s.22-2.35.37-3.52c.29-2.3.61-4.6 1-6.88l.36-1.91c.14-.66.29-1.32.37-2 .04-.08-.02-.12-.02-.07z" class="cls-8"/>
                <path id="Path_11228" d="M87.87 55.12a32.1 32.1 0 0 1-.7 4.67c-.06.26-.13.53-.19.8-.26 1-.57 2.11-.93 3.13-.08.25-.17.5-.26.74-1.09 3-2.54 5.5-4.17 6.58a7.21 7.21 0 0 1-1.31.71 15.92 15.92 0 0 1-7.9-13.29l-.5-.13.24-.37.25-.45a16 16 0 0 1 4.5-10.61c3.88-1 8.53.45 10.48 3.85a8.72 8.72 0 0 1 .49 4.37z" class="cls-6"/>
                <path id="Path_11229" d="M79.74 58.12a8.179 8.179 0 0 1-1 0 1.51 1.51 0 0 1-1-.2.52.52 0 0 1-.13-.62 1.25 1.25 0 0 1 1.16-.53 1.83 1.83 0 0 1 1.27.4.56.56 0 0 1 0 .77.57.57 0 0 1-.3.18z" class="cls-8"/>
                <path id="Path_11230" d="M79.45 59.71a.072.072 0 0 0-.07.06c-.12.74-.39 1.56-1.1 1.67.83.07 1.17-1.02 1.17-1.73z" class="cls-8"/>
                <path id="Path_11231" d="M79 58.8c-1.16-.32-1.73 2-.65 2.33s1.57-2.05.65-2.33z" class="cls-8"/>
                <path id="Path_11232" d="M83.67 60.6v.08c-.2.72-.31 1.58.31 2-.76-.29-.61-1.42-.31-2.08z" class="cls-8"/>
                <path id="Path_11233" d="M84.5 60c1.19.19.72 2.56-.38 2.38s-.62-2.54.38-2.38z" class="cls-8"/>
                <path id="Path_11234" d="M85.7 58.84c-.3-.13-.57-.31-.87-.47a1.63 1.63 0 0 1-.8-.64.51.51 0 0 1 .17-.6 1.28 1.28 0 0 1 1.28.06 1.89 1.89 0 0 1 .93 1 .54.54 0 0 1-.33.69.55.55 0 0 1-.38-.04z" class="cls-8"/>
                <path id="Path_11235" d="M77 66c.13.21.25.49.51.57a1.89 1.89 0 0 0 .82 0 1 1 0 0 1-1 .17.78.78 0 0 1-.42-.77.148.148 0 0 0 .09.03z" class="cls-8"/>
                <path id="Path_11236" d="M78.3 64a2.6 2.6 0 0 0 1.39 1.5 3.29 3.29 0 0 0 .88.25h.34a.17.17 0 0 0 .18-.13.08.08 0 0 0 0-.07v-.06c.15-.56.31-1.42.31-1.42.18.15 1.11.87 1.16.57a37.711 37.711 0 0 0 .84-7.72.07.07 0 1 0-.14 0c-.51 2.34-.62 4.76-1.08 7.1a4.48 4.48 0 0 0-1.09-.61c-.08 0-.26 1.67-.34 1.91A3.54 3.54 0 0 1 78.38 64c-.04-.1-.11-.07-.08 0z" class="cls-8"/>
                <path id="Path_11237" d="M80.31 65.39a3.08 3.08 0 0 1-1.39.62 1.3 1.3 0 0 1-.82-.15c-.54-.29-.43-.82-.21-1.25a3.921 3.921 0 0 1 .42-.64 4 4 0 0 0 2 1.42z" class="cls-8"/>
                <path id="Path_11238" d="M78.91 66a1.27 1.27 0 0 1-.81-.15c-.54-.29-.43-.82-.21-1.25a1.39 1.39 0 0 1 1.02 1.4z" class="cls-11"/>
                <path id="Path_11239" d="M88.36 54.94a4.841 4.841 0 0 1-.49.18c-4.42 1.37-8.72-3.56-8.72-3.56a4.46 4.46 0 0 1-5 1.85 29.719 29.719 0 0 1-1.76 4.11 15.94 15.94 0 0 1 7.52-13A30.411 30.411 0 0 1 84 46.26a6.14 6.14 0 0 1 2.11-1.88 1.73 1.73 0 0 1 2.35.65v.08a4.27 4.27 0 0 0-1 1.54c-.73 1.92.89 2.26 1.25.45a2.86 2.86 0 0 0-.25-2c1-1 2.44-1.12 3.09-.31 1.26 1.44.62 8.56-3.19 10.15z" class="cls-8"/>
                <path id="Path_11240" d="M80.11 57.91a3.18 3.18 0 0 0-1.81-.73 3.24 3.24 0 0 0-3 1.68 2.3 2.3 0 0 0-.17.39 3 3 0 0 0-.19.88 3.17 3.17 0 0 0 2.18 3.21 2.9 2.9 0 0 0 .77.14h.2a3.14 3.14 0 0 0 3.13-2.68v-.27a1.32 1.32 0 0 0 0-.2 3.11 3.11 0 0 0-1.11-2.42zm-2.18 5.15a2.73 2.73 0 0 1-.35-5.41 2.68 2.68 0 0 1 .69 0 3.05 3.05 0 0 1 .67.13 2.94 2.94 0 0 1 .77.39 2.73 2.73 0 0 1-1.78 4.94z" class="cls-7"/>
                <path id="Path_11241" d="M87.22 59.92v-.13a2.21 2.21 0 0 0-.93-1 1.94 1.94 0 0 0-.42-.17 1.84 1.84 0 0 0-.66 0 2.28 2.28 0 0 0-1.21.55 3.4 3.4 0 0 0-.65.76 3.44 3.44 0 0 0-.34.66 2.6 2.6 0 0 0-.16.47.29.29 0 0 0 0 .09 3.77 3.77 0 0 0 0 2.13 2.27 2.27 0 0 0 1.27 1.44l.2.06a2 2 0 0 0 1.5-.26 3.59 3.59 0 0 0 1.54-2.24 3.77 3.77 0 0 0-.14-2.36zm-.31 2.2a3.47 3.47 0 0 1-.86 1.6 1.75 1.75 0 0 1-1.66.59c-1-.26-1.58-1.65-1.22-3.12a3.42 3.42 0 0 1 1-1.76A1.7 1.7 0 0 1 85.7 59h.16a1.74 1.74 0 0 1 1 1 3.8 3.8 0 0 1 .15.51 3.59 3.59 0 0 1 0 1.53z" class="cls-7"/>
                <path id="Path_11242" d="M81.07 60.87l-.2-.37a1.72 1.72 0 0 1 2.34.34l-.36.22c-.53-.86-1.72-.22-1.78-.19z" class="cls-7"/>
                <path id="Path_11243" d="M75.54 58.92l-.12.41-.28-.08-2.74-.79-.5-.13.24-.38.25.07c1.23.34 2.43.69 2.92.84z" class="cls-7"/>
                <g id="Group_3375" opacity="0.3">
                    <path id="Path_11244" d="M91.73 73.54a15.92 15.92 0 1 1 12.12-19 15.91 15.91 0 0 1-12.12 19z" class="cls-5"/>
                    <path id="Path_11245" d="M74.34 65.64A15.94 15.94 0 0 0 95.83 72z" class="cls-4"/>
                    <path id="Path_11246" d="M74.8 49.57l29.43 8.76a16.381 16.381 0 0 0-.37-3.76 15.5 15.5 0 0 0-1.5-4.06L80.64 44a16 16 0 0 0-5.84 5.57z" class="cls-4"/>
                    <path id="Path_11247" d="M72.5 59.85l28 8.34a16.18 16.18 0 0 0 1.76-2.59l-29.82-8.88a15.6 15.6 0 0 0 .06 3.13z" class="cls-4"/>
                    <path id="Path_11248" d="M73.78 51.5l30.25 9a5.4 5.4 0 0 1 .08-.58L74 51c-.06.15-.15.32-.22.5z" class="cls-4"/>
                    <path id="Path_11249" d="M85.67 42.29l13.43 4c-.35-.33-.72-.62-1.09-.93L87.1 42.12a13.929 13.929 0 0 0-1.43.17z" class="cls-4"/>
                </g>
                <path id="Rectangle_1932" d="M0 0H4.19V18.41H0z" class="cls-4" transform="rotate(-12.42 390.72 -375.755)"/>
                <path id="Path_11250" fill="#455a64" d="M105.6 54.19a17.7 17.7 0 1 0-13.48 21.09 17.7 17.7 0 0 0 13.48-21.09zM91.73 73.54a15.92 15.92 0 1 1 12.12-19 15.92 15.92 0 0 1-12.12 19z"/>
                <path id="Path_11251" d="M95.61 105.87l6.18-1.36-3.5-15.94-6.19 1.36z" class="cls-8"/>
                <path id="Path_11252" d="M98.31 55.91v-.06c-.07-.27.08.26 0 .08s-.14-.41-.22-.61a14 14 0 0 0-1-2.07L97 53l-.11-.16a7.5 7.5 0 0 0-.43-.62 14.87 14.87 0 0 0-1.09-1.29l-.37-.29c-.13-.13.15.14 0 0l-.17-.17c-.24-.2-.47-.39-.72-.58a9.835 9.835 0 0 0-.82-.56l-.39-.24h-.07l-.25-.12a12.75 12.75 0 0 0-2.3-.86h-.09L89.8 48a6.035 6.035 0 0 1-.7-.12 14.53 14.53 0 0 0-1.48-.13 1.06 1.06 0 0 1 .24-2.1A13.29 13.29 0 0 1 96.37 49a14.5 14.5 0 0 1 3.56 5.21 10.68 10.68 0 0 1 .45 1.35 1.053 1.053 0 1 1-2.08.33z" class="cls-5"/>
                <path id="Path_11253" d="M98.74 59a1.05 1.05 0 0 0 1.18.87 1 1 0 0 0 .87-1.19 1.05 1.05 0 0 0-1.18-.87 1 1 0 0 0-.87 1.19z" class="cls-5"/>
                <path id="Path_11254" d="M109.19 96.08s4.42-7.26-1.09-14.2c-2.26-2.85-7.61-8-18.45-7.25-2.58.17-6.12 2.24-1.82 3.49 3 .88 5.26.52 7 1.36 0 0-4.2 3.17-3.93 5.74a33.76 33.76 0 0 0 .87 6 2.74 2.74 0 0 0 1.58.52 12.35 12.35 0 0 0 8.7 7.26z" class="cls-6"/>
                <path id="Path_11255" d="M105.78 81a28.85 28.85 0 0 0-9.06-2.24c-3.89-.1-11.42.74-11.47 3.61 0 2.11 2.87 2 2.87 2s-3 1-2.65 2.91c.35 1.74 2.59 1.55 2.59 1.55s-1.74.92-1.08 2.53c.79 1.94 4.3-.3 6.79 1 .57.24 12.01-11.36 12.01-11.36z" class="cls-6"/>
                <path id="Path_11256" d="M97.29 82.84a15.58 15.58 0 0 0-9.13 1.45c-.08 0-.09.11 0 .09a38.12 38.12 0 0 1 9.13-1.5s.02-.01 0-.04z" class="cls-8"/>
                <path id="Path_11257" d="M97.07 86.77a17.41 17.41 0 0 0-9 2c-.07 0-.07.11 0 .09a40.68 40.68 0 0 1 9-2z" class="cls-8"/>
                <path id="Path_11258" d="M103.39 99.43a18.61 18.61 0 0 1-4.51-1.7 12.55 12.55 0 0 1-3.74-3.09c-.31-.39-.62-.79-.89-1.2s-.56-.88-.88-1.28h-.07a14.1 14.1 0 0 0 1.32 2.45 10 10 0 0 0 1.65 2 11.22 11.22 0 0 0 4.32 2.4 15.441 15.441 0 0 0 2.78.5s.06-.07.02-.08z" class="cls-8"/>
                <path id="Path_11259" d="M58.33 76.18c-7.95 10.68-21.22 38.5-23.17 42.6-1.33 2.78 13.19 10.09 13.81 8.07.79-2.58 13.77-36.73 15.58-49.18 1-6.82-3.47-5.19-6.22-1.49z" class="cls-6"/>
                <path id="Path_11260" d="M49.36 125.46c-.34 2.52-2 7.59-3.32 8.36s-8 .62-11.32.62-4-.94-4-2.1 7.15-1.34 7.15-1.34-9.44 2.69-11.82 3.15-7.84 1.82-8.64-.15c-.36-.89 1.14-1.79 1.14-1.79s-2.29.67-2.66-.47c-.41-1.3 1.41-2 1.41-2s-1.43.29-1.47-.77c-.06-2.38 8.92-3.54 8.92-3.54s-6.87 3.35-7.1 1.42c-.31-2.67 13.78-5.6 15.24-6.77a26.409 26.409 0 0 0 3-2.9z" class="cls-6"/>
                <path id="Path_11261" d="M30.79 132.91a1.08 1.08 0 0 1 .31-.9 3 3 0 0 1 .82-.53 12 12 0 0 1 1.93-.62c1.33-.33 2.69-.57 4-.92a16.56 16.56 0 0 0-4.15.46 7.87 7.87 0 0 0-2 .76 2.83 2.83 0 0 0-.83.71 1.08 1.08 0 0 0-.08 1.04z" class="cls-8"/>
                <path id="Path_11262" d="M18.57 132.16c1-.24 1.93-.51 2.89-.79s1.9-.56 2.85-.85l2.84-.89c1-.31 1.9-.59 2.86-.88a22.5 22.5 0 0 0-3 .53c-1 .22-1.93.5-2.89.79s-1.9.62-2.83 1-1.82.67-2.72 1.09z" class="cls-8"/>
                <path id="Path_11263" d="M27.72 126.39a17.93 17.93 0 0 0-2.73.38 22.057 22.057 0 0 0-2.66.68 23.482 23.482 0 0 0-2.58 1 20.089 20.089 0 0 0-2.44 1.26c.87-.31 1.71-.63 2.58-.92s1.71-.59 2.58-.85l2.61-.79c.92-.29 1.75-.51 2.64-.76z" class="cls-8"/>
                <path id="Path_11264" d="M26.33 124.14a16.74 16.74 0 0 0-4.32.93A16.52 16.52 0 0 0 18 127c1.4-.5 2.75-1 4.14-1.48s2.78-.92 4.19-1.38z" class="cls-8"/>
                <path id="Path_11265" d="M61.71 94.48L45.6 94s8.78-14 13.48-19.11c4.92-5.3 7.59-4.84 5.92 4.62a152.89 152.89 0 0 1-3.29 14.97z" class="cls-7"/>
                <path id="Path_11266" d="M51.74 91.67a5.38 5.38 0 0 0-1.21.74 5.65 5.65 0 0 0 2.57-1.14 5 5 0 0 0-1.36.4zm9-10.24a5.38 5.38 0 0 0-.74-1.21 5.44 5.44 0 0 0 1.14 2.57 4.63 4.63 0 0 0-.4-1.36zm-7.43 3a4.72 4.72 0 0 0-.31 1.42 5.54 5.54 0 0 0 1-2.63 4.86 4.86 0 0 0-.67 1.25zm7.1 6.31a4.72 4.72 0 0 0-.33 1.38 5.54 5.54 0 0 0 1-2.62 5.34 5.34 0 0 0-.68 1.24zm4.72-18.35c-.08.16-.15.32-.22.49a5.35 5.35 0 0 0-.33 1.38 5 5 0 0 0 .68-1.24.56.56 0 0 0 0-.12 2.59 2.59 0 0 0-.18-.51z" class="cls-5"/>
                <path id="Path_11267" d="M60.7 91.68a11.112 11.112 0 0 0-1.16-.08l-1.18-.06-2.36-.1c-1.6 0-3.21-.1-4.81-.12h-1.37a13.1 13.1 0 0 0-1.39.05c.39 0 .79.08 1.19.11s.81 0 1.22.06l2.4.08c1.58 0 3.16.08 4.74.08h2.73c.01.02.02-.02-.01-.02z" class="cls-8"/>
                <path id="Path_11268" d="M64.83 84a12 12 0 0 0-.83 1.7 5.117 5.117 0 0 1 .17-.85c.18-.91.34-1.82.52-2.73-.41 1.56-.9 3.11-1.27 4.68s-.74 3.15-1.09 4.73c-.19.88-.36 2-.55 2.84a14.178 14.178 0 0 0-1.57.06v.08c.53 0 1.17.13 1.73.1.07 0 1.42-5.61 2-8.3.29-.77.61-1.53.89-2.31z" class="cls-8"/>
                <path id="Path_11269" d="M76.3 75.27c-.23.74-.49 1.47-.78 2.18a10.9 10.9 0 0 1-.9 1.85 3.61 3.61 0 0 1-3 1.92 4.3 4.3 0 0 1-3.15-1.63 12.78 12.78 0 0 1-2-3.45c-.31-.74-.61-1.5-.86-2.27-.13-.39-.26-.78-.37-1.17s-.21-.8-.34-1.18h-.06c.23.89.89 3.7 1.15 4.42A13.56 13.56 0 0 0 68 79.71a5 5 0 0 0 3.32 2A3.57 3.57 0 0 0 74.55 80a8.72 8.72 0 0 0 1-2.19c.29-.84.53-1.71.75-2.58.02.04 0 .03 0 .04z" class="cls-8"/>
            </g>
            <g id="freepik--Houses--inject-328">
                <path id="Path_11270" d="M126.88 135.19h-22.14l-.99-19.46h23.13z" class="cls-14"/>
                <path id="Path_11271" d="M126.88 115.73l7.95-9.96 6.33 9.96-.99 19.46h-13.29z" class="cls-15"/>
                <path id="Path_11272" d="M111.48 102.61h23.63l8.52 13.91h-2.74l-5.78-9.63-6.67 10.77H101.8z" class="cls-16"/>
                <path id="Path_11273" d="M114.22 107h-5.08l-2.71 3.25h5.86z" class="cls-15"/>
                <path id="Path_11274" d="M110.37 109.7v3.96h-2.83v-3.96l1.41-1.77z" class="cls-14"/>
                <path id="Path_11275" d="M110.37 109.7h2.22l-2.22 3.96z" class="cls-15"/>
                <path id="Rectangle_1933" d="M0 0H1.61V2.71H0z" class="cls-17" transform="translate(108.08 109.76)"/>
                <path id="Rectangle_1934" d="M0 0H0.52V0.87H0z" class="cls-4" transform="translate(108.27 109.95)"/>
                <path id="Rectangle_1935" d="M0 0H0.52V0.87H0z" class="cls-4" transform="translate(108.97 109.95)"/>
                <path id="Rectangle_1936" d="M0 0H0.52V1.29H0z" class="cls-4" transform="translate(108.27 110.98)"/>
                <path id="Rectangle_1937" d="M0 0H0.52V1.29H0z" class="cls-4" transform="translate(108.97 110.98)"/>
                <path id="Path_11276" d="M126.66 107h-5.08l-2.58 3.26h5.69z" class="cls-15"/>
                <path id="Path_11277" d="M122.81 109.7v3.96h-2.83v-3.96l1.41-1.77z" class="cls-14"/>
                <path id="Path_11278" d="M122.81 109.7h2.22l-2.22 3.96z" class="cls-15"/>
                <path id="Rectangle_1938" d="M0 0H1.61V2.71H0z" class="cls-17" transform="translate(120.52 109.76)"/>
                <path id="Rectangle_1939" d="M0 0H0.52V0.87H0z" class="cls-4" transform="translate(120.71 109.95)"/>
                <path id="Rectangle_1940" d="M0 0H0.52V0.87H0z" class="cls-4" transform="translate(121.41 109.95)"/>
                <path id="Rectangle_1941" d="M0 0H0.52V1.29H0z" class="cls-4" transform="translate(120.71 110.98)"/>
                <path id="Rectangle_1942" d="M0 0H0.52V1.29H0z" class="cls-4" transform="translate(121.41 110.98)"/>
                <path id="Rectangle_1943" d="M0 0H2.83V3.72H0z" class="cls-14" transform="translate(128.04 102.05)"/>
                <path id="Path_11279" d="M130.87 102.05h2.22v.6l-2.22 3.12z" class="cls-15"/>
                <path id="Rectangle_1944" d="M0 0H3.15V1.27H0z" class="cls-15" transform="translate(127.72 100.78)"/>
                <path id="Rectangle_1945" d="M0 0H2.47V1.27H0z" class="cls-16" transform="translate(130.87 100.78)"/>
                <path id="Rectangle_1946" d="M0 0H3.5V5.91H0z" class="cls-17" transform="translate(107.08 119.26)"/>
                <path id="Rectangle_1947" d="M0 0H1.13V1.9H0z" class="cls-4" transform="translate(107.51 119.67)"/>
                <path id="Rectangle_1948" d="M0 0H1.13V1.9H0z" class="cls-4" transform="translate(109.02 119.67)"/>
                <path id="Rectangle_1949" d="M0 0H1.13V2.82H0z" class="cls-4" transform="translate(107.51 121.91)"/>
                <path id="Rectangle_1950" d="M0 0H1.13V2.82H0z" class="cls-4" transform="translate(109.02 121.91)"/>
                <path id="Rectangle_1951" d="M0 0H3.5V5.91H0z" class="cls-17" transform="translate(120.08 119.26)"/>
                <path id="Rectangle_1952" d="M0 0H1.13V1.9H0z" class="cls-4" transform="translate(120.51 119.67)"/>
                <path id="Rectangle_1953" d="M0 0H1.13V1.9H0z" class="cls-4" transform="translate(122.02 119.67)"/>
                <path id="Rectangle_1954" d="M0 0H1.13V2.82H0z" class="cls-4" transform="translate(120.51 121.91)"/>
                <path id="Rectangle_1955" d="M0 0H1.13V2.82H0z" class="cls-4" transform="translate(122.02 121.91)"/>
                <path id="Rectangle_1956" d="M0 0H3.5V5.91H0z" class="cls-17" transform="translate(107.08 127.47)"/>
                <path id="Rectangle_1957" d="M0 0H1.13V1.9H0z" class="cls-4" transform="translate(107.51 127.88)"/>
                <path id="Rectangle_1958" d="M0 0H1.13V1.9H0z" class="cls-4" transform="translate(109.02 127.88)"/>
                <path id="Rectangle_1959" d="M0 0H1.13V2.82H0z" class="cls-4" transform="translate(107.51 130.13)"/>
                <path id="Rectangle_1960" d="M0 0H1.13V2.82H0z" class="cls-4" transform="translate(109.02 130.13)"/>
                <path id="Rectangle_1961" d="M0 0H3.5V5.91H0z" class="cls-17" transform="translate(120.08 127.47)"/>
                <path id="Rectangle_1962" d="M0 0H1.13V1.9H0z" class="cls-4" transform="translate(120.51 127.88)"/>
                <path id="Rectangle_1963" d="M0 0H1.13V1.9H0z" class="cls-4" transform="translate(122.02 127.88)"/>
                <path id="Rectangle_1964" d="M0 0H1.13V2.82H0z" class="cls-4" transform="translate(120.51 130.13)"/>
                <path id="Rectangle_1965" d="M0 0H1.13V2.82H0z" class="cls-4" transform="translate(122.02 130.13)"/>
                <path id="Rectangle_1966" d="M0 0H3.5V5.91H0z" class="cls-17" transform="translate(113.56 119.26)"/>
                <path id="Rectangle_1967" d="M0 0H1.13V1.9H0z" class="cls-4" transform="translate(113.99 119.67)"/>
                <path id="Rectangle_1968" d="M0 0H1.13V1.9H0z" class="cls-4" transform="translate(115.51 119.67)"/>
                <path id="Rectangle_1969" d="M0 0H1.13V2.82H0z" class="cls-4" transform="translate(113.99 121.91)"/>
                <path id="Rectangle_1970" d="M0 0H1.13V2.82H0z" class="cls-4" transform="translate(115.51 121.91)"/>
                <path id="Rectangle_1971" d="M0 0H3.5V5.91H0z" class="cls-17" transform="translate(113.56 127.51)"/>
                <path id="Rectangle_1972" d="M0 0H1.13V1.9H0z" class="cls-4" transform="translate(113.99 127.92)"/>
                <path id="Rectangle_1973" d="M0 0H1.13V1.9H0z" class="cls-4" transform="translate(115.51 127.92)"/>
                <path id="Rectangle_1974" d="M0 0H1.13V2.82H0z" class="cls-4" transform="translate(113.99 130.17)"/>
                <path id="Rectangle_1975" d="M0 0H1.13V2.82H0z" class="cls-4" transform="translate(115.51 130.17)"/>
                <path id="Rectangle_1976" d="M0 0H3.5V5.91H0z" class="cls-17" transform="translate(133.17 119.26)"/>
                <path id="Rectangle_1977" d="M0 0H1.13V1.9H0z" class="cls-4" transform="translate(135.11 119.67)"/>
                <path id="Rectangle_1978" d="M0 0H1.13V1.9H0z" class="cls-4" transform="translate(133.6 119.67)"/>
                <path id="Rectangle_1979" d="M0 0H1.13V2.82H0z" class="cls-4" transform="translate(135.11 121.91)"/>
                <path id="Rectangle_1980" d="M0 0H1.13V2.82H0z" class="cls-4" transform="translate(133.6 121.91)"/>
                <path id="Rectangle_1981" d="M0 0H3.5V5H0z" class="cls-17" transform="translate(133.17 111.03)"/>
                <path id="Rectangle_1982" d="M0 0H1.13V1.9H0z" class="cls-4" transform="translate(135.11 111.43)"/>
                <path id="Rectangle_1983" d="M0 0H1.13V1.9H0z" class="cls-4" transform="translate(133.6 111.43)"/>
                <path id="Rectangle_1984" d="M0 0H1.13V1.9H0z" class="cls-4" transform="translate(135.11 113.7)"/>
                <path id="Rectangle_1985" d="M0 0H1.13V1.9H0z" class="cls-4" transform="translate(133.6 113.7)"/>
                <path id="Rectangle_1986" d="M0 0H7.71V4.24H0z" class="cls-17" transform="rotate(-90 133.34 1.28)"/>
                <path id="Rectangle_1987" d="M0 0H1.15V0.91H0z" class="cls-4" transform="rotate(-89.73 132.088 -2.895)"/>
                <path id="Rectangle_1988" d="M0 0H1.15V0.91H0z" class="cls-4" transform="rotate(-89.73 131.48 -2.294)"/>
                <path id="Rectangle_1989" d="M0 0H0.28V1.93H0z" class="cls-4" transform="rotate(-89.73 133.934 -.54)"/>
                <path id="Rectangle_1990" d="M0 0H0.91V1.15H0z" class="cls-4" transform="translate(134.94 127.46)"/>
                <path id="Rectangle_1991" d="M0 0H1.15V0.91H0z" class="cls-4" transform="rotate(-89.73 132.82 -2.167)"/>
                <path id="Rectangle_1992" d="M0 0H1.15V0.91H0z" class="cls-4" transform="rotate(-89.73 132.212 -1.566)"/>
                <path id="Rectangle_1993" d="M0 0H1.15V0.91H0z" class="cls-4" transform="rotate(-89.73 133.423 -2.763)"/>
                <path id="Rectangle_1994" d="M0 0H1.15V0.91H0z" class="cls-4" transform="rotate(-89.73 133.547 -1.433)"/>
                <path id="Rectangle_1995" d="M0 0H1.15V0.91H0z" class="cls-4" transform="rotate(-89.73 132.944 -.827)"/>
                <path id="Rectangle_1996" d="M0 0H1.15V0.91H0z" class="cls-4" transform="rotate(-89.73 134.15 -2.03)"/>
                <path id="Path_11280" d="M65.95 135.24H46.29l-.88-9.53h20.54z" class="cls-14"/>
                <path id="Path_11281" d="M65.95 125.7l7.06-8.84 5.63 8.84-.88 9.53H65.95z" class="cls-15"/>
                <path id="Path_11282" d="M52.16 114.06h21.36l7.91 13.37h-2.16l-6.04-10.06-5.81 10.06H43.76z" class="cls-16"/>
                <path id="Rectangle_1997" d="M0 0H3.11V4.44H0z" class="cls-17" transform="translate(48.42 129.25)"/>
                <path id="Rectangle_1998" d="M0 0H1V1.69H0z" class="cls-14" transform="translate(48.8 129.61)"/>
                <path id="Rectangle_1999" d="M0 0H1V1.69H0z" class="cls-14" transform="translate(50.14 129.61)"/>
                <path id="Rectangle_2000" d="M0 0H1V1.69H0z" class="cls-14" transform="translate(48.8 131.62)"/>
                <path id="Rectangle_2001" d="M0 0H1V1.69H0z" class="cls-14" transform="translate(50.14 131.62)"/>
                <path id="Rectangle_2002" d="M0 0H3.11V4.44H0z" class="cls-17" transform="translate(59.84 129.25)"/>
                <path id="Rectangle_2003" d="M0 0H1V1.69H0z" class="cls-14" transform="translate(60.23 129.61)"/>
                <path id="Rectangle_2004" d="M0 0H1V1.69H0z" class="cls-14" transform="translate(61.57 129.61)"/>
                <path id="Rectangle_2005" d="M0 0H1V1.69H0z" class="cls-14" transform="translate(60.23 131.62)"/>
                <path id="Rectangle_2006" d="M0 0H1V1.69H0z" class="cls-14" transform="translate(61.57 131.62)"/>
                <path id="Rectangle_2007" d="M0 0H3.43V6.23H0z" class="cls-17" transform="translate(53.83 129.01)"/>
                <path id="Rectangle_2008" d="M0 0H0.74V0.93H0z" class="cls-14" transform="translate(55.18 129.44)"/>
                <path id="Rectangle_2009" d="M0 0H0.74V0.93H0z" class="cls-14" transform="translate(56.15 129.44)"/>
                <path id="Rectangle_2010" d="M0 0H1.56V0.23H0z" class="cls-14" transform="translate(54.77 133.53)"/>
                <path id="Rectangle_2011" d="M0 0H0.74V0.93H0z" class="cls-14" transform="translate(54.21 129.44)"/>
                <path id="Rectangle_2012" d="M0 0H0.74V0.93H0z" class="cls-14" transform="translate(55.18 130.62)"/>
                <path id="Rectangle_2013" d="M0 0H0.74V0.93H0z" class="cls-14" transform="translate(56.15 130.62)"/>
                <path id="Rectangle_2014" d="M0 0H0.74V0.93H0z" class="cls-14" transform="translate(54.21 130.62)"/>
                <path id="Rectangle_2015" d="M0 0H0.74V0.93H0z" class="cls-14" transform="translate(55.18 131.8)"/>
                <path id="Rectangle_2016" d="M0 0H0.74V0.93H0z" class="cls-14" transform="translate(56.15 131.8)"/>
                <path id="Rectangle_2017" d="M0 0H0.74V0.93H0z" class="cls-14" transform="translate(54.21 131.8)"/>
                <path id="Rectangle_2018" d="M0 0H2.51V3.31H0z" class="cls-14" transform="translate(54.17 113.53)"/>
                <path id="Path_11283" d="M56.68 113.53h1.98v.53l-1.98 2.77z" class="cls-15"/>
                <path id="Rectangle_2019" d="M0 0H2.79V1.12H0z" class="cls-15" transform="translate(53.89 112.4)"/>
                <path id="Rectangle_2020" d="M0 0H2.19V1.12H0z" class="cls-16" transform="translate(56.68 112.4)"/>
                <path id="Path_11284" d="M73.73 135.24h6.38l.6-6.57h-6.98z" class="cls-15"/>
                <path id="Path_11285" d="M73.73 128.67l-3.15-1.42.07 7.99h3.08z" class="cls-14"/>
                <path id="Rectangle_2021" d="M0 0H2.68V4.87H0z" class="cls-17" transform="translate(75.93 130.37)"/>
                <path id="Rectangle_2022" d="M0 0H0.58V0.73H0z" class="cls-14" transform="translate(76.98 130.7)"/>
                <path id="Rectangle_2023" d="M0 0H0.58V0.73H0z" class="cls-14" transform="translate(77.74 130.7)"/>
                <path id="Rectangle_2024" d="M0 0H1.22V0.18H0z" class="cls-14" transform="translate(76.66 133.58)"/>
                <path id="Rectangle_2025" d="M0 0H0.58V0.73H0z" class="cls-14" transform="translate(76.22 130.7)"/>
                <path id="Path_11286" d="M70.09 126.92h9.27l3 2.28h-8.9z" class="cls-16"/>
                <path id="Path_11287" d="M73.46 129.2h-3.37v-2.28z" class="cls-15"/>
                <path id="Path_11288" d="M71.47 123.59a1.59 1.59 0 1 0 1.59-1.59 1.59 1.59 0 0 0-1.59 1.59z" class="cls-17"/>
                <path id="Path_11289" d="M71.82 123.59a1.24 1.24 0 0 0 1.24 1.23 1.1 1.1 0 0 0 .31 0 1.23 1.23 0 0 0-.31-2.42 1.06 1.06 0 0 0-.31 0 1.2 1.2 0 0 0-.4.18 1.26 1.26 0 0 0-.53 1.01z" class="cls-15"/>
                <path id="Rectangle_2026" d="M0 0H0.34V2.93H0z" class="cls-17" transform="translate(72.89 122.11)"/>
                <path id="Rectangle_2027" d="M0 0H2.93V0.34H0z" class="cls-17" transform="translate(71.59 123.4)"/>
                <path id="Path_11290" d="M82.81 135.24h-9.93l-.68-7.35h10.61z" class="cls-7"/>
                <path id="Path_11291" d="M82.81 135.24h-9.93l-.68-7.35h10.61z" class="cls-18"/>
                <path id="Path_11292" d="M82.81 127.89l5.45-6.82 4.34 6.82-.68 7.35h-9.11z" class="cls-7"/>
                <path id="Path_11293" d="M83.47 128.79H69.99l8.2-10.31h10.13l6.09 10.31h-1.55l-4.54-7.07z" class="cls-7"/>
                <path id="Path_11294" d="M83.47 128.79H69.99l8.2-10.31h10.13l6.09 10.31h-1.55l-4.54-7.07z" class="cls-19"/>
                <path id="Rectangle_2028" d="M0 0H2.81V3.7H0z" class="cls-7" transform="translate(94.27 109.36)"/>
                <path id="Rectangle_2029" d="M0 0H2.81V3.7H0z" class="cls-18" transform="translate(94.27 109.36)"/>
                <path id="Rectangle_2030" d="M0 0H2.21V3.7H0z" class="cls-7" transform="translate(97.08 109.36)"/>
                <path id="Rectangle_2031" d="M0 0H3.12V1.26H0z" class="cls-7" transform="translate(93.96 108.1)"/>
                <path id="Rectangle_2032" d="M0 0H3.12V1.26H0z" class="cls-20" transform="translate(93.96 108.1)"/>
                <path id="Rectangle_2033" d="M0 0H2.45V1.26H0z" class="cls-7" transform="translate(97.08 108.1)"/>
                <path id="Rectangle_2034" d="M0 0H2.45V1.26H0z" class="cls-19" transform="translate(97.08 108.1)"/>
                <path id="Path_11295" d="M106.95 135.23H84.96l-.99-10.66h22.98z" class="cls-7"/>
                <path id="Path_11296" d="M106.95 135.23H84.96l-.99-10.66h22.98z" class="cls-18"/>
                <path id="Path_11297" d="M106.95 124.57l7.9-9.89 6.29 9.89-.98 10.66h-13.21z" class="cls-7"/>
                <path id="Path_11298" d="M114.75 115.31l6.5 10.04h2.27l-8.57-13.81h-23.4L79.7 126.5h28.58z" class="cls-7"/>
                <path id="Path_11299" d="M114.75 115.31l6.5 10.04h2.27l-8.57-13.81h-23.4L79.7 126.5h28.58z" class="cls-20"/>
                <path id="Rectangle_2035" d="M0 0H3.48V4.97H0z" class="cls-17" transform="translate(112.8 121.1)"/>
                <path id="Rectangle_2036" d="M0 0H1.12V1.89H0z" class="cls-7" transform="translate(114.73 121.5)"/>
                <path id="Rectangle_2037" d="M0 0H1.12V1.89H0z" class="cls-7" transform="translate(113.23 121.5)"/>
                <path id="Rectangle_2038" d="M0 0H1.12V1.89H0z" class="cls-7" transform="translate(114.73 123.76)"/>
                <path id="Rectangle_2039" d="M0 0H1.12V1.89H0z" class="cls-7" transform="translate(113.23 123.76)"/>
                <path id="Rectangle_2040" d="M0 0H3.48V4.97H0z" class="cls-17" transform="translate(87.33 128.53)"/>
                <path id="Rectangle_2041" d="M0 0H1.12V1.89H0z" class="cls-7" transform="translate(87.76 128.94)"/>
                <path id="Rectangle_2042" d="M0 0H1.12V1.89H0z" class="cls-7" transform="translate(89.26 128.94)"/>
                <path id="Rectangle_2043" d="M0 0H1.12V1.89H0z" class="cls-7" transform="translate(87.76 131.19)"/>
                <path id="Rectangle_2044" d="M0 0H1.12V1.89H0z" class="cls-7" transform="translate(89.26 131.19)"/>
                <path id="Rectangle_2045" d="M0 0H3.48V4.97H0z" class="cls-17" transform="translate(93.72 128.53)"/>
                <path id="Rectangle_2046" d="M0 0H1.12V1.89H0z" class="cls-7" transform="translate(94.15 128.94)"/>
                <path id="Rectangle_2047" d="M0 0H1.12V1.89H0z" class="cls-7" transform="translate(95.65 128.94)"/>
                <path id="Rectangle_2048" d="M0 0H1.12V1.89H0z" class="cls-7" transform="translate(94.15 131.19)"/>
                <path id="Rectangle_2049" d="M0 0H1.12V1.89H0z" class="cls-7" transform="translate(95.65 131.19)"/>
                <path id="Rectangle_2050" d="M0 0H3.48V4.97H0z" class="cls-17" transform="translate(100.11 128.53)"/>
                <path id="Rectangle_2051" d="M0 0H1.12V1.89H0z" class="cls-7" transform="translate(100.54 128.94)"/>
                <path id="Rectangle_2052" d="M0 0H1.12V1.89H0z" class="cls-7" transform="translate(102.04 128.94)"/>
                <path id="Rectangle_2053" d="M0 0H1.12V1.89H0z" class="cls-7" transform="translate(100.54 131.19)"/>
                <path id="Rectangle_2054" d="M0 0H1.12V1.89H0z" class="cls-7" transform="translate(102.04 131.19)"/>
                <path id="Rectangle_2055" d="M0 0H3.84V6.97H0z" class="cls-17" transform="translate(112.62 128.26)"/>
                <path id="Rectangle_2056" d="M0 0H0.83V1.04H0z" class="cls-7" transform="translate(114.12 128.74)"/>
                <path id="Rectangle_2057" d="M0 0H0.83V1.04H0z" class="cls-7" transform="translate(113.04 128.74)"/>
                <path id="Rectangle_2058" d="M0 0H1.74V0.25H0z" class="cls-7" transform="translate(113.66 133.32)"/>
                <path id="Rectangle_2059" d="M0 0H0.83V1.04H0z" class="cls-7" transform="translate(115.2 128.74)"/>
                <path id="Rectangle_2060" d="M0 0H0.83V1.04H0z" class="cls-7" transform="translate(114.12 130.06)"/>
                <path id="Rectangle_2061" d="M0 0H0.83V1.04H0z" class="cls-7" transform="translate(113.04 130.06)"/>
                <path id="Rectangle_2062" d="M0 0H0.83V1.04H0z" class="cls-7" transform="translate(115.2 130.06)"/>
                <path id="Rectangle_2063" d="M0 0H0.83V1.04H0z" class="cls-7" transform="translate(114.12 131.38)"/>
                <path id="Rectangle_2064" d="M0 0H0.83V1.04H0z" class="cls-7" transform="translate(113.04 131.38)"/>
                <path id="Rectangle_2065" d="M0 0H0.83V1.04H0z" class="cls-7" transform="translate(115.2 131.38)"/>
                <path id="Path_11300" d="M100.61 115.12h-5L93 118.36h5.72z" class="cls-7"/>
                <path id="Path_11301" d="M100.61 115.12h-5L93 118.36h5.72z" class="cls-19"/>
                <path id="Path_11302" d="M96.79 117.8v3.92h-2.82v-3.92l1.41-1.76z" class="cls-7"/>
                <path id="Path_11303" d="M96.79 117.8v3.92h-2.82v-3.92l1.41-1.76z" class="cls-18"/>
                <path id="Path_11304" d="M96.79 117.8H99l-2.21 3.92z" class="cls-7"/>
                <path id="Rectangle_2066" d="M0 0H1.6V2.69H0z" class="cls-17" transform="translate(94.51 117.86)"/>
                <path id="Rectangle_2067" d="M0 0H0.52V0.87H0z" class="cls-7" transform="translate(94.71 118.04)"/>
                <path id="Rectangle_2068" d="M0 0H0.52V0.87H0z" class="cls-7" transform="translate(95.39 118.04)"/>
                <path id="Rectangle_2069" d="M0 0H0.52V1.29H0z" class="cls-7" transform="translate(94.71 119.07)"/>
                <path id="Rectangle_2070" d="M0 0H0.52V1.29H0z" class="cls-7" transform="translate(95.39 119.07)"/>
            </g>
            <g id="freepik--speech-bubble--inject-328">
                <path id="Path_11305" fill="#2e7dbf" d="M129.89 77.59a9.74 9.74 0 0 1-4.12 16.91l-2.16 4.42-2.1-4.39a9.74 9.74 0 1 1 8.38-16.94z"/>
                <path id="Path_11306" d="M129.89 77.59a9.84 9.84 0 0 1 3 4.41 9 9 0 0 1 .48 2.65 10.07 10.07 0 0 1-.25 2.68 9.82 9.82 0 0 1-1 2.51 9.55 9.55 0 0 1-.74 1.13 8.689 8.689 0 0 1-.88 1 9.76 9.76 0 0 1-4.69 2.63l.1-.07-2.15 4.47-.15.33-.16-.33-2.11-4.38.13.1a9.85 9.85 0 0 1-3.89-17.46 10 10 0 0 1 4-1.8 9.78 9.78 0 0 1 8.31 2.13zm0 0A9.65 9.65 0 0 0 115 80.75a9.44 9.44 0 0 0-1 4.25 10.13 10.13 0 0 0 1 4.2 9.59 9.59 0 0 0 6.58 5.18h.1v.09l2.09 4.4h-.31l2.19-4.41v-.06h.07a9.71 9.71 0 0 0 4.63-2.49 9.257 9.257 0 0 0 .88-1 11.84 11.84 0 0 0 .75-1.1 10.16 10.16 0 0 0 1-2.47 9.159 9.159 0 0 0 .28-2.66 12 12 0 0 0-.13-1.33 9.9 9.9 0 0 0-.33-1.3 9.79 9.79 0 0 0-2.91-4.46z" class="cls-8"/>
            </g>
            <g id="_01_align_center">
                <path id="Path_11307" d="M121.4 90.85a1.59 1.59 0 0 1-1.13-.47l-3-3 .76-.75 3 3a.53.53 0 0 0 .75 0l7.47-7.47.75.76-7.46 7.46a1.61 1.61 0 0 1-1.14.47z" class="cls-5"/>
            </g>
        </g>
    </g>
</svg>
