<svg xmlns="http://www.w3.org/2000/svg" width="160" height="160" viewBox="0 0 160 160">
    <defs>
        <clipPath id="clip-path">
            <rect id="Rectangle_7" width="160" height="160" fill="#d0d0d0" rx="10" transform="translate(198 1124)"/>
        </clipPath>
        <style>
            .cls-4{fill:#ebebeb}.cls-5{fill:#e6e6e6}.cls-6{fill:#f0f0f0}.cls-7{fill:#e0e0e0}.cls-17,.cls-20,.cls-8{fill:#fafafa}.cls-14,.cls-9{fill:#fff}.cls-10{fill:#f5f5f5}.cls-11{fill:#e15068}.cls-12,.cls-13,.cls-14,.cls-19,.cls-20{opacity:.2}.cls-15{fill:#2e7dbf}.cls-16{opacity:.1}.cls-17{opacity:.5}.cls-18,.cls-19,.cls-21{fill:none}.cls-18{stroke:#e15068;stroke-miterlimit:10}.cls-19,.cls-21{stroke-linecap:round;stroke-linejoin:round}.cls-19{stroke:#000;stroke-width:2px}.cls-21{stroke:#fafafa}.cls-24{fill:#263238}.cls-25{fill:#ffc4c0}.cls-27{fill:#f7931d}.cls-30{fill:#f8d608}
        </style>
    </defs>
    <g id="Mask_Group_17" clip-path="url(#clip-path)" transform="translate(-198 -1124)">
        <g id="tatiloley-illustrations-04" transform="translate(198.009 1124.009)">
            <path id="Rectangle_7-2" fill="#ddd" d="M13.78 18.39a648.462 648.462 0 0 1 132.44 0 15.43 15.43 0 0 1 13.52 18.21 239.36 239.36 0 0 0 0 86.8 15.43 15.43 0 0 1-13.52 18.21 648.457 648.457 0 0 1-132.44 0A15.43 15.43 0 0 1 .26 123.4a239.36 239.36 0 0 0 0-86.8 15.43 15.43 0 0 1 13.52-18.21z"/>
            <g id="freepik--background-complete--inject-1">
                <path id="Rectangle_2091" d="M0 0H147.02V0.07H0z" class="cls-4" transform="translate(6.49 124.79)"/>
                <path id="Rectangle_2092" d="M0 0H6.82V0.07H0z" class="cls-4" transform="translate(50.61 126.67)"/>
                <path id="Rectangle_2093" d="M0 0H16.66V0.07H0z" class="cls-4" transform="translate(124.72 128.24)"/>
                <path id="Rectangle_2094" d="M0 0H16.66V0.07H0z" class="cls-4" transform="translate(19.05 128.24)"/>
                <path id="Path_11416" d="M76.18 111.68H19.4a1.68 1.68 0 0 1-1.67-1.68V30.19a1.67 1.67 0 0 1 1.67-1.67h56.78a1.68 1.68 0 0 1 1.68 1.68V110a1.69 1.69 0 0 1-1.68 1.68zM19.4 28.58a1.61 1.61 0 0 0-1.6 1.61V110a1.6 1.6 0 0 0 1.6 1.6h56.78a1.6 1.6 0 0 0 1.6-1.6V30.19a1.61 1.61 0 0 0-1.6-1.61z" class="cls-4"/>
                <path id="Path_11417" d="M139.78 111.68H83a1.7 1.7 0 0 1-1.68-1.68V30.19A1.68 1.68 0 0 1 83 28.52h56.78a1.67 1.67 0 0 1 1.67 1.67V110a1.68 1.68 0 0 1-1.67 1.68zM83 28.58a1.61 1.61 0 0 0-1.6 1.61V110a1.6 1.6 0 0 0 1.6 1.6h56.78a1.61 1.61 0 0 0 1.61-1.6V30.19a1.62 1.62 0 0 0-1.61-1.61z" class="cls-4"/>
                <path id="Rectangle_2095" d="M0 0H6.79V23.5H0z" class="cls-5" transform="translate(92.34 101.45)"/>
                <path id="Rectangle_2096" d="M0 0H6.79V23.5H0z" class="cls-5" transform="translate(87.54 101.45)"/>
                <path id="Path_11418" d="M93.04 124.95h1.29v-3.67h-2.65z" class="cls-6"/>
                <path id="Rectangle_2097" d="M0 0H6.79V23.5H0z" class="cls-5" transform="translate(53.41 101.45)"/>
                <path id="Rectangle_2098" d="M0 0H35.26V21.69H0z" class="cls-6" transform="translate(59.07 101.45)"/>
                <path id="Path_11419" d="M92.13 118.26H78.31a1.34 1.34 0 0 1-1.31-1.34v-13.21a1.34 1.34 0 0 1 1.34-1.34h13.78a1.34 1.34 0 0 1 1.34 1.34v13.21a1.34 1.34 0 0 1-1.33 1.34zm-13.82-15.58a1 1 0 0 0-1 1v13.2a1 1 0 0 0 1 1.06h13.81a1 1 0 0 0 1-1v-13.23a1 1 0 0 0-1-1H78.31z" class="cls-7"/>
                <path id="Path_11420" d="M75.07 118.26H61.25a1.34 1.34 0 0 1-1.34-1.34v-13.21a1.34 1.34 0 0 1 1.34-1.34h13.82a1.36 1.36 0 0 1 1.35 1.34v13.21a1.36 1.36 0 0 1-1.35 1.34zm-13.82-15.58a1 1 0 0 0-1 1v13.2a1 1 0 0 0 1 1h13.82a1 1 0 0 0 1.05-1v-13.17a1 1 0 0 0-1.05-1z" class="cls-7"/>
                <path id="Path_11421" d="M73.79 106.54a1.3 1.3 0 1 1 1.3-1.29 1.3 1.3 0 0 1-1.3 1.29z" class="cls-8"/>
                <path id="Path_11422" d="M79.61 106.54a1.3 1.3 0 1 1 1.28-1.3 1.28 1.28 0 0 1-1.28 1.3z" class="cls-8"/>
                <path id="Path_11423" d="M60.36 124.95h-1.29v-3.67h2.64z" class="cls-6"/>
                <path id="Rectangle_2099" d="M0 0H6.79V23.5H0z" class="cls-5" transform="translate(51.25 101.45)"/>
                <path id="Path_11424" d="M56.74 124.95h1.29v-3.67h-2.64z" class="cls-6"/>
                <path id="Rectangle_2100" d="M0 0H35.26V21.69H0z" class="cls-6" transform="translate(22.78 101.45)"/>
                <path id="Path_11425" d="M55.84 118.26H42a1.35 1.35 0 0 1-1.35-1.34v-13.21a1.36 1.36 0 0 1 1.35-1.34h13.8a1.35 1.35 0 0 1 1.35 1.34v13.21a1.34 1.34 0 0 1-1.31 1.34zM42 102.68a1 1 0 0 0-1.05 1v13.2A1 1 0 0 0 42 118h13.83a1 1 0 0 0 1.06-1v-13.29a1.05 1.05 0 0 0-1-1z" class="cls-7"/>
                <path id="Path_11426" d="M38.78 118.26H25a1.34 1.34 0 0 1-1.35-1.34v-13.21a1.34 1.34 0 0 1 1.35-1.34h13.78a1.34 1.34 0 0 1 1.34 1.34v13.21a1.34 1.34 0 0 1-1.34 1.34zM25 102.68a1 1 0 0 0-1.05 1v13.2A1 1 0 0 0 25 118h13.78a1 1 0 0 0 1-1v-13.29a1 1 0 0 0-1-1H25z" class="cls-7"/>
                <path id="Path_11427" d="M37.5 106.54a1.3 1.3 0 1 1 1.3-1.29 1.28 1.28 0 0 1-1.28 1.29z" class="cls-8"/>
                <path id="Path_11428" d="M43.32 106.54a1.364 1.364 0 1 1 1.27-1.28 1.28 1.28 0 0 1-1.27 1.28z" class="cls-8"/>
                <path id="Path_11429" d="M24.07 124.95h-1.29v-3.67h2.64z" class="cls-6"/>
                <path id="Rectangle_2101" d="M0 0H12.63V12.63H0z" class="cls-4" transform="translate(72.45 36.32)"/>
                <path id="Rectangle_2102" d="M0 0H0.56V12.63H0z" class="cls-7" transform="translate(85.08 36.32)"/>
                <path id="Rectangle_2103" d="M0 0H9.21V9.21H0z" class="cls-9" transform="translate(74.16 38.03)"/>
                <path id="Path_11430" d="M80.31 44.18a2.18 2.18 0 0 1-3.08 0 2.19 2.19 0 0 1 0-3.09 2.19 2.19 0 0 1 3.09 0 2.19 2.19 0 0 1-.01 3.09z" class="cls-10"/>
                <path id="Rectangle_2104" d="M0 0H14.81V14.81H0z" class="cls-4" transform="translate(57.9 52.56)"/>
                <path id="Rectangle_2105" d="M0 0H0.66V14.81H0z" class="cls-7" transform="translate(72.71 52.56)"/>
                <path id="Rectangle_2106" d="M0 0H10.8V10.8H0z" class="cls-9" transform="translate(59.91 54.57)"/>
                <path id="Rectangle_2107" d="M0 0H4.6V4.6H0z" class="cls-10" transform="translate(63 57.66)"/>
                <path id="Rectangle_2108" d="M0 0H8.02V1.87H0z" class="cls-5" transform="translate(130.94 47.8)"/>
                <path id="Rectangle_2109" d="M0 0H33.19V1.87H0z" class="cls-10" transform="translate(97.75 47.8)"/>
                <path id="Rectangle_2110" d="M0 0H9.34V9.95H0z" class="cls-7" transform="translate(107.26 37.85)"/>
                <path id="Rectangle_2111" d="M0 0H2.39V9.95H0z" class="cls-6" transform="translate(104.87 37.85)"/>
                <path id="Rectangle_2112" d="M0 0H7.02V11.48H0z" class="cls-5" transform="translate(112.04 36.32)"/>
                <path id="Rectangle_2113" d="M0 0H2.03V11.48H0z" class="cls-6" transform="translate(110.01 36.32)"/>
                <path id="Rectangle_2114" d="M0 0H5.92V9.95H0z" class="cls-6" transform="translate(114.11 37.85)"/>
                <path id="Rectangle_2115" d="M0 0H1.35V9.95H0z" class="cls-8" transform="translate(112.75 37.85)"/>
                <path id="Rectangle_2116" d="M0 0H7.76V8.26H0z" class="cls-5" transform="translate(118.95 39.54)"/>
                <path id="Rectangle_2117" d="M0 0H1.99V8.26H0z" class="cls-8" transform="translate(116.96 39.54)"/>
                <path id="Rectangle_2118" d="M0 0H5.83V9.54H0z" class="cls-5" transform="translate(122.92 38.26)"/>
                <path id="Rectangle_2119" d="M0 0H1.68V9.54H0z" class="cls-6" transform="translate(121.23 38.26)"/>
                <path id="Rectangle_2120" d="M0 0H5.66V8.26H0z" class="cls-6" transform="translate(124.63 39.54)"/>
                <path id="Rectangle_2121" d="M0 0H1.12V8.26H0z" class="cls-8" transform="translate(123.51 39.54)"/>
                <path id="Path_11431" d="M126.19 103.33c2.51-3.28 8.49-4.5 10.56-6.57 2.7-2.71 2.69-6.79.39-8.26-2-1.27-8.64 7.35-9.38 8.32A17.93 17.93 0 0 0 124 105c.06-2 .11-3.89.15-5.33a56.4 56.4 0 0 1 .4-6.65c.29-.23.6-.49.79-.63 1.61-1.2 5.16-2.62 6.94-4.36 2.6-2.54 2.18-5.59.36-6.72s-5.27 1.62-7.06 4.39-1 5.43-1.52 7.72a42.66 42.66 0 0 0-.36 4.58 9.37 9.37 0 0 0-3.63-5.86c-2.46-2-4.58-4.36-6.61-4s-.93 3.47.67 5.7c1.43 2 8.48 4 9.52 5.54-.13 3.24-.23 7.31-.31 11.11-.56-2-.17-2.13-2.45-5.14-1.36-1.79-6.91-4-7.57-2.77s.34 3.56 2.44 5.18c1.69 1.31 5.43 1.31 6.31 2.13.2.18.88.91 1.25 1.33-.09 4.64-.13 8.74-.08 10.14h.36c0-.36 0-2.72.1-5.85.91-1.66 7.06-2.64 8.94-4.36s3.41-3.92 2.56-5.33c-.71-1.18-6.29.42-8.57 2.37a8.05 8.05 0 0 0-2.86 4.56c0-2.13.11-4.41.17-6.57.46-.62 1.5-1.86 2.25-2.85z" class="cls-5"/>
                <path id="Path_11432" d="M126.73 124.89h-6.37c-.35 0-.65-.46-.72-1.08l-.45-4.12h8.7l-.45 4.12c-.07.62-.37 1.08-.71 1.08z" class="cls-6"/>
                <path id="Path_11433" d="M128.08 121.28H119c-.21 0-.4-.29-.42-.7l-.18-3c0-.46.16-.88.42-.88h9.44c.26 0 .45.41.42.88l-.18 3c-.02.42-.21.7-.42.7z" class="cls-6"/>
                <g id="freepik--Shadow--inject-62--inject-1">
                    <ellipse id="freepik--path--inject-62--inject-1" cx="57.01" cy="3.33" class="cls-4" rx="57.01" ry="3.33" transform="translate(22.99 131.41)"/>
                </g>
            </g>
            <g id="freepik--Coins--inject-1">
                <path id="Path_11434" d="M69.56 58.13c-.65 1.57-4.48 1.47-8.48-.19s-6.74-4.27-6.08-5.85c.15-.36.59-1.73 1-1.92 1.49-.63 4.33.79 7.41 2.06 2.87 1.18 6.15 1.94 6.65 3.5a3.5 3.5 0 0 1-.5 2.4z" class="cls-11"/>
                <path id="Path_11435" d="M70.08 55.73a3.32 3.32 0 0 1-.52 2.4 2.19 2.19 0 0 1-1.86 1.06h-.36a9.94 9.94 0 0 1-2.18-.11h-.31a18.929 18.929 0 0 1-2.49-.64l-.3-.1-1-.38c-.34-.14-.66-.3-1-.44l-.27-.13a16.371 16.371 0 0 1-2.14-1.25l-.2-.14a9.78 9.78 0 0 1-1.63-1.45 2.431 2.431 0 0 1-.2-.25 2.26 2.26 0 0 1-.62-2.21c.16-.39.51-1.73 1-1.92a3.41 3.41 0 0 1 1.9 0l.3.07a46.13 46.13 0 0 1 5.21 2c2.23.92 4.87 1.88 6.16 3a2.179 2.179 0 0 1 .22.21 2.06 2.06 0 0 1 .29.28z" class="cls-12"/>
                <g id="Group_3377" class="cls-13">
                    <path id="Path_11436" d="M58.35 50l-.13.24-2.39 4.28-.21-.25 2.3-4.1.18-.32z"/>
                </g>
                <g id="Group_3378" class="cls-13">
                    <path id="Path_11437" d="M60.16 51.73l-2.46 4.41-.24-.14 2.44-4.38z"/>
                </g>
                <g id="Group_3379" class="cls-13">
                    <path id="Path_11438" d="M64.68 54.26l-2.32 4.17-.3-.1 2.36-4.23z"/>
                </g>
                <g id="Group_3380" class="cls-13">
                    <path id="Path_11439" d="M62.58 53.08l-2.47 4.43-.28-.13 2.49-4.45z"/>
                </g>
                <g id="Group_3381" class="cls-13">
                    <path id="Path_11440" d="M67.43 55.06l-2.27 4.06h-.31l2.32-4.15z"/>
                </g>
                <path id="Path_11441" d="M70.07 56.75c-.65 1.58-4.43 1.52-8.44-.14s-6.74-4.27-6.08-5.85S60 49.25 64 50.9s6.72 4.26 6.07 5.85z" class="cls-11"/>
                <path id="Path_11442" d="M68.7 56.18c-.46 1.11-3.4 1-6.57-.35s-5.38-3.28-4.92-4.39 3.41-1 6.58.35 5.37 3.27 4.91 4.39z" class="cls-14"/>
                <path id="Path_11443" d="M89.82 43.85c1.05 1.35-.94 4.62-4.37 7.27s-7.06 3.72-8.11 2.36c-.24-.32-1.21-1.36-1.15-1.85.19-1.61 2.84-3.36 5.47-5.4 2.45-1.9 4.74-4.37 6.35-4 .99.18 1.52 1.24 1.81 1.62z" class="cls-11"/>
                <path id="Path_11444" d="M88 42.21a3.32 3.32 0 0 1 1.81 1.64 2.18 2.18 0 0 1 0 2.15.938.938 0 0 1-.14.33 9.53 9.53 0 0 1-1.18 1.83c-.06.09-.13.16-.19.25a18.411 18.411 0 0 1-1.8 1.84l-.23.2c-.26.23-.54.45-.82.67s-.57.43-.86.63l-.25.17a16.85 16.85 0 0 1-2.15 1.23l-.26.13a10.13 10.13 0 0 1-2.08.68 1.55 1.55 0 0 1-.31.06 2.24 2.24 0 0 1-2.2-.53c-.26-.34-1.24-1.31-1.15-1.84a3.45 3.45 0 0 1 .95-1.65 2.129 2.129 0 0 1 .21-.22 43.381 43.381 0 0 1 4.32-3.53c1.91-1.47 4-3.29 5.65-3.86a1.4 1.4 0 0 1 .29-.09 1.77 1.77 0 0 1 .39-.09z" class="cls-12"/>
                <g id="Group_3382" class="cls-13">
                    <path id="Path_11445" d="M77.19 49.53l.15.24L79.86 54a1.8 1.8 0 0 1-.32.06l-2.41-4-.19-.3z"/>
                </g>
                <g id="Group_3383" class="cls-13">
                    <path id="Path_11446" d="M79.6 48.83l2.59 4.32-.26.13L79.35 49z"/>
                </g>
                <g id="Group_3384" class="cls-13">
                    <path id="Path_11447" d="M84 46.16l2.46 4.1-.23.19-2.48-4.14z"/>
                </g>
                <g id="Group_3385" class="cls-13">
                    <path id="Path_11448" d="M82 47.4l2.61 4.35-.24.17-2.63-4.37z"/>
                </g>
                <g id="Group_3386" class="cls-13">
                    <path id="Path_11449" d="M86.11 44.18l2.38 4c-.06.09-.12.16-.19.25l-2.45-4.08z"/>
                </g>
                <ellipse id="Ellipse_1310" cx="7.85" cy="3.09" class="cls-11" rx="7.85" ry="3.09" transform="rotate(-37.76 110.23 -84.074)"/>
                <ellipse id="Ellipse_1311" cx="6.22" cy="2.18" class="cls-14" rx="6.22" ry="2.18" transform="rotate(-37.76 110.65 -87.149)"/>
                <path id="Path_11450" d="M75.63 37.53C75.3 39.47 71 40.28 66 39.4s-8.63-3.15-8.28-5.09c.08-.45.22-2.09.68-2.41 1.52-1.08 5.07-.18 8.85.49 3.52.63 7.38.68 8.34 2.3.62 1 .14 2.31.04 2.84z" class="cls-11"/>
                <path id="Path_11451" d="M75.63 34.7a3.77 3.77 0 0 1 0 2.82c-.12.7-.79 1.27-1.83 1.66l-.39.13a11.58 11.58 0 0 1-2.48.41 2.36 2.36 0 0 0-.37 0 19.49 19.49 0 0 1-3-.11h-.34c-.4-.05-.81-.11-1.22-.19s-.8-.15-1.19-.24l-.34-.08a20 20 0 0 1-2.71-.89l-.32-.12a11.46 11.46 0 0 1-2.18-1.24L59 36.6c-.91-.74-1.38-1.54-1.24-2.28.08-.49.15-2.06.67-2.42a3.86 3.86 0 0 1 2.14-.47h.36a52.192 52.192 0 0 1 6.35 1c2.74.49 5.94.92 7.66 1.84l.3.18a2.19 2.19 0 0 1 .39.25z" class="cls-12"/>
                <g id="Group_3387" class="cls-13">
                    <path id="Path_11452" d="M61 31.13l-.09.31-1.64 5.39-.27-.22 1.57-5.17.12-.4z"/>
                </g>
                <g id="Group_3388" class="cls-13">
                    <path id="Path_11453" d="M63.48 32.64l-1.68 5.55-.32-.13 1.68-5.53z"/>
                </g>
                <g id="Group_3389" class="cls-13">
                    <path id="Path_11454" d="M69.19 34.38l-1.59 5.26h-.35l1.62-5.31z"/>
                </g>
                <g id="Group_3390" class="cls-13">
                    <path id="Path_11455" d="M66.54 33.57l-1.7 5.59-.33-.08 1.7-5.61z"/>
                </g>
                <g id="Group_3391" class="cls-13">
                    <path id="Path_11456" d="M72.48 34.61l-1.56 5.12a2.169 2.169 0 0 0-.36 0l1.59-5.24z"/>
                </g>
                <ellipse id="Ellipse_1312" cx="3.56" cy="9.04" class="cls-11" rx="3.56" ry="9.04" transform="rotate(-79.91 50.31 -16.19)"/>
                <ellipse id="Ellipse_1313" cx="2.51" cy="7.16" class="cls-14" rx="2.51" ry="7.16" transform="rotate(-79.91 51.022 -17.846)"/>
            </g>
            <g id="freepik--Wallet--inject-1">
                <path id="Path_11457" d="M101.3 86.93L71 88.69a9 9 0 0 0-3.1.75l-32.82 14.71a2.75 2.75 0 0 0-1.59 3.07l5.43 25.69a2.78 2.78 0 0 0 3.31 2.09 2.61 2.61 0 0 0 .66-.24l32.44-16.19 30-1a2.59 2.59 0 0 0 2.52-2.66 1.841 1.841 0 0 0 0-.33l-4-24.59c-.28-1.26-1.25-3.1-2.55-3.06z" class="cls-15"/>
                <path id="Path_11458" d="M101.3 86.93L71 88.69a9 9 0 0 0-3.1.75l-32.82 14.71a2.75 2.75 0 0 0-1.59 3.07l5.43 25.69a2.78 2.78 0 0 0 3.31 2.09 2.61 2.61 0 0 0 .66-.24l32.44-16.19 30-1a2.59 2.59 0 0 0 2.52-2.66 1.841 1.841 0 0 0 0-.33l-4-24.59c-.28-1.26-1.25-3.1-2.55-3.06z" class="cls-16"/>
                <path id="Rectangle_2122" d="M0 0H21.6V42.04H0z" class="cls-11" transform="rotate(-42.7 120.898 10.846)"/>
                <path id="Path_11459" d="M69.06 101.12l-15.89 14.64-28.49-30.92 10.42-9.6 5.46-5.04.91.99z" class="cls-17"/>
                <path id="Rectangle_2123" d="M0 0H19.06V39.33H0z" class="cls-18" transform="rotate(-42.7 122.102 8.406)"/>
                <ellipse id="Ellipse_1314" cx="3.96" cy="4.96" class="cls-11" rx="3.96" ry="4.96" transform="rotate(-42.7 137.736 -5.909)"/>
                <path id="Path_11460" d="M53.01 103.21l-5.65 1.95L35.1 75.24l5.46-5.04.91.99z" class="cls-16"/>
                <path id="Rectangle_2124" d="M0 0H21.6V42.04H0z" class="cls-11" transform="rotate(-19.93 203.164 -63.465)"/>
                <path id="Rectangle_2125" d="M0 0H21.6V42.04H0z" class="cls-17" transform="rotate(-19.93 203.164 -63.465)"/>
                <path id="Rectangle_2126" d="M0 0H19.06V39.33H0z" class="cls-18" transform="rotate(-19.93 206.63 -67.978)"/>
                <ellipse id="Ellipse_1315" cx="3.96" cy="4.96" class="cls-11" rx="3.96" ry="4.96" transform="rotate(-19.93 244.835 -91.037)"/>
                <path id="Path_11461" d="M101.5 88l-29.85 1.65a8.55 8.55 0 0 0-3.06.75L36.21 105a2.74 2.74 0 0 0-1.56 3.07l5.43 25.7a2.74 2.74 0 0 0 3.26 2.11 2.25 2.25 0 0 0 .66-.23l32-16.1 29.55-.94A2.57 2.57 0 0 0 108 116v-.33l-4-24.59c-.26-1.3-1.21-3.15-2.5-3.08z" class="cls-15"/>
                <path id="Line_5" d="M0 1.58L25.6 0" class="cls-19" transform="translate(72.87 92.57)"/>
                <path id="Line_6" d="M0 0L4.68 21.49" class="cls-19" transform="translate(69.8 94.81)"/>
                <path id="Path_11462" d="M38.61 114.21l3.3 16.53s2.53-6.56-3.3-16.53z" class="cls-20"/>
                <path id="Path_11463" d="M39 114.41c.11.29 29.3-12.23 29.3-12.23a15.33 15.33 0 0 1-8 13.93c-8.79 4.89-21.3-1.7-21.3-1.7z" class="cls-20"/>
                <circle id="Ellipse_1316" cx="1.26" cy="1.26" r="1.26" class="cls-15" transform="translate(57.17 112.37)"/>
                <path id="Path_11464" d="M68.36 102.18s3.64 5.44 2.74 14.72" class="cls-12"/>
                <g id="Group_3392" class="cls-13">
                    <path id="Line_7" d="M0 0.3L0.67 0" class="cls-21" transform="translate(37.21 107.42)"/>
                    <path id="Line_8" fill="none" stroke="#fafafa" stroke-dasharray="5.2 5.2" stroke-linecap="round" stroke-linejoin="round" d="M0 12.05L27.26 0" transform="translate(39.28 94.76)"/>
                    <path id="Line_9" d="M0 0.3L0.67 0" class="cls-21" transform="translate(67.24 94.15)"/>
                </g>
                <path id="Line_10" d="M0 1.58L25.6 0" class="cls-19" transform="translate(73.73 97.4)"/>
                <path id="Line_11" d="M0 1.58L25.61 0" class="cls-19" transform="translate(74.88 103.43)"/>
            </g>
            <g id="freepik--Character--inject-1">
                <path id="Path_11465" fill="#b97964" d="M94.87 62.21s-.64 6.86-3.19 7.45a7.77 7.77 0 0 1-4.68-.47l-2.07-1.6-1 3.53s1.11 1.5 3.41.46c0 0 4.12 1.81 6.4 0s3-6.78 3-6.78z"/>
                <path id="Path_11466" d="M96.92 58.88s-1.78-3-1-8.52 5.42-6.18 7.2-5.78 3.23 2.1 4.44 5.36 1.66 4.09 3.68 3.52 7.4-2.35 8.89-.76a3.68 3.68 0 0 1 1 3.35s7.48-1.82 6.83 4.85-11.44 12.89-21.7 6.31-9.34-8.33-9.34-8.33z" class="cls-24"/>
                <path id="Path_11467" d="M96.84 75s-2 17.48-2 25.67 3 27.51 3 27.51h3.59s-.47-15.44-.4-20.73 1-14 1-14 1.15 7.86 2.51 10.63 8.87 12.6 14.09 15.65l2.44-2.24s-5.42-6.7-7.45-10-3.84-4.28-4.62-10.49.54-16-1.62-22z" class="cls-24"/>
                <path id="Path_11468" d="M102.05 93.45l-1.56-11.08a34.74 34.74 0 0 0 1.2 14.79z" class="cls-12"/>
                <path id="Path_11469" d="M98.59 129.18l.12 3.43 2.41.2.12-.32v-3.55z" class="cls-25"/>
                <path id="Path_11470" d="M97.45 127.88l.22 1.28 4.13.1.26-1.54z" class="cls-11"/>
                <path id="Path_11471" d="M117.52 119.97l3.83-3.57.84 1.34-3.29 3.01z" class="cls-11"/>
                <path id="Path_11472" d="M119.36 119.97l2.53 2.13 1.63-1.91-2.08-2.15z" class="cls-25"/>
                <path id="Path_11473" d="M124 120l1.53.94a.57.57 0 0 1 .18.78l-.06.07c-1.11 1.25-3.94 4.44-4.22 4.66s-.77-.2-.88-.64a5.18 5.18 0 0 0 .88-1.75 13.877 13.877 0 0 0 0-1.58.52.52 0 0 1 .12-.36l1.71-2a.58.58 0 0 1 .74-.12z" class="cls-24"/>
                <path id="Path_11474" d="M101.71 132.91l.32 1.76a.56.56 0 0 1-.46.65h-6.38c-.36 0-.36-.71-.1-1.08a5 5 0 0 0 1.91-.54 14.742 14.742 0 0 0 1.18-1 .51.51 0 0 1 .35-.15l2.63-.06a.57.57 0 0 1 .55.42z" class="cls-24"/>
                <path id="Path_11475" d="M107.79 65.33l3.67-2.57s-1-3.91-2.42-4.1-8.63-1.56-13.19 0c0 0-1.64.46-2.15 5.07l2 .63s.7 8.62 1.13 10h10.37s.12-7.47.59-9.03z" class="cls-11"/>
                <path id="Path_11476" d="M108.58 64.78a40 40 0 0 1 1.64 6.1 36.9 36.9 0 0 1-4.16-1.88l-.64-2.32-2.19-1.07-.65 1.76 1.83 2.27s5 4.66 7.5 3.59-1-10-1-10z" class="cls-25"/>
                <path id="Path_11477" d="M99.25 47.4a11.29 11.29 0 0 0-1.18 4.6c.1 2.07 1.14 2.91 3.13 3.21 0 0 .84 2.64-1.38 2.91-.17 0-.23.69-.22.8.06.43.49.67.89.77a6 6 0 0 0 1.27.14 3 3 0 0 0 2.37-1.06c.05-.05.5-.62.5-.62s-1.07-.53-.69-4a2.93 2.93 0 0 0 1.11-1.37 1.76 1.76 0 0 0 .85-1c.15-.69-.45-1.64-1.57-.69 0 0-2.09-1-2.88-4.76a3.79 3.79 0 0 1-2.2 1.07z" class="cls-25"/>
                <path id="Path_11478" d="M96.42 73.85v1.23l11.29.09-.3-1.45z" class="cls-11"/>
                <path id="Path_11479" fill="#fff" d="M96.42 73.85v1.23l11.29.09-.3-1.45z" opacity="0.4"/>
            </g>
            <path id="Path_647" d="M98.41 62c-9.74 2.1-14.69-2.4-15.35-3.07-.67.68-5.61 5.17-15.35 3.07 0 0-1.5 17.42 4.18 24.52C77.87 94.09 83 96.39 83 96.37s5.19-2.24 11.21-9.87c5.65-7.14 4.2-24.5 4.2-24.5z" class="cls-27"/>
            <g id="Group_173" opacity="0.1">
                <path id="Path_648" d="M98.41 62c-9.74 2.1-14.69-2.4-15.35-3.07-.67.68-5.61 5.17-15.35 3.07 0 0-1.5 17.42 4.18 24.52C77.87 94.09 83 96.39 83 96.37s5.19-2.24 11.21-9.87c5.65-7.14 4.2-24.5 4.2-24.5z" class="cls-27"/>
            </g>
            <g id="Group_174">
                <path id="Path_649" fill="#e1bc13" d="M98.41 62c-9.74 2.1-14.69-2.4-15.35-3.07-.67.68-5.61 5.17-15.35 3.07 0 0-1.5 17.42 4.18 24.52C77.87 94.09 83 96.39 83 96.37s5.19-2.24 11.21-9.87c5.65-7.14 4.2-24.5 4.2-24.5z"/>
            </g>
            <g id="Group_175">
                <path id="Path_650" d="M97.72 62.67c-9.3 2-14-2.29-14.67-2.93-.64.64-5.36 4.93-14.67 2.93 0 0-1.43 16.65 4 23.44C78.1 93.36 83 95.55 83 95.53s5-2.13 10.71-9.42c5.38-6.83 4-23.44 4-23.44z" class="cls-30"/>
            </g>
            <path id="Path_651" d="M83 93.4c-.74-.42-4.65-2.78-9.3-8.48-4.25-5.24-3.65-17.58-3.49-19.92a20.431 20.431 0 0 0 3.91.41 13.36 13.36 0 0 0 8.88-2.9 13.33 13.33 0 0 0 8.88 2.93A20.5 20.5 0 0 0 95.8 65c.15 2.31.72 14.63-3.52 19.89C87.71 90.64 83.75 93 83 93.4z" class="cls-30"/>
            <path id="Path_652" d="M83 63a13.93 13.93 0 0 0 8.88 2.81 20.57 20.57 0 0 0 3.59-.32c.17 3 .51 14.34-3.46 19.28a35 35 0 0 1-9 8.26h-.07a36.52 36.52 0 0 1-9-8.26c-2.39-2.93-3.19-8.18-3.45-12.09a59.48 59.48 0 0 1 0-7.19 20.68 20.68 0 0 0 3.6.32A14 14 0 0 0 83 63m0-1c-.47.44-3.34 3-8.87 3a20.66 20.66 0 0 1-4.22-.46s-1.28 14.56 3.57 20.5c5.15 6.41 9.52 8.72 9.52 8.72s4.44-2.28 9.56-8.64c4.8-6 3.56-20.5 3.56-20.5a20.66 20.66 0 0 1-4.22.46c-5.53 0-8.4-2.57-8.87-3z" class="cls-9"/>
            <path id="Path_653" d="M96.81 61.34l1.08.75-1.24 1.74-2.2-.14v-1.91z" class="cls-25"/>
            <path id="Path_655" d="M82 80.62l6.47-6.46a.57.57 0 0 0 0-.8l-.8-.79a.56.56 0 0 0-.79 0l-5.28 5.27-2.46-2.46a.56.56 0 0 0-.79 0l-.79.81a.56.56 0 0 0 0 .79l3.66 3.65a.56.56 0 0 0 .79 0z" class="cls-9"/>
        </g>
    </g>
</svg>
