<svg xmlns="http://www.w3.org/2000/svg" width="160" height="160" viewBox="0 0 160 160">
    <defs>
        <clipPath id="clip-path">
            <rect id="Rectangle_7" width="160" height="160" fill="#d0d0d0" rx="10" transform="translate(198 1124)"/>
        </clipPath>
        <style>
            .cls-4{fill:#ebebeb}.cls-6{fill:#455a64}.cls-7{fill:#f0f0f0}.cls-8{fill:#f5f5f5}.cls-9{fill:#e15068}.cls-10,.cls-11,.cls-14,.cls-17,.cls-20{fill:#fff}.cls-10{opacity:.8}.cls-11,.cls-15,.cls-18{opacity:.2}.cls-12{fill:#263238}.cls-14{opacity:.6}.cls-17{opacity:.1}.cls-19{fill:#ffc3bd}
        </style>
    </defs>
    <g id="illustration7" clip-path="url(#clip-path)" transform="translate(-198 -1124)">
        <g id="tatiloley-illustrations-06" transform="translate(198.009 1124.009)">
            <path id="Rectangle_7-2" fill="#ddd" d="M13.78 18.39a648.462 648.462 0 0 1 132.44 0 15.43 15.43 0 0 1 13.52 18.21 239.36 239.36 0 0 0 0 86.8 15.43 15.43 0 0 1-13.52 18.21 648.457 648.457 0 0 1-132.44 0A15.43 15.43 0 0 1 .26 123.4a239.36 239.36 0 0 0 0-86.8 15.43 15.43 0 0 1 13.52-18.21z"/>
            <g id="freepik--background-complete--inject-6">
                <path id="Rectangle_2179" d="M0 0H155.08V0.08H0z" class="cls-4" transform="translate(2.46 123.77)"/>
                <path id="Rectangle_2180" d="M0 0H10.27V0.08H0z" class="cls-4" transform="translate(131.73 128.76)"/>
                <path id="Rectangle_2181" d="M0 0H2.7V0.08H0z" class="cls-4" transform="translate(102.5 129.6)"/>
                <path id="Rectangle_2182" d="M0 0H5.95V0.08H0z" class="cls-4" transform="translate(125.47 125.88)"/>
                <path id="Rectangle_2183" d="M0 0H13.4V0.08H0z" class="cls-4" transform="translate(18.73 126.4)"/>
                <path id="Rectangle_2184" d="M0 0H1.96V0.08H0z" class="cls-4" transform="translate(34.89 126.4)"/>
                <path id="Rectangle_2185" d="M0 0H29.06V0.08H0z" class="cls-4" transform="translate(43.24 127.71)"/>
                <path id="Path_11746" d="M76 109.94H16.08a1.77 1.77 0 0 1-1.77-1.77V24a1.78 1.78 0 0 1 1.77-1.76H76A1.77 1.77 0 0 1 77.74 24v84.18a1.77 1.77 0 0 1-1.74 1.76zM16.08 22.28A1.7 1.7 0 0 0 14.39 24v84.19a1.69 1.69 0 0 0 1.69 1.69H76a1.69 1.69 0 0 0 1.69-1.69V24A1.7 1.7 0 0 0 76 22.28z" class="cls-4"/>
                <path id="Path_11747" d="M143.06 109.94H83.17a1.77 1.77 0 0 1-1.77-1.77V24a1.78 1.78 0 0 1 1.77-1.76h59.89a1.77 1.77 0 0 1 1.76 1.76v84.19a1.77 1.77 0 0 1-1.76 1.75zM83.17 22.28a1.7 1.7 0 0 0-1.7 1.7v84.19a1.7 1.7 0 0 0 1.7 1.69h59.89a1.69 1.69 0 0 0 1.69-1.69V24a1.7 1.7 0 0 0-1.69-1.7z" class="cls-4"/>
                <circle id="Ellipse_1326" cx="12.89" cy="12.89" r="12.89" fill="#f8d608" transform="translate(93.6 38.27)"/>
                <path id="Path_11748" d="M129.49 48.62a2.1 2.1 0 0 0-2.1-2.1 2 2 0 0 0-.6.09 4.73 4.73 0 0 0 0-.65 4.43 4.43 0 0 0-4.43-4.44 4 4 0 0 0-.84.08 3.89 3.89 0 0 0-7.21 2h-.06a3.58 3.58 0 0 0 0 7.16h13.17a2.11 2.11 0 0 0 2.07-2.14z" class="cls-4"/>
                <path id="Path_11749" d="M96.32 60.17a2.1 2.1 0 0 0-2.1-2.1 2.16 2.16 0 0 0-.62.09 4.5 4.5 0 0 0-5.22-5 3.88 3.88 0 0 0-7.18 2h-.07a3.58 3.58 0 0 0 0 7.16h13.14a2.09 2.09 0 0 0 2.05-2.15z" class="cls-4"/>
                <path id="Path_11750" d="M38.44 64.14a2.1 2.1 0 0 0-2.1-2.1 2.16 2.16 0 0 0-.62.09 4.6 4.6 0 0 0 .05-.64A4.46 4.46 0 0 0 31.3 57a4.26 4.26 0 0 0-.8.08 3.88 3.88 0 0 0-7.2 2h-.07a3.58 3.58 0 0 0 0 7.16h13.15a2.09 2.09 0 0 0 2.06-2.1z" class="cls-4"/>
                <path id="Path_11751" d="M128.27 74.16a1.26 1.26 0 0 0-1.27-1.27 1.5 1.5 0 0 0-.37 0 2.69 2.69 0 0 0-2.27-3 2.56 2.56 0 0 0-.39 0 2.72 2.72 0 0 0-.49 0 2.35 2.35 0 0 0-3.23-.76 2.32 2.32 0 0 0-1.11 1.95h-.07a2.17 2.17 0 1 0 0 4.34h8a1.25 1.25 0 0 0 1.24-1.28z" class="cls-4"/>
                <path id="Path_11752" d="M51.6 33.36a1.27 1.27 0 0 0-1.25-1.27 1.21 1.21 0 0 0-.38.06 2.7 2.7 0 0 0-2.28-3 2.34 2.34 0 0 0-.38 0 2.83 2.83 0 0 0-.5.05 2.35 2.35 0 0 0-4.34 1.19 2.17 2.17 0 0 0 0 4.34h8a1.27 1.27 0 0 0 1.13-1.37z" class="cls-4"/>
                <path id="Path_11753" d="M30.33 80.74l8.4 38.15 1.53-.72-8.83-37.65z" class="cls-4"/>
                <path id="Path_11754" d="M126.77 118.71s-5.21-35.85 6.49-72.92l-1.83-1.41s-13.7 28-11.7 75.35z" class="cls-6"/>
                <path id="Path_11755" d="M136.45 36.05c4.29-2.81 10.63 1.66 11.5 8.64a14.17 14.17 0 0 0-2-.93c-.33-1.76-.65-3.31-.65-3.31l.23 3.16c-.38-.14-.79-.27-1.24-.4l-.29-1.69-.14 1.58a16.431 16.431 0 0 0-1.84-.31l-.8-5-.41 4.86a13.43 13.43 0 0 0-1.9.09l-.49-3.37v3.44a12.349 12.349 0 0 0-1.6.36l-.59-5v5.22a13.24 13.24 0 0 0-4.13 2.43l-.05-.62s.48-6.59 4.4-9.15z" class="cls-6"/>
                <path id="Path_11756" d="M130.52 33.8c-3.41-3.83-10.69-1.17-13.36 5.34a13.109 13.109 0 0 1 2.15-.39c.78-1.61 1.49-3 1.49-3l-1 3c.4 0 .83-.05 1.29-.05l.73-1.55-.28 1.57a14.438 14.438 0 0 1 1.86.16l2.07-4.57-.87 4.81a13.129 13.129 0 0 1 1.81.58l1.36-3.13-.89 3.31a10.691 10.691 0 0 1 1.45.78l1.88-4.7s-.75 2.72-1.35 5a13.24 13.24 0 0 1 3.36 3.44l.2-.59s1.21-6.51-1.9-10.01z" class="cls-6"/>
                <path id="Path_11757" d="M127.24 42.89c3.42-3.33 6-.43 6-.43a7.29 7.29 0 0 0-3.41 2.2l-.47-.61.08 1c-.24.27-.47.56-.69.85l-.75-1.74.34 2.4c-.31.46-.62.93-.88 1.41l-.35-1.77v2.34c-.28.53-.54 1.05-.76 1.53l-.35-3.23v4.18c-.54 1.29-.83 2.2-.83 2.2s-1.34-7 2.07-10.33z" class="cls-6"/>
                <path id="Path_11758" d="M136.45 50.76l-.7.4c-.11-.54-.23-1.11-.36-1.68l.48-.88-.6.37-.15-.57.62-1.72-.93.68a8 8 0 0 0-1.92-3.56s7.82 2.5 3.41 10.93c0 0-.14-1.33-.46-3.08z" class="cls-6"/>
                <path id="Path_11759" d="M128.76 43.86l-1.24-2.36.48 2.5-.38.06L126 42l.4 2.33a15.919 15.919 0 0 0-1.63.6c-.57.26-1.14.55-1.69.86l-.79-2.06.37 2.31c-.54.31-1.06.66-1.55 1l-.39-1.81v2.07c-.62.44-1.2.89-1.73 1.34v-3.3l-.36 3.66c-.55.47-1 .91-1.46 1.31l-.06-2.31-.58 2.91-1 1c.31-8 3.41-11.17 8.54-12s8.93 4.44 8.93 4.44a8.57 8.57 0 0 0-4.24-.49z" class="cls-6"/>
                <path id="Path_11760" d="M143.72 53.63l-.47 2.4c-.22-.59-.53-1.35-.93-2.2l.42-3.49-.74 2.75a26.179 26.179 0 0 0-2.08-3.59l.73-2.42-1.18 1.79c-.24-.31-.49-.62-.74-.9l.41-1.53-.64 1.28c-.17-.19-.35-.38-.53-.55l.5-2-.8 1.76A9.67 9.67 0 0 0 136 45.7l.81-2.48-1.27 2.26a5.62 5.62 0 0 0-2.58-.54 8.65 8.65 0 0 1 4.41-3.34c2.85-.85 9 4.31 6.32 15.7 0 0-.08-.26-.24-.7z" class="cls-6"/>
                <path id="Path_11761" d="M139 31.51l.49 1.44a3.35 3.35 0 0 0-.49.05l-.58-1.88.39 1.93a4.06 4.06 0 0 0-1.06.48l-.8-2.54.46 2.77c-.13.09-.26.2-.39.31l-.92-2.39.69 2.61a10.08 10.08 0 0 0-1.71 2.28l-.24-3.52-.4 4.77a27.881 27.881 0 0 0-1.61 4.63s-.5-12.72 2.56-14.15 4.85 4.7 4.85 4.7a1.84 1.84 0 0 0-.42-.07z" class="cls-6"/>
                <path id="Path_11762" d="M134.65 45.66l-.28 2.41-.93-2.33-1.24 1.82-.49-1.69-1.43 1.2s.17-3.07 1.09-4.48 3.63-.42 3.28 3.07z" class="cls-6"/>
                <path id="Path_11763" d="M96.44 84.41V67.6s-3.44 3.63-5.67 3.13S85.58 72 85.58 72s3-.43 4.06.77 6 1.33 6 1.33V85z" class="cls-4"/>
                <path id="Path_11764" d="M111.48 79.26h-.77v1.05h-2.56v-1.05h-2.51v1.05h-2.56v-1.05h-2.51v1.05h-2.56v-1.05H95.5v1.05h-2.55v-1.05h-2.51v1.05h-2.56v-1.05h-2.51v1.05h-2.56v-1.05h-.86l-2.49 19.91 34.6-.14z" class="cls-7"/>
                <path id="Path_11765" d="M116.98 93.71h-1.06v1.45h-3.51v-1.45h-3.45v1.45h-3.51v-1.45H102v1.45h-3.51v-1.45h-3.45v1.45h-3.52v-1.45h-3.45v1.45h-3.51v-1.45h-3.45v1.45H77.6v-1.45h-1.18l-3.43 27.36 47.54-.2z" class="cls-4"/>
                <path id="Path_11766" d="M134.54 117.85c-.73-.83-1.42-1.68-2.19-2.48a1.34 1.34 0 0 1-.11-.14 6.759 6.759 0 0 0-.79-.43l-.38-.15-.93-.35a13.88 13.88 0 0 1-5.11-3.21c-.8-.83-1.43-1.81-2.26-2.62a1.223 1.223 0 0 1-.26-.12l-.62-.08h-1c-.33 0-1 .06-1.42.1-1.86 2.7-4.19 6.4-5.22 6.89-1.6.75-16.32 4.65-17.4 4.41s-6.77.23-8.2.18-4-.69-7.75-2.41-5.79-1.73-10.29-3.17-7.53-2-10.17.23-9.87-2.46-12.13-3.12-6.58-4.49-9.52-2.7-5.4 2.63-9.08 5.82-11 9.35-11 9.35H143.1l-1.43-2.5a10.24 10.24 0 0 1-7.13-3.5z" class="cls-8"/>
                <path id="Path_11767" d="M15.85 87.36s3.62-6.52 13.43-12.14a38.69 38.69 0 0 1 17 3.25s1.82 3-.26 4.23-3.8-1.2-3.8-1.2-.38 3.66-3.1 3.77a3.63 3.63 0 0 1-3.5-2.57 4.91 4.91 0 0 1-3.5 4.22 4.45 4.45 0 0 1-4.54-1.65 5 5 0 0 1-3.07 3.56 3.32 3.32 0 0 1-3.41-1.1s-.58 3-2.73 3c-1.85 0-2.52-3.37-2.52-3.37z" class="cls-7"/>
            </g>
            <g id="freepik--Shadow--inject-6">
                <ellipse id="freepik--path--inject-6" cx="60.14" cy="3.51" class="cls-8" rx="60.14" ry="3.51" transform="translate(19.86 130.76)"/>
            </g>
            <g id="freepik--Sand--inject-6">
                <path id="Path_11768" d="M121.56 119a8.75 8.75 0 0 1 2.58-2.53c1.23-.55 1.43-2.65 2.09-2.77s1.41 1.82 2.57 2.39a12.77 12.77 0 0 1 2.93 2.89z" class="cls-9"/>
                <path id="Path_11769" d="M121.56 119a8.75 8.75 0 0 1 2.58-2.53c1.23-.55 1.43-2.65 2.09-2.77s1.41 1.82 2.57 2.39a12.77 12.77 0 0 1 2.93 2.89z" class="cls-10"/>
                <path id="Path_11770" d="M131.37 133.19h-9.81l-1.25-14.24h12.3z" class="cls-9"/>
                <path id="Rectangle_2186" d="M0 0H13.48V1.5H0z" class="cls-9" transform="translate(119.72 118.22)"/>
                <path id="Rectangle_2187" d="M0 0H13.48V1.5H0z" class="cls-11" transform="translate(119.72 118.22)"/>
                <path id="Path_11771" d="M125.88 119.27c.9 1.4 4.72 7.19 7.09 7.61l.29-.7s-2.12.25-6.82-7.26a.34.34 0 0 0-.45-.12.34.34 0 0 0-.12.45z" class="cls-12"/>
                <path id="Path_11772" d="M111.92 114.78a.79.79 0 0 1 1 .51l1.67 5.85 2.17-.87s1.32 4.89-1.16 5.66-4.27-3.76-4.27-3.76l2.21-.62-2.11-5.78a.8.8 0 0 1 .47-1z" class="cls-9"/>
                <path id="Path_11773" fill="#fff" d="M115.61 126c-2.42.75-4.28-3.76-4.28-3.76l2.21-.62s.38.66.81.49.26-.9.26-.9l2.17-.88s1.31 4.87-1.17 5.67z" opacity="0.4"/>
                <path id="Path_11774" d="M134.18 134.39a14.58 14.58 0 0 0-2.87-1.2 2.6 2.6 0 0 1-2-1.17 27.11 27.11 0 0 0-2-2.74c-1.11-1.17.12-1.64-2.21-2s-1.43-.11-2.87-1.14a9.83 9.83 0 0 0-2.82-1.77c-1.67-.74-.69-1-2.66-1.18a8.48 8.48 0 0 0-4.61 1.39c-.49.35-.74.93-1.24 1.24s-1.4-.31-1.31.88a3.08 3.08 0 0 1 0 .91c-.16.66-2.89.66-3.59.87a.68.68 0 0 0-.41.25c-.16.29.08.78-.23.89a1.58 1.58 0 0 1-.31 0c-.37.07-.27.74-.62.89s-.75-.16-1.13 0-.4.51-.65.67c-.45.27-.92.47-1.36.76-.77.5-1.44 1.12-2.26 1.55l-2.21.61-.66.23z" class="cls-9"/>
                <path id="Path_11775" d="M134.18 134.39a14.58 14.58 0 0 0-2.87-1.2 2.6 2.6 0 0 1-2-1.17 27.11 27.11 0 0 0-2-2.74c-1.11-1.17.12-1.64-2.21-2s-1.43-.11-2.87-1.14a9.83 9.83 0 0 0-2.82-1.77c-1.67-.74-.69-1-2.66-1.18a8.48 8.48 0 0 0-4.61 1.39c-.49.35-.74.93-1.24 1.24s-1.4-.31-1.31.88a3.08 3.08 0 0 1 0 .91c-.16.66-2.89.66-3.59.87a.68.68 0 0 0-.41.25c-.16.29.08.78-.23.89a1.58 1.58 0 0 1-.31 0c-.37.07-.27.74-.62.89s-.75-.16-1.13 0-.4.51-.65.67c-.45.27-.92.47-1.36.76-.77.5-1.44 1.12-2.26 1.55l-2.21.61-.66.23z" class="cls-10"/>
                <path id="Path_11776" d="M108.15 128.75v.07a5.66 5.66 0 0 1-.88 3l-.15.21a5.22 5.22 0 0 1-1.17 1.22 2.491 2.491 0 0 1-.31.23l-.07.05-.11.06-.16.1-.27.15a5.7 5.7 0 0 1-7.56-2.48 5.76 5.76 0 0 1-.62-2.57 2.48 2.48 0 0 1 0-.47 5.64 5.64 0 0 1 .59-2.09c.09-.16.18-.32.28-.47a5.43 5.43 0 0 1 1.19-1.34 4.84 4.84 0 0 1 .46-.33l.17-.11a5.17 5.17 0 0 1 1.43-.62h.13a5.78 5.78 0 0 1 1.37-.17h.53a5.65 5.65 0 0 1 1.81.49h.07a5.6 5.6 0 0 1 3.17 4.34 4.9 4.9 0 0 1 .1.73z" class="cls-9"/>
                <path id="Path_11777" d="M108.15 128.75a5.63 5.63 0 0 1-3.15 5.05 1.4 1.4 0 0 1-.31-.38c1-3 0-4.67 0-4.67l.08-.49v-.09a8.22 8.22 0 0 1 1.44-3.62 5.63 5.63 0 0 1 1.94 4.2z" class="cls-14"/>
                <path id="Path_11778" d="M98.17 127.77s-1 1-.7 3.55a5.65 5.65 0 0 1 1.47-6.95 6.82 6.82 0 0 0-.77 3.4z" class="cls-14"/>
                <path id="Path_11779" d="M106.25 124.52a9.38 9.38 0 0 0-1.55 4.23 9.82 9.82 0 0 1-6.54-1 6.86 6.86 0 0 1 .77-3.41 5.64 5.64 0 0 1 7.31.16z" class="cls-11"/>
                <path id="Path_11780" d="M105 133.8a5.62 5.62 0 0 1-6.6-1.16 8.33 8.33 0 0 0 6.29.77 1.16 1.16 0 0 0 .31.39z" class="cls-11"/>
                <g id="Group_3403" class="cls-15">
                    <path id="Path_11781" d="M104.92 123.65a6.891 6.891 0 0 0-.4.64 9.279 9.279 0 0 0-.59 1.33c-.18.46-.31.93-.44 1.39a13.446 13.446 0 0 0-.31 1.43 8.892 8.892 0 0 1 .21-1.45 11.5 11.5 0 0 1 .4-1.42 9.561 9.561 0 0 1 .62-1.34c.14-.21.28-.42.44-.62z"/>
                    <path id="Path_11782" d="M103 123.13c-.08.14-.15.28-.22.42a9.9 9.9 0 0 0-.56 1.49c-.16.51-.29 1-.41 1.55s-.21 1-.31 1.58a14.271 14.271 0 0 1 .2-1.6 11.94 11.94 0 0 1 .37-1.57 9.309 9.309 0 0 1 .6-1.51c.07-.12.14-.25.22-.37z"/>
                    <path id="Path_11783" d="M101.13 123.27l-.09.25a8.77 8.77 0 0 0-.42 1.41c-.12.48-.22 1-.31 1.45s-.17 1-.24 1.46a12.3 12.3 0 0 1 .12-1.48 14.651 14.651 0 0 1 .28-1.47 9.16 9.16 0 0 1 .46-1.43.248.248 0 0 1 .07-.17z"/>
                    <path id="Path_11784" d="M99.57 123.92c-.1.35-.2.69-.27 1s-.16.79-.22 1.19-.1.81-.14 1.21a9.94 9.94 0 0 1 0-1.22 9.829 9.829 0 0 1 .19-1.21 9.407 9.407 0 0 1 .25-.91z"/>
                    <path id="Path_11785" d="M106.3 130.63a5.62 5.62 0 0 1-.54 2.54l-.13.27-.08.05a6.534 6.534 0 0 0 .32-4.54 7.109 7.109 0 0 0-.68-1.58 5.44 5.44 0 0 1 .8 1.55 6.21 6.21 0 0 1 .31 1.71z"/>
                    <path id="Path_11786" d="M107.41 130.47v.47l-.06.46a.718.718 0 0 1-.07.38l-.14.21a4.139 4.139 0 0 0 .09-.6l.05-.46v-.46a3.53 3.53 0 0 0 0-.46 1.445 1.445 0 0 0-.05-.46 6.84 6.84 0 0 0-.45-1.78 6.68 6.68 0 0 0-.91-1.6 5.39 5.39 0 0 1 1 1.56 6.6 6.6 0 0 1 .5 1.8v.47a2.46 2.46 0 0 1 .04.47z"/>
                    <path id="Path_11787" d="M108.15 128.75v-.04a8.13 8.13 0 0 0-.62-1.86 7 7 0 0 0-1.07-1.65 5.59 5.59 0 0 1 1.17 1.6 6.879 6.879 0 0 1 .49 1.2 4.73 4.73 0 0 1 .03.75z"/>
                    <path id="Path_11788" d="M97.9 126.88a4.269 4.269 0 0 0-.64.93 6.41 6.41 0 0 0-.41.93 2.481 2.481 0 0 1 0-.47 3.25 3.25 0 0 1 .28-.52 3.09 3.09 0 0 1 .77-.87z"/>
                    <path id="Path_11789" d="M98.16 125.38l-.69.79c.09-.16.18-.32.28-.47a4.122 4.122 0 0 1 .41-.32z"/>
                    <path id="Path_11790" d="M98.16 129c.52.2 1 .37 1.55.53a16.088 16.088 0 0 0 1.6.38 7.32 7.32 0 0 0 3.26 0 5 5 0 0 1-1.62.31 9.151 9.151 0 0 1-1.66-.13 14.642 14.642 0 0 1-1.61-.42 10.579 10.579 0 0 1-1.52-.67z"/>
                    <path id="Path_11791" d="M98.16 130.32a14.763 14.763 0 0 0 1.59.52 13.158 13.158 0 0 0 1.64.31 10.258 10.258 0 0 0 1.66.08h.42l.41-.05a6 6 0 0 0 .83-.14 6.71 6.71 0 0 1-1.65.33 8.69 8.69 0 0 1-1.69 0 10.3 10.3 0 0 1-1.65-.35 8.78 8.78 0 0 1-1.56-.7z"/>
                    <path id="Path_11792" d="M98.3 131.48a10.18 10.18 0 0 0 1.51.57 9.39 9.39 0 0 0 1.58.31 3.134 3.134 0 0 1 .8.07 5.381 5.381 0 0 0 .8 0 9.644 9.644 0 0 0 1.6-.23 6.76 6.76 0 0 1-1.59.35 6.84 6.84 0 0 1-1.63 0 7.191 7.191 0 0 1-1.59-.36 6.59 6.59 0 0 1-1.48-.71z"/>
                    <path id="Path_11793" d="M98.53 132.36a9.092 9.092 0 0 0 1.43.53 8.28 8.28 0 0 0 1.48.31 6.37 6.37 0 0 0 1.51.06h.38l.37-.06a6.238 6.238 0 0 0 .75-.16 5.521 5.521 0 0 1-1.49.37 6.7 6.7 0 0 1-1.55 0 7.749 7.749 0 0 1-1.5-.34 6.56 6.56 0 0 1-1.38-.71z"/>
                </g>
            </g>
            <g id="freepik--travel-bag--inject-6">
                <path id="Path_11794" d="M37.75 119.87a4.37 4.37 0 0 1 3.07-1.78c2-.12 3.62 2.39 3.62 2.39h-.62s-1.59-1.71-2.72-1.71-2.24 1.41-2.24 1.41z" class="cls-12"/>
                <path id="Path_11795" d="M21.09 133c.68-1.13 8.29-.4 10-1.07l.93 1.59a6.14 6.14 0 0 1-3.49.47c-2.18-.25-5.47-.32-6.33.43z" class="cls-12"/>
                <path id="Path_11796" d="M21.09 133c.68-1.13 8.29-.4 10-1.07l.93 1.59a6.14 6.14 0 0 1-3.49.47c-2.18-.25-5.47-.32-6.33.43z" opacity="0.3"/>
                <path id="Path_11797" d="M53.14 129.52c-.06.27-.13.53-.21.79-.62 2.11-1.57 3.82-2.27 4.08H30.94a1.8 1.8 0 0 1-1.41-.68 1.23 1.23 0 0 1-.19-.31c-1.36-2.84-2.73-8.53-.8-11.12a4 4 0 0 1 .7-.73h.05a5.8 5.8 0 0 1 1.35-.82 14 14 0 0 1 4.66-1c.47 0 .93-.06 1.4-.07h3.24c3.17.08 5.67 1 7.37.86a5.08 5.08 0 0 1 1.86.14 5.171 5.171 0 0 1 .51.18 8.73 8.73 0 0 1 2.14 1.31c1.94 1.47 1.96 4.63 1.32 7.37z" class="cls-12"/>
                <path id="Path_11798" d="M53.14 129.52c-.06.27-.13.53-.21.79-.62 2.11-1.57 3.82-2.27 4.08H30.94a1.8 1.8 0 0 1-1.41-.68 1.23 1.23 0 0 1-.19-.31c-1.36-2.84-2.73-8.53-.8-11.12a4 4 0 0 1 .7-.73h.05a5.8 5.8 0 0 1 1.35-.82 14 14 0 0 1 4.66-1c.47 0 .93-.06 1.4-.07h3.24c3.17.08 5.67 1 7.37.86a5.08 5.08 0 0 1 1.86.14 5.171 5.171 0 0 1 .51.18 8.73 8.73 0 0 1 2.14 1.31c1.94 1.47 1.96 4.63 1.32 7.37z" class="cls-17"/>
                <path id="Path_11799" d="M50.12 129.32c-1.41 0-4.24.68-8.41-.24a13.29 13.29 0 0 0-5.92-.05c0-.62-.09-1.31-.15-2.06-.37-5-3.24-7.15-5-6.32a7.759 7.759 0 0 0-1.35.83h-.05a4 4 0 0 0-.7.73c-1.93 2.59-.56 8.28.8 11.13a1.44 1.44 0 0 0 .19.31 1.8 1.8 0 0 0 1.34.6h3.54c1.44 0 1.61-1.32 1.45-4.16.24-.14.54-.31.88-.54.88-.57 4.29-.28 5.76.27a20 20 0 0 0 7.21.49 12.4 12.4 0 0 1 3.22-.06c.07-.26.14-.52.2-.79-.64-.01-1.98-.14-3.01-.14z" class="cls-18"/>
                <path id="Path_11800" d="M37.3 122.2a16.65 16.65 0 0 0 1.7 4.55c.23.3 6.47 1 7.65 1a21.85 21.85 0 0 0 4-.4c.8-.2 1.05-4.21-1-6.62a4.36 4.36 0 0 0-.51-.17 12.84 12.84 0 0 1 1 5.89c-.19.6-2 .51-2.89.49a67.075 67.075 0 0 1-6.75-.57 2.84 2.84 0 0 1-1.28-1.07c-.43-.55-.49-2.45-1.27-4.09a6.3 6.3 0 0 0-1.28-1.67 9.448 9.448 0 0 0-1.4.07 4.1 4.1 0 0 1 2.03 2.59z" class="cls-18"/>
                <path id="Path_11801" d="M31.1 125.09l-1.72.42s-1.22 3.5-.49 5-5 3.5-7.8 2.48l1.11 1.43s6.75-.43 8-3-.55-3-.67-3.69 1.57-2.64 1.57-2.64z" class="cls-12"/>
                <path id="Path_11802" d="M31.1 125.09l-1.72.42s-1.22 3.5-.49 5-5 3.5-7.8 2.48l1.11 1.43s6.75-.43 8-3-.55-3-.67-3.69 1.57-2.64 1.57-2.64z" class="cls-17"/>
            </g>
            <g id="freepik--Character--inject-6">
                <g id="freepik--group--inject-6">
                    <path id="Path_11803" d="M46.28 52.93s-6.64-3.72-8-4.68-8.72-8.17-9.13-8.37a1.26 1.26 0 0 0-.34-1.31 19.61 19.61 0 0 0-3.37-2.06c-.34 0-1.24 3.37-1.1 4.19s3.5 1 3.5 1 7 8.16 8.11 9.31 8.58 6 8.58 6z" class="cls-19"/>
                    <path id="Path_11804" d="M49 53.61s1.45 2.94-2.08 7.61l-7.79-5.73 3.1-5.63z" class="cls-9"/>
                    <path id="Path_11805" d="M46.92 61.22l-3.68-2.71-.48-.35-2.07-1.51-1.55-1.14 1.14-2.07.64-1.19 1.32-2.39 1.27.71 1.1.62L49 53.63a3.3 3.3 0 0 1 .27 1.07c.13 1.23-.08 3.52-2.35 6.52z" class="cls-14"/>
                    <path id="Path_11806" d="M46.92 61.22l-3.68-2.71c1.26-2.61 4.53-3.53 6-3.83.16 1.25-.05 3.54-2.32 6.54z" class="cls-18"/>
                    <g id="Group_3404" class="cls-15">
                        <path id="Path_11807" d="M44.61 51.18l-1.09.63v-1.24z" class="cls-20"/>
                        <path id="Path_11808" d="M42.23 52.63l-1.38 1.93-.57-1.14.64-1.17z" class="cls-20"/>
                        <path id="Path_11809" d="M43.24 55.54l-.48 2.62-2.07-1.53z" class="cls-20"/>
                        <path id="Path_11810" d="M44.19 54.04l.77 1.97 1.59-2.17z" class="cls-20"/>
                    </g>
                    <path id="Path_11811" d="M63.47 52.22s6.64-3.72 8-4.67 8.72-8.18 9.13-8.38a1.24 1.24 0 0 1 .34-1.3 19.61 19.61 0 0 1 3.37-2.06c.34 0 1.24 3.36 1.1 4.19s-3.5 1-3.5 1-7 8.16-8.11 9.3-8.58 6-8.58 6z" class="cls-19"/>
                    <path id="Path_11812" d="M55.54 91.53s-.14 2.34-.35 5.47c-.15 2-.31 4.2-.52 6.37-.26 2.93-.55 5.71-.84 7.45S50 132.17 50 132.17h-2.4c.76-18.43 1.93-25.57 2-26.65 0-.35 0-.83.05-1.41 0-2.11.09-5.43.11-7.84v-3z" class="cls-19"/>
                    <path id="Path_11813" d="M64.8 106.44c-.08 1.61-1 25.64-1 25.64h-2.68c-1.35-19.14-.84-25.79-1.12-27.08-.41-2.26-.8-5.23-1.07-7.45-.21-1.77-.34-3-.34-3l5.41-2.4s.32 2.79.57 6.13c.12 1.68.22 3.5.26 5.19.03 1.06.02 2.08-.03 2.97z" class="cls-19"/>
                    <path id="Path_11814" d="M49.69 96.26l5.5.74c-.15 2-.31 4.2-.52 6.37l-5.09.74c.04-2.11.08-5.43.11-7.85z" class="cls-18"/>
                    <path id="Path_11815" d="M64.84 103.49L60 105c-.41-2.26-.8-5.22-1.06-7.44l5.6.76c.16 1.68.26 3.46.3 5.17z" class="cls-18"/>
                    <path id="Path_11816" d="M50.53 131.43h-3.17a.22.22 0 0 0-.22.18l-.51 2.32a.37.37 0 0 0 .29.45H47c1 0 1.77-.08 3.05-.08.8 0 3.19.08 4.28.08s1.24-1.07.79-1.18a10.12 10.12 0 0 1-4.12-1.62.64.64 0 0 0-.47-.15z" class="cls-9"/>
                    <path id="Path_11817" d="M64 131.34h-3.21a.23.23 0 0 0-.22.18l-.52 2.32a.4.4 0 0 0 .31.46h.09c1 0 1.77-.08 3.06-.08.79 0 3.18.08 4.27.08s1.24-1.08.79-1.17a10.24 10.24 0 0 1-4.16-1.63.67.67 0 0 0-.41-.16z" class="cls-9"/>
                    <path id="Path_11818" d="M55.76 102c0-.21.05-.43.07-.68.32-3.18.65-7 .94-10.66 1.07 2.88 1.53 6.93 2.09 11.34h6.51a189.229 189.229 0 0 0-2.71-24.68H48.85c0 1.42-.18 15.2-.53 24.68z" class="cls-12"/>
                    <path id="Path_11819" d="M55.76 102c0-.21.05-.43.07-.68.32-3.18.65-7 .94-10.66 1.07 2.88 1.53 6.93 2.09 11.34h6.51a189.229 189.229 0 0 0-2.71-24.68H48.85c0 1.42-.18 15.2-.53 24.68z" class="cls-11"/>
                    <path id="Path_11820" d="M57.67 49.05a1.3 1.3 0 0 1-.11.37 3.68 3.68 0 0 1-1.29 1.72 3.82 3.82 0 0 1-.48.29 3.27 3.27 0 0 1-3.9-.62c-1.3-1.32-1.27-2.84-1.42-5.42a3.45 3.45 0 0 1 .27-1.62 3.52 3.52 0 0 1 4.61-1.91c2.52 1.03 2.87 4.87 2.32 7.19z" class="cls-19"/>
                    <path id="Path_11821" d="M56.26 51.14a4.571 4.571 0 0 1-.47.29 3.3 3.3 0 0 1-2.83.12 4 4 0 0 1 .46-.87 5.06 5.06 0 0 1 2.84.46z" class="cls-19"/>
                    <path id="Path_11822" d="M51.07 54.48c1.27 1.15 4.38.73 4.38.73s1.94-.54 1.53-1.14a2.15 2.15 0 0 1-1.92-1.41 3.19 3.19 0 0 1-.12-1.3 5.83 5.83 0 0 1 .1-.73l-3.85-2.85c.5 1.88 1.12 5.34-.12 6.7z" class="cls-19"/>
                    <path id="Path_11823" d="M56.26 46.7l.55.21-.27-1.13a2.14 2.14 0 0 0 0-2.32s2.24-.68 1-1.86c-.47-.44-1 0-2.61-.67-.84-.37-3.47-.4-3.6.67 0 0-1.89 0-2.1 3.22a6.46 6.46 0 0 0 2 5.1s2.29.54 3.41-.38a6.42 6.42 0 0 0 1.62-2.84z" class="cls-12"/>
                    <path id="Path_11824" d="M54.79 46.89a1.67 1.67 0 0 0 .86 1.11c.52.22.87-.51.79-1.29s-.43-1.66-1-1.53-.83 1.01-.65 1.71z" class="cls-19"/>
                    <path id="Path_11825" d="M56.78 90.66c-.3 3.68-.62 7.5-.93 10.67-.47-4.58-1.05-7.85-1.05-7.85a14.67 14.67 0 0 1-2-2.82c-1.48-2.37 0-6.8 0-6.8-.09 4.14 3.98 6.8 3.98 6.8z" class="cls-18"/>
                    <path id="Path_11826" d="M65.85 101.48l-.29 1.08h-6.93v-1z" class="cls-9"/>
                    <path id="Path_11827" d="M56.09 101.63l-.2 1h-7.86l-.47-1z" class="cls-9"/>
                    <path id="Path_11828" d="M57.06 53.73a5 5 0 0 0-4-1.91c-2.81-.13-3.06 1.83-3.06 1.83z" class="cls-9"/>
                    <path id="Path_11829" fill="#fff" d="M57.06 53.73a5 5 0 0 0-4-1.91c-2.81-.13-3.06 1.83-3.06 1.83z" opacity="0.5"/>
                    <path id="Path_11830" d="M46.85 52.62a146.479 146.479 0 0 1-.31 29l16.66-1c-.18-17-2.46-27.72-2.46-27.72a38.57 38.57 0 0 1-7.79.77 24.74 24.74 0 0 1-6.1-1.05z" class="cls-9"/>
                    <path id="Path_11831" d="M60.75 52.9a34.69 34.69 0 0 1 2.47 10.48c.24 5.26-9 12.5-9 12.5S47 71 41.5 71.4s-7.24 2.41-7.24 2.41S38.55 64.63 46 61.43c0 0-1.55-5.29.83-8.79.02-.02 5.17 1.67 13.92.26z" class="cls-9"/>
                    <path id="Path_11832" d="M63.22 63.38v.44a5.43 5.43 0 0 1-.09.69 7.691 7.691 0 0 1-.47 1.55 17 17 0 0 1-2.57 4c-.53.65-1.09 1.27-1.64 1.84a42.16 42.16 0 0 1-4.28 3.95 34.28 34.28 0 0 0-6-3.15c-.64-.25-1.3-.49-2-.69a12.93 12.93 0 0 0-4.74-.62 18.21 18.21 0 0 0-4.5.88l-.7.27-.19.08a7.52 7.52 0 0 0-1.33.74l-.13.1a2.328 2.328 0 0 0-.2.16l-.08.07.1-.19.08-.17.37-.69.07-.12.12-.21a1.71 1.71 0 0 1 .13-.23l.62-1.06a30.81 30.81 0 0 1 4.5-5.68 20.871 20.871 0 0 1 1.93-1.71A16.83 16.83 0 0 1 46 61.45a15.13 15.13 0 0 1-.49-4.18 11.749 11.749 0 0 1 .13-1.27 7.92 7.92 0 0 1 1.21-3.33 16.62 16.62 0 0 0 2.33.49 29.051 29.051 0 0 0 3.1.31 38.509 38.509 0 0 0 6.26-.22c.7-.07 1.44-.18 2.2-.31l.07.18a35.738 35.738 0 0 1 1.28 3.78c.13.5.27 1 .4 1.57s.23 1 .33 1.6a25.25 25.25 0 0 1 .4 3.31z" class="cls-14"/>
                    <g id="Group_3405" class="cls-15">
                        <path id="Path_11833" d="M61.08 67.6l-1 2.51c-.53.64-1.09 1.26-1.64 1.84l-2-3.72z" class="cls-20"/>
                        <path id="Path_11834" d="M44.19 65.21l-3.93.22a22.339 22.339 0 0 1 1.93-1.7z" class="cls-20"/>
                        <path id="Path_11835" d="M48.74 55.29l-.42 4.09-2.79-2.11a9.8 9.8 0 0 1 .1-1.33z" class="cls-20"/>
                        <path id="Path_11836" d="M50.03 66.07l-1.29-3.93 3.92-.73z" class="cls-20"/>
                        <path id="Path_11837" d="M56.78 62.33v2.94l2.81-1.01z" class="cls-20"/>
                        <path id="Path_11838" d="M49.53 70.85l-1.32 1.86c-.64-.25-1.3-.49-2-.69l-1-2.28z" class="cls-20"/>
                        <path id="Path_11839" d="M39.47 68.03l2.03.86-2.03 1.38z" class="cls-20"/>
                        <path id="Path_11840" d="M37 72.27a6.68 6.68 0 0 0-2.74 1.53 28.92 28.92 0 0 1 1.49-2.67z" class="cls-20"/>
                        <path id="Path_11841" d="M53.55 68.46l-1.75 1.81 2.64.46z" class="cls-20"/>
                        <path id="Path_11842" d="M53.55 57.11l2.05 2.76 1.46-3.13z" class="cls-20"/>
                        <path id="Path_11843" d="M62.83 60l-2.62-1.72 1.89-1.45c.26.99.53 2.07.73 3.17z" class="cls-20"/>
                        <path id="Path_11844" d="M63.21 63.82a6.69 6.69 0 0 1-.55 2.25l-1.1-2.7z" class="cls-20"/>
                        <path id="Path_11845" d="M60.82 53.08l-1.66 1.71-.62-1.58c.71-.07 1.44-.18 2.21-.31z" class="cls-20"/>
                        <path id="Path_11846" d="M52.29 53.42L51.07 56l-1.89-2.89a27 27 0 0 0 3.11.31z" class="cls-20"/>
                    </g>
                    <path id="Path_11847" d="M63.22 63.38v.44a5.43 5.43 0 0 1-.09.69A10.19 10.19 0 0 1 61.48 58l1 .49q.18.77.33 1.59a26.851 26.851 0 0 1 .41 3.3z" class="cls-18"/>
                    <path id="Path_11848" d="M54.42 39.2c3.68-1.27 4.61 3.63.95 6.95s-7.86 3.72-8.33 2 1.76-7.01 7.38-8.95z" class="cls-9"/>
                    <path id="Path_11849" d="M50.73 39c1.89 0 4.57 1.92 4.57 1.92a4.5 4.5 0 0 1-1.49 3.85c-1.89 1.8-3.59 2.08-4.63 1.39s-1.34-3.42-1.34-3.42a2.08 2.08 0 0 1 1.34-1.38S49.49 39 50.73 39z" class="cls-9"/>
                    <path id="Path_11850" d="M53.81 44.72c-1.89 1.8-3.58 2.08-4.63 1.39a1.65 1.65 0 0 1-.46-.49 7.84 7.84 0 0 1-.88-2.92c1.79 2.17 3.88-.07 4.17-1.58a2.43 2.43 0 0 0-.48-2.12 11.29 11.29 0 0 1 3.3 1.51c.31.19.47.31.47.31a4.51 4.51 0 0 1-1.49 3.9z" class="cls-18"/>
                    <path id="Path_11851" d="M53.81 44.72c-1.89 1.8-3.58 2.08-4.63 1.39a1.65 1.65 0 0 1-.46-.49 5.07 5.07 0 0 0 5.33-2 4.17 4.17 0 0 0 .78-3c.31.19.47.31.47.31a4.51 4.51 0 0 1-1.49 3.79z" class="cls-14"/>
                    <path id="Path_11852" d="M60.75 52.9s-1.45 2.94 2.08 7.61l7.79-5.72-3.1-5.63z" class="cls-9"/>
                    <path id="Path_11853" d="M70.62 54.79l-2 1.49-3 2.21-2.75 2c-.18-.24-.35-.47-.5-.7a13 13 0 0 1-.86-1.44 8.34 8.34 0 0 1-1-3.75 4.12 4.12 0 0 1 .31-1.73l1.73-1 3-1.65 1.31-.73.74-.41z" class="cls-14"/>
                    <g id="Group_3406" class="cls-15">
                        <path id="Path_11854" d="M68.59 56.27l-3.01 2.21-1.32-2.94z" class="cls-20"/>
                        <path id="Path_11855" d="M68.31 51.53l-2.78 1.1-.07-2.34 1.31-.73z" class="cls-20"/>
                        <path id="Path_11856" d="M63.47 53.84l-3 .79a4.12 4.12 0 0 1 .31-1.73l1.73-1z" class="cls-20"/>
                        <path id="Path_11857" d="M62.83 57.6l-.51 2.21a14.789 14.789 0 0 1-.86-1.44z" class="cls-20"/>
                    </g>
                </g>
            </g>
            <g id="freepik--Suitcase--inject-6">
                <path id="Path_11858" d="M82 105.85l-4.79-.38 1.58-20.2 4.8.38zm-3.81-1.24l3 .23 1.44-18.35-3-.22z" class="cls-12"/>
                <path id="Path_11859" d="M78.69 131.88l.62.05a1.24 1.24 0 0 1 0 2.48h-.85a1.24 1.24 0 1 1 0-2.48.859.859 0 0 1 .23 0z" class="cls-12"/>
                <path id="Path_11860" d="M77.34 133a1.263 1.263 0 1 0 1.36-1.15 1.24 1.24 0 0 0-1.36 1.15z" class="cls-17"/>
                <path id="Path_11861" d="M75.3 131.61h.62a1.24 1.24 0 0 1 0 2.48.9.9 0 0 1-.23 0h-.62a1.24 1.24 0 1 1 0-2.48z" class="cls-12"/>
                <path id="Path_11862" d="M74 132.73a1.237 1.237 0 1 0 1.36-1.16 1.26 1.26 0 0 0-1.36 1.16z" class="cls-11"/>
                <rect id="Rectangle_2188" width="30.93" height="6.48" class="cls-12" rx=".83" transform="rotate(-85.52 108.282 25.999)"/>
                <rect id="Rectangle_2189" width="30.93" height="4.08" class="cls-11" rx=".83" transform="rotate(-85.52 109.582 24.794)"/>
                <rect id="Rectangle_2190" width="1.63" height="5.31" class="cls-12" rx=".62" transform="rotate(-85.43 85.713 .49)"/>
                <rect id="Rectangle_2191" width="1.63" height="5.31" class="cls-11" rx=".62" transform="rotate(-85.43 85.713 .49)"/>
                <rect id="Rectangle_2192" width="1.62" height="1.58" class="cls-18" rx=".62" transform="rotate(-85.53 85.905 .719)"/>
                <path id="Path_11863" fill="#2e7dbf" d="M91.64 104.61L89.58 131a1.77 1.77 0 0 1-1.89 1.62l-9.62-.76a1.23 1.23 0 0 1-1.13-1.33l2.13-27.41A1.25 1.25 0 0 1 80.4 102l9.61.75a1.76 1.76 0 0 1 1.63 1.89z"/>
                <path id="Path_11864" d="M85 102.33h-.34a1.24 1.24 0 0 0-1.33 1.14l-2.15 27.4a1.24 1.24 0 0 0 .85 1.27l-4-.32a1.22 1.22 0 0 1-1.13-1.32l2.14-27.4a1.24 1.24 0 0 1 1.36-1.1z" class="cls-18"/>
                <rect id="Rectangle_2193" width="27.62" height=".82" class="cls-18" rx=".34" transform="rotate(-85.52 111.882 20.887)"/>
                <rect id="Rectangle_2194" width="27.62" height=".82" class="cls-18" rx=".34" transform="rotate(-85.52 112.992 19.987)"/>
                <rect id="Rectangle_2195" width="27.62" height=".82" class="cls-18" rx=".34" transform="rotate(-85.52 114.014 19.007)"/>
                <rect id="Rectangle_2196" width="27.62" height=".82" class="cls-18" rx=".34" transform="rotate(-85.52 115.041 18.021)"/>
            </g>
        </g>
    </g>
</svg>
