<svg xmlns="http://www.w3.org/2000/svg" width="269.675" height="20" viewBox="0 0 269.675 20">
    <defs>
        <style>
            .cls-1{fill:#00b67a}.cls-2{fill:#fff}
        </style>
    </defs>
    <g id="trustpilot" transform="translate(-565 -649)">
        <g id="Group_9" transform="translate(637.556 649)">
            <g id="Trustpilot_ratings_5star-RGB">
                <g id="Group_8">
                    <path id="Rectangle-path" d="M0 0H20V20H0z" class="cls-1"/>
                    <path id="Rectangle-path-2" d="M0 0H20V20H0z" class="cls-1" transform="translate(21.111)"/>
                    <path id="Rectangle-path-3" d="M0 0H20V20H0z" class="cls-1" transform="translate(43.333)"/>
                    <path id="Rectangle-path-4" d="M0 0H20V20H0z" class="cls-1" transform="translate(64.444)"/>
                    <path id="Rectangle-path-5" d="M0 0H20V20H0z" class="cls-1" transform="translate(85.556)"/>
                    <path id="Shape" d="M21.343 26.222l3.017-.765 1.26 3.885zm6.943-5.022h-5.311l-1.632-5-1.632 5H14.4l4.3 3.1-1.632 5 4.3-3.1 2.645-1.9 4.277-3.1z" class="cls-2" transform="translate(-11.424 -12.69)"/>
                    <path id="Shape-2" d="M125.343 26.222l3.017-.765 1.26 3.885zm6.943-5.021h-5.311l-1.632-5-1.632 5H118.4l4.3 3.1-1.632 5 4.3-3.1 2.645-1.9 4.277-3.1z" class="cls-2" transform="translate(-93.934 -12.69)"/>
                    <path id="Shape-3" d="M229.343 26.222l3.017-.765 1.26 3.885zm6.943-5.021h-5.311l-1.632-5-1.632 5H222.4l4.3 3.1-1.632 5 4.3-3.1 2.645-1.9 4.277-3.1z" class="cls-2" transform="translate(-176.444 -12.69)"/>
                    <path id="Shape-4" d="M333.343 26.222l3.017-.765 1.26 3.885zm6.943-5.021h-5.311l-1.632-5-1.632 5H326.4l4.3 3.1-1.632 5 4.3-3.1 2.645-1.9 4.277-3.1z" class="cls-2" transform="translate(-258.954 -12.69)"/>
                    <path id="Shape-5" d="M437.343 26.222l3.017-.765 1.26 3.885zm6.943-5.021h-5.311l-1.632-5-1.632 5H430.4l4.3 3.1-1.632 5 4.3-3.1 2.645-1.9 4.277-3.1z" class="cls-2" transform="translate(-341.464 -12.69)"/>
                </g>
            </g>
            <g id="logo-white" transform="translate(115.667)">
                <path id="Path_51" d="M297.607 98.6h8.246v1.538h-3.242v8.648h-1.783v-8.648H297.6V98.6zm7.894 2.811h1.524v1.423h.029a1.673 1.673 0 0 1 .28-.582 2.592 2.592 0 0 1 .5-.518 2.644 2.644 0 0 1 .647-.381 1.98 1.98 0 0 1 .726-.144c.187 0 .324.007.4.014s.144.022.223.029v1.567c-.115-.022-.23-.036-.352-.05a2.983 2.983 0 0 0-.352-.022 1.905 1.905 0 0 0-.776.165 1.789 1.789 0 0 0-.633.482 2.446 2.446 0 0 0-.431.791 3.352 3.352 0 0 0-.158 1.086v3.508h-1.625v-7.369zm11.79 7.376h-1.6v-1.028h-.029a2.216 2.216 0 0 1-.891.891 2.439 2.439 0 0 1-1.208.338 2.7 2.7 0 0 1-2.106-.719 3.18 3.18 0 0 1-.647-2.178v-4.68h1.625v4.522a1.987 1.987 0 0 0 .374 1.373 1.354 1.354 0 0 0 1.042.4 2 2 0 0 0 .855-.158 1.443 1.443 0 0 0 .554-.424 1.628 1.628 0 0 0 .309-.633 3.116 3.116 0 0 0 .093-.8v-4.277h1.625zm2.768-2.365a1.251 1.251 0 0 0 .539 1 2.175 2.175 0 0 0 1.129.288 4.828 4.828 0 0 0 .518-.036 2.175 2.175 0 0 0 .546-.137 1.05 1.05 0 0 0 .424-.295.715.715 0 0 0 .151-.5.694.694 0 0 0-.23-.51 1.619 1.619 0 0 0-.546-.324 5.483 5.483 0 0 0-.762-.208c-.288-.058-.575-.122-.87-.187a8.247 8.247 0 0 1-.877-.244 2.677 2.677 0 0 1-.755-.388 1.707 1.707 0 0 1-.532-.618 1.933 1.933 0 0 1-.2-.935 1.684 1.684 0 0 1 .295-1.007 2.235 2.235 0 0 1 .74-.654 3.432 3.432 0 0 1 1-.352 6.084 6.084 0 0 1 1.05-.1 4.894 4.894 0 0 1 1.093.122 2.817 2.817 0 0 1 .942.4 2.329 2.329 0 0 1 .7.7 2.453 2.453 0 0 1 .352 1.05h-1.7a1.012 1.012 0 0 0-.532-.784 2.179 2.179 0 0 0-.963-.2 3.024 3.024 0 0 0-.41.029 2.242 2.242 0 0 0-.446.108.967.967 0 0 0-.352.23.556.556 0 0 0-.144.4.615.615 0 0 0 .208.482 1.743 1.743 0 0 0 .539.309 5.484 5.484 0 0 0 .762.208c.288.058.582.122.884.187s.582.151.87.244a2.626 2.626 0 0 1 .762.388 1.914 1.914 0 0 1 .539.611 1.863 1.863 0 0 1 .208.913 1.986 1.986 0 0 1-.3 1.114 2.39 2.39 0 0 1-.776.74 3.651 3.651 0 0 1-1.064.417 5.338 5.338 0 0 1-1.157.129 4.909 4.909 0 0 1-1.294-.158 3.15 3.15 0 0 1-1.028-.474 2.353 2.353 0 0 1-.683-.8 2.62 2.62 0 0 1-.266-1.136h1.639zm5.363-5.011h1.229V99.2h1.625v2.214h1.467v1.215h-1.467v3.94a4.028 4.028 0 0 0 .022.446.821.821 0 0 0 .1.316.461.461 0 0 0 .237.194 1.159 1.159 0 0 0 .431.065c.115 0 .23 0 .345-.007a1.9 1.9 0 0 0 .345-.05v1.258c-.18.022-.359.036-.525.058a4.2 4.2 0 0 1-.525.029 3.637 3.637 0 0 1-1.035-.122 1.343 1.343 0 0 1-.611-.359 1.248 1.248 0 0 1-.3-.589 4.431 4.431 0 0 1-.093-.812v-4.356h-1.229v-1.229zm5.471 0h1.538v1h.029a2.007 2.007 0 0 1 .956-.92 3.151 3.151 0 0 1 1.33-.28 3.443 3.443 0 0 1 1.517.309 2.965 2.965 0 0 1 1.078.841 3.68 3.68 0 0 1 .64 1.251 5.242 5.242 0 0 1 .216 1.524 5.3 5.3 0 0 1-.194 1.438 3.848 3.848 0 0 1-.582 1.237 2.858 2.858 0 0 1-.992.855 2.943 2.943 0 0 1-1.416.324 3.972 3.972 0 0 1-.712-.065 3.131 3.131 0 0 1-.683-.208 2.465 2.465 0 0 1-.6-.367 2.277 2.277 0 0 1-.467-.518h-.029v3.681h-1.625zm5.679 3.7a3.673 3.673 0 0 0-.129-.971 2.617 2.617 0 0 0-.388-.834 1.978 1.978 0 0 0-.64-.582 1.975 1.975 0 0 0-2.43.489 3.158 3.158 0 0 0-.518 1.9 3.644 3.644 0 0 0 .137 1.035 2.312 2.312 0 0 0 .41.82 1.94 1.94 0 0 0 .647.539 2.028 2.028 0 0 0 1.819-.029 1.989 1.989 0 0 0 .633-.589 2.45 2.45 0 0 0 .359-.827 4.62 4.62 0 0 0 .1-.956zm2.868-6.506h1.625v1.538h-1.625zm0 2.811h1.625v7.376h-1.625zm3.077-2.811h1.625v10.187h-1.625zm6.607 10.388a4.018 4.018 0 0 1-1.574-.295 3.3 3.3 0 0 1-1.9-2.035 4.746 4.746 0 0 1-.252-1.567 4.69 4.69 0 0 1 .252-1.553 3.506 3.506 0 0 1 .726-1.229 3.311 3.311 0 0 1 1.172-.805 4.352 4.352 0 0 1 3.149 0 3.3 3.3 0 0 1 1.9 2.035 4.689 4.689 0 0 1 .252 1.553 4.744 4.744 0 0 1-.252 1.567 3.505 3.505 0 0 1-.726 1.229 3.311 3.311 0 0 1-1.172.805 4.018 4.018 0 0 1-1.575.29zm0-1.287a1.884 1.884 0 0 0 .942-.23 2 2 0 0 0 .654-.6 2.678 2.678 0 0 0 .381-.834 3.718 3.718 0 0 0 0-1.891 2.459 2.459 0 0 0-.381-.834 1.983 1.983 0 0 0-.654-.589 2.043 2.043 0 0 0-1.884 0 2.065 2.065 0 0 0-.654.589 2.606 2.606 0 0 0-.381.834 3.718 3.718 0 0 0 0 1.891 2.525 2.525 0 0 0 .381.834 2 2 0 0 0 .654.6 1.812 1.812 0 0 0 .942.224zm4.2-6.29h1.229V99.2h1.625v2.214h1.467v1.215h-1.467v3.94a4.02 4.02 0 0 0 .022.446.819.819 0 0 0 .1.316.461.461 0 0 0 .237.194 1.159 1.159 0 0 0 .431.065c.115 0 .23 0 .345-.007a1.9 1.9 0 0 0 .345-.05v1.258c-.18.022-.359.036-.525.058a4.2 4.2 0 0 1-.525.029 3.637 3.637 0 0 1-1.035-.122 1.343 1.343 0 0 1-.611-.359 1.247 1.247 0 0 1-.3-.589 4.436 4.436 0 0 1-.094-.812v-4.356h-1.229v-1.229z" class="cls-2" transform="translate(-276.205 -91.512)"/>
                <path id="Path_52" d="M19.5 7.088h-7.444L9.756 0 7.448 7.088 0 7.081l6.032 4.385-2.308 7.082 6.032-4.378 6.024 4.378-2.3-7.081z" class="cls-1"/>
                <path id="Path_53" fill="#005128" d="M139.942 161.1l-.518-1.6-3.724 2.7z" transform="translate(-125.944 -148.033)"/>
            </g>
        </g>
        <text id="Excellent" fill="#fff" font-family="Cabin-Regular, Cabin" font-size="16px" transform="translate(596 665)">
            <tspan x="-30.688" y="0">Excellent</tspan>
        </text>
    </g>
</svg>
