<svg xmlns="http://www.w3.org/2000/svg" width="76.832" height="30" viewBox="0 0 76.832 30">
    <g>
        <path fill="#fff" d="M52.364 27.115h.329l.776 2.076.776-2.076h.329L53.469 30zm14.746.625v2.1h-.3V27l2.124 2.224v-2.109h.3v2.846zm-45.208 0v2.1h-.3V27l2.124 2.224v-2.109h.3v2.846zm12.5 2.148a1.021 1.021 0 0 1-.7-.278.969.969 0 0 1-.267-.79v-1.7h.3v1.621a1 1 0 0 0 .12.606.7.7 0 0 0 .549.261.723.723 0 0 0 .534-.242.94.94 0 0 0 .133-.625v-1.626h.3v1.707a.954.954 0 0 1-.239.754 1 1 0 0 1-.725.311zm-8.786-1.4a1.409 1.409 0 1 1 1.411 1.4 1.409 1.409 0 0 1-1.407-1.405zm1.4-1.134a1.127 1.127 0 1 0 .012 0zM6.879 28.482a1.409 1.409 0 1 1 1.41 1.4 1.409 1.409 0 0 1-1.41-1.4zm1.4-1.133a1.128 1.128 0 1 0 .011 0zm10.046 1.132a1.409 1.409 0 1 1 1.41 1.4 1.409 1.409 0 0 1-1.41-1.4zm1.4-1.132a1.128 1.128 0 1 0 .011 0zm50.111 1.842a1.409 1.409 0 0 1 1.251-2.124 1.314 1.314 0 0 1 .813.268v.375a1.165 1.165 0 0 0-.83-.361 1.128 1.128 0 0 0 .007 2.254 1.2 1.2 0 0 0 .823-.361v.375a1.4 1.4 0 0 1-.813.268h-.038a1.409 1.409 0 0 1-1.212-.694zm-59.691 0a1.409 1.409 0 0 1 1.255-2.123 1.312 1.312 0 0 1 .812.268v.375a1.164 1.164 0 0 0-.83-.361 1.128 1.128 0 0 0 .007 2.254 1.193 1.193 0 0 0 .823-.361v.375a1.4 1.4 0 0 1-.812.268h-.04a1.409 1.409 0 0 1-1.214-.695zm64.971-.013l.3-.083a.561.561 0 0 0 .545.505.548.548 0 0 0 .56-.531c0-.318-.25-.427-.5-.542l-.166-.072c-.318-.144-.592-.307-.592-.7a.714.714 0 0 1 .762-.691.78.78 0 0 1 .7.421l-.241.154a.5.5 0 0 0-.469-.3.433.433 0 0 0-.452.423c0 .235.243.344.427.427l.181.079c.357.156.654.333.654.766a.859.859 0 0 1-.79.841h-.07a.859.859 0 0 1-.848-.696zm-34.247 0l.3-.083a.561.561 0 0 0 .545.505.548.548 0 0 0 .56-.531c0-.318-.249-.427-.5-.542l-.166-.072c-.318-.144-.592-.307-.592-.7a.714.714 0 0 1 .762-.691.78.78 0 0 1 .7.421l-.241.154a.5.5 0 0 0-.469-.3.432.432 0 0 0-.451.423c0 .235.242.344.426.427l.181.079c.357.156.654.333.654.766a.859.859 0 0 1-.79.841h-.07a.859.859 0 0 1-.848-.696zm-36.033 0l.3-.083a.561.561 0 0 0 .545.506.548.548 0 0 0 .56-.531c0-.318-.249-.427-.5-.542l-.167-.072c-.318-.144-.592-.307-.592-.7a.715.715 0 0 1 .762-.691.78.78 0 0 1 .7.423l-.242.155a.5.5 0 0 0-.469-.3.433.433 0 0 0-.451.423c0 .235.242.344.426.427l.181.079c.357.156.654.333.654.766a.859.859 0 0 1-.79.841h-.07a.859.859 0 0 1-.846-.7zm-2.039 0l.3-.083a.561.561 0 0 0 .545.506.547.547 0 0 0 .56-.531c0-.318-.249-.427-.5-.542l-.166-.072c-.318-.144-.592-.307-.592-.7a.714.714 0 0 1 .762-.691.782.782 0 0 1 .7.421l-.241.154a.5.5 0 0 0-.47-.3.433.433 0 0 0-.451.423c0 .235.242.344.427.427l.181.079c.356.156.653.333.653.766a.859.859 0 0 1-.79.841h-.07a.859.859 0 0 1-.845-.697zm58.93-.428a1.415 1.415 0 0 1 2.544-1.094l-.22.206a1.107 1.107 0 0 0-.935-.513A1.131 1.131 0 0 0 62 28.487a1.1 1.1 0 0 0 .318.769 1.145 1.145 0 0 0 .773.347.931.931 0 0 0 .972-.852h-.81v-.282h1.137a1.293 1.293 0 0 1-.282.961 1.342 1.342 0 0 1-1.007.455 1.415 1.415 0 0 1-1.373-1.135zM73.3 29.838v-2.723h1.412v.285h-1.106v.81h1.076v.281h-1.076v1.069h1.109v.281zm-.861 0v-2.723h.3v2.723zm-7.6 0v-2.723h1.412v.285h-1.103v.81h1.076v.281h-1.076v1.069h1.109v.281zm-8.014 0v-2.723h.3v2.442h.751v.281zm-1.943 0v-2.723H56.3v.285h-1.109v.81h1.076v.281h-1.076v1.069H56.3v.281zm-7.716 0V27.4h-.657v-.281h1.631v.281h-.665v2.442zm-2.426 0V28.5h-1.389v1.336h-.3v-2.721h.3v1.1h1.394v-1.1h.3v2.723zm-4.607 0v-2.723h.3v2.723zm-.736 0l-1.116-1.25-.075.076v1.174h-.3v-2.723h.3v1.166l1.159-1.166h.408L38.5 28.383l1.322 1.455zm-7.251 0V27.4h-.658v-.281h1.625v.281h-.664v2.442zm-3.278 0v-2.723h1.239v.285h-.935v.81h.906v.281h-.906v1.351zm-11.291 0v-2.723h.3v2.723zm-1.3 0V27.4h-.658v-.281h1.625v.281h-.665v2.442zm-3.534 0v-2.723h.3v2.723zm48.458 0l-.321-.772h-1.163l-.329.772h-.332l1.256-2.852 1.224 2.854zm-1.361-1.055h.921l-.448-1.083zm-7.519 1.055l-.322-.772h-1.163l-.328.772h-.333l1.257-2.852 1.224 2.854zm-1.362-1.055h.921l-.447-1.083zm-1.3 1.055l-.823-1.195h-.078v1.195h-.3v-2.723h.395c.516 0 1 .137 1 .75a.711.711 0 0 1-.682.751l.866 1.22zm-.902-2.438v.978h.1c.345 0 .691-.065.691-.488 0-.45-.326-.494-.691-.494h-.09zm-11.62 2.438l-.823-1.195h-.074v1.195h-.3v-2.723h.395c.516 0 1 .137 1 .75a.711.711 0 0 1-.683.751l.865 1.22zm-.9-2.438v.978h.094c.345 0 .691-.065.691-.488 0-.45-.327-.494-.691-.494h-.09zM15.5 29.837l-.322-.772h-1.162l-.329.772h-.333l1.257-2.852 1.224 2.854zm-1.362-1.055h.921l-.451-1.082zM2.276 29.837l-.321-.772H.792l-.329.772H.131l1.257-2.854 1.223 2.854zM.914 28.783h.921L1.38 27.7zm75.808-1.294zm-34.247 0zm-38.071 0zm15.319-.421zM18.541 24.8l.343-.337a.58.58 0 0 0 .494.395.365.365 0 0 0 .35-.395c0-.281-.261-.361-.474-.444-.349-.144-.606-.321-.606-.744a.79.79 0 0 1 .79-.817 1.119 1.119 0 0 1 .743.3l-.249.368a.494.494 0 0 0-.409-.223.323.323 0 0 0-.332.307c0 .462 1.08.271 1.08 1.185a.861.861 0 0 1-.9.931.964.964 0 0 1-.83-.526zm54.572-.9a1.354 1.354 0 0 1 1.329-1.445 1.176 1.176 0 0 1 1.076.651l-.47.253a.691.691 0 0 0-.621-.433c-.512 0-.765.523-.765.975a.861.861 0 0 0 .769.954.643.643 0 0 0 .621-.618h-.578v-.433h1.173v.069c0 .769-.393 1.451-1.238 1.451a1.334 1.334 0 0 1-1.296-1.417zm-32.425.011a1.385 1.385 0 0 1 1.344-1.455 1.268 1.268 0 0 1 .606.159v.636a.79.79 0 0 0-.6-.289.872.872 0 0 0-.8.939.857.857 0 0 0 .8.917.832.832 0 0 0 .6-.288v.632a1.429 1.429 0 0 1-.617.162 1.372 1.372 0 0 1-1.333-1.406zm-38.413.246V22.54H2.8v1.524c0 .336.03.809.481.809s.48-.473.48-.809V22.54H4.3v1.624c0 .664-.281 1.166-1.011 1.166s-1.014-.502-1.014-1.166zm45.166 1.148l-1.435-1.9H46v1.848h-.53v-2.8h.382l1.434 1.9h.008v-1.817h.53v2.777zm24.534-.049V22.54h.53v2.723zm-5.451 0V22.54h.531v2.723zm9.752 0v-2.721h.531v2.723zm-6.107 0v-2.72h.53V24.8h.751v.462zm-1.176 0l-.661-1.1h-.007v1.1h-.531v-2.721h.719c.538 0 .909.239.909.821a.719.719 0 0 1-.556.754l.769 1.148zm-.668-1.47h.068c.292 0 .5-.083.5-.419s-.212-.4-.494-.4h-.073zm-4.155 1.47v-2.721h.661c.506 0 .817.2.817.741a.622.622 0 0 1-.239.527.644.644 0 0 1 .466.682c0 .535-.376.773-.87.773zm.528-.427h.112c.285 0 .531-.035.531-.389s-.289-.369-.557-.369H64.7zm0-1.162h.064c.261 0 .387-.079.387-.357s-.159-.351-.383-.351H64.7zm-4.569 1.589v-2.72h.53v2.722zm-1.173 0l-.663-1.1h-.008v1.1h-.53v-2.721h.719c.538 0 .909.239.909.821a.719.719 0 0 1-.556.754l.769 1.148zm-.672-1.47h.069c.292 0 .5-.083.5-.419s-.212-.4-.494-.4h-.074zm-1.622 1.47l-.209-.574H55.5l-.224.574h-.56l1.061-2.8h.412l1.037 2.8zm-1-1.007h.638l-.34-.987h-.007zm-2.514 1.007v-2.72h.531V24.8h.751v.462zm-1.093 0l-.209-.574H50.9l-.224.574h-.56l1.062-2.8h.412l1.033 2.8zm-1-1.007h.645l-.339-.987h-.01zm-2.121 1.007V23h-.554v-.462h1.629V23h-.549v2.26zm-5.58 0v-2.72h1.409V23h-.883v.6h.845v.462h-.845v.738h.878v.462zm-3.624 0l-.209-.574h-.941l-.224.574h-.56l1.061-2.8h.412l1.033 2.8zm-1.008-1.007h.643l-.34-.987h-.007zm-5.1 1.007V23h-.549v-.462h1.628V23h-.549v2.26zm-1.229 0l-.209-.574h-.943l-.224.574h-.56l1.062-2.8h.409l1.033 2.8zm-1-1.007h.643l-.34-.987h-.007zm-1.992 1.007v-1.215h-.982v1.216h-.531v-2.721h.531v1.072h.982v-1.072h.53v2.722zm-2.607 0l-.209-.574h-.946l-.224.574h-.56l1.061-2.8h.412l1.033 2.8zm-1-1.007h.643l-.34-.987h-.007zm-2.174 1.009v-1.249l-.845-1.473h.617l.477.946.52-.946h.621l-.86 1.473v1.249zm-2.711 0v-2.722h1.408V23h-.878v.6h.845v.462h-.845v.738h.878v.462zm-7.148 0v-2.722h1.409V23h-.878v.6h.844v.462h-.844v.738h.878v.462zm-1.889 0v-1.249l-.844-1.473h.617l.477.946.52-.946h.621l-.86 1.473v1.249zm-1.856 0v-2.723h.53v2.723zm-1.2 0l-.871-1.224h-.004v1.224H7.41v-2.722h.531v1.148h.007l.842-1.148h.653l-1.032 1.257L9.5 25.258zm-2.586 0l-.66-1.1h-.003v1.1h-.531v-2.723h.719c.538 0 .91.239.91.821a.719.719 0 0 1-.556.754l.767 1.148zm-.662-1.47h.069c.288 0 .494-.083.494-.419s-.211-.4-.494-.4h-.065zm-4.909 1.47V23H.11v-.462h1.629V23H1.19v2.26zm1.616-1.094zm64.314-1.857a.289.289 0 1 1 .2.084.289.289 0 0 1-.2-.084zm-56.512 0a.289.289 0 1 1 .2.084.289.289 0 0 1-.2-.084zm66.261 0a.289.289 0 1 1 .2.085.289.289 0 0 1-.2-.085zm-4.3 0a.289.289 0 1 1 .2.085.289.289 0 0 1-.201-.085zm1.719-.548h.354c.033.144.112.257.271.257s.239-.113.271-.257H75a.628.628 0 0 1-1.249 0zM2.9 22.131a.289.289 0 1 1 .005 0zm.769 0a.289.289 0 1 1 .291-.282.289.289 0 0 1-.291.282zm34.356-3.363l1.556-3.96.26.2a5.33 5.33 0 0 0 3.176 1.292c.5 0 1.3-.2 1.3-.835s-.669-.687-1.133-.78l-1.022-.186c-1.987-.352-3.658-1.522-3.658-3.714 0-3.324 3.027-5.182 6.072-5.182a8.331 8.331 0 0 1 4.443 1.226l-1.374 3.584a5.287 5.287 0 0 0-2.952-1.063c-.445 0-1.095.167-1.095.742 0 .524.631.6 1.021.691l1.151.26c2.154.483 3.714 1.635 3.714 4.012 0 3.343-3.046 5-6.073 5a12.612 12.612 0 0 1-5.385-1.287zm-26.576-4.662V5.824h5.088v7.8c0 1.1.038 2.062 1.393 2.062s1.393-.966 1.393-2.062v-7.8h5.089v8.283c0 4.086-2.568 5.943-6.482 5.943s-6.481-1.858-6.481-5.944zM2.8 19.827v-9.583l-2.8.129V5.824h10.7v4.55l-2.8-.129v9.583zm61.859 0v-14h5.924c2.714 0 5.479.65 5.479 3.881a2.833 2.833 0 0 1-1.838 2.823v.112a3.384 3.384 0 0 1 2.488 3.324c0 2.875-2.675 3.863-5.125 3.863zm4.717-3.342h.576c.836 0 2.043-.019 2.043-1.17 0-1.17-1.3-1.152-2.117-1.152h-.5zm0-5.274h.463c.744 0 1.58-.075 1.58-1.041 0-1.04-.947-.966-1.689-.966h-.35zm-10.31 8.615l-.466-1.745h-3.843l-.409 1.746h-5.386l4.862-14h5.628l5 14zm-3.4-5.07h2.047l-.592-2.468c-.149-.594-.242-1.21-.335-1.8H56.6zm-22.854 5.07l-2.229-4.494h-.093v4.494h-4.976v-14h6.147c3.157 0 5.831 1.337 5.831 4.866 0 2.117-.818 3.009-2.711 3.64v.112a3.513 3.513 0 0 1 .854.835l3.046 4.55zm-2.321-7.8h.352c.835 0 1.672-.129 1.672-1.17 0-1.077-.761-1.207-1.634-1.207h-.39zm-13.565-1.809a1 1 0 1 1 1 1 1 1 0 0 1-1-1zm0-3.3a1 1 0 1 1 1 1 1 1 0 0 1-1-.999zm1.4-1.714h-.044l-.019-.016v-.018H18.2v-.023l.032-.054-.072-.168a.342.342 0 0 1-.023-.041c0-.01-.035-.022-.035-.022l.009-.02c.01-.022.029-.016.038-.022a.013.013 0 0 0 .006-.016l.025-.003v-.032l.01-.025.032-.007.032-.019a.448.448 0 0 0 .037-.044l.016-.01.017-.013.032-.022.016-.01h.015v-.037a.271.271 0 0 0 0-.042.337.337 0 0 1 0-.044V4.46a.047.047 0 0 0 0-.022l-.023-.019-.013-.007a.041.041 0 0 1-.025-.029.058.058 0 0 0-.013-.022h-.033l-.05.017-.019.019-.013.041-.016.009-.013.013-.016.019-.013.01h-.019L18.1 4.48a.211.211 0 0 1-.044.01h-.026c-.023 0-.013.013-.013.013l-.029.019v.02a.061.061 0 0 0 .029-.007.114.114 0 0 1 .035-.009l.01-.013h.016v.026l-.016.006v.015l-.02.01-.016.025v.033l-.032.019h-.1l-.009.01c-.006.008 0 .011 0 .012l-.057-.013h-.032l-.025-.023a.307.307 0 0 1-.038-.019.077.077 0 0 0-.033-.014l-.023-.023-.016-.019a.041.041 0 0 1-.007-.01h-.009l-.019-.009-.032-.016-.038-.013-.016-.01-.029-.016a.155.155 0 0 1-.026-.019l-.009-.01a.03.03 0 0 0-.02-.01h-.079l-.026.01-.032.013a.2.2 0 0 1-.035.009l-.014.023-.02.026-.032.012-.035.023-.029.019-.029.036-.016.009-.044.08-.013.022s-.025.023-.038.023H17l-.02.013v.053l-.028.036-.029.012-.023.007V4.9h-.021v-.019s.009-.03 0-.036-.015 0-.025 0-.026.016-.026.016a.057.057 0 0 0-.019.017.1.1 0 0 1-.016.016l-.02.022-.006.013a.037.037 0 0 1-.013.016l-.023.016h-.041a.027.027 0 0 0-.023.01v.016h-.032a.029.029 0 0 0-.022.007H16.6l-.026-.01a.09.09 0 0 1-.035-.006l-.017-.013-.022.025h-.032a.059.059 0 0 1-.038 0 .06.06 0 0 0-.037 0 .165.165 0 0 0-.034.01l-.016.016h-.019l-.044-.006c-.023 0-.023.009-.023.009l-.044.013-.016.029h-.07a.387.387 0 0 1-.085 0c-.023-.007 0 0-.023-.016l-.029-.016-.013-.016c-.013-.016-.035 0-.035 0v-.02h-.016l-.013-.02-.023-.013-.012-.012c-.013-.013-.02-.013-.02-.013v-.02h-.013c-.012 0-.012-.006-.022-.013a.048.048 0 0 1-.016-.019l-.016-.016v-.011l-.016-.013-.038-.043c-.023-.025 0-.019 0-.019l-.007-.013a.32.32 0 0 0-.019-.038l-.008-.01-.008-.006-.016-.014-.019-.016c-.02-.013 0 0-.01 0a.065.065 0 0 1-.019-.01l-.013-.009-.013-.01-.026-.026-.013-.006a.566.566 0 0 0-.06 0c-.038 0 0 0-.038-.02s-.019-.012-.029-.019l-.019-.009a.085.085 0 0 1-.026-.017.037.037 0 0 0-.023-.009h-.013a.147.147 0 0 1-.032-.02l-.006-.009a.092.092 0 0 0-.019-.02h-.032a.026.026 0 0 1-.017-.01l-.016-.009-.036-.013a.111.111 0 0 1-.026-.01l-.016-.009a.041.041 0 0 0-.029-.007.27.27 0 0 1-.042 0 .1.1 0 0 0-.041-.006h-.016a.167.167 0 0 1-.044-.006.09.09 0 0 0-.029-.006h-.035l-.05.006a.443.443 0 0 1-.073-.013.182.182 0 0 0-.057 0l-.02.01-.016.016v.029l-.016.022v.029l.016.026-.016.022V4.6l.016.029v.016l-.022.022-.016.02a.139.139 0 0 0 0 .037.342.342 0 0 1-.026.029v.038l.026.025-.019.02v.016s-.011.016-.02.019-.016.019-.016.019v.026h-.035v-.048h-.032l-.026-.006-.02-.007a.233.233 0 0 0-.037-.006c-.019 0-.019.006-.019.006l-.033.036h-.035c-.013 0-.035.022-.035.022v.016h-.016l-.038-.006-.029.019a.192.192 0 0 0-.026.02c-.025.019 0 0-.009 0s-.02.025-.02.025H14.1c-.019 0 0 0-.026-.019v-.024h-.013l-.025-.016h-.057l-.029-.022h-.05l-.032-.023-.041-.041-.027-.019-.009-.013h-.029v-.07a.058.058 0 0 1-.006-.041c0-.009 0-.008.005-.007h.008c.008 0 0-.016 0-.016h-.019l-.016-.016v.016H13.7v-.03a.231.231 0 0 0 .01-.038l.013-.012h.029l.009-.016-.016-.019-.022-.006-.047-.02a.048.048 0 0 0-.036 0l-.013.013-.019.006-.01.016v.01l.01.019v.029h-.029v-.045l-.006-.016-.013-.013-.007-.013h-.073l-.038-.017.006-.022v-.024l-.032-.019-.016-.006-.019.016h-.021l-.01-.013V4.44a.113.113 0 0 0 0-.026c0-.01-.019 0-.019 0l-.013.022-.013.033-.016.006-.016-.006-.01-.016a.118.118 0 0 0-.022-.029c-.01-.01-.023 0-.023 0a.017.017 0 0 1-.016.013c-.01 0 0 .016 0 .016a.225.225 0 0 1 .022.037c.01.015.008.013.008.01s0 0 .008 0l-.013.026H13.2l-.01.032h-.01c-.012 0-.012.019-.012.019l-.026.013c-.026.013 0 0-.026.023l-.013.019h-.058V4.6h.024l.029-.015v-.018h-.052l-.021-.016h.021l.014-.013.026-.006.026-.007s-.02-.016-.01-.016a.1.1 0 0 0 .026-.019l.016-.013-.013-.013-.016-.016-.019.038-.036.025H13l-.051-.006a.578.578 0 0 1-.072-.007l-.02.023-.013.019-.022.023-.019.013-.016-.007h-.037l-.007.011-.05.013a.1.1 0 0 1-.033 0 .034.034 0 0 1-.022-.02l.013-.022h.026a.3.3 0 0 1 0-.036c0-.022.026 0 .026 0a.061.061 0 0 0 .027-.015c.005-.007.01 0 .017 0a.043.043 0 0 0 .031 0c.032-.01.019 0 .019 0a.017.017 0 0 0 .016-.013l.013-.022h.041l.025.006h.054l.019.013c.023.013.023 0 .023 0h.082l.01-.007c.01-.006 0-.025 0-.025h-.027l.008-.016.016-.02c.016-.019 0-.019 0-.019h-.024v-.036l.024-.017h.092l.016-.012.013-.01.032-.013a.023.023 0 0 1 .016 0s.041-.02.023-.026-.007-.016-.007-.016l-.047.016h-.135a.067.067 0 0 1-.027 0 .123.123 0 0 1-.039.023h-.077l-.032.007-.069-.007h-.013a.132.132 0 0 0-.036 0l-.029.007h-.016l-.037-.013a.176.176 0 0 0-.032-.007.17.17 0 0 0-.036 0c-.013 0-.013.013-.013.013l-.006.01a.04.04 0 0 1-.013.013l-.026.012a.093.093 0 0 1-.019-.038v-.018l-.006-.032v-.035l.029-.016.016-.016h.089l.006.029h.048l.018-.015.006-.022-.006-.019v-.033h.009l.01-.019.016-.013-.013-.019-.026.019h-.037l-.013-.019.016-.019v-.015l-.016-.017-.009.033h-.029l-.017-.02v-.021l.02-.016.016-.01-.013-.016h-.048L12.611 4v.035h-.076L12.525 4l.019-.032a.045.045 0 0 1-.012-.023v-.023l.009-.025-.016-.019h-.013v-.02l.01-.022.012-.017-.022-.019h-.073l-.025-.019H12.4v-.034l.016-.018h.044a.156.156 0 0 0 .037 0 .294.294 0 0 0 .042-.026l.023-.019s0-.035-.01-.044a.055.055 0 0 1-.013-.026l.019-.044a.065.065 0 0 0 .01-.035.169.169 0 0 1 0-.032l-.03-.003h-.023l-.025-.016h-.029l-.02-.026-.013-.026-.037-.009h-.054v.035h-.013L12.3 3.44v-.05a.131.131 0 0 0-.006-.038l-.007-.016h-.017a.193.193 0 0 0 0-.029h-.047l-.044.01c-.044.009 0 0 0 .009a.1.1 0 0 1 0 .023l-.012.026h-.041l-.026-.014v-.032h-.035l-.016-.023-.013-.019H12l-.013-.02h-.029l-.013-.019h-.029v-.011h.022l.01-.009a.011.011 0 0 0 0-.009.011.011 0 0 0 0-.009l.007-.018v-.024h.013V3.2l.012.014h.036V3.2h.032v-.02a.236.236 0 0 1 .006-.025.038.038 0 0 0 .007-.02l.019-.013-.019-.009-.026-.02a.066.066 0 0 1-.016-.022.036.036 0 0 0-.01-.016L12 3.038s-.026-.017-.026-.026a.073.073 0 0 1 0-.019v-.029a.165.165 0 0 1 .01-.036L12 2.917a.015.015 0 0 1 .022 0h.029c.01 0 .016.016.026.016a.09.09 0 0 1 .019.013l.026.023h.013c.012 0 0 .023 0 .023l.009.028.02.026.016.007-.01.029-.026.009v.03l.023.016.009.019v.019s0 .032.013.032a.052.052 0 0 0 .026 0v-.038l-.015-.016.013-.032.01-.016h.019v.029l.013.019v.014h.028a.1.1 0 0 1 .032 0 .027.027 0 0 0 .017 0h.035l.013-.019h.1v-.013a.048.048 0 0 0 0-.019l-.006-.022h-.044a.02.02 0 0 1-.023 0c-.013-.01-.013 0-.013 0h-.032a.09.09 0 0 1-.022-.019.033.033 0 0 1-.007-.017l-.01-.019-.023-.028a.079.079 0 0 1-.022-.029c-.007-.016-.013-.016-.013-.016a.154.154 0 0 1-.032-.025.084.084 0 0 1-.01-.029v-.031l.016-.025a.042.042 0 0 0 .02 0h.079v-.044l.023-.02h.019l-.01-.019.036-.016h.022l.01-.035-.016-.02-.026.02-.019-.015h-.016s-.026.016-.038 0-.01 0-.014 0-.009.008-.018 0 0 0-.006-.016-.013 0-.013 0l-.01-.022.01-.033h.006l.029-.02.016-.016-.01-.016-.013-.018a.078.078 0 0 1-.013-.036c0-.022-.01 0-.01 0l-.01-.013-.004-.017-.032-.022V2.47a.085.085 0 0 0-.007-.026h-.009a.026.026 0 0 0-.017 0l-.009-.019h-.016l.009-.026.02-.032h.016l.016-.019h.013l.016-.02h.009l.02-.022v-.02l.029-.035.04-.013a.088.088 0 0 0 .01-.041.1.1 0 0 0 0-.013.084.084 0 0 0-.007-.019l-.035.007a.145.145 0 0 1-.037.006.112.112 0 0 0-.036.006h-.091l-.006.025-.023.007H12.1c-.016 0-.016.006-.045.016a.1.1 0 0 1-.055.005c-.026 0-.023.01-.036.016a.038.038 0 0 0-.016.013.1.1 0 0 1-.054 0 .031.031 0 0 0-.027 0 .014.014 0 0 1-.017 0c-.019-.01-.025 0-.025 0l-.01-.022v-.02a.1.1 0 0 0 .01-.037.027.027 0 0 1 .016-.026l.006-.013.007-.013.006-.035v-.07l.003-.03v-.062l-.006-.029.009-.041V1.8l.023-.016h.023l.035-.013.035-.023v-.019l.013-.02.016-.013.013-.028.007-.026.016-.031-.047.037v.038l-.016.025s-.032.023-.054.041l-.016.007-.016.022h-.035v-.016l.006-.029.013-.026v-.021l.016-.026.013-.016.026-.022c.013-.01.01-.019 0-.026l-.01-.007-.019-.012-.008-.04.007-.013.009-.023h.019l.029-.019h.022a.1.1 0 0 0 .033-.032c.009-.019.009 0 .009 0l.023-.023h.019l.013-.016h.013l.022-.012h.013l.029-.013.019-.013c.016-.013.016 0 .016 0h.005l.01-.013V1.35h.026a.184.184 0 0 0 .05-.023l.013-.012V1.3l-.006-.012-.006-.016-.02-.017-.025.007-.033.006h-.035l-.035.006h-.01c-.01 0-.019.019-.019.019l-.026.02-.044-.017-.019.017h-.166l-.032-.023H11.8l-.013-.034V1.2l.022-.016s.025-.012.029-.022.013-.013.013-.023a.035.035 0 0 0 0-.019v-.012h.029v-.029l.023-.013v-.012l.013-.019.019-.02h.037l-.008-.028.012-.026V.93L11.96.91l.019-.019-.019-.018v-.1l.012-.032h.041l.029-.019.016-.017.007-.032h.092l.01-.063-.016-.039L12.138.5V.425h-.044l-.017-.019-.005-.032h-.026L12 .355l-.02-.02v-.1l.013.009c.013.009.048-.006.057-.019l-.013.015c-.01.013.025 0 .035 0s.013 0 .035-.013l.02-.01c.019-.009 0-.022 0-.022V.138L12.154.1l.012.006.026.013.008-.002a.02.02 0 0 1 .022 0L12.243.1l.019-.023L12.3.1l.044-.02h.044V.065l.026-.009V.037l.013-.009V0h.041l.013.025h.019l.019.007.028-.032a.12.12 0 0 1 .047.012c.01.01.026 0 .026 0a.148.148 0 0 1 .029.02.01.01 0 0 1 0 .016l.013.029.019.009V.1l.013.023h.051v.022l.022.023V.155l.023-.019h.056l.013-.029h.06v.029h.02V.1l.029-.021h.028V.12l.051-.013h.029l.013.086h-.016l-.014-.015-.019.006V.2a.068.068 0 0 1 .006.023l.006.018.007.026a.072.072 0 0 1 .009.026.154.154 0 0 1 .007.022.34.34 0 0 0 .025.03.035.035 0 0 1 .01.023l.01.029c0 .009.016.016.016.016a.217.217 0 0 1 .022.032c.006.011.007.011.008.01s0 0 .012.011 0 0 .019.029.003.012.003.005 0-.005 0 0l.017.013.016.006.047.022.022.02.02.016.025.016A.036.036 0 0 0 13.36.6l.023.013.032.023.029.009.013.007.022.013.021.006.035.01.051.026.028.009.036.007.032.013a.079.079 0 0 0 .032.006.155.155 0 0 0 .034-.01l.023.013V.77l-.032.038-.02.036h.02l.016-.007.015-.025V.8l.013-.029.017-.032h.047l.044.016.029.01h.051a.235.235 0 0 1 .044.006.049.049 0 0 1 .028.013l.038.016.038.01a.222.222 0 0 0 .041.006h.04c.02 0 .023.01.036.01a.543.543 0 0 0 .07 0h.037A.3.3 0 0 0 14.4.815a.038.038 0 0 1 .016 0 .026.026 0 0 0 .015 0C14.446.8 14.485.8 14.5.793s0 0 .009-.007a.043.043 0 0 1 .02-.006h.022l.032.013s.036.019.044.026l.02.009h.069l.036.007.018.005.03.01a.236.236 0 0 0 .047.006.042.042 0 0 1 .029.007.211.211 0 0 0 .047.009h.021l.044-.006.037-.006h.039a.268.268 0 0 0 .044-.006.257.257 0 0 1 .047-.006.045.045 0 0 0 .026-.013l.038-.013A.075.075 0 0 0 15.251.8a.073.073 0 0 0 .009-.029c0-.009.013-.019.013-.019a.169.169 0 0 1 .016-.032L15.3.705V.673l.013-.007a.242.242 0 0 0 .038-.022l.05-.032a.128.128 0 0 0 .039-.026c.019-.016 0 0 .009 0a.284.284 0 0 0 .036-.023l.045-.011.016-.029.029-.023.01-.008a.1.1 0 0 1 .033-.012.021.021 0 0 0 .016-.02.1.1 0 0 0 .029-.009.08.08 0 0 1 .037-.004h.054l.009-.017.021-.03.016-.007a.1.1 0 0 0 .019-.023l.013-.016.013-.009.035-.023a.055.055 0 0 1 .02-.008l.044-.02.016-.013.023-.011A.046.046 0 0 0 16 .257c.006-.007.022-.007.032-.007a.166.166 0 0 1 .041-.016.042.042 0 0 0 .027-.01l.03-.006H16.188c-.003 0 .026-.013.038-.016s.013-.009.013-.009l.016-.013.025-.007.013-.006.037-.015a.068.068 0 0 1 .029-.01.2.2 0 0 0 .047-.019.045.045 0 0 1 .026-.007.142.142 0 0 0 .05-.025c.023-.02.013-.02.023-.02a.068.068 0 0 1 .025 0h.044c.013 0 .023.007.038.007a.1.1 0 0 1 .035.009h.026a.363.363 0 0 1 .05.013l.041.01h.1c.013 0 .063.006.086.006s0 0 .032-.006.032 0 .032 0l.02.01.025.012h.127a.11.11 0 0 1 .039-.012l.048-.013.012.013.023.006.038.016h.035a.191.191 0 0 1 .042 0c.009 0 .019 0 .035-.006L17.5.118A.1.1 0 0 0 17.517.1l.032-.038V.053l.009-.029.028-.024h.044l.01.025.016.023h.06l.016-.01.007.02-.029.012-.026.012-.016.029.006.029.026.075.013.02.029.019a.033.033 0 0 1 .009.023l.016.016.033.037.06.029.017.013.023.012.032.016h.053a.112.112 0 0 0 .041-.01.27.27 0 0 0 .04-.01c.025-.012.016 0 .025-.012a.032.032 0 0 1 .026-.007l.032-.013.038-.013.018-.005h.029l.019.006.023.013a.065.065 0 0 0 .019.01l.023.016.006.019.01.026.006.026v.1l.01.016.019.023.019.012.023.02h.01c.006 0 .006.032.006.041a.024.024 0 0 0 .01.016l.019.009.044.042.05.016.05-.016V.718c.01-.006.016 0 .026-.013l.013-.013.006-.019a.065.065 0 0 1 0-.032c.007-.016.038-.007.038-.007l.032.01.042.007s.026 0 .029.006.019.006.019.006l.023.01.035.027.022.012.02.007.016.029v.014l.009.047.029.01.029.006h.044l.047.012.02.007.032.01.023.012.025.02.032.009.044.029h.033l.012-.01.019-.038.019-.029a.328.328 0 0 0 .052.013h.022l.007.029v.018l.006.023h.029l.016.006.016.01.026.016.019.01.023.009h.082l.023.01h.1l.018.009h.143l.022-.019.028-.016.03.007h.016l.019-.013.016-.006c.016-.01 0 0 .007-.01a.015.015 0 0 1 .016-.006L20.1.918l.025-.01.023-.008h.02l.022.016h.035a.032.032 0 0 0 .02-.006l.021-.02A.08.08 0 0 1 20.3.877h.033l.028.013.019.01h.02l.023-.019.01-.01c-.001 0 0 0 0 0h.025a.077.077 0 0 0 .029-.013h.02l.022.016.026.019.009.02.016.017.02.016.035.01.029-.007a.089.089 0 0 1 .036.007l.022.009.016.01.047.013.03.012.02-.01h.047l.013.016a.18.18 0 0 0 .05.013h.029l.032-.013.044-.019.01-.007c.01-.006.01-.013.01-.013l.03-.031.014-.006a.067.067 0 0 1 .029-.007h.052l.039-.016h.037L21.284.9a.119.119 0 0 1 .036-.016l.006-.01.016-.035.023-.013.025-.01.029-.01.021-.028s.022 0 .022.006.02 0 .02 0l.012-.01a.139.139 0 0 0 .051-.013L21.57.74l.022-.019.008-.013.01-.026.048-.006.016-.013.019-.016.016-.016h.013l.026-.009.012-.006.025-.016.015-.018.012-.026.033-.035.019-.013.019.007.017.019a.226.226 0 0 0 .044-.016c.016-.01.023.025.023.025l.016.016H22l.013.017.022.006.017-.013.016-.026.022-.012.022-.016.023-.015.05.022h.054l.038-.013.009.019h.044l.026.023h.054l.012.016.023.01.016.006h.016l.007-.019.006-.014.029-.029V.5a.14.14 0 0 1 0-.029.175.175 0 0 1 .026-.035h.016a.1.1 0 0 0 .029 0h.037l.039.019h.022l-.01.075.022.013.036-.019.012.019.02.007.009.019.013.01.01.021v.016l.013.013.026.013.022.006.016.02.023.008.02.01h.016v.019l-.041.036h.034l.01.032.006.019.007.016.037-.013.026-.013h.013a.147.147 0 0 0 .037 0l.01.012.019.016.01.036L23.1.86l-.012.032.006.023.029.032.026.009.019.013.032.02h.016l.016.006.013.032v.029l.013.026.013.035v.025l.026.016.003.042a.3.3 0 0 0-.016.032.058.058 0 0 1-.013.02l-.006.016-.01.016-.019.029-.022.016-.01.025-.01.007-.022.013-.013.009V1.4l.016.026.025.032-.009.029v.035a.027.027 0 0 0 .009.023l.029.032.02.01-.01.037.019.029.007.023-.016.006-.029.016.009.026.016.013.023.006h.044a.013.013 0 0 1 .013.013l.026.022.035.017h.014a.231.231 0 0 1 .044 0h.035a.327.327 0 0 0 .054 0 .21.21 0 0 0 .044-.02h.023l.019.007h.044l.016.016.026.016.02.037h.019l.016.019.013.016.016.016.026.032.019.038.029.029.025-.001.009.013.016.026h.013v.016l.017.013.012.026.017.028h-.023l-.016-.022-.01-.016-.016-.026h-.029l-.019-.006-.035-.048-.033.02-.019.022-.019.013v.05l-.006.023-.017.029-.016.006.007.033v.067l-.01.032-.035.013-.029.016-.029-.009-.029-.007-.005-.012a.01.01 0 0 0-.008 0 .01.01 0 0 0-.008 0l-.029.012h-.025l-.026-.006h-.016v.057l.022.032v.031a.062.062 0 0 0-.006.025.105.105 0 0 0 .013.036l.01.019a.2.2 0 0 0 .044.016l.016.035v.026l-.012.026.012.033-.016.025v.05l.032.023.007.013.016.016.006.012h.026c.006 0 .006.038.006.038l-.006.029-.01.019-.022.023.006.041.007.019.022.016.013.019V3.1l-.007.013v.029l.01.032.019.01.032.013.023-.02.016.007.01.006.012.01.016.019-.006.019-.013.013-.022.02h-.028V3.3l-.007.029v.019l-.01.026V3.4l-.035.007-.007.016-.006.026-.013.016-.01.016V3.5l-.013.041-.006.019v.016l.01.023h.016l.019-.006h.042l.013.016v.041h.023l.012-.007.007.026h.025l.023-.013.029.023.016.006.01.013.006.016-.009.019-.033.013c-.013 0 0 .032 0 .032l.009.007a.033.033 0 0 1 .013.019l-.013.032v.077l.016.025.016.01.007.022.019.026.016-.006.022.006v.023l.013.009.016.01.017.014.017.01v.022l-.029.026v.06H23.9l-.039-.013v.013h-.021v.013l-.016.016-.029.026-.032.016v.012l-.025.013h-.044v.019l-.02.016v.013l-.029.013-.019-.019-.013-.033v-.019l-.022-.013c-.023-.013 0 0-.007-.023s0-.01 0-.008v-.021l.013-.016.016-.013.029-.016v-.015l-.016-.009V4.1l-.019-.019-.013-.01c-.013-.01 0-.016 0-.016l-.032-.016-.029-.013a.133.133 0 0 0-.035 0 .143.143 0 0 1-.048.007v.016a.129.129 0 0 1-.041.028c-.02.01 0 .01 0 .01v.019l-.017.007-.022.006-.016.023-.038-.032h-.009a.023.023 0 0 0-.02.007h-.022s-.023.01-.026 0-.029 0-.029 0l-.038-.026-.016.01h-.036l-.019-.01-.016-.019a.183.183 0 0 0-.047-.016c-.023 0 0-.016 0-.016h-.023L23 4.05h-.02v-.028l-.029-.013h-.025a.155.155 0 0 0-.042-.023c-.01 0-.019.013-.019.013l-.042.023-.023.008h-.066l-.026-.016L22.692 4h-.01a.015.015 0 0 0-.016 0l-.019.016-.029.035v.019l-.032.013v.016l-.036.026v.026l-.016.029-.029.009h-.016l-.029.01h-.032V4.2h-.041l-.022-.028V4.1l-.019-.017H22.3v-.019l-.019-.032v.019l-.016.029-.026.038-.035.019-.019.035h-.015l-.056.019a.279.279 0 0 1-.067.013h-.032c-.01 0-.054.02-.07.02h-.07l-.019.006-.037.013h-.026a.075.075 0 0 0-.036.006h-.022a.147.147 0 0 1-.032.007.135.135 0 0 0-.029.006h-.023l-.019-.013-.026-.009-.028-.013a.082.082 0 0 0-.033-.007l-.019-.009h-.165l-.042.016-.047.022-.044.029-.029.01h-.041l-.039.013-.034.041-.022.01-.029.012-.029.01v.016a.089.089 0 0 1-.029.013c-.01 0-.02.006-.029.006a.088.088 0 0 0-.029.01l-.044.022-.044.023-.067.019-.034.026h-.067l-.063.032-.082.007a.382.382 0 0 1-.089.028h-.14a.133.133 0 0 1-.035-.009l-.044-.01-.057.006h-.048a.255.255 0 0 1-.054-.009l-.029-.01L20 4.5l-.036-.019-.016-.01a.132.132 0 0 0-.022-.035c-.016-.019 0 0-.01 0a.14.14 0 0 1-.038-.019l-.013-.013-.022-.016-.019-.007c-.02-.006-.02 0-.02 0h-.056l-.044.01h-.033l-.037.007-.041.022a.12.12 0 0 1-.032.01.056.056 0 0 1-.029.016.022.022 0 0 0-.019.01l-.057.037-.038.026h-.082l-.057.019-.026.016a.043.043 0 0 0-.03.015h-.009l-.024.022-.023-.007-.035-.009a.07.07 0 0 1-.032-.005l-.036-.016H19l-.013.019h-.02l-.022-.01v-.058l-.039-.005v-.036h-.053l-.029-.009-.044-.013h-.02l-.036-.029-.025.035-.013.023-.009.025-.013.036-.016.009v.044l-.013.033v.056l-.016.026v.029l.023.013.019.041v.032l.019.016.026.013c.026.013 0 .025 0 .025V4.9l-.013.02-.016.009-.029-.006a.226.226 0 0 1-.038-.01h-.02l-.012.016-.02.01h-.032l-.019.006v.169l-.016.012-.038-.026v.032l-.029-.009s-.019.006-.016.019-.017.013-.017.013l-.025.1zm-2.006-2.43a.515.515 0 0 1-.01.064c-.006.018-.028.095 0 .116l.072.051c.01.008.071.044.089.057a.37.37 0 0 1 .067.053c0 .011 0 .049.021.045a.086.086 0 0 0 .054-.037c.008-.02.024-.051.04-.058s.036-.01.036-.022a.018.018 0 0 0 0-.017.145.145 0 0 1-.029-.04.174.174 0 0 0-.015-.032l-.019-.039a.021.021 0 0 0 0-.025.108.108 0 0 1-.02-.031c0-.01-.016-.044-.023-.034a.039.039 0 0 0-.011.03c0 .015 0 .047-.013.032a.348.348 0 0 0-.045-.048c-.017-.014-.039-.03-.032-.041s.015-.011.008-.027-.012-.036 0-.038.022-.009.022-.022a.078.078 0 0 0-.007-.041.1.1 0 0 0-.029-.041l-.03-.034c-.009-.011-.017-.026-.028-.02s-.019.007-.011.015.015.012.015.018a.094.094 0 0 0 0 .037.2.2 0 0 1 .014.045c0 .012.007.033 0 .041a.062.062 0 0 1-.026.025c-.016.008-.036 0-.042.008a.024.024 0 0 1-.021.007c-.006 0-.017-.007-.024-.007s-.003.005-.004.011zm6.409.1s.012.015.009.018-.02 0-.019.009.014.007.014.012a.108.108 0 0 1 .018.029.067.067 0 0 1 0 .02c0 .007 0 .014.006.014h.021a.059.059 0 0 0 .028.012l.032-.006a.071.071 0 0 1 .03-.006.024.024 0 0 0 .021 0 .013.013 0 0 0 0-.012c0-.006-.007-.007 0-.013a.088.088 0 0 0 .018-.023l.021-.023.013-.011.01-.01a.076.076 0 0 1 .033-.006c.013 0 .008-.045.008-.055a.345.345 0 0 0-.012-.046c0-.006-.008-.006-.014-.006a.21.21 0 0 1-.036-.012.185.185 0 0 1-.03-.021.046.046 0 0 0-.014-.014c0-.007.006 0 .012-.007s-.008-.009-.015-.008-.007 0-.012.012 0 .006 0 .007-.016.008-.022.007.009-.015.015-.018a.024.024 0 0 0 .011-.02.129.129 0 0 0 .01-.027.088.088 0 0 1 .013-.018.04.04 0 0 0 0-.025.035.035 0 0 1 .002-.026.163.163 0 0 1 .03-.018c.014 0 .011-.018.014-.036s.01-.018.016-.018h.018s.012.012.019.015S23 2.54 23 2.532v-.008a.173.173 0 0 1 .032-.02h.012a.14.14 0 0 0 .033-.023.068.068 0 0 0 .01-.015c0-.009.017-.009.024-.009l.031-.018.01-.008h.015c.007 0-.036-.017-.036-.017l-.02-.009a.082.082 0 0 1-.021-.008.063.063 0 0 0-.024 0 .039.039 0 0 1-.016 0h-.074a.028.028 0 0 0-.019.007.041.041 0 0 0-.013.009.017.017 0 0 1-.013.006.016.016 0 0 1-.01.008.026.026 0 0 0-.009.006h-.038a.046.046 0 0 0-.019.009.045.045 0 0 1-.023.011.177.177 0 0 0-.033 0 .138.138 0 0 1-.03.014c-.006 0-.023-.007-.023 0a.044.044 0 0 1 0 .013v.014c0 .003.008 0 .017.008s.009.009.009.015 0 .014.007.014h.035c.006 0 .013-.021.006-.021a.114.114 0 0 1-.02 0V2.5c0-.01 0-.011.01-.011s.04 0 .038.011-.013.012-.008.018a.017.017 0 0 1 0 .023c-.007.006-.015.023-.021.023l-.026.02a.1.1 0 0 1-.037.016.084.084 0 0 0-.035 0 .044.044 0 0 1-.021 0 .061.061 0 0 0-.025-.008l-.039.013h-.049a.073.073 0 0 0-.03 0c-.009 0-.013.012-.021.012a.174.174 0 0 0-.035 0l-.037.018-.021.007a.022.022 0 0 1-.02.007l-.022.011s-.016.006-.019.012-.013.025-.008.034.012.01.015.017a.129.129 0 0 1 .01.023s-.006.011 0 .011.02-.009.02 0 .009 0-.007.009a.055.055 0 0 1-.03.007.017.017 0 0 0-.015 0s-.006.006 0 .01.013.015.006.016h-.003a.01.01 0 0 0-.011.006c0 .009-.012.012-.012.019s.006.021 0 .021a.055.055 0 0 0-.025.013s0 .018.011.016.026-.014.032-.014a.043.043 0 0 0 .02 0c.007 0 .015 0 .015-.009s-.007-.008 0-.007.019.008.02.014 0 .016.007.016h.027s.011 0 .011-.007a.1.1 0 0 1 .014-.016.02.02 0 0 1 .023 0 .032.032 0 0 0 .02.007c.007 0 .038 0 .042.009s.009.028.017.028a.169.169 0 0 0 .037-.007c.008 0 .028-.008.028-.016a.013.013 0 0 1 .01-.012s.023 0 .023-.006v-.023s.007-.007.01 0 .007.037.014.037h.021a.01.01 0 0 1 .004.009zM12.058 1.611h-.015zm.56-.4a.153.153 0 0 1-.01.02l-.035.019-.044.016a.036.036 0 0 0-.016.01l-.041.019-.034.019-.018.02-.029.016c-.009.009-.015.006-.037.009s-.023.013-.023.013l-.035.01-.038.037-.037.01-.021.031a.044.044 0 0 1-.026.013c-.01 0-.01.016-.01.016l-.009.029-.047.039-.016.022.011-.007.032-.026.013-.007.026-.019.006-.009a.038.038 0 0 0 .007-.02l.009-.013.02-.012.016-.016.013-.007.053-.01.023.01h.092l.016-.007.013-.009.01-.013.022-.02.01-.006c.009-.006.029.006.029.006l.019.013.013-.013.022-.006.02-.006.013.018.019.013-.009.02-.01.017.016.016.017.01.022.009.019.01.033.019h.022a.067.067 0 0 1 .023.006l.019-.016h.066a.167.167 0 0 1 .038.013.147.147 0 0 0 .047-.01c.023-.01 0 0 0-.01a.015.015 0 0 1 .013-.009l.036-.026-.017-.019h-.014l-.036-.01a.107.107 0 0 0-.032-.013c-.016 0 0 0-.016-.01l-.01-.016v-.05l.016-.007h.057a.3.3 0 0 0 .047.013c.009 0 .053.007.053.007l.044.009.007.02-.007.025-.035.013-.022.01-.033.01.027.02.013-.006a.069.069 0 0 0 .037-.013.077.077 0 0 0 .042-.007c.013-.009.026 0 .044 0h.08c.012 0 .032.009.044.009a.264.264 0 0 0 .05 0l.039-.006h.04l.048.022.022.007.032-.01h.009a.053.053 0 0 0 .023-.013h.077l.029.006.037.007.032.006h.013l.023-.006.006-.013.006-.016a.105.105 0 0 0 .029-.01.037.037 0 0 0 .013-.023l-.022-.016h-.044l-.029-.013h-.019a.169.169 0 0 0-.033-.007h-.049l-.023-.019v-.014l.023-.032a.084.084 0 0 0 .029-.01.083.083 0 0 1 .025-.009l.016-.007h.013l.01-.013.013-.013.013-.016h.016l.025.01.026-.007.016-.009h.08l.013-.006h.034l.013-.013.016-.016.013.01h.029l.025-.013.013-.009h.013l.01.016.025.009a.381.381 0 0 0 .051 0l.038-.01h.106l.038-.009s.016-.022 0-.029 0 0-.01-.007-.012 0-.012 0h-.039l-.019.01h-.071l-.028-.006H14.1a.146.146 0 0 0-.036.006.036.036 0 0 1-.022 0l-.007-.01c-.006-.009-.041 0-.041 0v.013h-.038a.13.13 0 0 1-.029-.006l-.013-.01v-.016l-.029-.013.015-.014v-.018l-.063-.022s-.044-.01-.054-.023l-.022-.032c-.01-.013-.016-.01-.032-.023a.221.221 0 0 0-.029-.02l-.05-.007-.026.013a.056.056 0 0 1-.024.007.543.543 0 0 0-.07.006l-.04.006h-.043V.959l-.036-.022-.011.019-.046-.016-.029-.01a.054.054 0 0 1-.015-.009h-.06L13.234.9h-.1l-.06.047a.05.05 0 0 1-.022.01c-.01 0-.02.022-.02.022h-.012a.1.1 0 0 1-.035 0c-.01 0-.044-.006-.044-.006V.959c0-.009-.023 0-.023 0L12.9.966l-.042-.007h-.073a.193.193 0 0 0-.035.023l-.013.013-.01.016-.006.026-.01.025a.072.072 0 0 0-.009.026.122.122 0 0 1-.02.029l-.012.026-.035.032-.019.029c-.01.017-.008.014 0 .01s.002-.006.002-.004zm5.264 3.458zm58.3-.616H25.807V1.045h51v3.007zm-66.572 0H.017V1.045h10.219v3.007zm13.3-1.622z"/>
    </g>
</svg>
